<?xml version="1.0" encoding="UTF-8" standalone="no"?>
<!DOCTYPE svg PUBLIC "-//W3C//DTD SVG 1.1//EN" "http://www.w3.org/Graphics/SVG/1.1/DTD/svg11.dtd">
<svg width="100%" height="100%" viewBox="0 0 1000 1000" version="1.1" xmlns="http://www.w3.org/2000/svg" xmlns:xlink="http://www.w3.org/1999/xlink" xml:space="preserve" xmlns:serif="http://www.serif.com/" style="fill-rule:evenodd;clip-rule:evenodd;stroke-linejoin:round;stroke-miterlimit:2;">
    <path d="M141.054,1000C140.824,998.576 140.604,997.15 140.397,995.723C140.104,993.705 142.432,992.086 142.824,994.633C143.099,996.423 143.371,998.212 143.645,1000L141.054,1000ZM116.466,1000C116.135,998.292 117.503,995.563 118.565,997.514C119.01,998.334 119.472,999.165 119.952,1000L116.466,1000ZM124.251,1000C123.977,998.765 124.747,996.574 125.828,997.688C126.567,998.45 127.295,999.22 128.012,1000L124.251,1000ZM133.346,1000L133.195,999.731C132.902,999.211 132.825,998.415 133.301,997.961C133.494,997.776 133.687,997.591 133.881,997.407C134.444,996.868 135.073,997.186 135.507,997.684C136.107,998.375 136.585,999.162 136.994,1000L133.346,1000ZM640.541,1000C639.925,999.109 639.349,998.163 638.811,997.165C635.126,990.327 630.158,980.174 630.875,972.208C630.925,971.649 631.614,971.054 632.015,971.717C633.89,974.821 634.258,978.68 635.401,982.102C636.559,985.568 637.936,988.97 639.556,992.247C641.04,995.25 642.816,997.903 644.982,1000L640.541,1000ZM148.906,1000C149.073,998.877 149.278,997.763 149.554,996.668C149.845,995.511 150.948,996.388 150.944,997.201C150.939,998.103 150.921,999.04 150.886,1000L148.906,1000ZM154.761,1000C155.145,998.083 155.372,996.484 155.446,995.521C155.559,994.04 157.111,994.582 157.106,995.822C157.099,997.226 157.026,998.62 156.884,1000L154.761,1000ZM161.863,1000C162.121,998.072 162.1,996.173 161.76,994.401C161.377,992.403 163.657,990.85 164.147,993.329C164.575,995.487 164.67,997.74 164.466,1000L161.863,1000ZM669.665,1000C676.648,993.112 679.463,980.594 682.994,972.098C683.764,970.246 685.07,972.038 684.943,973.284C684.027,982.278 679.232,991.393 674.496,998.952C674.272,999.309 674.049,999.658 673.825,1000L669.665,1000ZM664.524,1000C667.519,996.369 669.673,990.82 671.085,987.371C672.865,983.022 673.723,977.724 676.379,973.849C676.758,973.296 677.284,973.889 677.261,974.375C676.942,981.15 673.621,988.547 670.742,994.598C669.988,996.182 669.092,998.115 668.006,1000L664.524,1000ZM648.58,1000C647.92,998.913 647.33,997.837 646.803,996.869C643.164,990.187 639.306,983.342 637.345,975.945C637.012,974.689 638.384,973.092 639.146,974.725C641.917,980.664 644.579,986.537 647.772,992.278C648.513,993.611 649.42,995.41 650.506,997.181C648.602,990.879 646.976,984.429 645.35,978.057C644.887,976.241 646.871,974.915 647.512,977.086C648.723,981.194 649.81,985.34 650.962,989.465C651.589,991.714 652.411,997.777 654.923,1000L648.58,1000ZM659.434,1000C659.487,999.967 659.539,999.933 659.592,999.898C662.668,997.855 663.205,989.147 663.948,985.727C664.67,982.404 665.152,978.915 666.412,975.75C666.858,974.628 667.931,975.36 667.894,976.319C667.648,982.894 665.899,989.982 664.346,996.375C664.06,997.553 663.676,998.818 663.133,1000L659.434,1000ZM655.489,1000C655.664,993.97 655.619,987.962 655.478,981.927C655.405,978.749 653.602,971.919 656.536,969.728C656.709,969.599 656.838,969.603 657.016,969.716C658.703,970.779 658.483,972.299 658.536,974.154C658.628,977.359 658.643,980.57 658.589,983.776C658.497,989.181 658.33,994.595 658.089,1000L655.489,1000ZM794.864,977.876C795.796,977.876 796.617,977.128 797.083,976.398C797.689,975.448 797.992,974.055 797.931,972.943C797.869,971.778 797.643,970.481 796.914,969.533C796.343,968.79 795.626,968.167 794.626,968.167C793.693,968.167 792.872,968.915 792.406,969.644C791.8,970.594 791.497,971.987 791.557,973.1C791.62,974.264 791.845,975.562 792.575,976.509C793.146,977.252 793.863,977.876 794.864,977.876ZM942.012,927.076C942.004,926.969 941.997,926.863 941.99,926.756C941.522,919.968 940.952,913.186 940.275,906.417C939.875,902.406 939.31,898.403 938.962,894.389C938.815,892.709 938.81,892.065 939.619,890.582C939.697,890.438 939.886,890.381 940.015,890.494C943.086,893.192 942.351,900.524 942.774,904.417C943.504,911.144 944.132,917.883 944.655,924.631C951.319,917.548 954.236,907.224 952.342,897.717C951.935,895.673 954.33,894.115 954.769,896.627C955.934,903.304 955.543,910.084 953.202,916.476C952.097,919.492 950.342,923.216 948.051,926.342C950.619,923.522 952.647,919.87 954.454,917.122C958.542,910.907 960.653,905.024 961.951,897.766C962.285,895.899 963.985,896.569 964.057,898.146C964.408,905.839 960.373,913.632 956.452,920.008C954.82,922.662 952.946,926.113 950.614,929.021C951.28,928.485 951.953,927.962 952.733,927.576C953.816,927.041 954.647,926.976 955.804,926.648C959.331,925.65 960.947,924.607 963.186,921.708C968.689,914.582 971.63,906.278 971.41,897.263C971.352,894.829 974.072,894.787 973.995,897.199C973.674,907.196 970.927,917.344 964.769,925.368C963.547,926.961 962.265,928.763 960.528,929.822C958.58,931.011 956.382,930.863 954.311,931.717C950.725,933.197 948.614,935.143 945.425,935.712C945.656,939.495 945.855,943.28 946.021,947.066C946.297,953.378 947.508,960.754 946.066,966.93C945.739,968.331 944.462,968.411 944.089,966.978C942.481,960.815 943.329,953.505 943.083,947.139C942.937,943.369 942.761,939.601 942.553,935.834C942.228,935.809 941.891,935.771 941.541,935.719C932.702,934.412 921.814,929.018 915.316,922.846C908.135,916.024 906.882,906.481 906.123,897.085C905.929,894.683 908.46,894.685 908.666,897.023C909.528,906.771 911.175,915.5 919.498,921.631C921.569,923.157 923.967,924.654 926.521,926.008C926.451,925.905 926.382,925.802 926.314,925.699C921.406,918.222 918.295,909.292 914.594,901.187C914.039,899.973 915.379,897.992 916.188,899.697C919.131,905.91 921.957,912.198 925.043,918.342C927.267,922.769 930.459,927.709 935.062,929.734C935.348,929.832 935.635,929.927 935.92,930.019C933.266,927.207 931.243,922.49 930.128,920.12C926.885,913.228 925.378,905.736 925.373,898.14C925.371,896.029 927.607,895.967 927.629,898.084C927.692,904.238 928.791,910.205 931.187,915.889C932.318,918.573 933.701,921.153 935.329,923.57C935.914,924.437 936.53,925.543 937.291,926.266C939.16,928.041 940.36,928.275 942.012,927.076ZM449.32,902.073C448.165,895.03 447.336,887.937 446.664,880.832C446.242,876.384 445.892,871.93 445.673,867.467C445.502,863.991 444.827,860.328 446.146,857.045C446.57,855.989 447.54,856.005 448.023,856.999C449.554,860.14 449.164,863.941 449.389,867.376C449.661,871.516 449.962,875.654 450.337,879.786C450.994,887.04 451.904,894.271 452.908,901.486C454.422,899.622 454.912,895.704 455.446,893.531C456.332,889.927 457.104,886.298 457.708,882.636C458.895,875.438 459.451,868.248 459.433,860.952C459.428,858.879 461.612,858.821 461.648,860.898C461.823,870.992 461.11,881.127 459.173,891.043C458.326,895.384 457.434,900.093 455.812,904.217C455.65,904.629 455.479,905.031 455.29,905.411C459.23,904.283 461.039,899.705 462.805,895.912C464.494,892.283 465.905,888.515 467.039,884.677C468.307,880.382 469.187,876.044 469.576,871.582C469.885,868.035 469.437,864.405 470.314,860.959C470.643,859.665 471.842,860.369 472.084,861.267C473.303,865.781 472.045,871.323 471.325,875.864C470.531,880.87 469.479,885.811 467.942,890.645C466.447,895.35 464.499,899.852 462.281,904.253C476.65,897.664 483.218,877.349 482.473,862.073C482.342,859.402 485.136,859.382 485.303,862.004C486.537,881.33 476.945,909.828 454.372,911.394C455.44,918.029 456.712,924.633 458.246,931.171C460.13,939.203 463.147,947.262 464.232,955.436C464.354,956.359 463.529,957.625 462.866,956.36C459.083,949.139 457.542,940.208 455.648,932.337C453.979,925.399 452.419,918.438 451.036,911.44C427.324,910.609 415.101,886.842 406.589,867.798C405.905,866.268 407.559,863.77 408.598,865.918C415.419,880.018 423.72,896.279 438.087,903.135C428.539,894.356 423.859,879.622 420.606,867.711C420.024,865.581 422.402,864.012 423.15,866.568C426.67,878.593 432.038,896.233 444.183,902.991C441.572,899.416 439.596,894.814 438.412,892.041C435.076,884.232 433.348,875.852 431.831,867.535C431.456,865.477 433.789,863.861 434.298,866.428C435.56,872.798 436.916,879.181 439.135,885.299C440.978,890.379 443.826,898.22 448.447,901.53C448.752,901.749 449.043,901.929 449.32,902.073ZM55.658,947.413C56.123,946.872 56.62,946.474 57.392,946.402C58.084,946.337 58.718,946.816 59.144,947.292C60.425,948.727 60.676,951.106 60.017,952.882C59.56,954.115 58.715,955.174 57.509,955.74C56.551,956.188 55.686,956.134 54.691,955.928C53.838,955.751 53.269,954.692 52.938,953.974C52.466,952.95 52.427,951.736 52.568,950.634C52.682,949.742 53.131,948.626 53.815,948.006C54.397,947.478 54.921,947.378 55.583,947.452L55.602,947.444L55.361,947.401C55.462,947.412 55.561,947.415 55.658,947.413ZM55.684,947.459L55.677,947.463C55.782,947.477 55.89,947.495 56.002,947.515C56.042,947.522 56.083,947.53 56.124,947.536C55.977,947.51 55.831,947.484 55.684,947.459ZM277.544,896.264C278.301,896.264 278.967,895.656 279.347,895.064C279.84,894.291 280.085,893.16 280.037,892.256C279.955,890.746 279.251,888.375 277.351,888.375C276.592,888.375 275.926,888.983 275.548,889.576C275.055,890.347 274.809,891.48 274.858,892.383C274.94,893.892 275.644,896.264 277.544,896.264ZM744.923,805.922C744.195,794.963 743.729,784.028 744.396,773.018C744.56,770.307 747.454,770.143 747.349,772.946C746.958,783.584 747.331,794.208 747.942,804.826C751.598,802.718 753.121,795.704 754.307,791.827C755.694,787.295 756.782,782.71 757.377,778.007C757.602,776.232 759.268,777.267 759.096,778.678C758.222,785.885 756.853,792.824 754.298,799.637C753.207,802.548 751.827,807.875 748.614,809.565C761.596,807.359 764.428,786.828 765.649,776.465C765.841,774.838 767.354,775.497 767.431,776.787C767.92,784.915 765.051,794.41 761.666,801.752C760.802,803.627 759.744,805.443 758.483,807.06C767.444,801.467 771.938,788.707 774.485,778.767C774.669,778.048 775.404,778.569 775.373,779.108C774.832,788.317 772.972,797.485 766.897,804.808C762.459,810.158 755.608,814.322 748.527,814.135C749.433,827.728 750.48,841.317 750.571,854.922C750.58,856.255 749.003,856.908 748.807,855.331C747.141,841.922 746.54,828.258 745.55,814.78C745.526,814.446 745.501,814.111 745.477,813.778C728.259,810.242 716.797,791.754 715.46,775.277C715.261,772.814 717.939,772.772 718.086,775.213C718.771,786.582 725.631,800.132 736.178,806.4C734.977,804.516 733.966,802.461 733.037,800.527C731.041,796.37 729.339,792.076 727.968,787.672C726.929,784.33 725.448,780.776 726.07,777.264C726.161,776.756 726.618,776.357 727.02,776.855C728.613,778.824 728.758,781.269 729.454,783.674C730.532,787.4 731.833,791.068 733.335,794.644C735.37,799.487 737.986,807.026 743.311,809.171C740.748,807.438 739.666,803.619 738.96,800.752C737.051,793.001 735.54,785.138 733.927,777.322C733.515,775.325 735.75,773.786 736.315,776.249C737.427,781.105 738.566,785.957 739.601,790.83C740.086,793.11 740.565,795.391 741.055,797.67C741.3,798.859 741.559,800.046 741.831,801.229C742.334,804.319 743.365,805.884 744.923,805.922ZM132.478,808.493C124.677,806.97 119.046,800.868 114.794,794.444C109.824,786.935 106.687,779.153 106.911,770.069C106.961,768.046 109.136,767.97 109.085,770.016C108.868,778.826 113.371,787.233 118.436,794.169C120.959,797.625 123.603,800.434 126.694,802.358C125.138,800.057 123.893,797.668 123.098,795.91C119.812,788.641 118.312,780.607 116.514,772.884C116.155,771.341 117.947,770.165 118.354,772.057C119.77,778.645 121.256,784.793 123.947,791.025C125.258,794.06 128.052,800.056 131.628,803.304C130.196,800.615 129.267,797.212 128.643,795.565C126.432,789.737 125.03,783.75 124.288,777.564C124.051,775.589 126.35,773.974 126.676,776.492C127.268,781.056 128.155,785.587 129.45,790.007C130.205,792.585 131.696,799.6 134.879,801.449C136.769,792.349 138.457,783.212 140.194,774.08C140.637,771.752 142.759,773.098 142.472,774.972C141.094,783.962 139.343,792.89 137.401,801.776C137.807,801.666 138.234,801.48 138.681,801.208C140.165,800.305 141.682,796.525 142.588,795.026C143.534,793.461 144.458,791.881 145.359,790.291C147.338,786.796 148.894,782.134 151.955,779.485C152.768,778.782 153.265,780.214 153.164,780.832C152.17,786.9 147.791,792.746 144.548,797.857C143.642,799.284 142.38,801.908 140.784,804C145.22,801.508 149.621,796.957 152.836,793.691C157.223,789.235 160.753,784.213 164.003,778.895C165.404,776.601 166.849,780.403 166.079,781.894C162.609,788.621 157.769,794.713 152.137,799.771C150.644,801.113 149.087,802.395 147.475,803.604C159.452,799.852 167.647,790.254 175.163,779.777C176.789,777.51 178.424,781.375 177.36,782.95C172.469,790.189 167.228,797.486 159.845,802.387C154.204,806.133 146.561,808.556 139.386,808.893C138.158,809.514 136.873,809.93 135.636,809.752L135.609,809.747C135.556,809.978 135.502,810.21 135.449,810.441C132.906,821.445 130.892,833.357 126.725,843.868C126.052,845.564 124.681,843.965 124.897,842.757C126.924,831.399 130.738,820.24 133.268,808.954C133.002,808.815 132.739,808.661 132.478,808.493ZM969.204,798.907C969.114,799.093 969.023,799.278 968.933,799.464C967.935,801.517 967.572,806.51 970.803,806.97C973.994,807.423 974.529,802.291 973.562,800.255C973.458,800.036 973.354,799.817 973.25,799.598C972.508,798.034 970.29,796.673 969.204,798.907ZM573.27,750.364C573.017,749.15 573.117,747.877 573.759,746.779C574.2,746.022 575.055,745.561 575.856,745.735C576.307,745.7 576.699,745.794 577.185,745.904C577.007,745.872 576.83,745.84 576.652,745.808C577.057,745.889 577.438,746.004 577.828,746.105C578.07,746.119 578.306,746.109 578.554,746.075C579.472,745.95 580.26,746.742 580.763,747.395C581.467,748.309 581.684,749.561 581.745,750.685C581.848,752.583 580.951,755.215 578.783,755.447C575.66,755.779 573.534,753.211 573.27,750.364ZM357.076,677.552C357.463,666.541 358.426,655.564 359.884,644.639C360.263,641.798 362.937,643.451 362.641,645.718C361.419,655.113 360.563,664.549 360.105,674.007C361.41,671.904 362.734,669.813 364.04,667.709C366.64,663.526 370.953,658.441 371.205,653.335C371.306,651.294 373.464,651.182 373.42,653.282C373.323,657.894 371.29,661.405 368.947,665.273C365.971,670.19 363.056,675.175 359.869,679.965C359.848,680.654 359.829,681.342 359.812,682.031C359.853,682.035 359.892,682.039 359.931,682.043C360.494,682.102 361.05,682.138 361.601,682.153C361.817,682.037 362.033,681.912 362.25,681.774C373.499,674.651 381.481,662.883 383.107,649.661C383.401,647.265 385.644,648.668 385.425,650.568C384.519,658.429 381.779,666.056 376.992,672.407C374.642,675.526 371.842,678.203 368.831,680.677C368.585,680.88 368.335,681.089 368.082,681.303C381.232,677.397 389.483,660.917 392.505,648.44C392.989,646.442 394.844,647.565 394.504,649.221C391.267,664.98 379.924,690.062 360.049,686.839C359.944,686.822 359.838,686.805 359.736,686.787C359.675,698.615 360.643,710.375 360.806,722.193C360.824,723.514 359.359,724.112 359.082,722.592C356.941,710.825 356.741,698.571 356.881,686.591C355.446,686.358 354.169,685.71 353.03,684.798C338.495,678.48 332.137,661.175 329.775,646.112C329.526,644.525 331.296,643.239 331.693,645.251C333.985,656.855 338.172,670.371 347.715,677.399C347.217,676.382 346.772,675.383 346.372,674.463C342.546,665.659 339.424,656.478 336.936,647.209C336.401,645.216 338.729,643.698 339.324,646.137C340.737,651.933 345.157,672.551 352.574,680.178C353.578,680.605 354.629,680.971 355.729,681.269C353.254,678.958 352.693,675.506 352.04,672.058C350.561,664.236 349.134,656.405 347.785,648.559C347.493,646.865 349.409,645.52 349.821,647.645C350.765,652.524 351.683,657.404 352.563,662.294C353.285,666.311 353.309,671.672 355.065,675.372C355.82,676.963 356.471,677.562 357.076,677.552ZM0,604.857C1.317,615.545 2.576,626.239 3.868,636.931C9.147,631.248 11.397,609.438 12.102,606.327C12.358,605.2 13.686,604.916 13.843,606.284C14.627,613.12 12.741,620.721 10.887,627.289C9.871,630.889 8.305,639.044 4.451,641.731L4.547,642.512L4.576,642.753C9.631,639.731 12.517,630.024 14.352,625.252C16.869,618.705 17.812,611.66 20.28,605.172C20.757,603.917 21.92,604.768 21.902,605.794C21.751,614.236 18.093,623.471 14.847,631.151C13.404,634.565 11.725,639.493 9.073,643.111C15.425,640.243 19.84,631.758 22.703,625.98C26.661,617.993 27.652,609.747 30.044,601.327C30.567,599.484 32.131,600.948 32.206,602.158C32.808,611.937 28.237,622.709 23.525,631.046C19.457,638.243 14.14,647.162 5.241,648.146L5.252,648.24C7.154,663.534 10.336,678.313 13.481,693.371C13.76,694.704 12.252,696.623 11.489,694.72C5.834,680.624 3.869,664.682 2.008,649.697C1.947,649.206 1.887,648.715 1.827,648.221C1.214,648.19 0.605,648.134 0,648.056L0,643.65C0.421,643.718 0.853,643.747 1.295,643.729L1.227,643.138L1.164,642.589C0.755,642.535 0.367,642.42 0,642.255L0,638.002C0.231,638.104 0.458,638.177 0.68,638.223C0.446,636.063 0.22,633.901 0,631.739L0,604.857ZM847.292,670.489C847.302,670.433 847.311,670.378 847.32,670.322C847.48,669.355 847.387,668.078 846.972,667.176C846.655,666.489 846.126,665.516 845.319,665.334C845.285,665.326 845.25,665.318 845.216,665.31C844.688,665.19 844.251,665.16 843.732,665.346C843.069,665.585 842.605,666.307 842.32,666.905C841.657,668.296 841.563,670.208 842.219,671.629C842.664,672.597 843.482,673.704 844.679,673.674C846.255,673.635 847.074,671.798 847.292,670.489ZM1000,648.056C991.645,646.981 984.232,641.623 979.098,635.038C973.516,627.877 967.861,617.638 968.303,608.315C968.411,606.042 970.848,605.93 970.764,608.254C970.441,617.203 976.85,627.725 982.822,634.138C985.173,636.663 987.984,638.955 991.08,640.71C989.823,638.791 988.767,636.789 987.871,635.124C983.478,626.964 979.807,618.486 976.741,609.745C976.218,608.254 977.885,605.769 978.681,607.93C981.188,614.73 984.041,621.397 987.315,627.866C989.714,632.605 993.738,642.627 1000,643.65L1000,648.056ZM1000,642.255C997.181,640.985 995.59,636.73 994.619,634.207C991.441,625.956 988.041,617.636 985.429,609.19C985.004,607.814 986.359,605.334 987.3,607.44C989.608,612.602 991.443,618.018 993.435,623.309C994.327,625.678 995.212,628.049 996.101,630.419C996.807,632.303 997.883,636.951 999.821,637.918C999.881,637.948 999.94,637.976 1000,638.002L1000,642.255ZM706.761,570.837C722.689,565.286 733.035,545.804 733.278,529.854C733.313,527.56 735.753,527.479 735.74,529.793C735.634,549.497 722.452,573.704 701.009,576.385C700.779,576.414 700.548,576.44 700.316,576.464C700.713,578.964 701.173,581.458 701.709,583.943C705.231,600.253 711.614,615.553 716.517,631.435C716.997,632.99 715.455,635.796 714.403,633.412C707.641,618.093 702.271,601.649 698.742,585.276C698.129,582.433 697.611,579.578 697.171,576.713C695.896,576.876 694.68,576.789 693.517,576.508C675.372,574.897 658.439,559.856 652.982,543.131C652.459,541.527 654.281,538.859 655.06,541.187C659.495,554.418 670.88,565.428 684.249,570.045C682.68,568.323 681.245,566.518 679.919,564.955C673.747,557.679 668.19,549.954 665.112,540.842C664.677,539.556 666.14,537.431 666.775,539.287C669.446,547.094 673.972,553.814 679.185,560.139C682.025,563.584 685.765,568.919 690.231,571.648C690.455,571.691 690.679,571.732 690.904,571.771C688.459,569.845 686.684,566.753 685.425,564.107C681.634,556.143 679.396,547.559 678.25,538.839C678.046,537.285 679.835,536.014 680.129,537.994C681.03,544.061 686.37,571.858 696.282,570.078C694.89,558.009 694.624,545.81 694.198,533.659C694.104,530.99 696.883,530.961 697.028,533.59C697.677,545.291 697.958,557.043 699.267,568.677C703.056,565.595 704.569,557.339 705.916,553.07C707.888,546.815 709.453,540.47 711.025,534.107C711.422,532.5 712.826,533.406 712.624,534.733C711.309,543.336 709.062,551.828 706.351,560.092C705.128,563.819 703.8,569.542 700.312,572.192C706.047,569.179 709.917,561.533 713.153,556.397C717.755,549.093 721.551,541.474 722.567,532.805C722.804,530.778 724.697,531.97 724.525,533.571C723.508,543.056 719.356,551.506 714.371,559.512C712.23,562.951 709.827,567.338 706.761,570.837ZM1000,631.739C999.024,622.158 998.165,612.564 997.252,602.977C997.069,601.056 999.435,600.295 999.697,602.41C999.799,603.225 999.9,604.041 1000,604.857L1000,631.739ZM216.438,601.632C215.147,600.698 215.121,598.425 215.555,597.097C215.75,596.502 216.226,595.789 216.827,595.53C217.478,595.25 217.973,595.482 218.524,595.825C218.592,595.868 218.662,595.91 218.731,595.953C219.653,595.213 220.692,595.817 221.193,596.746C221.515,597.343 221.691,598.109 221.673,598.86C221.774,599.072 221.869,599.283 221.962,599.487C222.37,600.387 222.371,601.561 222.036,602.481C221.785,603.17 221.224,603.999 220.39,603.992C219.486,603.985 218.64,603.803 217.958,603.177C217.433,602.695 216.952,602.152 216.453,601.643L216.438,601.632ZM218.609,595.956C218.563,595.931 218.515,595.909 218.465,595.89C218.51,595.912 218.555,595.933 218.6,595.954L218.609,595.956ZM516.296,549.653C516.558,548.363 517.115,547.144 518.376,546.521C518.816,546.304 519.361,546.155 519.838,546.109C520.584,546.039 521.247,546.385 521.774,546.88C522.164,547.099 522.53,547.371 522.823,547.695C523.908,548.896 524.284,550.368 524.079,551.971C523.929,553.143 523.229,554.486 522.016,554.78C521.835,554.978 521.635,555.16 521.411,555.331C521.478,555.286 521.545,555.241 521.612,555.196C521.437,555.316 521.28,555.446 521.129,555.595C520.87,555.85 520.474,556.082 520.047,556.215C519.884,556.358 519.7,556.485 519.49,556.592C518.876,556.903 518.173,556.751 517.627,556.419C515.989,555.421 515.605,553.096 515.852,551.336C515.935,550.743 516.086,550.189 516.296,549.653ZM520.807,555.233L520.81,555.229L520.81,555.226L520.807,555.233ZM984.993,499.889C985.504,499.542 986.128,499.538 986.617,499.956C987.271,500.295 987.687,501.007 987.983,501.649C988.417,502.592 988.453,503.71 988.323,504.725C988.147,506.102 987.142,507.951 985.514,507.659C983.807,507.353 983.221,505.269 983.14,503.788C983.066,502.422 983.61,500.462 984.993,499.889ZM442.949,452.642C442.417,452.424 441.88,452.185 441.338,451.925C428.755,445.884 411.415,436.481 415.122,419.76C415.702,417.147 418.199,418.635 417.72,420.777C415.411,431.095 424.134,439.137 433.323,444.375C428.854,438.245 426.171,430.191 425.14,423.762C424.786,421.557 427.245,419.778 427.802,422.567C429.234,429.739 432.86,440.432 439.324,445.97C438.344,444.609 437.663,442.977 437.216,441.435C435.677,436.124 435.069,430.412 434.075,424.974C433.777,423.341 435.625,422.058 436.033,424.095C436.853,428.2 438.095,443.92 443.802,445.331C444.668,438.094 445.596,430.862 446.569,423.634C446.935,420.912 449.478,422.501 449.207,424.666C448.362,431.403 447.539,438.143 446.723,444.884C449.304,443.455 451.365,438.533 452.59,436.258C454.22,433.231 455.507,430.051 457.096,427.01C457.926,425.422 458.978,427.875 458.687,428.789C457.043,433.942 454.249,438.892 451.477,443.514C450.166,445.699 448.669,448.223 446.234,448.927L446.18,449.375C452.601,450.508 455.29,445.182 458.223,440.326C460.731,436.175 463.618,432.518 466.909,428.961C467.516,428.304 467.996,429.846 467.638,430.318C465.08,433.688 462.72,437.19 460.553,440.83C458.897,443.611 457.762,446.787 455.838,449.396C455.663,449.632 455.483,449.858 455.297,450.074C464.456,447.9 471.287,438.987 475.49,429.949C476.525,427.723 478.38,430.186 477.662,431.789C471.585,445.355 460.724,457.901 445.672,453.59C444.378,464.324 443.086,475.059 441.739,485.788C441.481,487.84 439.654,486.595 439.78,485.021C440.65,474.207 441.725,463.417 442.949,452.642ZM855.742,424.747C855.27,420.527 854.863,416.299 854.512,412.067C854.198,408.247 853.944,404.422 853.719,400.596C853.521,397.193 852.666,393.416 854.146,390.244C854.445,389.601 855.166,389.102 855.684,389.903C857.385,392.531 857.112,395.524 857.367,398.59C857.683,402.416 858.045,406.237 858.433,410.056C858.796,413.653 859.186,417.246 859.598,420.839C861.348,417.687 862.532,413.511 863.601,410.619C865.182,406.349 866.36,401.98 867.199,397.506C867.658,395.061 869.927,396.468 869.598,398.444C868.499,405.045 866.687,411.468 864.134,417.658C863.166,420.003 861.998,423.619 860.259,426.436L860.347,427.159L860.395,427.551C864.153,425.391 866.251,420.366 868.291,416.292C871.472,409.936 874.644,403.575 877.82,397.217C879.002,394.851 880.755,398.687 879.956,400.303C875.828,408.667 872.054,417.376 867.476,425.503C867.055,426.25 866.602,426.968 866.117,427.645C870.621,425.439 873.948,421.362 876.827,416.797C881.251,409.783 885.383,402.513 886.782,394.249C887.32,391.073 890.035,392.997 889.819,395.437C888.974,405.008 883.265,414.265 877.972,422.05C873.723,428.3 868.419,432.944 861.207,434.002C861.246,434.308 861.286,434.614 861.325,434.92C862.362,442.891 863.229,450.886 864.579,458.813C865.87,466.388 868.481,474.342 868.409,482.047C868.399,483.055 867.457,483.915 866.857,482.732C863.488,476.087 862.854,467.46 861.487,460.202C859.955,452.077 858.285,443.985 857.134,435.794C857.059,435.264 856.986,434.735 856.914,434.205C837.52,433.453 822.999,417.507 821.282,398.708C821.026,395.906 823.941,395.945 824.236,398.635C825.534,410.478 833.054,420.715 843.31,425.856C842.311,424.516 841.421,423.084 840.62,421.638C838.678,418.13 837.03,414.453 835.323,410.828C833.696,407.372 831.323,404.048 831.53,400.149C831.552,399.724 831.76,398.879 832.387,399.103C834.668,399.917 835.02,401.843 836.054,403.966C837.57,407.081 839.097,410.191 840.59,413.316C842.933,418.223 845.493,423.903 850.192,426.79C849.69,425.75 849.29,424.656 848.943,423.733C846.153,416.303 843.492,408.823 840.87,401.332C840.183,399.367 842.369,396.077 843.434,398.934C845.165,403.573 846.875,408.217 848.538,412.881C849.395,415.287 851.73,425.602 855.742,424.747ZM119.714,433.761C118.884,423.858 118.272,413.773 118.901,403.992C118.97,402.921 120.217,402.917 120.364,403.956C121.732,413.616 121.835,423.507 122.382,433.302C124.171,432.505 124.526,430.811 125.321,428.432C126.138,425.985 126.597,423.394 127.185,420.884C128.197,416.559 129.075,412.179 130.318,407.914C130.886,405.959 132.643,407.814 132.374,409.164C131.038,415.858 129.299,422.685 127.293,429.212C126.759,430.95 125.722,434.348 124.056,436.644C131.421,432.703 137.066,413.083 138.21,408.016C138.621,406.198 140.092,407.282 139.968,408.704C139.304,416.393 136.949,423.623 133.16,430.338C132.319,431.829 131.239,433.786 129.929,435.657C133.795,433.258 136.943,429.278 139.191,425.443C143.006,418.93 144.217,412.166 145.979,404.97C146.214,404.009 147.254,403.796 147.442,404.934C149.745,418.826 138.517,438.955 124,441.741C123.673,441.804 123.346,441.852 123.02,441.886C124.247,454.782 126.308,467.505 129.387,480.092C129.901,482.191 127.568,483.761 126.881,481.217C123.496,468.663 121.66,455.742 120.51,442.808L120.427,441.874C113.522,441.123 106.965,434.883 102.581,430.275C96.77,424.168 92.307,417.053 89.161,409.244C88.517,407.646 90.297,405.024 91.24,407.3C94.124,414.261 98.114,420.676 103.305,426.158C105.106,428.06 107.146,430.101 109.368,431.941C108.344,430.458 107.443,429.051 106.696,427.927C102.617,421.785 99.629,415.158 97.592,408.073C97.236,406.833 98.852,405.21 99.363,406.874C102.211,416.144 107.018,425.045 113.792,432.087C112.874,430.31 112.13,428.624 111.613,427.643C108.611,421.943 106.511,416.014 105.151,409.727C104.691,407.598 107.098,405.963 107.696,408.584C108.791,413.388 110.267,418.103 112.241,422.622C113.321,425.094 114.558,427.48 115.962,429.785C117.249,431.896 117.696,433.593 119.714,433.761ZM655.788,350.484C647.442,348.135 641.213,341.174 637.183,333.772C632.531,325.228 628.647,314.418 626.91,304.852C626.664,303.495 627.943,301.753 628.866,303.527C635.207,315.729 637.005,333.471 648.572,341.968C647.833,340.28 647.282,338.553 646.887,337.011C645.698,332.369 645.009,327.632 643.717,323.007C642.37,318.186 640.569,313.507 639.263,308.679C638.898,307.325 640.43,305.559 641.219,307.354C643.999,313.681 646.096,320.564 647.674,327.293C648.78,332.011 649.96,342.078 654.905,344.954C652.956,342.173 653.123,336.168 652.848,333.816C652.059,327.087 651.651,320.17 652.392,313.42C652.621,311.336 654.644,312.139 654.7,313.837C654.871,319.006 654.798,324.152 655.246,329.315C655.505,332.295 655.714,335.419 656.397,338.342C656.849,340.277 657.096,341.559 657.881,341.739C660.246,331.55 662.387,321.303 664.492,311.061C665.091,308.147 667.826,309.811 667.369,312.187C665.605,321.36 663.6,330.471 661.46,339.557C664.667,336.496 667.047,331.653 669.438,328.024C671.976,324.173 674.205,319.937 677.257,316.474C678.442,315.129 678.963,318.183 678.586,318.945C675.175,325.84 669.991,332.229 665.812,338.712C664.745,340.366 663.177,343.278 661.149,345.022C672.271,340.878 679.801,327.672 685.734,318.269C687.056,316.173 688.543,319.663 687.69,321.095C683.691,327.804 679.554,334.504 674.165,340.208C672.619,341.845 670.332,344.118 667.767,346.1C680.631,343.27 690.396,329.853 698.219,320.124C699.306,318.772 700.084,321.091 699.543,322.037C691.263,336.497 677.396,354.163 658.67,351.114C658.473,351.916 658.274,352.719 658.075,353.521C656.485,359.926 654.83,366.315 653.071,372.676C651.241,379.295 649.722,386.456 646.817,392.691C646.085,394.264 644.878,392.815 645.065,391.626C647.16,378.372 652.102,365.207 655.367,352.175C655.508,351.611 655.649,351.048 655.788,350.484ZM309.165,359.113C309.111,359.194 309.059,359.278 309.01,359.362C308.348,360.684 307.023,361.229 305.037,360.997C304.178,360.505 303.822,359.85 303.438,358.961C302.369,356.482 302.806,352.862 305.264,351.387C306.887,350.413 309.036,350.404 310.724,351.208C312.01,351.821 312.469,353.303 312.541,354.63C312.597,355.666 312.135,357.818 310.894,358.137C310.554,358.224 310.259,358.366 309.933,358.487C309.798,358.567 309.721,358.61 309.701,358.617C309.656,358.653 309.611,358.691 309.568,358.729C309.461,358.817 309.359,358.91 309.262,359.008C309.224,359.049 309.192,359.084 309.165,359.113ZM71.725,305.717C70.65,304.952 70.237,303.56 70.167,302.242C70.083,300.689 70.829,298.421 72.649,298.252C73.385,298.183 74.114,298.814 74.5,299.357C75.043,300.122 75.301,301.194 75.323,302.115C75.356,303.461 74.918,305.084 73.726,305.812C73.45,306.153 73.067,306.376 72.601,306.309C72.205,306.252 71.925,306.023 71.725,305.717ZM576.95,257.534C577.122,257.66 577.27,257.824 577.378,258.022C577.924,259.025 578.191,260.04 578.019,261.193C577.894,262.033 577.557,262.827 576.965,263.444C576.409,264.025 575.627,264.405 574.813,264.409C573.951,264.413 573.237,263.731 572.788,263.064C572.197,262.187 571.929,261.063 571.9,260.021C571.855,258.448 572.372,256.964 573.267,255.687C573.64,255.153 574.087,254.76 574.751,254.698C575.269,254.65 575.744,255.008 576.061,255.364C576.49,255.844 576.717,256.414 576.868,257.033C576.904,257.183 576.932,257.353 576.95,257.534ZM1000,211.549C999.394,212.133 998.793,212.701 998.205,213.251C993.63,217.534 988.021,221.315 981.734,221.694C981.567,222.539 981.398,223.384 981.227,224.228C979.92,230.689 978.515,237.15 976.917,243.546C975.51,249.18 974.217,255.064 971.236,260.099C970.487,261.363 969.697,259.573 969.764,258.857C970.352,252.672 972.367,246.693 973.987,240.713C975.703,234.379 977.237,228.017 978.56,221.59C978.416,221.572 978.273,221.552 978.129,221.53C961.55,218.996 954.55,198.743 954.386,184.179C954.373,183.022 955.782,181.657 956.353,183.309C958.932,190.767 959.484,198.548 963.688,205.47C965.387,208.267 967.667,210.858 970.36,212.818C969.867,211.92 969.422,211.034 969.015,210.205C965.702,203.457 964.1,196.014 962.519,188.716C962.058,186.586 964.468,184.952 965.063,187.573C966.129,192.258 969.866,209.575 976.258,215.167C974.817,212.515 974.065,209.116 973.527,206.799C972.038,200.402 971.48,193.564 970.796,187.048C970.509,184.311 973.45,184.298 973.709,186.977C974.171,191.778 974.273,196.577 974.964,201.371C975.338,203.967 976.921,212.732 979.982,214.182C981.827,203.869 983.145,193.483 984.282,183.058C984.622,179.938 987.497,181.797 987.279,184.231C986.422,193.828 985.066,203.387 983.385,212.884C984.677,211.403 985.356,208.411 986.145,206.61C987.149,204.318 988.154,202.028 989.178,199.745C990.765,196.209 992.254,192.606 994.095,189.194C995.196,187.153 996.624,190.294 996.183,191.529C993.661,198.583 990.282,205.404 987.226,212.242C987.051,212.632 986.873,213.059 986.687,213.502C992.473,208.218 996.016,200.419 1000,193.622L1000,201.257C998.005,204.706 995.765,208.025 993.394,211.097C993.211,211.334 993.023,211.579 992.831,211.832C995.038,210.221 997.089,208.369 999,206.591C999.337,206.278 999.67,205.963 1000,205.644L1000,211.549ZM247.482,208.086C251.512,206.049 255.181,203.304 258.345,199.938C261.475,196.606 264.213,192.686 265.587,188.283C267.182,183.17 266.604,178.174 266.491,172.948C266.454,171.257 268.238,170.578 268.656,172.446C273.022,191.968 259.504,209.272 241.318,214.738C243.99,224.943 248.358,235.108 249.928,245.513C250.018,246.107 249.325,247.8 248.688,246.669C243.714,237.844 241.445,226.66 238.852,216.904C238.727,216.432 238.602,215.959 238.479,215.485C220.758,219.46 200.205,209.866 192.933,192.898C192.626,192.182 193.352,190.329 194.091,191.468C201.321,202.623 211.209,210.092 223.399,211.89C221.801,210.947 220.343,209.913 219.112,208.89C212.645,203.517 210.508,195.379 205.173,189.141C204.804,188.709 204.949,186.854 205.827,187.296C210.932,189.868 212.382,196.655 215.421,201.042C219.522,206.965 226.251,211.221 233.445,212.101C234.062,212.04 234.683,211.967 235.307,211.881C231.989,210.293 229.094,206.262 227.133,204.054C222.815,199.191 217.944,193.98 215.559,187.852C215.332,187.269 215.764,184.9 216.747,185.941C219.996,189.376 222.248,193.739 225.103,197.506C227.575,200.768 231.82,207.448 236.085,208.707C236.334,208.781 236.578,208.829 236.819,208.853C234.833,200.572 233.15,192.221 231.716,183.823C231.35,181.677 233.75,179.966 234.3,182.663C236.025,191.114 237.688,199.579 239.656,207.976C245.556,203.542 248.246,184.023 249.368,179.763C249.686,178.552 250.846,179.459 250.835,180.326C250.747,187.112 248.62,194.199 246.328,200.548C245.547,202.712 244.525,206.634 242.756,209.401C246.464,206.38 249.098,201.488 251.704,197.53C256.732,189.892 258.71,182.631 259.174,173.585C259.207,172.939 260.002,172.042 260.347,173.067C262.897,180.639 259.825,189.177 256.173,195.883C253.959,199.949 251.206,203.562 248.27,207.12C248.009,207.435 247.747,207.759 247.482,208.086ZM858.935,242.838L858.956,242.205C859.13,236.81 852.995,236.899 853.171,242.347C853.178,242.558 853.185,242.768 853.192,242.979C853.368,248.397 858.762,248.173 858.935,242.838ZM0,205.644C2.534,203.201 4.891,200.594 7.086,197.838C9.218,195.159 10.925,191.98 13.404,189.619C14.502,188.574 15.015,190.897 14.772,191.596C12.215,198.953 5.787,205.984 0,211.549L0,205.644ZM0,193.622C0.781,192.289 1.579,190.994 2.415,189.764C3.727,187.832 5.075,190.838 4.536,192.137C3.253,195.223 1.717,198.288 0,201.257L0,193.622ZM782.559,138.715C765.343,132.88 756.619,114.61 756.448,97.21C756.423,94.595 759.183,94.529 759.238,97.142C759.52,110.706 765.329,123.676 776.336,130.975C774.798,128.64 773.378,126.227 772.181,123.706C768.553,116.059 766.902,107.028 767.401,98.594C767.561,95.887 769.966,96.667 769.79,99.026C769.148,107.594 770.839,115.042 775.232,122.435C776.453,124.489 777.954,127.491 779.798,130.018C779.156,127.717 778.928,125.182 778.639,123.313C777.478,115.791 776.742,108.229 776.778,100.614C776.79,98.272 779.215,98.206 779.281,100.552C779.435,106.029 779.696,111.512 780.359,116.953C780.684,119.628 781.12,122.282 781.629,124.928C782.141,127.595 781.946,127.501 784.564,129.214C786.609,119.25 788.705,109.299 790.808,99.362C791.348,96.815 793.71,98.267 793.327,100.347C791.459,110.45 789.581,120.564 787.649,130.668C788.24,130.569 788.792,130.025 789.857,129.038C793.902,125.291 796.492,120.167 798.544,115.137C800.049,111.45 800.847,107.277 802.894,103.865C803.762,102.417 804.717,104.451 804.61,105.314C803.811,111.747 800.494,118.629 797.373,124.279C796.086,126.608 794.245,130.174 791.839,132.73C796.205,129.857 800.159,125.187 803.03,121.284C806.561,116.486 808.235,110.623 811.628,105.89C812.795,104.264 813.897,106.497 813.73,107.664C812.706,114.785 807.388,121.971 802.953,127.408C801.205,129.551 798.721,132.746 795.858,135.387C800.111,134.109 803.881,131.241 807.389,127.564C810.393,124.416 812.966,120.951 815.321,117.304C817.416,114.06 818.526,110.472 820.442,107.179C820.901,106.39 821.651,107.274 821.616,107.88C821.107,116.612 814.693,125.131 808.92,131.276C803.071,137.502 795.981,141.202 787.611,139.976C787.025,140.048 786.437,140.055 785.849,139.988C783.19,153.618 780.407,167.222 777.392,180.754C776.826,183.297 774.512,181.85 774.874,179.768C777.255,166.077 779.877,152.408 782.623,138.76L782.611,138.751L782.559,138.715ZM466.116,125.229C467.81,124.292 469.376,122.485 470.509,120.478C474.285,113.788 475.962,105.798 476.862,98.25C477.393,93.794 476.349,87.209 479.339,83.554C480.511,82.121 481.48,85.193 481.086,86.077C479.179,90.348 479.607,96.333 479.061,100.939C478.559,105.186 477.916,109.406 476.796,113.54C475.584,118.009 473.303,124.976 469.072,128.387C469.561,128.296 470.047,128.194 470.529,128.08C472.783,125.86 474.484,122.619 475.997,120.314C478.345,116.737 480.622,113.105 482.716,109.373C486.98,101.769 489.782,94.12 491.962,85.723C492.531,83.532 494.322,85.705 494.171,87.066C493.096,96.763 487.83,105.996 483.157,114.375C480.855,118.501 478.377,122.518 475.691,126.402C482.639,123.496 488.583,118.29 492.633,111.94C497.608,104.14 499.873,95.177 502.669,86.477C503.16,84.95 504.261,86.495 504.192,87.404C502.752,106.657 490.466,129.228 470.085,133.026C468.969,133.808 467.686,134.335 466.134,134.44L466.128,134.441C466.306,145.421 467.068,156.238 468.17,167.253C468.334,168.892 466.52,169.437 466.126,167.727C463.625,156.883 463.595,145.467 463.398,134.312C462.199,134.113 461.077,133.731 460.024,133.205C452.358,131.952 445.656,127.525 440.389,121.527C433.461,113.639 427.536,102.93 428.119,92.177C428.23,90.137 430.406,90.024 430.334,92.122C429.891,105.183 439.693,119.611 452.245,125.759C451.054,124.047 449.994,122.273 449.028,120.631C443.753,111.662 439.003,102.423 434.092,93.246C433.315,91.794 434.954,89.416 436.032,91.432C440.148,99.123 444.568,106.697 448.377,114.543C450.465,118.846 453.502,124.546 457.787,127.863C458.156,127.963 458.525,128.055 458.896,128.14C455.289,124.409 453.636,117.001 452.161,113.343C449.177,105.947 443.279,96.453 445.119,88.208C445.486,86.563 446.957,87.088 447.022,88.552C447.384,96.708 451.819,104.581 454.89,112.044C456.286,115.437 457.437,119.187 459.181,122.412C460.385,124.64 461.783,125.67 463.208,125.869C462.959,113.185 463.162,100.505 461.454,87.901C461.213,86.123 463.246,84.664 463.607,86.934C465.62,99.591 466.215,112.425 466.116,125.229ZM170.691,106.658C170.708,106.827 170.702,106.804 170.673,106.587C170.534,106.076 170.52,105.491 170.535,104.958C170.564,103.884 170.935,102.315 172.253,102.196C172.931,102.136 173.67,102.452 174.334,102.6C175.024,102.754 175.587,103.591 175.896,104.163C176.102,104.547 176.244,104.932 176.346,105.326C176.457,105.54 176.568,105.753 176.68,105.966C177.476,107.496 177.192,109.902 176.121,111.226C175.078,112.517 173.778,112.221 172.783,111.187C172.188,110.94 171.697,110.196 171.424,109.687C170.958,108.822 170.831,107.955 170.728,106.997L170.691,106.658ZM918.609,82.389C918.973,82.178 919.403,82.113 919.892,82.299C919.924,82.311 919.957,82.324 919.99,82.336L919.836,82.308C921.2,82.678 921.712,84.188 921.784,85.533C921.825,86.299 921.617,87.258 921.199,87.913C920.921,88.348 920.274,89.005 919.671,88.93C919.132,88.862 918.779,88.81 918.351,88.45C918.068,88.212 917.805,87.908 917.599,87.58L917.495,87.562C917.175,87.442 916.955,87.154 916.8,86.867L916.79,86.846C916.775,86.837 916.757,86.825 916.736,86.809C916.036,86.269 916.071,84.999 916.578,84.331C916.66,83.938 916.807,83.562 917.022,83.239C917.391,82.683 917.959,82.284 918.609,82.389ZM917.755,87.609L917.761,87.618C917.788,87.644 917.813,87.666 917.835,87.685L917.843,87.625L917.755,87.609ZM917.092,86.652L917.093,86.653L917.091,86.647L917.092,86.652ZM164.466,0C163.597,9.587 157.335,19.311 148.181,22.479C148.009,22.539 147.838,22.595 147.666,22.649C147.908,23.738 148.16,24.826 148.423,25.912C149.705,31.205 150.921,36.514 152.248,41.796C153.367,46.249 155.131,50.787 155.34,55.383C155.375,56.155 154.421,57.589 153.754,56.439C151.429,52.433 150.77,47.415 149.666,42.955C148.43,37.963 147.24,32.96 146.281,27.907C145.983,26.337 145.679,24.766 145.373,23.197C132.223,25.374 122.157,10.326 116.665,0.567C116.571,0.4 116.506,0.208 116.466,0L119.952,0C124.12,7.257 129.638,14.823 137.546,17.751C137.169,17.221 136.81,16.668 136.461,16.11C132.946,10.506 128.632,5.641 124.48,0.519C124.372,0.386 124.297,0.207 124.251,0L128.012,0C129.786,1.931 131.489,3.92 133.113,5.989C135.466,8.984 137.6,14.352 140.573,16.706C141.724,17.618 142.807,18.082 143.823,18.184C139.427,12.573 136.796,6.174 133.346,0L136.994,0C138.004,2.068 138.598,4.448 139.595,6.455C140.661,8.601 141.928,10.619 143.302,12.566C142.502,8.385 141.733,4.199 141.054,0L143.645,0C144.388,4.852 145.145,9.695 146.029,14.517C148.156,10.034 148.171,4.927 148.906,0L150.886,0C150.692,5.397 149.961,11.537 147.891,16.528C151.417,13.138 153.694,5.336 154.761,0L156.884,0C156.486,3.862 155.545,7.623 154.002,11.248C153.235,13.05 152.307,15.109 151.087,16.922C156.829,13.567 160.981,6.613 161.863,0L164.466,0ZM673.825,0C669.704,6.291 665.499,9.887 657.657,9.513C657.24,20.361 656.941,31.867 653.961,42.063C653.531,43.535 652.171,42.437 652.17,41.375C652.163,35.15 653.374,28.889 653.98,22.7C654.419,18.225 654.788,13.744 655.063,9.257C648.786,8.308 644.031,5.048 640.541,0L644.982,0C646.849,1.807 649.005,3.202 651.513,4.053C650.405,2.825 649.433,1.404 648.58,0L654.923,0C655.1,0.156 655.284,0.293 655.477,0.409L655.489,0L658.089,0L658.059,0.659C658.489,0.525 658.946,0.309 659.434,0L663.133,0C662.65,1.05 662.043,2.034 661.267,2.831C662.447,2.195 663.532,1.203 664.524,0L668.006,0C667.485,0.905 666.921,1.798 666.307,2.637C667.527,1.9 668.642,1.01 669.665,0L673.825,0ZM498.736,22.438C499.666,22.438 500.485,21.692 500.949,20.964C501.555,20.017 501.857,18.627 501.796,17.518C501.734,16.356 501.509,15.062 500.781,14.117C500.211,13.375 499.496,12.753 498.498,12.753C497.569,12.753 496.75,13.5 496.285,14.227C495.68,15.174 495.378,16.564 495.438,17.674C495.501,18.835 495.726,20.129 496.453,21.075C497.024,21.816 497.738,22.438 498.736,22.438Z" style="fill-rule:nonzero;"/>
</svg>
