<?xml version="1.0" encoding="UTF-8" standalone="no"?>
<!DOCTYPE svg PUBLIC "-//W3C//DTD SVG 1.1//EN" "http://www.w3.org/Graphics/SVG/1.1/DTD/svg11.dtd">
<svg width="100%" height="100%" viewBox="0 0 1000 1000" version="1.1" xmlns="http://www.w3.org/2000/svg" xmlns:xlink="http://www.w3.org/1999/xlink" xml:space="preserve" xmlns:serif="http://www.serif.com/" style="fill-rule:evenodd;clip-rule:evenodd;stroke-linejoin:round;stroke-miterlimit:2;">
    <path d="M284.676,1000C283.989,994.203 283.351,988.403 282.772,982.605C282.069,975.549 281.902,967.56 286.202,961.511C289.975,956.205 296.67,953.969 302.969,955.374C319.86,959.143 320.234,983.936 322.52,997.173C322.683,998.116 322.848,999.059 323.015,1000L321.098,1000C319.758,991.821 318.647,983.512 316.644,975.489C314.479,966.817 309.477,958.22 299.511,958.036C278.143,957.639 285.001,986.884 286.582,999.666L286.624,1000L284.676,1000ZM295.562,1000C295.209,997.628 294.859,995.253 294.515,992.878C293.373,984.993 292.603,975.606 297.65,968.801C303.29,961.197 308.138,970.35 309.642,976.074C311.682,983.841 312.747,991.974 313.933,1000L312.28,1000C311.202,992.285 310.368,984.269 308.232,976.864C307.657,974.871 306.861,971.859 305.213,970.477C300.579,966.587 297.976,971.944 296.84,975.057C295.451,978.86 295.397,983.05 295.68,987.047C295.986,991.367 296.591,995.69 297.295,1000L295.562,1000ZM589.004,1000C589.167,997.211 589.327,994.422 589.499,991.634C590.707,971.974 591.959,952.321 593.314,932.672C594.767,911.578 596.286,890.481 597.394,869.369C597.82,861.242 598.475,851.768 593.6,844.726C589.14,838.283 580.917,836.113 573.568,838.359C563.629,841.397 561.284,850.467 560.934,859.92C560.575,869.643 560.446,879.384 560.193,889.111C559.665,909.421 558.98,929.734 558.68,950.049C558.659,951.511 557.065,951.552 557.116,950.087C558.107,921.923 558.48,893.733 559.218,865.56C559.449,856.775 558.989,846.147 566.265,839.816C571.736,835.054 580.105,833.696 586.826,836.393C603.728,843.179 598.905,867.609 597.881,881.48C595.983,907.215 594.968,933.035 593.33,958.789C592.563,970.831 591.748,982.87 590.94,994.909C590.831,996.524 590.775,998.235 590.725,1000L589.004,1000ZM562.353,1000C564.988,976.67 567.035,953.456 567.796,929.947C568.199,917.525 568.425,905.098 568.669,892.673C568.798,886.133 568.933,879.593 569.096,873.054C569.211,868.413 568.887,863.556 569.668,858.961C570.815,852.22 576.812,848.016 582.87,852.965C589.975,858.769 587.961,869.713 587.459,877.625C585.896,902.317 584.413,927.017 582.686,951.699C582.589,953.082 581.05,952.608 581.117,951.416C582.411,928.155 583.928,904.907 585.374,881.656C585.698,876.46 586.377,871.138 586.154,865.928C585.992,862.167 585.05,858.06 581.94,855.577C579.031,853.256 574.474,853.14 572.304,856.561C569.555,860.897 570.707,869.047 570.584,873.998C570.447,879.555 570.332,885.114 570.221,890.673C569.819,910.939 569.49,931.213 568.401,951.457C567.886,961.012 567.208,970.56 566.275,980.085C565.624,986.71 564.434,993.355 563.611,1000L562.353,1000ZM1000,913.417L1000,916.318C982.986,917.034 965.974,917.877 948.984,918.99C929.738,920.248 910.499,921.898 891.363,924.321C882.656,925.423 871.892,925.526 863.866,929.362C855.804,933.213 852.434,943.549 854.864,951.846C857.945,962.367 868.398,962.193 877.523,962.197C886.939,962.202 896.355,961.935 905.757,961.401C925.241,960.29 944.509,957.761 963.777,954.74C964.867,954.569 964.942,957.057 963.839,957.27C937.432,962.366 910.308,964.568 883.434,964.857C874.597,964.953 862.25,966.814 856.118,958.769C851.846,953.164 851.426,945.093 853.532,938.571C856.025,930.848 861.498,926.504 869.309,924.761C880.309,922.309 891.787,921.236 902.974,919.952C927.023,917.189 951.206,915.747 975.38,914.61C983.571,914.224 991.79,913.712 1000,913.417ZM1000,944.679C977.59,946.755 955.093,947.72 932.654,949.434C920.972,950.327 909.302,951.414 897.689,952.995C889.318,954.134 877.494,958.299 870.098,952.275C865.885,948.843 864.61,942.8 868.226,938.454C873.176,932.505 883.482,932.241 890.422,931.41C914.474,928.529 938.889,928.028 963.08,927.314C963.971,927.289 964.018,929.266 963.129,929.319C941.212,930.611 919.129,930.756 897.287,933.045C891.788,933.624 886.23,934.236 880.8,935.294C877.198,935.997 872.556,937.024 869.918,939.848C866.564,943.439 868.696,948.867 872.529,951.011C874.959,952.371 877.664,952.726 880.427,952.67C885.529,952.568 890.645,951.367 895.691,950.669C930.289,945.878 965.258,945.143 1000,941.825L1000,944.679ZM0,913.417C3.237,913.301 6.472,913.219 9.704,913.192C16.825,913.131 25.338,914.1 29.3,920.896C32.254,925.966 31.641,933.081 27.962,937.627C22.821,943.983 12.09,943.487 4.787,944.218C3.192,944.378 1.596,944.532 0,944.679L0,941.825C3.515,941.489 7.032,941.127 10.546,940.731C19.228,939.752 31.735,937.497 29.095,925.477C26.946,915.698 14.68,915.721 6.833,916.036C4.555,916.128 2.277,916.222 0,916.318L0,913.417ZM176.008,761.394C164.637,740.917 152.795,720.687 140.449,700.781C136.54,694.476 132.171,686.065 124.413,683.973C118.966,682.501 114.235,685.513 114.998,691.376C115.552,695.633 118.473,699.349 120.698,702.857C123.658,707.521 126.638,712.174 129.611,716.829C135.404,725.896 141.196,734.964 146.9,744.086C158.459,762.569 169.577,781.32 179.556,800.711C183.366,808.116 186.462,817.756 193.507,822.827C198.316,826.289 205.599,826.805 210.182,822.612C215.643,817.619 212.385,809.631 210.281,803.86C206.561,793.655 201.391,783.986 195.947,774.613C184.351,754.651 172.219,734.978 160.288,715.215C154.719,705.99 149.431,696.49 143.486,687.502C138.84,680.478 132.621,673.208 124.15,670.94C116.248,668.824 107.526,672.125 104.962,680.314C102.056,689.6 107.644,698.485 112.258,706.087C126.023,728.763 139.803,751.43 153.637,774.065C154.331,775.2 155.294,773.431 154.815,772.637C145.027,756.457 135.243,740.276 125.385,724.139C120.498,716.14 115.476,708.199 110.768,700.092C105.769,691.487 101.853,676.846 115.06,673.44C133.782,668.613 145.988,694.987 153.429,707.539C162.949,723.599 172.534,739.616 182.101,755.646C191.445,771.299 200.944,786.732 208.018,803.58C210.212,808.806 214.375,817.074 208.855,821.52C205.892,823.905 200.943,823.834 197.556,822.562C189.703,819.615 186.125,810.412 182.737,803.47C167.353,771.956 147.998,742.652 129.328,713.038C126.701,708.872 124.097,704.689 121.512,700.496C120.336,698.588 119.026,696.716 118.063,694.688C117.644,693.804 116.942,692.561 116.859,691.587C116.343,685.534 120.653,685.667 123.9,686.45C133.186,688.685 138.202,700.838 142.671,708.222C153.571,726.238 164.453,744.26 175.209,762.363C175.672,763.142 176.308,761.936 176.008,761.394ZM800.959,761.51C823.341,753.227 845.681,744.405 867.662,735.108C874.964,732.019 884.546,727.772 888.335,720.256C890.72,715.528 889.073,709.833 883.312,709.197C879.57,708.782 875.843,710.417 872.494,711.827C866.515,714.347 860.561,716.925 854.594,719.474C843.951,724.021 833.272,728.492 822.671,733.133C811.85,737.87 801.689,743.997 790.782,748.528C780.879,752.64 770.345,754.756 760.158,758.002C752.078,760.576 742.176,763.725 736.519,770.476C732.667,775.072 731.173,782.712 735.927,787.281C741.916,793.038 752.702,790.05 759.636,788.003C770.832,784.698 781.747,780.123 792.618,775.895C815.116,767.144 837.313,757.69 859.529,748.251C869.77,743.901 880.73,740.151 890.274,734.361C897.194,730.162 903.661,724.048 905.401,715.837C906.999,708.3 903.64,699.429 895.7,697.19C890.768,695.798 885.516,697.148 880.769,698.615C874.903,700.43 869.128,702.587 863.372,704.716C838.933,713.757 814.94,724.428 791.784,736.375C790.921,736.821 791.275,739.088 792.241,738.587C808.795,730.003 825.717,722.042 842.945,714.902C851.553,711.334 860.339,708.284 869.118,705.168C877.435,702.216 889.503,695.85 898.082,700.679C910.073,707.43 902.557,722.619 894.451,728.963C887.193,734.643 878.26,737.84 869.868,741.43C851.89,749.122 833.833,756.608 815.72,763.975C797.847,771.244 779.887,778.509 761.633,784.778C757.049,786.352 752.297,787.751 747.441,788.132C741.107,788.629 733.052,786.232 734.518,777.99C736.177,768.664 748.842,764.372 756.555,761.682C764.712,758.835 773.145,756.858 781.359,754.192C790.088,751.358 798.089,747.258 806.233,743.093C823.195,734.419 841.09,727.516 858.614,720.078C863.688,717.925 868.748,715.735 873.838,713.618C875.895,712.763 877.986,711.927 880.209,711.618C881.056,711.5 881.895,711.404 882.751,711.46C883.666,711.452 884.553,711.636 885.412,712.011C886.161,713.969 886.911,715.928 887.661,717.886C887.273,722.646 878.887,727.407 875.312,729.354C871.281,731.548 867.01,733.245 862.752,734.938C842.017,743.178 821.149,751.163 800.634,759.936C800.008,760.203 800.205,761.788 800.959,761.51ZM398.643,726.404C388.681,715.347 378.232,704.758 367.861,694.088C362.918,689.002 357.482,683.827 354.434,677.3C352.791,673.787 351.381,668.462 354.674,665.339C358.669,661.55 363.62,665.992 366.551,668.823C388.289,689.82 409.02,711.944 430.379,733.332C435.461,738.42 442.658,744.61 442.789,752.461C442.997,764.855 429.096,764.071 421.997,759.048C410.649,751.017 401.032,739.584 391.266,729.761C380.929,719.365 370.678,708.939 360.736,698.161C352.087,688.784 331.938,670.615 346.066,657.48C359.7,644.805 375.164,665.424 384.088,674.325C395.365,685.575 406.441,697.171 415.292,710.466C415.758,711.166 416.258,709.946 415.92,709.456C405.87,694.871 394.111,681.911 381.507,669.514C372.436,660.592 360.385,645.088 346.505,654.944C334.673,663.345 341.019,679.161 348.607,688.048C360.449,701.916 373.681,714.975 386.381,728.061C393.022,734.905 399.924,741.46 406.969,747.884C412.672,753.086 418.512,759.434 425.698,762.593C430.907,764.883 437.77,764.83 441.513,759.958C444.745,755.75 444.36,750.037 442.166,745.474C438.924,738.732 432.608,733.513 427.462,728.276C420.538,721.229 413.545,714.255 406.681,707.149C399.616,699.836 392.306,692.758 385.12,685.562C378.443,678.877 372.062,671.197 364.72,665.251C360.619,661.928 354.266,660.62 352.008,666.607C349.997,671.939 352.56,677.804 355.387,682.275C360.463,690.302 368.004,696.883 374.567,703.656C382.363,711.702 390.161,719.725 398.268,727.459C398.749,727.919 398.947,726.741 398.643,726.404ZM633.718,618.715C629.891,603.152 626.303,587.593 623.2,571.864C621.842,564.978 620.73,557.816 621.606,550.793C621.962,547.942 622.642,545.113 623.807,542.479C624.515,540.877 626.117,537.569 627.599,536.52C632.886,532.775 635.124,538.98 636.344,542.364C639.053,549.879 640.428,558.024 642.306,565.777C644.325,574.111 646.344,582.446 648.363,590.782C652.089,606.169 655.681,621.602 659.511,636.961C661.642,645.511 664.958,655.254 660.393,663.65C656.283,671.206 647.524,673.075 641.064,667.207C636.161,662.755 633.717,656.075 631.759,649.937C629.177,641.84 627.567,633.506 625.79,625.21C622.521,609.944 619.299,594.692 616.306,579.368C613.402,564.498 605.917,543.768 618.847,531.576C624.763,525.998 633.224,525.048 639.396,530.83C646.203,537.207 646.975,547.503 648.524,556.151C651.682,573.779 655.306,591.394 660.172,608.635C660.486,609.747 661.497,609.065 661.273,608.14C656.513,588.529 652.316,568.958 649.034,549.045C647.062,537.074 639.625,519.351 624.1,525.719C609.282,531.797 608.694,548.836 611.067,562.364C614.581,582.409 619.469,602.235 623.305,622.227C625.067,631.406 626.772,640.704 629.694,649.601C631.91,656.354 634.669,663.436 639.962,668.408C649.947,677.79 662.465,669.543 663.642,657.331C664.547,647.935 660.974,637.791 658.745,628.774C656.289,618.836 654.028,608.859 651.65,598.903C649.273,588.951 646.896,579 644.519,569.048C642.319,559.837 640.738,550.167 637.551,541.236C635.574,535.694 631.005,529.426 625.705,535.877C621.035,541.562 619.693,549.468 619.762,556.612C619.855,566.125 622.247,575.553 624.578,584.716C627.504,596.215 629.756,607.816 632.104,619.44C632.439,621.101 634.052,620.071 633.718,618.715ZM1000,527.388C991.953,528.106 983.725,522.186 976.956,518.753C967.088,513.747 957.261,508.681 947.541,503.393C928.179,492.859 908.72,482.492 889.619,471.488C878.754,465.229 857.984,452.773 865.786,437.066C873.472,421.592 893.242,429.676 903.649,436.647C922.05,448.973 940.706,460.633 960.569,470.491C961.224,470.816 961.021,472.514 960.31,472.155C943.482,463.664 927.053,454.422 911.261,444.121C903.281,438.915 895.199,432.195 885.513,430.706C877.278,429.44 866.571,433.357 865.989,442.906C865.372,453.035 875.614,460.184 883.115,465.055C890.699,469.981 898.768,474.267 906.707,478.591C922.148,487.001 937.52,495.495 953.107,503.64C961.211,507.875 969.229,512.271 977.295,516.577C983.889,520.098 992.1,526.139 1000,525.404L1000,527.388ZM0,501.158C4.537,504.726 9.045,509.019 10,514.542C11.054,520.643 7.662,525.96 1.5,527.174C1.001,527.272 0.501,527.343 0,527.387L0,525.404C0.396,525.367 0.792,525.313 1.186,525.241C8.455,523.912 10.379,516.612 7.209,510.475C5.551,507.265 2.818,504.712 0,502.427L0,501.158ZM116.739,462.414C120.784,445.413 124.411,428.316 128.066,411.227C129.929,402.513 131.689,393.769 133.645,385.076C134.537,381.113 135.404,376.502 138.757,373.81C141.174,371.869 144.551,371.312 147.036,373.181C149.735,375.208 149.534,378.796 149.02,381.904C146.248,398.673 141.845,415.393 138.061,431.961C134.215,448.803 130.231,465.611 126.209,482.412C124.222,490.711 123.176,500.391 119.565,508.145C115.638,516.577 102.828,521.688 99.544,509.776C97.243,501.429 99.044,491.368 100.613,483.025C102.123,474.994 104.202,467.074 106.144,459.14C110.21,442.531 114.295,425.926 118.308,409.304C120.328,400.941 122.418,392.596 124.484,384.244C126.52,376.011 128.323,366.435 137.093,362.841C145.626,359.344 155.537,363.629 158.64,372.413C160.627,378.038 158.567,384.529 157.277,390.089C156.161,394.896 155.061,399.707 153.944,404.514C149.477,423.744 144.87,442.939 140.134,462.104C139.783,463.523 141.43,464.496 141.858,462.779C147.265,441.076 152.514,419.333 157.587,397.549C159.476,389.434 163.04,379.95 160.385,371.633C158.401,365.415 153.035,360.349 146.547,359.188C127.61,355.798 124.044,377.55 120.756,390.928C115.694,411.524 110.598,432.112 105.555,452.713C103.007,463.123 100.149,473.518 98.306,484.082C96.833,492.529 95.313,502.392 97.674,510.816C99.254,516.455 103.619,520.715 109.81,519.401C117.215,517.831 120.39,510.561 122.377,504.031C128.446,484.089 132.502,463.345 137.185,443.043C139.602,432.566 142.005,422.085 144.389,411.6C146.698,401.439 149.958,390.9 151.059,380.531C151.676,374.732 148.97,368.12 141.951,369.789C133.968,371.689 132.643,381.653 131.148,388.297C125.647,412.75 119.985,437.181 115.066,461.759C114.788,463.146 116.34,464.09 116.739,462.414ZM1000,502.427C999.479,502.005 998.956,501.592 998.435,501.186C991.967,496.132 984.607,492.083 977.286,488.414C963.54,481.526 949.166,476.005 935.6,468.739C920.707,460.761 906.891,451.144 892.484,442.373C888.754,440.102 882.764,436.992 878.864,440.559C876.225,442.971 877.34,447.638 879.421,450.246C880.768,451.935 882.239,453.528 883.811,455.009C889.926,460.771 897.374,464.596 904.771,468.419C920.735,476.668 936.709,484.901 952.65,493.193C953.54,493.656 953.277,496.005 952.291,495.5C940.958,489.7 929.642,483.865 918.325,478.034C908.307,472.873 897.088,468.392 888.179,461.393C883.618,457.809 873.989,450.101 875.093,443.339C876.428,435.165 886.297,436.677 891.443,439.531C900.104,444.338 908.196,450.327 916.629,455.533C926.034,461.339 935.622,466.849 945.584,471.651C962.437,479.777 980.401,486.347 995.453,497.715C996.877,498.79 998.44,499.931 1000,501.158L1000,502.427ZM409.29,451.921C423.424,432.348 437.073,412.436 451.105,392.791C456.085,385.819 464.12,377.462 464.867,368.471C465.367,362.469 461.853,356.139 455.189,356.372C446.761,356.666 441.502,366.36 437.22,372.338C430.102,382.274 423.39,392.491 416.613,402.661C403.318,422.616 390.083,442.61 376.795,462.57C372.223,469.438 364.919,477.814 365.746,486.729C366.381,493.572 372.302,497.932 378.984,497.763C387.676,497.544 394.261,490.329 399.009,483.817C405.774,474.539 411.592,464.489 417.83,454.852C430.906,434.648 444.639,414.796 458.572,395.176C466.381,384.18 483.838,363.73 469.372,350.65C463.485,345.328 454.339,345.081 447.322,348.065C437.725,352.146 431.389,361.328 425.48,369.48C410.295,390.428 396.894,412.579 384.875,435.483C384.486,436.226 385.297,437.968 385.853,436.896C394.35,420.513 403.773,404.684 414.005,389.326C419.08,381.71 424.305,374.18 429.791,366.854C434.958,359.955 441.129,352.372 449.618,349.547C457.154,347.039 466.557,348.267 470.854,355.615C476.358,365.027 469.975,375.849 464.557,383.627C453.473,399.539 442.26,415.346 431.447,431.446C420.819,447.272 410.549,463.338 399.935,479.17C395.091,486.394 387.994,495.756 378.228,495.487C371.612,495.304 366.929,490.788 367.277,484.023C367.538,478.934 371.327,473.931 374.028,469.834C395.351,437.492 416.068,404.464 438.895,373.161C441.838,369.126 444.713,364.355 448.775,361.341C455.118,356.636 464.144,359.278 463.448,368.218C462.998,373.997 458.734,378.899 455.502,383.458C452.546,387.627 449.698,391.869 446.798,396.078C434.14,414.45 421.244,432.651 408.745,451.133C408.48,451.524 408.884,452.483 409.29,451.921ZM686.774,340.286C689.465,321.081 692.546,301.927 696.644,282.968C698.739,273.28 701.036,263.613 703.678,254.059C704.728,250.264 706.52,244.032 711.236,243.581C716.631,243.065 717.533,250.091 716.841,253.934C716.348,256.673 715.379,259.338 714.62,262.011C704.407,297.911 698.274,334.687 691.626,371.362C690.059,380.002 689.048,389.133 686.083,397.434C684.737,401.202 682.753,405.091 679.776,407.847C677.859,409.621 675.543,411.117 672.874,410.781C669.125,410.31 667.957,406.187 667.446,403.016C664.364,383.868 670.285,363.225 674.196,344.617L686.114,287.904C688.134,278.288 690.19,268.68 692.116,259.045C693.939,249.921 696.088,238.986 704.924,234.008C716.241,227.633 724.982,237.847 725.157,248.862C725.325,259.517 721.393,270.897 719.199,281.254C714.503,303.418 709.886,325.596 705.302,347.783C705.055,348.979 706.436,349.811 706.752,348.35C711.945,324.265 717.088,300.173 722.154,276.06C724.186,266.387 727.767,255.817 726.712,245.832C725.958,238.7 721.787,231.026 714.204,229.511C707.065,228.085 700.316,232.87 696.693,238.675C691.592,246.847 690.436,257.74 688.479,266.984C683.53,290.362 678.592,313.742 673.649,337.121C671.183,348.783 668.543,360.443 666.844,372.247C665.384,382.391 664.154,393.505 665.962,403.683C666.945,409.219 670.509,415.15 676.873,412.022C684.16,408.44 687.257,400.306 689.072,392.936C694.328,371.598 697.125,349.472 701.211,327.88C705.624,304.555 710.801,281.48 717.423,258.679C719.001,253.25 720.835,240.208 711.172,240.964C703.016,241.602 701.381,255.545 699.936,261.213C693.354,287.015 688.172,313.245 685.376,339.739C685.255,340.875 686.571,341.739 686.774,340.286ZM223.986,250.651C213.547,239.853 203.216,228.917 193.09,217.822C188.441,212.727 183.136,207.679 179.428,201.82C178.058,199.654 176.535,196.791 176.601,194.14C176.723,189.194 180.486,186.193 184.909,187.893C188.984,189.459 192.265,193.934 195.096,197.063C205.057,208.069 214.156,219.834 224.005,230.943C233.57,241.734 243.569,252.147 253.889,262.217C258.539,266.755 264.199,271.189 267.097,277.155C271.481,286.178 263.673,297.442 254.28,290.377C249.138,286.509 244.579,281.609 239.906,277.204C234.574,272.178 229.274,267.122 224.071,261.962C213.305,251.281 202.875,240.261 192.812,228.916C188.36,223.895 183.969,218.816 179.64,213.688C174.525,207.63 166.008,199.886 166.986,191.198C167.996,182.229 177.788,177.013 185.974,180.135C193.218,182.898 198.906,191.336 203.986,196.793C216.454,210.186 230.227,223.026 241.486,237.443C242.647,238.931 243.773,236.047 242.638,235.021C235.124,228.231 228.48,220.208 221.644,212.729C214.698,205.13 207.806,197.481 200.84,189.899C195.809,184.422 190.622,177.259 182.702,176.212C176.273,175.362 170.011,178.552 166.937,184.25C159.499,198.031 174.534,211.081 182.549,220.559C194.437,234.616 206.972,248.147 219.951,261.199C226.62,267.906 233.394,274.523 240.374,280.906C243.516,283.78 246.686,286.626 249.886,289.437C252.476,291.712 255.307,294.561 258.897,295.045C263.673,295.689 267.315,291.97 268.938,287.835C270.935,282.749 269.695,277.633 266.849,273.11C262.572,266.313 255.659,260.965 250.058,255.322C243.247,248.462 236.582,241.463 230.041,234.345C217.269,220.445 205.675,205.426 192.586,191.834C188.363,187.45 180.488,180.931 176.197,189.082C173.12,194.928 176.627,201.556 180.185,206.259C192.734,222.845 208.326,237.837 223.526,251.944C224.117,252.493 224.385,251.064 223.986,250.651ZM1000,141.902L1000,147.952C998.975,151.119 997.993,154.295 997.069,157.485C991.965,175.083 981.424,191.135 979.17,209.486C978.528,214.728 977.385,221.314 979.27,226.329C981.631,232.609 988.628,230.546 992.809,227.109C996.032,224.462 998.262,220.578 1000,216.325L1000,220.776C999.524,221.754 999.022,222.713 998.49,223.649C995.141,229.538 987.728,235.443 980.756,231.438C974.494,227.842 976.694,217.482 977.141,211.651C977.966,200.892 981.537,191.219 985.918,181.45C990.472,171.299 993.915,161.231 997.157,150.601C998.046,147.684 999.001,144.786 1000,141.902ZM0,216.326C2.226,210.878 3.645,204.825 5.309,199.984C11.564,181.784 17.25,163.674 25.34,146.175C33.167,129.243 38.958,111.179 45.407,93.685C47.181,88.871 53.561,75.434 44.595,74.588C38.455,74.009 35.81,80.646 33.937,85.294C30.41,94.051 27.086,102.892 23.771,111.732C16.928,129.979 10.48,148.371 3.666,166.625C3.211,167.844 2.27,166.5 2.535,165.668C10.701,139.942 20.586,114.705 30.425,89.584C32.761,83.62 36.679,69.028 46.199,72.201C55.091,75.166 49.521,87.599 47.506,93.029C43.262,104.464 39.116,115.937 34.867,127.37C31.023,137.712 26.231,147.357 21.739,157.4C16.829,168.375 13.493,180.157 9.712,191.556C6.577,201.006 4.421,211.698 0,220.776L0,216.326ZM811.407,146.744C806.664,130.234 801.543,113.848 797.028,97.273C795.985,93.444 794.948,89.613 793.919,85.78C792.61,80.911 789.682,74.021 791.509,69.075C793.621,63.353 799.872,63.028 803.101,67.76C805.213,70.851 806.106,74.78 807.21,78.299C812.435,94.945 817.289,111.675 821.581,128.587C825.636,144.565 828.451,161.004 833.259,176.771C835.6,184.452 839.587,192.413 838.572,200.655C838.01,205.225 835.763,211.152 830.853,212.499C825.973,213.838 822.593,208.877 820.245,205.297C811.937,192.624 809.132,177.283 806.013,162.718C802.559,146.585 798.428,130.583 793.909,114.718C791.885,107.609 789.761,100.528 787.538,93.479C784.786,84.757 779.431,73.602 783.401,64.523C787.268,55.677 798.941,52.681 806.68,58.407C813.972,63.803 815.206,74.313 817.491,82.469C822.727,101.166 827.045,120.126 831.756,138.962C832.08,140.261 833.298,139.455 833.028,138.391C827.682,117.313 822.349,96.253 817.242,75.118C815.63,68.445 813.652,61.098 808.043,56.615C802.703,52.346 795.021,51.66 789.094,55.133C773.435,64.308 783.241,84.475 787.18,97.337C793.395,117.627 798.606,138.15 803.236,158.854C806.959,175.502 809.685,193.275 819.72,207.549C823.045,212.279 828.006,217.312 833.914,213.211C839.13,209.592 840.692,202.452 840.318,196.501C839.736,187.237 835.15,178.403 832.864,169.507C830.214,159.187 828.069,148.737 825.502,138.394C820.472,118.13 814.952,97.947 808.83,77.985C807.193,72.648 805.084,61.8 797.616,61.655C789.657,61.5 788.652,71.609 789.838,77.246C792.248,88.702 796.283,99.961 799.475,111.219C802.907,123.318 806.089,135.455 809.743,147.491C810.248,149.154 811.806,148.134 811.407,146.744ZM440.495,150.813C459.035,144.476 477.537,138.033 496.099,131.765C505.251,128.675 514.739,124.331 524.351,123.028C528.309,122.492 534.303,122.312 537.481,125.287C542.716,130.186 537.247,134.654 533.758,136.491C531.551,137.654 529.037,138.345 526.676,139.118C490.443,150.982 454.009,162.205 417.709,173.861C409.522,176.491 400.825,180.087 392.175,180.647C388.913,180.857 384.789,180.665 382.126,178.493C380.103,176.842 379.9,171.52 380.746,169.153C381.062,168.27 382.046,167.258 382.592,166.583C384.328,164.439 386.406,162.682 388.561,160.975C402.993,149.544 420.109,145.193 437.398,140.011C455.982,134.442 474.591,128.946 493.148,123.287C502.269,120.505 511.413,117.806 520.56,115.11C529.905,112.356 539.711,109.388 547.903,116.596C557.763,125.27 553.535,139.278 542.757,144.609C534.038,148.92 523.849,150.913 514.572,153.694C493.191,160.107 471.891,166.827 450.448,173.022C449.569,173.275 449.847,175.47 450.887,175.147C474.105,167.938 497.507,161.285 520.8,154.313C535.326,149.963 558.703,145.559 554.866,125.038C553.521,117.843 547.921,111.812 540.858,109.883C531.671,107.375 521.16,112.38 512.507,114.984C489.213,121.992 465.849,128.772 442.523,135.674C422.344,141.642 401.273,146.875 385.187,161.276C380.738,165.258 375.967,171.484 379.186,177.664C382.224,183.494 390.35,183.666 395.953,182.702C406.674,180.854 417.114,176.73 427.444,173.427C438.88,169.771 450.35,166.206 461.741,162.41C484.092,154.962 506.559,147.898 529.001,140.729C535.146,138.765 544.42,133.85 540.579,125.777C536.624,117.467 523.696,120.082 516.885,122.108C504.309,125.848 492.013,130.711 479.608,134.979C466.421,139.517 453.205,143.972 440.021,148.519C439.079,148.842 439.389,151.19 440.495,150.813ZM0,141.901C2.791,133.845 5.93,125.898 8.977,117.946C13.183,106.964 16.956,95.729 21.505,84.889C24.776,77.093 29.106,68.127 36.176,63.054C42.386,58.597 51.316,58.801 56.903,64.23C62.357,69.53 62.984,76.868 60.999,83.821C57.769,95.127 53.806,106.283 50.249,117.492C46.964,127.844 43.354,137.961 38.641,147.756C33.733,157.961 28.298,167.986 25.056,178.881C24.663,180.2 23.555,178.768 23.834,177.847C29.629,158.688 40.674,141.681 46.92,122.627C50.28,112.379 53.469,102.068 56.624,91.754C58.437,85.825 61.632,79.183 59.811,72.974C58.092,67.116 52.461,63.026 46.428,62.712C36.885,62.216 31.344,70.208 27.143,77.604C22.371,86.004 19.115,95.407 15.765,104.447C10.424,118.861 4.745,133.293 0,147.952L0,141.901ZM313.933,0C314.309,2.54 314.696,5.071 315.131,7.575C317.111,18.981 318.962,30.408 320.832,41.833C322.703,53.265 324.573,64.698 326.44,76.131C327.977,85.545 331.166,96.091 329.492,105.665C328.331,112.303 324.3,118.896 317.298,120.368C310.824,121.728 305.718,118.093 303.545,112.131C299.945,102.255 298.682,90.993 296.704,80.696C294.615,69.821 292.845,58.888 291.213,47.937C288.84,32.018 286.574,16.017 284.676,0L286.624,0C288.812,17.662 291.227,35.314 293.96,52.897C296.758,70.896 299.733,88.975 304.023,106.688C305.169,111.419 306.739,116.247 311.962,117.646C316.162,118.771 320.735,117.018 323.606,113.92C330.888,106.065 327.553,94.077 326.03,84.731C323.102,66.769 320.116,48.816 317.158,30.859C315.651,21.704 314.2,12.542 312.775,3.374C312.602,2.258 312.438,1.133 312.28,0L313.933,0ZM297.295,0C298.041,4.57 298.896,9.126 299.619,13.655C302.493,31.646 305.387,49.63 308.094,67.646C308.281,68.885 306.864,69.883 306.602,68.316C302.796,45.58 298.963,22.81 295.562,0L297.295,0ZM323.015,0C326.714,20.901 331.346,41.953 333.388,63.05C333.456,63.759 332.694,63.977 332.511,63.253C327.507,43.498 325.034,22.871 321.566,2.791C321.406,1.863 321.25,0.933 321.098,0L323.015,0ZM590.725,0C590.479,8.596 590.361,18.496 584.967,24.973C580.432,30.419 573.182,31.447 567.602,26.873C561.014,21.473 560.938,12.263 561.835,4.523C562.01,3.015 562.182,1.507 562.353,0L563.611,0C563.219,3.16 562.911,6.32 562.784,9.478C562.529,15.783 563.968,22.211 569.248,26.189C573.793,29.616 579.39,28.509 583.186,24.552C587.752,19.793 588.211,12.765 588.608,6.543C588.746,4.362 588.876,2.181 589.004,0L590.725,0Z" style="fill-rule:nonzero;"/>
</svg>
