<?xml version="1.0" encoding="UTF-8" standalone="no"?>
<!DOCTYPE svg PUBLIC "-//W3C//DTD SVG 1.1//EN" "http://www.w3.org/Graphics/SVG/1.1/DTD/svg11.dtd">
<svg width="100%" height="100%" viewBox="0 0 1000 1000" version="1.1" xmlns="http://www.w3.org/2000/svg" xmlns:xlink="http://www.w3.org/1999/xlink" xml:space="preserve" xmlns:serif="http://www.serif.com/" style="fill-rule:evenodd;clip-rule:evenodd;stroke-linejoin:round;stroke-miterlimit:2;">
    <path d="M906.316,1000C906.881,996.998 907.4,993.987 907.872,990.97C908.705,985.645 909.122,980.239 910.948,975.135C911.412,973.838 912.661,972.931 913.903,973.87C924.586,981.949 934.653,990.868 944.529,1000L935.998,1000C928.861,993.473 921.552,987.154 913.921,981.251C912.561,986.46 912.244,992.067 911.338,997.315C911.184,998.211 911.026,999.106 910.864,1000L906.316,1000ZM156.104,1000C152.687,995.832 149.308,991.634 145.941,987.423C142.516,983.139 138.088,979.048 138.013,973.26C137.999,972.169 138.358,970.704 139.452,970.195C144.614,967.797 150.39,967.877 155.972,967.499C162.263,967.071 168.553,966.644 174.844,966.217C187.752,965.342 200.658,964.294 213.588,963.819C214.276,963.794 214.752,964.254 215.012,964.898C217.859,964.643 220.708,964.34 223.576,963.997C226.667,963.627 226.449,969.082 225.575,970.695C220.273,980.485 214.899,990.259 209.463,1000L201.297,1000C206.523,990.477 211.973,981.074 217.628,971.86C212.524,971.864 207.444,971.963 202.317,972.201C201.158,972.256 200.437,971.228 200.18,969.975C192.45,970.659 184.708,971.231 176.973,971.863C170.684,972.377 164.395,972.891 158.107,973.405C153.089,973.816 147.662,973.718 142.842,975.354C144.05,977.453 146.51,979.477 147.784,980.952C149.899,983.401 152,985.863 154.108,988.318C157.422,992.178 160.67,996.088 163.919,1000L156.104,1000ZM647.505,1000C646.261,999.312 645.017,998.623 643.773,997.934C636.838,994.093 629.932,990.198 623.014,986.326C616.267,982.549 609.427,977.764 602.214,974.992C599.11,973.799 599.633,968.429 602.014,966.888C614.006,959.129 627.688,953.46 640.497,947.183C653.389,940.865 666.251,934.485 679.104,928.089C682.24,926.529 683.664,932.316 682.12,935.234C682.606,956.838 683.468,978.434 684.87,1000L680.101,1000C678.785,979.386 677.961,958.75 677.773,938.097C665.944,944.054 654.124,950.029 642.329,956.055C632.139,961.264 621.902,967.242 611.311,971.89C615.838,974.482 620.616,976.785 625.052,979.277C631.394,982.839 637.746,986.381 644.074,989.966C649.962,993.302 655.84,996.654 661.721,1000L647.505,1000ZM449.56,923.18C440.239,926.181 430.312,927.983 420.812,929.866C408.935,932.22 397.008,934.313 385.045,936.182C382.039,936.652 381.963,931.402 382.442,929.757C389.585,905.233 396.772,880.724 404.147,856.269C404.663,854.558 406.375,853.516 407.909,854.659C430.351,871.357 451.653,889.373 471.318,909.283C473.028,911.013 473.778,916.032 470.84,917.11C463.879,919.666 456.804,921.767 449.56,923.18ZM392.577,916.693L392.567,916.727L392.68,916.664L392.577,916.693ZM396.195,904.467L395.563,906.608C396.03,906.302 396.497,905.999 396.965,905.698C396.644,905.359 396.387,904.937 396.195,904.467ZM457.269,905.483C457.202,905.607 457.129,905.721 457.049,905.827C457.259,905.841 457.469,905.858 457.678,905.877L457.269,905.483ZM445.528,895.573C445.322,895.794 445.087,895.954 444.826,896.07C445.079,896.066 445.332,896.058 445.585,896.044C445.558,895.889 445.539,895.732 445.528,895.573ZM399.752,892.388L399.638,892.775L399.97,892.537C399.893,892.494 399.821,892.444 399.752,892.388ZM438.19,888.069C438.013,888.726 437.72,889.273 437.317,889.57C437.132,889.706 436.946,889.838 436.76,889.965C437.834,889.835 438.909,889.725 439.985,889.633L439.748,889.425C439.464,889.178 439.18,888.93 438.896,888.682L438.19,888.069ZM432.723,883.398C432.707,883.43 432.69,883.46 432.672,883.491L432.803,883.465L432.723,883.398ZM420.761,873.663C420.912,874.004 421.02,874.382 421.083,874.772C421.316,874.673 421.548,874.571 421.779,874.466L421.509,874.253L420.761,873.663ZM411.883,866.861C412.208,867.45 412.439,868.144 412.583,868.881L413.858,868.344L413.46,868.043C413.159,867.817 412.858,867.59 412.557,867.364L411.883,866.861ZM407.905,864.388C408.022,864.3 408.138,864.232 408.252,864.181L408.015,864.007L407.905,864.388ZM722.476,772.452C729.115,769.618 736.497,769.076 743.632,768.312C750.821,767.542 758.027,766.919 765.241,766.445C780.324,765.453 795.481,765.617 810.582,766.111C814.431,766.237 813.938,772.279 812.247,774.308C802.183,786.376 793.917,799.427 788.112,814.058C783.258,826.292 778.895,838.673 769.823,848.525C768.445,850.021 766.778,848.459 766.163,847.165C759.373,832.911 751.358,819.209 741.682,806.71C736.859,800.479 731.629,794.58 725.947,789.116C721.133,784.486 715.759,781.015 717.835,773.624C718.378,771.693 720.191,770.795 721.864,771.9C722.098,772.054 722.301,772.24 722.476,772.452ZM802.798,774.973C790.678,775.125 778.584,775.755 766.473,776.486C758.929,776.941 751.395,777.555 743.879,778.331C738.293,778.908 732.606,779.887 726.979,779.747C728.378,781.067 729.753,782.412 731.101,783.784C733.294,786.013 735.417,788.31 737.486,790.653C741.98,795.74 746.176,801.079 750.081,806.631C757.339,816.951 763.514,827.968 768.938,839.349C777.004,829.343 780.419,816.552 785.376,804.86C789.911,794.16 795.956,784.298 802.798,774.973ZM111.861,781.275C108.368,781.447 107.519,773.52 110.874,772.276C139.603,761.612 168.192,750.512 196.264,738.213C199.372,736.851 200.203,741.761 200.047,743.678C198.013,768.698 195.812,793.704 193.46,818.697C193.316,820.235 191.724,823.046 189.737,822.079C175.355,815.085 160.854,808.323 146.452,801.367C139.846,798.177 133.245,794.958 126.923,791.226C123.779,789.369 119.848,787.514 117.266,784.758C116.194,784.341 115.14,783.838 114.216,783.271C113.262,782.685 112.523,782.016 111.861,781.275ZM170.68,785.624C174.399,787.842 178.06,790.166 181.656,792.601C181.812,792.119 182.038,791.696 182.334,791.377L182.201,791.205C181.21,790.507 180.213,789.819 179.205,789.145C176.37,787.954 173.529,786.781 170.68,785.624ZM190.021,786.741C189.7,786.637 189.379,786.549 189.056,786.477C188.979,786.753 188.882,787.011 188.767,787.241C189.147,787.517 189.525,787.795 189.901,788.076C189.941,787.632 189.981,787.187 190.021,786.741ZM132.511,773.434C132.216,773.55 131.921,773.666 131.625,773.781C131.949,773.888 132.273,773.995 132.596,774.102L132.602,774.097C132.56,773.878 132.53,773.656 132.511,773.434ZM145.001,768.488C144.467,768.701 143.933,768.914 143.399,769.126C144.031,769.254 144.66,769.387 145.288,769.525C145.157,769.204 145.061,768.853 145.001,768.488ZM192.279,762.179C192.031,762.179 191.759,762.132 191.464,762.032L190.882,761.833C191.503,762.627 191.745,764.019 191.654,765.354C191.757,765.475 191.854,765.605 191.945,765.744C192.056,764.556 192.168,763.368 192.279,762.179ZM157.257,763.564L156.594,763.832C157.094,763.957 157.593,764.086 158.091,764.218C158.148,763.833 158.236,763.462 158.355,763.12L157.257,763.564ZM390.124,625.753C390.49,624.64 391.221,623.803 392.333,623.769C394.419,623.705 395.941,623.244 397.597,621.879C400.207,619.732 401.542,624.124 401.337,626.046C397.77,659.42 394.327,692.823 391.213,726.242C391.044,728.063 389.511,729.616 387.785,728.486C373.006,718.801 358.14,708.835 345.311,696.61C333.09,684.965 323.212,671.036 309.657,660.796C308.015,659.554 307.784,655.035 310.056,654.273C336.921,645.264 363.429,635.253 390.124,625.753ZM395.887,630.895C395.457,631.038 395.014,631.156 394.555,631.252C369.208,641.571 343.333,650.41 317.4,659.12C328.241,668.684 337.041,680.333 347.566,690.269C359.629,701.655 373.341,710.934 387.048,720.183C390.201,690.446 393.098,660.67 395.887,630.895ZM1000,681.572L998.857,682.726C988.023,693.67 977.328,704.773 966.222,715.442C964.428,717.166 962.893,714.746 962.46,713.237C959.265,702.1 955.991,690.996 952.625,679.908C952.299,678.836 952.417,677.84 952.784,677.069C951.749,672.501 950.836,667.915 949.971,663.373C947.575,650.79 945.93,638.127 945.323,625.332C945.276,624.352 945.782,622.521 947.068,622.527C953.605,622.557 959.049,626.115 964.599,629.161C970.906,632.623 977.368,635.771 983.948,638.679C989.246,641.02 994.58,643.256 1000,645.289L1000,654.128C999.5,653.945 999,653.761 998.501,653.574C992.578,651.359 986.711,648.955 981.018,646.199C975.297,643.43 969.683,640.441 964.196,637.235C959.461,634.468 954.689,630.117 949.322,628.521C950.645,639.849 952.257,651.164 954.485,662.347C956.872,674.333 960.384,685.977 963.271,697.832C963.314,698.01 963.339,698.193 963.348,698.378C964.17,701.058 964.997,703.737 965.829,706.414C973.71,698.111 981.825,690.029 989.859,681.875C993.239,678.443 996.625,675.016 1000,671.578L1000,681.572ZM0,645.289C1.343,645.793 2.692,646.284 4.048,646.762C7.457,647.963 10.892,649.08 14.346,650.144C16.595,650.837 18.707,651.216 20.132,653.193C23.937,658.473 18.211,663.286 14.858,666.647C9.9,671.618 4.94,676.586 0,681.572L0,671.578C0.886,670.676 1.772,669.772 2.657,668.868C4.854,666.622 7.05,664.374 9.248,662.127C9.939,661.42 12.051,659.769 13.68,658.213C11.302,657.484 8.186,656.962 7.02,656.575C4.667,655.796 2.327,654.981 0,654.128L0,645.289ZM674.673,560.284C683.583,574.477 692.498,588.664 701.396,602.861C702.388,604.444 702.884,610.186 699.673,609.876C686.959,608.649 674.717,613.084 662.225,614.62C650.574,616.053 638.357,616.141 626.65,614.578L626.634,614.608C625.435,616.94 623.846,615.631 622.943,613.989C620.573,613.141 620.202,608.284 622.561,607.405C623.008,606.508 623.734,605.76 624.477,606.018C635.322,583.604 646.67,561.435 657.792,539.154C658.551,537.632 660.516,537.72 661.36,539.066C665.455,545.599 669.553,552.13 673.654,558.661C674.157,558.969 674.495,559.572 674.673,560.284ZM633.285,601.531C632.386,603.316 631.482,605.103 630.576,606.889C630.995,606.876 631.415,606.865 631.834,606.855C631.724,605.57 632.207,604.097 633.36,603.881L634.656,603.64C634.719,603.506 634.79,603.382 634.871,603.269C634.052,603.2 633.519,602.466 633.285,601.531ZM656.251,606.195C655.73,606.096 655.314,605.755 655.01,605.283C653.825,605.583 652.639,605.877 651.451,606.165C650.899,606.3 650.434,606.174 650.064,605.887L645.656,606.666C649.19,606.601 652.723,606.477 656.251,606.195ZM639.436,602.732L639.504,602.735L641.376,602.386L641.397,602.366L640.19,602.541C640.05,602.608 639.9,602.657 639.739,602.686C639.635,602.705 639.534,602.721 639.436,602.732ZM692.181,599.767C691.368,599.945 690.554,600.089 689.739,600.206C689.003,600.338 688.266,600.459 687.529,600.568C685.844,600.989 684.152,601.375 682.452,601.724C682.363,601.94 682.248,602.136 682.106,602.302C685.783,601.799 689.475,601.451 693.212,601.426L692.181,599.767ZM635.529,597.061L635.494,597.132L635.503,597.131C635.511,597.107 635.52,597.084 635.529,597.061ZM637.066,593.989C636.758,594.604 636.451,595.219 636.144,595.834L635.745,596.631C635.966,596.279 636.271,596.01 636.67,595.88C637.144,595.727 637.616,595.571 638.086,595.41C637.919,594.772 637.888,594.056 638.002,593.408C637.867,593.231 637.75,593.03 637.653,592.812L637.066,593.989ZM686.372,594.507C684.409,594.453 682.489,594.525 680.578,594.747C680.546,594.823 680.511,594.897 680.474,594.969C682.675,594.938 684.872,594.799 687.071,594.548L686.372,594.507ZM688.645,594.074C688.511,594.213 688.357,594.328 688.182,594.411C688.389,594.384 688.596,594.356 688.802,594.326L688.645,594.074ZM642.623,582.797C641.797,584.469 640.969,586.141 640.14,587.812C640.494,587.698 640.849,587.585 641.204,587.475C641.405,586.91 641.752,586.474 642.251,586.337C643.293,586.052 644.335,585.767 645.376,585.48C645.398,585.295 645.432,585.112 645.477,584.933C645.238,584.869 645.014,584.752 644.81,584.594L644.529,584.619C643.548,584.707 642.903,583.869 642.623,582.797ZM676.298,574.178C676.289,574.468 676.258,574.756 676.204,575.034C676.541,575.433 676.753,575.991 676.845,576.599C677.154,576.584 677.462,576.567 677.77,576.55L676.298,574.178ZM672.404,567.903C672.332,568.1 672.247,568.286 672.148,568.458C672.327,568.582 672.505,568.713 672.68,568.85C673.076,569.16 673.386,569.664 673.593,570.259C673.705,570.292 673.817,570.325 673.929,570.36L672.404,567.903ZM652.595,562.548L651.162,565.462L651.284,565.462C651.471,565.282 651.69,565.144 651.944,565.061L653.622,564.513C653.502,563.964 653.472,563.368 653.53,562.793C653.289,562.525 653.092,562.202 652.941,561.844L652.595,562.548ZM885.095,448.314C874.296,453.873 862.979,458.675 852.215,464.189C838.509,471.209 824.931,478.505 811.523,486.079C810.251,486.798 808.904,485.357 808.502,484.308C805.528,476.567 808.419,469.44 810.235,461.813C812.243,453.378 813.367,444.756 814.212,436.136C815.086,427.225 815.512,418.281 815.989,409.342C816.207,405.255 816.419,401.166 816.706,397.084C816.915,394.109 817.035,390.854 819.023,388.426C823.227,383.291 829.872,387.375 834.301,389.95C841.358,394.053 848.308,398.341 855.136,402.813C869.874,412.468 884.354,422.876 897.606,434.507C899.241,435.941 899.639,439.779 897.771,441.233C893.881,444.261 889.672,446.74 885.095,448.314ZM813.775,471.39C814.318,471.132 814.848,470.847 815.367,470.539C814.89,470.574 814.431,470.611 814.004,470.659L813.849,471.151L813.775,471.39ZM832.697,466.674C832.416,466.572 832.176,466.389 831.975,466.149C831.216,466.547 830.452,466.936 829.682,467.316C828.794,467.987 827.9,468.648 826.999,469.298C826.596,469.589 826.191,469.884 825.785,470.18C828.086,469.006 830.391,467.837 832.697,466.674ZM355.169,418.308C352.94,415.477 350.789,412.568 348.673,409.595C347.785,408.348 347.439,404.53 349.5,404.009C375.699,397.391 401.852,390.03 427.37,381.117C429.503,380.372 430.82,383.079 430.736,384.834C429.573,409.123 421.771,433.394 415.596,456.792C414.857,459.591 414.193,467.258 410.091,467.305C408.305,467.326 406.776,465.639 405.556,464.608C403.168,462.591 400.872,460.464 398.497,458.431C395.358,455.744 390.246,453.11 389.294,448.724C389.274,448.632 389.255,448.539 389.239,448.446C383.335,444.316 377.076,440.571 371.68,435.899C366.354,431.288 361.648,426.261 357.269,420.922L356.6,420.53C355.887,420.111 355.416,419.275 355.169,418.308ZM152.518,466.238C152.237,466.422 151.911,466.535 151.539,466.557C128.911,467.889 106.544,465.637 84.019,463.978C81.042,463.759 80.753,459.162 81.99,457.181C95.71,435.219 111.267,414.322 127.273,393.982C128.472,392.457 130.307,392.055 131.516,393.878C145.2,414.516 159.233,434.92 172.885,455.58C174.034,457.319 174.111,459.872 173.034,461.667C170.045,466.655 164.571,466.339 159.393,466.231C157.146,466.184 154.84,466.216 152.518,466.238ZM816.153,462.467L816.133,462.555L816.246,462.475L816.153,462.467ZM129.408,403.332C116.082,420.977 103.28,438.985 90.22,456.815C104.997,458.578 119.961,458.969 134.871,459.169C135.305,458.169 136.022,457.401 136.977,457.243C142.602,456.311 148.666,457.214 154.352,457.457C156.976,457.569 162.592,458.64 166.166,457.584C153.821,439.56 141.738,421.363 129.408,403.332ZM411.048,454.236C410.472,453.805 409.897,453.37 409.325,452.933C409.769,453.921 410.17,454.936 410.527,455.976C410.706,455.4 410.88,454.82 411.048,454.236ZM818.229,451.653C818.08,452.604 817.924,453.553 817.758,454.501C818.189,454.322 818.617,454.139 819.043,453.949C818.889,453.136 818.914,452.282 819.177,451.618L818.229,451.653ZM819.327,443.384C819.303,443.605 819.278,443.826 819.253,444.047L819.208,444.433C819.374,443.886 819.652,443.413 820.047,443.103C819.876,443.067 819.704,443.028 819.531,442.988C819.478,442.976 819.426,442.961 819.375,442.942L819.327,443.384ZM853.234,437.187C853.011,437.184 852.787,437.181 852.564,437.175C849.962,438.056 847.584,439.274 844.913,440.707C844.611,440.869 844.311,441.027 844.011,441.18C847.166,440.147 850.354,439.252 853.585,438.469C855.013,437.856 856.418,437.189 857.802,436.469C857.73,436.312 857.668,436.147 857.615,435.976C856.743,436.1 855.914,436.256 855.117,436.444C854.798,436.884 854.343,437.169 853.748,437.188L853.682,437.189L853.234,437.187ZM884.384,432.712C884.434,433.102 884.431,433.514 884.38,433.918C884.734,433.962 885.088,434.008 885.441,434.054C887.546,434.332 888.335,437.851 887.165,439.589L887.159,439.628C888.353,439.037 889.522,438.394 890.668,437.686C888.576,436.021 886.483,434.361 884.384,432.712ZM397.252,433.631C396.827,434.063 396.249,434.232 395.498,433.954C395.673,434.078 395.846,434.203 396.018,434.328C396.605,434.754 397.178,435.184 397.737,435.621C398.06,435.643 398.422,435.796 398.823,436.117C398.703,435.744 398.626,435.334 398.589,434.911C398.15,434.477 397.703,434.051 397.252,433.631ZM416.021,433.17C415.494,433.47 414.812,433.404 413.951,432.736C413.361,432.277 412.799,431.804 412.259,431.316L412.219,431.345L412.198,431.36C412.236,431.605 412.265,431.864 412.284,432.131C413.352,433.264 414.402,434.414 415.435,435.581C415.611,434.832 415.791,434.089 415.976,433.35L416.021,433.17ZM820.96,419.901C820.738,424.865 820.475,429.829 820.107,434.784L821.316,434.498C821.006,433.204 821.292,431.596 822.194,430.888C822.286,430.297 822.498,429.75 822.839,429.343C822.141,429.088 821.686,428.341 821.477,427.446C820.449,425.818 820.702,422.619 822.383,422.02C822.319,421.461 822.348,420.874 822.445,420.34L820.96,419.901ZM880.382,429.587C879.993,429.756 879.604,429.92 879.212,430.081C879.896,430.109 880.59,430.18 881.296,430.297L880.39,429.594L880.382,429.587ZM851.065,424.471C850.778,424.763 850.426,424.953 850.012,424.989C848.654,425.108 847.301,425.195 845.949,425.248C845.882,426.662 845.179,428.102 844.001,428.317L842.422,428.605C842.433,428.684 842.441,428.764 842.447,428.844C844.338,428.676 846.228,428.545 848.12,428.453C848.467,427.782 848.991,427.272 849.662,427.127L850.977,426.844C850.852,426.059 850.937,425.194 851.221,424.472L851.065,424.471ZM867.709,425.637C867.397,426.37 866.836,426.928 866.014,427.058L861.87,427.713C861.875,427.891 861.869,428.071 861.853,428.25C863.733,428.049 865.593,427.757 867.433,427.374C867.493,426.733 867.662,426.118 867.939,425.64L867.925,425.64L867.709,425.637ZM831.004,423.193C831.006,423.341 831.003,423.49 830.994,423.638C831.342,423.972 831.602,424.434 831.773,424.955C832.064,424.643 832.432,424.421 832.877,424.338L833.056,424.305C832.991,424.033 832.949,423.746 832.93,423.455C832.292,423.387 831.651,423.299 831.004,423.193ZM872.175,423.337C872.14,423.411 872.102,423.483 872.062,423.552L872.325,423.45L872.175,423.337ZM385.32,422.571L385.347,422.591L385.636,422.778L385.697,422.819L385.467,422.636L385.385,422.572L385.347,422.572L385.32,422.571ZM420.333,416.248C420.075,416.913 419.652,417.347 419.025,417.323C419.223,418.51 419.286,419.707 419.162,420.91C419.558,419.358 419.95,417.804 420.333,416.248ZM828.547,415.768C828.91,416.053 829.173,416.47 829.342,416.954C829.606,416.735 829.934,416.596 830.327,416.571C830.588,416.554 830.845,416.542 831.101,416.534L831.11,416.46C831.115,416.423 831.121,416.386 831.126,416.349L831.137,416.284C830.273,416.123 829.41,415.951 828.547,415.768ZM420.709,414.712L420.643,414.676C420.631,414.854 420.614,415.03 420.59,415.2L420.709,414.712ZM821.328,411.077L821.258,412.807L821.355,412.781C821.39,412.078 821.583,411.399 821.924,410.884L821.926,410.881C821.75,410.783 821.57,410.689 821.388,410.599C821.374,410.592 821.361,410.584 821.348,410.576L821.328,411.077ZM359.04,408.79L358.453,408.913C358.565,409.113 358.653,409.334 358.718,409.566C358.807,409.288 358.915,409.026 359.04,408.79ZM830.4,405.674C830.47,406.696 830.247,407.75 829.7,408.354C830.868,408.28 832.036,408.22 833.206,408.177C832.863,407.689 832.66,407.037 832.6,406.364C831.863,406.15 831.13,405.92 830.4,405.674ZM378.1,404.381L377.259,404.594C377.519,404.791 377.777,404.989 378.035,405.188C378.043,404.917 378.065,404.646 378.1,404.381ZM842.41,403.122C842.465,403.195 842.517,403.272 842.567,403.352L842.818,403.375L842.676,403.287L842.41,403.122ZM384.565,402.692L383.996,402.845C384.184,402.936 384.371,403.029 384.558,403.123C384.556,402.979 384.558,402.836 384.565,402.692ZM391.601,400.748C391.043,400.906 390.485,401.064 389.928,401.22C390.45,401.587 390.971,401.956 391.49,402.328C391.473,401.782 391.507,401.237 391.601,400.748ZM835.565,398.975C835.681,399.74 835.614,400.542 835.326,401.173C837.189,401.646 839.087,402.015 841.043,402.279C839.226,401.164 837.399,400.062 835.565,398.975ZM424.091,398.446C424.036,398.535 423.978,398.619 423.917,398.697C423.958,398.724 423.997,398.753 424.035,398.784L424.091,398.446ZM401.271,397.897L400.567,398.111L401.043,398.393C401.111,398.262 401.186,398.139 401.267,398.028L401.271,397.897ZM622.434,280.925C622.897,280.696 623.459,280.78 624.094,281.345C641.905,297.192 659.558,313.804 674.805,332.181C676.221,333.889 675.887,337.545 673.849,338.631C662.711,344.57 650.945,349.209 638.69,352.26C632.931,353.694 627.102,354.827 621.218,355.598C615.355,356.365 608.493,355.964 603.762,360.017C600.494,362.818 599.085,356.462 599.831,354.338C604.698,340.469 608.994,326.344 612.026,311.955C613.516,304.886 614.657,297.776 615.687,290.628C616.302,286.352 617.316,281.906 622.05,280.935C622.18,280.909 622.308,280.907 622.434,280.925ZM625.553,290.669C625.093,291.04 624.49,291.152 623.729,290.846C621.259,289.853 621.604,294.996 621.34,296.772C620.879,299.874 620.367,302.967 619.803,306.052C618.734,311.912 617.477,317.738 616.047,323.521C613.865,332.349 611.281,341.011 608.189,349.522C610.907,348.858 613.739,348.57 616.555,348.277C623.009,347.604 629.412,346.599 635.732,345.119C646.738,342.545 657.366,338.664 667.503,333.71C653.651,319.216 640.049,304.554 625.553,290.669ZM251.379,246.793C241.483,251.724 231.323,256.175 221.303,260.825C215.483,263.527 209.692,266.637 203.46,268.289C200.595,269.047 198.255,269.655 195.796,271.369C194.257,272.442 193.175,273.178 191.248,273.317C189.562,273.439 188.759,271.03 188.767,269.732C188.861,253.263 190.725,236.855 192.175,220.461C193.576,204.618 193.605,187.885 197.533,172.431C197.894,171.018 199.568,169.936 200.814,171.027C224.5,191.771 250.25,210.076 273.906,230.811C275.24,231.982 275.825,236.332 273.532,236.914C269.961,237.821 266.505,239.091 263.115,240.532C261.955,241.024 260.797,241.534 259.65,242.066C259.469,242.439 259.216,242.742 258.889,242.918C256.994,243.934 255.085,244.925 253.166,245.896C252.674,246.636 252.017,246.893 251.379,246.793ZM201.043,179.559C198.318,193.18 198.323,207.714 197.219,221.45C196.055,235.935 194.511,250.454 193.762,264.978C195.208,264.115 196.7,262.969 197.962,262.548C200.37,261.746 202.9,261.386 205.316,260.593C210.959,258.742 216.354,255.997 221.777,253.595C231.08,249.473 240.334,245.137 249.754,241.259C251.015,238.513 253.786,237.508 256.706,236.087C259.771,234.595 262.916,233.423 266.117,232.38C255.4,224.256 245.078,215.485 234.582,207.117C223.271,198.099 212.14,188.842 201.043,179.559ZM0,141.277C11.928,139.496 23.95,138.543 36.032,138.516C38.239,138.512 38.722,141.623 38.525,143.21C37.708,149.788 35.931,156.014 33.05,161.986C32.745,162.62 32.4,162.956 32.047,163.067C25.697,181.62 19.133,200.102 12.879,218.692C12.559,219.643 11.439,220.985 10.272,220.398C6.406,218.453 3.032,216.014 0,213.228L0,174.894L0.867,174.998C0.881,174.72 0.92,174.45 0.986,174.2C0.818,174.27 0.634,174.312 0.435,174.319L0,174.337L0,141.277ZM1000,141.277L1000,174.337C999.541,174.357 999.083,174.381 998.627,174.411L997.588,174.605C998.392,174.702 999.196,174.799 1000,174.895L1000,213.228C985.522,199.929 978.858,178.772 963.606,166.207C962.962,166.226 962.317,166.241 961.672,166.252C960.331,166.276 959.7,164.793 959.737,163.341C958.77,162.702 957.771,162.096 956.736,161.527C954.623,160.364 954.115,156.983 955.444,155.027C958.85,150.014 964.606,148.947 970.145,147.474C977.048,145.64 984.027,144.066 991.051,142.771C994.029,142.222 997.012,141.723 1000,141.277ZM19.462,184.966C19.373,184.999 19.28,185.026 19.184,185.043C18.573,185.157 17.968,185.304 17.369,185.479C17.956,186.803 18.095,188.805 17.536,189.676C16.581,191.167 15.762,192.667 15.073,194.211C15.104,194.698 15.053,195.188 14.9,195.636C14.159,197.806 13.418,199.976 12.678,202.146C12.172,203.627 11.364,203.928 10.616,203.594C11.115,204.556 11.518,205.553 11.829,206.594C14.398,199.394 16.932,192.181 19.462,184.966ZM996.734,199.337L996.892,199.539C996.91,199.37 996.935,199.206 996.966,199.047L996.905,199.002L996.734,199.337ZM8.929,195.138C8.169,196.024 7.374,196.872 6.542,197.684C6.976,197.835 7.415,197.977 7.858,198.112C8.447,197.343 8.999,196.551 9.512,195.733C9.293,195.587 9.098,195.382 8.929,195.138ZM991.322,191.852L991.579,192.229C991.541,192.117 991.505,192.004 991.471,191.89L991.322,191.852ZM715.603,148.826C713.315,150.099 711.856,144.111 713.65,142.135C722.932,131.912 735.584,126.205 747.752,120.198C755.412,116.416 763.071,112.634 770.731,108.853C777.746,105.389 784.691,101.246 791.918,98.268C803.048,93.684 801.4,121.655 801.642,127.378C802.343,143.944 802.953,160.509 803.503,177.081C803.554,178.621 802.497,182.058 800.214,181.091C786.254,175.181 772.227,169.437 758.287,163.478C750.498,160.149 742.753,156.434 734.892,153.067C728.505,151.474 722.048,150.153 715.603,148.826ZM22.454,176.439C21.869,176.848 21.308,177.276 20.768,177.723C20.587,178.324 20.285,178.826 19.859,179.096C20.447,179.338 20.826,179.873 21.019,180.528L21.259,179.844L22.454,176.439ZM982.129,177.951C982.236,178.108 982.342,178.266 982.449,178.423L982.697,178.791C982.845,178.373 983.058,178.02 983.333,177.788L982.027,177.801L982.129,177.951ZM986.181,177.758L985.923,177.761C986.123,177.794 986.321,177.829 986.52,177.865L986.53,177.791L986.382,177.778C986.332,177.773 986.282,177.768 986.232,177.763L986.181,177.758ZM462.27,161.038C445.141,148.68 427.536,136.983 409.883,125.389C408.368,124.393 408.389,121.307 409.292,119.984C412.612,115.116 417.268,113.044 422.888,111.829C429.698,110.358 436.278,109.094 442.759,106.409C456.4,100.757 468.698,92.285 483.136,88.586C485.411,88.003 486.573,90.436 486.587,92.397C486.683,105.63 485.955,118.872 484.26,131.998C483.39,138.737 482.655,145.18 482.98,151.988C483.273,158.15 483.576,164.207 482.292,170.281C482.079,171.288 480.949,173.896 479.37,172.935C473.337,169.268 467.59,165.892 462.325,161.089C462.306,161.072 462.288,161.055 462.27,161.038ZM974.166,167.348C974.719,167.273 975.273,167.199 975.826,167.126C977.038,166.259 978.265,165.517 979.531,164.895C977.256,165.208 974.974,165.466 972.685,165.67C973.186,166.221 973.679,166.78 974.166,167.348ZM27.939,160.892C27.58,161.493 27.055,161.916 26.371,161.989L25.546,162.078C25.531,163.182 25.152,164.216 24.361,164.667L24.583,164.741L26.372,164.708C26.444,164.707 26.514,164.71 26.582,164.717C27.034,163.442 27.486,162.167 27.939,160.892ZM481.311,97.35C469.41,101.185 458.76,107.896 447.384,113.027C441.521,115.672 435.438,117.813 429.076,118.864C424.966,119.542 419.665,119.739 415.807,121.941C431.566,132.526 447.935,142.546 462.962,154.164C463.43,154.024 463.985,154.151 464.612,154.663C468.815,158.097 473.284,161.71 478.051,164.463C478.45,159.129 477.916,153.82 477.773,148.433C477.623,142.88 478.303,137.458 479.022,131.963C480.524,120.468 481.277,108.929 481.311,97.35ZM797.5,161.83C797.442,161.895 797.382,161.955 797.319,162.012C797.393,162.108 797.46,162.212 797.52,162.321L797.514,162.18L797.5,161.83ZM4.377,161.29C4.29,161.304 4.202,161.319 4.115,161.333L3.899,161.368C4.083,161.477 4.243,161.617 4.38,161.781C4.448,161.592 4.532,161.413 4.63,161.246L4.377,161.29ZM32.099,146.177C31.96,146.282 31.803,146.365 31.627,146.422C31.098,146.593 30.57,146.749 30.043,146.89C31.129,148.329 30.706,151.991 28.918,151.695L28.732,151.664C29.059,152.761 28.863,154.244 28.485,154.96C28.358,155.201 28.222,155.421 28.078,155.619C28.179,156.048 28.235,156.494 28.237,156.927C28.526,157.688 28.592,158.622 28.442,159.48C29.881,155.438 31.332,151.397 32.799,147.363C32.884,146.956 32.965,146.548 33.041,146.138L32.099,146.177ZM978.203,156.485C977.007,156.949 975.808,157.406 974.604,157.852L974.746,157.852L974.978,157.853C976.027,157.69 977.075,157.52 978.122,157.347C978.123,157.054 978.15,156.763 978.203,156.485ZM967.072,155.819C965.73,156.205 964.426,156.662 963.249,157.226C963.394,157.328 963.539,157.431 963.683,157.535C964.808,156.95 965.938,156.378 967.072,155.819ZM989.409,152.8C988.676,152.834 987.94,152.854 987.202,152.858C985.882,153.405 984.56,153.948 983.237,154.484C985.431,154.412 987.611,154.26 989.783,154.028C989.582,153.676 989.459,153.248 989.409,152.8ZM728.358,138.454C728.018,138.67 727.679,138.889 727.342,139.11L728.307,139.376C728.319,139.288 728.333,139.2 728.348,139.114C728.339,138.893 728.342,138.672 728.358,138.454ZM734.628,134.784C733.898,135.182 733.171,135.586 732.45,135.997L733.769,136.31L733.946,136.326L734.202,136.351C734.252,135.776 734.39,135.231 734.628,134.784ZM738.133,132.934C737.646,133.185 737.16,133.437 736.675,133.691C737.118,133.691 737.56,133.694 738.001,133.7C738.025,133.435 738.068,133.177 738.133,132.934ZM796.277,129.093C796.018,129.224 795.758,129.349 795.498,129.468C795.808,129.935 796.088,130.426 796.33,130.95C796.312,130.331 796.295,129.711 796.277,129.093ZM754.901,124.621L754.224,124.956C755.88,125.217 757.524,125.518 759.158,125.862C759.124,125.687 759.098,125.508 759.082,125.327C758.284,125.085 757.476,124.865 756.651,124.666C756.339,124.59 756.074,124.406 755.858,124.148L754.901,124.621ZM795.865,117.883C795.612,118.992 795.016,119.887 794.099,120.029C794.799,120.448 795.429,120.865 796.03,121.337C795.983,120.185 795.929,119.033 795.865,117.883ZM790.48,118.989C790.634,119.287 790.761,119.616 790.857,119.962C791.293,119.937 791.747,119.969 792.213,120.055C792.328,119.916 792.457,119.806 792.602,119.732C792.473,119.683 792.345,119.633 792.219,119.581C791.639,119.372 791.06,119.174 790.48,118.989ZM765.185,119.534L764.998,119.626L765.178,119.643C765.18,119.606 765.182,119.57 765.185,119.534ZM794.662,106.683C794.617,106.449 794.569,106.216 794.52,105.982C794.57,104.865 794.218,104.791 793.465,105.761C793.338,105.753 793.201,105.758 793.056,105.774C793.398,105.911 793.746,106.074 794.11,106.269C794.311,106.376 794.495,106.516 794.662,106.683ZM944.529,0C953.283,8.094 961.887,16.356 970.638,24.352C972.216,25.793 972.735,30.336 970.219,31.218C949.438,38.5 927.649,43.982 906.156,48.701C905.885,48.761 905.639,48.736 905.42,48.644C902.314,49.735 899.223,50.869 896.164,52.097C893.532,53.154 892.923,48.719 893.492,47.111C897.835,34.835 901.53,22.351 904.344,9.634C905.053,6.433 905.711,3.221 906.316,0L910.864,0C909.956,5.029 908.936,10.037 907.79,15.016C905.581,24.609 902.942,34.093 899.874,43.443C904.174,41.691 908.475,39.94 912.834,38.331C914.09,37.868 915.027,38.566 915.566,39.69C931.25,34.809 947.001,29.922 962.828,25.603C953.962,17.024 945.121,8.343 935.998,0L944.529,0ZM209.309,0C202.7,11.843 195.999,23.64 189.228,35.363C188.317,36.94 186.713,36.673 185.706,35.449C176.815,24.641 167.838,13.901 158.906,3.125C158.045,2.085 157.186,1.044 156.33,0L164.147,0L165.38,1.485C172.552,10.118 179.696,18.776 186.901,27.381C191.434,18.19 196.187,9.043 201.145,0L209.309,0ZM684.87,0C685.139,4.138 685.428,8.278 685.738,12.416C685.839,13.767 685.109,16.052 683.438,16.113C676.376,16.374 670.525,12.724 664.549,9.421C658.869,6.28 653.186,3.143 647.506,0L661.722,0L663.94,1.262C669.208,4.257 674.592,8.024 680.688,8.729C680.483,5.82 680.287,2.91 680.101,0L684.87,0Z" style="fill-rule:nonzero;"/>
</svg>
