<?xml version="1.0" encoding="UTF-8" standalone="no"?>
<!DOCTYPE svg PUBLIC "-//W3C//DTD SVG 1.1//EN" "http://www.w3.org/Graphics/SVG/1.1/DTD/svg11.dtd">
<svg width="100%" height="100%" viewBox="0 0 1000 1000" version="1.1" xmlns="http://www.w3.org/2000/svg" xmlns:xlink="http://www.w3.org/1999/xlink" xml:space="preserve" xmlns:serif="http://www.serif.com/" style="fill-rule:evenodd;clip-rule:evenodd;stroke-linejoin:round;stroke-miterlimit:2;">
    <path d="M87.904,1000C88.23,998.42 88.764,996.881 89.551,995.402C96.069,983.152 109.798,990.96 115.142,999.715C115.2,999.81 115.257,999.904 115.314,1000L87.904,1000ZM123.508,1000C124.27,999.367 125.075,998.783 125.919,998.255C132.251,994.288 140.611,993.903 144.232,1000L123.508,1000ZM872.343,1000C861.098,984.163 849.91,964.672 870.429,952.746C874.899,950.148 881.813,946.719 887.106,947.97C892.625,949.275 895.608,955.009 898.051,959.606C898.667,960.765 899.377,962.056 900.099,963.428C902.562,955.784 907.259,949.108 915.176,946.085C927.905,941.225 937.697,950.428 940.354,962.465C943.136,975.075 939.827,987.998 935.278,1000L872.343,1000ZM605.479,1000C602.765,993.684 600.376,987.226 598.325,980.637C594.301,967.704 589.816,952.676 590.807,938.982C591.614,927.856 600.747,918.426 612.014,925.137C617.803,928.585 620.437,934.082 621.701,940.227C623.913,934.74 627.141,929.687 631.388,925.549C635.414,921.625 641.194,918.416 646.858,920.756C652.348,923.023 655.202,929.342 656.293,934.797C659.19,949.273 651.28,963.107 644.956,975.52C640.8,983.678 636.653,991.841 632.501,1000L605.479,1000ZM210.225,799.07C211.764,795.704 213.838,792.593 216.353,789.946C224.318,781.564 238.133,778.133 247.547,786.192C255.97,793.402 257.963,805.864 255.735,816.23C252.591,830.861 243.211,844.166 236.056,857.07C227.765,872.024 219.475,886.976 211.059,901.86C210.463,902.915 209.341,903.11 208.384,902.455C195.942,893.931 189.498,877.105 183.508,863.873C177.322,850.209 171.328,835.813 167.958,821.154C165.186,809.094 165.726,795.149 175.326,786.136C183.838,778.147 195.76,779.62 203.524,787.822C206.662,791.137 208.782,794.966 210.225,799.07ZM496.286,764.112C497.934,758.281 500.798,752.73 504.499,747.881C510.59,739.902 524.141,729.879 533.563,738.899C538.287,743.42 541.283,751.356 543.269,757.425C545.413,763.976 545.857,770.739 544.369,777.477C542.671,785.166 539.159,792.335 536.043,799.52C532.479,807.739 528.936,815.966 525.391,824.193C518.311,840.619 511.571,857.256 503.995,873.461C503.36,874.82 501.708,876.028 500.614,874.211C491.325,858.79 482.735,843.268 475.311,826.845C468.752,812.336 461.917,797.567 457.761,782.156C454.488,770.023 452.096,753.896 460.566,743.237C463.844,739.113 469.043,736.199 474.416,736.313C480.476,736.442 484.646,740.473 487.568,745.454C491.032,751.359 493.918,757.635 496.286,764.112ZM790.15,765.119C791.034,762.188 792.197,759.35 793.74,756.677C800.201,745.483 814.671,739.684 825.301,748.985C837.01,759.229 835.51,776.483 832.974,790.265C827.436,820.348 813.329,848.334 792.809,870.971C791.327,872.606 789.67,870.286 789.408,868.978C786.069,852.3 773.333,840.04 764.088,826.45C755.68,814.091 749.796,800.02 746.947,785.342C744.46,772.527 742.964,755.434 754.475,746.273C765.476,737.516 779.389,744.892 785.724,755.523C787.515,758.529 788.986,761.754 790.15,765.119ZM1000,702.888C994.556,710.353 988.273,717.198 981.319,723.34C980.23,724.301 979.187,723.386 978.677,722.359C970.177,705.227 961.589,687.901 954.015,670.339C948.62,657.831 942.592,640.189 949.53,627.086C955.878,615.097 972.22,615.369 980.897,624.471C984.357,628.102 986.558,632.308 987.772,636.79C990.2,630.855 993.852,625.828 999.757,623.196C999.838,623.16 999.919,623.125 1000,623.09L1000,702.888ZM0,623.09C13.815,617.145 22.67,631.707 22.5,643.856C22.298,658.398 16.571,673.66 10.076,686.467C7.158,692.221 3.781,697.704 0,702.887L0,623.09ZM318.041,612.373C319.62,606.65 322.665,601.578 328.348,598.414C338.499,592.76 347.509,599.697 350.581,609.598C354.964,623.726 350.327,636.182 345.294,649.385C339.639,664.222 333.498,678.859 326.926,693.313C326.409,694.451 325.163,695.755 323.903,694.607C318.949,690.092 316.05,684.124 312.828,678.346C309.017,671.509 305.206,664.673 301.395,657.836C295.551,647.351 288.292,636.526 289.33,623.972C290.093,614.737 296.292,600.815 307.496,601.356C313.383,601.64 316.359,606.535 318.041,612.373ZM668.553,559.53C669.619,549.185 673.655,539.26 683.025,533.578C688.092,530.505 695.895,528.657 700.898,532.893C706.09,537.29 708.249,546.518 709.186,552.869C711.74,570.153 704.522,586.997 699.098,603.043C693.186,620.535 686.232,637.442 679.306,654.535C678.742,655.928 677.133,656.872 676.097,655.247C666.391,640.006 661.763,622.337 653.165,606.528C645.417,592.281 634.167,577.747 632.763,561.065C631.703,548.462 640.353,530.93 655.631,535.619C666.512,538.958 666.208,550.14 668.553,559.53ZM137.775,426.99C139.373,420.435 143.298,414.563 149.974,412.248C160.52,408.594 169.881,415.509 170.962,426.236C172.289,439.403 165.812,453.519 160.313,465.092C153.682,479.051 144.801,492.31 139.432,506.817C138.984,508.028 137.57,508.771 136.713,507.421C133.08,501.692 129.81,495.451 127.338,489.134C124.742,482.5 123.069,475.553 120.467,468.919C115.732,456.852 109.002,445.311 108.547,432.02C108.262,423.711 116.38,408.751 126.675,413.023C131.588,415.062 134.617,421.031 136.962,425.416C137.24,425.938 137.511,426.462 137.775,426.99ZM866.599,392.783C866.91,391.629 867.233,390.505 867.559,389.415C871.152,377.408 880.605,366.277 894.305,371.134C908.099,376.025 912.6,391.199 911.647,404.517C910.424,421.644 902.933,438.319 895.831,453.705C888.553,469.472 880.706,485.001 875.273,501.54C874.645,503.452 872.397,503.629 871.717,501.627C865.358,482.93 856.389,465.168 845.108,448.958C836.213,436.173 824.836,424.332 820.797,408.878C817.52,396.342 819.982,381.623 831.552,374.179C842.718,366.994 854.475,372.612 861.23,382.743C863.338,385.904 865.071,389.298 866.599,392.783ZM422.155,356.523C423.477,348.813 426.929,341.845 434.523,337.945C446.99,331.541 458.008,344.136 461.434,354.937C466.473,370.827 460.967,386.191 453.89,400.404C445.128,418 436.241,435.539 427.354,453.072C426.629,454.501 425.217,454.082 424.38,453.145C414.097,441.625 409.34,426.89 402.71,413.232C395.574,398.533 385.158,384.956 384.423,367.999C383.914,356.233 390.174,338.633 404.908,340.55C414.108,341.746 419.202,348.541 422.155,356.523ZM648.056,287.497C649.605,280.953 652.855,274.867 657.946,270.292C668.032,261.227 682.806,265.488 684.251,279.467C687.882,314.597 659.873,343.29 645.059,372.318C644.359,373.69 642.755,373.501 641.965,372.394C632.067,358.515 625.944,342.499 619.4,326.879C613.512,312.827 604.931,296.813 607.503,281.042C609.475,268.948 620.786,258.718 632.852,266.052C640.368,270.62 645.082,278.792 648.056,287.497ZM0,213.164C2.06,208.079 5.741,203.61 10.53,200.661C15.371,197.681 22.286,196.101 27.561,198.92C33.058,201.858 34.746,210.132 35.628,215.68C40.964,249.282 15.575,276.187 1.751,304.133C1.42,304.801 0.676,305.143 0,305.006L0,213.164ZM1000,305.006C999.759,304.958 999.526,304.849 999.324,304.672C987.809,294.594 980.214,281.332 974.864,267.14C972.226,260.139 970.09,252.952 968.13,245.735C965.931,237.636 963.176,229.193 963.109,220.737C963.011,208.366 971.933,193.908 986.079,199.269C992.47,201.693 996.904,207.199 999.549,213.319C999.618,213.479 999.686,213.639 999.752,213.799C999.832,213.586 999.914,213.375 1000,213.164L1000,305.006ZM253.228,177.908C257.069,171.881 262.611,167.257 270.395,167.772C282.742,168.587 285.77,182.544 283.662,192.546C280.905,205.633 274.88,218.583 268.559,230.301C262.215,242.056 254.504,252.98 245.793,263.096C244.695,264.371 242.889,263.124 242.51,261.876C237.496,245.39 231.973,229.068 225.433,213.117C220.588,201.305 212.443,187.116 217.064,173.974C220.847,163.213 233.787,158.289 243.727,164.116C248.862,167.125 252.04,172.274 253.228,177.908ZM771.767,129.802C773.532,125.785 776.202,122.253 779.925,119.718C789.365,113.291 802.467,115.216 807.581,125.983C814.237,139.994 805.533,155.951 800.808,169.137C794.686,186.223 788.566,203.309 782.445,220.395C781.895,221.931 780.196,222.723 779.124,221.132C768.696,205.646 757.811,190.442 747.794,174.683C740.055,162.506 732.12,147.801 734.372,132.852C736.142,121.102 748.091,108.745 760.387,116.086C765.578,119.185 769.389,124.139 771.767,129.802ZM427.282,48.234C429.097,43.258 432.427,38.864 437.165,35.892C445.375,30.742 459.8,29.844 462.703,41.458C465.954,54.466 456.833,68.602 451.394,79.768C444.315,94.296 436.914,108.662 429.226,122.876C428.207,124.76 426.486,123.63 425.774,122.286C418.587,108.7 411.714,94.951 405.204,81.028C400.361,70.672 392.439,58.652 395.261,46.715C397.651,36.609 408.152,29.498 417.873,35.339C422.891,38.353 425.691,43.01 427.282,48.234ZM144.232,0C144.825,0.998 145.291,2.17 145.6,3.527C146.902,9.243 147.235,15.489 145.871,21.215C144.496,26.989 141.086,31.819 137.785,36.641C129.827,48.269 121.953,59.954 114.015,71.597C113.292,72.658 111.76,72.977 111.043,71.67C104.09,59.005 100.201,44.491 95.394,30.917C92.223,21.963 85.819,10.111 87.904,0L115.314,0C116.476,1.93 117.532,3.964 118.367,6.076C119.701,3.781 121.446,1.712 123.508,0L144.232,0ZM935.278,0C934.074,3.178 932.782,6.293 931.494,9.319C924.238,26.368 916.859,43.371 909.367,60.318C908.634,61.977 907.126,62.054 906.321,60.393C898.662,44.595 891.456,27.767 881.73,13.121C879.19,9.296 875.763,4.817 872.343,0L935.278,0ZM632.501,0C628.546,7.773 624.587,15.542 620.612,23.304C619.924,24.647 618.117,24.649 617.369,23.383C612.902,15.832 608.928,8.031 605.479,0L632.501,0Z" style="fill-rule:nonzero;"/>
</svg>
