<?xml version="1.0" encoding="UTF-8" standalone="no"?>
<!DOCTYPE svg PUBLIC "-//W3C//DTD SVG 1.1//EN" "http://www.w3.org/Graphics/SVG/1.1/DTD/svg11.dtd">
<svg width="100%" height="100%" viewBox="0 0 1000 1000" version="1.1" xmlns="http://www.w3.org/2000/svg" xmlns:xlink="http://www.w3.org/1999/xlink" xml:space="preserve" xmlns:serif="http://www.serif.com/" style="fill-rule:evenodd;clip-rule:evenodd;stroke-linejoin:round;stroke-miterlimit:2;">
    <path d="M169.761,1000C169.364,993.303 170.527,985.768 172.323,979.52C173.497,975.436 175.385,971.523 178.284,968.489C178.28,968.284 178.314,968.091 178.396,967.938C185.775,954.218 207.06,961.165 216.889,967.587C222.143,971.019 227.429,974.823 228.456,981.365C229.394,987.344 229.007,994.088 227.258,1000L225.316,1000C226.021,997.929 226.515,995.762 226.797,993.525C227.276,989.731 227.617,985.006 226.733,981.239C225.639,976.582 221.746,973.817 218.096,971.198C212.298,967.036 205.324,963.371 198.138,962.513C192.865,961.884 186.346,962.553 182.155,966.085C182.208,966.363 182.17,966.687 182.015,966.814C181.184,967.49 180.419,968.198 179.714,968.934C179.616,969.096 179.522,969.262 179.431,969.432C179.275,969.723 179.102,969.817 178.94,969.782C174.681,974.67 172.836,980.732 171.978,987.434C171.44,991.632 170.948,995.936 171.332,1000L169.761,1000ZM938.211,1000C938.916,998.744 940.13,997.736 941.514,997.89C941.605,997.845 941.713,997.837 941.838,997.88C942.986,998.275 944.441,998.595 945.212,999.624C945.302,999.744 945.38,999.87 945.448,1000L943.648,1000C943.385,999.806 943.073,999.659 942.724,999.573C942.646,999.675 942.53,999.734 942.372,999.72C941.725,999.662 941.095,999.755 940.547,1000L938.211,1000ZM189.287,1000C188.012,998.558 187.212,996.797 187.172,994.753C187.032,987.611 191.176,978.955 198.884,977.748C198.92,977.742 198.952,977.745 198.981,977.755C201.603,977.179 204.915,977.858 206.991,978.976C209.799,980.487 211.574,983.466 212.377,986.465C213.547,990.838 212.724,996.252 209.935,1000L207.24,1000C210.757,997.153 212.312,991.958 211.03,987.36C209.723,982.673 202.41,976.382 197.268,980.072C196.96,980.293 196.716,980.13 196.585,979.848C192.239,982.549 189.565,986.389 188.785,991.945C188.273,995.586 189.836,998.509 192.92,1000L189.287,1000ZM909.798,1000C909.33,991.902 913.387,984.785 919.782,979.705C925.256,974.615 933.047,974.094 940.305,974.024C947.666,973.953 955.462,975.355 960.779,980.87C965.596,985.868 968.474,992.904 969,1000L967.308,1000C966.96,994.344 964.87,988.7 960.906,983.758C955.736,977.313 947.209,975.978 939.43,976.149C933.919,976.271 927.53,976.325 922.674,979.173C921.708,979.875 920.776,980.584 919.89,981.315C919.706,981.498 919.527,981.688 919.352,981.885C919.25,981.999 919.152,982.034 919.064,982.013C914.978,985.568 912.011,989.702 911.334,995.926C911.182,997.321 911.2,998.677 911.354,1000L909.798,1000ZM885.653,1000C885.828,999.117 886.002,998.247 886.17,997.391C888.251,986.814 891.585,976.289 898.728,967.985C906.146,959.361 915.715,956.198 926.81,955.557C938.788,954.865 950.725,956.159 962.28,959.266C962.424,959.197 962.596,959.198 962.792,959.3C962.932,959.373 963.071,959.446 963.211,959.521C963.848,959.697 964.485,959.88 965.12,960.068C965.417,960.156 965.57,960.501 965.59,960.866C979.847,969.416 988.933,984.025 990.682,1000L988.963,1000C987.106,983.964 977.051,969.581 962.38,961.948C962.077,961.791 961.891,961.444 961.808,961.049C940.652,955.704 911.949,952.729 897.84,972.285C891.97,980.424 889.268,990.239 887.479,1000L885.653,1000ZM899.592,1000C899.103,988.12 901.137,975.348 912.882,970.939C914.962,969.324 917.537,969.253 920.385,968.904C926.31,968.175 931.678,965.738 937.482,964.693C942.988,963.702 948.1,965.931 953.193,967.77C957.77,969.421 962.307,971.273 966.441,973.865C973.795,978.474 977.629,984.523 978.829,993.108C979.146,995.378 979.319,997.686 979.333,1000L977.299,1000C977.433,991.15 974.711,982.679 967.021,977.247C963.131,974.498 958.744,972.556 954.323,970.837C949.626,969.01 944.457,966.612 939.335,966.929C934.662,967.22 930.117,969.541 925.524,970.477C921.594,971.279 914.968,970.558 912.029,973.578C911.798,973.814 911.6,973.701 911.474,973.466C903.549,978.184 900.91,988.108 901.057,997.163C901.072,998.1 901.093,999.046 901.124,1000L899.592,1000ZM604.822,1000C603.168,998.082 601.654,996.058 600.306,993.937C594.493,984.794 594.351,973.209 595.834,962.792C597.36,952.06 601.803,941.837 610.349,934.878C618.905,927.911 629.949,924.852 640.845,924.594C647.558,924.435 654.277,925.283 660.83,926.695C662.761,927.111 664.683,927.542 666.491,928.191C688.933,935.184 701.6,957.954 698.355,980.956C697.46,987.298 695.86,993.965 693.106,1000L690.916,1000C695.491,991.306 697.663,980.624 697.323,971.188C696.739,954.965 686.643,940.613 672.554,933.347C672.436,933.48 672.28,933.512 672.103,933.338C671.935,933.174 671.762,933.015 671.583,932.861C669.111,931.658 666.524,930.672 663.849,929.929C663.54,929.843 663.346,929.549 663.262,929.194C660.538,928.577 657.737,928.238 655.335,927.859C649.379,926.919 643.313,926.527 637.296,927.048C626.201,928.009 614.958,932.407 607.31,940.732C599.515,949.216 596.969,960.924 596.808,972.142C596.645,983.478 600.387,992.214 608.067,1000L604.822,1000ZM922.136,1000C922.234,998.864 922.367,997.687 922.511,996.454C923.161,990.877 925.045,988.275 928.626,985.058C929.181,984.396 929.832,983.845 930.554,983.386L930.663,983.294C930.765,983.207 930.859,983.163 930.944,983.151C934.617,981.056 939.902,981.133 943.797,981.304C949.241,981.542 954.022,983.78 957.028,988.432C959.178,991.758 960.29,995.851 960.381,1000L958.751,1000C958.733,996.032 957.578,992.097 955.138,988.936C951.931,984.781 947.288,983.68 942.265,983.49C938.599,983.351 934.17,983.055 931.01,985.089C927.657,988.659 924.818,990.964 923.965,996.274C923.761,997.547 923.598,998.787 923.5,1000L922.136,1000ZM625.902,1000C619.704,994.402 614.986,987.217 612.642,979.051C609.097,966.709 611.69,952.015 620.595,942.578C620.614,942.439 620.671,942.316 620.772,942.247C620.949,942.125 621.123,941.996 621.293,941.862C621.78,941.378 622.284,940.909 622.806,940.457C624.165,939.037 625.377,937.439 626.863,936.422C627.339,936.097 628.219,936.386 628.602,936.257C630.25,935.702 631.382,935.395 632.856,934.751C637.356,932.783 641.227,931.549 646.231,931.904C655.503,932.562 666.535,936.859 674.226,942.045C681.265,946.789 684.245,954.786 686.646,962.583C689.021,970.291 689.66,978.439 686.937,986.164C685.08,991.43 681.602,996.006 677.604,1000L674.451,1000C674.68,999.79 674.907,999.578 675.135,999.364C683.017,991.937 687.93,983.711 686.981,972.485C686.181,963.011 682.042,950.559 674.137,944.711C670.089,941.717 665.136,939.869 660.503,937.991C655.69,936.04 650.71,934.246 645.472,933.972C640.34,933.703 636.456,935.524 631.747,937.028C630.312,937.486 628.858,937.624 627.495,938.185C627.471,938.262 627.433,938.326 627.381,938.366C619.323,944.497 612.699,955.396 612.328,965.668C611.975,975.415 615.905,986.053 622.145,993.485C624.1,995.814 626.427,998.013 628.99,1000L625.902,1000ZM156.505,1000C156.716,996.46 157.369,992.876 158.165,989.244C160.075,980.531 160.945,969.626 166.326,962.173C171.163,955.473 179.041,951.991 186.947,950.49C192.655,949.407 198.506,949.258 204.3,949.188C208.98,949.131 213.256,949.324 217.423,951.65C217.659,951.782 217.793,952.09 217.836,952.421C226.263,957.065 234.009,963.068 238.732,971.651C243.459,980.243 243.585,989.827 240.812,999.077C240.72,999.384 240.626,999.692 240.529,1000L238.442,1000C238.697,999.227 238.939,998.454 239.167,997.682C245.485,976.282 230.854,962.316 213.861,952.384C213.775,952.334 213.702,952.259 213.642,952.168C210.06,951.219 206.285,951.342 202.52,951.431C197.637,951.546 192.72,951.725 187.9,952.577C178.85,954.175 169.36,958.711 165.442,967.548C162.07,975.154 161.023,984.578 159.34,992.696C158.826,995.176 158.474,997.612 158.351,1000L156.505,1000ZM930.575,1000C931.022,996.558 932.798,993.21 935.572,991.523C935.652,991.474 935.725,991.454 935.792,991.459C940.227,988.929 947.946,991.599 951.043,995.105C952.304,996.531 952.76,998.228 952.678,1000L950.831,1000C950.83,997.473 949.12,995.697 946.551,994.461C943.926,993.199 939.021,991.444 936.024,992.974C935.988,993.023 935.945,993.064 935.897,993.097C935.408,993.424 934.966,993.794 934.571,994.2C934.508,994.286 934.447,994.376 934.388,994.468C934.303,994.604 934.215,994.673 934.13,994.693C932.893,996.187 932.21,998.067 932.049,1000L930.575,1000ZM179.708,1000C178.571,994.009 180.334,987.164 183.068,981.554C183.038,981.421 183.031,981.285 183.056,981.157C185.856,966.879 201.934,966.557 212.486,972.974C221.093,978.207 221.08,990.834 217.966,1000L216.165,1000C219.958,990.808 218.703,978.066 209.532,973.655C205.477,971.702 200.41,970.323 195.899,970.823C190.891,971.379 187.659,974.31 185.633,978.329C185.644,978.427 185.637,978.521 185.605,978.594C185.145,979.653 184.667,980.774 184.198,981.94C184.189,981.964 184.179,981.987 184.17,982.009C181.878,987.716 179.824,994.452 181.141,1000L179.708,1000ZM632.338,946.23C634.913,944.536 638.106,943.713 641.459,943.282C649.045,942.307 657.454,942.887 664.197,946.955C672.488,951.956 680.533,966.844 677.793,976.551C676.139,982.411 672.304,988.346 667.689,992.292C662.548,996.69 656.836,997.815 650.24,998.068C644.054,998.305 638.1,998.136 633.254,993.846C629.027,990.106 626.346,984.733 624.136,979.627C619.923,969.894 622.378,959.249 628.234,950.757C628.93,949.423 629.805,948.319 630.817,947.404C631.135,947.033 631.458,946.669 631.788,946.311C632,946.08 632.191,946.089 632.338,946.23ZM201.931,986.309C204.588,986.542 206.31,989.416 205.787,991.968C205.186,994.899 202.103,997.803 198.977,997.334C192.294,996.331 195.671,983.858 201.799,986.22C201.85,986.239 201.894,986.27 201.931,986.309ZM628.495,953.311C625.741,957.656 623.768,962.475 623.147,967.652C622.327,974.49 626.812,982.755 630.972,988.104C638.955,998.368 657.285,998.547 666.9,990.377C673.021,985.175 677.981,976.682 676.337,968.544C675.047,962.155 670.937,954.951 666.049,950.557C661.453,946.427 653.058,944.494 647.098,944.708C642.298,944.883 636.104,945.296 632.129,948.345C630.975,949.73 629.89,951.18 628.898,952.688C628.877,952.745 628.856,952.801 628.836,952.858C628.745,953.115 628.625,953.256 628.495,953.311ZM201.275,987.309C196.739,986.419 194.465,995.224 199.521,995.337C201.385,995.379 203.188,993.982 204.125,992.448C205.616,990.005 203.658,987.884 201.342,987.335C201.318,987.329 201.296,987.32 201.275,987.309ZM637.38,958.315C638.523,954.902 641.366,953.818 644.96,953.145C650.942,952.024 655.539,952.662 660.511,956.293C668.242,961.942 669.83,972.766 663.831,980.353C657.596,988.238 645.359,989.041 639.181,980.817C634.475,974.554 633.35,965.195 637.38,958.315ZM640.241,956.316C640.225,956.395 640.198,956.464 640.158,956.516C634.89,963.485 635.245,973.019 640.713,979.685C645.913,986.026 654.151,986.133 660.246,980.948C667.969,974.376 667.474,963.403 659.208,957.595C656.274,955.534 652.384,953.65 648.723,953.823C646.215,953.941 642.603,954.545 640.241,956.316ZM646.604,964.78C649.235,962.046 653.041,966.428 653.721,968.901C654.532,971.855 654.839,976.427 651.037,977.19C643.648,978.673 640.985,968.386 646.604,964.78ZM648.153,966.084C648.082,966.195 647.991,966.284 647.878,966.338C645.632,967.42 643.987,970.25 645.432,972.637C646.399,974.238 648.381,975.169 650.224,975.064C653.373,974.884 653.068,970.978 652.167,968.808C651.651,967.567 650.679,966.528 649.35,966.157C648.941,966.043 648.546,966.047 648.153,966.084ZM433.037,861.974C444.86,863.864 458.999,867.875 467.305,876.598C475.282,884.975 482.549,894.88 483.766,906.685C486.049,928.802 470.666,949.327 450.093,955.911C429.4,962.534 404.149,963.092 388.245,945.919C381.444,938.576 376.404,927.089 375.256,917.146C374.616,911.607 375.525,905.65 376.3,900.163C376.965,895.454 377.971,890.729 379.952,886.381C383.907,877.702 391.477,872.507 400.058,868.939C410.043,864.787 421.977,859.915 432.928,861.937C432.967,861.944 433.003,861.956 433.037,861.974ZM432.498,863.745C421.622,862.501 410.367,866.623 400.439,870.782C389.453,875.381 381.579,882.594 378.848,894.521C376.461,904.944 375.813,915.664 379.38,925.819C382.723,935.338 387.517,943.884 396.14,949.519C413.624,960.944 435.83,958.391 454.463,951.357C474.325,943.859 488.101,918.574 480.256,898.191C478.342,893.218 475.135,888.967 471.767,884.897C468.669,881.151 465.604,877.156 461.63,874.297C453.214,868.245 442.331,866.501 432.498,863.745ZM400.713,878.965C403.952,876.367 408.927,875.412 412.791,874.461C418.006,873.177 423.245,872.64 428.61,873.052C437.905,873.765 448.394,875.745 456.256,880.969C468.732,889.259 474.495,904.718 470.97,919.199C469.064,927.032 464.541,935.362 457.325,939.452C452.613,942.122 446.943,943.415 441.762,944.843C437.378,946.052 432.99,947.134 428.403,947.014C423.435,946.884 418.619,945.484 413.877,944.118C409.62,942.891 404.469,942.066 400.653,939.74C394.78,936.161 389.28,927.344 387.878,920.723C386.886,916.04 387.441,911.061 387.741,906.333C388.056,901.368 388.333,896.341 388.948,891.403C389.855,884.133 394.383,881.099 400.713,878.965ZM399.791,881.482C397.046,882.526 394.264,883.87 392.543,886.146C389.531,890.13 389.913,896.843 389.537,901.684C389.15,906.691 388.388,911.865 388.851,916.877C389.319,921.935 391.809,926.195 394.803,930.193C397.419,933.688 399.938,937.142 404.185,938.685C407.433,939.864 410.969,940.479 414.301,941.395C422.987,943.785 430.625,944.964 439.528,942.945C447.946,941.036 457.195,938.318 462.853,931.447C467.955,925.249 470.722,917.386 470.48,909.339C470.037,894.623 459.323,882.244 445.545,878.007C438.238,875.761 430.048,874.205 422.387,874.76C418.101,875.071 413.978,876.205 409.884,877.448C407.668,878.119 405.157,878.612 403.005,879.66C402.983,880.041 402.828,880.394 402.521,880.502C401.948,880.703 401.355,880.909 400.754,881.126C400.632,881.234 400.512,881.346 400.395,881.462C400.156,881.699 399.946,881.66 399.791,881.482ZM417.42,883.263C417.513,883.024 417.685,882.858 417.935,882.872C426.696,883.347 435.308,884.946 443.583,887.9C450.947,890.529 454.825,893.283 458.365,900.236C463.708,910.732 461.792,923.742 451.676,930.669C446.026,934.539 440.017,934.795 433.39,934.408C426.687,934.016 420.596,934.305 414.628,930.743C409.699,927.8 403.861,923.425 401.069,918.273C398.376,913.302 397.735,906.346 398.388,900.817C399.54,891.071 407.909,883.699 417.42,883.263ZM420.927,884.97C420.876,884.989 420.819,884.998 420.755,884.993C414.286,884.466 407.996,886.926 403.806,891.948C398.801,897.944 398.604,907.333 401.181,914.492C403.501,920.937 411.297,926.543 417.278,929.609C423.05,932.568 430.624,932.057 436.991,932.193C454.269,932.561 464.64,916.079 456.855,900.549C453.146,893.149 446.535,890.781 439.01,888.46C433.113,886.641 427.058,885.524 420.927,884.97ZM434.482,896.447C442.22,898.084 451.005,905.219 449.787,913.367C448.134,924.436 433.201,926.195 424.808,923.402C416.157,920.524 406.618,912.759 409.277,902.542C411.925,892.363 426.681,892.598 434.482,896.447ZM430.334,896.647C423.204,895.234 413.506,895.167 410.909,902.122C407.524,911.19 417.007,918.103 424.319,920.742C431.533,923.346 441.887,923.092 446.608,915.966C452.669,906.818 438.777,897.008 430.797,897.475C430.447,897.495 430.286,897.039 430.334,896.647ZM433.692,906.288C435.456,908.52 436.909,911.107 434.658,913.762C433.2,915.481 430.984,915.416 428.949,915.089C427.06,914.786 424.585,914.663 423.009,913.494C420.183,911.395 420.862,906.994 423.356,904.943C425.255,903.381 427.08,904.597 429.271,904.664C431.122,904.72 432.757,904.35 433.672,906.218C433.682,906.237 433.688,906.261 433.692,906.288ZM432.177,906.268C430.678,906.043 429.264,906.167 427.664,906.016C425.834,905.843 423.572,905.256 422.799,907.65C423.21,909.155 423.621,910.659 424.032,912.163C424.714,912.443 425.424,912.62 426.161,912.699C427.907,913.009 430.033,913.539 431.806,913.25C433.961,912.9 435.232,911.202 434.084,908.82C433.689,907.999 432.846,907.212 432.286,906.494C432.236,906.43 432.2,906.353 432.177,906.268ZM165.06,755.943C194.975,757.534 221.575,777.826 227.433,807.96C232.26,832.795 220.334,858.905 197.536,870.369C183.513,877.421 168.495,880.775 152.867,880.342C139.569,879.973 127.778,877.937 117.365,869.08C96.234,851.103 93.144,819.969 99.433,794.443C102.39,782.44 110.267,773.482 120.979,767.554C128.031,763.652 135.792,761.253 143.555,759.22C150.461,757.413 157.62,755.126 164.821,755.857C164.91,755.867 164.99,755.897 165.06,755.943ZM163.117,757.565C155.502,757.395 147.656,760.051 140.435,762.113C133.632,764.054 126.876,766.406 120.724,769.952C114.687,773.43 109.109,778.119 105.365,784.059C101.183,790.696 99.841,798.588 99.002,806.266C96.288,831.108 102.764,859.994 126.988,872.157C138.166,877.768 152.482,877.733 164.724,876.884C177.229,876.018 190.927,871.605 201.602,864.967C223.905,851.1 232.071,822.218 222.743,798.162C213.321,773.862 189.114,758.836 163.54,757.79C163.364,757.783 163.223,757.697 163.117,757.565ZM788.769,738.948C804.68,737.778 817.253,746.213 830.72,754.071C842.565,760.984 850.204,773.693 853.64,786.72C857.339,800.744 854.357,814.952 849.212,828.209C846.791,834.447 844.337,841.064 840.518,846.608C837.007,851.707 832.122,855.396 826.914,858.626C820.58,862.554 813.903,866.485 806.624,868.339C799.491,870.155 792.163,869.756 784.965,868.526C771.54,866.232 757.044,862.553 746.541,853.406C737.281,845.343 728.493,833.491 726.573,821.109C725.558,814.56 726.28,807.693 726.709,801.119C727.155,794.277 727.976,787.448 730.054,780.891C738.101,755.477 762.004,738.348 788.621,738.922C788.674,738.923 788.723,738.932 788.769,738.948ZM785.278,740.822C758.09,743.008 734.676,762.655 729.815,790.042C727.587,802.602 725.84,818.24 731.527,830.054C737.016,841.452 746.76,852.349 758.396,857.575C769.608,862.61 783.914,866.171 796.178,866.112C808.957,866.051 821.927,859.121 831.876,851.428C842.021,843.583 846.645,829.906 850.452,818.071C854.985,803.978 854.419,789.986 847.888,776.593C845.081,770.837 841.34,765.487 836.561,761.196C831.673,756.808 825.707,754.435 820.18,751.043C815.154,747.96 810.571,744.775 804.882,742.998C798.716,741.074 792.381,740.693 786.008,741.519C785.618,741.569 785.371,741.242 785.278,740.822ZM157.414,769.768C164.098,768.481 171.077,768.983 177.807,769.728C183.468,770.355 188.903,771.758 193.708,774.915C202.478,780.677 210.853,789.65 212.313,800.296C213.733,810.647 214.857,821.75 212.035,831.964C210.583,837.214 207.941,841.692 204.707,846.034C201.894,849.81 199.01,853.954 195.104,856.679C186.486,862.69 173.62,864.957 163.325,865.521C152.789,866.098 140.428,864.661 131.542,858.472C127.309,855.524 124.676,851.397 122.068,847.042C119.5,842.752 116.677,838.496 114.611,833.931C110.06,823.874 111.927,812.776 113.885,802.323C115.551,793.432 117.964,784.99 126.367,780.34C132.091,777.173 138.58,774.757 144.668,772.384C148.916,770.727 153.001,769.559 157.414,769.768ZM155.971,771.104C151.306,771.392 146.911,773.089 142.541,775.016C137.538,777.223 132.366,779.297 127.519,781.831C116.835,787.418 115.23,799.992 113.659,810.865C112.716,817.389 112.486,824.262 114.805,830.542C116.39,834.839 119.067,838.713 121.417,842.618C123.877,846.706 126.156,851.194 129.732,854.445C133.089,857.496 137.36,859.377 141.657,860.684C151.194,863.588 161.428,863.824 171.224,862.223C180.255,860.747 191.734,858.076 198.267,851.201C206.191,842.863 211.562,832.981 212.082,821.358C212.288,816.736 211.95,812.103 211.517,807.504C210.974,801.723 210.691,795.871 207.34,790.914C202.402,783.612 194.407,776.128 185.916,773.449C177.088,770.664 165.685,769.978 156.644,771.966C156.23,772.057 155.994,771.606 155.971,771.104ZM132.767,791.828C132.71,791.455 132.759,791.048 132.958,790.829C139.536,783.599 150.306,782.504 159.329,780.388C169.051,778.108 177.264,777.382 185.997,783.013C192.342,787.105 199.878,793.711 202.231,801.164C204.312,807.757 203.304,816.663 201.459,823.188C199.366,830.588 194.163,839.082 188.558,844.341C182.54,849.99 174.451,851.554 166.585,852.849C158.498,854.179 150.197,854.35 143.271,849.367C136.986,844.845 131.976,837.292 128.549,830.451C125.289,823.944 125.752,816.155 126.474,809.094C127.12,802.777 128.773,796.722 132.767,791.828ZM765.423,761.427C772.865,753.137 784.377,751.521 795.001,751.863C808.108,752.284 818.308,757.279 827.846,766.093C834.874,772.587 841.685,780.519 842.931,790.356C844.397,801.931 838.579,813.395 834.556,823.891C832.744,828.618 831.013,833.156 827.714,837.077C824.304,841.131 819.857,844.999 815.484,847.993C810.845,851.167 805.715,852.201 800.178,852.441C794.237,852.7 788.056,852.902 782.166,851.969C772.013,850.362 764.529,844.496 757.933,836.922C751.104,829.078 744.299,821.087 743.24,810.376C742.244,800.302 742.383,789.167 746.842,779.877C750.757,771.72 757.315,765.293 765.423,761.427ZM134.908,791.231C134.888,791.409 134.831,791.571 134.731,791.677C128.046,798.842 127.408,809.079 127.538,818.41C127.669,827.902 133.545,837.143 140.087,843.895C147.403,851.447 156.651,852.088 166.526,850.441C175.721,848.907 184.812,846.096 190.703,838.409C196.594,830.72 200.294,822.458 201.264,812.825C201.905,806.456 201.226,800.876 197.059,795.755C194.079,792.094 190.469,788.671 186.614,785.942C177.184,779.269 168.636,780.365 157.903,782.872C150.138,784.686 141.083,785.782 134.908,791.231ZM765.349,763.359C756.762,767.96 750.008,775.463 746.767,784.749C743.051,795.395 742.676,811.726 748.478,821.616C752.937,829.215 759.671,837.113 766.53,842.63C774.487,849.032 784.177,850.493 794.136,850.142C799.283,849.96 804.908,849.8 809.782,848.007C814.184,846.387 817.759,843.108 821.223,840.036C825.617,836.14 829.035,832.032 831.319,826.566C833.122,822.249 834.74,817.845 836.428,813.482C840.785,802.215 844.024,790.977 837.309,779.871C832.768,772.362 825.565,765.764 818.281,760.935C804.775,751.981 780.361,750.099 767.577,761.875C767.529,762.116 767.414,762.323 767.225,762.413L766.811,762.611C766.559,762.864 766.311,763.124 766.068,763.39C765.783,763.701 765.528,763.619 765.349,763.359ZM139.968,804.571C139.785,804.266 139.69,803.84 139.808,803.492C141.48,798.574 144.072,793.146 149.087,790.904C152.113,789.552 155.64,789.789 158.883,789.647C163.222,789.454 167.598,789.154 171.939,789.483C182.509,790.284 192.944,796.026 193.405,807.676C193.807,817.884 190.002,830.479 180.46,835.573C170.083,841.113 154.678,843.095 145.974,833.728C138.649,825.843 137.866,814.683 139.968,804.571ZM810.995,767.612C818.23,771.818 825.188,776.787 829.027,784.461C832.528,791.461 833.326,799.743 831.402,807.317C829.468,814.923 824.647,820.667 819.038,825.94C812.23,832.341 806.174,836.774 796.681,837.886C788.545,838.838 779.859,838.314 772.958,833.46C766.594,828.982 761.655,821.985 758.742,814.84C753.26,801.389 754.601,785.812 764.368,774.684C774.836,762.757 794.018,760.496 808.454,766.37C808.561,766.305 808.691,766.3 808.842,766.385C809.224,766.599 809.606,766.815 809.989,767.033C810.248,767.152 810.504,767.273 810.759,767.397C810.854,767.443 810.932,767.518 810.995,767.612ZM141.254,803.645C139.252,816.784 140.67,833.885 156.233,837.391C162.982,838.91 170.444,837.031 176.761,834.652C183.03,832.29 187.049,827.736 189.406,821.536C191.868,815.06 193.524,805.764 189.172,799.807C185.214,794.391 178.377,792.315 171.995,791.766C166.095,791.259 159.781,791.482 153.879,792.007C146.897,792.628 143.466,797.595 141.254,803.645ZM808.93,768.491C792.398,762.026 770.953,765.798 761.526,781.71C751.698,798.296 758.607,822.158 775.075,832.012C783.047,836.783 794.55,836.58 803.264,833.924C811.742,831.341 820.555,822.517 825.555,815.346C830.896,807.687 832.134,797.821 829.16,788.99C825.841,779.134 817.602,773.357 808.93,768.491ZM165.695,799.431C165.817,799.202 166.02,799.058 166.3,799.124C171.814,800.413 178.797,798.152 183.158,802.717C185.978,805.671 186.559,809.949 185.656,813.807C183.484,823.082 173.85,829.89 164.412,829.044C155.6,828.254 148.24,820.671 147.625,811.838C147.371,808.182 148.289,803.787 151.254,801.349C154.584,798.613 160.937,798.839 165.695,799.431ZM165.738,800.66C162.49,800.7 159.067,800.402 156.015,801.135C149.771,802.635 147.756,808.277 149.195,814.166C151.022,821.643 158.123,826.974 165.748,826.751C173.121,826.534 180.612,821.949 183.442,815.001C186.402,807.73 181.943,802.192 174.659,801.676C171.71,801.467 168.918,801.575 166.028,800.863C165.908,800.834 165.812,800.761 165.738,800.66ZM783.509,776.702C784.336,776.113 785.227,775.595 786.291,775.265C789.616,774.233 793.384,773.959 796.843,774.053C803.793,774.241 810.649,776.768 815.738,781.576C824.357,789.72 823.974,800.806 819.011,810.971C816.771,815.558 813.02,819.604 808.446,821.921C805.326,823.502 801.797,824.147 798.421,824.96C795.478,825.67 792.231,826.807 789.206,826.372C784.408,825.685 778.215,821.012 774.804,817.766C771.315,814.446 768.207,809.515 767.529,804.671C766.814,799.57 769.096,793.579 771.271,789.065C773.85,783.715 778.084,780.035 782.834,776.627C783.12,776.422 783.352,776.498 783.509,776.702ZM781.032,780.25C776.88,783.928 773.503,787.725 771.4,793.231C770.262,796.208 768.903,799.759 768.992,802.961C769.097,806.714 771.855,812.263 774.455,814.816C778.364,818.657 786.297,823.528 791.87,823.311C797.048,823.107 804.679,821.161 809.151,818.488C815.204,814.872 818.556,808.478 820.353,801.873C822.585,793.672 819.463,786.506 812.766,781.47C807.236,777.312 800.156,775.606 793.309,775.974C790.135,776.144 786.614,776.554 783.841,778.179C782.785,778.797 781.94,779.562 781.032,780.25ZM167.741,807.754C171.584,808.638 175.388,811.405 173.637,815.719C171.673,820.554 165.844,820.978 161.54,819.404C158.236,818.198 156.081,814.14 158.172,810.779C159.773,808.207 164.746,806.332 167.741,807.754ZM167.741,809.094C165.679,808.488 163.901,808.838 161.805,809.949C159.994,810.908 158.9,811.742 158.714,813.912C158.476,816.706 160.992,817.471 162.867,817.964C165.74,818.719 169.023,818.614 171.272,816.456C175.144,812.74 170.622,810.41 167.741,809.094ZM790.885,787.815C797.462,784.757 807.538,785.411 810.824,792.284C814.547,800.071 807.342,807.555 800.641,810.354C794.357,812.979 782.953,813.96 780.271,805.817C777.821,798.375 783.68,790.048 790.576,787.777C790.701,787.736 790.804,787.756 790.885,787.815ZM787.886,790.638C786.296,791.709 784.875,793.011 783.779,794.624C781.224,798.381 779.951,803.928 783.46,807.647C786.98,811.38 795.433,809.983 799.498,808.432C806.81,805.642 815.287,794.644 804.822,789.663C799.233,787.003 793.581,788.431 788.181,790.681C788.057,790.733 787.959,790.708 787.886,790.638ZM793.64,794.707C793.663,794.393 793.807,794.113 794.083,794.136C796.36,794.323 800.839,796.731 799.63,799.664C799.31,800.44 798.713,801.055 798.385,801.853C798.106,802.534 797.927,803.127 797.389,803.652C796.436,804.583 795.012,804.892 793.729,804.622C791.259,804.103 787.132,801.497 788.575,798.52C789.388,796.842 791.516,795.196 793.64,794.707ZM794.774,795.766C793.405,796.065 792.147,796.342 790.892,797.429C789.656,798.498 789.099,799.833 790.376,801.145C791.057,801.844 792.384,802.405 793.331,802.653C795.903,803.328 797.248,801.644 797.977,799.389C798.24,798.574 798.495,799.484 798.058,798.223C797.838,797.588 797.523,797.274 797.014,796.892C796.317,796.369 795.568,796.037 794.774,795.766ZM365.504,614.633C381.832,615.582 399.051,618.77 413.09,627.379C425.562,635.028 434.648,647.116 438.9,661.088C442.687,673.537 442.348,686.953 437.621,699.098C434.785,706.384 430.589,713.048 425.922,719.29C421.361,725.388 416.484,731.665 410.632,736.58C398.532,746.743 382.113,749.74 366.718,748.789C350.648,747.796 332.536,744.242 318.393,736.283C293.115,722.058 288.077,689.377 297.372,663.851C307.769,635.297 334.531,615.424 364.942,614.106C365.234,614.093 365.423,614.33 365.504,614.633ZM363.727,615.944C331.214,618.32 303.487,641.155 296.452,673.335C293.444,687.094 294.246,701.998 300.724,714.696C307.43,727.842 319.745,735.151 333.481,739.364C361.776,748.044 395.308,751.585 416.738,727.12C426.333,716.167 435.748,703.449 438.965,688.966C441.86,675.939 439.175,662.032 432.767,650.439C426.551,639.192 417.08,630.394 405.367,625.094C392.176,619.124 377.919,617.711 363.727,615.944ZM328.041,638.298C331.2,634.085 335.552,630.905 340.672,629.381C347.234,627.43 354.148,628.705 360.854,628.01C368.323,627.237 375.311,626.481 382.774,627.819C389.634,629.047 396.253,631.516 402.313,634.947C420.96,645.504 438.461,667.897 430.722,690.301C426.744,701.818 420.691,712.248 410.53,719.163C399.894,726.402 387.345,732.75 374.466,734.473C361.192,736.251 349.071,732.519 337.311,726.601C331.765,723.81 325.984,721.345 322.293,716.141C320.739,713.952 319.52,711.551 317.936,709.377C315.919,706.607 313.542,704.108 311.936,701.052C306.63,690.956 309.738,677.907 312.366,667.49C315.083,656.724 319.267,646.186 327.502,638.442C327.704,638.253 327.887,638.224 328.041,638.298ZM326.924,641.643C318.5,650.643 314.949,662.305 312.627,674.257C311.417,680.481 310.083,687.147 311.243,693.474C312.558,700.642 318.054,705.609 321.794,711.555C327.799,721.102 340.557,726.123 350.999,729.564C362.166,733.245 373.661,732.513 384.828,729.216C395.303,726.124 405.683,720.275 414.169,713.445C418.67,709.822 421.579,705.222 424.18,700.136C427.015,694.593 430.029,688.806 430.826,682.546C433.806,659.147 410.481,638.734 390.305,632.103C384.848,630.31 379.13,629.3 373.381,629.251C367.896,629.203 362.519,630.416 357.046,630.504C351.067,630.6 345.417,629.368 339.646,631.599C334.624,633.542 330.705,637.112 327.829,641.605C327.504,642.113 327.157,641.994 326.924,641.643ZM356.177,638.317C374,631.627 393.809,640.164 405.806,654.86C411.241,661.516 417.145,670.495 418.437,679.168C419.747,687.962 414.868,696.113 408.591,701.831C394.604,714.572 372.848,724.527 353.99,718.034C337.536,712.368 326.068,696.506 326.22,679.082C326.291,671.053 328.569,662.995 332.994,656.272C338.552,647.825 346.975,642.81 355.692,638.14C355.912,638.022 356.077,638.123 356.177,638.317ZM351.703,642.139C344.488,646.58 337.645,651.547 333.332,659.09C328.622,667.329 326.82,677.27 328.714,686.597C331.965,702.611 346.614,714.902 362.67,716.684C379.296,718.53 397.803,709.01 409.242,697.374C413.431,693.114 416.902,687.434 416.658,681.246C416.481,676.744 414.201,672.333 412.155,668.397C408.262,660.906 403.083,653.979 396.65,648.481C384.487,638.086 366.074,634.337 351.703,642.139ZM0,620.02C4.464,620.173 9.002,621.164 13.275,622.341C23.959,625.283 34.138,630.603 41.539,638.999C53.283,652.324 55.527,671.389 46.162,686.718C36.306,702.853 17.8,708.283 0,705.955L0,703.424C2.759,703.773 5.524,703.929 8.207,703.944C24.691,704.037 41.115,694.999 47.512,679.329C54.531,662.134 47.173,644 32.444,633.651C24.404,628.001 11.524,622.117 0,622.069L0,620.02ZM1000,705.955C998.753,705.793 997.511,705.592 996.275,705.354C986.352,703.443 978.548,698.908 972.09,691.157C969.223,687.716 965.623,683.673 964.186,679.363C962.78,675.152 963.641,669.947 963.725,665.594C963.825,660.386 963.777,655.091 965.224,650.04C966.538,645.449 968.897,641.045 971.305,636.944C975.024,630.607 980.138,624.708 987.149,622.739C991.133,620.555 995.53,619.868 1000,620.02L1000,622.069C997.255,622.057 994.588,622.376 992.081,623.108C992.011,623.251 991.899,623.357 991.746,623.38C991.376,623.437 991.012,623.502 990.652,623.576C988.902,624.217 987.242,625.077 985.704,626.188C985.216,626.54 984.834,626.244 984.646,625.772C977.948,629.426 973.575,636.337 970.099,643.359C967.275,649.065 965.784,654.527 965.51,660.926C965.316,665.464 964.463,670.958 965.163,675.448C965.982,680.705 969.589,684.525 972.879,688.462C975.506,691.607 978.325,694.644 981.703,696.999C986.997,700.691 993.482,702.598 1000,703.424L1000,705.955ZM352.763,652.058C356.705,649.111 361.605,648.304 366.699,647.689C374.687,646.723 382.528,649.658 389.279,653.601C394.318,656.544 399.034,660.449 400.899,666.186C402.655,671.591 401.411,677.905 399.513,683.101C394.956,695.578 383.475,706.538 369.396,705.121C363.508,704.529 356.535,701.784 351.663,698.462C348.884,696.568 347.138,693.459 345.383,690.678C343.785,688.147 341.909,685.505 340.935,682.643C339.083,677.2 341.384,670.721 342.791,665.42C343.565,662.504 344.327,659.408 346.403,657.112C348.138,655.195 350.53,654.1 352.213,652.099C352.421,651.851 352.614,651.886 352.763,652.058ZM349.845,656.571C349.308,656.989 348.76,657.415 348.217,657.905C344.985,660.822 344.254,665.576 343.324,669.623C342.233,674.372 340.905,679.141 343.322,683.703C344.954,686.781 347.077,689.87 349.151,692.66C352.832,697.607 360.245,700.694 366.164,702.298C374.029,704.431 382.176,701.184 388.115,696.007C393.772,691.077 397.924,684.213 399.396,676.835C401.171,667.929 397.425,661.471 390.078,656.62C383.735,652.433 377.395,649.905 369.712,649.735C366.659,649.666 363.732,650.557 360.716,650.912C356.867,651.365 352.942,653.185 350.565,656.425C350.309,656.774 350.045,656.759 349.845,656.571ZM0,633.37C1.854,633.539 3.723,633.889 5.684,634.174C9.776,634.768 14.112,634.969 18.06,636.263C28.492,639.682 39.576,651.92 40.268,663.148C40.699,670.134 39.983,676.886 35.674,682.616C31.502,688.162 25.675,691.423 18.974,692.93C12.834,694.31 6.272,694.995 0,694.335L0,691.965C11.702,693.565 25.192,690.886 32.795,683.012C38.957,676.631 41.157,665.024 37.232,656.982C33.963,650.281 28.958,643.85 22.368,640.172C15.805,636.509 7.42,635.398 0.003,634.896L0,634.895L0,633.37ZM1000,694.335C992.015,693.495 984.501,690.475 978.929,683.94C975.212,679.58 971.669,674.151 972.103,668.252C972.656,660.74 973.973,652.961 976.338,645.728C976.336,645.648 976.341,645.566 976.355,645.482C977.608,638.108 987.034,636.072 993.109,634.026C995.478,633.229 997.728,633.162 1000,633.37L1000,634.895C995.814,634.614 992.227,636.2 988.427,637.777C984.336,639.474 978.64,641.002 977.63,645.981C977.592,646.169 977.534,646.315 977.463,646.422C975.402,654.029 972.797,662.591 973.359,670.256C973.64,674.078 977.239,678.411 979.581,681.44C982.066,684.654 985.059,687.047 988.755,688.78C992.072,690.334 995.927,691.408 1000,691.965L1000,694.335ZM374.247,657.907C374.344,657.789 374.478,657.724 374.649,657.748C384.22,659.07 392.449,667.15 389.618,677.413C387.001,686.901 376.749,693.477 367.185,691.106C359.198,689.126 348.26,681.099 351.54,671.672C354.327,663.663 365.595,656.338 374.247,657.907ZM376.362,660.022C376.268,660.074 376.155,660.088 376.022,660.049C368.471,657.807 360.662,662.215 355.69,667.773C347.744,676.653 357.274,686.004 365.976,688.599C374.144,691.034 381.209,687.291 385.945,680.664C392.344,671.706 385.365,662.424 376.362,660.022ZM0,642.381C6.822,642.078 14.45,643.25 20.525,646.3C31.012,651.566 33.541,664.652 28.097,674.537C24.386,681.273 20.181,681.65 13.103,682.62C8.426,683.261 4.188,683.62 0,682.896L0,680.885C4.648,682.025 9.176,681.869 13.939,680.846C19.78,679.591 23.911,678.571 27.02,672.981C30.417,666.871 30.695,659.247 26.555,653.391C23.28,648.758 17.664,646.547 12.38,645.102C8.331,643.993 4.168,643.541 0,643.771L0,642.381ZM1000,642.381L1000,643.771C999.083,643.821 998.165,643.905 997.248,644.022C994.628,644.356 991.188,644.619 988.957,646.134C986.895,647.535 985.719,650.772 984.588,652.902C984.473,653.118 984.343,653.211 984.213,653.217C982.951,659.1 984.012,665.798 986.192,671.296C988.19,676.337 993.157,678.75 998.029,680.325C998.689,680.538 999.346,680.724 1000,680.885L1000,682.896C997.403,682.447 994.825,681.582 992.174,680.111C986.757,677.103 984.935,672.913 983.754,667.044C982.749,662.049 981.998,656.942 983.523,652.122C983.512,651.911 983.548,651.705 983.648,651.544C983.708,651.447 983.767,651.349 983.826,651.251C984.013,650.755 984.226,650.263 984.467,649.775C984.551,649.604 984.649,649.568 984.74,649.609C985.856,647.536 986.987,645.433 989.117,644.392C991.941,643.012 995.841,642.653 998.91,642.443C999.271,642.418 999.634,642.397 1000,642.381ZM374.054,668.625C377.752,671.083 380.058,675.311 377.346,679.579C374.445,684.144 368.873,683.133 364.959,680.633C363.016,679.392 361.421,677.945 361.492,675.489C361.548,673.528 362.455,671.598 363.738,670.144C365.653,667.973 372.378,664.779 374.054,668.625ZM372.67,669.378C370.72,668.787 368.712,668.977 366.812,670.002C362.833,672.149 361.663,676.941 366.231,679.333C368.742,680.647 371.753,681.143 374.297,679.621C377.053,677.972 377.833,674.657 375.602,672.152C374.88,671.343 373.878,670.716 373.005,670.087C372.803,669.942 372.696,669.67 372.67,669.378ZM0,651.633C4.488,651.251 9.459,652.014 12.474,652.503C12.495,652.506 12.515,652.511 12.535,652.517C16.557,652.441 17.815,654.14 20.422,657.624C22.437,660.315 23.452,662.515 22.584,665.906C20.619,673.584 11.224,679.269 3.548,677.27C2.319,676.95 1.13,676.495 0,675.924L0,673.475C0.2,673.589 0.399,673.7 0.594,673.807C6.289,676.933 12.805,675.615 17.476,671.207C21.203,667.69 22.378,663.816 19.518,659.078C17.759,656.168 15.786,654.361 12.697,654.121C12.643,654.142 12.582,654.15 12.514,654.143L12.036,654.094C11.773,654.092 11.502,654.101 11.224,654.121C11.084,654.131 10.971,654.073 10.886,653.974C7.355,653.605 3.572,653.237 0,653.722L0,651.633ZM1000,651.633L1000,653.722C998.163,653.972 996.382,654.447 994.72,655.264C990.116,657.525 991.267,665.1 993.922,668.639C995.396,670.604 997.821,672.236 1000,673.475L1000,675.924C993.682,672.73 989.23,665.896 990.222,658.636C990.883,653.787 995.161,652.045 1000,651.633ZM7.829,658.932C7.967,658.765 8.164,658.68 8.417,658.745C11.319,659.497 14.31,662.944 14.103,666.086C13.914,668.963 9.136,671.336 6.581,670.795C2.65,669.961 0.331,667.756 1.024,663.646C1.661,659.857 4.475,658.401 7.829,658.932ZM8.941,660.825C8.861,660.852 8.771,660.858 8.67,660.837C5.528,660.168 1.794,660.976 1.978,665.003C2.113,667.965 5.56,669.258 8.136,668.75C10.05,668.372 13.083,666.93 13.04,664.814C12.994,662.479 11.004,661.179 8.941,660.825ZM633.749,539.915C643.369,533.833 654.746,530.949 666.181,529.284C674.975,528.005 683.856,527.375 692.379,530.354C699.886,532.979 706.74,537.595 712.985,542.437C724.038,551.008 731.302,561.804 734.09,575.585C735.467,582.391 735.895,589.356 736.143,596.281C736.4,603.47 736.997,611.023 735.232,618.074C728.139,646.393 690.38,651.65 666.159,653.033C651.538,653.868 637.995,650.913 626.638,641.311C615.953,632.277 605.626,621.059 601.479,607.403C593.17,580.042 609.027,552.734 632.975,539.745C633.303,539.567 633.566,539.669 633.749,539.915ZM623.982,548.812C615.203,555.87 608.049,564.963 604.24,575.645C598.542,591.627 601.435,608.479 611.406,622.041C618.915,632.253 629.559,643.558 641.646,648.127C653.664,652.671 667.219,651.458 679.649,649.587C693.464,647.508 708.293,645.05 719.844,636.609C724.509,633.201 728.621,628.906 731.344,623.778C734.947,616.992 735.016,609.526 734.846,602.043C734.551,589.102 734.122,575.503 728.428,563.609C722.63,551.502 710.688,542.299 699.013,536.177C686.474,529.602 673.374,530.709 659.916,533.364C647.186,535.876 634.473,540.372 624.712,549.207C624.346,549.538 624.08,549.234 623.982,548.812ZM663.658,542.88C683.757,537.432 705.618,545.358 717.675,563.403C729.249,580.727 729.954,607.056 716.602,623.764C712.871,628.434 708.127,631.005 702.621,633.133C696.814,635.377 690.89,638.17 684.807,639.583C681.391,640.377 677.943,640.179 674.488,640.602C671.082,641.019 667.825,642.341 664.349,642.213C658.431,641.997 652.767,638.941 647.523,636.484C628.624,627.627 610.782,607.066 613.548,584.829C614.711,575.474 619.282,566.569 626.579,560.533C631.592,556.387 637.704,553.89 643.569,551.223C650.057,548.273 656.511,545.173 663.161,542.604C663.408,542.508 663.576,542.654 663.658,542.88ZM652.125,549.048C643.603,552.678 634.856,556.277 627.911,561.946C619.282,568.99 614.307,580.505 615.034,591.61C615.762,602.708 622.735,613.574 630.128,621.568C637.382,629.412 647.613,634.537 657.602,638.058C663.974,640.304 668.987,638.531 675.35,637.781C681.472,637.059 686.694,636.244 692.509,634.06C702.921,630.148 712.779,627.306 718.545,616.967C729.503,597.319 725.388,571.602 708.983,556.326C693.792,542.178 670.954,539.266 652.798,549.364C652.49,549.535 652.256,549.356 652.125,549.048ZM631.172,605.033C631.011,605.158 630.817,605.131 630.629,604.818C626.171,597.425 624.108,589.879 627.23,581.515C630.332,573.204 637.201,567.016 644.968,563.082C653.143,558.942 662.536,556.03 671.518,554.281C680.615,552.509 688.978,553.799 696.158,559.874C702.293,565.065 708.645,572.359 711.39,579.981C714.421,588.398 712.359,597.671 710.316,606.064C708.362,614.096 704.053,618.173 696.779,621.79C688.217,626.049 678.842,630.088 669.074,629.697C653.171,629.063 639.933,617.618 631.172,605.033ZM630.296,601.419C630.389,601.45 630.486,601.532 630.582,601.677C639.281,614.842 652.34,627.182 669.026,627.743C677.164,628.016 684.956,625.221 692.244,621.858C695.846,620.195 699.755,618.538 702.897,616.072C706.552,613.203 708.166,609.203 709.201,604.794C711.397,595.431 713.121,585.57 708.036,576.793C704.526,570.734 699.282,564.584 693.585,560.481C680.61,551.135 662.382,558.12 649.199,563.917C642.052,567.059 635.218,571.399 630.936,578.091C625.975,585.843 626.452,593.703 630.296,601.419ZM639.663,589.291C637.721,584.012 643.708,579.584 647.454,576.822C653.505,572.362 660.369,569.245 667.72,567.663C679.406,565.147 692.8,567.471 697.357,579.952C701.378,590.972 696.571,604.073 689.508,612.809C680.686,623.724 666.848,620.875 656.46,613.885C651.497,610.546 645.104,606.709 641.984,601.418C639.894,597.875 639.516,593.484 639.663,589.291ZM641.568,585.321C641.569,585.354 641.568,585.388 641.566,585.422C641.161,593.651 641.05,600.965 648.166,606.508C653.07,610.328 658.421,613.985 664.194,616.349C670.214,618.816 677.478,619.621 683.338,616.236C689.439,612.712 693.459,605.059 695.699,598.629C698.26,591.276 698.672,582.538 693.699,576.039C689.387,570.406 682.271,568.866 675.53,569.27C669.215,569.648 663.032,571.398 657.294,574.012C652.92,576.005 644.471,579.985 641.568,585.321ZM650.256,588.532C650.694,585.319 655.785,583.968 658.255,582.727C664.152,579.764 670.771,575.766 677.672,576.936C689.651,578.966 688.641,592.278 684.59,600.913C682.566,605.227 679.181,610.588 674.037,611.314C670.729,611.781 667.336,610.161 664.406,608.921C661.189,607.56 657.761,606.353 654.679,604.692C648.415,601.315 646.722,593.725 650.256,588.532ZM655.488,586.361C655.414,586.588 655.289,586.776 655.109,586.875C647.972,590.803 648.487,599.721 655.552,603.328C658.231,604.696 661.09,605.781 663.852,606.969C668.45,608.949 673.64,611.378 678.167,607.81C681.333,605.315 683.613,600.731 684.844,597.008C686.665,591.5 687.627,583.473 681.475,580.36C677.933,578.567 673.876,578.834 670.183,579.978C666.828,581.018 663.674,582.703 660.518,584.218C659.145,584.878 657.263,585.537 655.488,586.361ZM661.6,593.17C662.075,589.055 668.591,587.51 671.989,587.976C676.13,588.544 678.301,592.754 676.617,596.541C674.441,601.431 667.982,600.925 664.108,598.695C662.722,597.896 660.744,596.877 660.896,594.989C660.942,594.399 661.209,593.774 661.6,593.17ZM665.301,591.675C664.937,592.336 664.974,592.227 664.448,592.857C664.032,593.351 662.77,594.035 662.551,594.601C661.68,596.865 664.786,598.243 666.343,598.813C669.513,599.973 673.616,599.486 675.468,596.307C677.02,593.649 675.521,590.618 672.672,590.066C671.132,589.768 669.406,590.111 667.917,590.531C666.881,590.823 666.054,591.213 665.301,591.675ZM136.993,408.727C148.628,409.789 159.82,413.6 169.569,420.139C180.165,427.248 185.597,436.654 190.183,448.333C197.392,466.691 190.601,490.942 172.259,499.892C162.017,504.889 150.375,509.418 138.825,509.452C128.733,509.482 118.763,505.691 110.87,499.475C95.129,487.08 87.971,464.824 92.854,445.463C95.433,435.232 101.836,426.742 109.555,419.752C117,413.009 126.054,406.421 136.605,408.398C136.775,408.43 136.904,408.554 136.993,408.727ZM133.921,410.226C123.583,409.884 114.519,417.573 107.564,424.588C99.628,432.592 94.235,442.232 93.297,453.618C91.65,473.632 102.302,494.033 120.903,502.322C138.275,510.065 158.568,504.502 174.434,495.428C183.906,490.011 188.772,479.369 190.856,468.973C193.032,458.114 188.766,448.196 184.002,438.666C175.209,421.078 153.346,412.054 134.635,410.889C134.279,410.867 134.041,410.586 133.921,410.226ZM858.677,370.462C858.757,370.342 858.862,370.256 858.994,370.222C866.967,368.194 875.312,368.48 883.207,370.795C891.52,373.234 898.845,378.31 906.293,382.587C919.781,390.332 927.638,401.675 930.677,416.938C935.935,443.348 927.921,472.756 905.202,488.57C899.228,492.728 892.686,496.826 885.998,499.72C878.836,502.82 871.001,502.505 863.367,501.962C849.747,500.993 835.868,497.992 824.314,490.4C812.415,482.582 803.347,469.277 797.964,456.248C792.63,443.336 794.232,429.067 799.114,416.248C808.807,390.798 831.81,372.997 858.677,370.462ZM864.23,371.781C864.125,372.016 863.947,372.185 863.694,372.2C832.91,374.121 805.43,395.376 798.385,425.863C796.68,433.24 795.856,441.098 797.717,448.519C799.442,455.396 803.082,461.704 806.853,467.639C813.865,478.677 822.63,487.322 834.808,492.44C846.57,497.384 859.822,499.358 872.54,499.262C880.719,499.2 886.97,496.148 893.83,492.136C899.812,488.638 905.824,485.089 910.969,480.4C929.957,463.097 935.072,431.922 926.241,408.327C923.795,401.793 920.043,395.736 914.701,391.177C909.668,386.883 903.575,383.972 897.922,380.605C887.032,374.117 876.446,370.883 864.23,371.781ZM122.41,427.392C132.467,421.066 146.356,421.867 157.725,427.476C164.97,431.05 171.728,433.668 175.318,441.405C178.552,448.374 179.357,456.547 178.409,464.108C177.506,471.303 174.975,480.568 168.773,485.011C165.31,487.493 160.867,488.967 157.003,490.72C153.135,492.474 149.2,494.304 145.007,495.137C136.856,496.755 128.599,493.834 122.16,488.853C116.449,484.435 109.808,477.429 107.864,470.282C105.971,463.324 108.238,454.089 109.898,447.302C110.46,445.002 111.162,442.754 112.04,440.605C111.942,440.341 111.922,440.03 112.036,439.765C113.735,435.817 116.049,432.628 118.797,430.133C119.782,429.147 120.856,428.225 122.027,427.377C122.183,427.264 122.315,427.292 122.41,427.392ZM114.656,437.794C112.211,442.548 110.886,447.923 110.034,453.365C109.188,458.765 107.56,465.448 109.575,470.716C111.122,474.76 114.57,478.715 117.484,481.855C123.657,488.506 132.032,493.672 141.412,492.955C149.591,492.33 159.565,487.514 166.663,483.378C175.542,478.205 177.787,463.871 177.009,454.547C176.597,449.608 175.416,444.371 172.811,440.086C169.939,435.363 165.505,433.434 160.736,431.119C152.083,426.918 143.701,423.269 133.792,424.925C125.813,426.259 118.731,430.906 114.656,437.794ZM405.304,364.672C431.894,365.395 457.329,381.86 467.758,406.597C478.233,431.44 466.605,460.433 445.034,475.126C433.444,483.019 419.597,490.368 405.42,491.591C391.982,492.751 378.34,488.699 367.931,480.082C358.237,472.057 352.931,461.321 349.928,449.293C346.524,435.66 343.806,421.63 346.88,407.672C352.775,380.905 377.736,362.892 405.089,364.608C405.168,364.613 405.24,364.636 405.304,364.672ZM402.413,366.459C388.462,367.187 374.302,371.755 363.825,381.241C353.363,390.715 347.767,404.814 347.297,418.778C346.871,431.44 350.137,445.952 354.727,457.748C359.015,468.77 367.58,477.972 378.171,483.211C390.451,489.286 404.925,489.906 417.817,485.436C429.456,481.4 442.024,474.78 451.154,466.472C460.091,458.34 466.362,447.378 468.721,435.517C471.481,421.635 468.002,408.413 460.037,396.887C447.264,378.406 425.471,367.073 403.069,366.952C402.762,366.951 402.543,366.746 402.413,366.459ZM835.745,390.856C840.144,387.861 844.591,384.901 849.208,382.306C855.642,378.69 862.328,377.976 869.605,378.747C875.954,379.42 883.175,380.277 888.992,382.962C894.961,385.718 900.449,390.73 905.032,395.378C919.955,410.514 921.869,433.555 915.063,452.967C913.296,458.004 911.014,463.164 907.255,467.051C903.097,471.351 897.432,474.312 892.74,477.969C883.817,484.923 871.438,487.012 860.344,487.775C847.762,488.639 837.56,483.86 828.914,474.905C821.05,466.76 815.077,457.276 812.933,446.042C810.784,434.773 812.101,422.77 815.286,411.816C818.144,401.984 827.152,396.212 835.745,390.856ZM843.254,387.868C843.209,387.966 843.147,388.05 843.065,388.11C837.463,392.213 831.825,396.269 826.245,400.403C819.939,405.074 817.558,410.294 815.9,417.875C813.208,430.188 812.554,443.707 817.851,455.441C822.076,464.802 829.892,473.733 838.478,479.364C848.267,485.783 859.635,485.088 870.652,483.006C875.999,481.995 881.829,481.177 886.662,478.535C890.842,476.249 894.378,472.79 898.317,470.107C903.322,466.697 907.448,463.579 910.286,458.091C912.728,453.367 914.384,448.099 915.442,442.901C917.457,432.991 917.197,422.411 913.59,412.886C909.856,403.028 902.325,395.539 894.009,389.332C889.131,385.691 884.188,384.159 878.307,382.985C872.579,381.842 866.65,380.681 860.778,381.185C854.68,381.709 848.795,384.49 843.254,387.868ZM122.503,444.409C122.43,444.187 122.409,443.949 122.475,443.782C124.772,437.944 130.274,435.434 136.242,434.744C142.985,433.964 150.397,433.584 156.356,437.291C165.578,443.029 170.136,456.548 167.257,466.956C164.321,477.572 150.154,484.089 139.919,483.438C128.989,482.742 119.939,474.704 118.779,463.717C118.213,458.356 119.275,450.333 122.503,444.409ZM131.226,437.961C131.18,438.058 131.109,438.133 131.011,438.162C124.219,440.207 121.482,448.691 120.239,454.99C118.796,462.302 119.915,469.891 125.489,475.223C134.049,483.41 147.067,482.622 156.581,476.6C163.38,472.297 167.03,466.472 166.295,458.206C165.691,451.423 163.066,444.322 157.647,439.914C152.462,435.697 146.31,435.682 139.984,436.26C137.01,436.532 133.963,436.967 131.226,437.961ZM826.848,420.576C826.764,420.347 826.737,420.074 826.8,419.783C828.768,410.635 832.446,401.679 840.505,396.302C850.337,389.743 859.972,387.806 871.538,389.924C879.253,391.336 887.193,394.357 892.401,400.485C895.556,404.198 897.126,408.789 899.207,413.123C901.288,417.457 903.91,421.595 905.198,426.267C906.203,429.908 906.532,433.921 905.327,437.565C903.789,442.215 899.801,445.539 897.917,450.08C896.298,453.983 895.29,458.193 892.619,461.571C890.328,464.467 887.166,466.417 883.981,468.187C875.751,472.76 866.261,476.35 856.88,473.288C847.944,470.37 839.459,462.653 833.461,455.618C827.621,448.77 826.361,438.735 826.313,430.035C826.296,427.023 826.392,423.771 826.848,420.576ZM134.794,443.146C135.359,442.638 135.983,442.179 136.75,441.823C139.065,440.748 141.869,440.284 144.4,440.382C149.706,440.588 152.132,443.374 154.734,447.563C159.433,455.128 160.857,464.634 152.833,470.664C148.697,473.771 143.118,473.774 138.166,472.943C133.929,472.232 130.73,468.524 128.81,464.832C125.151,457.793 127.664,447.183 134.794,443.146ZM378.931,384.465C387.946,378.429 398.862,378.15 409.438,378.897C415.084,379.296 421.038,379.538 426.444,381.365C431.765,383.163 436.104,386.754 440.098,390.595C447.016,397.248 454.468,404.719 457.516,414.058C460.638,423.621 457.465,433.153 453.363,441.895C448.917,451.369 440.254,455.778 431.749,461.201C421.696,467.613 412.234,472.024 400.069,471.187C395.329,470.861 389.523,470.884 385.132,468.807C381.124,466.911 378.216,462.811 375.584,459.394C369.47,451.454 364.462,442.391 362.768,432.411C360.238,417.509 360.897,389.612 378.931,384.465ZM131.792,447.3C126.55,453.364 128.114,463.697 134.317,468.794C139.414,472.982 149.385,471.417 153.678,467.011C157.922,462.655 158.053,456.89 155.358,451.668C154.097,449.226 152.326,445.837 150.132,444.159C146.669,441.512 141.619,441.822 137.79,443.38C135.526,444.301 134.075,446.004 132.121,447.325C131.992,447.412 131.88,447.388 131.792,447.3ZM828.169,420.982C827.348,426.953 827.796,433.22 828.723,438.942C829.572,444.187 830.975,449.169 834.448,453.299C837.308,456.7 840.872,459.678 844.302,462.499C850.841,467.88 858.155,471.997 866.899,471.069C874.421,470.272 882.908,466.404 888.775,461.631C894.608,456.887 895.041,448.678 899.228,442.749C902.566,438.019 904.9,434.248 903.631,428.081C902.806,424.075 900.685,420.38 898.865,416.76C895.05,409.174 892.586,401.738 884.882,397.216C878.738,393.609 871.499,392.048 864.453,391.553C855.644,390.936 846.734,394.134 839.75,399.563C836.812,401.847 834.542,404.711 832.789,407.889C832.781,407.931 832.767,407.969 832.749,407.998L832.625,408.188C830.583,411.979 829.259,416.2 828.399,420.408C828.348,420.657 828.267,420.846 828.169,420.982ZM377.749,386.557C368.717,390.827 364.788,400.485 363.671,410.371C362.374,421.843 362.994,433.613 368.005,444.168C370.072,448.522 372.706,452.596 375.619,456.428C378.338,460.006 381.417,464.403 385.494,466.483C389.672,468.616 395.405,468.677 400.014,468.95C404.889,469.239 409.743,469.02 414.456,467.635C423.266,465.052 430.796,459.092 438.28,454.01C442.398,451.213 446.848,448.653 449.604,444.37C451.932,440.753 453.657,436.459 455.061,432.398C458.85,421.449 456.175,412.136 449.14,403.3C443.83,396.628 436.953,388.824 429.205,384.964C421.572,381.162 411.562,380.983 403.145,380.767C395.562,380.572 387.97,381.394 381.335,385.021C381.286,385.16 381.202,385.267 381.082,385.302C380.907,385.352 380.734,385.404 380.564,385.458C379.873,385.863 379.194,386.3 378.527,386.771C378.184,387.013 377.909,386.855 377.749,386.557ZM143.969,450.765C146.792,453.002 148.677,457.033 147.491,460.543C146.145,464.521 142.021,464.912 139.039,462.378C136.101,459.881 134.506,455.079 136.802,451.666C138.216,449.563 142.528,448.418 143.969,450.765ZM143.13,451.743C142.638,451.466 142.165,451.149 141.539,451.053C140.042,450.823 138.719,451.43 137.789,452.619C135.321,455.779 137.585,460.51 140.997,461.922C144.231,463.261 146.87,460.339 146.344,457.187C145.991,455.07 144.373,453.428 143.13,451.743ZM850.836,401.533C853.225,399.964 856.025,399.669 858.953,399.496C867.389,398.997 876.581,401.959 883.454,406.843C893.583,414.041 895.658,427.998 892.316,439.306C888.698,451.551 877.372,465.013 863.231,460.688C859.83,459.648 856.014,458.86 853.132,456.682C850.231,454.49 847.563,451.571 845.192,448.829C840.563,443.471 838.197,436.536 837.282,429.55C836.153,420.933 838.911,412.56 844.576,406.521C845.152,405.682 845.951,405.007 846.814,404.388C848.051,403.333 849.394,402.376 850.836,401.533ZM847.493,405.613C837.607,415.019 835.744,430.57 843.097,442.689C847.233,449.507 853.656,454.768 861.094,457.201C865.484,458.637 868.946,459.505 873.439,457.83C876.46,456.703 879.597,454.733 882.085,452.701C893.432,443.437 896.027,421.685 885.343,411.127C880.012,405.859 870.995,402.283 863.623,401.373C860.147,400.945 855.133,400.546 851.937,402.301C851.309,402.646 849.239,404.189 847.493,405.613ZM383.935,395.361C398.411,386.466 417.943,387.023 432.059,396.779C442.892,404.267 447.353,420.565 441.343,432.156C434.292,445.757 424.241,455.711 408.214,456.366C401.141,456.655 393.384,455.868 387.859,451.017C382.607,446.407 379.592,439.398 377.427,432.912C373.34,420.669 373.365,406.621 382.212,396.66C382.272,396.507 382.361,396.379 382.482,396.297L382.635,396.194C382.911,395.897 383.195,395.603 383.487,395.314C383.671,395.132 383.829,395.194 383.935,395.361ZM382.385,398.132C371.5,411.63 375.4,433.931 386.001,446.678C396.692,459.533 420.4,455.26 430.794,444.325C436.605,438.214 443.639,427.889 442.564,419.201C441.504,410.645 437.207,401.836 429.611,397.42C415.057,388.957 396.902,388.717 382.869,398.171C382.676,398.301 382.511,398.265 382.385,398.132ZM870.479,413.977C874.247,416.614 877.356,420.098 880.038,423.863C882.509,427.331 882.289,430.15 881.277,434.259C878.684,444.773 865.657,448.753 856.03,444.8C846.114,440.729 846.671,427.427 849.806,419.127C851.496,414.653 854.702,410.078 859.751,409.201C864.113,408.443 867.686,410.931 870.479,413.977ZM385.628,414.349C385.406,410.457 386.242,406.682 389.662,404.195C395.74,399.776 404.869,399.219 412.109,399.194C425.964,399.147 438.487,410.978 434.585,425.576C433.927,428.033 432.69,429.751 431.069,431.647C428.516,434.634 425.902,438.344 422.743,440.744C416.306,445.635 407.631,445.92 400.129,444.222C387.198,441.296 384.574,426.342 385.628,414.349ZM386.454,417.529C386.288,421.503 386.518,425.517 387.611,429.034C389.288,434.427 394.074,440.759 399.754,442.137C406.398,443.75 412.115,443.061 418.384,440.446C423.581,438.279 427.632,433.348 431.031,428.971C436.1,422.441 433.638,412.411 428.036,406.942C423.689,402.698 418.089,401.175 412.153,401.029C406.65,400.895 400.719,401.198 395.477,402.989C392.685,403.943 389.82,405.194 388.176,407.736C387.718,408.445 387.392,409.171 387.161,409.912C386.958,411.458 386.771,413.073 386.633,414.716C386.642,415.482 386.67,416.256 386.684,417.038C386.688,417.266 386.585,417.443 386.454,417.529ZM866.867,413.142C864.407,411.722 861.739,410.89 858.737,411.875C854.317,413.325 852.019,417.685 850.736,421.813C847.851,431.097 849.796,442.058 861.076,442.874C868.973,443.446 877.296,441.571 879.505,432.986C881.455,425.407 873.549,417.581 867.312,414.141C867.015,413.978 866.874,413.556 866.867,413.142ZM865.365,422.579C868.225,424.037 870.172,428.579 869.975,431.382C869.827,433.495 868.18,435.488 866.432,436.556C864.357,437.823 862.417,436.908 860.605,435.617C856.431,432.644 855.834,428.367 858.69,424.097C859.728,422.545 861.286,420.792 863.353,421.254C864.194,421.442 864.859,421.937 865.365,422.579ZM413.325,411.474C420.633,413.704 425.464,420.188 421.83,427.655C418.643,434.207 409.589,438.527 402.794,434.767C395.807,430.902 393.417,423.339 395.535,415.939C397.938,407.544 407.155,406.111 413.325,411.474ZM862.921,423.087C861.683,422.983 860.7,423.981 859.893,425.111C859.004,426.355 858.068,428.083 858.21,429.662C858.383,431.578 859.914,432.693 861.317,433.615C862.974,434.705 864.244,435.317 866.113,434.084C867.993,432.842 868.372,430.824 867.693,428.702C866.999,426.538 865.644,424.946 863.48,424.266C863.099,424.147 862.905,423.6 862.921,423.087ZM411.607,411.664C405.029,408.139 397.403,410.501 396.111,418.887C395.172,424.98 398.417,431.566 404.478,433.837C410.589,436.127 416.753,432.747 419.915,427.455C424.787,419.3 416.807,416.283 411.773,412.058C411.679,411.978 411.621,411.824 411.607,411.664ZM411.003,419.177C412.179,420.223 413.231,421.277 413.618,422.964C413.969,424.495 413.699,426.275 412.642,427.477C410.427,429.994 404.953,428.895 403.489,426.023C402.105,423.305 403.175,418.571 405.953,417.083C407.364,416.328 411.292,417.197 411.003,419.177ZM409.409,418.596C408.696,418.085 407.664,417.976 406.857,418.204C404.409,418.897 403.06,422.443 404.045,424.728C405.046,427.053 408.904,427.558 411.022,426.66C414.671,425.113 411.634,420.665 409.584,419.306C409.382,419.172 409.346,418.86 409.409,418.596ZM662.524,267.467C662.652,267.337 662.812,267.252 663.005,267.234C669.232,266.65 675.912,268.663 681.748,270.689C686.873,272.468 691.174,275.197 694.426,279.603C701.721,289.49 704.963,302.991 704.875,315.117C704.796,325.939 702.643,338.335 698.19,348.255C693.898,357.814 685.448,364.544 675.88,368.453C655.128,376.931 631.23,371.192 615.365,355.726C607.723,348.278 603.515,339.731 602.81,329.047C602.053,317.576 602.528,306.733 608.079,296.48C612.986,287.417 619.06,278.511 628.433,273.637C638.603,268.349 651.082,267.089 662.524,267.467ZM666.239,269.861C666.122,269.972 665.973,270.038 665.792,270.036C654.048,269.901 641.272,270.61 630.498,275.74C620.23,280.628 613.755,290.272 608.724,300.12C603.595,310.161 603.415,323.671 605.568,334.657C607.552,344.782 614.951,352.766 623.12,358.61C639.078,370.024 660.475,372.675 678.27,363.891C687.984,359.096 695.045,351.639 698.403,341.269C701.5,331.704 703.377,320.866 702.703,310.816C702.009,300.482 698.668,288.759 691.928,280.669C686.586,274.256 675.135,270.158 666.239,269.861ZM628.383,289.253C633.804,281.19 644.308,278.249 653.505,277.164C663.189,276.022 673.55,277.812 681.685,283.339C689.279,288.5 693.118,296.228 696.214,304.652C699.403,313.324 698.427,320.143 694.613,328.411C690.682,336.931 686.43,344.488 678.719,350.121C671.249,355.577 663.686,360.128 654.091,359.198C638.288,357.668 621.704,341.728 618.955,326.169C617.553,318.232 618.197,309.376 620.685,301.714C622.334,296.633 624.974,292.659 628.383,289.253ZM637.256,283.964C637.227,284.164 637.15,284.336 637.017,284.428C628.685,290.192 622.776,296.806 620.747,307.005C618.95,316.039 619.106,326.535 623.926,334.62C631.662,347.595 647.805,360.458 663.805,356.104C670.822,354.194 678.329,348.736 683.273,343.516C688.646,337.845 692.461,329.868 695.192,322.626C698.719,313.274 694.745,302.843 689.825,294.608C686.099,288.371 680.08,283.927 673.303,281.481C665.752,278.755 657.928,278.662 650.075,280.08C645.819,280.848 641.268,281.976 637.256,283.964ZM642.131,293.311C642.172,293.223 642.228,293.147 642.301,293.092C655.27,283.277 672.262,286.265 682.79,298.226C687.209,303.247 688.143,308.925 688.161,315.46C688.181,322.182 687.142,326.691 682.834,331.819C674.393,341.87 663.305,350.974 649.4,345.873C643.299,343.634 637.974,337.923 634.535,332.53C631.158,327.232 631.261,320.628 631.687,314.571C632.281,306.137 635.91,298.334 642.131,293.311ZM650.152,290.664C636.897,296.784 630.361,311.322 633.559,325.997C635.155,333.324 642.997,340.423 649.824,343.154C656.532,345.837 663.858,344.498 669.718,340.544C674.917,337.037 679.686,332.05 683.428,327.029C688.171,320.663 687.45,307.585 682.728,301.423C675.29,291.717 661.602,286.853 650.152,290.664ZM647.724,302.005C647.831,301.661 648.048,301.386 648.38,301.331C654.313,300.366 660.488,299.7 666.405,301.153C669.612,301.941 674.146,303.258 674.948,306.94C676.807,315.468 667.321,324.261 661.184,328.334C640.084,342.333 635.385,307.402 647.724,302.005ZM649.506,303.523C641.596,305.894 640.198,321.306 645.743,326.674C651.642,332.383 660.4,326.253 665.072,322.09C670.128,317.588 677.922,307.572 667.536,304.163C661.726,302.257 655.48,302.698 649.506,303.523ZM656.264,309.789C656.307,309.746 656.356,309.712 656.411,309.689C659.254,308.519 661.114,312.83 660.663,315.048C659.953,318.548 656.422,319.957 653.175,319.472C651.818,319.27 650.051,318.972 649.528,317.509C649.073,316.238 649.523,314.555 650.007,313.359C651.042,310.803 653.605,308.957 656.264,309.789ZM656.672,311.334C654.748,310.756 652.761,311.494 651.635,313.18C651.226,313.794 650.653,314.928 650.705,315.707C650.809,317.274 652.426,317.338 653.541,317.444C655.489,317.631 657.633,317.193 658.793,315.456C660.309,313.186 658.218,312.258 656.672,311.334ZM236.346,161.958C236.453,161.757 236.622,161.617 236.853,161.607C260.075,160.565 282.781,174.273 292.404,195.529C296.896,205.451 297.49,216.05 294.129,226.412C290.705,236.97 283.882,248.248 275.071,255.166C265.794,262.449 253.909,262.629 242.682,261.515C231.43,260.398 220.274,258.921 211.262,251.518C195.77,238.791 190.339,216.419 194.996,197.395C199.708,178.147 216.492,162.617 236.346,161.958ZM236.59,163.545C214.653,164.595 198.155,182.92 195.651,204.701C193.451,223.842 201.992,245.932 220.461,254.146C229.54,258.184 241.016,259.004 250.894,259.175C262.093,259.368 271.786,256.25 279.297,247.658C286.3,239.648 292.191,229.363 293.931,218.784C295.816,207.325 291.692,196.111 284.871,186.986C273.735,172.087 255.415,163.396 236.903,163.637C236.784,163.639 236.679,163.605 236.59,163.545ZM218.379,180.34C233.933,167.443 254.512,175.816 269.331,185.573C275.533,189.657 282.1,194.402 284.304,201.871C286.689,209.956 283.859,218.625 280.39,225.942C273.194,241.122 260.604,249.611 243.533,248.239C227.492,246.95 212.46,238.982 208.893,222.366C206.048,209.113 205.438,188.516 218.379,180.34ZM217.993,182.335C209.524,188.691 208.607,200.316 208.949,210.42C209.286,220.387 211.12,230.9 219.385,237.47C232.097,247.576 254.752,250.048 267.971,239.771C275.65,233.801 280.875,223.013 282.884,213.643C285.398,201.914 278.989,194.652 270.054,188.369C256.105,178.56 236.257,169.558 220.764,180.565C220.73,180.602 220.692,180.632 220.648,180.655L220.607,180.677C219.917,181.175 219.235,181.712 218.563,182.291C218.341,182.482 218.145,182.466 217.993,182.335ZM0,133.732C3.539,133.587 7.089,133.652 10.619,133.832C15.152,134.063 19.727,134.337 23.84,136.104C47.64,140.93 68.063,167.564 65.85,191.604C63.6,216.035 42.572,234.553 19.463,239.358C12.947,240.713 6.38,240.966 0,240.196L0,237.281C8.161,238.286 16.582,237.594 24.679,235.158C45.955,228.756 65.489,209.266 64.258,185.716C63.217,165.806 46.533,145.465 27.169,139.366C27.007,139.662 26.73,139.811 26.372,139.575C25.903,139.266 25.42,138.984 24.925,138.727C23.034,138.245 21.12,137.901 19.198,137.709C18.738,137.663 18.482,137.175 18.432,136.663C14.112,135.926 9.486,136.066 5.374,136.047C3.585,136.039 1.792,136.069 0,136.152L0,133.732ZM1000,133.732L1000,136.152C994.838,136.389 989.691,137.065 984.728,138.524C972.961,141.985 963.288,150.071 957.289,160.721C945.859,181.015 950.823,205.493 967.123,221.55C976.192,230.485 987.804,235.78 1000,237.281L1000,240.196C983.533,238.211 968.339,229.403 958.618,215.131C945.747,196.235 945.91,171.138 959.95,152.877C967.14,143.525 977.14,137.39 988.69,135.043C992.419,134.285 996.203,133.887 1000,133.732ZM221.63,195.626C222.881,192.411 225.885,190.233 229.027,188.373C234.797,184.956 240.67,182.804 247.441,184.148C259.273,186.496 267.479,197.035 269.732,208.48C271.843,219.201 265.131,231.666 254.869,235.934C243.878,240.505 230.259,234.833 223.667,225.532C217.443,216.751 216.848,205.223 221.593,195.69C221.605,195.666 221.617,195.645 221.63,195.626ZM221.075,199.201C216.959,211.112 220.872,224.401 232.058,231.17C236.742,234.003 242.21,235.586 247.714,235.253C255.174,234.799 260.467,230.41 264.644,224.522C273.081,212.629 266.1,194.788 253.717,188.38C248.378,185.619 241.83,184.722 236.036,186.507C230.785,188.124 221.963,192.342 221.919,198.849C221.914,199.559 221.27,199.688 221.075,199.201ZM231.379,198.958C231.388,198.933 231.399,198.909 231.411,198.887C236.299,189.854 247.959,189.512 254.582,196.897C260.755,203.778 261.612,216.827 255.234,223.912C247.792,232.179 233.456,224.841 229.127,216.477C226.415,211.236 227.633,203.863 231.379,198.958ZM231.703,200.262C230.786,201.707 230.092,203.332 229.545,205.039C227.706,210.778 229.376,216.333 234.029,220.007C240.633,225.222 250.831,228.847 255.825,219.689C260.244,211.585 257.746,199.797 249.322,195.355C245.445,193.311 240.974,193.232 237.359,195.038C237.361,195.235 237.292,195.431 237.141,195.497C236.046,195.973 235.089,196.581 234.249,197.295C233.471,198.084 232.786,199.003 232.218,200.052C232.052,200.359 231.864,200.385 231.703,200.262ZM0,147.721C4.679,147.392 9.398,147.634 14.017,148.473C22.094,149.939 32.168,152.415 38.768,157.58C45.255,162.66 50.378,172.29 52.915,180.015C55.577,188.122 53.918,195.445 49.356,202.472C44.628,209.754 39.773,215.68 31.519,218.929C21.818,222.747 10.559,225.469 0,224.549L0,221.88C10.766,222.82 22.401,219.918 31.696,216.044C39.491,212.796 44.07,206.71 48.443,199.744C54.586,189.962 52.591,180.735 47.062,171.179C43,164.158 38.689,158.613 30.928,155.579C23.637,152.729 15.858,150.424 8.027,149.859C5.357,149.666 2.672,149.663 0,149.847L0,147.721ZM1000,147.721L1000,149.847C994.473,150.227 989.001,151.408 983.817,153.369C977.336,155.818 969.75,159.583 967.126,166.354C965.403,176.605 963.996,186.321 967.946,196.3C971.409,205.048 977.304,212.92 985.582,217.628C989.962,220.119 994.883,221.433 1000,221.88L1000,224.549C992.116,223.863 984.623,221.147 978.457,215.344C972.375,209.62 968.011,201.896 965.524,193.973C962.899,185.613 963.985,177.431 965.593,169.093C965.358,168.906 965.192,168.533 965.275,168.106C966.954,159.479 975.009,154.716 982.607,151.689C988.152,149.48 994.044,148.139 1000,147.721ZM239.395,203.263C241.648,199.827 247.286,202.445 249.395,204.804C250.752,206.322 251.218,208.266 250.749,210.246C250.262,212.305 248.654,215.137 246.847,216.323C243.409,218.579 238.363,214.159 237.29,211.05C236.338,208.29 237.174,205.01 239.395,203.263ZM242.218,203C242.198,203.239 242.093,203.451 241.892,203.505C238.394,204.452 236.868,208.568 238.953,211.608C240.128,213.323 243.11,215.611 245.319,215.466C246.999,215.356 248.609,212.574 249.166,211.158C250.222,208.472 249.264,206.087 246.976,204.655C245.748,203.887 243.859,202.932 242.218,203ZM0,155.773C5.056,155.251 10.549,155.829 14.76,156.78C22.153,158.451 30.817,161.393 35.749,167.482C43.671,177.263 46.454,190.67 39.035,201.432C30.145,214.33 14.438,213.305 0.654,211.408C0.437,211.378 0.22,211.345 0,211.308L0,208.901C1.992,209.294 4.002,209.533 5.968,209.647C13.048,210.057 19.67,211.35 26.449,208.41C33.474,205.364 39.514,199.065 41.409,191.529C43.286,184.064 39.253,175.086 34.728,169.124C30.117,163.049 21.694,160.219 14.473,158.619C10.465,157.73 6.512,157.76 2.44,157.878C1.667,157.9 0.845,157.892 0,157.884L0,155.773ZM1000,155.773L1000,157.884C998.263,157.869 996.43,157.858 994.732,158.128C994.69,158.285 994.608,158.413 994.485,158.458C990.564,159.88 986.904,160.829 984.036,164.103C981.685,166.787 979.775,170.402 978.763,173.787C977.264,178.804 978.132,183.705 979.504,188.599C980.73,192.972 981.868,198.098 985.131,201.466C989.07,205.532 994.466,207.809 1000,208.901L1000,211.308C993.984,210.313 987.222,206.922 983.368,202.182C979.508,197.435 977.841,189.903 976.981,183.971C975.305,172.41 981.257,161.22 992.303,157.769C994.54,156.685 997.203,156.061 1000,155.773ZM0,164.341C6.417,162.662 13.017,162.005 19.322,164.754C24.979,167.221 30.165,171.678 33.213,177.064C39.654,188.442 32.876,201.494 20.691,204.871C13.447,206.879 6.031,205.957 0,202.622L0,200.443C6.39,204.072 14.39,204.549 21.714,201.856C26.803,199.985 31.384,196.101 33.28,190.918C35.792,184.048 32.392,177.44 27.58,172.595C19.563,164.523 10.203,164.003 0,165.911L0,164.341ZM1000,164.341L1000,165.911L999.566,165.993C995.735,167.212 992.502,169.033 990.23,173.177C986.646,179.716 988.25,186.989 992.131,192.994C994.208,196.209 996.916,198.693 1000,200.443L1000,202.622C994.361,199.505 989.932,194.279 987.986,187.368C986.547,182.259 986.497,176.66 989.253,171.972C990.935,169.109 993.397,167.234 996.219,165.978C996.213,165.695 996.305,165.411 996.512,165.346C997.667,164.987 998.83,164.647 1000,164.341ZM0,174.841C0.881,174.153 1.915,173.632 3.086,173.337C9.727,170.572 18.915,171.068 23.421,176.772C27.688,182.17 24.855,192.451 19.717,196.256C15.64,199.277 11.396,197.943 6.964,196.312C3.809,195.152 1.722,193.089 0,190.558L0,187.932C0.789,189.044 1.687,190.116 2.437,191.065C6.717,196.482 16.827,198.589 21.441,192.049C25.423,186.408 24.182,177.511 17.587,174.633C13.011,172.637 4.307,173.251 0.312,176.234C0.282,176.256 0.254,176.274 0.226,176.287C0.149,176.358 0.074,176.431 0,176.504L0,174.841ZM12.782,180.148C13.226,180.14 13.656,180.157 13.781,180.213C14.461,180.519 15.197,181.287 15.753,181.791C16.985,182.909 17.258,184.116 17.231,185.759C17.173,189.396 15.212,192.171 11.195,191.129C9.47,190.681 7.557,189.484 6.614,187.944C5.684,186.423 6.071,184.672 6.653,183.102C7.249,181.492 8.16,179.981 9.964,179.578C11.01,179.344 12.031,179.55 12.782,180.148ZM1000,174.841L1000,176.504C997.849,178.655 997.059,181.956 998.491,185.346C998.853,186.205 999.395,187.08 1000,187.932L1000,190.558C999.172,189.341 998.428,188.015 997.692,186.63C995.519,182.546 996.624,177.475 1000,174.841ZM13.601,181.596C13.581,181.614 13.554,181.623 13.522,181.618C12.541,181.465 11.689,180.924 10.66,180.997C9.031,181.112 8.009,182.368 7.551,183.864C6.822,186.244 7.641,187.968 9.726,188.918C10.689,189.357 11.75,189.558 12.805,189.472C14.512,189.334 15.68,188.748 16.084,186.929C16.4,185.513 16.127,183.913 15.136,182.849C14.836,182.528 14.451,182.238 14.117,181.949C13.941,181.797 13.77,181.684 13.601,181.596ZM757.713,84.15C781.025,83.671 801.869,98.122 811.706,119.311C814.033,124.323 813.936,129.534 813.802,134.947C813.669,140.309 813.369,145.709 812.129,150.946C809.925,160.252 804.508,168.389 796.553,173.759C786.806,180.339 775.492,180.556 764.146,179.946C753.429,179.37 742.139,178.99 732.638,173.369C724.282,168.425 715.378,159.027 711.197,150.231C706.347,140.031 709.778,127.081 710.566,116.361C711.24,107.204 718.726,97.122 726.208,92.172C735.361,86.118 746.617,84.689 757.309,83.946C757.485,83.934 757.619,84.016 757.713,84.15ZM753.795,86.107C743.501,87.605 732.903,89.271 724.56,95.943C720.124,99.489 717.092,104.447 714.48,109.416C711.614,114.866 712.257,120.905 711.616,126.882C710.953,133.068 709.843,139.478 711.728,145.551C713.308,150.639 716.839,154.647 720.282,158.591C726.882,166.154 734.135,172.259 744.104,174.681C753.25,176.904 763.671,177.562 773.063,177.418C782.939,177.267 792.315,174.823 799.782,168.092C807.658,160.993 810.935,151.437 811.75,141.061C812.173,135.696 812.817,129.376 811.498,124.105C810.233,119.044 806.664,114.307 803.649,110.131C792.058,94.076 774.052,84.9 754.139,86.218C754.003,86.227 753.888,86.185 753.795,86.107ZM465.341,75.759C465.46,75.49 465.663,75.297 465.953,75.285C472.644,75.029 479.016,76.318 485.322,78.502C491.336,80.584 498.463,82.91 503.701,86.576C512.075,92.437 516.905,104.871 518.711,114.516C522.219,133.258 515.033,152.797 498.447,162.897C488.966,168.671 478.888,169.178 468.104,167.848C461.841,167.075 455.441,166.49 449.251,165.261C444.006,164.219 440.325,161.54 436.443,157.996C429.194,151.381 421.385,143.983 418.653,134.228C416.016,124.812 417.296,112.4 419.781,103.025C425.341,82.05 446.229,77.021 465.341,75.759ZM724.741,115.327C724.717,115.273 724.7,115.212 724.693,115.147C722.666,95.042 748.038,91.608 762.243,95.744C766.854,97.087 771.743,98.07 776.152,100.003C780.18,101.769 783.586,104.587 786.982,107.326C792.832,112.042 798.248,117.264 800.606,124.6C803.141,132.481 801.689,141.532 799.485,149.342C797.491,156.411 792.911,163.549 785.181,165.027C780.322,165.956 775.099,165.196 770.139,165.869C765.299,166.525 760.634,167.053 755.763,166.304C747.988,165.107 739.984,161.794 733.815,156.864C724.095,149.095 722.919,137.676 723.813,126.17C723.776,126.029 723.759,125.876 723.772,125.718C724.052,122.238 724.323,118.786 724.741,115.327ZM469.878,77.64C469.756,77.801 469.589,77.909 469.378,77.927C458.225,78.895 446.576,79.529 436.558,85.056C426.219,90.759 421.438,100.246 420.109,111.706C418.881,122.284 418.362,132.921 424.711,142.03C427.489,146.017 430.943,149.459 434.498,152.748C437.859,155.858 441.287,159.417 445.643,161.072C450.797,163.03 456.936,163.082 462.369,163.796C466.999,164.404 471.64,165.145 476.314,165.309C485.318,165.626 493.819,162.877 500.99,157.427C516.482,145.653 521,125.204 514.584,107.242C512.913,102.565 510.59,98.091 507.644,94.087C504.465,89.769 500.597,87.524 495.805,85.315C487.534,81.501 478.97,78.168 469.878,77.64ZM724.86,126.722C724.526,131.441 724.496,136.138 725.39,140.66C727.362,150.643 735.501,156.925 744.444,160.618C753.748,164.459 762.177,164.546 771.932,163.344C776.971,162.723 782.838,163.989 787.597,162.064C792.786,159.965 795.9,154.861 797.673,149.815C801.438,139.093 802.343,126.435 794.942,117.098C789.483,110.211 780.812,103.364 772.571,100.511C763.593,97.403 754.906,94.792 745.365,96.183C735.721,97.59 728.926,102.005 726.28,110.565C726.153,113.281 725.881,116.051 725.595,118.844C725.583,121.319 725.468,123.798 725.047,126.216C725.007,126.444 724.942,126.609 724.86,126.722ZM737.645,109.786C740.559,105.399 744.328,102.136 749.956,101.233C756.929,100.114 765.523,103.464 771.566,106.562C782.052,111.935 790.495,120.483 791.148,132.745C791.437,138.135 790.881,144.797 788.275,149.626C785.635,154.522 780.077,156.142 774.935,157.206C768.241,158.592 761.247,157.104 754.922,154.789C749.561,152.826 743.273,150.794 739.69,146.063C732.924,137.129 733.588,121.786 736.721,111.362C736.732,111.286 736.753,111.215 736.785,111.154C736.896,110.79 737.01,110.432 737.127,110.081C737.246,109.723 737.459,109.677 737.645,109.786ZM452.758,87.506C459.848,82.496 468.57,83.995 476.472,86.767C485.598,89.969 494.215,95.048 501.48,101.437C507.567,106.789 508.689,111.97 507.961,119.826C507.277,127.22 506.133,135.09 502.029,141.463C493.552,154.622 473.954,157.478 459.719,154.596C451.612,152.955 445.772,147.997 440.59,141.801C435.712,135.969 431.304,130.36 431.044,122.482C430.802,115.142 431.276,105.826 435.805,99.729C439.63,94.578 446.581,90.537 452.758,87.506ZM737.737,111.647C736.133,118.625 735.417,125.669 736.529,132.813C737.26,137.512 738.416,142.709 741.978,146.109C744.14,148.173 746.938,149.227 749.631,150.39C756.004,153.141 762.383,155.752 769.455,155.554C776.941,155.344 785.608,153.085 788.271,145.26C790.664,138.222 790.515,129.638 787.117,122.975C783.98,116.821 777.949,112.173 772.005,108.871C766.378,105.745 759.699,103.371 753.239,102.992C749.783,102.79 746.446,103.537 743.441,105.266C740.786,106.794 739.473,109.251 737.737,111.647ZM451.486,90.246C445.109,94.163 437.991,97.945 435.133,104.766C431.244,114.042 431.42,126.546 437.384,134.652C442.469,141.565 448.223,148.716 456.691,151.44C465.01,154.116 475.674,152.987 484.014,150.661C492.837,148.199 499.877,142.969 503.228,134.229C504.692,130.411 505.4,126.347 505.91,122.305C506.761,115.564 507.157,109.802 501.889,104.706C495.452,98.479 487.462,93.716 479.318,90.108C470.706,86.293 460.124,83.524 452.205,90.27C451.917,90.515 451.666,90.455 451.486,90.246ZM745.363,119.831C753.549,99.532 791.178,120.647 778.614,140.254C772.593,149.65 757.83,150.421 749.503,143.658C742.566,138.024 741.267,127.888 744.987,120.117C745.103,119.876 745.235,119.8 745.363,119.831ZM745.204,122.746C742.132,130.926 745.424,140.456 753.622,144.221C761.08,147.646 770.883,146.985 776.4,140.388C791.196,122.697 752.239,100.205 745.479,122.41C745.41,122.638 745.31,122.736 745.204,122.746ZM453.077,99.603C455.894,94.969 462.103,95.517 466.908,95.806C473.942,96.231 481.403,97.269 487.418,101.221C497.006,107.523 499.031,117.978 494.297,128.055C488.995,139.343 477.756,145.793 465.362,143.762C453.506,141.82 445.04,135.434 443.908,122.989C443.155,114.727 445.932,104.446 453.077,99.603ZM754.299,120.205C763.453,111.526 781.207,128.202 771.059,139.11C766.334,144.188 756.657,143.96 752.794,137.779C749.637,132.726 749.686,124.511 753.712,120.084C753.964,119.806 754.17,119.938 754.299,120.205ZM457.914,98.071C457.969,98.405 457.872,98.798 457.609,98.922C445.919,104.375 441.589,121.321 448.377,132.258C454.972,142.883 473.659,144.127 483.355,137.499C488.138,134.23 491.921,129.282 493.976,123.865C496.901,116.153 494.332,108.885 487.911,104.008C482.624,99.991 475.929,98.578 469.45,97.996C466.219,97.705 461.535,96.999 457.914,98.071ZM753.973,121.974C751.398,126.73 750.477,134.198 755.124,138.094C758.832,141.204 765.019,141.61 768.818,138.578C780.916,128.927 761.21,112.601 753.973,121.974ZM762.125,125.794C762.195,125.665 762.312,125.588 762.472,125.633C764.854,126.295 766.221,129.373 765.951,131.667C765.808,132.89 765.291,134.291 763.959,134.605C762.667,134.908 761.323,134.068 760.353,133.304C758.495,131.84 756.57,128.906 758.793,126.839C759.395,126.279 760.905,125.747 762.125,125.794ZM462.663,105.711C462.681,105.27 462.884,104.858 463.276,104.855C470.454,104.808 484.018,107.033 485.169,115.972C486.094,123.152 478.11,131.96 471.433,133.631C464.081,135.471 455.441,128.84 454.737,121.52C454.226,116.217 456.903,107.339 462.663,105.711ZM763.74,127.737C763.534,127.971 763.163,127.854 763.156,127.358C763.149,126.763 761.069,127.146 760.766,127.238C760.115,127.435 759.452,127.777 759.108,128.382C758.144,130.077 760.829,131.766 762.091,132.391C762.877,132.781 763.91,133.075 764.528,132.236C765.022,131.565 765.017,130.522 764.858,129.747C764.685,128.899 764.279,128.266 763.74,127.737ZM464.791,106.801C458.05,109.223 454.171,117.406 457.103,124.24C459.566,129.983 467.861,133.522 473.402,130.346C475.449,129.173 477.38,127.268 479.043,125.589C480.388,124.232 481.908,122.694 482.619,120.884C483.703,119.359 483.595,117.703 482.296,115.917C482.519,113.097 481.332,111.294 478.737,110.509C474.424,108.142 469.662,106.998 464.791,106.801ZM467.867,113.954C467.894,113.924 467.925,113.899 467.958,113.878C470.413,112.357 473.441,114.326 474.151,116.883C474.986,119.892 473.152,123.211 470.452,124.565C467.37,126.11 464.28,123.814 463.885,120.607C463.53,117.719 465.191,114.9 467.867,113.954ZM469.117,115.03C469.06,115.124 468.983,115.192 468.884,115.218C466.429,115.857 464.444,118.412 465.25,121.036C465.923,123.231 468.587,123.558 470.306,122.559C472.164,121.479 473.991,118.904 472.854,116.749C472.134,115.385 470.562,114.768 469.117,115.03ZM990.682,0C991.346,6.057 990.956,12.308 989.394,18.5C986.925,28.292 981.487,39.918 974.784,47.515C967.904,55.314 954.635,59.713 944.452,60.042C938.164,60.245 932.298,58.378 926.416,56.376C920.462,54.349 914.513,52.276 908.809,49.608C900.075,45.521 890.271,39.756 885.991,30.678C881.597,21.359 883.686,9.914 885.653,0L887.479,0C887.324,0.845 887.176,1.69 887.033,2.533C885.124,13.805 883.024,26.097 891.616,35.239C898.406,42.463 907.933,46.881 917.053,50.375C926.756,54.094 937.245,58.022 947.792,56.44C958.087,54.895 970.012,50.579 976.005,41.657C981.718,33.15 987.043,22.976 988.68,12.802C989.375,8.484 989.448,4.187 988.963,0L990.682,0ZM979.333,0C979.367,5.885 978.366,11.803 976.068,17.201C972.536,25.495 965.568,31.798 958.478,37.102C951.012,42.688 943.612,43.841 934.435,42.944C925.344,42.054 918.229,39.917 911.803,33.156C905.572,26.598 901.918,20.587 900.696,11.543C900.224,8.05 899.759,4.077 899.592,0L901.124,0C901.432,9.46 902.719,19.526 908.965,26.834C912.195,30.617 915.765,34.678 920.224,37.037C924.574,39.339 929.533,39.842 934.366,40.148C939.364,40.463 944.741,40.78 949.559,39.133C953.973,37.626 957.658,34.524 961.152,31.533C969.028,24.786 975.097,16.928 976.734,6.433C977.069,4.292 977.267,2.135 977.299,0L979.333,0ZM240.529,0C237.913,8.38 233.703,17.326 228.219,24.133C222.361,31.408 214.165,33.599 205.225,34.761C187.787,37.028 168.045,32.249 159.442,15.446C156.849,10.383 156.193,5.239 156.505,0L158.351,0C158.02,6.384 159.32,12.421 163.505,18.011C173.768,31.724 191.874,34.211 207.763,31.599C216.78,30.117 223.557,27.231 228.848,19.526C232.871,13.668 236.188,6.819 238.442,0L240.529,0ZM969,0C969.348,4.683 968.672,9.391 966.855,13.559C962.176,24.292 950.101,34.426 937.764,32.66C931.081,31.703 925.417,26.761 920.492,22.482C916.087,18.656 912.92,11.765 911.073,6.36C910.33,4.188 909.917,2.062 909.798,0L911.354,0C911.732,3.248 912.932,6.303 914.466,9.281C915.905,12.077 917.029,15.501 918.965,17.986C921.242,20.909 924.873,23.233 927.788,25.519C930.913,27.969 933.906,29.639 937.927,30.105C944.917,30.915 951.349,28.443 956.662,23.988C964.135,17.721 967.853,8.845 967.308,0L969,0ZM693.106,0C691.166,4.252 688.654,8.19 685.413,11.479C678.349,18.646 668.248,21.911 658.382,22.474C639.177,23.571 617.696,14.925 604.823,0L608.068,0C608.63,0.571 609.214,1.136 609.818,1.696C623.69,14.558 643.795,22.22 662.766,19.311C672.58,17.806 681.983,13.216 687.852,4.997C688.971,3.43 689.993,1.756 690.916,0L693.106,0ZM960.381,0C960.522,6.33 958.284,12.787 953.731,16.836C949.463,20.632 944.524,23.067 938.768,22.184C932.236,21.181 928.017,19.195 924.658,13.487C921.944,8.875 921.724,4.793 922.136,0L923.5,0C923.119,4.72 923.712,9.037 926.593,13.341C932.085,21.545 944.468,21.272 951.678,15.578C956.254,11.964 958.778,5.944 958.751,0L960.381,0ZM227.258,0C227.053,0.693 226.83,1.374 226.588,2.041C222.276,13.916 210.532,21.933 197.967,22.111C185.869,22.282 171.395,15.191 169.931,2.005C169.858,1.346 169.802,0.677 169.761,0L171.332,0C171.77,4.637 173.348,8.963 177.299,12.47C188.065,22.026 205.559,22.14 216.499,12.943C220.681,9.427 223.615,4.993 225.315,0L227.258,0ZM952.678,0C952.48,4.264 949.165,8.963 946.435,11.376C943.919,13.604 940.479,13.851 937.319,12.795C934.637,11.902 932.822,8.994 931.572,6.588C930.573,4.667 930.274,2.312 930.575,0L932.049,0C931.839,2.521 932.514,5.131 933.999,7.092C935.609,9.221 937.059,10.553 939.789,10.883C942.234,11.178 944.163,10.561 945.906,8.825C947.676,7.062 949.59,4.698 950.416,2.293C950.7,1.467 950.832,0.704 950.831,0L952.678,0ZM217.966,0C217.463,1.481 216.878,2.872 216.236,4.127C213.473,9.529 208.639,12.169 202.737,12.765C197.121,13.332 190.236,13.171 185.572,9.621C182.214,7.064 180.41,3.694 179.708,0L181.142,0C181.937,3.352 183.962,6.271 187.907,8.27C195.031,11.879 208.268,11.571 213.406,4.865C214.502,3.435 215.429,1.784 216.165,0L217.966,0ZM677.604,0C675.678,1.925 673.632,3.714 671.588,5.381C664.918,10.818 657.538,13.306 648.945,11.601C640.337,9.894 632.324,5.8 625.902,0L628.99,0C634.528,4.294 641.172,7.599 647.569,9.093C658.392,11.619 666.751,7.075 674.451,0L677.604,0ZM945.448,0C945.908,0.882 945.876,1.963 945.611,2.911C944.906,5.429 942.725,6.771 940.136,6.673C939.057,6.633 938.07,6.388 937.728,5.277C937.371,4.116 937.402,2.656 937.648,1.478C937.751,0.982 937.945,0.473 938.211,0L940.547,0C939.817,0.325 939.229,0.918 938.934,1.779C938.705,2.441 938.688,3.164 938.732,3.856C938.793,4.829 939.423,4.915 940.325,4.94C941.778,4.98 943.324,4.514 944.109,3.224C944.892,1.937 944.568,0.678 943.648,0L945.448,0ZM209.935,0C208.616,1.773 206.857,3.173 204.662,3.914C199.904,5.52 192.797,3.968 189.287,0L192.921,0C193.15,0.111 193.388,0.214 193.634,0.309C196.029,1.232 198.689,2.194 201.284,2.149C203.623,2.109 205.636,1.299 207.24,0L209.935,0Z" style="fill-rule:nonzero;"/>
</svg>
