<?xml version="1.0" encoding="UTF-8" standalone="no"?>
<!DOCTYPE svg PUBLIC "-//W3C//DTD SVG 1.1//EN" "http://www.w3.org/Graphics/SVG/1.1/DTD/svg11.dtd">
<svg width="100%" height="100%" viewBox="0 0 1000 1000" version="1.1" xmlns="http://www.w3.org/2000/svg" xmlns:xlink="http://www.w3.org/1999/xlink" xml:space="preserve" xmlns:serif="http://www.serif.com/" style="fill-rule:evenodd;clip-rule:evenodd;stroke-linejoin:round;stroke-miterlimit:2;">
    <path d="M891.02,1000C891.042,999.356 891.065,998.712 891.089,998.069C891.178,995.691 890.794,992.734 891.493,990.43C892.569,986.891 895.683,987.376 898.827,987.422C926.226,987.832 953.577,989.303 980.981,988.737C981.464,988.728 981.834,988.974 982.092,989.358C982.856,988.529 984.187,988.947 984.158,990.731C984.108,993.82 984.04,996.909 983.959,1000L981.219,1000C981.277,998.294 981.338,996.585 981.405,994.876C978.405,996.515 975.464,998.232 972.558,1000L965.109,1000C969.363,997.552 973.735,995.27 978.099,993.036C955.377,991.13 932.602,991.18 909.813,991.357C906.844,991.381 903.874,991.396 900.905,991.422C900.593,991.424 900.165,991.386 899.686,991.341C903.213,994.465 907.128,997.242 910.992,1000L904.302,1000C901.089,997.549 897.972,994.983 895.125,992.15C894.23,993.216 894.23,994.778 894.03,996.045C893.828,997.33 893.708,998.654 893.642,1000L891.02,1000ZM146.55,1000C145.986,991.38 145.007,982.787 143.746,974.296C143.606,973.35 144.044,972.489 144.589,972.114L144.583,972.082C144.501,971.632 144.549,970.508 145.177,970.361C152.14,968.743 159.243,969.529 166.292,970.025C173.223,970.513 179.795,969.962 186.623,968.716C193.567,967.448 200.05,967.315 207.08,967.69C214.233,968.07 221.289,967.583 228.421,967.055C231.847,966.801 239.406,964.866 241.958,967.521C243.452,969.073 242.944,972.957 243.121,974.996C243.423,978.456 243.377,981.927 243.291,985.396C243.17,990.329 243.075,995.181 243.076,1000L240.012,1000C240.047,997.381 240.135,994.749 240.278,992.096C240.449,988.939 240.623,985.781 240.701,982.62C240.77,979.802 241.439,975.896 240.762,973.165C240.404,971.721 240.251,970.862 239.414,970.317C232.698,977.186 224.796,982.473 216.925,987.913C213.891,990.01 210.667,991.826 207.448,993.64C209.895,995.737 212.343,997.848 214.755,1000L210.401,1000C208.637,998.315 206.85,996.649 205.027,995.011C202.306,996.566 199.623,998.172 197.095,1000L188.121,1000C185.408,998.102 182.705,996.176 179.838,994.596C179.374,994.34 178.909,994.085 178.445,993.832C176.85,995.905 175.225,997.955 173.595,1000L169.624,1000C171.72,997.483 173.875,995.016 176.178,992.6C173.309,991.045 170.452,989.493 167.629,987.809C163.949,985.614 160.358,983.307 156.741,981.008C153.424,978.9 149.873,977.289 146.501,975.336C147.788,983.562 148.572,991.774 148.956,1000L146.55,1000ZM571.8,1000C571.659,984.275 571.883,968.552 572.583,952.839C572.157,951.786 572.472,950.039 573.591,949.878C582.142,948.644 590.583,952.009 599.086,952.563C607.253,953.097 615.456,952.414 623.606,951.895C641.199,950.775 658.806,950.037 676.402,948.993C677.491,948.929 677.956,950.435 677.977,951.268C678.338,966.48 678.69,981.693 679.064,996.905C679.089,997.937 679.114,998.968 679.14,1000L676.137,1000C676.076,997.375 676.012,994.749 675.948,992.124C675.651,980.093 675.353,968.062 675.057,956.033C666.767,961.675 658.386,967.169 649.91,972.526C648.551,973.385 647.192,974.245 645.832,975.103C650.412,980.886 655.11,986.611 659.965,992.157C662.311,994.837 664.737,997.43 667.185,1000L663.62,1000C662.022,998.181 660.427,996.362 658.819,994.564C653.552,988.675 648.333,982.765 643.19,976.764C641.041,978.109 638.885,979.442 636.715,980.747C634.465,982.1 632.155,983.353 629.9,984.697C628.697,985.414 627.271,986.827 625.851,986.799C623.869,986.76 620.149,983.794 618.368,982.813C616.163,981.599 613.969,980.367 611.785,979.118C610.261,978.246 608.745,977.361 607.234,976.467C607.217,976.758 607.164,977.01 607.076,977.176C603.724,983.501 597.522,989.259 592.697,994.516C590.977,996.39 589.218,998.202 587.454,1000L582.957,1000C585.306,997.419 587.671,994.851 590.038,992.299C592.62,989.515 595.446,986.997 597.914,984.107C600.376,981.224 602.359,977.872 604.933,975.096C603.33,974.136 601.731,973.167 600.133,972.195C591.741,967.089 583.339,962.268 575.336,956.582C574.987,971.054 574.856,985.527 575.032,1000L571.8,1000ZM236.82,969.605C235.391,969.488 233.788,969.811 232.372,969.908C229.141,970.133 225.918,970.458 222.69,970.709C215.806,971.244 209.161,970.971 202.281,970.586C196.039,970.237 190.208,971.165 184.078,972.152C172.315,974.047 160.242,972.189 148.343,972.864C151.971,974.815 155.463,977.086 159.13,978.988C163.176,981.085 167.086,983.34 170.976,985.713C175.325,988.364 179.191,991.676 183.519,994.309C185.194,995.328 186.963,996.186 188.627,997.227C189.686,997.944 190.742,998.664 191.796,999.386C193.114,999.752 194.106,999.35 194.773,998.18C201.513,994.26 207.838,989.629 214.699,985.812C222.713,981.354 229.669,975.296 236.82,969.605ZM577.805,953.459C585.221,958.501 592.489,963.79 600.144,968.451C603.887,970.731 607.71,972.888 611.528,975.037C615.413,977.224 619.692,980.375 623.927,981.77C628.53,983.285 633.737,977.898 637.538,975.498C641.356,973.087 645.206,970.722 649.049,968.351C656.75,963.597 664.457,958.846 671.976,953.807C655.885,954.505 639.806,955.408 623.706,955.994C615.537,956.291 607.343,956.733 599.175,956.195C592.015,955.725 584.959,953.594 577.805,953.459ZM397.631,828.929C396.51,828.994 395.971,826.45 396.982,825.755C403.323,821.383 410.185,823.672 417.239,824.593C425.904,825.726 434.6,825.704 443.289,824.94C461.271,823.36 479.345,821.649 497.36,823.722C498.453,823.848 498.873,824.996 498.915,825.967C499.775,845.88 499.805,865.871 500,885.799C500.009,886.7 499.633,888.104 498.521,888.177C481.986,889.267 465.665,890.564 449.077,890.667C432.569,890.767 416.069,890.935 399.57,890.447C398.498,890.416 397.978,889.078 397.991,888.166C398.277,868.461 397.891,848.784 397.716,829.086C397.685,829.038 397.657,828.985 397.631,828.929ZM428.544,850.401C423.585,856.781 419.118,863.634 414.29,870.142C410.46,875.306 407.135,880.824 403.231,885.93C418.487,886.401 433.712,886.658 448.963,886.046C464.145,885.435 479.52,885.028 494.69,883.812C490.002,879.088 485.76,873.661 481.539,868.593C476.563,862.617 471.074,856.891 466.535,850.56C461.095,855.183 455.42,859.3 449.483,863.451C448.999,863.789 448.678,863.792 448.178,863.482C441.486,859.331 435.019,854.867 428.544,850.401ZM400.189,831.085C401.233,848.407 401.34,865.827 401.109,883.182C408.741,871.271 418.171,860.422 426.046,848.678C425.025,847.976 424.004,847.274 422.981,846.575C415.44,841.418 407.483,836.621 400.189,831.085ZM495.529,827.931C495.471,827.991 495.407,828.046 495.338,828.094C487.145,833.791 478.823,839.223 471.54,846.086C470.588,846.983 469.628,847.859 468.662,848.715C473.447,853.541 477.629,859.059 482.072,864.172C487.017,869.864 492.368,875.559 496.819,881.689C496.352,863.809 495.806,845.884 495.905,827.997C495.779,827.975 495.653,827.953 495.529,827.931ZM489.595,827.137C475.159,825.726 460.686,827.886 446.186,828.435C437.85,828.75 429.341,828.987 421.02,828.305C415.032,827.816 406.733,824.935 400.696,827.29C408.531,831.878 415.901,837.436 423.436,842.466C427.769,845.358 432.123,848.219 436.487,851.064C439.879,853.274 445.523,858.988 449.394,858.566C453.191,858.151 457.646,853.25 460.523,850.85C464.047,847.91 467.232,844.694 470.448,841.429C476.01,835.783 482.915,831.485 489.595,827.137ZM215.606,771.136C215.858,771.486 216.03,771.942 216.047,772.465C216.663,791.454 215.167,810.665 214.546,829.648C214.52,830.42 214.214,831.959 213.129,831.926C179.653,830.934 146.139,831.247 112.65,830.172C111.544,830.135 110.912,828.716 110.972,827.748C112.137,808.706 112.858,789.637 114.101,770.599C114.15,769.852 114.704,768.999 115.485,768.913C123.889,767.986 132.326,766.827 140.792,766.724C148.781,766.627 156.433,768.215 164.313,769.227C172.516,770.282 181.003,770.988 189.275,770.8C197.441,770.615 206.234,770.611 214.221,768.853C215.14,768.651 215.666,769.953 215.606,771.136ZM734.562,768.811C750.315,765.146 766.24,765.033 782.357,765.004C800.25,764.973 818.157,764.655 836.045,764.202C837.144,764.173 837.631,765.632 837.641,766.506C837.854,785.564 838.321,804.647 839.058,823.691C839.093,824.606 838.686,825.848 837.637,825.975C820.801,828.02 804.028,829.143 787.102,830.042C770.134,830.943 753.433,830.784 736.487,830.354C735.643,830.333 735.335,829.321 735.297,828.636C734.211,809.45 733.547,790.252 733.073,771.04C732.825,770.446 732.876,769.528 733.283,769.181C733.585,768.671 734.127,768.547 734.562,768.811ZM766.136,791.249C765.908,792.978 764.786,793.952 763.404,795.428C760.755,798.254 759.009,801.873 756.604,804.961C750.854,812.341 744.826,819.6 739.21,827.08C770.946,829.345 802.754,824.491 834.312,821.749C824.817,811.551 814.332,802.254 805.022,791.863C802.193,793.798 799.364,795.734 796.506,797.625C793.933,799.328 789.66,803.445 786.429,803.36C782.957,803.269 778.479,798.875 775.686,797.112C772.527,795.116 769.339,793.169 766.136,791.249ZM144.202,794.226C135.17,804.643 126.43,815.272 116.919,825.284C147.506,825.611 178.07,826.998 208.643,827.393C207.698,826.398 206.945,825.121 206.151,823.939C203.557,820.076 200.611,816.577 197.695,812.966C194.766,809.338 192.376,805.728 189.095,802.356C186.642,799.835 184.559,797.088 182.483,794.26C179.548,796.098 176.625,797.956 173.713,799.83C170.629,801.816 166.626,805.571 162.973,806.28C159.563,806.941 156.035,803.255 153.634,801.406C150.498,798.992 147.368,796.592 144.202,794.226ZM212.868,775.817C204.172,781.118 195.384,786.269 186.72,791.623C186.247,791.915 185.774,792.208 185.302,792.501C189.978,798.04 194.129,803.964 198.706,809.586C201.389,812.881 203.933,816.239 206.805,819.377C208.782,821.538 210.613,823.341 211.671,825.794C211.919,809.174 211.681,792.386 212.868,775.817ZM735.409,773.56C736.319,790.656 737.073,807.755 737.502,824.867C742.989,817.983 748.198,810.787 753.534,803.783C756.992,799.242 759.651,793.783 763.953,789.945C762.963,789.356 761.971,788.769 760.979,788.183C752.522,783.19 743.897,778.499 735.409,773.56ZM116.917,773.609C116.23,790.223 115.169,806.815 114.398,823.418C124.018,813.608 133.532,803.422 141.66,792.341C141.518,792.236 141.376,792.132 141.234,792.028C133.106,786.069 125.187,779.83 117.117,773.794C117.045,773.74 116.978,773.678 116.917,773.609ZM834.778,772.031C826.463,778.09 817.508,783.371 809.003,789.146C808.591,789.425 808.18,789.706 807.769,789.986C817.09,799.893 826.842,809.386 836.043,819.396C835.803,803.608 835.378,787.81 834.778,772.031ZM210.261,773.062C203.294,773.415 196.397,774.21 189.355,774.077C180.978,773.919 172.728,773.629 164.397,772.664C156.552,771.756 148.813,770.609 140.89,770.736C134.452,770.841 128.074,771.531 121.719,772.458C128.109,777.413 134.64,782.179 141.083,787.066C144.667,789.785 148.185,792.585 151.847,795.197C153.956,796.702 156.011,798.436 158.194,799.819C159.592,801.142 161.275,801.923 163.241,802.164C164.215,801.528 165.171,800.867 166.109,800.182C180.251,790.383 195.091,781.223 210.261,773.062ZM832.355,768.826C816.057,768.571 799.74,768.427 783.438,768.544C767.723,768.657 751.87,768.883 736.292,771.184C744.732,774.89 752.791,779.253 760.779,783.866C764.628,786.089 768.424,788.401 772.194,790.754C776.102,793.195 780.105,796.713 784.316,798.542C788.541,800.378 792.916,795.42 796.481,793.02C800.803,790.109 805.184,787.285 809.518,784.395C817.153,779.303 824.569,773.71 832.355,768.826ZM0,607.588L0.759,607.582C10.316,607.521 19.879,607.529 29.429,607.948C37.82,608.317 46.507,609.783 54.545,606.609C56.031,606.022 56.548,608.278 56.395,609.281C54.628,620.928 55.335,633.161 55.135,644.923C54.935,656.613 54.808,668.31 54.679,680.002C54.67,680.785 54.338,682.289 53.266,682.273C35.494,682.001 17.758,681.577 0,680.895L0,676.855C16.859,676.944 33.684,677.265 50.532,677.73C44.587,671.277 39.826,663.812 33.803,657.392C27.837,651.029 23.453,643.653 18.307,636.649C14.888,639.017 11.519,641.449 8.096,643.821C5.936,645.317 2.842,648.49 0,648.732L0,644.13C3.179,643.428 8.673,638.524 10.925,637.107C15.787,634.046 20.468,630.746 25.168,627.446C32.219,622.496 39.282,617.563 46.357,612.643C41.448,612.938 36.462,612.398 31.506,612.137C21.953,611.634 12.384,611.566 2.819,611.59C1.879,611.593 0.94,611.596 0,611.601L0,607.588ZM1000,607.588L1000,611.601C983.047,611.682 966.109,612.116 949.164,612.618C956.89,617.401 964.689,622.04 972.345,626.948C976.7,629.741 981.01,632.607 985.338,635.441C987.503,636.859 989.668,638.276 991.833,639.694C993.695,640.914 996.761,643.772 998.925,644.18C999.24,644.24 999.602,644.218 1000,644.13L1000,648.732C999.751,648.753 999.504,648.752 999.26,648.725C997.608,648.543 995.877,646.934 994.57,646.067C992.146,644.46 989.693,642.898 987.25,641.32C985.573,640.238 983.895,639.156 982.217,638.074C982.185,638.354 982.115,638.612 982,638.823C977.788,646.558 970.976,652.326 965.149,658.78C961.891,662.388 959.23,666.532 956.071,670.244C954.469,672.127 952.921,674.26 951.086,675.919L951.037,675.962C966.755,675.137 982.499,676.778 998.228,676.846C998.819,676.849 999.411,676.852 1000,676.855L1000,680.895L998.326,680.829C989.356,680.477 980.345,680.644 971.366,680.541C962.726,680.443 954.035,679.816 945.436,680.93C944.379,681.068 943.896,679.453 943.887,678.691C943.59,655.988 943.626,633.292 943.58,610.589C943.577,609.235 944.431,608.683 945.117,608.957C945.194,608.934 945.276,608.921 945.363,608.916C963.556,608.051 981.787,607.712 1000,607.588ZM52.905,613.609C52.751,613.841 52.562,614.04 52.335,614.19C42.602,620.629 32.851,627.037 23.084,633.425C22.257,633.966 21.436,634.513 20.619,635.066C30.017,649.33 42.706,660.944 51.832,675.467C52.042,664.661 52.24,653.851 52.387,643.042C52.518,633.346 52.007,623.339 52.905,613.609ZM946.058,613.79C946.665,634.303 947.049,654.803 946.903,675.326C950.112,672.167 953.599,669.198 956.31,665.57C958.894,662.111 961.441,658.705 964.154,655.336C969.299,648.949 974.926,643.148 979.56,636.36C977.509,635.037 975.46,633.713 973.413,632.385C964.155,626.38 955.196,619.971 946.058,613.79ZM329.341,609.459C329.551,608.993 329.904,608.659 330.405,608.631C346.242,607.741 362.095,606.816 377.958,606.571C386.058,606.445 394.164,606.528 402.259,606.808C409.03,607.043 416.271,606.576 422.69,609.057C423.608,609.413 423.704,610.63 423.649,611.449C422.443,629.498 426.581,647.8 421.164,665.458C421.006,665.971 420.556,666.547 419.968,666.555C404.336,666.756 388.687,666.852 373.068,667.624C365.424,668.002 357.77,668.123 350.127,668.515C342.889,668.886 336.272,669.228 329.308,667.216C328.895,667.097 328.615,666.521 328.56,666.136C325.936,647.743 325.951,629.401 328.416,610.982C328.541,610.048 328.909,609.583 329.341,609.459ZM394.181,633.83C388.235,638.151 382.295,642.481 375.969,646.224C375.753,646.352 375.519,646.224 375.339,646.115C369.497,642.547 363.541,638.874 357.684,635.006C357.66,635.035 357.634,635.063 357.608,635.091C352.659,640.106 348.466,646.132 343.75,651.461C340.087,655.599 336.85,660.273 333.102,664.361C346.621,665.082 360.455,663.992 373.975,663.86C388.087,663.721 402.195,663.042 416.291,662.405C411.802,658.808 408.538,653.721 404.977,649.307C400.949,644.314 397.617,639.199 394.181,633.83ZM420.969,613.826C413.8,620.022 405.925,625.373 398.233,630.896C397.542,631.393 396.852,631.891 396.162,632.391C399.289,637.322 402.834,642.208 406.285,646.864C410.202,652.15 415.29,656.541 418.832,662.123C418.861,662.17 418.887,662.225 418.908,662.287L418.982,662.284C423.513,646.519 420.417,630.002 420.969,613.826ZM330.973,614.363C328.988,629.974 328.774,645.796 330.165,661.468C333.592,657.312 337.713,653.672 341.27,649.622C345.938,644.306 351.389,639.257 355.586,633.608C346.873,627.756 338.436,621.443 330.973,614.363ZM418.15,611.611C411.781,610.021 404.942,610.127 398.444,609.904C390.995,609.648 383.547,609.677 376.097,609.876C362.038,610.248 348.021,611.293 334.006,612.407C340.583,617.133 346.908,622.371 353.231,627.386C356.673,630.116 360.256,632.631 363.827,635.189C366.655,637.216 372.186,643 375.645,642.823C377.67,642.72 379.481,640.449 381.106,639.244C383.076,637.783 385.121,636.42 387.129,635.01C390.7,632.504 394.255,629.975 397.802,627.437C404.81,622.423 411.475,617.043 418.15,611.611ZM621.439,557.753C621.601,557.471 621.856,557.253 622.187,557.183C635.234,554.402 648.859,557.347 662.052,557.469C674.884,557.588 687.685,556.649 700.523,556.885C704.148,556.951 708.334,556.099 710.011,560.153C711.859,564.624 711.341,570.957 711.725,575.731C712.736,588.302 713.278,601.006 711.307,613.516C711.19,614.254 710.749,615.161 709.904,615.226C695.442,616.329 681.047,616.959 666.574,617.678C659.342,618.037 652.119,618.186 644.876,618.114C637.567,618.041 630.427,617.042 623.154,616.553C622.646,616.518 622.312,616.014 622.239,615.542C619.642,598.712 619.006,581.059 621.337,564.156C621.456,562.802 621.461,561.464 621.369,560.099L621.35,560.083C620.731,559.596 620.874,558.116 621.439,557.753ZM685.712,578.393C684.879,579.006 684.043,579.617 683.203,580.222C680.074,582.478 676.32,583.965 673.563,586.668C671.355,588.834 670.152,591.11 666.733,590.873C663.067,590.618 659.573,587.586 656.805,585.521C654.694,583.946 652.555,582.419 650.379,580.947C645.551,587.15 640.677,593.259 636.248,599.765C633.024,604.501 629.935,609.449 626.154,613.778C639.553,613.898 653.052,613.408 666.469,613.394C680.043,613.38 693.865,612.352 707.386,610.923C706.171,608.264 703.764,605.646 702.056,603.436C700.201,601.036 698.289,598.788 696.596,596.255C692.894,590.715 689.156,585.009 685.916,579.189C685.796,578.974 685.731,578.695 685.712,578.393ZM623.36,561.67C623.364,562.045 623.361,562.42 623.353,562.794C623.695,563.208 623.914,563.83 623.816,564.518C621.54,580.541 621.159,596.035 623.558,611.983C632.96,602.158 639.45,589.929 648.105,579.438C646.909,578.66 645.702,577.9 644.481,577.157C637.086,572.661 630.172,567.062 623.36,561.67ZM707.272,562.251C700.63,566.985 694.232,572.042 687.699,576.919C691.842,583.23 695.422,589.931 699.535,596.276C701.776,599.729 704.031,602.68 706.675,605.826C707.606,606.933 708.313,607.98 708.782,609.201C709.962,598.72 709.962,588.257 709.276,577.708C709.048,574.184 709.63,565.986 707.272,562.251ZM705.007,560.438C702.337,559.509 698.542,559.968 695.795,559.921C693.231,559.878 690.666,559.881 688.101,559.902C676.888,559.998 665.642,560.505 654.432,560.141C644.449,559.817 634.525,558.245 624.618,559.747C630.849,564.419 637.377,568.574 643.649,573.201C646.982,575.66 650.267,578.09 653.786,580.293C655.64,581.454 657.566,582.469 659.454,583.564C661.099,584.518 663.653,586.953 665.308,587.457C669.634,588.772 671.966,584.1 674.972,582.1C678.306,579.881 681.821,578.033 685.053,575.615C691.743,570.612 698.461,565.629 705.007,560.438ZM810.606,397.711C810.681,397.678 810.765,397.657 810.858,397.654C820.051,397.324 829.28,397.995 838.482,397.925C847.63,397.855 856.763,397.412 865.89,396.789C883.833,395.562 901.822,394.168 919.724,396.699C920.705,396.838 921.219,397.886 921.192,398.819C920.532,421.487 920.231,444.136 921.026,466.804C921.053,467.582 920.659,469.119 919.605,469.09C901.392,468.582 883.18,467.853 864.967,467.41C856.034,467.193 847.076,466.895 838.138,466.939C828.871,466.984 819.543,467.49 810.309,466.514C809.235,466.401 809.004,465.107 809.097,464.233C811.329,443.364 811.844,422.484 809.69,401.584C809.686,401.539 809.683,401.494 809.681,401.451C808.424,400.456 808.891,396.947 810.541,397.682L810.606,397.711ZM61.644,403.742L61.44,403.713C60.452,403.567 60.325,401.429 61.384,401.401C76.364,400.995 91.306,401.607 106.311,400.863C121.315,400.119 136.271,398.786 151.277,398.112C154.975,397.946 160.251,396.913 161.9,401.229C162.54,402.904 162.234,404.497 162.042,406.224C161.591,410.275 161.242,414.219 161.36,418.303C161.785,433.1 163.725,447.961 165.012,462.705C165.067,463.342 164.699,464.511 163.886,464.514C147.08,464.578 130.283,464.833 113.481,465.162C105.241,465.323 96.999,465.228 88.765,465.377C80.245,465.53 71.593,466.935 63.088,466.538C62.131,466.494 61.945,465.245 62.018,464.522C63.02,454.512 61.677,444.049 61.783,433.979C61.885,424.285 61.551,414.638 61.398,404.946C61.391,404.503 61.49,404.154 61.648,403.9C61.645,403.848 61.644,403.795 61.644,403.742ZM852.37,426.576C852.335,427.095 852.172,427.575 851.85,427.86C844.675,434.196 837.529,440.56 830.467,447.021C826.722,450.449 823.016,453.916 819.244,457.316C817.481,458.904 815.716,461.103 813.67,462.593C821.775,462.104 829.932,462.626 838.039,462.854C846.974,463.105 855.925,463.087 864.865,463.222C882.069,463.482 899.239,463.761 916.434,464.462C913.951,462.533 911.769,459.618 909.769,457.633C906.614,454.499 903.452,451.372 900.37,448.166C893.766,441.293 887.456,434.139 880.764,427.354C876.159,430.398 871.554,433.442 866.958,436.497C866.674,436.686 866.12,436.537 865.903,436.313C861.945,432.236 857.284,429.21 852.37,426.576ZM128.98,428.223C127.227,430.101 125.463,431.969 123.663,433.802C121.296,436.213 117.995,440.556 114.583,441.434C111.421,442.246 107.989,438.476 105.663,436.821C101.763,434.046 97.911,431.201 94.057,428.358C88.431,435.587 82.124,442.419 76.366,449.576C73.098,453.638 70.76,457.977 67.84,462.248C67.709,462.439 67.579,462.635 67.448,462.828C74.479,462.282 81.689,462.649 88.69,462.299C96.93,461.886 105.123,461.301 113.381,461.104C128.935,460.732 144.5,460.71 160.059,460.903C150.036,449.626 139.641,438.933 128.98,428.223ZM63.575,406.165C63.59,415.432 63.462,424.665 63.733,433.931C64.008,443.294 63.032,453.042 63.848,462.398C65.54,459.931 67.537,457.549 69.403,455.229C72.726,451.095 75.289,446.416 78.467,442.167C81.044,438.721 83.797,435.385 86.577,432.101C87.77,430.691 89.466,427.7 91.416,426.413L91.176,426.236C82.011,419.496 72.721,412.928 63.575,406.165ZM917.67,400.609C917.862,401.57 917.733,402.662 917.126,403.077C905.965,410.687 894.696,418.145 883.423,425.596C889.725,432.596 896.464,439.201 902.952,446.03C906.061,449.302 909.114,452.629 912.207,455.917C914.106,457.936 916.256,459.818 917.959,461.997C917.508,441.573 917.437,421.126 918.285,400.72C918.081,400.683 917.877,400.646 917.67,400.609ZM158.216,402.245C158.095,402.471 157.933,402.658 157.728,402.779C148.578,408.175 141.071,415.262 133.861,422.976C132.928,423.974 131.998,424.976 131.068,425.978C142.142,436.601 152.631,448.252 162.422,460.063C161.225,447.381 159.814,434.692 158.984,421.986C158.788,418.977 158.675,415.96 158.789,412.946C158.882,410.469 159.764,407.665 159.578,405.259C159.461,403.756 158.961,402.82 158.216,402.245ZM812.105,402.69C814.381,421.469 814.692,440.478 812.281,459.249C813.914,457.269 815.939,455.557 817.762,453.721C821.363,450.093 825.101,446.615 828.881,443.174C835.669,436.996 842.687,431.089 849.729,425.205C845.796,423.223 841.755,421.411 837.826,419.447C833.355,417.213 828.968,414.843 824.929,411.886C820.639,408.746 816.749,405.232 812.105,402.69ZM354.018,382.836C370.49,380.847 387.478,380.909 404.017,381.786C420.548,382.662 437.262,384.922 453.765,382.596C454.811,382.449 455.154,384.007 455.229,384.71C457.656,407.449 457.23,430.651 454.864,453.378C454.798,454.006 454.291,455.054 453.519,455.017C419.074,453.343 384.556,452.316 350.071,452.345C349.194,452.346 348.846,451.24 348.819,450.537C347.96,428.245 348.692,405.599 351.883,383.504C352.142,381.709 353.37,381.879 354.018,382.836ZM452.724,388.93C448.075,391.046 443.941,394.471 439.811,397.433C436.118,400.082 432.304,402.52 428.58,405.116C426.237,406.75 423.943,408.453 421.67,410.185C427.022,416.881 431.901,423.648 436.629,430.798C441.284,437.837 446.695,444.173 452.246,450.501C454.269,429.922 454.198,409.514 452.724,388.93ZM387.457,410.685C387.383,410.807 387.294,410.925 387.19,411.037C375.771,423.376 363.708,435.412 353.233,448.648C384.997,448.462 416.716,448.942 448.441,450.406C443.938,445.449 440.009,440.199 436.14,434.612C430.912,427.062 426.286,418.769 420.169,411.923C420.067,411.808 419.987,411.671 419.928,411.521C414.622,415.609 409.393,419.799 403.871,423.574C403.446,423.865 402.949,424.024 402.519,423.608C397.786,419.038 392.724,414.754 387.457,410.685ZM353.964,388.007C351.591,407.685 350.425,427.269 351.1,447.093C356.482,441.376 361.589,435.135 366.613,429.151C369.882,425.257 373.042,421.431 376.403,417.611C379.053,414.601 383.219,412.528 384.982,408.798C375.008,401.302 364.393,394.526 353.964,388.007ZM153.286,401.408C152.642,401.436 151.992,401.472 151.359,401.482C148.099,401.534 144.836,401.661 141.578,401.791C128.201,402.323 114.862,403.189 101.493,403.889C89.881,404.498 77.671,405.397 65.974,404.263C74.241,410.118 82.394,416.13 90.661,421.983C94.984,425.044 99.299,428.117 103.608,431.196C105.69,432.683 107.791,434.716 110.047,435.902C111.962,436.909 113.246,437.455 115.592,436.311C116.438,435.898 117.315,434.718 118,434.067C129.479,423.144 139.973,410.223 153.286,401.408ZM914.402,400.078C882.05,395.301 849.018,404.415 816.509,400.986C822.792,405.091 828.297,410.421 835,413.948C842.749,418.024 851.082,420.887 858.493,425.613C860.384,426.819 862.218,428.121 863.926,429.577C865.083,430.563 865.54,431.458 866.966,431.5C868.325,431.54 870.101,429.84 871.112,429.16C876.088,425.811 881.065,422.463 886.042,419.114C895.487,412.758 904.893,406.339 914.402,400.078ZM448.918,387.191C433.937,387.869 419.1,386.585 404.113,385.716C387.896,384.776 371.894,385.384 355.712,386.171C363.318,390.684 370.92,395.253 378.19,400.285C382.387,403.19 386.519,406.189 390.552,409.318C394.028,412.014 397.769,416.51 401.717,418.378C404.905,419.885 410.733,414.082 413.69,412.079C418.627,408.737 423.612,405.379 428.392,401.817C432.329,398.882 436.214,395.935 440.258,393.142C443.135,391.156 445.875,388.894 448.918,387.191ZM610,316.751C624.429,317.09 638.825,316.236 653.247,316.276C668.211,316.318 683.152,316.716 698.108,316.293C699.159,316.263 699.544,317.627 699.593,318.436C700.764,338.13 700.771,358.232 699.208,377.902C699.16,378.509 698.68,379.389 697.983,379.396C690.313,379.474 682.709,380.245 675.052,380.586C667.738,380.912 660.402,380.448 653.094,380.869C645.369,381.314 637.877,381.292 630.136,380.94C626.778,380.788 623.496,380.101 620.132,379.982C616.114,379.839 612.187,380.458 608.171,380.495C607.415,380.502 607.017,379.492 607.041,378.863C607.834,358.488 608.109,338.122 607.915,317.732C607.898,315.952 609.425,315.609 610,316.751ZM640.358,342.795C640.344,342.813 640.329,342.831 640.313,342.848C634.686,348.817 630.73,355.842 625.754,362.313C621.527,367.808 616.409,372.478 611.571,377.412C614.404,377.664 617.217,377.999 620.082,377.937C623.762,377.856 627.36,377.161 631.037,376.987C638.414,376.639 645.622,376.539 652.992,376.728C660.638,376.922 668.295,376.1 675.936,375.972C681.756,375.875 687.544,375.952 693.344,375.692C689.106,371.721 686.54,366.301 682.961,361.773C677.947,355.429 673.012,349.157 667.328,343.397C665.227,344.772 663.144,346.174 661.105,347.634C658.702,349.354 656.311,352.333 653.243,351.878C649.801,351.368 647.174,347.646 644.577,345.633C643.232,344.591 641.808,343.672 640.358,342.795ZM610.338,321.852C610.815,339.822 610.485,357.811 609.41,375.75C615.558,370.003 621.08,363.543 626.258,356.923C630.289,351.77 633.715,346.261 638.275,341.562C636.132,340.312 633.985,339.07 631.994,337.586C628.263,334.806 624.812,331.662 621.067,328.895C617.712,326.418 613.512,324.596 610.338,321.852ZM696.815,320.971C689.535,327.25 682.385,333.662 674.301,338.892C672.646,339.963 670.983,341.026 669.326,342.097C673.85,346.722 678.355,351.522 682.176,356.712C686.606,362.729 690.043,369.298 696.014,373.992C696.406,374.301 696.575,374.904 696.566,375.51L696.686,375.502C697.23,357.278 697.398,339.195 696.815,320.971ZM693.091,320.239C679.853,319.329 666.607,319.525 653.329,319.627C638.972,319.736 624.631,319.049 610.271,319.503L610.273,319.549C613.463,320.276 616.499,322.669 619.142,324.448C622.965,327.022 626.626,329.687 630.188,332.613C634.292,335.984 638.743,338.07 643.293,340.687C646.549,342.561 649.178,345.296 652.028,347.708C654.418,349.733 654.763,349.226 656.579,347.299C658.136,345.647 660.003,344.24 661.821,342.89C665.11,340.448 668.674,338.405 672.118,336.197C679.549,331.434 686.438,326.006 693.091,320.239ZM238.344,234.392C238.564,234.096 238.865,233.897 239.249,233.865C255.424,232.54 271.626,232.549 287.836,231.914C296.087,231.591 304.391,231.573 312.643,231.851C320.597,232.118 328.486,233.067 336.435,232.725C337.597,232.675 338.052,234.227 338.092,235.118C338.757,249.96 338.527,264.878 338.807,279.733C338.879,283.613 338.953,287.492 339.023,291.372C339.075,294.227 339.646,297.676 339.086,300.481C338.171,305.064 334.175,304.226 330.269,304.318C315.448,304.668 300.465,305.191 285.66,305.044C278.081,304.968 270.395,304.854 262.836,304.293C255.552,303.752 247.27,302.859 240.028,304.023C239.338,304.134 238.85,303.137 238.759,302.622C234.873,280.729 235.137,257.499 237.563,235.481C237.639,234.792 237.969,234.457 238.344,234.392ZM305.079,259.292C299.172,263.282 293.256,267.259 287.33,271.221C287.049,271.409 286.656,271.223 286.428,271.065C281.785,267.844 277.07,264.762 272.395,261.618C272.388,262.04 272.293,262.443 272.086,262.749C263.281,275.77 253.773,288.412 243.834,300.621C249.393,301.089 255.478,300.712 260.754,300.267C267.651,299.685 274.632,299.63 281.555,299.403C294.725,298.972 308.017,299.198 321.214,299.06C324.519,299.025 327.824,298.986 331.129,298.942C331.103,298.942 333.347,299.052 334.702,299.134C332.707,296.572 331.152,293.637 329.222,291.021C326.757,287.681 324.082,284.495 321.549,281.207C315.979,273.973 310.412,266.705 305.079,259.292ZM239.448,239.076C238.978,249.018 238.821,259.041 238.94,268.978C239.064,279.226 240.244,289.341 241.065,299.528C251.011,286.566 260.062,272.935 270.052,260.033C267.666,258.409 265.294,256.759 262.954,255.056C255.213,249.425 246.89,245.188 239.464,239.089L239.448,239.076ZM334.862,238.73C330.863,241.629 326.693,244.31 322.631,247.148C319.256,249.506 315.933,251.943 312.525,254.254C310.811,255.416 309.096,256.577 307.38,257.737C312.842,264.469 318.124,271.374 323.376,278.269C327.41,283.564 332.592,289.479 335.758,295.654C335.702,295.039 335.651,294.54 335.649,294.365C335.577,287.898 335.508,281.432 335.44,274.965C335.315,262.898 334.798,250.801 334.862,238.73ZM331.074,236.888C324.67,236.292 318.206,236.386 311.759,236.246C303.816,236.074 295.873,235.89 287.93,235.716C272.929,235.388 258.008,236.649 243.066,237.834C250.802,242.471 257.626,248.27 265.356,252.989C269.119,255.287 272.574,257.823 276.136,260.413C279.365,262.76 284.908,268.016 288.781,266.28C292.601,264.567 296.125,261.023 299.622,258.658C304.087,255.639 308.398,252.406 312.851,249.372C318.931,245.231 324.965,240.955 331.074,236.888ZM0,174.76C6.165,175.104 12.329,175.473 18.494,175.843C35.825,176.881 53.314,177.627 70.569,179.423C70.891,179.456 71.124,179.769 71.229,180.141C71.513,180.405 71.713,180.822 71.691,181.34C70.774,202.804 69.04,224.226 67.891,245.68C68.327,247.297 67.135,249.841 65.74,248.235C43.816,247.546 21.907,246.813 0,245.923L0,242.007C21.115,242.861 42.223,243.86 63.337,244.904C61.327,241.869 59.543,238.693 57.248,235.909C54.438,232.5 51.46,229.236 48.654,225.824C42.983,218.924 37.449,211.927 31.912,204.931C29.616,206.073 27.372,207.34 25.099,208.828C21.047,211.479 16.972,214.112 12.131,214.958C11.689,215.036 11.332,214.505 11.19,214.176C10.064,211.575 6.499,210.157 4.3,208.601C3.322,207.909 2.375,207.177 1.447,206.421C1.417,206.455 1.386,206.488 1.352,206.518C0.902,206.931 0.451,207.342 0,207.752L0,201.608C1.273,202.705 2.564,203.782 3.893,204.814C5.772,206.272 7.83,207.455 9.731,208.868C10.916,209.748 11.804,211.111 13.242,211.189C15.189,211.293 18.709,208.89 20.365,208.051C22.451,206.994 24.486,205.841 26.532,204.711C28.361,203.701 30.169,202.791 31.993,201.949C32.055,201.909 32.12,201.878 32.188,201.859C34.898,200.617 37.647,199.525 40.564,198.48C49.887,195.14 57.236,187.554 65.675,182.22C59.448,182.659 52.934,181.545 46.829,181.078C37.729,180.379 28.655,179.485 19.543,178.9C13.032,178.482 6.517,178.147 0,177.866L0,174.76ZM1000,245.923C988.176,245.443 976.354,244.917 964.53,244.329C963.881,244.297 963.444,243.629 963.356,243.034C960.006,220.292 964.431,197.786 963.713,174.992C963.694,174.387 963.997,173.191 964.819,173.214C976.555,173.536 988.279,174.104 1000,174.76L1000,177.866C989.043,177.394 978.078,177.076 967.113,176.773C974.227,183.76 983.68,187.768 991.361,194.089C994.308,196.515 997.109,199.115 1000,201.608L1000,207.752C993.966,213.247 987.907,218.641 982.462,224.747C977.758,230.023 973.442,235.762 968.511,240.853C979.01,241.194 989.505,241.582 1000,242.007L1000,245.923ZM69.431,183.053C64.929,186.67 59.941,189.751 54.982,192.683C50.223,195.497 45.42,199.287 40.269,201.293C38.232,202.086 36.289,202.887 34.398,203.748C39.916,210.082 45.189,216.558 50.218,223.309C53.127,227.212 55.684,231.437 58.744,235.221C60.994,238.002 63.609,240.383 65.97,243.078C67.212,223.076 67.985,203.042 69.431,183.053ZM966.077,178.652C966.191,199.256 962.202,220.112 965.379,240.576C971.463,235.2 976.096,228.427 981.477,222.359C987.023,216.105 992.615,209.81 998.81,204.185C998.622,204.021 998.434,203.857 998.247,203.692C994.577,200.469 991.042,197.099 987.009,194.32C979.755,189.321 972.039,185.199 966.077,178.652ZM705.325,168.77C705.214,168.644 705.12,168.458 705.058,168.202C703.91,163.48 709.543,163.223 712.879,162.69C721.512,161.31 730.18,160.846 738.924,160.623C748.01,160.392 756.992,158.972 766.072,158.802C775.098,158.632 784.148,159.076 793.092,160.31C794.359,160.485 794.599,161.917 794.508,162.975C792.945,181.21 798.846,198.894 797.879,217.141C797.846,217.785 797.628,218.941 796.754,218.951C782.086,219.113 767.386,219.766 752.731,220.338C738.065,220.909 723.439,222.484 708.747,221.386C707.824,221.317 707.498,220.295 707.451,219.512C706.408,202.611 705.117,185.716 705.325,168.77ZM734.895,184.105C731.064,190.651 726.549,196.852 722.178,203.047C719.846,206.353 717.597,209.707 715.32,213.051C714.199,214.698 713.324,216.369 711.963,217.643C725.515,217.913 739.124,218.13 752.653,217.158C766.396,216.169 780.004,215.087 793.781,215.32C783.703,205.786 775.479,194.306 765.406,184.77C762.911,186.922 760.435,189.106 757.974,191.278C756.172,192.868 754.246,195.657 751.553,194.946C750.232,194.598 749.365,193.426 748.302,192.641C746.391,191.231 744.282,190.074 742.284,188.795C739.826,187.22 737.363,185.659 734.895,184.105ZM707.682,169.02C707.96,185.241 708.141,201.454 709.759,217.599L709.917,217.602C711.612,211.279 717.404,205.191 720.94,199.726C724.668,193.967 728.353,188.076 732.519,182.612C731.707,182.103 730.894,181.595 730.081,181.087C722.927,176.619 714.742,173.58 707.682,169.02ZM790.841,164.232C784.872,171.38 775.853,175.945 768.771,181.901C768.3,182.297 767.83,182.695 767.36,183.094C769.381,184.232 770.902,186.245 772.475,187.932C775.169,190.819 777.844,193.724 780.507,196.64C785.558,202.171 791.002,207.53 795.642,213.418C795.678,196.989 790.673,180.812 791.6,164.338C791.347,164.302 791.095,164.267 790.841,164.232ZM785.714,163.594C773.774,162.274 761.6,162.044 749.651,162.396C742.289,162.612 734.989,164.005 727.679,164.815C724.636,165.152 721.54,165.624 718.485,165.78C717.604,165.824 710.352,165.63 707.588,166.532C707.607,166.615 707.621,166.703 707.631,166.795C715.173,168.613 722.559,173.465 729.316,177.043C736.406,180.797 742.553,185.675 749.237,190.014C752.215,191.946 753.512,190.946 756.066,189.022C757.826,187.695 759.48,186.245 761.195,184.863C764.64,182.085 768.185,179.547 771.451,176.547C775.933,172.431 780.566,167.305 785.714,163.594ZM514.808,124.013C514.951,124.344 515.026,124.73 514.99,125.137C513.281,144.389 514.717,163.972 511.996,183.114C511.912,183.703 511.545,184.201 510.923,184.089C497.322,181.627 482.975,183.093 469.232,182.626C465.905,182.513 462.66,181.846 459.348,181.659C455.735,181.455 452.127,181.727 448.513,181.646C441.923,181.497 435.373,181.12 428.81,180.517C425.688,180.23 419.698,181.088 418.403,177.442C417.793,175.725 418.461,173.361 418.577,171.575C418.791,168.284 419.039,164.996 419.298,161.708C420.422,147.435 421.545,133.116 421.809,118.797C421.82,118.211 422.081,116.932 422.935,116.988C442.819,118.3 462.734,119.458 482.626,120.577C487.884,120.873 493.152,121.273 498.42,121.36C499.945,121.385 501.505,121.462 503.026,121.269C505.391,120.967 507.362,119.612 509.666,119.322C512.944,118.909 515.184,121.223 514.808,124.013ZM480.611,147.968C476.127,150.718 471.748,153.606 468.151,157.495C467.885,157.783 467.469,157.747 467.185,157.519C463.718,154.734 460.156,152.073 456.589,149.418C450.821,154.03 444.954,158.569 439.292,163.296C436.19,165.886 433.141,168.528 430.105,171.194C428.168,172.897 425.843,174.395 423.718,175.994C424.608,175.965 425.424,175.935 425.749,175.955C427.391,176.054 429.031,176.174 430.673,176.281C433.637,176.475 436.588,176.676 439.542,176.988C445.773,177.646 452.051,178.633 458.298,179.009C464.793,179.4 471.49,178.991 478.027,179.042C488.361,179.122 498.255,179.004 508.33,180.85C498.302,171.186 490.833,158.921 481.03,148.995C480.801,148.763 480.665,148.385 480.611,147.968ZM512.55,124.899C505.428,131.286 497.617,136.823 489.742,142.241C487.481,143.797 485.121,145.228 482.762,146.659C493.432,156.205 500.789,169.078 510.464,179.637C511.674,161.465 510.649,143.174 512.584,125.045C512.572,124.997 512.56,124.948 512.55,124.899ZM424.204,120.599L424.175,120.598C424.285,132.357 423.326,144.019 422.21,155.725C421.897,159.002 421.618,162.281 421.354,165.562C421.249,166.859 419.803,175.346 420.606,175.933C420.655,175.969 420.785,175.994 420.972,176.01C423.961,173.545 426.647,170.248 429.64,167.746C432.494,165.36 435.318,162.941 438.152,160.531C443.421,156.052 448.561,151.66 454.093,147.559C451.175,145.383 448.268,143.193 445.421,140.925C437.972,134.993 431.353,128.218 424.625,121.5C424.411,121.287 424.274,120.964 424.204,120.599ZM428.388,120.785C434.878,126.783 441.429,132.738 448.108,138.518C450.963,140.988 453.887,143.373 456.82,145.749C457.228,145.721 457.542,146.039 457.727,146.483L458.088,146.776C460.227,148.506 465.506,154.427 468.061,153.627C469.238,153.258 471.506,150.037 472.67,149.159C474.041,148.124 475.513,147.208 476.972,146.307C480.385,144.199 483.871,142.212 487.284,140.104C495.669,134.925 503.283,128.845 510.85,122.568C508.974,122.81 506.397,123.666 506.226,123.71C504.925,124.049 503.67,124.209 502.331,124.25C499.087,124.349 495.803,123.93 492.563,123.779C484.672,123.414 476.77,123.27 468.883,122.891C455.381,122.24 441.89,121.41 428.388,120.785ZM983.959,0C983.51,17.013 982.651,34.002 982.111,51.016C982.092,51.631 981.877,52.604 981.094,52.651C966.213,53.547 951.135,52.593 936.229,52.406C921.274,52.217 906.289,51.814 891.343,51.277C890.194,51.236 889.6,49.798 889.632,48.805C890.066,35.147 890.406,21.486 890.775,7.826C890.846,5.217 890.928,2.608 891.02,0L893.642,0C893.42,4.5 893.797,9.249 893.698,13.605C893.463,23.9 893.211,34.194 893.011,44.488C897.595,38.665 903.63,33.74 908.712,28.413C912.176,24.783 915.495,21.23 918.453,17.158C919.565,15.628 920.694,14.195 922.065,13.009C919.55,11.184 917.036,9.357 914.532,7.511C911.149,5.017 907.672,2.571 904.302,0L910.992,0C912.927,1.382 914.851,2.759 916.706,4.172C920.341,6.941 923.87,9.85 927.485,12.645C929.274,14.028 931.178,15.2 933.002,16.527C935.157,18.094 935.857,19.608 938.392,18.235C942.227,16.158 945.833,12.629 949.443,10.107C952.557,7.932 955.711,5.815 958.906,3.762C960.935,2.458 963.007,1.209 965.109,0L972.558,0C968,2.771 963.526,5.666 959.03,8.577C956.73,10.066 954.49,11.663 952.269,13.293C954.968,15.32 956.923,18.717 959.097,21.25C961.477,24.021 963.735,26.865 965.997,29.731C968.465,32.858 970.876,35.993 973.203,39.228C975.267,42.097 977.14,45.744 980.085,47.831C980.503,31.887 980.68,15.946 981.219,0L983.959,0ZM950.532,14.574C946.232,17.762 941.96,20.997 937.41,23.729C937.095,23.918 936.668,23.749 936.412,23.556C932.696,20.745 928.933,17.997 925.162,15.257C919.427,20.495 914.659,26.605 909.453,32.35C905.208,37.034 900.621,42.639 895.216,46.315C908.841,46.54 922.491,46.882 936.106,47.4C949.403,47.907 962.862,47.82 976.136,48.955C975.182,47.852 974.301,46.665 973.324,45.54C970.531,42.323 967.918,38.95 965.448,35.479C962.751,31.689 959.977,27.959 957.282,24.168C955.047,21.023 952.198,18.25 950.589,14.734C950.567,14.685 950.548,14.632 950.532,14.574ZM243.076,0C243.078,10.016 243.493,19.895 244.94,30.09C245.113,31.308 244.776,33.481 243.072,33.094C227.334,29.53 210.423,33.39 194.409,32.942C178.814,32.507 163.081,31.025 147.61,33.849C146.618,34.03 146.462,32.315 146.504,31.768C147.311,21.232 147.244,10.596 146.55,0L148.956,0C149.397,9.423 149.313,18.865 148.861,28.371C151.568,26.037 153.07,22.285 154.911,19.319C157.158,15.698 159.79,12.302 162.427,8.961C164.838,5.909 167.191,2.921 169.624,0L173.595,0C169.53,5.103 165.436,10.178 161.698,15.525C159.107,19.231 156.174,22.791 153.722,26.578C153.09,27.554 152.598,28.679 151.99,29.653C166.324,27.31 180.739,29.027 195.255,29.065C209.441,29.102 223.368,27.053 237.505,27.854C236.115,26.119 234.897,24.233 233.398,22.514C230.263,18.917 226.717,16.083 223.348,12.754C219.023,8.48 214.779,4.18 210.401,0L214.755,0C218.357,3.213 221.878,6.52 225.191,10.014C228.405,13.403 231.05,17.193 234.339,20.538C236.788,23.028 239.457,24.914 241.479,27.701C240.424,18.41 239.888,9.288 240.012,0L243.076,0ZM679.14,0C679.204,2.529 679.27,5.057 679.334,7.586C679.389,9.695 679.966,12.714 678.809,14.703C676.656,18.407 668.486,17.055 664.888,17.148C649.752,17.541 634.563,16.595 619.421,16.495C604.156,16.395 588.945,16.553 573.707,15.88C572.526,15.827 572.029,14.421 572.007,13.425C571.91,8.949 571.84,4.473 571.8,0L575.032,0C575.067,2.892 575.114,5.784 575.175,8.675C577.741,5.766 580.34,2.874 582.957,0L587.454,0C583.956,3.567 580.439,7.08 577.162,10.912C603.502,11.174 629.835,13.648 656.205,12.997C659.698,12.91 663.193,12.802 666.684,12.632C668.179,12.56 672.546,12.866 674.779,12.274C670.934,8.329 667.272,4.161 663.62,0L667.185,0C670.286,3.256 673.423,6.473 676.477,9.777C676.497,9.798 676.516,9.821 676.534,9.845C676.805,7.369 676.217,3.454 676.18,1.834L676.137,0L679.14,0ZM197.095,0C195.832,0.913 194.608,1.882 193.436,2.929C193.125,3.208 192.819,3.16 192.493,2.953C191.016,2.014 189.567,1.011 188.121,0L197.095,0Z" style="fill-rule:nonzero;"/>
</svg>
