<?xml version="1.0" encoding="UTF-8" standalone="no"?>
<!DOCTYPE svg PUBLIC "-//W3C//DTD SVG 1.1//EN" "http://www.w3.org/Graphics/SVG/1.1/DTD/svg11.dtd">
<svg width="100%" height="100%" viewBox="0 0 1000 1000" version="1.1" xmlns="http://www.w3.org/2000/svg" xmlns:xlink="http://www.w3.org/1999/xlink" xml:space="preserve" xmlns:serif="http://www.serif.com/" style="fill-rule:evenodd;clip-rule:evenodd;stroke-linejoin:round;stroke-miterlimit:2;">
    <path d="M770.26,1000C776.841,995.96 784.376,993.495 791.763,991.196C797.819,986.483 806.278,984.939 813.85,985.783C823.822,986.895 831.523,992.261 837.24,1000L770.26,1000ZM510.512,1000C510.367,998.061 510.313,996.119 510.366,994.179C510.656,983.551 514.214,972.376 522.784,965.536C530.886,959.072 542.455,953.455 553.224,953.028C558.901,951.385 564.848,949.898 570.628,949.951C577.336,950.014 583.581,952.544 589.449,955.601C595.33,958.665 601.798,961.938 606.385,966.846C614.189,975.197 613.829,987.474 613.77,998.154C613.766,998.77 613.759,999.385 613.747,1000L510.512,1000ZM107.38,1000C100.527,986.653 98.28,969.896 100.313,956.965C104.03,933.329 121.11,913.724 143.353,906.191C151.922,899.788 163.238,897.492 173.916,900.545C181.439,902.695 187.864,907.333 192.689,913.427C195.462,916.929 197.77,920.009 201.82,922.1C204.845,923.66 207.898,924.988 209.942,927.851C213.807,933.264 213.438,940.64 216.853,946.435C220.214,952.138 224.661,957.12 227.742,963.002C233.928,974.811 231.383,987.418 222.394,997.008C221.413,998.054 220.387,999.05 219.318,1000L107.38,1000ZM392.898,920.482C402.7,926.945 409.358,938.33 408.491,950.771C407.822,960.383 403.265,969.996 395.477,975.85C385.461,983.378 372.59,982.432 360.76,983.153C349.277,983.853 335.179,991.083 324.505,984.184C319.542,980.975 316.415,975.649 313.542,970.649C310.684,965.677 307.849,960.624 305.989,955.177C298.418,933.012 315.263,911.946 336.747,907.192C348.633,904.562 363.169,905.335 374.831,909.047C380.245,910.769 386.076,913.792 390.287,917.653C391.257,918.542 392.121,919.489 392.898,920.482ZM938.677,902.997C954.425,902.474 968.66,917.377 969.687,932.669C970.727,948.169 960.398,963.134 945.132,966.589C936.51,968.54 926.557,968.256 917.951,966.288C908.695,964.172 902.545,958.809 897.979,950.659C895.44,946.126 893.074,941.842 889.357,938.152C886.971,935.784 885.045,933.741 884.642,930.239C884.12,925.716 886.081,920.788 887.418,916.555C888.715,912.452 890.163,908.024 892.382,904.308C894.312,901.076 897.05,899.866 900.738,900.29C902.48,900.489 904.173,901.163 905.923,901.272C909.069,901.468 910.173,899.586 912.721,898.385C916.626,896.546 921.395,898.539 925.237,899.531C929.717,900.688 934.197,901.843 938.677,902.997ZM758.889,866.291C762.319,867.972 765.602,869.95 768.632,872.43C776.619,878.967 782.438,888.212 783.975,898.488C785.283,907.228 783.698,916.565 778.503,923.842C773.322,931.099 763.926,938.992 754.644,939.367C744.877,939.762 734.032,935.723 725.523,931.253C717.136,926.847 709.421,921.057 703.086,913.994C697.027,907.239 692.355,898.627 694.185,889.291C695.893,880.578 701.996,873.601 708.381,867.812C715.616,861.251 723.508,855.264 733.784,855.925C742.738,856.499 751.533,860.973 758.889,866.291ZM507.671,846.821C508.059,846.873 508.447,846.93 508.834,846.99C512.139,847.503 515.263,848.11 516.87,851.33C518.105,853.808 518.38,855.618 520.78,857.452C522.477,858.749 524.369,859.724 525.925,861.213C528.562,863.738 530.256,867.096 531.193,870.589C533.296,878.421 531.236,886.846 528.217,894.156C525.753,900.123 521.77,906.339 514.742,906.987C509.849,907.438 504.848,905.229 499.987,904.856C495.014,904.474 490.008,904.804 485.04,904.347C477.755,903.677 470.212,901.177 465.849,894.927C461.944,889.334 461.222,882.185 461.528,875.552C461.848,868.616 462.27,860.018 466.91,854.445C471.674,848.724 480.057,846.169 487.159,845.112C494.159,844.068 501.077,844.705 507.671,846.821ZM286.881,763.779C296.212,761.27 307.258,763.919 315.452,768.251C321.724,771.566 327.401,775.934 332.773,780.537C337.61,784.682 342.802,788.91 346.753,793.939C353.995,803.158 352.974,817.55 350.847,828.441C348.562,840.149 340.9,847.026 330.343,851.806C318.445,857.19 305.546,862.337 292.382,863.189C279.959,863.994 267.756,860.243 257.289,853.666C247.091,847.257 237.844,837.909 233.868,826.325C230.092,815.325 230.567,802.833 235.182,792.153C239.62,781.884 247.8,773.578 257.785,768.593C267.089,763.949 276.887,763.197 286.881,763.779ZM1000,819.191C987.18,825.701 971.649,826.459 957.724,820.688C946.603,816.078 937.885,807.488 931.126,797.7C924.775,788.502 916.766,776.819 917.662,765.179C919.362,743.072 940.909,726.291 961.927,724.457C968.095,723.621 973.969,726.811 979.762,728.487C986.522,730.442 993.551,730.865 1000,733.801L1000,819.191ZM643.169,732.865C647.225,731.439 651.726,731.023 655.93,731.562C662.279,732.375 668.23,734.769 674.009,737.414C679.71,740.025 682.2,742.369 684.932,747.961C689.901,758.133 696.306,768.418 691.224,779.8C688.672,785.515 684.815,790.743 681.503,796.036C678.4,800.995 675.527,806.232 671.971,810.887C665.904,818.829 656.868,821.096 647.274,821.285C641.149,821.405 634.994,820.995 628.875,820.778C623.492,820.586 617.538,820.934 612.372,819.104C603.134,815.831 599.077,805.858 598.271,796.797C597.335,786.266 598.014,773.901 600.904,763.697C603.703,753.811 610.179,746.615 619.066,741.679C625.824,737.926 634.806,733.365 643.169,732.865ZM0,733.801C0.252,733.915 0.502,734.034 0.752,734.156C6.013,736.736 10.678,740.406 14.556,744.783C29.222,761.337 30.203,785.783 17.638,803.852C12.985,810.543 6.884,815.696 0,819.191L0,733.801ZM149.463,697.248C157.862,697.194 166.244,701.279 171.497,707.904C174.142,711.24 175.599,714.842 179.792,716.587C182.633,717.771 185.586,718.063 188.278,719.66C192.821,722.356 195.933,726.979 197.646,731.897C206.224,756.526 183.947,778.01 166.995,792.126C162.649,795.746 157.856,799.175 152.137,800.07C145.923,801.043 139.369,798.96 133.326,797.688C127.901,796.545 119.825,796.415 115.371,792.656C111.334,789.249 113.554,784.023 111.078,779.988C108.349,775.541 102.415,773.418 98.584,770.065C94.673,766.642 92.033,762.146 89.852,757.487C85.018,747.157 79.765,734.852 85.288,723.765C90.302,713.702 101.608,707.224 111.586,703.076C123.565,698.095 136.555,696.169 149.463,697.248ZM475.45,702.371C484.831,703.041 493.532,706.005 501.239,711.606C504.436,713.929 509.059,716.697 510.418,720.604C511.14,722.683 510.715,724.697 510.471,726.803C510.142,729.652 510.093,732.445 510.117,735.307C510.183,743.338 509.36,750.726 503.764,756.904C498.137,763.118 489.496,767.057 481.795,769.971C472.878,773.346 464.32,773.216 455.675,769.088C448.808,765.81 439.838,761.228 435.718,754.564C427.881,741.885 435.676,721.346 444.962,711.506C450.441,705.701 458.023,701.817 466.009,701.15C468.026,700.98 472.829,700.915 475.45,702.371ZM782.307,673.831C789.343,673.486 796.786,675.805 803.161,678.406C813.842,682.764 824.263,689.145 830.63,699.032C836.289,707.821 840.57,720.622 840.032,731.125C839.524,741.045 833.513,748.682 825.561,754.13C817.121,759.913 806.588,765.028 796.604,767.31C784.678,770.035 775.278,764.496 765.857,757.814C749.013,745.864 733.517,728.966 735.082,706.889C735.761,697.315 739.83,688.057 747.747,682.33C757.096,675.568 769.553,672.918 780.909,673.136C781.486,673.147 781.953,673.413 782.307,673.831ZM364.058,557.543C371.687,559.854 378.458,565.749 382.467,572.614C390.527,586.415 388.673,603.717 385.061,618.562C383.408,625.353 381.34,631.637 376.6,636.934C371.414,642.728 365.222,647.924 359.258,652.898C347.842,662.418 334.673,670.604 319.584,672.198C305.767,673.657 292.916,668.227 282.942,658.843C275.342,651.693 264.009,639.624 267.559,628.249C268.573,625.001 270.746,622.262 271.812,619.056C273.311,614.545 271.961,610.253 271.293,605.742C270.396,599.688 270.955,593.631 273.037,587.867C277.666,575.054 288.177,565.13 298.334,556.542C303.757,551.958 309.524,547.252 316.321,544.897C323.171,542.524 329.853,543.334 336.502,545.917C344.072,548.859 352.342,550.948 359.67,554.394C361.347,555.182 362.785,556.268 364.058,557.543ZM543.528,563.971C552.207,554.623 563.155,548.856 576.599,550.658C584.295,551.69 591.472,554.774 598.293,558.357C604.72,561.732 611.278,565.414 616.376,570.667C634.452,589.294 625.033,618.853 615.069,639.102C609.331,650.762 600.795,660.694 588.025,664.641C575.501,668.513 561.984,666.527 550.017,661.696C543.349,659.005 537.083,655.459 531.035,651.591C525.268,647.902 518.623,644.152 513.931,639.104C505.585,630.126 508.799,615.144 512.503,604.812C516.916,592.505 524.628,581.176 533.454,571.599C536.129,568.697 539.681,565.842 543.528,563.971ZM911.681,532.261C930.651,530.658 952.851,533.061 959.439,554.008C962.073,562.382 959.467,569.718 955.317,577.057C952.157,582.643 948.955,588.21 945.744,593.768C943.424,597.784 941.049,601.923 937.637,605.133C930.209,612.121 919.607,612.789 909.979,613.602C904.82,614.038 898.747,615.443 893.614,614.547C889.508,613.83 886.358,611.02 883.607,608.064C871.498,595.055 865.583,576.405 874.144,559.949C881.018,546.737 895.006,527.659 911.681,532.261ZM100.532,508.355C117.156,492.807 144.319,500.823 157.463,517.148C164.588,525.997 168.733,536.955 170.983,547.997C173.211,558.931 174.654,571.373 172.253,582.378C166.517,608.661 133.868,605.049 113.534,602.456C101.16,600.878 89.476,598.394 81.144,588.36C73.524,579.186 69.173,566.983 68.341,555.165C66.862,534.159 79.249,512.54 100.532,508.355ZM721.635,540.059C721.42,540.268 721.093,540.304 720.885,539.974C718.336,535.915 718.745,530.008 718.228,525.376C717.547,519.266 716.224,512.855 716.532,506.691C717.005,497.21 724.853,491.576 732.549,487.337C740.066,483.198 749.483,481.139 757.519,485.133C764.65,488.679 767.898,495.996 770.979,502.887C773.126,507.686 775.471,511.715 778.988,515.644C781.355,518.289 783.262,520.995 784.13,524.496C786.4,533.638 782.458,543.148 779.7,551.717C777.2,559.483 775.51,569.275 768.135,574.04C761.734,578.177 753.282,577.617 746.552,574.574C738.318,570.85 732.261,563.514 727.157,556.293C723.7,551.402 720.622,545.803 721.635,540.059ZM465.987,436.454C472.926,438.312 479.398,443.055 483.839,448.281C492.52,458.495 495.12,472.449 495.159,485.509C495.192,496.912 494.687,509.633 486.224,518.23C482.149,522.37 476.944,525.287 471.873,528.008C466.155,531.077 460.368,534.169 454.243,536.358C443.697,540.125 430.983,541.043 421.541,533.95C411.728,526.579 409.37,512.473 405.933,501.48C399.466,480.795 384.522,446.988 406.434,430.185C424.108,416.632 449.909,423.173 465.987,436.454ZM272.049,401.142C277.582,402.665 282.945,406.147 287.093,409.528C295.957,416.752 305.863,424.926 309.137,436.357C313.961,453.197 304.447,472.261 288.928,479.789C279.593,484.316 268.823,484.872 258.789,482.705C253.074,481.471 247.582,479.295 242.537,476.346C237.708,473.522 233.395,469.869 228.371,467.374C224.105,465.254 219.275,464.006 215.647,460.766C212.36,457.83 210.971,453.647 210.33,449.4C208.6,437.956 209.02,427.669 216.166,418.188C222.18,410.208 229.021,401.369 238.639,397.643C249.209,393.549 261.946,396.969 272.049,401.142ZM1000,480.963C995.623,481.273 991.257,481.328 986.898,480.25C979.584,478.441 971.878,474.037 966.73,468.507C961.92,463.342 961.19,458.125 963.846,451.679C965.692,447.198 965.126,442.42 965.94,437.716C966.547,434.198 967.58,430.731 969.233,427.557C972.251,421.762 977.016,417.553 983.216,415.782C988.163,413.454 994.488,413.581 1000,414.441L1000,480.963ZM0,414.441C1.331,414.648 2.615,414.898 3.821,415.167C7.497,415.987 11.833,417.125 14.694,419.759C17.266,422.126 17.066,424.77 18.154,427.789C19.537,431.627 22.835,434.902 24.743,438.56C26.501,441.928 27.476,445.377 27.988,449.128C28.995,456.482 31.748,464.119 28.958,471.387C26.051,478.961 20.701,480.267 13.28,480.149C8.841,480.078 4.416,480.65 0,480.963L0,414.441ZM622.701,396.793C628.51,395.576 635.676,398.942 640.897,401.035L659.785,408.604C664.878,410.644 671.48,412.16 675.652,415.889C680.963,420.636 680.653,429.099 678.097,435.156C674.688,443.238 667.65,448.968 660.438,453.561C651.327,459.364 641.103,464.689 630.222,465.904C619.58,467.093 609.322,462.843 600.2,457.722C584.805,449.077 576.399,432.437 582.353,415.072C587.964,398.706 606.737,390.446 622.701,396.793ZM875.542,321.81C879.995,325.245 882.639,330.389 887.154,333.857C892.748,338.154 900.815,336.256 905.609,341.827C910.135,347.089 911.231,355.58 913.119,362.028C915.286,369.436 917.636,376.842 918.718,384.507C920.29,395.648 919.268,407.937 910.607,416.092C900.918,425.214 884.992,427.333 872.389,429.073C858.375,431.009 842.113,432.67 828.718,426.988C817.728,422.324 810.54,412.486 805.918,401.812C797.122,381.489 791.002,352.573 803.128,332.387C809.748,321.369 821.425,315.458 833.785,313.329C847.199,311.019 863.142,310.867 874.484,319.447C875.132,319.937 875.468,320.841 875.542,321.81ZM115.998,270.835C129.667,267.45 144.946,269.98 157.917,274.595C170.712,279.147 182.971,286.71 191.029,297.845C202.603,313.839 203.446,339.921 186.904,353.153C182.313,356.824 176.832,358.688 171.169,359.995C163.539,361.756 156.234,363.522 148.818,366.09C134.796,370.945 121.475,369.326 107.866,363.864C96.349,359.24 82.064,353.548 73.937,343.745C67.095,335.495 64.776,324.236 65.918,313.752C68.559,289.504 91.855,272.004 115.379,270.754C115.605,270.742 115.811,270.771 115.998,270.835ZM463.419,264.544C471.689,259.204 481.838,256.463 491.285,254.273C499.834,252.291 507.766,252.459 515.401,257.123C521.984,261.144 527.88,266.711 533.083,272.368C541.196,281.189 550.204,292.872 552.177,305.043C552.909,309.556 552.637,314.536 549.813,318.321C547.916,320.865 544.066,321.809 542.661,324.503C541.364,326.988 542.204,330.904 541.98,333.724C541.119,344.624 536.161,357.993 525.137,362.389C518.788,364.921 512.348,360.114 505.844,359.931C497.318,359.691 489.2,362.304 481.113,364.651C467.8,368.513 454.578,370.282 442.164,362.792C431.347,356.266 424.44,345.132 422.975,332.622C421.192,317.4 427.986,305.538 435.875,293.142C442.563,282.632 449.181,268.499 461.99,264.482C462.532,264.312 463.01,264.353 463.419,264.544ZM720.436,260.329C720.833,260.28 721.235,260.245 721.642,260.222C727.595,259.892 732.69,262.89 737.69,265.707C741.846,268.049 747.43,270.121 750.795,273.594C754.291,277.201 754.063,283.548 755.642,288.078C759.145,298.129 757.667,305.976 752.957,315.432C748.46,324.461 743.62,334.183 735.564,340.599C728.705,346.059 719.567,349.065 711.022,346.002C703.048,343.144 697.574,336.173 691.651,330.507C688.142,327.148 683.419,324.841 680.229,321.258C677.74,318.462 676.818,314.708 675.826,311.191C673.164,301.748 672.645,292.863 677.2,283.906C685.226,268.125 702.943,258.639 720.436,260.329ZM304.987,204.458C308.244,202.91 311.855,201.962 315.531,201.574C327.772,200.284 339.215,206.308 349.041,212.954C357.96,218.986 367.201,224.742 370.01,235.743C372.451,245.303 374.486,257.239 370.227,266.562C367.895,271.667 363.486,275.119 359.21,278.549C355.224,281.748 351.088,284.885 346.514,287.204C335.305,292.888 324.4,290.196 312.843,287.167C306.273,285.444 299.682,283.783 293.13,281.994C288.579,280.752 283.911,279.275 280.202,276.233C272.124,269.61 269.807,256.865 269.943,246.986C270.225,226.337 283.683,206.922 304.987,204.458ZM988.597,184.052C991.104,187.805 992.976,192.146 994.318,196.332C997.48,206.194 997.761,216.959 994.921,226.933C992.225,236.406 986.576,245.529 977.486,249.962C968.377,254.403 957.83,253.52 948.223,251.441C931.381,247.797 908.385,239.657 910.558,218.372C911.611,208.059 917.907,198.915 924.457,191.24C931.418,183.082 940.143,175.801 950.465,172.406C960.178,169.211 970.942,169.416 980.02,174.345C983.835,176.416 987.024,178.524 988.284,182.875C988.397,183.265 988.501,183.657 988.597,184.052ZM782.253,145.633C787.151,139.089 795.747,135.84 804.009,134.84C817.916,133.157 832.517,134.628 845.334,140.349C850.797,142.788 856.228,145.629 861.314,148.786C865,151.073 868.154,153.861 869.59,158.062C872.236,165.808 871.287,176.71 869.374,184.532C867.418,192.532 862.883,199.636 854.703,202.216C848.245,204.253 841.934,204.411 836.21,208.455C832.372,211.167 828.947,213.734 824.21,214.67C814.013,216.682 803.717,211.847 795.721,205.911C790.681,202.17 786.13,197.83 781.258,193.883C776.893,190.348 772.064,187.786 767.495,184.587C760.061,179.384 758.749,170.233 762.876,162.377C765.476,157.425 769.857,154.009 774.404,150.939C776.95,149.22 779.561,147.349 782.253,145.633ZM611.409,112.65C620.369,111.278 629.865,112.88 638.858,115.391C645.262,117.179 653.676,118.493 657.912,124.15C662.8,130.678 665.6,139.501 668.993,146.853C671.52,152.33 675.497,158.425 673.009,164.591C671.933,167.256 669.795,169.148 668.149,171.437C666.133,174.238 665.046,177.492 663.888,180.706C659.576,192.669 651.546,199.136 639.699,203.364C633.32,205.64 626.664,207.673 619.996,208.885C611.615,210.407 605.012,208.175 596.845,206.982C583.677,205.061 569.908,210.142 559.251,199.638C549.933,190.453 544.712,177.199 543.723,164.295C543.025,155.181 544.218,140.34 555.147,137.559C558.832,136.62 562.105,136.895 565.29,134.483C567.441,132.857 569.17,130.657 570.875,128.593C574.945,123.666 578.248,120.184 584.751,119.16C589.093,118.477 593.362,117.715 597.508,116.197C600.502,115.1 603.341,113.604 606.462,112.873C608.309,112.441 609.926,112.402 611.409,112.65ZM94.306,102.966C99.374,100.276 106.253,99.797 111.678,100.256C124.076,101.306 136.652,105.335 146.938,112.4C166.461,125.809 172.794,151.993 160.187,172.491C153.531,183.314 142.707,191.146 132.45,198.302C121.277,206.098 108.491,207.282 95.727,202.623C82.405,197.759 72.144,187.558 62.277,177.784C53.994,169.581 47.101,161.301 48.156,148.924C49.255,136.024 57.339,125.565 67.281,117.882C72.748,113.658 78.7,109.742 84.737,106.387C87.835,104.665 91.012,103.328 94.306,102.966ZM350.348,43.405C354.353,41.231 358.544,39.449 363.093,38.453C371.305,36.656 379.523,38.418 387.024,41.958C400.118,48.137 411.032,58.71 418.119,71.29C429.984,92.35 434.374,124.816 409.172,137.809C394.937,145.147 378.375,143.769 363.195,147.624C355.621,149.547 348.153,152.444 340.259,152.714C332.899,152.966 325.823,150.578 319.364,147.212C296.338,135.212 276.252,107.944 289.17,81.43C295.02,69.422 306.802,61.74 318.161,55.516C327.561,50.366 339.132,44.002 350.348,43.405ZM0,3.453C2.137,3.739 4.198,4.114 6.058,4.452C12.543,5.633 19.482,6.265 25.792,8.165C31.029,9.742 33.967,14 36.995,18.264C42.572,26.117 47.289,34.972 46.636,44.896C46.026,54.154 39.999,60.992 32.76,66.221C23.411,72.976 11.654,76.714 0,76.661L0,3.453ZM1000,76.661C993.608,76.632 987.249,75.462 981.334,73.025C977.707,71.531 974.162,69.367 972.752,65.501C971.927,63.236 972.212,60.902 971.736,58.586C971.284,56.379 970.177,54.414 968.883,52.596C964.625,46.62 958.267,42.296 954.883,35.665C951.501,29.039 952.451,21.427 957.148,15.692C963.51,7.925 973.676,6.526 983.119,5.906C987.48,2.556 994.031,2.654 1000,3.453L1000,76.661ZM837.24,0C837.988,1.012 838.703,2.066 839.384,3.157C845.05,12.228 850.198,22.81 849.488,33.777C848.973,41.73 844.443,50.355 836.731,53.436C834.214,54.442 830.975,53.923 828.646,55.071C826.603,56.079 824.886,59.034 823.228,60.614C820.203,63.5 816.639,65.874 812.852,67.638C804.836,71.373 795.571,72.511 786.9,70.782C778.393,69.088 768.856,64.279 764.947,56.123C762.712,51.46 762.8,45.723 760.076,41.323C757.404,37.008 753.663,36.283 752.874,30.747C751.547,21.426 756.445,11.986 762.943,5.644C765.186,3.455 767.648,1.603 770.26,0L837.24,0ZM613.747,0C613.547,10.626 612.024,21.299 605.582,30.104C591.253,49.69 563.988,53.359 541.533,49.666C530.26,47.811 522.735,42.282 518.684,31.507C514.933,21.529 511.316,10.788 510.512,0L613.747,0ZM219.318,0C209.094,9.088 195.156,13.821 182.099,16.84C174.617,18.57 167.032,19.773 159.436,20.874C151.809,21.98 143.99,23.307 136.272,22.389C122.95,20.804 113.393,11.714 107.38,0L219.318,0Z" style="fill-rule:nonzero;"/>
</svg>
