<?xml version="1.0" encoding="UTF-8" standalone="no"?>
<!DOCTYPE svg PUBLIC "-//W3C//DTD SVG 1.1//EN" "http://www.w3.org/Graphics/SVG/1.1/DTD/svg11.dtd">
<svg width="100%" height="100%" viewBox="0 0 1000 1000" version="1.1" xmlns="http://www.w3.org/2000/svg" xmlns:xlink="http://www.w3.org/1999/xlink" xml:space="preserve" xmlns:serif="http://www.serif.com/" style="fill-rule:evenodd;clip-rule:evenodd;stroke-linejoin:round;stroke-miterlimit:2;">
    <path d="M789.861,1000C791.033,998.895 792.39,998.062 793.857,997.693C796.513,996.228 799.665,995.794 802.897,997.133C804.734,997.894 806.41,998.851 807.797,1000L789.861,1000ZM500.276,1000C500.03,994.54 501.267,988.779 504.816,984.89C509.495,979.763 516.302,978.559 522.933,978.548C527.355,978.189 531.751,979.402 536.132,982.122C543.007,986.389 545.365,991.16 546.172,999.12C546.202,999.415 546.225,999.708 546.243,1000L500.276,1000ZM152.56,941.512C153.418,941.124 154.313,940.843 155.237,940.686C163.373,939.309 171.847,942.602 174.878,950.517C177.6,957.623 176.711,968.908 170.215,973.657C162.883,979.018 153.511,979.678 146.005,973.99C138.911,968.613 138.849,958.051 141.901,950.372C143.566,946.181 147.876,942.99 152.56,941.512ZM940.592,898.785C944.686,895.452 949.749,894.996 954.145,896.489C955.708,896.402 957.279,896.497 958.545,897.135C960.993,898.37 962.268,900.852 962.737,903.616C964.421,906.741 964.921,910.563 963.5,914.663C961.163,921.408 953.031,926.632 945.912,925.896C938.656,925.146 935.192,919.249 934.121,912.634C933.272,907.389 934.16,901.792 939.416,899.286C939.796,899.105 940.189,898.938 940.592,898.785ZM447.847,874.792C452.816,874.063 458.378,875.993 462.322,879.108C469.115,884.475 467.517,895.259 464.432,902.197C460.714,910.558 451.436,910.313 443.72,907.765C435.282,904.979 433.227,897.457 434.067,889.331C434.831,881.944 439.494,873.259 447.847,874.792ZM743.954,856.37C754.702,858.059 764.924,869.141 766.063,879.746C767.26,890.894 755.912,905.377 744.303,904.615C730.62,903.717 722.483,896.36 723.308,882.521C723.993,871.05 727.45,854.145 742.275,855.195C743.047,855.25 743.607,855.717 743.954,856.37ZM239.003,821.444C239.013,820.819 239.128,820.236 239.344,819.856C244.073,811.556 255.846,814.829 261.906,819.976C268.52,825.594 266.467,836.351 261.768,842.461C259.278,845.7 255.581,848.499 251.535,849.422C247.328,850.382 244.848,847.583 241.973,844.82C238.988,841.953 236.171,838.769 235.742,834.478C235.382,830.88 236.769,824.962 238.731,821.851C238.819,821.711 238.91,821.576 239.003,821.444ZM1000,798.247C995.339,799.884 990.029,801.329 985.238,801.432C980.225,801.538 977.509,798.278 974.774,794.513C969.683,787.502 966.785,778.839 968.674,770.186C969.152,767.993 970.201,765.368 971.698,763.03C971.706,762.079 971.924,761.171 972.392,760.637C977.927,754.318 989.27,752.473 997.189,754.601C998.165,754.863 999.103,755.246 1000,755.73L1000,798.247ZM0,755.73C7.282,759.659 11.951,770.268 13.47,777.561C15.499,787.3 11.005,794.146 1.931,797.546C1.302,797.781 0.658,798.016 0,798.247L0,755.73ZM649.001,741.699C650.216,741.409 651.486,741.562 652.77,742.311C663.945,746.751 664.923,773.406 648.408,774.211C639.08,774.666 630.952,769.416 631.171,759.458C631.287,754.198 637.029,742.583 643.612,743.285C644.442,742.86 645.287,742.508 646.134,742.237C647.133,741.918 648.089,741.743 649.001,741.699ZM395.463,682.451C395.6,682.269 395.742,682.091 395.889,681.918C398.455,678.892 402.965,678.202 406.627,677.248C410.428,676.259 414.312,675.481 418.251,675.411C425.341,675.288 432.961,677.576 437.51,683.322C439.826,686.246 440.941,689.83 441.313,693.574C441.482,694.593 441.523,695.614 441.461,696.631C441.464,699.916 441.003,703.221 440.375,706.221C437.622,719.358 425.248,728.867 411.658,726.465C398.108,724.072 388.414,710.132 389.389,696.694C389.766,691.49 391.67,686.122 395.463,682.451ZM776.971,671.688C777.684,671.51 778.366,671.406 778.988,671.41C781.442,671.425 783.94,673.63 785.637,675.17C790.48,679.564 790.953,685.837 789.021,691.822C786.99,698.113 782.463,702.894 775.604,703.133C769.761,703.335 763.837,700.984 761.162,695.522C755.402,683.759 764.656,671.547 776.971,671.688ZM121.324,655.666C126.063,653.22 131.543,652.842 136.682,654.878C147.77,659.271 151.728,674.386 143.879,683.47C135.511,693.156 116.697,688.834 112.85,676.755C111.212,671.612 110.204,664.452 114.108,660.071C115.164,658.885 116.606,657.847 118.251,656.988C118.956,656.553 119.721,656.213 120.522,655.962C120.787,655.859 121.054,655.76 121.324,655.666ZM550.814,582.716C553.739,582.385 556.804,582.923 559.672,584.567C569.19,590.025 569.384,606.63 561.598,613.53C552.883,621.252 537.318,614.738 533.448,604.582C529.062,593.074 539.462,583.475 550.233,582.627C550.448,582.61 550.641,582.643 550.814,582.716ZM289.351,576.669C291.583,575.808 294.1,575.382 296.039,575.471C303.775,575.826 311.153,582.357 311.91,590.068C312.672,597.821 306.489,607.247 298.11,606.68C290.243,606.146 279.418,602.324 278.008,593.482C276.847,586.203 281.222,576.413 289.351,576.669ZM911.588,535.071C916.735,532.726 923.302,532.711 928.329,535.254C938.075,540.185 937.794,557.647 928.929,563.427C923.715,566.826 917.379,564.584 912.337,562.061C907.197,559.49 902.144,556.026 900.984,549.995C899.581,542.695 905.06,536.719 911.588,535.071ZM737.896,498.883C738.258,498.301 738.643,497.762 739.044,497.281C742.132,493.577 747.427,494.431 751.665,495.489C756.193,496.62 759.114,500.09 759.526,504.741C760.013,510.243 757.197,514.936 753.639,518.875C749.625,523.32 745.332,524.052 739.728,521.775C735.444,520.035 732.277,516.388 732.012,511.675C731.791,507.723 734.302,502.324 737.896,498.883ZM166.397,486.93C166.939,487.035 167.47,487.135 167.986,487.22C172.508,487.963 176.265,488.278 178.141,493.084C181.588,501.91 176.94,512.657 167.258,514.076C157.52,515.502 144.965,511.325 145.797,499.755C146.168,494.591 147.765,489 152.536,486.267C157.001,483.709 162.089,484.485 166.397,486.93ZM448.51,483.923C451.538,484.737 454.148,486.375 455.612,489.119C459.358,496.139 455.507,505.495 449.599,510.007C443.067,514.995 432.096,515.178 425.848,509.461C420.016,504.124 422.322,493.505 426.404,487.799C431.417,480.792 440.452,481.213 447.858,483.37C448.129,483.448 448.346,483.65 448.51,483.923ZM754.78,504.654C754.783,505.691 754.706,506.724 754.579,507.683C754.597,507.631 754.614,507.58 754.63,507.529C754.993,506.393 755.012,505.445 754.78,504.654ZM565.561,429.532C566.391,428.483 567.386,427.56 568.555,426.807C574.393,423.045 579.636,423.254 585.896,425.416C592.138,427.572 596.671,429.201 599.096,435.878C602.944,446.475 599.154,459.754 588.335,464.441C577.923,468.952 564.78,460.912 560.24,451.197C557.159,444.602 559.682,434.408 565.561,429.532ZM285.31,404.387C287.588,404.13 289.839,404.417 291.837,405.462C298.345,408.868 292.502,421.907 290.17,426.287C286.142,433.85 278.109,434.335 270.72,431.128C263.809,428.128 265.577,418.166 268.638,412.804C272.065,406.802 278.678,403.306 285.31,404.387ZM0,390.54C1.05,390.346 2.147,390.228 3.284,390.184C11.849,388.207 19.738,395.41 22.875,404.104C27.179,416.037 19.727,425.642 7.403,426.437C5.039,426.59 2.472,426.399 0,425.81L0,390.54ZM1000,390.54L1000,425.81C996.874,425.066 993.9,423.686 991.676,421.562C987.641,417.708 986.745,411.633 987.04,406.327C987.558,397.005 992.633,391.903 1000,390.54ZM729.545,315.244C737.206,313.861 744.915,317.376 748.547,324.659C752.452,332.488 750.321,343.597 744.599,350.105C738.217,357.358 725.174,355.526 717.41,351.435C709.207,347.113 708.2,337.282 711.239,329.252C714.26,321.271 721.378,315.916 729.545,315.244ZM499.989,295.102C504.739,295.708 509.756,298.597 511.324,302.329C516.934,315.687 499.963,331.597 488.386,320.33C483.349,315.427 483.224,307.223 486.127,301.15C488.775,295.609 494.511,293.741 499.989,295.102ZM123.079,288.105C124.098,287.564 125.169,287.202 126.275,287.069C134.36,286.094 141.407,294.1 140.387,301.749C139.389,309.233 134.236,319.096 125.402,318.044C115.77,316.896 110.32,309.52 112.377,300.258C113.68,294.385 117.722,289.442 123.079,288.105ZM911.492,260.658C919.597,259.955 928.191,266.927 929.369,274.758C930.856,284.647 927.847,296.239 916.372,297.549C905.976,298.736 893.831,289.978 895.369,278.904C896.538,270.492 902.547,260.061 911.492,260.658ZM301.968,203.347C302.767,203.207 303.587,203.076 304.426,202.938C316.674,200.932 330.607,203.361 333.862,217.37C335.15,222.912 334.235,228.612 331.283,233.464C328.237,238.47 323.511,244.395 318.1,246.882C311.826,249.765 304.893,247.611 299.295,244.243C293.453,240.729 288.817,237.646 287.501,230.714C285.473,220.026 287.48,204.142 301.126,203.133C301.452,203.109 301.732,203.19 301.968,203.347ZM628.273,151.613C630.378,151.257 632.404,151.349 634.174,152.067C641.28,154.952 645.556,162.962 646.048,170.312C646.58,178.256 641.985,189.516 634.48,193.171C626.801,196.91 613.449,192.302 608.197,185.967C597.952,173.609 612.4,148.113 628.273,151.613ZM819.278,134.489C822.023,134.316 824.708,134.994 826.601,136.81C831.358,141.37 831.096,148.862 827.982,154.238C824.219,160.736 817.488,163.478 810.45,160.32C804.305,157.563 803.024,150.635 804.825,144.674C807.072,137.239 811.987,134.424 819.278,134.489ZM149.881,106.096C151.002,105.774 152.191,105.68 153.433,105.878C157.142,106.469 161.681,109.1 164.872,111.035C167.571,112.672 169.313,115.032 170.259,118.036C171.978,123.489 171.199,131.801 166.648,135.792C163.694,138.383 159.313,138.481 155.595,138.737C151.63,139.01 147.028,139.452 143.143,138.403C135.799,136.422 136.102,126.399 136.56,120.393C137.211,111.874 140.238,106.343 149.321,105.985C149.529,105.977 149.715,106.017 149.881,106.096ZM0,79.271C1.761,79.475 3.516,79.867 5.198,80.313C5.637,80.429 5.973,80.723 6.21,81.118C22.043,88.786 19.764,122.081 0,117.913L0,79.271ZM1000,117.913C999.473,117.802 998.931,117.664 998.376,117.497C987.599,114.257 982.186,104.867 983.568,93.815C984.168,89.018 986.119,83.828 990.335,81.086C993.271,79.177 996.646,78.882 1000,79.271L1000,117.913ZM367.72,59.626C377.637,56.117 389.726,69.329 388.307,79.806C387.495,85.801 385.025,92.551 378.169,92.707C371.133,92.867 362.869,91.565 358.411,85.537C354.23,79.884 355.594,73.716 358.639,67.935C360.563,64.285 363.811,60.427 367.72,59.626ZM546.243,0C546.676,7.097 543.524,13.155 538.409,18.1C532.147,24.154 524.903,24.83 517.43,20.562C511.294,17.058 503.204,13.609 501.242,6.31C500.715,4.351 500.375,2.2 500.276,0L546.243,0ZM807.797,0C811.138,2.767 812.805,6.645 811.006,11.574C808.947,17.22 803.39,23.743 796.729,22.322C790.622,21.02 785.082,14.938 785.614,8.53C785.855,5.623 787.477,2.247 789.861,0L807.797,0ZM532.87,1.084C532.865,1.112 532.86,1.14 532.855,1.168L532.84,1.248C532.859,1.195 532.876,1.142 532.893,1.087L532.876,1.048L532.87,1.084Z" style="fill-rule:nonzero;"/>
</svg>
