<?xml version="1.0" encoding="UTF-8" standalone="no"?>
<!DOCTYPE svg PUBLIC "-//W3C//DTD SVG 1.1//EN" "http://www.w3.org/Graphics/SVG/1.1/DTD/svg11.dtd">
<svg width="100%" height="100%" viewBox="0 0 1000 1000" version="1.1" xmlns="http://www.w3.org/2000/svg" xmlns:xlink="http://www.w3.org/1999/xlink" xml:space="preserve" xmlns:serif="http://www.serif.com/" style="fill-rule:evenodd;clip-rule:evenodd;stroke-linejoin:round;stroke-miterlimit:2;">
    <path d="M501.14,1000C501.499,998.537 501.858,997.068 502.232,995.592C503.085,992.223 504.388,989.164 505.811,986.127C498.117,987.711 490.192,988.017 482.362,988.532C481.089,988.616 480.737,986.624 480.889,985.759C485.151,961.62 488.446,937.262 495.183,913.716C495.726,908.076 497.138,902.422 498.616,896.843C498.787,896.198 499.331,895.64 500.002,895.571C517.846,893.717 535.904,893.82 553.817,894.171C555.715,894.208 555.945,897.019 555.502,898.329C549.638,915.656 543.122,932.536 535.723,949.215C546.882,948.89 558.039,948.534 569.197,948.181C571.322,948.114 571.539,951.805 570.653,953.061C559.499,968.888 548.596,984.822 536.595,1000L501.14,1000ZM953.098,841.334C943.493,841.589 934.2,843.025 924.788,844.444C926.131,842.366 927.535,840.285 928.387,838.142C930.686,832.358 932.476,826.544 935.185,820.911C939.736,811.451 945.099,802.293 946.185,791.657C946.344,790.097 945.922,786.887 943.675,786.934C925.017,787.322 906.392,786.99 887.846,789.411C887.506,789.455 887.247,789.619 887.022,789.822C886.341,789.269 885.525,789.306 885.134,790.715C876.891,820.485 871.757,851.07 864.73,881.134C864.481,882.199 865.048,885.183 866.747,884.932C875.213,883.683 883.7,882.553 892.232,881.902C884.278,904.667 876.55,927.571 867.719,950.005C867.1,951.576 868.396,956.732 870.766,954.406C886.579,938.889 901.697,923.027 914.507,904.894C927.785,886.099 939.695,866.28 954.59,848.673C956.033,846.968 956.574,841.242 953.098,841.334ZM240.043,762.094C229.769,763.378 219.303,764.582 208.901,764.893C212.084,758.886 213.691,751.917 215.875,745.567C219.885,733.909 224.471,722.506 229.678,711.331C230.584,709.388 229.805,705.469 227.234,705.299C217.337,704.643 207.624,703.106 197.726,704.7C193.678,705.353 189.766,706.79 185.691,707.134C180.579,707.565 175.477,706.63 170.476,705.743C169.995,705.658 169.634,705.988 169.374,706.416C168.563,706.903 167.998,707.658 167.666,708.554C167.581,708.709 167.5,708.887 167.427,709.105C156.965,740.441 149.589,772.882 144.078,805.433C143.895,806.512 144.365,809.753 146.203,809.434C155.993,807.732 165.704,805.578 175.45,803.553C167.213,828.466 156.757,852.599 146.617,876.768C146.067,878.076 147.278,882.499 149.187,880.481C153.519,875.897 159.397,872.143 164.009,867.678C168.091,863.729 172.107,859.712 175.958,855.535C184.21,846.581 191.335,837.047 198.045,826.903C204.814,816.667 214.176,808.771 220.623,798.287C227.152,787.67 234.043,777.882 241.854,768.159C242.975,766.764 242.629,761.771 240.043,762.094ZM782.952,614.705C772.695,615.987 761.274,618.128 750.792,617.293C754.604,609.386 757.41,600.858 760.736,592.777C764.791,582.929 768.965,573.125 773.25,563.375C773.688,562.377 773.364,559.963 771.884,560C763.576,560.214 755.308,560.545 747.014,561.071C738.736,561.598 730.412,561.049 722.119,561.019C719.831,561.011 718.215,561.29 717.031,561.976C716.984,561.997 716.931,562.004 716.886,562.026C716.572,562.178 716.258,562.384 715.982,562.59C715.896,562.648 715.847,562.683 715.813,562.707C715.757,562.734 715.699,562.759 715.644,562.792C714.799,563.283 714.379,564.065 714.212,564.987C702.973,593.209 696.949,624.272 693.165,654.316C693.094,654.882 693.29,656.461 694.233,656.327C703.65,654.994 713.127,654.222 722.511,652.525C714.58,676.819 705.812,700.929 697.311,725.014C696.994,725.913 697.56,728.429 698.918,727.334C715.831,713.707 728.335,696.136 741.012,678.717C755.54,658.752 769.887,638.66 784.069,618.449C784.687,617.569 784.595,614.5 782.952,614.705ZM528.312,496.652C517.697,497.65 507.323,499.194 496.911,501.218C506.235,481.152 514.554,460.624 523.256,440.276C523.94,438.676 523.439,434.992 521.12,435C497.88,435.078 474.784,436.532 451.584,436.783C450.602,436.794 450.254,438.143 450.27,438.895C450.276,439.19 450.303,439.482 450.311,439.777C440.011,473.523 434.388,509.324 428.18,544.004C428.001,545.004 428.471,548.247 430.241,547.884C439.692,545.944 449.212,544.4 458.731,542.839C457.912,545.96 457.49,549.189 457.021,552.633C455.736,562.066 452.378,570.626 449.325,579.572C443.905,595.456 439.884,611.748 437.041,628.282C436.769,629.87 438.476,634.793 440.66,632.316C457.623,613.073 470.933,590.812 485.192,569.546C500.008,547.451 513.997,524.409 530.327,503.401C531.577,501.792 531.207,496.38 528.312,496.652ZM1000,544.29L1000,573.248C997.414,576.428 994.816,579.595 992.2,582.749C989.95,585.462 988.671,579.644 989.09,578.257C992.539,566.856 996.155,555.532 1000,544.29ZM0,442.076C0.81,439.332 1.644,436.595 2.503,433.866C3.095,428.776 4.408,423.052 7.528,419.746C9.689,417.455 12.269,416.837 15.367,416.98C20.55,417.219 24.717,418.156 30.037,417.214C40.814,415.306 52.867,417.985 63.729,418.638C66.141,418.784 66.332,422.531 65.362,424.108C55.632,439.928 52.898,459.058 43.028,474.594C53.11,473.441 63.193,472.286 73.275,471.132C76.21,470.796 75.767,476.088 74.551,477.411C59.553,493.737 48.294,512.637 34.521,529.946C23.024,544.396 11.647,558.928 0,573.248L0,544.29C4.074,532.381 8.404,520.565 13.065,508.847C8.678,509.441 4.321,510.112 0,511.18L0,442.076ZM1000,442.076L1000,511.18L999.615,511.276C995.007,512.441 990.624,514.261 985.947,515.103C983.867,515.478 983.829,511.758 984.145,510.654C986.337,503.003 987.005,494.575 988.684,486.759C990.244,479.502 991.935,472.274 993.743,465.074C995.68,457.364 997.75,449.693 1000,442.076ZM314.855,219.976C304.566,221.491 294.18,222.743 283.799,223.635C288.066,216.551 291.508,208.957 294.736,201.333C299.529,190.016 302.213,177.646 307.733,166.698C308.76,164.661 309.024,158.86 305.437,159.002C291.995,159.538 278.569,159.933 265.124,160.362C260.993,160.494 256.551,160.467 252.232,160.808C248.197,160.406 243.726,161.382 240.272,162.27C239.756,162.404 239.425,162.798 239.207,163.293C239.174,163.356 239.145,163.426 239.116,163.501C239.093,163.568 239.068,163.632 239.048,163.701C239.039,163.734 239.026,163.759 239.017,163.794C230.172,197.756 225.211,232.637 216.564,266.636C216.176,268.16 216.48,271.295 218.749,270.713C228.46,268.226 238.085,265.334 247.939,263.488C239.169,291.428 230.903,320.075 219.652,347.032C218.903,348.826 220.719,355.175 223.253,352.233C239.865,332.953 258.759,317.178 272.028,295.128C278.414,284.518 284.455,273.765 291.579,263.62C300.046,251.563 309.086,239.85 317.096,227.483C318.222,225.743 318.201,219.483 314.855,219.976ZM730.943,189.888C721.253,191.717 711.506,193.311 701.763,194.866C710.002,177.71 717.399,160.19 723.908,142.293C724.638,140.283 724.196,136.022 721.336,135.944C709.886,135.629 698.453,134.951 686.991,135.18C682.149,135.277 675.843,134.542 670.793,136.054C668.491,135.971 666.262,136.804 664.554,138.483C662.684,140.323 662.029,142.758 661.792,145.258C654.161,174.243 649.869,204.203 642.467,233.278C642.155,234.503 642.144,238.127 644.325,237.863C653.212,236.784 661.581,233.938 670.203,231.861C659.441,254.794 652.45,279.967 645.046,304.008C644.605,305.437 645.703,310.83 648.061,308.363C664.941,290.708 681.236,272.17 695.621,252.399C702.635,242.758 708.596,232.551 715.024,222.533C720.877,213.412 729.374,205.993 733.314,195.742C733.87,194.296 733.581,189.39 730.943,189.888ZM1000,32.33L1000,71.589C997.642,77.804 995.165,83.968 992.518,90.048C995.009,89.984 997.504,89.85 1000,89.665L1000,129.871C994.329,137.629 988.522,145.286 982.574,152.804C968.291,170.855 953.45,190.354 935.938,205.392C933.091,207.836 931.616,202.257 932.425,200.317C937.83,187.354 941.778,173.809 946.852,160.702C950.947,150.124 955.492,139.709 959.632,129.149C950.422,131.002 941.278,132.103 931.755,132.289C929.412,132.335 928.507,128.73 928.939,126.987C935.996,98.512 942.388,69.318 951.441,41.374C951.548,40.038 951.784,38.732 952.471,37.511C953.56,35.578 955.443,33.733 957.829,33.86C958.03,33.871 958.23,33.922 958.43,33.969C958.74,33.93 959.074,33.901 959.445,33.885C962.449,33.753 965.633,35.12 968.745,35.136C971.401,35.151 974.064,34.749 976.687,34.405C984.487,33.38 992.22,32.801 1000,32.33ZM0,89.665C7.69,89.095 15.382,88.039 22.97,87.065C25.986,86.677 26.055,92.253 24.996,93.855C16.953,106.018 8.632,118.064 0,129.871L0,89.665ZM0,32.331C3.055,32.146 6.117,31.978 9.194,31.806C12.093,31.644 12.351,36.278 11.743,38.103C8.019,49.292 4.199,60.52 0,71.589L0,32.331ZM536.595,0C534.543,2.597 532.456,5.173 530.33,7.723C522.942,16.585 515.264,25.232 507.126,33.415C499.19,41.395 490.011,48.198 483.408,57.411C482.189,59.114 481.169,56.455 481.552,55.336C486.102,42.059 491.588,29.107 496.524,15.971C498.506,10.696 499.818,5.39 501.14,0L536.595,0Z" style="fill-rule:nonzero;"/>
</svg>
