<?xml version="1.0" encoding="UTF-8" standalone="no"?>
<!DOCTYPE svg PUBLIC "-//W3C//DTD SVG 1.1//EN" "http://www.w3.org/Graphics/SVG/1.1/DTD/svg11.dtd">
<svg width="100%" height="100%" viewBox="0 0 1000 1000" version="1.1" xmlns="http://www.w3.org/2000/svg" xmlns:xlink="http://www.w3.org/1999/xlink" xml:space="preserve" xmlns:serif="http://www.serif.com/" style="fill-rule:evenodd;clip-rule:evenodd;stroke-linejoin:round;stroke-miterlimit:2;">
    <path d="M519.833,1000C519.836,997.204 519.805,994.409 519.725,991.615C519.679,990.018 519.613,988.42 519.536,986.822C519.319,986.634 519.125,986.375 518.969,986.066C516.052,980.258 511.582,974.9 509.421,968.762C509.264,968.314 509.493,966.678 510.286,967.372C513.763,970.419 516.624,975.085 519.14,979.42C518.669,970.736 518.323,962.043 519.648,953.43C519.97,951.333 521.778,952.611 521.646,954.211C520.96,962.585 521.516,970.886 522.097,979.196C523.458,977.452 524.853,975.74 526.175,973.941C527.767,971.773 528.836,969.572 531.204,968.187C532.582,967.382 532.851,970.484 532.116,971.193C528.027,975.145 525.567,980.184 522.483,984.881C522.705,988.372 522.882,991.869 522.925,995.378C522.944,996.918 522.951,998.459 522.949,1000L519.833,1000ZM531.168,1000C532.657,998.454 534.009,996.783 534.978,994.584C535.983,992.304 537.667,995.1 536.835,996.66C536.242,997.77 535.616,998.901 534.939,1000L531.168,1000ZM481.427,1000C486.122,987.383 490.852,974.78 495.559,962.17C500.933,947.773 506.92,933.876 513.434,919.966C516.491,913.441 519.427,906.836 521.658,899.976C523.703,893.691 524.546,886.842 527.699,880.974C528.053,880.314 528.455,880.41 528.761,880.796C529.356,880.411 530.187,880.633 530.386,881.781C535.188,909.503 543.791,936.22 548.152,964.037C550.03,976.016 551.842,988.005 553.592,1000L550.403,1000C548.673,988.133 546.879,976.27 545.018,964.419C542.813,950.371 540.074,936.573 536.3,922.86C532.852,910.33 529.997,897.778 528.436,884.889C526.39,891.311 525.115,897.938 522.906,904.326C520.641,910.875 517.803,917.204 514.886,923.485C508.509,937.209 502.869,950.993 497.731,965.23C493.549,976.818 489.384,988.414 485.195,1000L481.427,1000ZM505.685,1000C504.93,999.274 504.144,998.572 503.32,997.899C502.412,997.157 502.861,994.456 504.23,995.339C506.305,996.677 508.063,998.246 509.727,1000L505.685,1000ZM165.301,881.595C165.198,881.046 165.219,880.47 165.421,879.956C171.263,865.053 177.176,850.176 182.944,835.246C185.879,827.647 188.4,820.06 189.823,812.02C191.017,805.271 192.224,798.656 194.452,792.153C199.506,777.404 206.71,763.378 212.393,748.856C215.137,741.844 217.837,734.811 220.156,727.646C222.396,720.725 223.811,713.432 227.7,707.192C228.388,706.087 229.106,706.467 229.542,707.304C230.01,707.506 230.418,708.063 230.491,708.969C232.863,738.362 240.297,767.198 246.269,796.005C249.202,810.149 252.134,824.294 255.067,838.437C256.525,845.473 257.984,852.51 259.443,859.546C260.107,862.748 260.771,865.951 261.435,869.154C262.012,871.937 262.111,875.914 263.098,878.515C263.253,878.923 263.255,879.762 263.107,880.59C263.062,881.92 262.447,883.25 261.279,883.455C248.938,885.62 235.845,886.226 223.081,885.987C223.657,905.008 224.257,924.06 223.885,943.033C223.821,946.299 220.586,946.381 220.399,943.118C219.305,924.108 219.186,904.98 219.041,885.883C216.765,885.81 214.504,885.711 212.264,885.592C196.879,884.777 181.668,884.699 166.294,884.559C165.087,884.548 164.742,882.639 165.301,881.595ZM258.898,877.814L258.875,877.815C258.799,877.439 258.725,877.068 258.646,876.709C257.8,872.875 257.081,869.007 256.299,865.159C254.734,857.458 253.17,849.758 251.605,842.057C248.664,827.584 245.722,813.11 242.781,798.636C237.082,770.589 229.586,742.018 228.121,713.309C225.28,719.731 223.943,726.996 221.778,733.598C219.42,740.788 216.816,747.871 213.962,754.878C208.329,768.704 201.366,782.172 196.825,796.414C194.52,803.645 193.788,811.125 192.153,818.501C190.621,825.413 188.207,832.06 185.654,838.649C180.227,852.655 174.726,866.633 169.256,880.62C176.201,879.884 183.141,879.061 190.105,878.65C197.5,878.214 204.746,879.131 212.116,879.554C213.477,879.633 214.836,879.69 216.191,879.73C214.595,877.811 213.276,875.491 211.986,873.798C207.917,868.458 203.778,863.215 199.371,858.152C198.351,856.98 199.646,853.861 200.979,855.566C206.566,862.713 212.694,869.128 218.953,875.528C218.907,870.908 218.849,866.29 218.765,861.678C218.665,856.229 218.568,850.782 218.478,845.335C211.72,839.587 205.417,832.431 200.524,825.097C200.029,824.356 200.589,821.618 201.636,822.763C207.16,828.808 212.698,834.701 218.401,840.55C218.248,830.781 218.123,821.015 218.053,811.248C216.36,809.515 215.021,807.681 213.537,805.699C211.785,803.359 210.413,800.348 208.378,798.274C207.837,797.723 207.741,795.731 208.94,796.033C212.057,796.818 214.822,804.846 218.026,806.93C217.977,797.982 217.978,789.033 218.05,780.08C218.065,778.196 219.974,778.149 220.06,780.03C220.47,788.956 220.81,797.882 221.099,806.804C221.18,806.741 221.261,806.673 221.343,806.599C223.266,804.863 223.922,801.156 225.533,799.038C226.575,797.668 227.755,795.518 229.585,795.422C229.987,795.401 230.146,795.946 230.159,796.253C230.294,799.312 227.536,800.866 226.062,803.335C224.432,806.063 223.341,808.723 221.231,810.983C221.513,820.114 221.745,829.246 221.952,838.379C223.651,835.801 225.407,833.266 227.241,830.767C229.41,827.811 231.511,824.214 234.665,822.251C235,822.042 235.243,822.213 235.4,822.518C235.568,822.573 235.655,822.789 235.66,823.005C235.662,823.109 235.645,823.213 235.608,823.299C235.633,823.56 235.618,823.797 235.564,823.928C233.969,827.782 231.073,830.965 228.667,834.353C226.438,837.492 224.24,840.662 222.073,843.846C222.201,849.759 222.319,855.673 222.435,861.588C222.536,866.769 222.671,871.956 222.82,877.145C228.209,870.3 233.512,862.887 238.135,855.623C239.21,853.934 240.64,856.787 239.76,857.969C234.574,864.946 229.529,872.403 224.762,879.763C236.167,879.545 247.45,878.403 258.898,877.814ZM798.068,650.738C793.741,664.047 787.18,677.012 781.756,689.787C775.992,703.365 770.009,716.85 765.467,730.901C757.108,756.76 752.734,785.405 738.085,808.722C736.712,810.908 735.008,807.524 735.698,806.054C741.753,793.159 746.801,780.026 750.855,766.368C754.823,753.005 758.155,739.456 762.447,726.191C767.015,712.076 773.114,698.515 778.875,684.861C781.963,677.543 785.008,670.206 788.188,662.929C791.1,656.266 793.722,649.127 797.533,642.924C798.298,641.68 799.012,642.293 799.412,643.259C799.773,643.494 800.073,643.977 800.146,644.704C802.918,672.337 812.015,698.815 815.825,726.271C817.765,740.262 818.997,754.331 821.322,768.272C822.455,775.069 823.759,781.836 825.136,788.588C826.477,795.164 828.689,801.98 828.98,808.689C828.981,808.698 828.981,808.707 828.981,808.717C829.637,808.719 830.293,808.729 830.948,808.749C833.534,808.826 832.993,814.156 830.971,813.887C823.226,815.079 815.076,814.787 807.247,815.092C802.019,815.296 796.791,815.465 791.562,815.55C791.941,834.402 792.257,853.26 791.818,872.102C791.734,875.734 788.046,875.865 787.922,872.198C787.283,853.342 787.446,834.47 787.478,815.599C786.116,815.609 784.755,815.613 783.394,815.609C767.505,815.564 751.546,816.215 735.692,815.147C733.308,814.987 733.179,809.751 735.56,809.774C751.487,809.926 767.329,811.052 783.272,810.623C783.897,810.606 784.523,810.589 785.149,810.573C782.137,806.097 778.936,801.773 775.435,797.651C771.203,792.67 766.164,788.151 762.334,782.874C761.455,781.663 762.005,777.901 764.061,779.248C769.203,782.616 773.491,788.248 777.308,793.037C780.895,797.54 784.287,802.205 787.479,806.997C787.471,802.109 787.445,797.219 787.384,792.33C787.297,785.31 787.185,778.289 787.047,771.27C784.482,769.038 781.781,766.919 779.133,764.788C777.744,763.671 776.349,762.558 774.937,761.47C773.862,760.642 770.145,757.013 768.796,757.171C767.153,757.363 767.169,754.401 767.708,753.526C767.791,753.391 767.874,753.256 767.958,753.121C768.295,752.574 768.822,752.292 769.452,752.476C773.281,753.593 777.072,757.227 780.024,759.781C782.564,761.981 784.797,764.36 786.957,766.841C786.767,757.815 786.533,748.789 786.253,739.767C782.635,734.678 777.928,730.383 773.731,725.783C772.643,724.591 773.012,720.314 775.127,721.862C779.738,725.237 783.014,729.581 786.074,734.208C785.815,726.408 785.522,718.607 785.191,710.808C785.062,707.754 788.279,707.715 788.432,710.728C788.823,718.408 789.171,726.089 789.479,733.772C791.755,730.268 794.103,726.583 797.017,724.002C798.282,722.883 798.778,725.4 798.531,726.188C796.986,731.129 793.364,735.564 789.695,739.31C790.036,748.359 790.322,757.409 790.56,766.46C794.113,761.138 798.215,756.059 802.707,751.572C804.211,750.07 805.295,753.674 804.428,754.771C800.002,760.363 795.403,765.902 790.682,771.265C790.853,778.253 790.995,785.244 791.111,792.238C791.171,795.856 791.239,799.475 791.311,803.098C794.966,797.572 798.778,792.166 802.891,786.946C804.825,784.49 806.653,788.779 805.358,790.511C800.55,796.936 795.837,803.439 791.453,810.162L791.458,810.411C796.68,810.277 801.901,810.139 807.121,809.948C813.146,809.727 819.24,809.008 825.294,808.784C823.066,802.684 822.353,795.656 821.096,789.35C819.747,782.588 818.479,775.81 817.366,769.005C815.03,754.733 813.85,740.319 811.781,726.012C808.127,700.756 799.731,676.24 798.068,650.738ZM509.333,408.64C509.686,407.837 510.399,407.392 510.859,408.581C515.634,420.949 515.117,434.525 517.763,447.38C520.64,461.362 525.109,474.949 527.659,489.019C528.898,495.855 529.517,502.71 530.295,509.603C531.183,517.475 533.156,525.179 534.898,532.894C536.456,539.787 538.015,546.68 539.576,553.573C540.427,557.332 541.278,561.091 542.13,564.851C542.554,566.729 543.015,568.605 543.407,570.49C543.574,571.298 544.316,572.878 544.212,572.896C544.337,573.471 544.326,574.105 544.228,574.666C545.248,576.692 544.683,580.219 542.573,580.044C534.44,579.372 526.431,581.721 518.241,581.374C513.567,581.176 509.129,581.239 504.654,581.537C504.643,587.047 504.647,592.559 504.674,598.07C504.74,611.146 504.47,624.391 506.59,637.333C507.191,640.998 502.957,643.881 502.205,639.302C500.079,626.363 500.159,613.222 500.073,600.146C500.033,594.072 500.025,587.998 500.033,581.925C498.698,582.059 497.351,582.213 495.985,582.385C488.362,583.348 480.712,583.276 473.047,583.502C466.192,583.704 458.028,585.229 451.215,583.686C449.837,586.807 446.926,582.875 447.815,580.304C457.793,551.45 467.862,522.628 477.878,493.787C487.702,465.5 497.071,436.991 507.942,409.085C508.338,408.068 508.915,408.144 509.333,408.64ZM509.575,411.349C500.89,439.981 490.745,468.18 481.059,496.482C471.849,523.394 462.685,550.322 453.45,577.228C459.975,576.047 467.502,576.992 473.873,576.837C481.198,576.659 488.551,576.423 495.814,575.392C496.521,575.292 497.223,575.2 497.921,575.116C495.276,572.288 493.057,567.996 491.376,565.468C488.302,560.847 484.67,556.913 481.34,552.53C480.853,551.889 480.957,549.227 482.292,549.842C489.484,553.154 493.445,562.957 498.105,568.909C498.736,569.715 499.387,570.501 500.062,571.27C500.075,567.506 500.093,563.741 500.109,559.976C500.136,553.96 500.202,547.944 500.304,541.931C495.559,534.859 489.943,528.339 485.392,521.158C485.019,520.568 485.302,518.317 486.315,519.221C491.984,524.281 496.303,530.833 500.389,537.285C500.591,527.081 500.889,516.88 501.257,506.68C498.022,503.73 494.956,500.084 492.307,496.675C491.62,495.791 492.24,492.665 493.632,493.893C496.296,496.242 499.036,498.92 501.442,501.702C501.761,493.372 502.122,485.048 502.513,476.727C502.597,474.949 504.472,474.852 504.442,476.679C504.305,484.947 504.293,493.214 504.338,501.478C506.804,498.491 509.08,495.363 511.598,492.416C512.997,490.778 513.737,494.485 513.231,495.451C511.023,499.664 507.8,503.281 504.372,506.557C504.449,516.295 504.588,526.034 504.677,535.775C506.293,532.725 507.8,529.605 509.236,526.504C510.727,523.286 512.128,520.109 514.686,517.591C516.204,516.096 517.167,519.665 516.379,520.74C513.861,524.179 512.473,528.116 510.5,531.859C508.779,535.128 506.725,538.121 504.721,541.178C504.76,546.773 504.776,552.371 504.749,557.97C504.729,562.165 504.707,566.361 504.689,570.555C506.201,568.455 507.592,566.24 509.147,564.173C512.555,559.641 515.825,555.014 519.142,550.415C520.524,548.497 521.93,551.775 521.007,553.11C516.847,559.131 512.843,565.275 508.625,571.252C508.013,572.12 507.353,573.308 506.606,574.433C510.677,574.28 514.744,574.347 519.013,574.555C525.731,574.884 532.312,573.313 538.964,573.205C537.909,570.009 537.689,565.698 537.291,563.917C535.678,556.703 534.067,549.49 532.452,542.277C530.781,534.818 528.955,527.374 527.499,519.87C526.057,512.441 525.727,504.896 524.663,497.414C522.536,482.476 518.269,468.068 514.782,453.426C511.483,439.572 513.64,424.958 509.575,411.349ZM0,431.64C1.138,428.118 2.192,424.568 3.154,420.987C7.134,406.171 11.674,392.015 18.097,378.047C24.165,364.851 30.616,351.747 37.391,338.9C38.708,336.403 40.882,339.314 40.884,340.985C40.89,348.315 43.105,355.199 44.94,362.228C46.571,368.479 48.117,374.751 49.578,381.043C52.573,393.942 55.214,406.922 57.491,419.967C61.984,445.717 64.686,471.703 67.582,497.669C68.217,497.723 68.851,497.782 69.485,497.849C71.014,498.008 71.144,501.329 69.571,501.348C56.816,501.499 44.184,502.106 31.51,503.012C32.206,522.824 33.363,542.639 33.917,562.454C34.031,566.556 29.801,566.598 29.568,562.56C28.428,542.792 28.572,523.012 28.401,503.24C25.99,503.421 23.58,503.612 21.167,503.813C14.123,504.398 7.059,504.88 0,505.031L0,500.602C7.012,500.555 14.037,500.164 21.064,499.657C22.216,499.573 23.371,499.484 24.525,499.39C21.756,496.411 19.393,493.008 17.013,489.763C13.348,484.767 8.942,480.548 5.136,475.712C4.582,475.007 4.782,473.099 5.977,473.34C11.066,474.37 14.76,479.453 17.766,483.361C21.203,487.83 24.443,492.231 28.325,496.258C28.262,491.625 28.172,486.99 28.033,482.356C27.859,476.519 27.793,470.688 27.759,464.859C22.632,459.062 16.634,453.355 12.659,446.73C12.273,446.087 12.445,443.948 13.605,444.743C18.929,448.396 23.374,453.983 27.731,458.994C27.71,453.625 27.694,448.255 27.621,442.88C27.583,440.016 27.483,437.151 27.341,434.287C22.903,429.175 18.803,423.845 15.188,418.113C14.399,416.862 15.503,413.614 16.835,415.464C20.08,419.972 23.434,424.388 27.007,428.634C26.39,419.465 25.443,410.296 24.729,401.163C24.507,398.306 27.563,398.28 27.765,401.089C28.439,410.403 29.142,419.716 29.816,429.032C32.808,423.914 34.569,418.195 38.751,413.749C39.639,412.805 40.095,414.986 39.742,415.591C36.146,421.728 34.467,428.776 30.212,434.557C30.407,437.306 30.598,440.054 30.783,442.803C31.122,447.806 31.209,452.832 31.197,457.865C35.306,452.419 39.429,447.067 43.401,441.495C44.57,439.854 45.648,442.632 44.966,443.755C40.665,450.834 36.205,457.825 31.138,464.387C31.055,470.361 30.923,476.335 30.996,482.283C31.043,486.085 31.121,489.887 31.221,493.69C35.715,486.99 40.15,479.95 45.653,474.274C46.923,472.963 47.348,475.988 46.982,476.745C43.275,484.405 38.012,491.536 33.156,498.648C43.386,497.749 53.69,496.902 63.894,497.42C60.958,471.076 58.257,444.725 53.641,418.607C51.335,405.56 48.677,392.575 45.662,379.673C43.229,369.267 39.855,358.873 37.922,348.311C32.369,359.874 26.415,371.25 21.093,382.924C14.982,396.329 10.696,409.937 6.859,424.126C4.985,431.055 2.642,437.823 0,444.477L0,431.64ZM1000,431.64L1000,444.477C997.373,451.094 994.451,457.599 991.401,464.038C985.993,475.455 978.553,486.774 974.477,498.845C982.958,500.209 991.47,500.659 1000,500.602L1000,505.031C991.003,505.223 982.013,504.878 973.077,503.527C973.023,503.518 972.97,503.508 972.919,503.494C971.963,504.617 970.196,502.564 970.532,500.98C973.456,487.186 981.908,474.83 987.849,462.186C992.518,452.249 996.629,442.073 1000,431.64ZM288.077,155.673C288.698,153.6 290.665,154.649 290.854,156.611C291.572,164.045 292.07,171.158 293.805,178.475C295.412,185.251 297.17,191.99 298.786,198.764C302.093,212.632 305.093,226.569 307.812,240.564C310.589,254.856 313.075,269.203 315.278,283.595C316.347,290.58 317.342,297.574 318.297,304.575C319.166,310.947 320.79,317.228 321.603,323.577C321.775,324.925 321.07,326.596 320.142,326.852C319.963,327.114 319.739,327.326 319.47,327.458C315.795,329.275 311.142,328.887 307.099,329.123C303.114,329.357 299.129,329.574 295.145,329.799C291.61,329.999 288.07,330.238 284.527,330.426C285.253,349.427 286.007,368.465 285.611,387.421C285.538,390.926 282.118,390.995 281.878,387.513C280.576,368.63 280.415,349.61 280.23,330.624C277.473,330.727 274.715,330.778 271.957,330.733C264.308,330.609 256.689,329.771 249.05,329.415C245.407,329.245 241.791,329.117 238.144,329.196C234.762,329.269 231.301,330.116 228.063,329.04C227.694,328.918 227.496,328.541 227.441,328.119C226.418,327.771 225.498,325.669 225.699,324.594C227.066,317.264 229.954,310.055 232.247,302.969L239.552,280.4C243.938,266.853 248.301,253.436 254.817,240.735C261.698,227.323 266.336,213.357 271.242,199.15C276.177,184.862 281.914,170.908 287.211,156.766C287.447,156.136 287.753,155.797 288.077,155.673ZM649.759,290.527C649.774,290.352 649.801,290.181 649.842,290.018C653.762,274.426 659.365,259.125 664.162,243.78C668.873,228.712 673.584,213.643 678.294,198.574C683.105,183.187 687.898,167.794 692.691,152.4C696.26,140.94 699.686,128.744 708.711,120.272C709.233,119.782 709.701,119.727 710.088,119.942C710.81,119.913 711.557,120.698 711.618,121.939C711.985,129.33 712.123,136.446 713.393,143.786C714.553,150.481 716.053,157.118 717.428,163.77C720.256,177.444 722.99,191.136 725.767,204.819C731.389,232.511 737.004,260.204 742.649,287.891C743.197,290.575 741.113,292.814 739.573,292.108C729.021,294.007 718.012,294.472 707.081,294.716C707.151,300.657 707.165,306.597 707.239,312.515C707.325,319.445 707.45,326.377 707.348,333.307C707.255,339.619 707.773,346.541 706.455,352.732C706.037,354.696 704.1,354.869 703.646,352.801C702.289,346.602 702.702,339.755 702.503,333.426C702.286,326.5 702.259,319.568 702.157,312.64C702.069,306.709 701.888,300.766 701.734,294.823C697.644,294.899 693.578,294.972 689.564,295.106C681.354,295.381 673.142,295.613 664.93,295.805C658.509,295.955 650.123,297.589 645.336,292.464C644.969,292.071 644.783,290.745 645.604,290.71C646.988,290.65 648.373,290.589 649.759,290.527ZM287.48,165.121C277.614,190.383 271.133,217.028 259.366,241.486C252.649,255.449 247.963,269.965 243.173,284.666C240.827,291.865 238.481,299.064 236.135,306.263C234.073,312.591 232.375,319.308 229.657,325.421C234.73,322.469 242.576,322.745 247.977,322.884C255.628,323.083 263.23,324.19 270.886,324.311C273.671,324.355 276.455,324.296 279.239,324.178C277.495,322.754 275.846,320.025 274.829,318.774C272.523,315.937 270.213,313.104 267.922,310.254C263.781,305.105 258.742,300.91 254.533,295.938C253.985,295.291 254.182,293.147 255.392,293.514C259.533,294.77 262.88,299.003 265.662,302.157C269.517,306.524 273.107,311.128 276.766,315.659C277.276,316.29 278.713,318.075 280.105,319.085C280.052,314.976 279.987,310.866 279.898,306.762C279.772,300.947 279.619,295.133 279.466,289.317C279.249,289.088 279.06,288.786 278.916,288.412C275.788,280.322 266.934,275.226 262.676,267.886C262.443,267.485 262.383,265.542 263.329,266.041C266.837,267.892 269.456,271.461 272.133,274.343C274.153,276.518 276.673,280.237 279.287,282.468C279.139,276.715 279.002,270.963 278.9,265.21C278.843,261.97 278.776,258.729 278.719,255.488C277.805,254.525 277.131,253.161 276.472,252.256C274.358,249.347 271.97,246.684 269.384,244.188C268.194,243.039 268.987,239.034 270.683,240.539C273.568,243.1 276.24,245.868 278.621,248.902C278.605,247.411 278.593,245.92 278.587,244.429C278.564,238.144 277.663,231.382 278.843,225.19C279.121,223.734 280.514,223.701 280.861,225.141C282.407,231.561 281.802,238.747 282.084,245.333C282.159,247.071 282.225,248.809 282.285,250.549C282.304,250.537 282.322,250.525 282.341,250.513C283.198,249.959 283.957,248.187 284.56,247.373C285.918,245.543 287.318,243.747 288.709,241.942C290.256,239.936 291.519,243.369 290.665,244.768C288.779,247.853 287.044,251.208 284.783,254.041C284.119,254.874 283.388,255.79 282.468,256.28C282.566,259.554 282.655,262.83 282.754,266.105C282.886,270.442 282.995,274.779 283.096,279.118C286.995,274.517 291.915,270.409 296.472,267.006C298.251,265.678 299.065,269.364 297.883,270.426C294.96,273.051 292.188,275.668 289.672,278.679C287.317,281.497 285.43,284.566 283.28,287.497C283.417,293.888 283.55,300.279 283.718,306.668C283.797,309.649 283.888,312.633 283.987,315.619C284.973,313.584 286.068,311.597 287.286,309.691C290.467,304.715 294.218,300.061 297.675,295.273C299.414,292.863 301.189,296.985 300.022,298.664C295.96,304.505 291.669,310.286 287.914,316.33C286.934,317.908 285.962,321.555 284.27,323.625L284.273,323.684L284.281,323.909C287.851,323.687 291.419,323.413 294.982,323.178C299.298,322.895 303.613,322.6 307.929,322.329C310.906,322.142 314.039,321.605 316.996,322.013C315.41,317.017 315.14,311.253 314.466,306.295C313.472,298.975 312.429,291.662 311.309,284.36C309.051,269.644 306.494,254.975 303.633,240.364C300.706,225.414 297.479,210.518 293.964,195.695C291.711,186.189 288.004,175.427 287.48,165.121ZM707.955,127.722C700.407,137.363 697.912,150.757 694.352,162.147C689.837,176.59 685.326,191.036 680.826,205.484C676.229,220.251 671.63,235.018 667.031,249.785C662.843,263.237 659.244,277.053 654.438,290.316C666.734,289.75 679.075,289.113 691.371,288.421C694.411,288.25 697.471,288.027 700.544,287.784C693.106,278.162 685.208,268.855 677.975,259.102C677.392,258.316 677.861,255.543 679.158,256.618C683.921,260.568 687.616,266.093 691.52,270.861C694.836,274.911 698.149,278.966 701.502,282.988C701.467,279.67 701.467,276.354 701.522,273.043C701.647,265.56 701.504,258.073 701.283,250.586C696.791,245.071 691.957,239.867 686.807,234.956C685.76,233.958 686.481,230.494 687.931,231.797C692.631,236.018 697.005,240.497 701.116,245.256C700.975,240.991 700.823,236.725 700.696,232.461C700.56,227.887 700.313,223.288 700.066,218.682C697.503,214.771 694.423,211.524 690.745,208.522C689.666,207.64 690.33,204.388 691.811,205.526C694.666,207.72 697.294,210.191 699.76,212.816C699.414,205.823 699.173,198.828 699.419,191.893C699.509,189.371 702.473,187.94 702.866,191.094C703.718,197.917 704.072,204.846 704.287,211.786C706.299,208.967 708.529,206.219 711.006,204.176C712.471,202.967 712.802,205.904 712.387,206.744C710.354,210.865 707.343,214.907 704.467,218.633C704.566,222.894 704.658,227.147 704.826,231.369C705.006,235.905 705.126,240.448 705.242,244.992C709.035,240.135 713.493,235.446 718.416,232.063C720.084,230.916 720.423,234.047 719.627,235.002C715.128,240.404 709.718,244.823 705.38,250.39C705.57,257.58 705.802,264.769 706.292,271.936C706.487,274.779 706.634,277.629 706.746,280.483C708.273,278.141 709.83,275.818 711.347,273.479C713.79,269.71 716.157,264.766 719.838,262.077C721.068,261.18 721.485,263.28 721.236,264.096C719.786,268.835 716.553,272.996 713.867,277.118C711.679,280.475 709.56,283.901 707.316,287.23C717.369,286.399 727.491,285.602 737.436,285.925C731.966,258.537 726.468,231.154 720.976,203.771C718.098,189.419 715.175,175.075 712.374,160.708C710.358,150.36 707.267,138.648 707.955,127.722ZM1000,175.05C989.98,175.637 979.96,176.217 969.94,176.77C970.333,196.078 970.838,215.399 970.615,234.683C970.575,238.184 967.072,238.263 966.883,234.774C965.839,215.576 965.735,196.272 965.66,177.005C963.26,177.135 960.86,177.264 958.46,177.391C950.212,177.827 941.963,178.119 933.708,178.422C928.087,178.628 915.385,178.474 914.87,178.482C912.747,178.517 910.637,178.388 908.515,178.325C906.314,178.261 906.401,174.921 907.092,173.559C914.185,159.592 922.716,145.667 928.027,130.91C932.967,117.181 936.25,102.803 940.787,88.922C950.228,60.043 960.972,31.497 972.676,3.461C972.911,2.898 973.196,2.607 973.487,2.516C974.177,1.538 975.602,1.945 975.703,3.783C976.46,17.616 980.246,30.834 984.147,44.044C988.112,57.473 990.909,71.039 993.649,84.761C995.783,95.45 997.901,106.141 1000,116.836L1000,138.205C999.266,134.176 998.529,130.158 997.727,126.181C994.867,111.983 992.055,97.778 989.259,83.568C986.508,69.586 983.507,55.793 979.717,42.053C976.803,31.492 973.989,20.893 973.281,9.986C962.89,37.612 952.032,65.024 943.023,93.152C938.395,107.601 935.313,122.841 929.646,136.914C924.728,149.127 918.359,160.841 912.307,172.565C913.112,172.543 915.822,172.882 916.162,173.376C932.645,173.167 949.147,172.162 965.637,170.991L965.635,170.488C958.804,162.809 950.865,155.744 945.185,147.193C944.699,146.46 945.018,143.853 946.297,144.859C953.663,150.652 959.438,158.637 965.614,165.807C965.594,161.877 965.569,157.951 965.529,154.028C965.466,147.748 965.404,141.469 965.356,135.192C960.364,128.744 955.152,122.461 949.872,116.249C949.194,115.452 949.995,112.774 951.007,113.864C955.875,119.104 960.61,124.449 965.319,129.825C965.285,124.431 965.265,119.039 965.265,113.646C965.265,110.06 965.214,106.458 965.167,102.848C961.61,98.238 958.138,93.563 954.665,88.889C953.933,87.904 954.87,85.368 955.977,86.779C958.923,90.531 961.981,94.179 965.111,97.773C965.051,90.335 965.126,82.894 965.836,75.537C966.031,73.513 967.816,74.447 967.982,75.925C968.787,83.124 969,90.42 969.065,97.717C970.097,96.087 970.801,94.181 971.831,92.532C973.453,89.935 975.034,88.385 977.146,86.338C978.164,85.352 978.594,87.674 978.215,88.325C976.179,91.827 974.292,95.366 972.064,98.781C971.101,100.259 970.346,102.06 969.092,103.28C969.103,107.373 969.102,111.459 969.168,115.521C969.244,120.173 969.303,124.825 969.353,129.479C973.628,124.488 977.807,119.507 981.577,114.051C983.014,111.973 984.487,115.486 983.563,116.92C979.57,123.12 974.636,129.844 969.411,135.253C969.473,141.806 969.524,148.359 969.588,154.913C969.622,158.385 969.67,161.859 969.726,165.33C971.253,162.823 972.946,160.443 974.893,158.174C978.281,154.225 982.569,151.118 985.832,147.072C986.907,145.74 987.886,147.831 987.423,148.851C985.531,153.026 982.352,155.565 979.237,158.844C975.832,162.43 972.81,166.45 970.193,170.663C980.137,169.942 990.073,169.182 1000,168.521L1000,175.05ZM0,116.836C0.691,120.357 1.38,123.877 2.066,127.397C4.744,141.131 8.228,154.973 9.771,168.886C9.814,169.273 9.787,169.614 9.708,169.905C10.253,171.806 9.651,174.485 7.798,174.593L0,175.05L0,168.521C2.129,168.378 4.257,168.241 6.385,168.11C3.644,158.365 1.831,148.248 0,138.205L0,116.836ZM553.592,0C555.93,16.025 558.157,32.064 560.281,48.116C561.732,49.573 561.42,53.631 559.221,53.663C546.963,53.839 534.709,53.927 522.457,54.168C522.778,74.396 523.722,94.588 525.033,114.801C525.275,118.545 521.267,118.594 521.053,114.899C519.885,94.719 519.328,74.469 519.201,54.236C516.87,54.287 514.538,54.345 512.206,54.41C496.565,54.851 480.968,56.384 465.339,56.714C464.977,56.722 464.701,56.565 464.508,56.315C463.104,57.114 460.999,54.263 461.954,52.129C468.52,37.454 473.355,21.755 478.946,6.679C479.772,4.452 480.599,2.225 481.427,0L485.195,0C483.978,3.367 482.759,6.732 481.537,10.096C476.355,24.362 470.344,38.6 465.92,53.131C480.892,49.882 496.8,49.211 512.06,48.513C514.226,48.414 516.392,48.325 518.558,48.246C518.169,47.726 517.83,47.223 517.559,46.894C515.712,44.658 513.864,42.423 512.017,40.186C507.919,35.221 503.842,30.235 499.674,25.327C499.031,24.571 499.815,22.067 500.738,23.092C504.322,27.071 507.973,30.988 511.617,34.913C513.328,36.757 515.038,38.6 516.747,40.445C517.124,40.852 518.16,42.209 519.174,43.373C519.178,39.712 519.195,36.051 519.224,32.393C519.267,27.075 519.412,21.752 519.551,16.428C517.247,15.086 514.651,10.777 513.591,9.351C511.127,6.033 508.638,2.834 505.685,0L509.727,0C510.165,0.461 510.595,0.935 511.024,1.421C513.255,3.95 515.678,8.146 518.611,9.891C518.934,10.382 519.293,10.713 519.687,10.882C519.769,7.254 519.829,3.626 519.833,0L522.949,0C522.945,3.166 522.903,6.333 522.841,9.5C523.065,9.227 523.291,8.955 523.518,8.684C524.56,7.579 525.225,6.191 526.217,5.038C527.825,3.169 529.575,1.656 531.168,0L534.939,0C534.233,1.15 533.471,2.266 532.635,3.291C530.888,5.432 528.554,6.988 526.978,9.29C525.899,10.866 524.743,14.643 522.692,16.172C522.545,22.21 522.384,28.247 522.35,34.282C522.332,37.573 522.332,40.864 522.349,44.154C523.267,42.952 524.455,41.141 524.657,40.915C526.083,39.318 527.589,37.785 529.004,36.171C531.77,33.014 534.317,29.109 538.011,27.013C538.923,26.495 538.935,28.362 538.734,28.771C536.066,34.187 530.978,38.106 527.435,42.944C526.744,43.888 525.74,46.249 524.472,48.053C535.317,47.738 546.171,47.634 557.021,47.607C554.917,31.725 552.716,15.856 550.403,0L553.592,0Z" style="fill-rule:nonzero;"/>
</svg>
