<?xml version="1.0" encoding="UTF-8" standalone="no"?>
<!DOCTYPE svg PUBLIC "-//W3C//DTD SVG 1.1//EN" "http://www.w3.org/Graphics/SVG/1.1/DTD/svg11.dtd">
<svg width="100%" height="100%" viewBox="0 0 1000 1000" version="1.1" xmlns="http://www.w3.org/2000/svg" xmlns:xlink="http://www.w3.org/1999/xlink" xml:space="preserve" xmlns:serif="http://www.serif.com/" style="fill-rule:evenodd;clip-rule:evenodd;stroke-linejoin:round;stroke-miterlimit:2;">
    <path d="M469.633,1000C469.764,994.281 470.702,988.556 472.142,983.084C473.844,976.618 476.348,969.272 481.061,964.215C481.05,963.227 481.381,962.235 482.18,961.762C488.969,957.736 495.318,953.207 502.787,950.458C508.937,948.194 515.405,947.071 521.946,946.894C534.837,946.547 546.643,950.483 556.843,958.446C570.157,968.841 577.209,984.078 576.751,1000L572.988,1000C574.034,981.007 561.157,962.598 543.638,955.684C523.517,947.744 502.994,952.258 486.068,964.661C478.708,971.701 475.389,981.552 473.72,991.573C473.251,994.39 472.97,997.206 472.907,1000L469.633,1000ZM452.985,1000C452.561,995.334 452.5,990.65 453.303,986.002C454.619,978.37 457.892,971.295 461.464,964.485C464.946,957.846 468.36,951.226 474.334,946.474C478.896,942.844 484.104,940.3 489.427,938.019C489.486,937.951 489.551,937.89 489.622,937.838C517.45,917.562 556.734,932.42 576.812,956.778C585.965,967.881 591.799,981.827 592.779,996.215C592.865,997.491 592.91,998.752 592.915,1000L589.084,1000C589.104,981.769 580.34,963.898 565.759,951.454C546.203,934.766 517.396,927.148 494.284,940.213C494.116,940.668 493.839,941.039 493.444,941.221C486.586,944.395 479.345,947.578 473.832,952.884C468.103,958.398 464.389,966.76 461.144,973.927C457.627,981.697 455.772,989.529 456.421,998.098C456.468,998.731 456.521,999.365 456.579,1000L452.985,1000ZM538.907,978.699C542.25,977.257 546.162,979.911 547.105,983.681C548.261,988.291 545.347,992.651 541.053,994.31C536.435,996.093 532.287,991.735 531.337,987.535C530.869,985.467 530.865,982.862 531.866,980.935C532.969,978.811 535.805,978.34 537.998,978.337C538.37,978.336 538.673,978.473 538.907,978.699ZM504.413,977.002C507.778,975.032 512.904,975.216 515.318,978.329C518.247,982.107 516.926,987.856 513.07,990.404C511.163,991.664 508.63,992.3 506.357,991.92C504.126,991.548 503.143,990 501.945,988.28C500.559,986.289 499.645,984.089 499.881,981.585C500.122,979.034 501.2,977.731 503.56,976.991C503.83,976.906 504.147,976.884 504.413,977.002ZM538.487,982.75C537.871,983.04 537.296,983.287 536.637,983.451C536.18,983.565 535.127,983.522 534.718,983.81C533.788,984.463 533.94,985.573 534.284,986.635C535.045,988.981 537.659,991.059 540.194,990.151C542.1,989.469 544.78,987.12 543.64,984.904C542.699,983.078 540.417,982.725 538.487,982.75ZM503.653,982.039C503.478,982.363 503.402,982.758 503.49,983.296C503.633,984.177 504.456,985.641 505.094,986.322C506.609,987.935 509.314,987.222 511.009,986.292C513.505,984.923 514.394,982.162 511.479,980.848C509.372,979.899 506.094,980.03 504.355,981.685C504.104,981.924 503.868,982.032 503.653,982.039ZM177.368,775.446C180.927,773.264 184.664,771.389 188.662,769.971C197.077,766.988 205.496,763.829 214.45,762.997C230.929,761.467 247.1,768.254 260.069,778.029C272.595,787.47 279.476,799.634 284.844,814.13C287.394,821.017 288.922,827.792 288.158,835.171C287.379,842.69 285.388,850.361 282.901,857.491C278.181,871.023 270.163,883.077 258.235,891.244C246.849,899.04 232.666,903.271 218.871,903.029C188.969,902.502 159.884,882.71 152.618,853.156C148.931,838.159 147.972,823.251 152.771,808.353C155.718,799.206 160.603,790.914 167.107,784.041C167.067,783.353 167.237,782.68 167.719,782.297C170.251,780.281 172.842,778.363 175.528,776.61C175.971,776.285 176.419,775.966 176.872,775.651C177.048,775.529 177.214,775.464 177.368,775.446ZM177.119,779.2C166.16,787.88 158.18,800.112 154.593,813.649C150.113,830.558 152.509,848.156 160.178,863.706C172.462,888.615 203.768,900.683 230.478,897.001C243.114,895.258 255.143,889.36 264.34,880.525C274.39,870.872 280.098,857.773 283.29,844.394C285.268,836.104 286.193,828.159 283.532,819.876C281.601,813.868 279.213,807.849 276.358,802.221C269.888,789.468 258.316,779.868 245.652,773.544C233.343,767.396 219.892,765.214 206.332,767.744C196.182,769.638 185.731,773.207 177.119,779.2ZM181.509,793.24C184.047,790.38 186.857,787.826 190.398,786.141C196.9,783.047 204.467,781.538 211.591,780.841C225.104,779.517 239.239,781.075 249.646,790.515C258.064,798.151 266.935,807.416 270.526,818.39C273.925,828.777 272.758,840.005 269.284,850.218C262.085,871.382 243.612,887.97 220.577,888.345C208.498,888.541 196.914,883.288 186.886,876.927C176.528,870.358 172.056,857.953 168.474,846.723C162.407,827.705 167.812,807.124 181.509,793.24ZM188.565,790.779C188.501,790.902 188.421,791.009 188.325,791.096C180.206,798.414 173.673,808.145 170.692,818.725C167.124,831.388 170.834,843.331 175.822,855.032C178.079,860.326 180.257,865.482 184.811,869.239C188.64,872.397 193.259,874.623 197.696,876.79C206.901,881.284 216.49,883.558 226.719,881.83C246.418,878.503 261.825,862.751 267.234,843.874C270.541,832.333 269.91,820.897 263.723,810.52C258.497,801.755 250.03,793.733 241.029,788.866C231.804,783.878 220.09,783.197 209.864,784.592C203.912,785.405 198.157,787.01 192.563,789.174C191.238,789.687 189.885,790.203 188.565,790.779ZM235.927,845.543C236.306,845.025 236.868,844.886 237.586,845.537C239.265,847.058 240.726,847.629 241.48,849.969C242.069,851.798 241.837,853.605 241.465,855.455C240.633,859.593 235.999,861.538 232.161,860.51C228.079,859.417 225.562,855.083 226.847,851.01C228.153,846.867 231.991,845.407 235.927,845.543ZM208.089,844.372C208.117,844.377 208.145,844.384 208.173,844.391C212.555,845.541 216.159,848.722 214.549,853.647C213.863,855.744 212.536,858.143 210.806,859.567C209.221,860.871 207.17,860.481 205.328,859.997C200.855,858.821 198.505,855.015 199.445,850.48C200.296,846.386 203.896,843.049 208.089,844.372ZM235.616,849.259C233.911,849.338 232.187,849.698 230.835,850.781C228.25,852.854 229.808,855.366 232.448,856.107C234.505,856.684 236.986,856.146 238.589,854.735C238.755,854.59 239.731,853.777 239.842,853.541C240.378,852.391 239.24,848.816 237.32,849.886C236.469,850.36 235.912,849.978 235.616,849.259ZM207.437,848.279C205.096,847.804 202.527,849.264 202.175,851.826C201.815,854.461 204.244,854.704 206.202,855.037C206.881,855.152 208.017,855.503 208.68,855.227C209.484,854.895 210.592,853.352 211.003,852.571C212.502,849.725 209.78,849.014 207.561,848.325C207.519,848.312 207.477,848.296 207.437,848.279ZM237.654,811.622C241.876,812.806 243.428,817.692 242.443,821.642C241.947,823.633 240.813,825.702 239.128,826.926C237.319,828.238 235.637,827.861 233.72,827.004C230.036,825.355 226.759,822.486 227.518,818.039C228.284,813.558 232.791,810.809 237.14,811.406C237.333,811.433 237.505,811.509 237.654,811.622ZM206.712,808.81C207.099,808.212 207.684,807.931 208.296,808.439C210.4,810.185 213.181,810.358 214.815,812.753C215.95,814.417 216.253,816.599 215.959,818.557C215.258,823.216 211.357,826.19 206.684,825.528C202.001,824.864 198.29,821.594 199.05,816.57C199.64,812.667 202.759,808.99 206.712,808.81ZM748.661,697.024C748.738,696.835 748.849,696.673 748.996,696.555C755.644,691.249 763.047,686.429 771.265,683.987C779.881,681.428 788.803,682.758 797.578,683.73C813.95,685.546 828.527,693.178 839.154,705.861C848.579,717.109 856.795,733.09 858.5,747.785C859.429,755.781 856.76,763.617 856.228,771.559C855.744,778.787 853.099,785.234 849.277,791.341C833.828,816.033 803.966,828.368 775.641,821.706C759.786,817.976 748.249,809.804 737.595,797.64C732.935,792.32 728.335,786.74 726.078,779.931C724.683,775.72 724.12,771.305 722.712,767.085C721.683,764.004 720.717,761.024 720.279,757.791C717.11,734.363 729.744,710.533 748.661,697.024ZM236.171,815.038C234.118,815.183 231.854,816.065 230.788,817.869C229.381,820.251 231.876,821.535 233.783,822.396C236.111,823.447 237.986,823.661 239.427,821.117C240.89,818.535 239.52,816.16 236.828,815.499C236.555,815.432 236.337,815.266 236.171,815.038ZM208.514,812.621C208.363,812.712 208.187,812.753 207.987,812.727C205.422,812.397 201.849,814.748 201.783,817.64C201.724,820.224 205.61,821.16 207.634,821.052C209.787,820.937 212.604,819.828 213.096,817.466C213.576,815.169 210.631,813.287 208.514,812.621ZM756.651,694.74C756.559,695.056 756.394,695.323 756.148,695.463C743.483,702.699 733.453,714.006 727.786,727.465C725.172,733.675 723.451,740.29 722.839,747.005C722.494,750.787 722.399,754.794 723.12,758.537C723.821,762.18 725.513,765.542 726.536,769.095C727.64,772.926 728.112,776.877 729.717,780.561C731.141,783.831 733.222,786.778 735.408,789.576C739.531,794.852 744.036,800.255 749.225,804.524C759.976,813.373 774.761,818.383 788.562,818.626C814.125,819.075 838.906,804.841 850.279,781.69C853.77,774.584 853.306,766.277 854.77,758.589C856.385,750.119 854.686,742.791 851.638,734.86C846.533,721.582 839.901,709.253 828.399,700.425C817.611,692.143 803.736,688.028 790.352,686.93C777.538,685.878 766.849,688.413 756.651,694.74ZM752.013,712.914C752.097,712.631 752.224,712.384 752.399,712.198C762.156,701.871 777.644,699.21 791.328,699.232C798.319,699.244 804.459,701.87 810.875,704.342C817.177,706.769 821.81,709.974 826.409,714.92C833.777,722.845 840.067,732.493 842.7,743.081C843.893,747.878 844.652,753.189 844.031,758.127C843.294,763.986 840.01,769.223 838.6,774.946C835.782,786.382 827.376,792.523 817.977,798.813C807.96,805.517 797.051,808.334 785.045,807.508C773.674,806.725 762.179,801.633 754.256,793.338C746.118,784.819 739.114,774.842 737.183,763.022C735.259,751.233 737.112,739.704 742.01,728.848C744.375,723.604 747.272,718.266 751.074,713.92C751.379,713.571 751.692,713.236 752.013,712.914ZM764.15,708.588C753.53,714.854 746.791,723.997 742.739,735.792C738.608,747.821 738.89,761.296 744.346,772.857C753.391,792.019 774.467,805.564 795.857,802.198C806.528,800.519 815.458,794.993 823.923,788.567C828.135,785.369 832.17,781.781 834.148,776.741C835.816,772.493 836.724,768.064 838.53,763.84C846.278,745.725 832.139,719.037 815.452,710.325C805.256,705.002 795.262,702.338 783.745,703.475C776.525,704.187 770.042,705.61 764.15,708.588ZM801.388,765.552C803.773,763.352 808.885,765.492 810.672,768.079C812.941,771.366 811.86,776.631 808.407,778.667C804.515,780.963 799.281,779.066 797.29,775.148C796.312,773.224 796.03,770.941 796.759,768.884C797.327,767.283 798.823,765.025 800.758,765.31C800.997,765.346 801.207,765.43 801.388,765.552ZM768.287,764.064C772.076,762.24 776.768,762.638 779.319,766.344C781.489,769.5 781.439,774.236 778.38,776.821C775.028,779.654 770.522,778.551 767.797,775.487C765.296,772.673 763.09,767.127 766.783,764.291C767.128,764.025 767.694,763.728 768.146,763.984L768.287,764.064ZM801.312,769.617C799.826,770.972 798.517,771.979 800.699,773.836C802.279,775.181 804.68,775.631 806.618,774.857C809.297,773.789 809.526,771.215 807.051,769.813C806.056,769.251 804.782,768.739 803.621,768.927C802.748,769.067 802.246,769.683 801.344,769.62C801.333,769.619 801.323,769.618 801.312,769.617ZM769.428,767.941C769.414,767.963 769.399,767.985 769.383,768.007C768.846,768.767 768.185,769.098 768.11,769.934C767.994,771.247 769.316,772.721 770.308,773.415C772.174,774.718 774.776,774.71 776.593,773.31C778.826,771.59 777.901,769.072 775.693,767.839C774.532,767.189 773.16,767.054 771.853,767.258C771.192,767.361 770.605,767.672 769.967,767.818C769.835,767.849 769.647,767.894 769.428,767.941ZM804.183,731.81C804.296,731.755 804.42,731.715 804.557,731.691C809.228,730.893 813.797,732.703 814.988,737.626C815.9,741.397 814.324,745.639 810.419,746.893C802.024,749.588 795.325,733.724 804.183,731.81ZM773.132,730.643C775.795,728.98 779.678,729.629 781.666,732.252C783.949,735.266 783.978,740.094 781.117,742.76C778.044,745.622 773.155,744.601 770.473,741.667C767.306,738.201 769.095,733.617 772.168,730.917C772.537,730.593 772.861,730.532 773.132,730.643ZM805.599,735.984C805.339,736.465 804.935,736.804 804.37,736.856C801.2,737.149 803.665,740.951 804.863,742.25C806.506,744.03 809.157,743.878 810.939,742.355C812.54,740.987 812.734,738.827 811.112,737.379C809.669,736.091 807.512,736.047 805.599,735.984ZM773.265,734.646C772.767,735.34 772.207,736.165 772.051,736.845C771.79,737.983 772.716,738.633 773.66,739.166C775.475,740.193 777.608,740.585 779.295,739.096C781.069,737.531 779.954,735.36 778.082,734.473C776.405,733.679 774.875,734.187 773.265,734.646ZM461.076,484.91C473.577,474.125 488.611,467.397 505.405,468.37C513.605,468.845 522.243,469.471 529.947,472.532C537.279,475.445 544.65,479.993 551.035,484.625C572.962,500.529 580.768,534.57 572.016,559.518C567.459,572.506 558.793,586.153 547.327,593.968C534.901,602.438 519.936,607.992 504.795,608.208C490.197,608.417 476.378,603.438 465.457,593.751C454.727,584.234 444.377,571.503 439.289,558.001C434.592,545.539 432.555,529.19 436.597,516.29C440.609,503.485 450.646,493.549 460.647,485.151C460.798,485.024 460.941,484.946 461.076,484.91ZM462.08,487.693C462.016,487.826 461.935,487.943 461.837,488.037C451.511,497.883 440.753,508.199 438.396,522.932C435.759,539.406 440.306,556.452 450.094,569.722C457.784,580.147 466.748,590.468 478.337,596.646C490.042,602.885 503.855,604.027 516.739,601.444C528.896,599.007 543.245,593.182 552.319,584.502C561.779,575.455 569.571,560.288 571.54,547.455C573.546,534.388 571.254,520.155 565.568,508.247C559.383,495.292 549.06,487.738 536.887,480.812C525.214,474.171 511.419,471.574 497.987,472.12C483.864,472.695 472.522,478.541 462.08,487.693ZM489.263,486.203C494.464,483.815 501.545,483.242 506.914,484.201C510.104,484.771 512.89,485.634 516.169,485.956C519.013,486.234 521.686,486.948 524.32,488.085C530.119,490.587 535.228,494.624 540.165,498.49C545.086,502.344 549.316,506.197 552.228,511.794C557.262,521.471 559.055,532.37 557.585,543.189C556.18,553.533 552.234,566.156 545.043,573.984C537.772,581.897 526.924,588.923 516.212,590.378C504.63,591.951 493.196,591.733 482.744,585.918C465.133,576.12 452.17,554.762 453.143,534.414C453.41,528.838 455.137,523.784 456.93,518.558C458.768,513.201 459.526,507.755 463.107,503.178C469.156,495.449 479.749,489.445 489.263,486.203ZM493.133,488.348C493.028,488.487 492.901,488.6 492.754,488.678C483.04,493.836 469.469,499.019 463.65,508.979C460.956,513.591 460.072,519.561 458.091,524.537C455.56,530.894 455.759,537.601 457.223,544.214C461.174,562.066 473.601,578.207 491.086,584.382C501.9,588.202 511.415,588.333 522.035,584.046C530.757,580.524 540.669,574.357 545.879,566.3C557.525,548.29 559.429,522.614 544.216,506.293C537.23,498.798 527.134,492.072 517.024,490.256C512.215,489.391 507.22,487.175 502.354,487.22C499.371,487.248 496.148,487.552 493.133,488.348ZM518.097,551.109C521.075,548.764 526.605,549.227 528.205,552.88C529.964,556.897 528.941,562.551 525.049,564.933C521.202,567.288 516.806,565.693 514.777,561.822C513.789,559.938 513.396,557.685 513.77,555.583C514.118,553.628 515.158,550.972 517.446,550.96C517.686,550.959 517.903,551.012 518.097,551.109ZM488.722,548.374C490.68,547.593 493.055,547.698 494.903,548.705C498.656,550.75 499.819,556.319 498.087,560.027C495.745,565.039 488.93,565.021 485.713,560.855C484.053,558.708 483.541,555.891 484.131,553.265C484.564,551.341 485.831,548.377 488.109,548.27C488.339,548.259 488.543,548.297 488.722,548.374ZM519.21,554.659C519.083,555.211 518.834,555.682 518.46,555.945C517.529,556.598 516.475,557.001 516.802,558.327C517.052,559.337 517.903,560.156 518.797,560.592C520.544,561.446 522.636,561.208 524.136,559.936C525.863,558.47 526.258,554.849 523.788,553.943C522.13,553.335 520.697,554.284 519.21,554.659ZM488.938,552.776C488.847,552.86 488.749,552.93 488.645,552.984C488.196,553.217 487.702,555.311 487.806,555.79C487.992,556.654 489.136,557.311 489.866,557.619C491.608,558.354 494.302,558.513 495.292,556.576C496.118,554.961 494.935,553.305 493.449,552.584C491.948,551.854 490.35,552.049 488.938,552.776ZM523.677,515.671C527.285,513.015 532.934,515.962 534.374,519.907C535.688,523.505 535.492,530.242 531.625,532.354C527.403,534.66 521.959,531.422 520.024,527.539C518.328,524.134 518.076,516.994 522.714,515.668C523.03,515.577 523.375,515.547 523.677,515.671ZM0,398.895C1.013,398.438 2.036,398.002 3.066,397.583C16.139,390.137 32.992,389.572 47.476,392.065C62.31,394.619 76.39,403.794 85.643,415.481C94.517,426.689 101.987,441.886 103.611,456.188C105.331,471.337 100.614,485.925 92.633,498.702C84.908,511.069 74.399,522.334 60.603,527.792C54.106,530.362 46.813,531.083 39.885,531.443C33.048,531.798 25.477,531.389 18.861,529.479C12.223,527.563 5.876,524.621 0,520.86L0,515.017C9.389,521.351 20.12,525.529 31.312,526.465C44.039,527.53 56.504,523.839 67.517,517.539C79.634,510.607 88.813,497.974 94.584,485.461C97.714,478.676 99.836,471.478 100.413,464.012C100.984,456.62 99.149,449.786 96.485,442.948C91.45,430.027 84.116,417.567 73.095,408.869C63.421,401.233 51.112,397.167 38.889,396.205C28.397,395.379 18.742,397.339 8.925,400.072C5.96,401.524 2.939,402.945 0,404.503L0,398.895ZM524.428,519.884C523.597,520.769 522.495,521.067 522.18,522.395C521.892,523.607 522.364,524.96 522.988,525.996C524.182,527.975 526.951,528.955 529.214,528.55C532.475,527.965 532.758,522.633 530.479,520.719C528.579,519.123 526.506,519.87 524.428,519.884ZM491.28,511.422C492.797,510.271 494.568,509.472 496.525,510.176C498.564,510.908 500.335,512.71 501.734,514.281C504.771,517.692 505.244,522.932 501.451,526.092C497.747,529.178 492.873,528.135 489.813,524.743C488.302,523.068 487.288,520.996 487.094,518.728C486.998,517.61 487.072,516.457 487.4,515.377C487.772,514.151 488.731,513.424 489.175,512.285C489.531,511.376 490.352,510.746 491.247,511.398L491.28,511.422ZM491.305,516.206C491.224,516.385 491.138,516.567 491.05,516.757C490.301,518.363 490.378,519.535 491.673,520.868C493.304,522.548 495.943,523.143 498.123,522.257C499.303,521.776 501.104,520.492 500.577,518.921C500.291,518.068 498.811,517.113 498.1,516.617C495.925,515.102 493.646,515.403 491.305,516.206ZM1000,398.895L1000,404.503C995.85,406.702 991.862,409.173 988.419,412.387C982.596,417.825 978.646,425.336 974.765,432.216C969.981,440.695 966.399,448.877 966.843,458.812C967.202,466.858 969.281,475.626 972.65,482.966C978.463,495.629 988.166,507.035 1000,515.017L1000,520.86C981.935,509.303 968.335,490.024 964.499,469.136C961.603,453.375 965.822,438.632 973.834,425.072C977.912,418.17 981.99,411.024 988.294,405.89C991.848,402.996 995.838,400.77 1000,398.895ZM0,419.647C1.936,417.824 3.968,416.17 6.046,414.734C6.314,414.549 6.555,414.483 6.765,414.507C8.473,413.314 10.262,412.307 11.725,411.512C17.012,408.641 23.244,406.836 29.251,406.499C42.265,405.771 55.073,411.474 65.857,418.236C75.841,424.497 82.009,433.094 85.753,444.218C89.466,455.252 87.844,467.046 84.025,477.818C80.555,487.608 75.514,497.919 67.22,504.521C58.974,511.084 45.989,515.179 35.508,515.265C24.413,515.356 11.974,510.468 3.873,502.908C2.543,501.667 1.249,500.418 0,499.138L0,494.248C10.531,504.842 25.525,511.287 40.438,509.173C49.566,507.88 60.648,504.205 67.426,497.718C74.206,491.23 78.423,482.149 81.306,473.349C84.928,462.29 85.147,451.691 80.402,440.96C78.082,435.714 75.567,430.734 71.125,426.956C67.535,423.904 63.259,420.943 59.092,418.747C50.513,414.227 40.72,411.292 30.999,411.303C25.693,411.31 20.364,412.025 15.498,414.234C13.54,415.124 11.611,416.172 9.793,417.321C8.827,417.931 6.53,419.295 5.015,420.704C4.606,421.213 4.193,421.718 3.778,422.219C3.696,422.383 3.637,422.544 3.605,422.7C3.366,423.881 2.743,424.275 2.144,424.164C1.43,425.007 0.712,425.847 0,426.688L0,419.647ZM1000,419.647L1000,426.688C995.498,432.005 991.185,437.414 989.029,444.303C987.03,450.689 987.039,457.591 986.916,464.221C986.79,470.966 987.854,476.444 991.085,482.364C993.442,486.681 996.47,490.697 1000,494.248L1000,499.138C997.361,496.436 994.923,493.597 992.774,490.407C989.754,485.926 986.355,481.759 984.664,476.517C982.811,470.77 982.986,464.674 983.245,458.721C983.51,452.631 983.93,446.512 985.936,440.704C988.587,433.028 993.806,425.476 1000,419.647ZM46.993,471.992C47.252,472.016 47.52,472.042 47.794,472.065C49.919,472.241 51.51,473.54 52.327,475.455C54.27,480.011 51.549,484.357 47.22,486.047C44.766,487.005 42.726,486.272 40.997,484.356C40.068,483.326 39.645,482.18 39.044,480.955C38.604,480.058 38.202,479.382 38.093,478.314C37.856,475.992 38.592,473.461 40.461,471.971C42.26,470.537 45.263,470.502 46.993,471.992ZM14.87,469.056C17.487,467.763 22.144,468.942 23.879,470.806C26.453,473.571 26.43,479.931 23.744,482.632C20.777,485.614 14.338,484.814 12.228,481.231C10.354,478.049 8.742,470.249 13.759,468.839C14.247,468.702 14.61,468.808 14.87,469.056ZM47.384,475.461C47.335,475.52 47.281,475.576 47.223,475.629C46.335,476.433 45.666,476.617 44.495,476.765C43.551,476.884 42.26,476.973 41.665,477.84C40.327,479.794 44.002,481.521 45.545,481.195C46.969,480.894 50.02,479.681 49.72,477.893C49.568,476.986 48.438,475.766 47.587,475.511C47.518,475.49 47.451,475.474 47.384,475.461ZM14.277,473.278C13.807,473.835 13.361,474.392 13.381,474.987C13.408,475.768 14.333,477.687 14.807,478.227C16.073,479.67 19.629,479.805 21.272,478.842C22.413,478.173 22.675,476.802 22.563,475.546C22.426,474.014 21.424,473.277 20.045,472.812C18.673,472.349 17.167,472.368 15.815,472.859C15.185,473.088 14.804,473.319 14.277,473.278ZM48.201,439.963C51.136,438.032 56.48,439.729 58.357,442.544C61.032,446.558 60.039,452.451 56.801,455.844C52.858,459.978 47.905,456.903 44.733,453.423C42.926,451.441 41.936,449.421 42.196,446.676C42.308,445.505 42.625,444.286 43.249,443.277C43.745,442.477 45.016,441.879 45.365,441.092C45.61,440.539 46.026,439.784 46.754,439.817L47.728,439.861C47.898,439.869 48.056,439.904 48.201,439.963ZM47.677,444.75C47.333,445.264 46.923,445.704 46.487,446.285C45.233,447.957 45.597,449.391 47.044,451.035C49.052,453.315 52.51,454.742 54.974,452.336C57.218,450.143 57.438,445.373 54.02,444.238C52.153,443.619 50.166,444.802 48.472,444.525C48.29,444.639 48.082,444.713 47.848,444.734L47.677,444.75ZM16.569,437.209C16.647,437.049 16.747,436.917 16.873,436.826C20.856,433.944 27.476,434.798 29.4,439.689C30.322,442.03 30.727,444.884 29.839,447.294C29.128,449.223 27.668,450.138 26.102,451.199C21.908,454.042 16.404,450.513 14.233,446.58C12.424,443.304 13.485,438.941 16.569,437.209ZM20.368,439.236C20.234,439.799 19.951,440.274 19.525,440.451C17.167,441.43 16.037,443.638 18.218,445.663C20.034,447.35 22.625,448.079 24.751,447.036C25.472,446.682 26.783,446.061 27.195,445.425C28.349,443.647 26.71,440.593 25.128,439.766C23.875,439.11 22.033,438.985 20.368,439.236ZM247.954,218.457C253.5,214.754 258.902,211.634 266.112,210.848C274.863,209.894 284.601,210.649 293.233,212.275C302.572,214.034 310.726,218.781 318.794,223.578C325.642,227.65 332.217,232.24 336.924,238.78C345.31,250.433 351.128,265.423 350.356,279.882C349.605,293.948 344.937,309.321 338.722,321.932C332.491,334.575 323.073,343.526 309.174,346.938C301.476,348.827 293.51,349.618 285.673,350.714C278.138,351.766 271.286,352.506 264.178,349.276C257.522,346.251 250.362,344.026 244.175,340.09C238.573,336.527 233.344,332.559 228.974,327.536C220.387,317.668 214.154,304.884 212.54,291.855C208.964,262.993 221.202,231.738 247.954,218.457ZM250.152,220.584C250.09,220.679 250.016,220.759 249.929,220.818C243.582,225.163 236.761,228.881 231.676,234.783C226.319,241.001 222.487,248.666 219.681,256.33C214.19,271.329 213.372,287.671 218.606,302.865C222.574,314.387 229.908,324.155 239.584,331.568C244.893,335.635 251.336,337.677 257.478,340.11C263.653,342.556 268.854,345.818 275.766,345.507C283.073,345.178 290.453,343.742 297.686,342.733C304.142,341.832 310.678,340.849 316.669,338.145C328.23,332.926 334.925,321.678 339.356,310.3C344.493,297.111 349.516,282.354 346.371,268.078C343.408,254.623 336.215,240.763 324.832,232.753C312.525,224.092 299.798,216.685 284.549,215.423C276.943,214.793 268.729,214.045 261.271,216.022C257.51,217.019 253.719,218.648 250.152,220.584ZM244.503,239.829C244.58,239.628 244.695,239.455 244.851,239.333C254.774,231.53 267.965,225.542 280.804,225.768C293.56,225.993 305.624,232.143 315.159,240.338C332.105,254.902 337.87,276.56 330.894,297.727C327.697,307.428 321.694,317.907 313.096,323.779C303.269,330.491 288.732,333.964 276.981,332.775C271.025,332.172 265.58,332.933 259.97,330.392C255.244,328.251 250.769,325.378 246.793,322.051C238.429,315.054 231.777,306.616 229.704,295.792C226.222,277.612 229.737,252.948 244.503,239.829ZM250.435,239.051C246.531,242.844 242.415,246.148 239.534,251.002C236.507,256.103 234.306,261.845 232.784,267.573C231.126,273.82 230.347,280.38 230.925,286.832C231.462,292.83 233.848,298.286 236.68,303.544C241.547,312.584 248.904,319.4 258.039,324.039C267.373,328.78 279.226,329.084 289.339,326.775C299.257,324.51 309.266,322.894 316.491,315.065C323.648,307.31 328.639,297.083 330.492,286.729C334.279,265.568 321.464,247.248 303.606,237.184C294.565,232.089 285.018,229.47 274.614,230.579C265.573,231.544 257.853,234.426 250.435,239.051ZM654.416,191.506C665.191,180.893 679.35,174.893 694.672,174.836C710.928,174.775 727.682,179.293 740.645,189.339C751.648,197.865 761.23,211.328 765.444,224.619C769.784,238.306 768.134,252.906 764.239,266.457C760.346,280.004 753.409,293.498 741.436,301.421C727.611,310.568 712.825,314.946 696.218,314.159C680.55,313.417 667.08,308.915 655.875,297.671C650.524,292.3 644.061,287.3 640.129,280.755C636.411,274.565 634.787,267.069 632.803,260.178C630.803,253.235 629.546,246.325 630.463,239.094C631.353,232.088 633.652,225.161 636.021,218.534C639.7,208.241 644.9,197.369 654.416,191.506ZM652.049,197.807C644.17,205.703 639.893,216.341 636.516,227.086C633.989,235.122 632.183,242.843 633.588,251.271C634.98,259.62 637.467,268.032 641.593,275.413C648.067,286.995 658.418,297.571 670.705,302.856C683.178,308.22 697.734,310.498 711.242,308.679C718.758,307.668 725.644,304.673 732.168,300.923C737.887,297.636 743.947,294.176 748.282,289.112C756.559,279.448 761.747,265.272 763.74,252.85C768.228,224.894 751.964,197.214 725.991,186.188C704.022,176.862 677.188,176.493 658.686,192.001C658.583,192.329 658.418,192.606 658.192,192.757C657.605,193.148 657.034,193.552 656.478,193.967C655.282,195.095 654.125,196.299 653.012,197.577C652.662,197.978 652.328,198.005 652.049,197.807ZM290.504,290.083C292.396,289.512 294.418,289.137 296.118,290.406C297.674,291.568 298.887,293.579 299.424,295.421C300.558,299.31 298.219,303.691 294.095,304.3C290.17,304.879 286.767,302.105 286.038,298.317C285.615,296.117 286.695,288.292 290.504,290.083ZM261.796,290.522C264.801,289.049 268.343,288.725 269.932,292.48C271.398,295.939 271.195,301.074 267.103,302.603C263.655,303.891 258.787,302.634 257.364,299.002C256.295,296.276 257.597,289.182 261.796,290.522ZM289.942,294.238C289.338,295.087 288.773,295.953 288.762,296.917C288.738,299.009 291.205,300.018 292.975,300.004C295.261,299.987 298.008,298.156 296.583,295.689C295.181,293.261 292.41,293.695 290.06,294.219C290.02,294.228 289.98,294.234 289.942,294.238ZM262.519,293.748C262.449,293.877 262.37,293.991 262.283,294.087C261.698,294.737 260.704,295.108 260.208,295.815C259.48,296.851 260.485,297.654 261.432,298.075C262.913,298.733 264.976,298.736 266.458,298.075C268.389,297.213 268.32,294.411 266.608,293.264C265.335,292.411 263.829,292.982 262.519,293.748ZM653.499,217.623C653.524,217.367 653.591,217.129 653.708,216.933C656.743,211.866 659.206,205.194 664.771,202.396C668.203,200.671 670.107,199.888 672.922,196.871C674.596,195.076 676.071,194.211 678.445,193.544C691.534,189.868 706.647,190.085 719.482,194.63C730.195,198.424 738.546,205.907 744.441,215.517C749.8,224.25 755.292,235.234 753.93,245.796C753.513,249.034 752.076,251.843 751.088,254.907C749.936,258.475 750.377,262.138 749.439,265.73C748.202,270.472 745.016,274.773 742.236,278.736C738.74,283.72 734.774,287.843 729.254,290.559C724.054,293.117 718.346,294.795 712.837,296.554C691.342,303.42 667.651,290.601 655.346,272.827C649.352,264.17 645.335,254.546 646.053,243.877C646.668,234.74 649.172,225.695 653.499,217.623ZM655.748,218.859C651.178,228.175 647.849,238.642 648.379,248.938C648.968,260.365 656.375,271.213 664.56,278.684C671.343,284.875 678.963,289.506 687.755,292.266C699.395,295.921 709.626,293.795 720.686,289.314C725.959,287.178 731.174,284.816 735.31,280.801C738.902,277.316 741.889,272.832 744.428,268.526C747.355,263.558 747.444,258.413 748.809,252.977C750.288,247.085 751.991,241.979 750.365,235.87C747.716,225.917 741.766,215.336 734.227,208.29C726.602,201.163 715.504,197.467 705.342,195.871C700.036,195.038 694.695,194.503 689.334,194.983C686.97,195.195 684.614,195.526 682.285,195.982C677.694,196.882 676.539,197.429 673.192,200.988C670.662,203.678 667.52,204.402 664.515,206.407C660.538,209.06 658.142,214.71 655.748,218.859ZM294.367,258.116C295.435,257.415 296.813,257.201 298.222,257.466C300.387,257.874 301.909,259.416 302.904,261.327C304.904,265.17 303.26,270.666 298.916,272.015C296.611,272.731 294.917,273.11 292.906,271.517C291.974,270.779 291.531,269.857 290.808,268.96C290.198,268.204 289.664,267.641 289.442,266.568C288.962,264.246 289.649,261.395 291.187,259.602C292.093,258.546 293.351,257.68 294.367,258.116ZM260.796,260.424C261.162,256.39 264.734,253.399 268.804,254.113C272.628,254.783 274.82,258.361 274.635,262.072C274.454,265.675 271.868,268.784 268.298,269.497C266.754,269.806 265.047,269.55 263.873,268.412C262.739,267.312 262.23,265.706 261.122,264.582C260.177,263.623 259.818,261.531 260.796,260.424ZM293.753,263.017C293.349,263.474 293.018,264.016 292.83,264.538C292.629,265.103 292.373,266.783 292.555,267.386C292.677,267.791 294.429,268.881 295.155,269.057C296.11,269.289 297.577,268.75 298.484,268.414C300.905,267.516 302.456,264.327 299.802,262.72C297.66,261.423 296.217,261.845 294.134,262.902C293.997,262.972 293.87,263.008 293.753,263.017ZM708.857,257.635C711.457,256.166 715.82,255.947 717.16,258.796C717.942,260.458 718.387,262.575 717.854,264.375C717.34,266.11 715.857,267.135 714.375,268.036C712.846,268.967 710.968,269.522 709.258,268.72C707.626,267.955 707.066,266.324 706.574,264.733C706.041,263.015 705.383,261.353 706.526,259.714C707.01,259.02 707.711,257.514 708.857,257.635ZM679.342,254.379C686.027,250.574 691.257,263.406 684.317,266.389C681.238,267.712 677.282,266.724 676.185,263.385C675.353,260.85 675.196,254.539 679.017,254.354C679.132,254.348 679.24,254.357 679.342,254.379ZM709.301,261.563C709.286,261.609 709.27,261.655 709.254,261.701C709.12,262.09 708.816,262.39 708.678,262.746C708.385,263.505 708.528,264.443 709.029,265.107C710.355,266.868 713.007,265.932 714.484,264.901C715.635,264.098 715.666,263.567 715.334,262.358C715.025,261.232 714.815,260.997 713.599,260.869C712.477,260.751 711.189,260.559 710.063,260.857C709.903,261.223 709.65,261.491 709.301,261.563ZM263.426,261.546C263.507,261.822 263.556,262.096 263.569,262.336C263.816,266.805 270.26,266.632 271.703,262.957C273.619,258.076 264.105,256.696 263.427,261.54L263.426,261.546ZM680.454,257.721C680.388,257.939 680.298,258.129 680.187,258.274C679.45,259.237 678.349,260.333 678.48,261.68C678.667,263.603 681.729,263.306 683.031,262.89C685.237,262.184 685.629,260.258 684.47,258.388C683.327,256.543 681.963,257.045 680.454,257.721ZM709.43,261.09L709.424,261.093L709.421,261.106L709.399,261.198L709.406,261.196C709.415,261.155 709.423,261.12 709.43,261.09ZM713.308,219.705C720.656,216.19 726.672,230.801 718.105,234.279C716.292,235.016 713.416,234.91 711.719,233.878C710.079,232.881 709.007,230.485 708.785,228.646C708.522,226.46 709.614,218.207 713.308,219.705ZM681.978,219.293C682.408,219.108 682.868,218.985 683.492,218.835C684.502,218.594 685.58,218.071 686.65,218.117C688.426,218.194 689.655,219.976 690.378,221.445C691.946,224.63 692.003,229.988 688.583,231.926C685.2,233.844 680.73,232.165 679.026,228.747C677.641,225.968 677.066,219.761 681.29,219.18C681.566,219.142 681.794,219.187 681.978,219.293ZM713.374,223.383C712.269,224.618 711.124,225.489 710.954,227.529C710.67,230.947 713.804,231.496 716.513,230.879C719.667,230.159 720.342,227.533 718.612,225.062C717.328,223.227 715.443,222.445 713.374,223.383ZM681.346,223.799C681.013,224.149 680.8,224.504 680.795,225.242C680.789,226.294 681.342,227.251 682.1,227.956C683.427,229.189 685.65,229.197 687.236,228.447C689.264,227.487 688.886,224.77 687.852,223.15C686,220.248 684.006,221.938 681.976,223.521C681.752,223.696 681.541,223.782 681.346,223.799ZM1000,133.726C997.153,135.454 994.13,136.993 990.939,138.351C976.331,144.568 961.198,148.727 945.397,144.768C931.579,141.305 917.784,131.615 908.342,121.101C903.585,115.803 900.608,109.243 897.827,102.759C894.65,95.352 891.997,87.649 891.007,79.618C889.266,65.478 892.698,48.409 899.894,36.065C906.359,24.974 919.547,16.54 931.6,11.358C943.479,3.703 959.803,1.751 973.281,4.934C982.492,7.109 991.792,11.842 1000,17.808L1000,23.073C989.681,15.502 979.004,9.864 965.884,8.684C953.442,7.564 942.578,10.649 931.464,15.654C919.056,22.505 905.613,31.571 900.294,44.667C893.914,60.373 892.771,76.784 898.592,92.816C901.085,99.681 904.038,107.001 907.882,113.239C911.441,119.013 916.603,123.107 921.936,127.127C932.662,135.211 945.215,142.313 959.08,141.511C966.493,141.083 973.506,138.774 980.414,136.213C986.53,133.944 992.707,131.65 998.424,128.475C998.957,128.179 999.482,127.873 1000,127.556L1000,133.726ZM0,17.808C5.499,21.805 10.507,26.354 14.672,31.06C33.748,52.609 35.23,83.44 22.844,108.733C17.547,119.552 9.816,127.767 0,133.726L0,127.556C11.286,120.666 19.16,108.974 23.854,96.771C28.535,84.599 29.161,70.581 25.797,58.005C22.164,44.416 13.713,33.558 2.688,25.093C1.794,24.406 0.898,23.732 0,23.073L0,17.808ZM1000,109.247C999.157,110.135 998.305,111.012 997.463,111.886C993.816,115.671 989.903,119.314 985.298,121.914C980.631,124.549 974.845,126.758 969.531,127.579C964.168,128.407 958.394,127.094 953.132,126.038C947.175,124.843 941.448,123.687 936.177,120.515C931.708,117.825 927.167,114.505 923.4,110.897C915.773,103.593 910.798,91.181 909.009,80.933C905.425,60.408 916.721,38.329 934.38,27.828C936.985,25.007 942.101,23.856 945.409,23.052C952.62,21.297 960.079,22.839 967.291,23.798C979.434,25.414 991.11,31.436 1000,39.942L1000,45.757C997.871,43.39 995.423,41.197 992.692,39.08C988.786,36.054 985.109,32.929 980.474,31.022C976.233,29.277 971.522,28.592 967.041,27.698C961.713,26.634 956.357,25.877 950.916,26.573C948.057,26.939 936.833,28.921 935.661,32.431C935.159,33.931 934.291,33.794 933.661,33.037C926.553,39.323 919.674,44.793 916.037,54.368C911.568,66.137 910.24,76.989 915.118,88.877C917.074,93.646 919.388,98.684 922.532,102.789C925.077,106.11 928.634,108.731 931.888,111.311C939.617,117.442 948.575,120.906 958.195,122.95C968.134,125.061 978.668,120.456 986.832,114.908C991.244,111.909 996.099,107.796 1000,103.156L1000,109.247ZM0,39.942C0.181,40.114 0.359,40.287 0.537,40.461C7.654,47.439 11.355,56.905 12.141,66.718C12.968,77.032 12.362,89.1 7.905,98.585C6.009,102.62 3.065,106.016 0,109.247L0,103.156C2.892,99.718 5.26,95.99 6.536,92.213C9.637,83.031 10.626,72.164 8.633,62.67C7.199,55.84 4.229,50.456 0,45.757L0,39.942ZM972.046,88.908C974.563,87.633 978.781,88.684 980.152,90.875C982.392,94.452 980.78,100.145 977.276,102.324C975.502,103.427 972.608,104.023 970.545,103.594C968.42,103.152 967.035,100.825 966.175,98.985C964.336,95.056 965.804,89.501 970.435,88.395C971.145,88.225 971.657,88.443 972.046,88.908ZM942.761,83.559C944.409,83.156 946.428,83.705 947.947,84.655C951.019,86.577 951.77,89.214 951.133,92.73C950.624,95.544 949.484,98.183 946.52,98.994C943.804,99.737 940.626,100.076 938.337,98.113C934.317,94.668 934.133,85.012 939.833,83.13C940.91,82.775 941.977,82.989 942.761,83.559ZM971.214,93.733C970.114,94.306 968.666,94.39 968.737,95.887C968.8,97.272 970.11,98.689 971.439,98.829C973.492,99.044 977.79,97.399 977.751,94.838C977.709,92.049 973.386,92.955 971.853,93.648C971.611,93.757 971.398,93.778 971.214,93.733ZM941.306,88.991C940.01,89.574 938.876,90.179 939.704,92.027C940.54,93.894 942.669,93.905 944.44,93.745C946.363,93.571 947.317,92.93 947.596,90.982C947.74,89.968 947.821,90.452 947.119,89.956C946.425,89.465 945.699,88.884 944.857,88.677C943.56,88.358 942.527,89.17 941.306,88.991ZM976.848,55.072C977.321,54.787 977.823,54.591 978.265,54.52C980.598,54.144 983.215,54.681 985.16,56.039C988.985,58.71 990.091,64.848 987.424,68.691C979.784,79.7 965.64,59.802 975.461,54.853C975.953,54.605 976.448,54.756 976.848,55.072ZM592.915,0C592.97,14.07 587.94,26.472 580.453,38.466C576.405,44.95 572.299,51.382 566.15,56.09C560.577,60.357 554.144,63.265 547.605,65.711C540.939,68.205 533.781,70.822 526.65,71.498C519.25,72.2 511.541,70.748 504.389,68.907C491.618,65.618 478.396,59.078 469.589,49.032C459.724,37.779 456.199,23.062 454.069,8.616C453.647,5.76 453.247,2.884 452.985,0L456.579,0C457.224,7.135 458.462,14.389 460.104,21.323C463.206,34.417 470.036,45.236 480.981,53.157C491.074,60.461 504.271,64.678 516.564,66.094C529.795,67.619 543.442,62.238 555.219,56.499C568.05,50.247 575.447,39.117 582.142,26.911C586.882,18.269 589.074,9.091 589.084,0L592.915,0ZM977.032,59.961C976.476,60.536 975.814,60.954 975.638,61.919C975.121,64.762 978.988,66.749 981.366,66.967C984.856,67.285 987.292,63.957 984.688,61.167C982.591,58.92 979.697,59.479 977.032,59.961ZM945.828,48.439C949.516,45.879 954.21,47.438 956.128,51.719C956.975,53.613 956.988,56.224 956.843,58.271C956.687,60.44 955.943,62.492 954.071,63.732C949.596,66.698 944.175,67.025 941.625,61.658C939.765,57.744 939.47,50.069 944.632,48.372C945.12,48.212 945.517,48.256 945.828,48.439ZM945.034,53.685C943.97,54.626 943.818,55.709 944.132,57.272C944.363,58.427 944.795,59.674 945.809,60.361C947.704,61.643 951.204,60.676 952.946,59.372C956.9,56.413 950.496,50.48 946.534,53.516C945.931,53.979 945.424,53.97 945.034,53.685ZM576.751,0C576.59,5.604 575.5,11.29 573.427,16.881C569.823,26.595 564.631,38.903 555.878,45.005C546.25,51.716 532.837,55.957 521.153,56.402C509.262,56.854 499.212,52.018 490.747,43.906C482.466,35.969 474.87,26.788 471.575,15.623C470.08,10.554 469.512,5.279 469.633,0L472.907,0C472.693,9.304 474.887,18.337 480.521,26.202C486.034,33.897 493.456,42.921 501.987,47.366C511.874,52.516 523.187,51.67 533.603,48.855C543.058,46.302 554.635,41.562 560.161,33.07C565.598,24.715 570.778,14.331 572.482,4.463C572.739,2.974 572.906,1.484 572.988,0L576.751,0ZM530.942,14.415C533.247,12.635 537.736,14.012 539.525,16.331C542.076,19.639 541.58,24.607 538.361,27.295C530.073,34.217 520.282,17.673 529.898,14.366C530.307,14.226 530.656,14.26 530.942,14.415ZM503.044,11.458C505.549,10.589 508.532,11.881 510.202,14.361C512.625,17.958 510.79,24.079 507.186,26.344C503.013,28.967 498.384,24.229 497.159,20.504C495.776,16.297 496.718,10.662 502.179,11.109C502.52,11.138 502.808,11.263 503.044,11.458ZM530.965,18.855C530.925,18.88 530.883,18.904 530.84,18.925C528.07,20.298 529.09,23.069 531.476,24.284C533.434,25.281 535.877,25.013 537.439,23.415C539.563,21.241 538.091,17.943 535.094,17.791C533.656,17.719 532.289,18.95 530.965,18.855ZM503.314,15.469C503.251,15.549 503.182,15.621 503.109,15.685C502.338,16.359 501.427,16.217 500.689,16.717C500.027,17.164 500.23,17.988 500.569,18.846C501.319,20.744 503.916,23.134 505.996,21.698C506.823,21.128 507.465,19.946 507.783,19.011C508.118,18.024 508,17.688 507.178,16.954C506.194,16.077 504.729,15.553 503.314,15.469Z" style="fill-rule:nonzero;"/>
</svg>
