<?xml version="1.0" encoding="UTF-8" standalone="no"?>
<!DOCTYPE svg PUBLIC "-//W3C//DTD SVG 1.1//EN" "http://www.w3.org/Graphics/SVG/1.1/DTD/svg11.dtd">
<svg width="100%" height="100%" viewBox="0 0 1000 1000" version="1.1" xmlns="http://www.w3.org/2000/svg" xmlns:xlink="http://www.w3.org/1999/xlink" xml:space="preserve" xmlns:serif="http://www.serif.com/" style="fill-rule:evenodd;clip-rule:evenodd;stroke-linejoin:round;stroke-miterlimit:2;">
    <path d="M951.073,1000C951.107,985.101 951.013,970.185 950.761,955.298C950.47,938.124 949.863,920.84 950.212,903.667C950.155,903.469 950.104,903.265 950.058,903.056C948.989,898.199 949.959,892.333 950.142,887.392C950.184,886.256 950.315,885.194 950.539,884.221C950.518,884.106 950.513,883.983 950.528,883.856C951.679,874.497 950.81,865.215 952.676,855.857C954.173,848.35 956.508,840.763 960.175,834.02C968.29,819.1 981.087,811.051 997.888,809.503C998.603,809.437 999.307,809.386 1000,809.353L1000,812.088C999.33,812.111 998.648,812.15 997.954,812.206C989.575,812.878 981.334,814.719 974.431,819.73C967.915,824.46 963.195,831.127 959.893,838.394C956.47,845.926 954.415,853.911 953.292,862.102C952.458,868.184 952.783,874.388 952.223,880.47C953.994,878.214 956.928,877.327 961.18,878.501C965.882,879.799 967.494,883.909 967.937,888.463C967.981,888.443 968.031,888.432 968.086,888.432C974.02,888.401 979.975,888.416 985.907,888.317C985.664,886.869 985.414,885.397 985.66,883.959C985.697,883.743 985.805,883.436 986.037,883.352C990.206,881.857 995.203,881.642 1000,881.801L1000,884.281C999.046,884.33 998.162,884.384 997.427,884.388C995.302,884.401 992.823,884.144 990.74,884.546C987.57,885.158 986.904,885.576 987.126,888.282C991.422,888.111 995.702,887.446 1000,887.552L1000,889.846C995.016,889.706 989.994,890.343 985.017,890.537C979.306,890.759 973.799,890.262 968.119,889.799C968.089,889.797 968.061,889.791 968.034,889.783C968.13,891.66 968.063,893.572 967.962,895.36C973.363,894.247 979.78,894.282 983.837,898.54C986.117,900.932 986.572,904.342 988.591,906.905C991.136,910.135 995.027,911.916 999.081,912.169C999.397,912.189 999.703,912.199 1000,912.199L1000,914.703L999.81,914.698C995.163,914.536 990.567,911.955 987.688,908.356C987.321,907.897 986.995,907.41 986.694,906.906C986.739,910.045 986.691,913.29 987.189,916.283C987.217,916.877 987.245,917.471 987.273,918.065C987.585,920.025 988.6,920.697 990.316,920.081C991.941,920.339 994.136,920.033 995.783,920.012C997.131,919.995 998.558,920.052 1000,920.091L1000,922.452L999.489,922.459C996.613,922.495 989.914,923.815 987.423,922.331C985.748,921.333 985.994,919.933 985.919,918.099C985.734,913.578 985.548,909.058 985.431,904.536C984.481,902.652 983.517,900.792 981.751,899.502C977.7,896.54 972.517,897.311 967.83,897.497L967.824,897.581C967.899,900.518 967.466,904.042 965.359,906.215C963.088,908.555 958.126,908.568 955.103,908.099C953.485,907.848 952.307,907.197 951.472,906.193C952.481,922.47 952.443,938.967 952.477,955.256C952.507,970.169 952.551,985.085 952.613,1000L951.073,1000ZM45.373,1000C45.236,968.836 45.066,937.578 45.961,906.439C45.806,906.562 45.642,906.681 45.466,906.794C42.801,908.522 37.77,909.392 34.906,907.951C31.714,906.346 30.573,902.891 30.23,899.127C26.869,899.403 23.387,899.106 20.081,899.709C15.958,900.462 13.994,903.136 12.027,906.237C12.608,911.043 12.578,915.702 11.698,920.477C11.648,920.749 11.498,921.237 11.175,921.318C7.473,922.243 3.792,922.397 0,922.452L0,920.091C2.365,920.156 4.77,920.172 6.938,919.734C10.47,919.023 10.528,917.909 10.703,914.86C10.826,912.695 10.792,910.595 10.612,908.461C8.029,912.314 4.992,914.813 0,914.703L0,912.199C7.961,912.218 8.972,905.531 13.596,900.579C18.021,895.84 24.309,897.152 30.115,897.054C30.049,894.366 30.264,891.662 30.326,889.479C30.201,889.653 30.034,889.777 29.822,889.817C24.488,890.819 19.965,889.932 14.667,889.928C9.991,889.924 5.462,890.083 0.759,889.873C0.506,889.862 0.253,889.853 0,889.846L0,887.552C0.234,887.557 0.468,887.566 0.702,887.576C3.726,887.712 6.77,887.88 9.821,888.001C9.429,883.938 4.076,884.072 0,884.281L0,881.801C2.399,881.88 4.749,882.052 6.919,882.205C11.843,882.553 11.783,883.603 11.155,888.051C17.389,888.267 23.636,888.243 29.761,887.318C30.031,887.277 30.239,887.401 30.38,887.613C30.417,887.452 30.478,887.317 30.554,887.209C30.477,884.538 30.639,881.57 32.879,879.773C35.106,877.986 40.178,877.526 42.782,878.137C43.669,878.346 44.438,878.679 45.092,879.122C43.187,864.758 43.836,849.551 37.502,836.302C33.934,828.836 28.069,823.228 21.312,818.616C14.433,813.92 8.039,811.814 0,812.088L0,809.353C7.108,809.004 13.212,810.364 19.388,814.381C26.469,818.985 33.025,824.429 37.171,831.911C45.477,846.897 44.126,864.762 46.957,881.163C47.388,881.928 47.682,882.809 47.845,883.786C48.691,888.833 48.421,895.11 48.286,900.237C48.245,901.816 48.086,903.312 47.456,904.586L47.452,904.394C48.05,936.227 47.685,968.141 47.534,1000L45.373,1000ZM701.029,1000C700.837,983.155 700.673,966.309 700.728,949.459C700.828,918.693 700.572,887.356 703.942,856.74C705.306,844.34 707.161,831.951 715.739,822.3C723.623,813.429 734.718,809.028 746.465,808.843C757.128,808.674 767.993,811.808 776.63,818.132C786.252,825.176 790.889,835.434 793.548,846.706C793.836,846.815 794.091,847.136 794.218,847.743C797.857,865.08 797.572,882.708 796.792,900.315C796.01,917.977 796.029,935.532 796.266,953.206C796.475,968.794 796.737,984.396 796.885,1000L795.104,1000C794.933,978.479 794.675,956.955 794.294,935.434C793.785,906.628 798.232,877.092 792.186,848.655C792.089,848.197 792.16,847.767 792.324,847.425C788.76,833.112 781.446,821.583 767.367,815.679C755.673,810.775 741.339,810.256 729.672,815.533C714.596,822.352 708.755,836.315 706.657,851.842C704.542,867.5 704.112,883.314 703.672,899.088C702.733,932.74 702.548,966.366 702.568,1000L701.029,1000ZM449.986,1000C450.129,966.817 451.203,933.534 450.162,900.374C450.154,900.139 450.227,899.902 450.343,899.71C449.902,895.692 450.014,891.524 450.137,887.578C450.177,886.274 450.124,884.921 450.328,883.675C450.324,883.611 450.324,883.544 450.328,883.474C451.142,867.933 452.386,851.946 458.268,837.332C460.366,832.117 463.005,824.316 467.602,820.843C472.117,817.432 477.686,814.174 482.973,812.195C494.952,807.713 507.752,808.379 519.069,814.285C530.085,820.034 538.166,829.841 541.902,841.691C545.802,854.062 548.089,868.617 546.219,881.593C547.648,884.258 547.389,888.311 547.512,891.165C547.691,895.299 548.21,900.894 546.287,904.788C546.319,904.886 546.34,904.999 546.347,905.129C547.988,936.649 547.446,968.42 547.46,1000L545.77,1000C545.538,968.408 544.431,936.72 545.194,905.157L545.162,906.518C544.213,907.635 542.925,908.494 541.187,908.969C537.81,909.89 534.253,910.095 532.147,907.009C530.77,904.99 530.118,902.194 530.03,899.651C529.902,899.585 529.784,899.47 529.694,899.306C525.794,899.497 522.72,899.202 518.867,900.667C516.073,901.729 513.615,903.345 511.719,905.59C511.722,905.61 511.725,905.629 511.727,905.649C512.156,909.442 512.064,913.34 512.035,917.156C512.023,918.622 512.319,921.158 511.141,922.334C510.174,923.299 508.192,923.086 506.98,923.179C503.591,923.437 500.148,923.67 496.749,923.581C494.864,923.533 493.033,923.264 491.159,923.12C490.177,923.045 487.751,923.344 486.774,922.838C486.105,922.492 486.011,922.422 485.6,921.903C484.363,920.345 485.152,916.254 485.114,914.416C485.046,911.206 485.083,907.999 485.276,904.796C483.419,902.306 481.279,899.908 478.595,898.841C475.208,897.494 470.975,897.993 467.341,898.274C467.232,901.243 466.668,904.655 464.463,906.775C462.373,908.782 457.384,908.906 454.746,908.217C453.392,907.864 452.496,907.05 451.888,906.01C452.54,921.479 451.927,936.962 451.894,952.443C451.858,968.297 451.96,984.149 451.989,1000L449.986,1000ZM200.603,1000C200.692,974.603 200.87,949.204 201.148,923.803C201.329,907.242 201.444,890.679 201.641,874.118C201.799,860.677 202.045,846.591 207.586,834.085C217.602,811.484 244.869,801.034 267.283,811.727C291.903,823.474 295.349,850.843 295.819,875.212C295.996,875.414 296.12,875.726 296.131,876.147C296.363,884.613 296.561,893.08 296.731,901.548C297.383,934.026 298.085,966.686 296.939,999.16L296.911,1000L294.675,1000C294.967,958.742 295.556,917.487 294.362,876.191C294.35,875.771 294.454,875.455 294.617,875.244C293.97,860.267 293.112,844.172 285.172,831.026C277.661,818.588 263.78,810.527 249.244,810.145C235.008,809.771 220.987,817.054 212.854,828.707C203.673,841.86 203.357,858.664 203.126,874.082C202.497,916.047 202.377,958.024 202.372,1000L200.603,1000ZM486.548,906.557C486.643,909.929 486.458,913.302 486.638,916.665C486.905,921.653 487.463,921.118 491.111,921.199C493.27,921.246 495.456,921.068 497.618,921.051C501.932,921.015 508.852,922.57 510.552,917.192C511.46,914.317 510.683,910.246 510.714,906.917C510.688,906.956 510.662,906.994 510.636,907.033C507.546,911.692 506.171,914.768 499.906,914.882C493.822,914.993 491.015,912.824 487.7,908.188C487.325,907.664 486.942,907.115 486.548,906.557ZM989.143,916.016C989.246,915.837 989.395,915.7 989.599,915.637C991.402,915.079 991.863,918.67 990.309,919.268C988.544,919.947 987.764,917.003 989.061,916.071C989.089,916.051 989.116,916.033 989.143,916.016ZM490.285,917.154C490.556,918.057 490.205,919.288 489.236,919.337C488.424,919.379 488.123,918.447 488.104,917.775C488.085,917.097 488.303,916.48 488.765,915.987C488.998,915.738 489.428,915.722 489.672,915.964C490.02,916.309 490.212,916.713 490.285,917.154ZM506.183,917.917C506.162,917.881 506.143,917.842 506.125,917.8C505.863,917.186 505.925,916.399 506.306,915.845C506.603,915.413 507.087,915.166 507.55,915.357C507.937,915.381 508.257,915.817 508.412,916.126C508.811,916.919 508.675,918.097 508.036,918.729C507.801,918.963 507.548,919.054 507.305,919.042C507.032,919.084 506.811,918.948 506.641,918.734C506.465,918.567 506.323,918.344 506.237,918.094C506.218,918.038 506.2,917.979 506.183,917.917ZM7.192,915.213C7.668,915.103 8.011,915.624 8.14,916.023C8.328,916.603 8.229,917.282 7.815,917.739C7.593,917.984 7.321,918.169 7.021,918.311C6.135,918.728 5.656,917.436 5.64,916.785C5.623,916.073 6.019,914.923 6.945,915.193C7.03,915.219 7.108,915.22 7.192,915.213ZM236.289,915.426C235.951,915.048 235.803,914.489 235.79,913.995C235.779,913.573 235.855,913.213 235.964,912.81C236.087,912.356 236.512,911.847 237.02,911.841C237.932,911.831 238.531,912.422 238.89,913.219C239.35,914.239 239.219,916.333 237.878,916.643C237.079,916.827 236.547,916.189 236.289,915.426ZM261.732,914.069C261.851,914.38 261.891,914.731 261.869,915.079C261.837,915.583 261.523,916.658 260.808,916.581C259.156,916.404 258.913,914.376 259.609,913.134C260.106,912.252 261.059,912.517 261.47,913.281C261.595,913.513 261.685,913.784 261.732,914.069ZM737.679,915.101C737.201,914.415 737.163,913.291 737.47,912.636C737.654,912.243 737.893,911.807 738.391,911.79C739.574,911.751 740.315,912.84 740.497,913.901C740.633,914.69 740.473,916.5 739.281,916.489C738.522,916.482 737.963,915.947 737.725,915.246C737.709,915.199 737.694,915.151 737.679,915.101ZM759.908,911.769C760.017,911.709 760.141,911.675 760.281,911.675C762.498,911.686 762.678,916.029 760.607,916.456C759.525,916.679 758.828,915.55 758.641,914.636C758.453,913.721 758.635,912.089 759.745,911.8C759.801,911.786 759.855,911.776 759.908,911.769ZM529.283,891.254C518.81,891.941 508.253,890.926 497.785,890.637C487.692,890.359 477.775,891.404 467.649,890.688C467.7,892.568 467.566,894.418 467.354,896.009C473.164,895.391 479.463,895.509 483.568,900.058C485.421,902.112 487.068,904.386 488.66,906.644C491.701,910.959 494.255,912.624 499.853,912.739C507.923,912.904 508.807,904.224 514.431,900.171C518.981,896.891 524.077,896.606 529.433,897.422C529.308,895.619 529.198,893.451 529.283,891.254ZM497.336,894.695C501.026,894.082 505.016,896.331 506.052,900.066C507.044,903.639 505.735,907.894 501.888,908.946C497.682,910.096 492.831,908.656 491.705,904.137C490.811,900.549 492.465,894.77 496.88,894.503C497.087,894.491 497.236,894.567 497.336,894.695ZM1000,895.317L1000,897.254C999.729,897.286 999.448,897.338 999.156,897.403C998.76,897.492 998.012,897.576 997.377,897.754C996.982,897.943 996.623,898.163 996.306,898.42L996.303,898.428C996.168,898.816 995.972,898.953 995.775,898.93C995.069,899.741 994.68,900.841 994.709,902.345C994.758,904.9 997.897,905.625 1000,905.212L1000,908.099C996.815,908.544 993.01,906.553 993.07,903.053C993.101,901.278 993.855,898.674 995.259,897.125C996.016,895.591 997.643,895.747 999.237,895.422C999.492,895.37 999.747,895.335 1000,895.317ZM0,895.317C1.663,895.196 3.27,895.795 4.398,897.129C7.116,900.349 5.388,905.3 2.104,907.359C1.478,907.752 0.757,907.994 0,908.099L0,905.212C0.088,905.195 0.174,905.175 0.258,905.154C3.167,904.42 5.459,900.514 2.82,898.099C1.938,897.292 1.038,897.129 0,897.254L0,895.317ZM531.013,898.473C532.698,903.163 532.187,908.356 539.615,907.637C547.794,906.845 546.379,896.967 546.044,891.201C545.844,887.752 546.273,883.068 541.831,881.452C540.199,880.858 536.054,881.019 534.524,881.83C529.619,884.433 530.981,893.817 531.013,898.473ZM496.796,896.531C495.722,897.217 494.606,897.784 493.826,898.836C492.362,900.812 492.271,904.208 494.192,905.989C495.907,907.58 499.556,907.702 501.669,907.007C505.542,905.733 505.994,900.618 503.018,898.114C501.131,896.526 499.01,896.497 496.796,896.531ZM966.51,896.023C966.586,891.606 966.825,886.24 964.495,883.134C962.634,880.652 958.887,879.69 955.942,880.424C951.542,881.52 951.636,884.684 951.522,888.328C951.356,893.69 949.591,903.414 956.458,905.719C959.283,906.667 962.9,905.73 964.654,903.214C965.942,901.366 965.895,898.851 966.209,896.722C966.259,896.386 966.369,896.159 966.51,896.023ZM451.829,884.323C451.593,886.11 451.78,888.406 451.768,889.48C451.72,893.613 450.374,904.198 456.041,905.829C457.113,906.138 459.708,906.101 460.797,905.889C464.993,905.073 465.438,901.296 465.762,897.779C465.694,897.627 465.653,897.446 465.654,897.241C465.671,892.011 467.154,884.012 461.308,881.173C459.666,880.376 453.74,880.96 452.549,882.271C452.326,882.516 452.16,882.867 452.037,883.286C452.04,883.334 452.043,883.382 452.046,883.431C452.071,883.821 451.98,884.118 451.829,884.323ZM31.776,887.254C31.886,887.434 31.955,887.68 31.955,887.99C31.954,892.105 30.912,897.858 32.576,901.715C33.785,904.515 35.553,906.099 38.5,906.041C42.113,905.972 43.607,905.204 45.194,902.189C47.216,898.347 47.016,892.156 46.271,887.731C45.261,881.733 43.775,881.124 39.349,881.013C34.942,880.901 32.288,882.859 31.776,887.254ZM450.482,900.827C450.412,900.858 450.342,900.889 450.272,900.92C450.34,901.073 450.407,901.226 450.474,901.38C450.513,901.471 450.555,901.548 450.598,901.613C450.557,901.352 450.518,901.09 450.482,900.827ZM761.229,886.878C761.264,886.919 761.312,886.975 761.372,887.046C761.464,887.175 761.531,887.315 761.573,887.466C761.757,887.954 761.736,888.434 761.703,888.944C761.635,890.029 760.799,891.841 759.439,891.014C758.181,890.248 757.991,888.002 758.792,886.849C759.071,886.447 759.443,886.078 759.97,886.065C760.551,886.051 760.933,886.442 761.229,886.878ZM237.048,891.125C238.253,891.125 238.741,889.443 238.69,888.486C238.636,887.493 238.172,885.932 236.921,885.932C235.716,885.932 235.228,887.613 235.279,888.57C235.333,889.563 235.797,891.125 237.048,891.125ZM258.644,890.074C257.779,889.957 257.491,888.088 257.987,887.373C258.087,887.229 258.187,887.085 258.285,886.94C258.619,886.45 259.123,886.276 259.629,886.642L259.751,886.73C260.313,886.733 260.763,887.232 260.982,887.753C261.295,888.496 261.276,889.416 260.93,890.142C260.626,890.78 259.986,891.263 259.296,890.843C258.995,890.66 258.786,890.386 258.644,890.074ZM738.551,886.141C738.594,886.17 738.638,886.204 738.683,886.244C739.083,886.603 739.285,887.104 739.361,887.629C739.453,888.267 739.399,889.347 738.665,889.645C737.964,889.93 737.441,889.622 736.959,889.118C737.048,889.245 737.023,889.223 736.883,889.052C736.781,888.961 736.706,888.851 736.656,888.724C736.534,888.497 736.441,888.254 736.388,888.001C736.25,887.346 736.349,886.61 736.72,886.045C737.037,885.562 737.533,885.338 738.054,885.625C738.255,885.735 738.422,885.921 738.551,886.141ZM545.134,880.266C545.76,871.606 544.718,862.806 543.258,854.285C541.887,846.287 539.742,837.909 535.236,831.061C526.746,818.156 512.566,811.009 497.165,811.4C489.601,811.592 481.955,814.132 475.604,818.211C472.885,819.956 469.116,821.969 467.044,824.333C464.196,827.58 462.443,832.198 460.842,836.181C457.664,844.085 455.478,852.092 453.919,860.46C453.044,865.162 452.97,869.566 452.769,874.287C452.681,876.338 452.3,878.343 452.115,880.366C454.472,878.481 458.798,878.631 461.505,879.367C465.592,880.478 467.157,884.643 467.552,889.007C473.138,888.618 478.828,888.366 484.507,888.289C484.61,886.908 484.8,885.562 484.963,884.172C484.994,883.911 485.163,883.616 485.446,883.584C492.727,882.776 500.772,882.179 508.087,882.934C511.424,883.279 511.328,885.625 511.314,888.73C517.362,888.789 523.409,888.826 529.436,889.095C529.918,884.573 531.495,880.401 535.771,879.572C538.382,879.064 542.782,878.406 545.134,880.266ZM509.895,888.715C509.557,883.332 499.119,885.075 495.336,885.083C493.545,885.087 488.989,884.33 487.455,885.182C485.781,886.112 485.867,886.839 485.833,888.275C489.821,888.24 493.801,888.293 497.731,888.448C501.781,888.608 505.837,888.671 509.895,888.715ZM738.75,888.18C738.71,888.33 738.691,888.408 738.692,888.416C738.694,888.423 738.716,888.359 738.759,888.224L738.75,888.18ZM1000,693.199C996.196,693.604 992.398,693.64 988.769,693.337C963.135,691.194 951.952,660.711 950.506,638.871C949.442,622.785 951.303,606.512 951.295,590.4C951.285,573.887 951.182,557.374 951.23,540.86C951.322,508.493 951.206,476.125 951.284,443.758C951.324,427.243 951.364,410.728 951.403,394.214C951.437,380.011 951.195,365.554 953.914,351.55C956.183,339.864 960.788,328.127 969.953,320.126C978.119,312.996 989.162,309.14 1000,309.449L1000,311.336C995.909,311.184 991.776,311.629 987.729,312.697C958.186,320.495 953.625,352.641 953.111,378.622C951.951,437.274 952.987,496.03 952.799,554.693C952.753,569.225 952.568,583.762 952.646,598.294C952.729,613.58 950.466,629.171 952.627,644.372C954.513,657.636 959.321,671.124 968.984,680.752C973.868,685.618 980.036,689.434 986.978,690.31C991.283,690.852 995.683,690.341 1000,689.659L1000,693.199ZM0,309.449C0.858,309.473 1.716,309.524 2.57,309.601C13.497,310.588 23.726,316.006 31.119,324.045C39.287,332.927 42.729,344.156 43.934,355.962C45.565,371.936 45.729,388.121 46.229,404.161C46.721,419.964 47.18,435.774 47.438,451.582C47.955,483.253 48.002,514.974 47.263,546.643C47.322,563.9 47.462,581.16 47.571,598.418C47.679,615.485 48.354,632.552 44.317,649.282C41.507,660.921 36.502,672.663 27.866,681.204C20.7,688.29 10.328,692.102 0,693.199L0,689.659C1.418,689.435 2.827,689.192 4.22,688.963C17.586,686.756 27.42,680.189 34.342,668.476C40.828,657.506 44.053,644.447 45.288,631.855C46.693,617.532 45.831,602.881 45.762,588.51C45.688,573.251 45.638,557.992 45.508,542.733C45.505,542.325 45.611,542.016 45.773,541.808C45.98,511.415 46.029,481.034 45.59,450.638C45.353,434.167 45.061,417.703 44.551,401.237C44.046,384.923 44.688,367.907 42.195,351.757C40.152,338.516 33.917,326.765 22.801,318.998C16.026,314.263 8.095,311.635 0,311.336L0,309.449ZM545.051,368.426C545.182,368.643 545.273,368.928 545.296,369.281C547.582,404.608 548.349,440.281 546.792,475.652C545.248,510.774 548.221,545.864 546.639,581.011C545.937,596.597 545.864,612.202 545.546,627.798C545.282,640.71 545.077,654.081 539.308,665.935C528.789,687.551 502.021,699.806 479.436,689.404C454.495,677.917 452.28,647.607 450.898,623.451C450.022,608.135 450.466,592.784 450.871,577.461C451.301,561.198 451.318,544.944 451.333,528.677C451.363,496.753 451.507,464.83 451.329,432.908C451.24,416.948 451.25,400.987 451.225,385.027C451.202,371.123 450.991,356.879 454.948,343.407C458.127,332.582 464.208,322.133 473.753,315.768C484.069,308.891 498.388,308.992 510.259,310.976C537.952,315.607 543.549,344.851 545.051,368.426ZM700.247,384.545C700.219,384.432 700.2,384.309 700.191,384.177C699.571,375.171 700.53,365.637 701.91,356.743C703.17,348.612 704.644,339.615 708.624,332.294C716.54,317.727 733.696,309.774 749.697,310.057C757.68,310.198 764.003,311.433 770.9,315.674C777.244,319.575 782.264,324.75 786.118,331.123C794.917,345.674 796.588,363.825 796.287,380.483C797.27,381.843 797.512,383.785 797.678,385.37C798.17,390.115 799.537,398.366 797.328,403.847C797.083,405.49 796.961,406.912 796.926,408.548C796.833,412.901 797.155,417.279 797.206,421.635C797.315,430.942 797.396,440.248 797.399,449.555C797.405,467.83 797.444,486.105 797.527,504.379C797.607,521.921 797.675,539.463 797.715,557.005C797.736,566.047 797.551,575.079 797.32,584.117C797.113,592.251 798.025,600.449 797.63,608.543C797.629,608.572 797.627,608.6 797.625,608.627C798.029,610.466 797.852,612.611 797.936,614.337C798.119,618.077 799.016,626.189 796.478,630.433C796.542,630.607 796.579,630.815 796.581,631.06C796.689,646.07 793.485,662.175 784.906,674.763C776.483,687.122 763.465,692.519 748.735,692.91C735.481,693.261 721.521,684.565 714.505,673.601C710.414,667.21 707.135,659.69 704.635,652.562C702.161,645.5 700.724,638.398 701.653,630.957C701.114,629.838 700.852,628.537 700.721,627.173C700.256,622.316 699.93,616.453 700.483,611.596C698.707,596.018 699.684,579.891 700.052,564.258C700.465,546.717 700.885,529.166 701.063,511.623C701.245,493.683 701.287,475.764 701.166,457.832C701.045,439.902 700.501,421.966 700.725,404.039C700.727,403.916 700.742,403.806 700.768,403.71C700.194,401.27 700.275,398.437 700.171,396.393C700.003,393.112 699.502,388.296 700.247,384.545ZM201.622,407.782L201.618,407.877C198.994,403.881 200.416,396.474 200.661,392.465C200.703,391.773 200.75,391.088 200.809,390.417C200.751,390.274 200.712,390.102 200.698,389.898C199.534,372.537 200.784,353.377 209.398,337.917C213.205,331.084 216.708,323.366 223.227,318.724C229.813,314.033 237.721,311.242 245.744,310.429C249.399,310.058 253.257,309.969 256.88,310.677C261.112,311.505 264.227,314.218 268.242,315.549C275.675,318.013 280.789,323.861 284.721,330.48C289.011,337.7 291.397,345.838 293.024,354.025C294.895,363.438 296.504,373.181 296.829,382.785C296.83,382.815 296.831,382.845 296.83,382.874C297.37,384.157 297.411,385.694 297.519,387.169C297.882,392.158 297.799,397.175 297.442,402.163C297.31,403.999 297.286,406.01 296.46,407.543C297.23,440.527 296.763,473.554 296.976,506.546C297.199,540.902 297.111,575.266 297.189,609.623C297.19,609.95 297.131,610.221 297.032,610.438C298.592,615.307 297.808,621.644 297.545,625.994C297.41,628.246 297.163,630.926 295.488,632.602C295.492,632.672 295.491,632.745 295.485,632.818C294.423,645.431 291.694,658.975 285.421,670.192C282.233,675.893 278.643,682.295 273.247,686.192C267.224,690.541 258.743,692.12 251.469,692.684C237.147,693.794 222.47,688.288 215.03,675.522C207.345,662.336 202.486,646.852 201.283,631.644C201.119,631.284 200.986,630.895 200.888,630.48C199.867,626.16 199.952,620.649 200.143,616.234C200.247,613.851 199.795,610.196 201.178,607.86L201.179,607.874C201.188,608.143 201.198,608.413 201.208,608.684L201.179,607.874C200.605,591.364 201.048,574.837 200.321,558.318C199.58,541.457 201.065,524.56 201.241,507.691C201.587,474.36 200.379,441.111 201.622,407.782L201.658,406.842C201.646,407.154 201.634,407.467 201.622,407.782ZM202.532,633.423C204.548,647.184 208.463,662.24 216.131,673.751C224.546,686.385 237.471,690.978 252.219,689.731C259.511,689.114 267.998,687.595 273.716,682.667C278.709,678.364 282.291,671.55 285.287,665.766C288.815,658.955 290.798,651.369 292.396,643.9C293.128,640.48 293.26,637.084 293.804,633.69C291.104,634.753 286.289,634.629 284.152,633.36C281.196,631.602 279.953,627.761 279.537,623.514C273.352,623.636 267.155,623.55 260.96,623.533C260.93,624.874 260.899,626.214 260.867,627.554C260.86,627.925 260.721,628.536 260.243,628.558C252.228,628.905 243.173,629.637 235.229,628.534C234.759,628.47 234.539,627.978 234.539,627.539C234.539,626.385 234.535,625.233 234.545,624.079C228.538,624.192 222.527,624.143 216.652,623.617C216.654,623.659 216.657,623.701 216.66,623.744C216.854,626.599 216.704,629.504 214.976,631.988C212.287,635.849 205.744,636.548 202.532,633.423L202.531,633.418L202.099,630.267C202.232,631.309 202.376,632.361 202.531,633.418L202.532,633.423L202.532,633.423ZM543.426,368.468C542.315,353.496 540.522,337.399 530.375,325.549C520.389,313.889 505.956,312.896 491.574,313.401C475.278,313.972 463.727,325.741 458.142,340.348C452.47,355.181 452.936,371.359 452.938,386.98C452.949,444.706 453.7,502.474 453.13,560.197C452.849,588.693 450.797,617.498 455.392,645.775C457.624,659.516 460.888,673.004 472.529,681.808C481.961,688.942 494.114,691.383 505.641,688.983C518.545,686.297 529.773,677.895 536.246,666.45C543.539,653.553 543.186,638.299 543.443,623.933C543.955,595.488 545.712,567.016 545.056,538.57C544.731,524.484 544.079,510.395 543.965,496.306C543.856,482.746 545.154,469.224 545.264,455.669C545.497,426.891 545.112,398.055 543.296,369.33C543.274,368.978 543.326,368.69 543.426,368.468ZM779.998,623.597C773.732,623.346 767.493,623.422 761.258,623.52C761.356,625.298 761.663,626.691 759.883,627.539C758.515,628.191 756.416,627.541 754.959,627.614C753.047,627.712 751.183,628.129 749.257,628.173C746.589,628.236 743.948,627.883 741.287,627.799C739.94,627.757 737.862,628.259 736.534,627.699C734.891,627.005 734.506,625.446 734.665,623.916C733.461,623.969 732.254,624.029 731.044,624.097C726.603,624.345 721.728,624.963 717.354,624.06C717.33,624.467 717.304,624.872 717.278,625.275C717.297,625.412 717.303,625.553 717.292,625.698C717.27,625.988 717.237,626.273 717.193,626.554L717.163,626.988C717.142,627.284 717.068,627.497 716.962,627.639C715.539,632.904 710.124,636.154 704.679,633.85C704.025,633.573 703.476,633.22 703.015,632.805C702.836,640.628 705.199,647.875 708.155,655.111C710.703,661.348 713.367,668.013 717.238,673.563C724.072,683.359 738.382,690.24 750.287,689.354C764.468,688.299 776.243,683.423 784.135,671.192C791.532,659.731 794.455,645.818 794.719,632.321C794.239,632.633 793.698,632.864 793.086,633.001C789.952,633.702 785.524,634.185 783.265,631.537C781.606,629.593 780.421,626.397 780.118,623.708C780.077,623.675 780.036,623.638 779.998,623.597ZM214.277,609.711C213.499,606.465 210.593,607.444 208.298,607.684C204.897,608.041 202.384,607.756 201.551,612.823C200.846,617.112 200.908,622.218 201.872,626.46C202.452,629.008 203.417,632.089 206.13,632.835C207.52,633.218 208.657,633.097 210.018,632.704C214.722,631.344 215.653,626.559 215.23,622.245C214.82,618.064 214.56,613.916 214.277,609.711ZM295.166,609.789C295.082,609.614 294.994,609.451 294.902,609.301C290.845,602.708 282.822,606.089 281.017,612.113C280.881,615.957 280.764,619.807 281.232,623.635C281.741,627.793 283.701,632.448 288.575,632.613C292.028,632.729 294.313,631.208 295.437,628.021C296.683,624.49 297.033,615.378 295.573,610.832C295.35,610.622 295.188,610.275 295.166,609.789ZM781.418,623.305C781.745,625.287 781.871,627.265 783.209,628.948C785.002,631.206 789.56,632.381 792.429,631.311C797.6,629.382 796.261,619.102 796.051,615.062C795.912,612.37 796.229,609.505 793.814,607.563C791.782,605.929 787.469,605.943 785.175,606.995C779.615,609.545 781.478,617.675 781.559,622.501C781.565,622.826 781.511,623.094 781.418,623.305ZM715.476,624.135C715.471,620.572 715.771,616.989 715.507,613.451C715.247,609.966 714.4,608.172 710.693,607.554C706.961,606.932 706.625,606.614 704.344,610.134C702.157,613.505 702.437,615.138 702.66,618.994C702.79,621.24 702.399,624.773 703.108,626.869C704.207,630.118 706.043,631.985 709.512,631.344C712.62,630.77 715.016,628.142 715.268,624.906C715.295,624.565 715.37,624.312 715.476,624.135ZM259.631,623.531C256.471,623.528 253.313,623.549 250.157,623.63C245.372,623.752 240.507,623.951 235.637,624.057C235.698,624.882 235.752,625.707 235.805,626.532C240.329,626.68 244.833,626.777 249.361,626.796C251.68,626.807 254.096,627.023 256.405,626.761C259.495,626.413 259.587,626.38 259.631,623.531ZM759.734,623.545C755.827,623.607 751.919,623.669 748.007,623.654C744.12,623.638 740.284,623.702 736.437,623.845C736.263,627.22 748.826,625.916 750.949,625.689C753.369,625.431 758.949,626.019 759.734,623.545ZM779.195,615.508C774.366,616.118 767.45,615.738 763.773,612.185C758.449,607.042 757.456,599.862 748.296,600.461C740.202,600.99 738.584,608.063 732.976,612.346C729.073,615.325 722.563,617.504 717.564,616.991C717.586,618.863 717.528,620.756 717.433,622.629C721.967,621.463 727.344,621.77 731.989,621.921C737.324,622.095 742.613,621.836 747.957,621.63C758.467,621.225 768.974,621.686 779.521,621.288C779.385,619.517 779.206,617.514 779.195,615.508ZM279.483,615.926C273.416,616.186 269.542,615.606 264.464,611.769C258.716,607.424 256.721,598.254 247.801,599.747C243.036,600.544 239.871,603.295 237.412,607.207C235.974,609.493 234.258,611.67 232.107,613.326C227.482,616.885 222.053,616.77 216.471,616.691C216.517,618.518 216.51,620.348 216.578,622.163C227.89,620.911 239.705,621.45 251.093,621.479C260.43,621.503 270.15,620.463 279.42,621.941C279.315,619.923 279.365,617.861 279.483,615.926ZM485.206,617.68C485.199,617.652 485.192,617.625 485.187,617.599C485.069,617.037 485.166,616.305 485.599,615.89C486.236,615.282 487.064,615.15 487.763,615.742C488.52,616.384 488.692,617.536 488.532,618.458C488.376,619.352 487.707,620.302 486.698,620.115C485.671,619.923 485.259,618.84 485.205,617.906C485.201,617.835 485.201,617.759 485.206,617.68ZM508.081,618.464C507.318,617.85 507.2,616.648 507.614,615.779C507.79,615.41 508.085,615.052 508.533,615.041C508.744,615.036 508.944,615.119 509.114,615.249C509.271,615.243 509.434,615.283 509.6,615.377C509.999,615.603 510.135,616.056 510.256,616.466C510.379,616.884 510.256,617.366 510.07,617.748C509.987,617.921 509.884,618.084 509.743,618.215C509.632,618.585 509.42,618.913 509.026,619.009C508.624,619.107 508.28,618.82 508.081,618.464ZM987.893,615.365C987.901,615.363 987.908,615.361 987.914,615.359C988.832,615.087 989.235,616.127 989.275,616.862C989.313,617.559 989.054,618.387 988.361,618.688C987.87,618.901 987.345,618.745 986.992,618.364C986.421,617.748 986.284,616.896 986.544,616.098C986.727,615.541 987.346,615.025 987.893,615.365ZM7.918,617.727C8.085,618.187 8.354,618.547 8.825,618.705C10.42,619.236 10.738,615.801 9.35,615.338C9.298,615.322 9.248,615.304 9.196,615.288C8.914,615.193 8.528,615.243 8.321,615.484C8.292,615.519 8.262,615.553 8.232,615.588C7.717,616.19 7.652,616.993 7.918,617.727ZM508.127,618.5C508.151,618.525 508.178,618.548 508.207,618.567C508.237,618.586 508.269,618.602 508.303,618.615C508.241,618.58 508.182,618.541 508.127,618.5ZM243.33,605.551C245.884,603.053 251.117,602.297 253.894,603.776C258.135,606.035 257.93,611.214 255.315,614.576C253.843,616.47 251.996,617.395 249.555,617.523C247.067,617.653 245.408,616.302 243.987,614.413C242.78,612.809 241.793,610.291 242.054,608.154C242.013,607.916 242.01,607.688 242.05,607.563C242.215,607.042 242.477,606.561 242.817,606.124C242.965,605.921 243.135,605.729 243.33,605.551ZM747.245,603.959C747.692,603.803 748.136,603.766 748.619,603.8C748.775,603.797 748.934,603.799 749.095,603.806C749.204,603.81 749.299,603.844 749.38,603.9C749.843,603.982 750.352,604.1 750.934,604.225C752.749,604.614 754.345,605.334 755.215,607.07C756.893,610.415 754.972,614.531 751.602,615.84C748.189,617.168 743.194,614.769 742.679,610.978C742.199,607.445 744.114,604.642 747.245,603.959ZM245.796,606.654C245.699,606.949 245.544,607.199 245.335,607.334C243.815,608.316 243.928,608.024 243.898,610.081C243.874,611.803 243.752,611.741 244.579,612.811C245.521,614.028 246.426,615.031 247.967,615.398C251.084,616.138 254.146,614.771 255.532,611.901C258.434,605.886 251.802,604.658 248.053,605.782C247.233,606.028 246.489,606.308 245.796,606.654ZM295.16,606.834C295.117,573.418 294.931,540.003 295.036,506.594C295.14,474.069 294.582,441.512 295.2,408.992C294.988,409.145 294.754,409.284 294.497,409.407C291.579,410.803 286.629,410.439 283.884,408.665C281.198,406.93 279.91,403.673 279.419,400.003C276.025,400.065 271.994,400.302 268.721,401.271C264.912,402.397 263.428,405.441 261.235,408.37C261.7,412.901 261.933,417.455 262.042,422.01C262.05,422.37 261.882,423.014 261.413,423.02C256.618,423.08 251.845,423.63 247.051,423.743C243.232,423.834 239.129,424.346 235.45,423.233C235.06,423.115 234.882,422.521 234.887,422.173C234.976,416.383 234.742,410.581 234.879,404.793C233.553,403.044 232.001,401.541 229.728,400.444C225.602,398.453 221.48,398.322 217.172,399.609C217.171,400.532 217.162,401.454 217.146,402.372C217.138,402.842 216.965,403.163 216.737,403.332C216.562,405.438 216.334,407.498 214.49,408.926C212.213,410.689 207.834,411.029 205.148,410.352C204.112,410.091 203.275,409.636 202.604,409.032C202.408,425.039 202.397,441.047 202.217,457.053C202.025,473.923 203.087,490.782 202.859,507.651C202.631,524.499 200.865,541.455 201.637,558.286C202.371,574.25 203.222,590.358 202.725,606.351L202.644,608.649C202.674,607.883 202.701,607.118 202.725,606.351L202.725,606.334C204.222,605.544 207.061,605.23 209.371,605.227L209.457,605.228C210.58,605.23 211.571,605.306 212.21,605.437C214.359,605.876 215.201,606.805 215.621,609.076L215.641,609.185C216.126,611.166 216.327,613.182 216.42,615.208C216.423,615.208 216.425,615.208 216.428,615.208C224.579,615.374 230.302,613.48 234.964,607.512C234.533,604.067 234.269,600.598 234.065,597.133C233.98,595.7 233.259,592.475 234.1,591.056C235.94,587.95 244.277,589.391 247.25,589.202C250.895,588.972 255.021,588.419 258.645,588.9C259.78,589.05 260.576,589.03 261.336,589.971C262.568,591.494 261.965,594.378 261.94,596.098C261.888,599.565 261.736,603.044 261.812,606.511C264.022,609.304 266.387,611.555 269.859,613.033C272.993,614.366 276.293,613.983 279.61,614.146C279.686,613.213 279.772,612.328 279.856,611.511C279.877,610.84 279.939,610.173 280.064,609.528C280.075,609.424 280.086,609.322 280.096,609.222C280.113,609.054 280.161,608.929 280.226,608.841C280.627,607.396 281.409,606.104 282.847,605.178C285.396,603.537 289.238,603.105 291.994,604.374C293.308,604.979 294.345,605.821 295.16,606.834L295.163,609.673L295.16,606.834L295.16,606.834ZM717.558,398.439C717.421,402.659 716.221,408.792 711.728,409.611C709.391,410.036 704.291,408.945 702.644,407.377C702.415,407.16 702.209,406.921 702.023,406.664C702.584,423.695 702.496,440.756 702.601,457.797C702.707,475.047 702.785,492.337 702.609,509.593C702.436,526.518 702.064,543.437 701.676,560.358C701.477,569.036 701.618,577.735 701.689,586.415C701.744,593.227 701.595,600.271 702.137,607.125C702.836,606.211 703.769,605.5 704.97,605.185C707.309,604.572 711.805,604.81 713.95,606.175C716.18,607.592 717.125,610.25 717.356,612.744C717.418,613.414 717.465,614.09 717.498,614.771C724.419,614.275 729.993,612.308 734.63,607.708C734.288,603.547 734.387,599.252 734.388,595.074C734.389,593.482 734.07,590.936 734.785,589.414C736.731,585.27 745.188,587.512 748.735,587.139C751.942,586.803 756.182,586.224 759.296,587.405C760.488,587.856 760.901,587.763 761.59,589.018C762.72,591.076 761.86,593.938 761.793,596.103C761.686,599.586 762.168,603.008 761.899,606.494C761.886,606.661 761.859,606.801 761.819,606.917C763.508,609.187 765.376,611.171 768.173,612.284C771.764,613.714 775.575,612.964 779.281,613.04C779.602,609.141 780.918,605.595 784.854,604.172C787.903,603.07 792.856,603.234 795.671,605.431C795.804,598.372 795.162,591.236 795.381,584.164C795.664,575.13 795.667,566.092 795.702,557.055C795.77,539.513 795.671,521.968 795.614,504.426C795.554,486.152 795.509,467.878 795.405,449.605C795.352,440.295 795.394,430.988 795.43,421.679C795.447,417.312 795.421,412.946 795.583,408.581C795.611,407.823 795.712,407.103 795.845,406.403C794.855,407.605 793.532,408.512 791.782,408.99C789.306,409.666 785.266,409.471 783.067,407.89C780.761,406.231 780.102,402.698 779.747,399.692C776.055,399.658 771.975,399.575 768.498,400.99C765.097,402.374 763.404,404.796 761.526,407.555C761.592,407.708 761.639,407.887 761.661,408.092C762.109,412.247 762.515,416.933 762.044,421.097C761.907,422.315 761.953,422.846 761.107,423.65C759.713,424.974 751.604,424.731 749.671,424.877C745.2,425.214 741.081,424.464 736.676,424.017C736.1,423.958 735.858,423.33 735.846,422.818C735.724,417.453 734.959,411.751 735.527,406.36C733.599,403.453 731.655,400.946 728.272,399.628C725.015,398.359 721.062,398.553 717.558,398.439ZM746.814,606.634C745.15,607.436 743.754,608.601 744.729,610.753C745.581,612.636 748.445,613.853 750.44,613.543C753.852,613.014 755.705,608.504 752.081,606.735C750.134,605.783 748.648,606.052 746.814,606.634ZM760.361,604.862C760.455,602.492 760.213,600.204 760.153,597.822C760.103,595.853 760.777,591.192 758.899,589.93C758.229,589.48 755.081,589.543 754.017,589.484C751.694,589.354 749.376,589.776 747.051,589.721C744.844,589.67 742.811,589.348 740.597,589.574C737.69,589.871 736.762,589.532 736,593.185C735.137,597.333 735.838,602 735.936,606.314C736.246,605.958 736.551,605.59 736.853,605.208C740.021,601.192 742.856,598.206 748.235,597.927C754.11,597.621 757.184,600.264 760.361,604.862ZM260.546,604.846C260.558,603.121 260.522,601.396 260.508,599.67C260.494,597.866 260.978,595.204 260.469,593.482C259.33,589.625 251.708,591.416 248.253,591.335C246.002,591.283 243.777,591.086 241.526,591.264C238.774,591.481 235.627,591.103 235.19,594.233C234.659,598.04 235.425,602.336 235.904,606.234C236.186,605.827 236.464,605.403 236.739,604.962C239.304,600.852 243.6,598.359 248.485,597.687C254.002,596.929 257.527,600.843 260.546,604.846ZM237.167,594.108C237.211,593.857 237.298,593.62 237.425,593.428C237.777,592.892 238.417,593.045 238.619,593.632C238.651,593.725 238.679,593.818 238.704,593.911C238.724,593.973 238.74,594.036 238.752,594.099C239.076,594.729 239.024,595.582 238.523,596.089C238.288,596.328 238.045,596.3 237.845,596.156L237.844,596.156C237.471,596.102 237.209,595.649 237.159,595.301C237.142,595.182 237.125,595.062 237.108,594.943C237.081,594.756 237.092,594.422 237.167,594.108ZM738.02,595.086C737.462,594.361 737.449,592.77 738.12,592.304C740.579,590.595 740.912,596.461 738.59,595.604C738.341,595.513 738.152,595.325 738.02,595.086ZM257.245,592.642C257.688,592.549 258.047,593.11 258.174,593.481C258.346,593.982 258.315,594.592 258.021,595.043C257.735,595.483 257.211,595.562 256.797,595.254C256.353,594.923 256.231,594.392 256.185,593.868C256.134,593.305 256.606,592.322 257.245,592.642ZM758.241,594.401C758.018,594.581 757.732,594.658 757.431,594.548C756.905,594.357 756.655,593.737 756.597,593.229C756.53,592.63 756.625,591.952 757.111,591.543C757.466,591.245 757.958,591.248 758.292,591.58C758.909,592.194 759.038,593.316 758.564,594.059C758.463,594.215 758.354,594.327 758.241,594.401ZM485.29,591.479C485.403,590.866 485.837,590.13 486.514,590.087C487.313,590.036 487.765,590.871 487.917,591.544C488.014,591.974 487.998,592.436 487.91,592.866C487.878,592.993 487.846,593.121 487.814,593.249C487.876,593.083 487.873,593.116 487.805,593.346C487.732,593.638 487.61,593.938 487.381,594.146C486.596,594.861 485.75,594.145 485.403,593.385C485.153,592.838 485.116,592.102 485.29,591.479ZM507.777,590.248C508.088,589.966 508.493,589.84 508.947,590.055C510.138,590.62 510.37,592.727 509.441,593.606C508.584,594.42 507.442,594.114 506.997,593.059C506.706,592.369 506.693,591.409 507.1,590.771C507.254,590.532 507.502,590.318 507.777,590.248ZM987.86,593.506C987.301,593.557 986.753,592.826 986.608,592.349C986.333,591.445 986.496,590.333 987.342,589.805C987.709,589.576 988.07,589.631 988.389,589.81C988.905,589.791 989.313,590.341 989.531,590.764C989.551,590.804 989.572,590.844 989.592,590.883C989.948,591.573 989.832,592.577 989.451,593.23C989.156,593.735 988.396,594.069 987.92,593.57C987.899,593.548 987.879,593.527 987.86,593.506ZM8.784,592.857C9.121,592.83 9.471,592.695 9.805,592.745C10.245,592.81 10.616,592.237 10.726,591.899C10.861,591.487 10.894,591.044 10.805,590.618C10.638,589.827 9.981,589.085 9.18,589.666C9.034,589.77 8.635,589.825 8.449,589.91C7.855,590.18 7.718,591.007 7.783,591.577C7.838,592.069 8.145,592.908 8.784,592.857ZM738.424,592.682C738.454,592.663 738.485,592.645 738.518,592.63C738.489,592.643 738.46,592.656 738.432,592.669L738.424,592.682ZM736.982,408.466C737.21,411.096 737.165,413.766 737.24,416.391C737.334,419.699 736.295,421.202 740.388,422.034C742.408,422.444 744.78,422.202 746.834,422.18C748.973,422.157 751.167,422.208 753.299,422.059C754.517,421.825 755.746,421.673 756.984,421.601C759.691,422.499 760.823,422.055 760.38,420.272C761.613,417.902 760.611,412.891 760.096,409.605C757.011,413.686 752.987,415.366 747.746,414.808C742.643,414.265 739.71,412.127 736.982,408.466ZM236.173,406.655C236.487,411.472 236.416,416.332 236.36,421.15C242.079,421.904 247.491,421.469 253.282,421.33C254.737,421.296 256.333,421.462 257.774,421.234C260.592,420.789 260.308,420.954 260.399,418.084C260.484,415.448 260.099,412.737 259.848,410.075C256.933,413.371 253.152,415.935 248.52,415.467C244.286,415.039 240.002,412.773 237.753,409.175C237.211,408.308 236.697,407.464 236.173,406.655ZM238.288,418.241C238.204,417.818 238.279,417.38 238.482,416.998C238.501,416.962 238.52,416.926 238.54,416.89C238.717,416.556 239.051,416.429 239.403,416.518C240.493,416.794 240.823,418.516 240.597,419.433C240.427,420.127 239.997,420.792 239.239,420.322C238.591,419.922 238.199,419.021 238.288,418.241ZM739.332,419.566C738.675,418.908 738.877,417.489 739.303,416.792C739.438,416.571 739.777,416.238 740.076,416.277C741.089,416.409 741.399,417.368 741.467,418.272C741.533,419.137 740.876,420.63 739.807,420.025C739.613,419.915 739.455,419.756 739.332,419.566ZM758.535,418.987C758.519,419.04 758.502,419.092 758.484,419.144C758.342,419.542 757.901,420.078 757.411,419.847C756.075,419.215 756.014,416.625 757.633,416.349C758.504,416.202 758.777,417.653 758.743,418.192C758.728,418.424 758.659,418.721 758.535,418.987ZM255.891,416.77C255.93,416.617 255.992,416.469 256.08,416.33C256.33,415.936 256.832,415.727 257.224,416.075C257.988,416.754 258.04,418.009 257.551,418.866C257.218,419.45 256.634,419.853 255.954,419.643C254.958,419.337 254.92,417.151 255.891,416.77ZM486.861,412.798C486.923,412.753 486.99,412.709 487.061,412.665C487.54,412.368 488.119,412.787 488.384,413.161C488.668,413.561 488.802,414.12 488.814,414.602C488.823,414.99 488.759,415.379 488.614,415.737C488.529,416.271 488.3,416.777 487.929,417.208C487.75,417.415 487.273,417.562 487.018,417.413C485.894,416.756 485.384,415.28 485.799,414.036C485.913,413.48 486.24,412.734 486.851,412.797L486.861,412.798ZM508.319,415.797C508.06,415.54 507.888,415.156 507.839,414.833C507.73,414.106 507.772,413.229 508.347,412.683C508.701,412.347 509.175,412.259 509.604,412.506C510.79,413.189 510.522,415.109 509.712,415.962C509.302,416.395 508.649,416.224 508.319,415.797ZM9.238,415.23C9.123,415.105 9.033,414.96 8.986,414.843C8.659,414.037 8.76,412.275 9.954,412.221C11.007,412.175 11.373,413.768 11.185,414.55C11.012,415.273 10.382,416.291 9.558,415.615C9.433,415.513 9.326,415.381 9.238,415.23ZM988.186,412.666C989.413,413.09 989.251,415.954 987.728,415.681C987.106,415.57 986.721,414.82 986.632,414.26C986.535,413.655 986.599,412.849 987.16,412.472C987.517,412.232 987.926,412.373 988.186,412.666ZM9.997,415.457C10.079,415.459 10.116,415.436 10.116,415.422C10.117,415.408 10.08,415.404 10.014,415.446C10.008,415.45 10.003,415.453 9.997,415.457ZM279.314,392.563C274.208,393.083 269.524,392.591 264.444,392.083C259.551,391.594 254.437,392.136 249.523,392.213C243.795,392.304 238.041,392.406 232.312,392.299C227.166,392.204 222.029,391.354 216.902,391.857C217.062,393.919 217.139,395.992 217.163,398.059C222.467,396.035 228.151,396.239 232.874,399.632C235.014,401.169 236.584,403.149 237.89,405.409C239.798,408.71 241.763,411.087 245.487,412.33C255.117,415.543 258.532,406.967 263.893,401.257C268.02,396.862 273.837,398.242 279.23,398.022C279.122,396.211 279.171,394.351 279.314,392.563ZM779.251,390.749C773.872,391.164 768.471,391.576 763.075,391.266C758.071,390.977 753.255,390.442 748.229,390.717C738.248,391.262 727.566,392.667 717.639,391.106C717.767,392.883 717.71,394.685 717.539,396.36C717.54,396.378 717.541,396.396 717.542,396.413C722.905,395.763 728.833,396.07 733.006,399.909C738.208,404.694 739.102,410.852 747.097,412.137C751.877,412.905 755.879,411.894 758.856,407.93C760.645,405.55 761.858,402.726 764.108,400.701C768.291,396.939 774.209,397.058 779.49,397.371C779.302,395.466 779.154,393.117 779.251,390.749ZM748.356,395.59C751.59,396.111 754.267,397.366 754.705,401.321C754.9,403.079 754.788,405.362 753.621,406.788C752.511,408.143 750.547,408.621 748.914,408.984C746.872,409.437 744.906,409.668 743.427,407.892C742.182,406.396 741.637,404.227 741.679,402.311C741.75,399.041 743.934,393.167 748.269,395.527C748.3,395.543 748.328,395.565 748.356,395.59ZM248.133,396.814C248.26,396.488 248.509,396.26 248.871,396.34C250.592,396.72 252.699,396.972 253.871,398.46C254.915,399.785 255.117,401.874 254.987,403.485C254.661,407.536 251.878,409.821 247.94,408.376C246.526,407.857 244.32,407.444 243.688,405.895C243.106,404.471 243.232,402.418 243.645,400.974C244.259,398.828 246.105,397.125 248.133,396.814ZM215.726,398.789C215.818,394.648 215.694,390.297 214.518,386.475C213.543,383.31 212.136,381.775 208.546,381.788C204.009,381.802 202.63,385.859 202.304,389.472C201.928,393.625 199.743,406.385 205.929,407.782C207.445,408.124 210.505,407.56 211.825,406.906C215.169,405.244 214.424,402.54 215.072,399.794C215.205,399.228 215.45,398.913 215.726,398.789ZM781.014,398.058C781.24,400.011 781.413,402.217 782.246,403.851C784.323,407.929 786.586,407.78 790.073,407.158C798.455,405.665 796.93,395.12 796.428,388.912C796.154,385.531 795.183,382.013 791.298,381.549C789.658,381.353 786.347,381.404 784.904,382.077C779.694,384.509 780.775,393.131 781.014,398.058ZM281.256,387.776C280.67,392.375 280.297,397.561 281.635,401.828C282.937,405.984 285.949,407.882 290.219,407.313C293.943,406.817 295.357,403.567 295.861,400.033C296.377,396.416 296.404,390.798 295.681,387.215C295.192,384.798 294.482,382.946 291.995,381.98C288.122,380.476 281.61,382.203 281.434,387.19C281.424,387.449 281.355,387.645 281.256,387.776ZM716.021,396.068C716.087,392.676 716.237,389.164 714.957,385.957C713.557,382.454 710.37,381.516 706.882,381.783C699.829,382.323 701.325,391.914 701.637,397.268C701.853,400.953 702.335,406.128 706.735,407.147C707.188,407.252 708.825,407.383 709.397,407.308C712.844,406.854 714.341,405.941 715.233,402.553C716.06,399.412 715.853,399.16 715.996,396.301C716,396.219 716.008,396.141 716.021,396.068ZM746.028,397.466C743.889,398.44 742.52,400.887 743.154,403.408C743.832,406.102 746.718,406.702 749.097,406.431C750.154,406.311 751.466,406.184 752.253,405.379C753.284,404.324 753.507,402.201 753.117,400.852C752.493,398.692 748.382,396.374 746.17,397.418C746.121,397.441 746.074,397.457 746.028,397.466ZM248.397,398.238C246.86,398.439 245.584,399.42 244.989,401.277C244.766,401.974 244.706,402.801 244.748,403.533C244.816,404.692 244.946,404.743 245.827,405.109C246.615,405.436 247.502,405.675 248.325,405.904C249.677,406.28 250.96,406.45 252.121,405.519C253.353,404.532 253.837,402.738 253.396,401.243C252.73,398.984 250.584,398.753 248.565,398.307C248.504,398.294 248.448,398.27 248.397,398.238ZM485.091,389.852C485.023,389.791 484.959,389.721 484.897,389.645C484.236,388.821 484.407,387.203 485.339,386.661C485.412,386.618 485.618,386.441 485.795,386.384C485.956,386.333 486.131,386.31 486.297,386.276C487.042,386.121 487.54,387.258 487.656,387.775C487.888,388.806 487.673,389.84 486.996,390.646C486.575,391.148 485.854,390.931 485.488,390.522C485.318,390.33 485.185,390.101 485.091,389.852ZM9.175,388.336C9.196,388.188 9.23,388.053 9.275,387.941C9.442,387.526 9.82,387.069 10.321,387.257C10.34,387.264 10.359,387.272 10.377,387.28C10.729,387.257 11.077,387.511 11.212,387.929C11.423,388.577 11.453,389.764 10.803,390.201C10.608,390.598 10.267,390.929 9.797,390.753C9.109,390.495 9.02,389.561 9.071,388.944C9.089,388.736 9.128,388.536 9.175,388.336ZM507.616,389.988C507.568,389.924 507.523,389.856 507.484,389.783C507.033,388.947 506.919,387.959 507.418,387.104C507.846,386.371 508.705,386.404 509.178,387.06C509.212,387.108 509.247,387.157 509.282,387.205C509.844,387.353 510.117,388.124 510.174,388.629C510.239,389.2 510.108,390.297 509.421,390.514C509.332,390.542 509.243,390.562 509.153,390.576C508.7,390.855 508.101,390.741 507.764,390.218C507.715,390.141 507.665,390.065 507.616,389.988ZM295.014,380.79C294.645,372.692 293.278,364.538 291.815,356.588C290.261,348.144 288.022,339.684 283.632,332.23C279.466,325.154 274.164,320.607 266.533,317.808C263.593,316.731 261.17,314.701 258.118,313.882C254.229,312.839 249.794,312.985 245.816,313.402C238.532,314.165 231.29,316.626 225.128,320.612C218.262,325.052 214.6,332.84 210.697,339.792C202.999,353.498 202.97,368.25 202.462,383.287C203.877,380.63 206.451,379.288 211.31,380.455C215.119,381.371 215.691,382.753 216.301,386.634C216.488,387.82 216.638,389.015 216.758,390.215C222.786,389.396 228.877,389.45 234.975,389.615C235.012,388.566 235.062,387.775 235.159,386.506C235.176,386.297 235.335,385.894 235.575,385.838C242.494,384.234 249.941,383.919 257.007,384.603C261.163,385.005 261.355,385.759 261.003,389.334C262.36,389.347 263.711,389.421 265.051,389.591C269.953,390.217 274.591,390.391 279.545,390.297C279.794,388.275 280.134,386.431 280.454,384.965C280.511,384.701 280.609,384.533 280.724,384.442C282.621,379.615 290.59,378.168 295.014,380.79ZM986.757,387.532C986.839,387.334 986.968,387.163 987.158,387.042C987.57,386.782 987.913,386.981 988.141,387.303C988.234,387.313 988.328,387.332 988.422,387.359C989.36,387.634 989.29,389.539 988.485,389.915C988.239,390.03 987.992,390.048 987.763,389.993C987.602,390.21 987.314,390.275 987.079,390.141C986.781,389.973 986.631,389.536 986.638,389.207C986.641,389.091 986.646,388.973 986.655,388.856C986.479,388.485 986.514,387.895 986.757,387.532ZM259.52,389.341C258.522,385.613 251.038,386.574 247.788,386.624C244.027,386.682 237.843,385.996 236.176,389.648C240.613,389.776 245.05,389.935 249.465,389.831C252.783,389.754 256.163,389.405 259.52,389.341ZM794.855,379.26C794.123,363.279 793.482,346.967 785.053,332.835C777.355,319.926 765.042,311.547 749.73,311.407C734.019,311.262 717.247,319.878 709.909,334.152C706.014,341.728 704.504,350.971 703.386,359.326C702.448,366.326 701.843,373.578 701.985,380.699C703.708,379.093 706.44,379.597 708.911,379.79C714.577,380.231 716.883,384.79 717.516,389.85C717.525,389.848 717.534,389.847 717.543,389.846C722.83,389.236 728.221,389.556 733.537,389.403C734.061,389.387 734.585,389.368 735.108,389.344C734.829,387.661 734.575,385.888 734.871,384.238C734.928,383.916 735.084,383.461 735.432,383.335C738.031,382.398 741.456,382.729 744.199,382.608C748.163,382.434 752.056,382.562 756.019,382.648C761.101,382.758 761.324,384.158 761.463,388.71C767.428,388.849 773.381,388.96 779.433,388.427C779.906,384.482 781.273,380.883 784.525,379.693C786.44,378.992 789.006,379.436 790.997,379.198C792.323,379.039 793.433,378.617 794.733,379.202C794.774,379.221 794.815,379.24 794.855,379.26ZM759.972,388.675C759.428,385.192 757.587,384.831 754.106,384.964C751.805,385.052 749.525,385.272 747.22,385.318C744.996,385.361 742.522,385.1 740.33,385.472C736.921,386.051 736.633,386.421 736.484,389.276C740.383,389.063 744.272,388.703 748.177,388.604C752.137,388.502 756.058,388.584 759.972,388.675ZM296.911,0C295.871,30.69 297.239,61.581 297.461,92.313C297.566,106.948 297.96,121.767 296.962,136.376C296.089,149.146 293.49,162.278 286.294,173.103C274.59,190.711 248.785,199.797 229.329,189.959C205.043,177.677 200.908,147.433 200.59,123.167C200.158,90.194 200.498,57.189 200.543,24.215C200.554,16.144 200.574,8.074 200.603,0L202.372,0C202.37,18.909 202.391,37.819 202.399,56.729C202.406,71.666 202.353,86.603 202.391,101.54C202.43,116.844 201.603,132.51 204.28,147.651C208.625,172.225 226.08,194.977 253.371,191.111C264.319,189.56 274.737,183.671 281.895,175.259C290.649,164.97 293.763,151.228 294.857,138.089C296.067,123.565 295.28,108.842 295.007,94.297C294.731,79.56 294.704,64.818 294.602,50.08C294.486,33.384 294.556,16.693 294.675,0L296.911,0ZM796.885,0C797.074,19.931 797.077,39.865 796.544,59.774C796.128,75.373 795.555,90.967 795.866,106.574C796.145,120.634 796.869,134.827 794.591,148.773C792.593,161.005 788.797,173.822 778.157,181.146C772.865,184.788 767.551,189.387 761.294,191.254C755.722,192.917 749.797,192.806 744.053,192.473C737.92,192.118 731.97,191.535 726.542,188.407C721.334,185.406 717.192,180.859 714.098,175.752C707.421,164.729 704.627,151.112 703.097,138.482C701.304,123.679 701.606,108.743 701.625,93.862C701.646,78.002 701.567,62.141 701.486,46.281C701.407,30.853 701.206,15.427 701.029,0L702.568,0C702.582,24.724 702.707,49.453 702.725,74.198C702.746,101.705 700.66,130.534 708.187,157.302C711.856,170.353 718.7,184.76 732.862,188.759C739.192,190.547 746.978,190.652 753.499,190.224C760.873,189.74 765.964,187.071 771.82,182.915C777.388,178.962 782.862,175.877 786.36,169.718C790.042,163.236 791.999,155.524 793.195,148.227C795.45,134.469 794.768,120.48 794.457,106.608C793.828,78.581 795.399,50.528 795.251,22.49C795.212,14.995 795.163,7.499 795.104,0L796.885,0ZM952.613,0C952.623,2.354 952.633,4.71 952.644,7.066C952.795,40.234 953.12,73.47 952.563,106.645L952.565,106.545C952.599,106.508 952.634,106.471 952.669,106.435C954.612,104.441 958.44,103.746 961.093,104.268C964.047,104.85 966.177,106.716 966.983,109.435C967.266,110.389 967.316,111.675 967.315,112.999C974.058,114.007 980.154,111.227 984.708,106.543C984.678,102.863 984.56,99.185 984.525,95.504C984.512,94.09 983.79,90.342 984.643,88.974C985.135,88.185 985.451,88.031 986.325,87.828C987.545,87.545 991.367,88.614 991.9,88.626C993.37,88.659 994.999,88.183 996.52,88.149C997.681,88.124 998.841,88.076 1000,88.023L1000,90.316C998.548,90.281 997.092,90.236 995.643,90.186C993.582,90.117 989.739,89.704 988.333,90.221C987.7,90.373 987.051,90.417 986.387,90.354C985.903,91.395 985.764,92.486 985.968,93.626C985.795,97.43 985.933,101.299 985.997,105.119C986.376,104.669 986.742,104.205 987.095,103.729C990.286,99.419 993.688,95.002 999.623,95.512C999.75,95.523 999.876,95.535 1000,95.549L1000,97.911C999.408,97.853 998.815,97.84 998.227,97.877C990.584,98.354 988.102,107.531 982.485,111.535C977.932,114.781 972.732,115.525 967.297,114.992C967.294,115.572 967.299,116.129 967.329,116.638C967.396,117.773 967.435,118.923 967.451,120.077C978.01,119.069 988.716,119.495 999.301,119.724L1000,119.738L1000,122.095L999.359,122.075C995.214,121.95 991.07,121.877 986.925,121.866C986.93,123.119 986.93,124.365 986.896,125.616C991.249,125.774 995.621,125.676 999.968,125.54L1000,125.539L1000,127.989C995.358,128.128 990.849,128.177 986.229,127.596C985.739,127.535 985.578,127.041 985.545,126.609C985.426,125.024 985.374,123.45 985.328,121.865C979.367,121.873 973.409,122.014 967.451,122.325C967.438,123.401 967.405,124.475 967.354,125.538C967.474,127.377 967.115,129.043 965.616,130.746C963.135,133.565 960.478,133.83 956.831,133.276C955.011,133 953.897,132.676 953.117,131.86C956.096,157.96 967.209,188.239 997.85,188.984C998.558,189.001 999.275,188.988 1000,188.949L1000,192.287C999.297,192.318 998.607,192.321 997.932,192.295C964.983,191.012 951.973,155.924 951.287,127.64C951.283,127.481 951.299,127.34 951.329,127.219C950.457,123.094 950.312,118.45 950.588,114.412C950.671,113.194 950.684,111.906 950.853,110.665C950.783,110.491 950.74,110.279 950.735,110.027C950.096,75.742 950.883,41.392 951.048,7.105C951.06,4.737 951.068,2.368 951.073,0L952.613,0ZM47.534,0C47.519,3.152 47.506,6.305 47.496,9.459C47.44,27.299 47.534,45.137 47.611,62.976C47.648,71.565 47.703,80.156 47.669,88.745C47.65,93.37 47.164,98.003 47.319,102.63C47.416,105.538 47.63,108.371 47.622,111.239C48.127,114.678 48.265,118.421 48.138,121.715C48.04,124.285 47.683,126.689 46.892,128.628C46.943,136.61 47.024,144.729 45.063,152.524C43.043,160.554 38.538,167.316 33.788,173.978C29.744,179.649 25.727,184.29 19.229,187.135C13.693,189.558 6.347,192.014 0,192.287L0,188.949C5.736,188.636 11.936,186.651 17.138,184.622C24.172,181.878 28.581,177.216 32.874,171.189C36.952,165.465 40.831,159.589 42.855,152.788C44.937,145.793 45.273,138.456 45.32,131.192C43.583,133.074 40.88,133.822 36.769,132.69C32.226,131.439 30.687,126.935 30.234,122.109C24.168,123.097 17.836,122.987 11.55,122.68C11.737,123.909 11.979,125.337 11.777,126.429C11.726,126.703 11.589,127.132 11.28,127.228C7.863,128.286 3.587,127.884 0.028,127.989L0,127.989L0,125.539C2.306,125.47 4.737,125.66 7.022,125.292C9.719,124.857 10.246,124.715 10.246,122.614C6.793,122.432 3.361,122.209 0,122.095L0,119.738C10.036,119.945 20.068,119.915 30.106,120.172C30.025,118.208 30.08,116.255 30.144,114.506C26.419,113.524 22.548,114.837 18.959,112.966C17.209,112.054 15.471,110.551 13.988,109.275C12.035,107.594 11.248,105.458 9.715,103.419C7.503,100.476 3.771,98.278 0,97.911L0,95.549C4.938,96.099 8.171,98.954 10.927,102.624C11.265,98.686 12.057,92.471 8.616,90.243C7.482,89.509 2.666,90.372 1.206,90.343C0.805,90.335 0.403,90.326 0,90.316L0,88.023C2.54,87.908 5.079,87.771 7.629,87.8C9.11,87.817 10.714,87.628 11.861,88.79C12.785,89.726 12.877,91.045 12.857,92.266C12.795,96.146 11.982,99.897 12.35,103.813C12.376,104.088 12.333,104.31 12.247,104.481C13.733,106.634 16.709,109.974 19.266,110.998C22.528,112.304 26.667,111.573 30.226,112.213C30.232,112.026 30.236,111.843 30.24,111.665C30.247,111.311 30.34,111.045 30.476,110.868C31.206,105.086 35.601,101.615 42.491,103.113C44.222,103.49 45.333,104.37 46.074,105.621C46.131,103.98 46.189,102.335 46.181,100.676C46.158,96.05 45.702,91.438 45.667,86.812C45.602,78.223 45.53,69.634 45.51,61.046C45.469,43.537 45.477,26.028 45.409,8.519C45.398,5.681 45.386,2.842 45.373,0L47.534,0ZM547.46,0C547.461,2.139 547.464,4.272 547.471,6.405C547.579,39.895 548.127,73.519 547.179,106.997C547.173,107.207 547.138,107.39 547.081,107.544C547.58,108.874 547.531,110.421 547.593,112.239C547.745,116.594 549.214,126.37 545.733,130.76C545.767,130.888 545.788,131.031 545.793,131.191C546.217,146.657 542.059,162.48 532.943,175.031C528.966,180.506 524.059,186.083 517.926,189.168C511.454,192.421 504.067,192.405 496.981,192.118C482.315,191.525 469.131,184.922 461.874,171.833C458.507,165.758 456.576,159.042 454.789,152.368C452.864,145.177 450.995,137.96 451.432,130.499C449.276,126.078 450.181,118.633 450.202,114.898C450.209,113.624 450.154,112.147 450.277,110.696C450.169,110.484 450.104,110.204 450.107,109.855C450.438,75.347 449.955,40.738 449.971,6.201C449.972,4.136 449.977,2.071 449.986,0L451.989,0C451.992,2.051 451.995,4.101 451.996,6.151C452.003,23.798 452.027,41.446 452.059,59.093C452.085,74.562 452.628,90.234 452.196,105.698L452.057,109.807C452.111,108.439 452.158,107.068 452.196,105.698L452.197,105.674C454.544,103.346 458.694,104.612 461.539,105.096C465.794,105.819 467.09,109.971 467.391,114.361C473.375,115.012 480.147,112.815 484.532,108.494C484.508,108.395 484.497,108.289 484.505,108.181C484.79,103.782 484.343,99.466 484.358,95.077C484.363,93.521 484.205,90.761 485.275,89.472C487.749,86.493 495.619,87.52 498.954,87.57C502.075,87.617 506.698,86.825 509.605,87.869C510.808,88.301 511.023,88.287 511.722,89.503C512.266,90.448 512.041,91.859 512.031,92.866C511.988,97.06 511.57,101.066 512.014,105.265C512.044,105.548 511.992,105.772 511.894,105.935C513.324,107.913 514.748,109.78 517.147,111.078C520.516,112.9 525.421,113.35 529.328,113.02C529.681,108.822 531.171,105.121 535.504,103.733C538.247,102.855 542.464,103.421 544.922,105.003C545.141,105.143 545.341,105.287 545.524,105.434L545.524,105.446C545.529,105.978 545.534,106.507 545.539,107.037L545.524,105.446C545.233,72.459 545.912,39.439 545.805,6.446C545.798,4.297 545.786,2.149 545.77,0L547.46,0ZM511.154,122.806C511.293,124.337 511.618,126.441 510.366,127.554C509.134,128.648 506.999,127.788 505.644,127.81C503.08,127.849 500.586,127.952 498.016,127.912C495.211,127.87 493.219,127.626 490.393,127.284C489.234,127.143 486.899,127.538 485.881,126.802C484.945,126.126 484.851,124.5 484.801,123.185C479.028,123.288 473.25,123.313 467.486,123.196C467.446,123.195 467.407,123.189 467.371,123.179C466.807,129.912 463.446,135.673 455.437,133.859C454.33,133.609 453.442,133.091 452.732,132.376C453.178,138.909 454.942,145.207 456.607,151.55C458.379,158.297 460.436,165.15 463.971,171.216C471.239,183.691 483.725,189.846 497.875,189.767C504.498,189.73 511.414,189.88 517.417,186.703C523.281,183.599 527.987,178.677 531.736,173.287C540.111,161.248 544.307,146.875 544.095,132.185C543.687,132.418 543.239,132.603 542.748,132.735C539.688,133.558 535.45,134.258 533.073,131.747C531.546,130.134 530.769,127.956 530.321,125.748C530.14,125.661 529.986,125.433 529.96,125.064C529.914,124.395 529.847,123.677 529.772,122.923C523.566,123.116 517.362,122.921 511.154,122.806ZM531.006,123.753C531.569,126.662 532.826,129.915 535.393,131.306C539.905,133.75 544.256,130.788 545.74,126.514C547.282,122.073 546.99,115.892 545.945,111.344C544.848,106.578 542.597,106.01 538.606,105.759C535.302,105.551 531.483,106.861 530.763,110.532C529.967,114.597 530.895,119.458 531.006,123.753ZM952.742,128.129C952.848,129.354 952.972,130.592 953.114,131.837L952.697,127.605L952.742,128.129ZM465.777,122.568C465.52,117.622 466.845,108.339 460.809,106.431C459.256,105.941 455.67,105.95 454.152,106.923C451.307,108.747 451.947,113.018 451.953,115.764C451.961,118.816 451.015,128.993 454.497,130.849C456.372,131.848 459.941,131.382 461.728,130.572C465.001,129.09 465.467,125.731 465.777,122.568ZM965.688,122.077C965.692,120.603 965.704,119.128 965.711,117.657C965.731,113.532 966.536,109.088 962.16,106.785C960.216,105.762 956.47,106.162 954.647,107.476C951.705,109.596 952.034,113.039 952.261,116.191C952.492,119.391 952.629,122.63 953.05,125.808C953.488,129.118 954.256,130.348 957.696,130.652C961.009,130.945 964.815,130.729 965.595,126.743C965.656,126.429 965.69,126.098 965.707,125.756C965.698,125.131 965.692,124.504 965.69,123.878C965.668,123.26 965.65,122.649 965.688,122.082L965.688,122.077ZM46.051,113.135C46.022,112.944 45.993,112.755 45.963,112.569C44.275,101.948 30.579,102.589 31.874,113.892C31.902,114.139 31.863,114.375 31.782,114.58C31.756,116.441 31.67,118.496 31.734,120.506C31.884,120.775 31.896,121.172 31.777,121.478C31.944,124.3 32.481,126.951 33.987,128.742C35.802,130.901 36.574,130.45 39.024,130.465C42.695,130.488 44.681,131.083 46.111,125.71C46.936,122.606 46.748,118.569 46.312,115.03C46.234,114.891 46.179,114.728 46.162,114.553C46.116,114.079 46.079,113.607 46.051,113.135ZM509.728,122.781C506.047,122.721 502.365,122.702 498.68,122.821C494.555,122.954 490.418,123.074 486.277,123.157C486.402,123.766 486.554,124.368 486.735,124.965C488.554,125.383 490.391,125.566 492.247,125.513C494.437,125.62 496.712,125.708 498.916,125.737C501.784,125.773 504.377,125.539 507.235,125.235C509.647,124.978 509.806,124.995 509.728,122.781ZM529.244,114.666C523.514,114.357 517.454,114.948 513.049,110.385C510.854,108.111 509.565,105.145 507.252,102.943C504.218,100.053 500.104,98.97 495.947,99.673C489.147,100.822 487.125,109.589 481.872,113.297C477.541,116.352 472.61,117.176 467.468,116.622C467.476,118.388 467.376,120.105 467.298,121.563C467.307,121.581 467.317,121.6 467.326,121.619C467.363,121.606 467.403,121.597 467.446,121.594C477.81,120.802 488.257,120.653 498.631,120.803C508.94,120.953 519.265,120.24 529.556,120.758C529.368,118.798 529.203,116.703 529.244,114.666ZM737.171,118.745C736.203,118.061 735.882,116.7 736.068,115.571C736.22,114.65 737.015,113.542 738.01,114.301C738.303,114.525 738.542,114.794 738.737,115.092C738.955,115.233 739.144,115.447 739.276,115.691C739.572,116.241 739.665,116.91 739.552,117.534C739.511,118.02 739.334,118.481 738.934,118.83C738.92,118.842 738.906,118.853 738.892,118.864C738.861,118.902 738.83,118.939 738.799,118.977C738.489,119.356 737.961,119.325 737.585,119.112C737.42,119.019 737.283,118.892 737.171,118.745ZM259.371,115.405C259.892,115.203 260.412,115.543 260.692,116.066C261.073,116.771 261.159,117.921 260.656,118.606C260.477,118.849 260.302,119.112 259.994,119.201C259.268,119.411 258.84,118.957 258.525,118.34C258.438,118.169 258.374,117.946 258.347,117.756C258.227,116.91 258.35,116.048 259.09,115.545C258.822,115.724 258.865,115.694 259.221,115.454C259.271,115.434 259.321,115.417 259.371,115.405ZM237.976,115.073C238.017,115.073 238.059,115.075 238.103,115.081C238.749,115.174 239.052,116.051 239.043,116.615C239.04,116.799 239.037,116.982 239.034,117.165C239.022,117.929 238.445,119.385 237.464,118.607C237.26,118.446 237.25,118.451 237.047,118.411C236.542,118.31 236.253,117.557 236.164,117.136C236.05,116.59 236.103,116.016 236.343,115.514C236.522,115.137 236.822,114.77 237.281,114.76C237.569,114.753 237.796,114.884 237.976,115.073ZM759.906,114.273C760.045,114.146 760.216,114.059 760.422,114.042C760.914,114 761.291,114.272 761.569,114.653C762.006,115.253 762.043,116.284 761.657,116.927C761.641,116.995 761.622,117.063 761.601,117.131C761.592,117.161 761.44,117.669 761.515,117.324C761.364,118.022 761.076,118.618 760.328,118.771C759.063,119.03 758.351,117.279 758.376,116.327C758.393,115.632 758.576,114.648 759.31,114.336C759.323,114.33 759.335,114.325 759.348,114.32C759.535,114.24 759.727,114.23 759.906,114.273ZM736.786,117.907C736.813,118.031 736.807,118.002 736.801,117.954C736.797,117.939 736.793,117.925 736.789,117.91L736.786,117.907ZM736.772,117.844L736.773,117.843C736.768,117.823 736.763,117.802 736.759,117.781L736.772,117.844ZM499.08,102.153C500.233,101.926 501.4,102.04 502.624,102.82C504.195,103.82 505.08,105.555 505.306,107.369C505.831,111.564 503.106,116.242 498.549,116.017C494.486,115.818 490.889,112.606 491.588,108.321C492.213,104.491 495.095,101.619 499.08,102.153ZM1000,100.58L1000,102.733C997.827,102.412 996.043,103.399 994.344,104.792C993.948,105.638 993.43,106.32 993.374,107.414C993.292,109.005 993.74,111.179 994.923,112.316C996.263,113.606 998.209,113.904 1000,113.488L1000,115.138C997.312,115.632 994.365,114.969 993.075,112.724C992.164,111.139 991.618,108.966 991.83,107.135C992,105.662 992.302,103.265 993.839,102.749C995.387,101.345 997.764,100.519 1000,100.58ZM0,100.58C1.533,100.622 3,101.08 4.086,102.053C7.003,104.667 6.769,109.84 4.482,112.71C3.49,113.955 1.803,114.807 0,115.138L0,113.488C1.465,113.148 2.825,112.33 3.663,111.186C5.983,108.02 4.542,104.075 0.962,102.955C0.633,102.853 0.312,102.779 0,102.733L0,100.58ZM495.97,104.616C494.837,105.298 493.921,106.255 493.526,107.576C492.538,110.877 494.663,113.099 497.805,113.652C501.16,114.242 504.024,111.624 503.883,108.115C503.719,104.027 499.317,103.462 496.294,104.638C496.165,104.688 496.057,104.673 495.97,104.616ZM510.656,104.24C510.785,100.22 511.163,95.597 509.609,92.014C509.51,90.013 508.558,89.298 506.752,89.866C505.462,89.845 504.172,89.847 502.882,89.873C500.624,89.91 498.37,90.048 496.114,90.126C494.028,90.197 491.362,89.806 489.357,90.412C487.419,90.081 486.25,90.991 485.852,93.141C485.82,94.411 485.788,95.679 485.755,96.949C485.781,100.445 486.057,103.799 485.681,107.245C485.845,107.048 486.005,106.847 486.16,106.642C489.277,102.517 490.2,98.41 495.891,97.437C501.608,96.461 505.99,98.663 509.648,102.974C510.003,103.392 510.336,103.816 510.656,104.24ZM488.159,92.348C488.371,92.031 488.686,91.803 489.126,91.753C489.435,91.718 489.803,92.006 489.953,92.247C490.459,93.064 490.605,94.18 490.067,95.026C489.867,95.34 489.633,95.478 489.38,95.52C489.276,95.571 489.161,95.601 489.034,95.604C488.819,95.61 488.634,95.535 488.477,95.412C488.035,95.25 487.854,94.573 487.82,94.151C487.707,93.548 487.777,92.813 488.159,92.348ZM988.09,92.301C988.302,91.799 988.752,91.41 989.292,91.706C989.579,91.864 989.751,92.151 989.843,92.471C989.939,92.598 990.017,92.737 990.071,92.872C990.341,93.558 990.232,95.026 989.249,95.078C988.928,95.095 988.662,94.904 988.458,94.636C988.244,94.486 988.069,94.237 987.99,94.047C987.763,93.507 987.792,92.806 988.09,92.301ZM506.835,91.513C506.997,91.418 507.195,91.401 507.426,91.5C508.534,91.977 508.734,94.395 507.433,94.753C507.378,94.795 507.32,94.831 507.256,94.858C506.66,95.116 506.192,94.468 506.07,93.946C505.905,93.503 505.884,93.003 506.048,92.553C506.066,92.503 506.09,92.449 506.118,92.394C506.202,92.139 506.338,91.9 506.531,91.69C506.604,91.61 506.715,91.548 506.835,91.513ZM6.984,92.059C7.194,91.6 7.483,91.29 8.024,91.399C8.464,91.487 8.733,92.014 8.847,92.4C9.019,92.987 8.966,93.625 8.643,94.151C8.44,94.48 8.111,94.664 7.729,94.545C7.173,94.371 6.865,93.996 6.753,93.412C6.667,92.961 6.721,92.436 6.984,92.059ZM760.431,89.404C761.02,88.511 761.859,89.539 761.837,90.279C761.812,91.084 761.695,91.786 761.278,92.491C760.966,93.019 760.554,93.501 760.089,93.899C759.659,94.267 759.197,94.101 758.871,93.691C758.386,93.08 758.221,92.25 758.269,91.485C758.304,90.942 758.404,90.425 758.786,90.009C759.04,89.731 759.344,89.533 759.671,89.349C759.932,89.203 760.202,89.264 760.431,89.404ZM237.57,93.661C237.091,94.171 236.51,94.172 236.035,93.565C235.467,92.844 235.442,91.737 235.721,90.897C235.938,90.244 236.627,89.435 237.393,89.798C237.881,90.029 238.139,90.476 238.221,90.978C238.28,91.1 238.323,91.226 238.348,91.34C238.519,92.104 238.331,93.252 237.57,93.661ZM737.506,89.079C737.631,89.048 737.757,89.019 737.884,88.996C738.073,88.984 738.277,89.011 738.454,89.077C739.059,89.304 739.381,89.962 739.512,90.554C739.759,91.674 739.401,92.935 738.386,93.405C737.887,93.847 737.241,93.638 736.849,93.141C736.138,93.064 735.847,91.684 735.95,91.15C736.004,90.871 736.059,90.592 736.113,90.312C736.192,89.907 736.363,89.421 736.778,89.242C736.901,89.19 737.026,89.176 737.145,89.193C737.197,89.167 737.252,89.145 737.309,89.124C737.391,89.105 737.456,89.09 737.506,89.079ZM260.729,91.178C260.496,90.657 260.185,90.183 259.631,89.958C259.16,89.768 258.554,90.061 258.208,90.353C257.473,90.971 257.572,92.522 258.275,93.117C258.84,93.597 259.563,93.683 260.155,93.199C260.698,92.754 261.03,91.848 260.729,91.178ZM237.709,92.943L237.62,93.052C237.65,93.016 237.68,92.98 237.709,92.943L237.709,92.943ZM236.682,91.723C236.682,91.778 236.684,91.833 236.688,91.887C236.691,91.942 236.696,91.996 236.702,92.05C236.691,91.949 236.684,91.838 236.682,91.723Z" style="fill-rule:nonzero;"/>
</svg>
