<?xml version="1.0" encoding="UTF-8" standalone="no"?>
<!DOCTYPE svg PUBLIC "-//W3C//DTD SVG 1.1//EN" "http://www.w3.org/Graphics/SVG/1.1/DTD/svg11.dtd">
<svg width="100%" height="100%" viewBox="0 0 1000 1000" version="1.1" xmlns="http://www.w3.org/2000/svg" xmlns:xlink="http://www.w3.org/1999/xlink" xml:space="preserve" xmlns:serif="http://www.serif.com/" style="fill-rule:evenodd;clip-rule:evenodd;stroke-linejoin:round;stroke-miterlimit:2;">
    <path d="M294.818,1000C294.601,996.553 294.361,993.112 294.104,989.677C293.985,988.081 294.485,987.044 295.206,986.558C295.237,985.278 295.297,983.995 295.301,982.727C295.319,977.282 295.228,971.855 295.016,966.415C294.968,965.188 295.623,962.582 297.34,962.679C310.836,963.444 324.432,962.077 337.895,963.24C351.521,964.416 365.213,963.17 378.873,963.148C380.437,963.146 380.955,965.076 381.053,966.297C381.949,977.476 382.882,988.73 383.662,1000L378.8,1000C378.255,989.828 377.661,979.657 377.039,969.49C364.043,969.066 351.005,967.941 338.04,969.145C325.451,970.315 312.731,969.303 300.096,969.89C300.372,974.442 300.48,979.008 300.349,983.563C300.275,986.076 300.363,988.746 299.816,991.208C299.667,991.882 299.471,992.534 299.263,993.179C299.452,995.453 299.621,997.726 299.772,1000L294.818,1000ZM796.543,1000C796.368,992.7 796.076,985.399 795.688,978.096C795.674,977.844 795.674,977.604 795.687,977.377C795.462,973.839 795.176,970.305 794.804,966.764C794.646,965.26 795.502,963.044 797.219,962.881C812.315,961.452 827.217,960.533 842.373,961.787C850.143,962.43 856.803,962.652 864.479,961.079C869.215,960.109 877.441,959.036 881.604,962.327C885.682,965.55 884.126,973.724 884.194,978.228C884.302,985.465 884.412,992.702 884.52,999.939L884.52,1000L878.42,1000C878.367,995.424 878.314,990.848 878.262,986.271C878.224,982.982 878.186,979.692 878.148,976.402C878.13,974.912 878.28,971.917 878.211,970.142C872.304,967.915 866.023,969.809 859.945,970.487C853.23,971.235 846.316,969.566 839.615,969.077C826.619,968.13 813.269,968.171 800.329,970.064C800.641,972.556 800.888,975.056 801.059,977.561C801.077,977.691 801.092,977.825 801.103,977.963C801.673,985.299 802.051,992.648 802.259,1000L796.543,1000ZM1000,969.405C994.597,969.453 989.241,969.817 983.82,970.026C978.118,970.245 972.534,968.954 966.873,969.066L966.882,969.741L966.886,970.106C967.025,970.527 967.093,971.009 967.063,971.541C966.995,972.768 966.952,973.991 966.933,975.211C966.938,975.903 966.942,976.596 966.945,977.288C966.946,977.472 966.939,977.646 966.924,977.813C966.992,985.267 967.82,992.611 968.596,1000L963.033,1000C962.006,990.648 960.959,981.223 962.23,971.901C962.023,969.715 961.825,967.528 961.635,965.339C961.492,963.693 962.346,961.601 964.128,961.33C970.567,960.351 977.114,962.673 983.634,962.43C989.094,962.227 994.54,961.797 1000,961.568L1000,969.405ZM628.584,1000C628.187,988.278 628.418,976.541 629.331,964.84C629.464,963.134 630.3,962.356 631.238,962.275C631.662,961.791 632.224,961.485 632.932,961.462C646.271,961.021 660.074,960.142 673.336,961.867C679.572,962.678 685.601,964.147 691.921,964.373C698.977,964.626 706.042,964.234 713.084,963.819C714.916,963.712 715.642,966.215 715.702,967.601C716.175,978.386 716.379,989.194 716.64,1000L711.729,1000C711.368,990.524 711.004,981.054 710.752,971.575C704.528,971.742 698.291,971.851 692.089,971.229C685.986,970.616 680.068,969.153 674.054,968.03C660.465,965.491 647.37,967.403 633.924,969.878C633.517,979.917 633.401,989.963 633.741,1000L628.584,1000ZM0,961.568C1.285,961.514 2.572,961.471 3.86,961.444C17.818,961.158 31.736,962.226 45.633,963.412C47.689,963.587 48.715,965.961 48.677,967.809C48.462,978.54 48.386,989.27 48.407,1000L42.446,1000C42.447,990.689 42.549,981.381 42.726,972.076C29.856,970.941 16.973,969.771 4.056,969.436C2.7,969.401 1.349,969.393 0,969.405L0,961.568ZM463.799,1000C463.545,988.814 463.037,977.635 462.487,966.503C462.462,966.001 462.494,965.552 462.573,965.156C462.632,963.736 463.176,962.45 464.347,962.129C477.008,958.657 491.745,960.369 504.716,960.824C512.162,961.085 519.603,961.807 527.039,962.458C527.523,962.31 528.051,962.32 528.604,962.555C528.641,962.571 528.677,962.586 528.712,962.602C534.673,963.113 540.63,963.55 546.585,963.64C548.593,963.67 549.612,966.249 549.566,967.945C549.275,978.615 549.34,989.304 549.557,1000L463.799,1000ZM129.937,1000C130.242,995.758 130.359,991.527 130.079,987.218C129.651,980.623 128.318,974.135 127.974,967.54C127.889,965.917 128.573,964.795 129.447,964.383C130.301,963.723 131.424,963.806 132.138,964.842C134.299,965.408 139.781,963.951 141.641,963.799C144.917,963.531 148.197,963.315 151.479,963.147C158.371,962.795 165.276,962.686 172.174,962.5C185.753,962.136 199.453,964.355 212.983,963.048C214.374,962.914 215.419,964.769 215.568,965.901C217.059,977.252 218.417,988.569 218.605,1000L213.188,1000C212.985,990.348 212.12,980.78 210.964,971.156C195.871,972.131 180.54,969.533 165.441,969.46C157.238,969.421 148.995,969.872 140.823,970.534C139.029,970.679 136.196,971.445 133.673,971.534C135.61,980.82 136.078,990.514 135.596,1000L129.937,1000ZM129.36,817.08C129.093,812.127 129.031,807.172 129.31,802.207C129.374,801.066 129.63,799.11 130.971,798.669C137.1,796.659 143.272,796.81 149.637,797.31C156.525,797.852 163.184,798.075 170.087,797.589C176.931,797.108 183.813,796.393 190.681,796.79C196.928,797.153 204.082,800.171 210.073,797.578C212.326,796.604 213.459,799.779 213.517,801.382C214.486,827.803 215.793,854.242 216.301,880.676C216.332,882.333 215.629,884.784 213.638,884.957C199.951,886.143 186.123,885.818 172.4,886.165C165.269,886.346 158.148,886.376 151.022,886.702C147.833,886.848 144.637,886.951 141.462,886.539C138.08,886.1 134.74,884.815 131.339,885.829C129.222,886.461 128.044,884.007 128.073,882.222C128.424,860.55 128.016,838.731 129.36,817.08ZM796.827,831.657C796.253,825.77 795.834,819.843 795.773,813.93C795.725,809.398 794.97,803.541 796.604,799.233C797.77,796.158 800.153,795.367 803.21,795.071C809.113,794.498 815.152,794.695 821.074,794.751C831.658,794.851 842.255,795.092 852.833,795.441C858.455,795.625 864.071,795.934 869.685,796.291C873.173,796.514 878.143,795.975 881.383,797.469C887.952,800.497 885.513,813.373 885.4,818.783C885.179,829.353 885.093,839.923 884.982,850.494C884.922,856.109 884.87,861.725 884.817,867.339C884.774,871.869 885.329,876.879 884.59,881.351C884.12,884.193 882.876,885.562 880.09,886.017C875.016,886.847 869.32,885.865 864.159,886.053C842.936,886.82 821.688,885.679 800.465,885.856C797.989,885.876 797.422,882.343 797.657,880.569C799.811,864.351 797.345,847.96 796.827,831.657ZM462.381,803.202C462.326,802.423 462.261,801.643 462.192,800.861C462.075,799.553 462.896,796.686 464.709,796.813C474.854,797.526 484.973,795.119 495.164,795.366C505.219,795.61 515.25,796.505 525.307,796.692C529.91,796.777 534.503,796.948 539.103,797.14C541.627,797.245 545.794,796.535 548.129,797.885C550.335,799.16 550.609,802.088 550.381,804.365C549.974,808.447 549.7,812.192 550.043,816.305C551.536,834.198 549.295,851.938 549.923,869.819C550.076,874.162 552.605,883.553 546.453,884.831C542.349,885.685 537.536,885.16 533.333,885.282C528.753,885.414 524.173,885.531 519.592,885.63C501.599,886.023 483.592,886.053 465.596,885.839C463.908,885.819 463.073,884.056 462.714,882.658C461.38,877.459 462.965,871.926 462.868,866.625C462.746,859.964 462.587,853.305 462.495,846.644C462.304,832.989 461.996,819.334 461.871,805.678C461.861,804.662 462.057,803.836 462.381,803.202ZM1000,884.293C995.428,884.106 990.852,883.97 986.28,883.969C979.646,883.966 972.661,883.708 966.269,885.638C963.96,886.337 962.855,883.677 962.798,881.806C962.071,857.773 963.029,833.783 961.015,809.774C960.929,808.751 961.117,807.964 961.461,807.413C961.398,805.541 961.353,803.665 961.326,801.786C961.303,800.18 961.985,797.673 963.965,797.544C976.01,796.756 987.943,795.727 1000,795.833L1000,884.293ZM628.473,826.942C628.007,826.117 627.749,825.069 627.892,823.936C628.892,816.013 629.46,807.952 629.012,799.968C628.931,798.529 629.607,796.657 631.211,796.433C638.969,795.354 646.794,794.668 654.636,795.012C660.942,795.29 667.558,797.526 673.849,796.505C677.207,795.96 680.335,794.964 683.771,794.851C686.94,794.749 690.133,795.011 693.294,795.174C700.383,795.537 707.484,795.667 714.57,796.069C716.579,796.182 717.591,798.609 717.549,800.372C716.915,826.955 716.972,853.537 717.358,880.122C717.377,881.419 716.694,884.491 714.761,884.297C687.501,881.564 660.148,887.283 632.913,885.152C630.714,884.979 630.077,882.618 629.895,880.793C628.123,862.982 627.617,844.897 628.473,826.942ZM295.29,813.049C295.264,809.286 295.177,805.524 295.083,801.762C295.043,800.134 295.717,798.075 297.544,797.806C300.928,797.309 303.76,798.302 307.075,798.74C310.979,799.256 313.795,797.805 317.403,796.706C320.229,795.845 322.591,795.761 325.515,796.277C329.746,797.022 333.138,796.784 337.38,796.408C345.037,795.731 352.983,796.654 360.655,797.09C364.314,797.297 367.962,797.742 371.621,797.921C373.836,798.028 377.292,796.763 379.352,797.484C384.578,799.313 382.039,809.252 381.936,812.958C381.733,820.295 382.618,827.717 382.531,835.087C382.441,842.624 382.45,850.161 382.41,857.699C382.369,865.511 382.956,873.361 382.735,881.153C382.694,882.563 382.092,885.629 380.033,885.497C366.073,884.608 351.997,884.418 338.011,884.293C331.535,884.236 324.785,884.985 318.347,884.27C316.842,884.103 314.555,883.403 313.187,883.355C311.749,883.305 310.162,883.806 308.69,883.845C305.287,883.937 302.161,884.36 298.793,884.785C296.565,885.067 295.996,881.346 296.227,879.954C298.12,868.52 296.063,856.205 295.686,844.66C295.464,837.865 295.312,831.071 295.266,824.275C295.198,823.901 295.168,823.485 295.183,823.025C295.211,822.153 295.233,821.281 295.251,820.407C295.249,817.955 295.261,815.502 295.29,813.049ZM0,795.833C1.389,795.844 2.779,795.872 4.172,795.916C17.787,796.348 31.402,796.756 45.009,797.382C46.407,797.447 47.345,798.894 47.535,800.17C51.534,826.963 47.411,854.261 48.619,881.232C48.686,882.753 47.66,885.9 45.493,885.045C39.369,882.628 31.972,884.923 25.51,884.9C19.116,884.878 12.732,884.878 6.343,884.577C4.23,884.477 2.116,884.38 0,884.293L0,795.833ZM208.41,805.957C203.77,806.463 199.38,805.322 194.584,804.741C187.747,803.911 180.868,804.455 174.029,804.937C167.156,805.421 160.379,805.547 153.504,805.01C146.991,804.502 140.6,803.908 134.196,805.212C134.422,810.89 134.625,816.567 135.008,822.239C135.107,823.709 134.725,824.747 134.126,825.357C134.317,842.828 133.542,860.356 133.173,877.806C138.354,877.334 143.933,879.164 149.093,879.148C156.165,879.126 163.201,878.731 170.266,878.468C183.65,877.97 197.274,878.102 210.629,876.821C209.828,853.203 209.359,829.573 208.41,805.957ZM879.312,877.935C880.04,871.009 879.312,863.433 879.411,856.575C879.526,848.647 879.629,840.719 879.737,832.791C879.839,825.194 879.82,817.598 879.942,810.001C879.965,808.519 880.531,806.227 879.376,805.486C878.36,804.836 876.106,805.147 874.845,805.058C870.883,804.779 866.92,804.531 862.955,804.315C847.399,803.465 831.9,802.972 816.319,803.205C812.676,803.26 809.038,803.217 805.397,803.23C805.768,803.229 801.348,803.1 801.547,802.905C801.059,803.38 801.528,806.6 801.696,808.199C801.805,808.528 801.865,808.901 801.858,809.31C801.849,809.89 801.842,810.468 801.837,811.045C802.131,818.215 802.532,825.378 803.082,832.534C803.166,833.633 803.021,834.523 802.726,835.206C802.981,838.933 803.268,842.669 803.556,846.433C804.349,856.808 804.757,867.261 803.704,877.617C816.144,878.336 828.604,878.357 841.071,878.344C848.038,878.336 855.01,878.173 861.976,878.229C865.306,878.255 868.602,878.215 871.928,878.037C873.364,877.96 877.269,878.434 879.312,877.935ZM377.975,804.197C375.453,804.147 372.7,804.94 370.099,804.626C366.668,804.212 363.267,803.53 359.837,803.09C351.927,802.076 344.504,802.664 336.581,803.329C332.731,803.653 329.209,803.617 325.381,803.16C321.564,802.704 318.689,803.812 315.177,805.102C312.432,806.11 309.857,806.638 306.927,806.29C304.683,806.024 302.635,805.511 300.492,805.426C300.86,811.243 300.829,817.045 300.598,822.892C300.596,822.935 300.594,822.977 300.591,823.019C300.689,831.176 300.839,839.332 301.121,847.484C301.348,854.047 301.672,860.606 302.012,867.164C302.19,870.581 302.329,873.962 301.995,877.308C304.466,877.457 306.896,877.534 309.438,877.58C312.568,877.638 315.082,877.282 318.164,876.827C324.557,875.885 331.368,876.475 337.818,876.413C351.002,876.287 364.136,876.652 377.308,876.901C377.606,871.516 378.096,866.152 378.139,860.737C378.189,854.379 378.214,848.02 378.243,841.66C378.272,835.25 378.308,828.822 377.945,822.42C377.768,819.306 377.39,816.191 377.424,813.069C377.447,810.945 378.62,806.585 377.975,804.197ZM544.641,804.921C541.979,804.496 538.582,804.838 536.335,804.726C533.043,804.562 529.76,804.352 526.474,804.106C519.581,803.59 512.675,803.36 505.771,803.066C499.16,802.784 492.523,802.468 485.913,802.953C479.861,803.397 473.915,804.569 467.864,804.768C468.02,807.472 467.958,810.171 467.732,812.895C467.996,823.428 468.176,833.964 468.446,844.498C468.608,850.825 468.717,857.153 468.84,863.48C468.897,866.4 469.034,869.333 468.867,872.251C468.784,873.696 468.346,875.385 468.147,877.016C480.973,877.132 493.786,877.105 506.615,877.053C513.488,877.026 520.362,876.962 527.234,876.862C530.833,876.809 534.433,876.746 538.033,876.674C539.868,876.637 542.53,877.044 544.655,876.791C544.677,876.009 544.723,875.175 544.708,874.84C544.635,873.213 544.579,871.579 544.576,869.949C544.569,866.363 544.707,862.762 544.801,859.174C544.974,852.638 545.344,846.108 545.511,839.572C545.686,832.741 545.628,825.922 545.018,819.115C544.725,815.845 544.328,812.576 544.405,809.287C544.426,808.344 544.47,807.376 544.568,806.437C544.592,806.206 544.604,805.567 544.641,804.921ZM684.087,875.722L684.181,875.718L684.108,875.681L684.087,875.722ZM44.058,832.38C44.02,832.562 43.968,832.749 43.905,832.939C43.952,833.161 43.995,833.383 44.034,833.606L44.044,833.119L44.058,832.38ZM42.642,805.058C42.815,805.359 42.974,805.668 43.119,805.983C43.086,805.679 43.052,805.375 43.017,805.071L42.642,805.058ZM982.532,803.552C982.005,803.587 981.477,803.623 980.949,803.663C981.32,803.734 981.679,803.823 982.025,803.927C982.186,803.796 982.355,803.67 982.532,803.552ZM10.357,803.459C10.484,803.504 10.61,803.553 10.735,803.607C10.779,803.564 10.823,803.522 10.869,803.48L10.357,803.459ZM462.7,654.483C462.455,653.956 462.307,653.285 462.307,652.47C462.309,646.859 462.311,641.249 462.313,635.639C462.313,634.055 462.921,631.841 464.8,631.64C475.544,630.485 485.759,631.661 496.466,631.921C501.428,632.042 505.931,630.678 510.796,630.124C515.701,629.566 520.486,631.208 525.404,631.154C529.633,631.107 533.822,630.445 538.032,630.125C540.883,629.908 545.334,629.372 547.984,630.815C550.571,632.225 550.847,635.003 551.194,637.667C551.79,642.234 552.295,646.816 552.835,651.391C553.817,659.692 553.429,667.217 552.504,675.482C551.488,684.563 551.943,693.71 551.765,702.824C551.661,708.148 552.998,718.342 546.199,720.002C542.417,720.926 537.973,720.566 534.079,720.722C529.551,720.901 525.021,721.022 520.489,721.082C511.11,721.206 501.699,721.453 492.334,720.835C487.795,720.535 483.285,720.486 478.761,720.274C474.198,720.059 469.716,718.389 465.186,718.357C464.007,718.349 463.168,717.025 463.028,715.976C461.449,704.113 462.612,691.619 462.68,679.664C462.728,671.274 462.667,662.877 462.7,654.483ZM796.19,641.445C796.232,639.414 796.286,637.371 796.321,635.303C796.351,633.572 796.918,631.747 798.775,631.357C813.069,628.359 828.808,628.565 843.351,628.902C850.472,629.068 857.604,629.444 864.705,630C868.247,630.277 871.776,630.724 875.334,630.74C877.333,630.749 879.734,630.307 881.4,631.755C885.143,635.01 883.707,643.296 883.739,647.583C883.798,655.2 883.876,662.815 883.98,670.432C884.185,685.332 884.464,700.233 884.54,715.134C884.547,716.611 883.901,719.286 881.948,719.301C867.506,719.41 853.068,719.46 838.627,719.535C831.696,719.571 824.922,719.735 818.01,720.044C814.434,720.204 810.839,720.124 807.264,719.996C805.008,719.915 801.558,720.313 799.508,719.087C795.357,716.604 797.07,709.34 797.182,705.479C797.38,698.605 797.619,691.705 797.41,684.831C797.124,675.432 796.858,666.032 796.571,656.635C796.119,652.228 796.084,647.877 796.152,643.476L796.122,642.583C796.108,642.165 796.133,641.786 796.19,641.445ZM0,628.284C1.494,628.204 2.983,628.209 4.463,628.355C11.023,629.004 17.467,630.183 24.069,630.612C31.213,631.076 38.365,631.427 45.514,631.798C47.412,631.895 48.145,634.101 48.212,635.695C48.857,650.895 49.35,666.123 49.393,681.337C49.413,688.617 49.334,695.896 49.326,703.177C49.322,707.028 51.161,715.783 47.187,718.288C45.015,719.656 40.237,719.041 37.827,719.189C34.596,719.389 31.367,719.588 28.136,719.786C21.169,720.216 14.687,720.046 7.741,719.56C5.167,719.38 2.586,719.247 0,719.149L0,628.284ZM628.626,658.833C628.23,655.201 627.976,651.565 628.026,647.895C628.083,643.695 627.418,638.217 628.868,634.207C629.851,631.49 631.834,630.951 634.502,630.633C639.301,630.062 644.186,629.998 649.013,629.924C659.83,629.759 670.665,629.672 681.482,629.816C686.801,629.886 692.122,629.88 697.438,629.999C702.682,630.117 708.199,630.919 713.389,630.269C715.312,630.028 716.01,632.867 716.113,634.204C718.201,661.105 717.514,688.103 716.692,715.03C716.633,716.978 715.848,719.379 713.484,718.942C706.591,717.667 699.452,718.916 692.514,719.173C686.02,719.414 679.522,719.527 673.027,719.721C659.35,720.13 645.744,719.671 632.088,719.279C630.235,719.225 629.377,716.931 629.381,715.369C629.42,696.525 628.817,677.679 628.626,658.833ZM1000,628.284L1000,719.149C988.434,718.711 976.777,718.969 965.236,718.808C963.29,718.781 962.316,716.285 962.354,714.644C962.775,696.54 962.192,678.275 961.053,660.135C960.64,659.552 960.372,658.789 960.374,657.904C960.381,655.509 960.386,653.099 960.411,650.684C960.283,648.923 960.15,647.166 960.013,645.411C959.94,644.47 960.176,643.67 960.579,643.066C960.719,639.302 960.965,635.548 961.4,631.84C961.517,630.841 962.432,628.718 963.788,628.93C970.737,630.018 978.343,629.738 985.381,629.705C990.236,629.682 995.145,628.541 1000,628.284ZM129.171,660.274C128.914,659.724 128.736,659.055 128.675,658.269C128.304,653.515 128.166,648.79 128.431,644.024C128.624,640.553 128.336,636.157 129.488,632.855C130.461,630.067 131.916,630.071 134.55,629.884C138.857,629.579 143.175,629.404 147.484,629.14C155.622,628.644 163.63,630.306 171.779,630.348C180.457,630.392 189.112,629.54 197.789,629.545C203.243,629.547 213.496,628.115 216.672,633.715C218.479,636.901 217.907,641.325 217.926,644.794C217.952,649.374 217.851,653.943 217.672,658.519C216.954,676.76 215.668,695.108 217.246,713.337C217.376,714.834 216.555,717.201 214.771,717.316C200.975,718.205 187.171,718.609 173.347,718.972C159.504,719.335 145.755,718.235 131.914,718.182C129.404,718.174 129.048,714.766 129.162,713.001C130.302,695.311 129.975,677.852 129.171,660.274ZM294.463,651.031C294.459,650.946 294.457,650.86 294.456,650.772C294.422,645.364 294.274,639.945 294.479,634.539C294.536,633.046 295.052,630.596 296.987,630.507C304.536,630.162 312.018,629.05 319.587,628.949C326.242,628.86 333.193,630.56 339.762,629.43C346.687,628.238 352.789,627.543 359.857,628.219C366.564,628.861 373.093,629.788 379.826,628.903C381.719,628.655 382.401,631.469 382.506,632.775C384.669,659.631 384.689,686.728 383.559,713.633C383.496,715.118 382.968,717.775 380.967,717.801C353.767,718.14 326.59,717.897 299.407,718.214C297.139,718.24 296.412,714.873 296.746,713.204C297.983,707.015 296.652,700.468 296.154,694.235C295.707,688.655 295.343,683.068 295.061,677.477C294.619,668.678 294.308,659.848 294.463,651.031ZM878.132,638.853C872.568,636.438 864.858,636.792 859.058,636.426C852.597,636.018 846.113,635.949 839.642,636.05C826.672,636.253 813.943,638.148 801.067,638.994C800.99,640.057 800.947,641.128 800.933,642.203C800.945,642.288 800.955,642.375 800.963,642.464C801.489,648.054 801.907,653.631 802.207,659.211L802.27,659.761C802.308,660.093 802.312,660.422 802.287,660.743C802.621,667.402 802.787,674.067 802.774,680.767C802.763,686.992 802.755,693.22 802.726,699.446C802.71,702.723 802.668,705.999 802.605,709.274C802.592,709.93 802.578,710.585 802.564,711.239C802.346,713.561 802.434,713.85 802.833,712.105C802.751,711.032 803.181,710.688 804.122,711.072C804.771,711.121 805.422,711.161 806.073,711.193C830.36,712.551 854.736,711.481 879.065,711.134C878.821,699.268 878.697,687.4 878.524,675.534C878.429,668.912 878.353,662.29 878.222,655.668C878.155,652.357 878.059,649.048 878.007,645.736C877.979,643.963 878.473,640.938 878.132,638.853ZM467.665,712.032C471.887,712.3 476.269,711.711 480.495,712.115C485.695,712.612 490.788,712.692 496.016,712.792C506.064,712.984 516.067,713.288 526.118,712.971C530.972,712.817 535.822,712.597 540.67,712.305C542.202,712.213 545.296,712.527 545.989,711.342C546.947,709.702 546.333,704.912 546.368,702.957C546.539,693.413 546.112,683.86 547.086,674.345C547.57,669.618 548.395,665 548.196,660.228C547.983,655.063 547.218,649.901 546.649,644.766C546.363,642.191 546.905,639.321 544.497,637.975C542.915,637.09 539.077,637.734 537.32,637.828C532.508,638.087 527.73,639.022 522.893,638.738C518.525,638.483 514.498,637.305 510.087,637.938C505.212,638.637 500.745,639.853 495.759,639.76C486.251,639.584 476.946,638.785 467.453,639.338L467.444,640.488C467.609,640.944 467.71,641.493 467.72,642.133C467.918,654.597 467.687,667.074 467.698,679.541C467.709,690.197 468.643,701.343 467.665,712.032ZM710.977,637.865C706.639,637.386 701.937,637.805 697.629,637.728C693.638,637.657 689.65,637.499 685.659,637.465C677.015,637.391 668.367,637.246 659.723,637.299C651.93,637.348 643.27,636.573 635.591,638.086C632.921,638.612 633.323,638.255 633.098,641.019C633.071,641.358 633.055,641.701 633.049,642.045C633.445,642.631 633.712,643.455 633.745,644.517C633.869,648.425 633.96,652.333 634.03,656.244C634.187,657.847 634.363,659.446 634.558,661.038C634.688,662.094 634.714,663.761 634.153,664.973C634.319,680.462 634.248,695.952 634.525,711.434C647.903,711.918 661.392,711.715 674.774,711.432C686.877,711.176 699.621,708.651 711.676,710.647C712.643,686.39 711.767,662.111 710.977,637.865ZM211.744,709.747C210.662,697.298 210.81,684.893 211.264,672.391C211.501,665.855 211.715,659.32 211.89,652.782C211.978,649.514 212.085,646.247 212.109,642.976C212.117,641.976 212.433,639.648 211.791,638.913C211.147,638.178 208.38,638.211 207.23,638.066C194.624,636.484 181.84,638.545 169.189,638.061C162.971,637.824 156.878,636.196 150.677,636.082C147.891,636.03 145.114,636.36 142.343,636.598C139.776,636.819 136.557,636.661 133.907,637.261C133.374,640.412 133.902,644.416 133.957,647.383C134.012,650.336 134.117,653.293 134.271,656.244C136.359,674.081 136.263,692.417 134.871,710.255C147.548,711.573 160.446,711.391 173.164,711.528C186.031,711.667 198.93,710.915 211.744,709.747ZM377.564,636.858C371.393,636.952 365.282,636.161 359.132,635.616C352.172,634.999 346.189,635.866 339.368,636.822C332.702,637.757 325.546,635.986 318.781,636.186C312.452,636.374 306.07,636.921 299.815,637.971C299.913,642.191 299.857,646.419 299.871,650.64C299.874,651.364 299.766,651.988 299.578,652.51C299.831,661.777 300.016,671.046 300.544,680.307C300.901,686.554 301.36,692.795 301.922,699.026C302.267,702.843 302.659,706.509 302.488,710.193C327.78,710.134 353.063,709.63 378.367,709.599C379.407,685.321 378.896,661.121 377.564,636.858ZM991.366,710.09C990.536,710.081 989.779,709.926 989.096,709.65C989.082,709.8 989.065,709.95 989.045,710.098C989.819,710.094 990.592,710.091 991.366,710.09ZM993.324,710.092C993.176,710.008 993.029,709.923 992.882,709.837C992.498,709.993 992.059,710.082 991.56,710.09L991.537,710.09C992.132,710.09 992.728,710.09 993.324,710.092ZM26.628,698.562L26.765,698.653L26.771,698.652L26.803,698.647L26.78,698.627L26.712,698.566L26.682,698.565L26.628,698.562ZM23.699,697.873L23.689,697.882L23.747,697.865L23.811,697.849L23.753,697.821L23.699,697.873ZM44.163,692.378C44.143,692.396 44.123,692.414 44.103,692.433L44.048,692.482C44.104,692.701 44.157,692.92 44.205,693.138L44.199,692.344L44.163,692.378ZM31.393,682.295C31.401,682.394 31.407,682.492 31.412,682.59C31.588,682.852 31.746,683.124 31.885,683.398C32.146,683.912 32.393,684.428 32.627,684.949C32.703,684.726 32.781,684.518 32.863,684.324C32.632,683.896 32.405,683.455 32.185,683.001C31.91,682.788 31.646,682.55 31.393,682.295ZM991.483,658.727C991.531,658.821 991.578,658.916 991.625,659.012C991.672,658.918 991.721,658.827 991.772,658.738C991.677,658.74 991.58,658.737 991.483,658.727ZM37.703,647.188C37.678,647.113 37.655,647.038 37.632,646.962L37.701,647.189L37.703,647.188ZM971.677,639.776L971.696,639.764C971.682,639.745 971.668,639.725 971.653,639.706L971.677,639.776ZM463.261,473.633C463.26,471.677 463.271,469.721 463.29,467.763C463.304,466.368 463.879,463.84 465.739,463.826C481.621,463.708 497.499,463.641 513.372,463.02C520.006,462.761 526.873,460.755 533.391,462.461C535.15,462.921 536.968,463.77 538.803,463.9C540.557,464.023 541.936,463.276 543.589,463C545.514,462.679 546.893,462.759 548.301,464.257C551.775,467.949 550.528,476.523 550.793,481.122C551.219,488.488 551.708,495.853 552.031,503.224C552.687,518.183 551.766,533.195 551.359,548.151C551.307,550.067 550.501,552.589 548.125,552.095C544.453,551.33 539.913,552.777 536.141,552.888C532.765,552.988 529.384,553.057 526.006,553.103C518.848,553.199 511.656,553.417 504.498,553.229C497.318,553.04 490.195,552.087 483.027,551.82C479.677,551.695 476.312,551.799 472.965,551.97C470.722,552.084 467.62,552.964 465.529,551.988C463.865,551.211 463.433,549.722 463.216,548.013C462.79,544.662 462.846,540.983 462.752,537.59C462.559,530.596 463.461,523.596 463.281,516.598C462.924,502.681 462.216,488.696 463.08,474.766C463.105,474.351 463.168,473.973 463.261,473.633ZM796.223,489.275C796.13,488.845 796.082,488.356 796.092,487.809C796.209,481.162 796.578,474.54 796.937,467.9C797.039,466.025 797.532,464.127 799.563,463.679C806.604,462.124 813.385,462.504 820.285,464.494C824.153,465.609 826.778,465.031 830.539,464.434C834.018,463.882 837.517,464.078 841.011,464.328C848.424,464.857 855.513,463.512 862.888,463.651C866.55,463.72 870.2,464.232 873.859,464.289C876.012,464.322 879.472,463.394 881.444,464.665C882.872,465.586 883.112,467.131 883.334,468.71C883.864,472.474 883.695,476.42 883.76,480.215C883.893,487.886 884.24,495.559 884.542,503.225C885.13,518.115 885.385,532.998 884.093,547.858C883.994,549.008 883.081,550.74 881.736,550.731C874.919,550.69 867.832,550.387 861.03,550.766C854.759,551.116 848.644,551.994 842.308,552.054C828.344,552.184 814.409,551.996 800.46,551.345C798.644,551.261 797.713,549.026 797.759,547.443C798.317,528.041 795.699,508.658 796.223,489.275ZM1000,463.331L1000,470.736C994.788,471.203 989.477,471.209 984.267,471.294C981.093,471.346 977.917,471.331 974.747,471.168C972.84,471.07 969.235,470.091 966.876,470.513C966.247,476.245 966.819,482.554 966.672,488.22C966.663,488.544 966.631,488.847 966.579,489.128C967.343,507.085 967.79,525.04 967.954,543.013C978.631,543.501 989.32,543.53 1000,543.174L1000,551.864C988.422,552.22 976.834,552.034 965.257,551.507C963.226,551.415 962.336,548.983 962.315,547.257C962.083,528.119 961.894,508.982 961.788,489.84C961.672,489.412 961.612,488.913 961.627,488.344C961.672,486.607 961.713,484.87 961.755,483.133L961.747,481.232C961.745,480.887 961.773,480.569 961.825,480.279C961.873,478.378 961.923,476.476 961.983,474.575C962.067,471.914 961.497,467.444 963.154,465.064C964.901,462.552 968.272,463.727 970.78,463.929C974.891,464.26 979.018,464.305 983.14,464.216C988.71,464.096 994.4,463.923 1000,463.331ZM128.452,480.302C128.402,476.867 128.426,473.43 128.661,470.019C128.857,467.178 129.062,464.029 132.235,463.095C134.384,462.462 137.108,463.465 139.248,463.661C142.38,463.946 144.76,463.476 147.785,462.659C152.384,461.416 156.292,463.491 161.008,463.597C170.592,463.813 180.255,462.824 189.868,462.894C194.863,462.93 199.849,462.969 204.838,463.231C207.727,463.383 212.561,462.635 214.836,464.72C217.062,466.76 216.772,471.45 216.995,474.096C217.41,479.021 217.519,483.984 217.576,488.923C217.696,499.309 217.434,509.7 217.287,520.084C217.216,525.164 217.144,530.245 217.072,535.326C217.019,539.058 217.885,543.871 216.689,547.459C215.335,551.519 211.619,550.792 208.088,550.548C203.226,550.213 198.377,549.874 193.5,549.892C173.186,549.97 152.541,553.338 132.26,551.284C130.379,551.093 129.576,549.037 129.544,547.36C129.118,525.275 127.854,502.974 128.411,480.897C128.416,480.69 128.43,480.492 128.452,480.302ZM0,463.331C2.327,463.086 4.637,462.769 6.917,462.353C15.155,460.85 22.967,462.982 31.25,463.202C37.012,463.356 45.76,460.495 47.527,467.941C48.439,471.79 48.225,476.27 48.47,480.195C48.758,484.8 48.979,489.411 49.182,494.021C49.963,511.82 50.06,529.601 49.405,547.406C49.362,548.58 49.028,551.009 47.544,551.37C44.929,552.004 43.195,551.649 40.633,550.93C36.996,549.911 33.698,549.597 29.929,549.83C22.896,550.263 15.893,551.091 8.853,551.483C5.903,551.647 2.952,551.773 0,551.864L0,543.174C2.558,543.089 5.115,542.982 7.672,542.854C14.726,542.5 21.743,541.759 28.787,541.319C31.83,541.128 34.839,541.158 37.839,541.753C39.984,542.178 42.036,543.195 44.163,543.478C44.411,531.321 44.421,519.16 44.227,507.001C44.122,500.409 43.952,493.821 43.656,487.234C43.508,483.942 43.345,480.65 43.161,477.359C43.086,476.042 43.442,473.644 42.849,472.425C41.778,470.23 41.497,470.846 39.242,470.922C32.355,471.156 25.809,470.075 19.017,469.195C13.095,468.428 8.112,469.808 2.312,470.497C1.544,470.588 0.773,470.667 0,470.736L0,463.331ZM629.062,477.302C629.118,474.083 629.063,470.848 628.927,467.576C628.88,466.438 629.603,463.267 631.418,463.572C638.283,464.725 645.756,463.928 652.71,463.892C659.803,463.856 666.893,463.674 673.985,463.516C680.806,463.365 687.861,464.451 694.627,463.706C701.63,462.935 708.293,462.969 715.332,463.431C716.765,463.526 717.772,464.974 717.949,466.321C719.661,479.373 718.531,492.857 718.265,505.982C717.987,519.722 717.572,533.461 717.666,547.203C717.675,548.569 717.057,551.18 715.208,551.154C701.721,550.965 688.182,551.52 674.69,551.655C660.809,551.794 646.92,551.489 633.038,551.57C631.239,551.58 630.27,549.177 630.338,547.67C631.068,531.38 628.621,515.095 628.127,498.845C627.493,497.98 627.132,496.719 627.384,495.316C627.643,493.871 627.868,492.43 628.062,490.991C628.138,486.424 628.433,481.862 629.062,477.302ZM295.484,475.037C295.387,472.874 295.226,470.712 295.002,468.549C294.851,467.096 295.674,464.949 297.338,464.793C304.393,464.132 311.554,463.266 318.662,463.173C325.795,463.078 332.91,463.767 340.042,463.757C347.088,463.747 354.059,462.118 361.09,462.365C363.954,462.465 366.807,462.884 369.597,463.532C372.985,464.32 376.358,466.195 379.696,464.373C381.829,463.209 382.918,466.694 383.003,468.026C383.932,482.545 383.748,497.096 383.099,511.623C382.765,519.103 383.09,526.644 383.007,534.144C382.968,537.703 383.021,541.286 382.856,544.842C382.775,546.602 382.854,548.587 381.54,549.956C379.735,551.839 376.742,551.008 374.487,550.853C371.251,550.629 368.03,550.187 364.796,549.98C357.392,549.507 349.882,549.845 342.481,550.194C335.372,550.528 328.173,551.312 321.092,550.658C313.579,549.963 306.228,551.222 298.749,551.358C296.452,551.399 296.079,548.161 296.21,546.578C297.199,534.521 295.493,522.507 295.028,510.464C294.572,498.639 294.761,486.843 295.484,475.037ZM546.25,543.935C546.703,531.626 547.335,519.267 546.959,506.969C546.764,500.573 546.331,494.183 545.962,487.794C545.763,484.355 545.565,480.915 545.366,477.476C545.275,475.904 545.184,474.331 545.093,472.758L544.929,469.928C544.576,470.176 544.222,470.424 543.869,470.671C541.768,470.385 539.529,471.486 537.154,471.01C534.111,470.401 531.34,469.04 528.188,468.981C521.782,468.859 515.141,470.189 508.676,470.316C495.233,470.581 481.813,470.988 468.377,471.485C468.363,475.775 468.301,480.058 468.157,484.351C468.142,484.782 468.086,485.173 467.997,485.523C468.011,494.559 467.65,503.683 466.919,512.564C466.364,519.311 466.497,525.956 466.929,532.72C467.132,535.9 467.112,539.065 467.199,542.248C467.273,544.985 466.905,544.502 469.132,544.86C470.44,545.07 472.332,544.631 473.699,544.56C486.847,543.868 500.017,545.092 513.175,545.109C519.536,545.118 525.895,544.859 532.255,544.785C536.773,544.732 541.675,543.686 546.25,543.935ZM317.072,544.235C316.973,544.133 316.877,544.027 316.785,543.917C316.574,544.064 316.361,544.189 316.148,544.294C316.456,544.277 316.764,544.257 317.072,544.235ZM878.711,470.994C878.109,470.941 877.512,470.854 876.921,470.732C863.691,469.066 850.86,472.119 837.666,471.065C832.274,470.635 827.03,472.742 821.768,471.814C814.93,470.608 808.995,469.803 802.326,471.343C802.222,476.789 802.093,482.226 801.794,487.67C801.742,488.611 801.522,489.394 801.196,490.013C800.93,507.83 803.127,525.618 803.025,543.454C816.044,543.633 829.079,543.656 842.094,543.327C848.598,543.162 855.09,542.366 861.545,542.21C867.505,542.065 873.424,542.649 879.358,542.963C880.032,530.715 880.301,518.522 879.945,506.241C879.75,499.52 879.519,492.802 879.288,486.082C879.166,482.565 878.926,479.054 878.799,475.538C878.745,474.025 878.719,472.509 878.711,470.994ZM211.892,542.428C212.702,535.861 211.946,528.599 212.029,522.117C212.124,514.726 212.241,507.336 212.306,499.945C212.372,492.358 212.346,484.764 211.905,477.187C211.87,476.581 211.941,471.652 211.542,471.266C211.195,470.929 207.221,471.032 206.862,471.007C203.668,470.79 200.481,470.512 197.289,470.264C190.197,469.713 183.14,469.674 176.034,469.987C169.096,470.293 161.971,471.564 155.081,470.233C153.376,469.904 151.866,469.207 150.124,469.52C148.728,469.771 147.434,470.495 146.042,470.817C142.922,471.539 139.85,471.226 136.705,470.863C135.589,470.734 134.158,470.231 133.731,470.842C133.309,471.445 133.737,475.763 133.736,476.532C133.73,479.56 133.748,482.586 133.798,485.613C135.167,504.722 134.933,524.179 134.805,543.328C147.542,543.43 160.076,543.612 172.842,542.791C179.66,542.352 186.471,541.98 193.302,541.836C196.866,541.762 200.429,541.688 203.994,541.781C206.043,541.835 209.508,542.795 211.892,542.428ZM336.457,516.746C336.41,516.811 336.362,516.874 336.313,516.935C336.399,517.024 336.486,517.12 336.572,517.225C336.529,517.067 336.491,516.908 336.457,516.746ZM633.452,504.629C633.556,506.106 633.669,507.582 633.787,509.058C633.829,508.178 633.914,507.295 634.04,506.408C633.818,505.816 633.622,505.224 633.452,504.629ZM669.749,504.031L669.636,504.032L669.662,504.153C669.674,504.211 669.685,504.269 669.697,504.328L669.724,504.47C669.761,504.361 669.801,504.253 669.843,504.149L669.832,504.056L669.829,504.028L669.749,504.031ZM653.925,500.962C653.944,501.146 653.96,501.33 653.973,501.516C654.107,501.389 654.25,501.282 654.401,501.195C654.302,501.157 654.202,501.111 654.1,501.057C654.041,501.026 653.982,500.994 653.925,500.962ZM379.032,497.997C378.826,498.174 378.609,498.327 378.384,498.457C378.638,499.002 378.859,499.553 379.051,500.11C379.045,499.406 379.039,498.702 379.032,497.997ZM704.093,495.481L704.06,495.493C704.081,495.573 704.103,495.652 704.123,495.733C704.127,495.643 704.133,495.553 704.139,495.463L704.093,495.481ZM130.278,297.744C130.503,297.61 130.752,297.517 131.027,297.473C145.31,295.194 160.527,292.827 175.022,293.062C182.214,293.179 189.297,295.037 196.483,295.467C200.032,295.679 203.59,295.716 207.143,295.585C209.297,295.506 211.811,294.951 213.576,296.573C215.37,298.223 215.283,301.145 215.391,303.368C215.568,306.998 215.676,310.633 215.815,314.265C216.105,321.861 216.396,329.456 216.687,337.052C216.959,344.161 217.394,351.297 217.178,358.412C216.96,365.58 215.498,372.812 217.001,379.917C217.371,381.665 216.895,385.173 214.48,385.283C200.533,385.915 186.577,386.389 172.614,386.496C158.725,386.602 144.457,387.143 130.712,384.852C128.891,384.549 128.349,382.477 128.589,380.856C129.615,373.935 128.48,366.183 128.617,359.169C128.738,352.944 128.912,346.721 129.024,340.496C129.26,327.32 128.762,314.293 128.223,301.141C128.149,299.338 129.17,298.051 130.278,297.744ZM629.128,317.605L629.123,317.48C629.014,312.42 628.798,307.351 628.263,302.317C628.093,300.713 629.007,298.359 630.834,298.183C644.412,296.873 658.134,298.041 671.744,297.969C685.761,297.894 699.797,297.509 713.824,297.425C715.731,297.413 716.28,299.748 716.439,301.203C719.364,327.985 720.017,354.709 718.365,381.606C718.266,383.204 717.764,385.948 715.627,386.009C687.534,386.815 659.669,386.47 631.668,384.008C629.587,383.825 629.014,381.179 629.267,379.488C631.122,367.092 629.045,354.353 628.808,341.897C628.655,333.795 628.755,325.695 629.128,317.605ZM796.679,301.021C796.984,299.615 797.78,298.487 799.098,298.474C812.725,298.341 826.314,297.209 839.95,297.475C853.411,297.739 867.054,299.107 880.386,296.626C881.805,296.362 882.614,298.424 882.889,299.389C884.5,305.02 883.838,311.598 884.008,317.411C884.216,324.491 884.423,331.57 884.63,338.65C885.057,353.252 885.417,367.861 885.752,382.465C885.785,383.833 885.133,386.403 883.311,386.39C855.303,386.193 827.333,386.695 799.406,384.337C797.643,384.188 796.686,382.112 796.755,380.509C797.852,355.139 797.364,329.926 795.229,304.612C795.063,302.653 795.748,301.462 796.679,301.021ZM461.992,331.448C460.531,320.909 463.59,310.264 462.41,299.616C462.26,298.265 463.086,295.86 464.764,295.831C471.621,295.713 478.491,294.452 485.376,294.213C492.212,293.974 498.992,294.37 505.807,294.887C519.132,295.898 532.651,296.54 546.016,296.137C547.85,296.081 548.616,298.509 548.655,299.948C549.041,314.222 549.439,328.495 549.854,342.768C550.074,350.33 550.294,357.893 550.515,365.455C550.683,371.229 551.313,377.14 549.41,382.696C549.167,383.406 548.411,384.6 547.48,384.468C534.015,382.548 520.065,383.989 506.522,384.346C499.681,384.527 492.979,384.565 486.15,384.476C478.988,384.383 471.959,385.314 464.824,385.29C463.206,385.285 462.302,383.133 462.378,381.758C462.99,370.785 463.005,359.745 462.83,348.759C462.74,343.074 462.165,337.243 461.992,331.448ZM1000,297.399L1000,304.615C988.804,305.717 966.722,307.78 966.278,304.078C966.376,304.887 966.408,306.096 966.102,307.11C966.693,318.897 966.569,330.732 967.102,342.525C967.609,353.779 968.648,364.988 969.424,376.221C979.618,375.709 989.799,374.896 1000,374.61L1000,383.836C988.993,383.902 977.981,383.929 967.01,384.885C965.525,385.014 964.369,383.047 964.229,381.816C962.754,368.82 962.249,355.721 961.752,342.656C961.29,330.485 960.763,318.186 961.437,306.007C960.826,300.126 964.153,297.496 969.863,297.843C978.299,298.357 986.632,297.437 995.068,297.428C996.712,297.426 998.355,297.416 1000,297.399ZM0,297.399C15.599,297.243 31.184,296.528 46.78,297.181C48.803,297.266 49.538,299.633 49.632,301.302C51.11,327.454 50.444,353.849 49.149,379.992C49.076,381.472 48.51,384.585 46.358,384.479C33.148,383.827 19.908,383.635 6.683,383.783C4.455,383.807 2.227,383.822 0,383.836L0,374.61C2.151,374.549 4.302,374.512 6.455,374.506C18.843,374.472 31.211,374.873 43.578,375.512C44.651,352.022 44.488,328.598 44.181,305.095C31.731,303.217 18.313,303.413 5.867,304.073C4.945,304.121 2.817,304.338 0,304.615L0,297.399ZM296.83,298.063C297.233,296.962 298.077,296.219 299.454,296.505C306.726,298.016 313.696,297.315 320.961,296.58C326.671,296.003 332.363,295.088 338.075,295.822C344.829,296.69 351.557,295.798 358.348,295.727C365.374,295.653 372.305,296.899 379.327,296.811C381.079,296.79 381.629,298.973 381.753,300.316C383.139,315.374 383.918,330.422 383.978,345.546C384.007,352.764 383.976,359.989 383.838,367.206C383.769,370.807 383.698,374.441 383.378,378.03C383.238,379.593 383.256,381.899 381.903,383.05C380.178,384.518 376.23,383.687 374.267,383.696C371.089,383.71 367.911,383.749 364.734,383.775C357.351,383.837 349.982,383.928 342.603,384.187C327.897,384.701 313.026,384.321 298.324,383.734C296.703,383.67 295.865,381.652 295.909,380.246C296.745,353.853 295.152,327.317 295.49,300.899C295.51,299.385 296.098,298.437 296.83,298.063ZM878.694,304.588C865.959,306.251 852.926,304.232 840.122,304.456C826.998,304.686 813.836,305.247 800.754,306.347C803.121,329.751 803.543,353.445 802.097,376.931C815.052,378.525 828.093,378.892 841.139,378.69C854.28,378.487 867.421,378.698 880.564,378.671C880.194,366.038 879.819,353.403 879.494,340.769C879.318,333.938 879.141,327.106 878.965,320.274C878.839,315.386 879.407,309.65 878.694,304.588ZM210.086,303.746C207.263,303.206 202.966,304.03 200.561,303.961C197.331,303.868 194.101,303.631 190.891,303.25C184.658,302.512 178.556,300.968 172.245,301.121C159.296,301.436 146.318,303.137 133.434,304.49C134.827,316.34 134.565,328.494 134.302,340.366C134.149,347.246 133.951,354.125 133.733,361.003C133.554,366.642 132.531,372.577 132.573,378.292C145.783,377.294 159.179,378.251 172.41,378.175C185.287,378.101 198.161,377.77 211.02,377.088C210.683,372.664 211.008,368.258 211.335,363.755C211.81,357.2 211.623,350.684 211.373,344.124C211.109,337.189 210.858,330.253 210.601,323.318C210.373,317.136 211.027,310.019 210.086,303.746ZM543.696,303.849C531.387,303.574 519.174,301.806 506.869,301.284C500.392,301.009 493.908,301.051 487.43,301.217C481.094,301.379 474.144,301.362 467.816,302.626C468.762,312.891 465.597,323.338 468.3,333.45C468.78,335.244 468.264,336.858 467.373,337.809C467.68,342.062 467.962,346.316 468.052,350.574C468.244,359.731 467.862,368.841 467.32,377.966C473.538,377.727 479.735,378.069 485.982,377.671C492.815,377.236 499.479,376.992 506.341,376.936C519.461,376.828 532.6,376.62 545.69,377.407C546.514,371.611 545.711,365.422 545.526,359.655C545.315,353.08 545.104,346.504 544.893,339.928C544.508,327.902 544.106,315.877 543.696,303.849ZM711.765,305.091C686.099,304.902 660.241,303.639 634.653,305.967C634.653,306.026 634.651,306.086 634.648,306.147C633.997,319.009 633.725,331.865 634.043,344.741C634.308,355.493 635.242,366.231 634.356,376.95C660.54,378.446 686.744,377.825 712.96,377.384C714.458,353.353 714.02,329.066 711.765,305.091ZM378.902,369.609C378.862,369.647 378.82,369.683 378.778,369.719C378.82,369.816 378.86,369.913 378.898,370.01C378.899,369.874 378.9,369.74 378.902,369.609ZM316.836,364.045C316.779,364.099 316.721,364.152 316.664,364.202L316.721,364.184C316.763,364.172 316.806,364.159 316.848,364.147L316.921,364.128L316.926,364.077L316.928,364.063L316.836,364.045ZM345.056,328.488C345.112,328.555 345.167,328.621 345.221,328.687C345.412,328.788 345.597,328.91 345.772,329.052C346.006,329.243 346.237,329.438 346.462,329.635C346.711,329.617 346.963,329.618 347.215,329.639C346.732,329.266 346.27,328.876 345.829,328.471C345.588,328.508 345.335,328.508 345.071,328.464L345.056,328.488ZM630.02,158.711C629.32,157.788 628.889,156.453 629.1,154.984C630.079,148.141 630.708,141.41 630.484,134.489C630.444,133.262 631.035,131.056 632.629,131.039C636.804,130.997 640.667,130.241 644.867,130.685C648.788,131.1 652.255,130.975 656.168,130.551C663.417,129.766 670.592,128.823 677.898,128.976C685.314,129.132 692.455,130.649 699.776,131.179C704.131,131.494 711.394,126.932 715.076,130.758C716.45,132.186 716.63,134.164 716.857,136.033C717.324,139.892 717.384,143.839 717.626,147.719C718.108,155.515 718.527,163.316 718.819,171.122C719.39,186.416 719.26,201.773 717.593,217C717.45,218.311 716.5,220.142 714.984,220.182C687.444,220.892 659.568,223.244 632.306,218.279C631.093,218.058 630.596,215.978 630.584,215.034C630.316,196.244 629.637,177.487 630.02,158.711ZM294.629,153.647C294.346,153.045 294.169,152.288 294.15,151.373C294.021,145.059 293.896,138.653 294.256,132.347C294.334,130.976 294.798,128.428 296.691,128.431C312.479,128.453 328.201,127.542 344.025,128.073C351.595,128.327 359.171,128.315 366.74,128.56C370.501,128.682 374.374,128.754 378.12,129.087C380.287,129.28 381.579,129.401 382.622,131.463C383.877,133.947 383.498,137.562 383.64,140.243C383.841,144.038 384.043,147.835 384.244,151.631C384.659,159.474 385.068,167.317 385.368,175.165C385.667,183.011 385.862,190.862 385.849,198.713C385.838,205.103 386.158,211.691 384.147,217.834C383.875,218.666 382.972,220.054 381.894,219.902C367.876,217.921 354.189,218.348 340.145,219.675C332.96,220.353 326.186,220.236 319.033,219.286C312.154,218.372 305.203,218.927 298.402,217.918C296.52,217.639 295.567,215.665 295.602,213.872C295.993,193.802 294.761,173.721 294.629,153.647ZM462.497,137.324C462.43,136.959 462.337,136.581 462.213,136.19C461.635,134.364 461.805,130.104 464.759,130.824C468.259,131.678 472.026,129.761 475.542,129.429C479.015,129.102 482.52,129.453 485.98,129.761C492.921,130.377 499.8,130.348 506.763,130.384C513.409,130.418 520.082,130.615 526.726,130.39C533.455,130.163 540.074,128.882 546.803,129.812C548.63,130.065 549.272,131.885 549.374,133.526C551.058,160.867 551.258,188.129 551.11,215.507C551.104,216.727 550.526,219.447 548.742,219.315C520.856,217.241 493.032,221.681 465.173,218.804C463.395,218.62 462.382,216.562 462.474,214.905C463.674,193.153 462.142,171.258 461.804,149.457C461.436,148.338 461.142,147.217 461.281,146.04C461.381,145.199 461.555,144.417 461.746,143.661C461.74,142.375 461.739,141.091 461.745,139.807C461.75,138.676 462.052,137.849 462.497,137.324ZM129.535,136.346L129.802,134.812C130.06,133.331 131,131.762 132.695,132.183C136.775,133.197 140.532,131.737 144.547,131.049C147.723,130.505 150.941,130.22 154.158,130.07C161.259,129.738 168.319,130.644 175.42,130.54C181.923,130.445 187.963,128.261 194.394,127.905C200.795,127.55 207.185,128.931 213.424,130.184C214.961,130.492 215.567,133.056 215.595,134.272C216.23,161.627 220.681,189.031 216.927,216.338C216.763,217.525 215.838,219.642 214.312,219.525C200.895,218.503 187.213,219.736 173.73,219.335C170.107,219.227 166.488,219.068 162.867,218.89C159.534,218.725 156.312,217.851 153.005,217.66C149.382,217.45 145.873,218.661 142.218,218.798C138.939,218.922 135.664,218.878 132.385,218.703C130.467,218.601 129.611,216.324 129.599,214.678C129.499,201.906 128.28,189.177 128.371,176.393C128.462,163.623 128.479,150.84 129.151,138.085C129.187,137.407 129.326,136.827 129.535,136.346ZM1000,129.578L1000,136.786C995.385,137.114 990.801,137.604 986.172,138.087C979.841,138.746 973.784,138.368 967.509,138.099C967.03,140.25 966.591,142.412 966.203,144.581C967.441,154.99 967.144,165.726 967.319,176.126C967.515,187.796 967.339,199.458 967.23,211.125C978.162,211.124 989.08,210.915 1000,210.46L1000,218.939C988.252,219.087 976.503,219.061 964.756,218.845C962.976,218.812 962.095,216.548 962.126,215.045C962.384,202.117 962.18,189.185 962.062,176.255C961.98,167.307 961.37,158.217 961.52,149.209C961.144,148.486 960.93,147.596 961.011,146.654C961.412,142.038 962.099,137.647 963.208,133.147C963.561,131.714 964.444,129.742 966.295,130.342C973.042,132.534 980.916,131.088 987.852,130.539C991.9,130.219 995.949,129.876 1000,129.578ZM0,129.578C2.303,129.409 4.606,129.255 6.91,129.128C20.385,128.385 33.768,128.294 47.225,129.633C49.171,129.827 50.15,132.029 50.111,133.802C49.82,147.211 49.718,160.624 49.679,174.037C49.641,187.418 50.208,200.919 49.483,214.282C49.37,216.36 48.216,219.318 45.705,217.751C43.321,216.264 38.958,217.109 36.294,217.346C32.707,217.665 29.13,217.97 25.533,218.152C19.005,218.481 12.476,218.735 5.94,218.85C3.96,218.884 1.979,218.914 0,218.939L0,210.46C2.888,210.34 5.777,210.203 8.666,210.048C16.172,209.644 23.677,209.16 31.185,208.811C35.839,208.594 39.895,208.247 44.066,209.329C43.553,197.644 43.964,185.844 44.05,174.175C44.14,162.068 44.324,149.962 44.494,137.856C31.756,136.79 18.897,136.048 6.129,136.462C4.076,136.528 2.034,136.641 0,136.786L0,129.578ZM797.178,131.489C797.428,130.379 798.091,129.563 799.376,129.62C807.174,129.964 815.047,128.822 822.878,129.198C826.329,129.363 829.683,130.102 833.099,130.509C836.304,130.891 838.833,130.037 841.961,129.348C848.677,127.867 855.721,128.615 862.536,128.603C868.777,128.59 874.919,128.441 880.97,130.186C882.455,130.614 882.969,132.801 883.036,134.077C883.806,148.88 884.185,163.724 884.779,178.538C885.081,186.09 885.447,193.647 885.508,201.206C885.542,205.315 887.377,213.873 884.004,217.131C882.526,218.559 880.902,218.23 878.977,218.135C875.04,217.941 871.119,217.863 867.176,217.841C859.954,217.8 852.749,217.645 845.527,217.667C830.455,217.715 815.306,218.673 800.248,218.319C798.443,218.276 797.466,215.957 797.538,214.403C798.138,201.147 796.959,187.563 796.626,174.29C796.29,160.931 795.754,147.53 796.101,134.167C796.136,132.83 796.585,131.937 797.178,131.489ZM712.492,211.78C713.804,198.625 714.15,185.448 713.865,172.22C713.717,165.386 713.391,158.561 713,151.737C712.813,148.488 712.611,145.241 712.406,141.993C712.324,140.7 712.721,138.141 712.099,137.125C712.327,136.074 712.106,135.87 711.436,136.514C710.907,136.547 710.376,136.58 709.847,136.613C706.882,137.236 703.862,138.298 700.801,138.124C698.249,137.979 695.793,137.183 693.331,136.574C686.371,134.849 679.496,135.328 672.413,135.656C665.79,135.962 659.15,135.528 652.528,135.763C649.314,135.877 646.29,136.7 643.144,137.246C640.492,137.706 637.85,137.602 635.196,137.683C635.591,143.926 635.465,150.195 634.559,156.391C634.818,174.889 634.484,193.409 634.969,211.902C660.387,215.479 686.918,212.783 712.492,211.78ZM544.631,137.027C538.484,136.345 532.208,137.045 526.038,137.11C519.032,137.183 512.014,137.367 505.007,137.295C497.519,137.218 490.114,136.206 482.643,135.903C478.73,135.744 475.08,136.184 471.306,137.203C469.914,137.579 468.686,137.878 467.445,138.005C467.673,140.541 467.411,143.033 466.574,145.474C466.666,147.03 466.746,148.586 466.816,150.144C467.005,150.876 467.168,151.617 467.305,152.365C467.516,153.509 467.363,154.455 467.009,155.154C467.61,173.86 466.962,192.593 467.553,211.291C493.604,215.139 520.149,208.956 546.318,211.573C547.02,186.757 546.172,161.796 544.631,137.027ZM380.052,211.558C381.311,205.652 380.55,198.798 380.488,192.956C380.419,186.413 380.222,179.872 379.958,173.335C379.68,166.468 379.326,159.604 378.963,152.742C378.795,149.562 378.626,146.382 378.457,143.202C378.375,141.662 378.464,140.012 378.207,138.488C377.65,135.186 378.541,137.409 376.417,136.924C373.21,136.192 369.288,136.729 365.988,136.533C362.823,136.345 359.663,136.058 356.499,135.847C350.198,135.428 343.898,135.094 337.589,134.829C325.094,134.304 312.046,134.043 299.572,135.74C299.882,140.891 299.931,146.09 299.975,151.23C299.98,151.831 299.915,152.368 299.794,152.841C300.375,171.837 299.942,190.876 300.806,209.859C306.834,210.393 312.744,211.881 318.857,212.119C325.91,212.394 332.918,212.219 339.945,211.552C353.437,210.271 366.608,209.833 380.052,211.558ZM212.369,204.509C212.235,204.64 212.095,204.764 211.951,204.881C212.074,205.168 212.187,205.46 212.29,205.757C212.318,205.342 212.344,204.927 212.369,204.509ZM869.48,183.854C869.375,183.944 869.268,184.031 869.158,184.117C869.272,184.206 869.383,184.305 869.494,184.414L869.487,184.213C869.485,184.131 869.483,184.049 869.481,183.967L869.48,183.854ZM807.873,161.53C807.885,161.802 807.882,162.075 807.864,162.347C807.928,162.259 807.994,162.173 808.063,162.089C807.994,161.905 807.931,161.719 807.873,161.53ZM133.705,156.813L133.703,157.01C133.727,156.98 133.751,156.951 133.775,156.922C133.752,156.886 133.728,156.849 133.705,156.813ZM878.201,149.707C878.176,149.739 878.151,149.772 878.125,149.804C878.161,149.974 878.195,150.144 878.225,150.314L878.201,149.707ZM177.152,137.756C176.238,137.796 175.318,137.816 174.387,137.81C174.778,137.962 175.166,138.153 175.55,138.377C176.068,138.116 176.604,137.908 177.152,137.756ZM218.605,0C218.634,1.794 218.635,3.591 218.603,5.392C218.35,19.491 216.992,33.652 218.956,47.689C219.18,49.283 218.944,52.802 216.549,52.814C201.663,52.886 186.778,52.976 171.892,53.057C165.95,53.09 158.285,54.15 152.618,52.061C148.778,50.645 146.066,47.979 141.61,49.07C138.148,49.918 135.134,51.059 131.518,51.574C129.3,51.891 128.902,48.206 129.033,46.896C130.351,33.687 127.882,20.489 129.28,7.203C129.534,4.788 129.765,2.392 129.937,0L135.596,0C135.482,2.241 135.315,4.47 135.102,6.68C133.904,19.087 135.298,31.573 134.326,43.961C136.756,43.982 138.727,44.357 141.512,45.038C145.754,46.076 148.934,45.092 153.087,44.743C159.429,44.21 166.254,44.839 172.662,44.836C186.22,44.83 199.779,44.831 213.339,44.818C212.212,33.029 212.842,21.245 213.165,9.391C213.25,6.249 213.254,3.121 213.188,0L218.605,0ZM1000,51.691C988.784,52.113 977.398,52.363 966.388,50.301C964.553,49.957 964.093,46.66 964.366,45.258C964.95,42.271 963.868,39.213 963.637,36.218C963.422,33.437 963.624,30.674 963.865,27.901C964.436,21.351 964.458,15.006 963.893,8.451C963.651,5.644 963.343,2.825 963.033,0L968.596,0C968.985,3.699 969.361,7.41 969.622,11.151C970.065,17.503 969.725,23.67 969.22,29.997C968.894,34.103 969.959,38.221 970.109,42.293C980.101,42.701 990.011,42.925 1000,42.766L1000,51.691ZM0,42.766C2.158,42.732 4.322,42.68 6.49,42.607C18.712,42.2 31.064,41.6 43.254,42.844C42.681,28.569 42.444,14.284 42.446,0L48.407,0C48.438,15.775 48.678,31.55 48.997,47.326C49.025,48.713 48.316,51.757 46.328,51.618C32.768,50.676 19.309,50.959 5.738,51.47C3.832,51.542 1.918,51.619 0,51.691L0,42.766ZM716.64,0C716.885,10.182 717.182,20.362 717.801,30.517C718.095,35.34 721.038,47.081 715.049,49.466C708.258,52.171 700.187,48.329 693.176,49.429C684.372,50.812 675.677,50.811 666.78,50.875C657.587,50.941 648.373,51.282 639.184,51.189C633.685,51.133 628.729,50.903 630.068,43.963C631.772,35.128 630.44,26.708 629.664,17.814C629.147,11.884 628.784,5.944 628.584,0L633.741,0C633.832,2.693 633.956,5.385 634.116,8.076C634.528,15.016 635.323,21.906 635.926,28.828C636.202,32 636.304,35.137 636.053,38.315C635.955,39.55 635.21,41.861 634.869,43.677C637.413,43.923 641.033,43.242 642.931,43.216C646.217,43.172 649.502,43.198 652.788,43.136C659.357,43.013 665.926,42.846 672.495,42.701C678.745,42.564 684.957,42.476 691.124,41.346C693.961,40.827 696.636,40.287 699.526,40.678C702.349,41.059 705.022,42.01 707.887,42.204C708.756,42.262 711.269,42.67 712.051,42.095C713.451,41.064 712.851,39.455 712.807,37.636C712.727,34.305 712.809,30.975 712.722,27.644C712.549,20.986 712.262,14.327 712.017,7.671C711.923,5.113 711.826,2.556 711.729,0L716.64,0ZM549.557,0C549.869,15.41 550.498,30.831 550.835,46.216C550.869,47.768 550.159,50.466 548.162,50.513C534.559,50.832 520.962,51.051 507.354,50.854C500.552,50.755 493.754,50.369 486.954,50.278C483.375,50.231 479.862,50.293 476.28,50.027C472.909,49.776 469.641,49.251 466.329,50.265C463.462,51.143 462.775,47.347 462.922,45.343C464.025,30.284 464.144,15.136 463.799,0L549.557,0ZM383.663,0C384.715,15.191 385.491,30.414 385.525,45.529C385.528,46.767 384.938,49.441 383.161,49.33C369.27,48.469 355.274,49.554 341.366,49.928C334.343,50.117 327.41,50.008 320.39,49.812C313.043,49.607 305.788,50.836 298.439,50.683C296.746,50.648 295.89,48.492 295.927,47.054C296.339,31.406 295.807,15.655 294.818,0L299.772,0C300.727,14.384 300.949,28.733 300.813,43.175C307.287,42.965 313.75,43.622 320.227,43.185C327.235,42.713 334.153,42.38 341.18,42.358C354.237,42.319 367.378,42.976 380.403,42.051C379.768,30.054 379.735,18.005 379.116,6.005C379.013,4.004 378.908,2.002 378.8,0L383.663,0ZM884.52,0C884.747,15.113 884.84,30.225 884.928,45.34C884.938,47.134 883.917,50.484 881.417,49.622C875.051,47.428 867.995,48.211 861.374,48.371C854.527,48.537 847.681,48.723 840.838,48.976C833.989,49.229 827.148,49.153 820.297,49.285C813.138,49.424 805.965,50.258 798.806,50.61C796.879,50.705 795.803,47.959 795.891,46.399C796.761,30.928 796.914,15.465 796.543,0L802.259,0C802.654,13.964 802.434,27.946 801.742,41.897C815.337,41.229 828.983,40.588 842.582,40.258C850.08,40.076 857.577,39.903 865.076,39.766C869.813,39.681 874.499,39.448 879.108,40.29C878.867,28.864 878.621,17.438 878.49,6.01L878.42,0L884.52,0Z" style="fill-rule:nonzero;"/>
</svg>
