<?xml version="1.0" encoding="UTF-8" standalone="no"?>
<!DOCTYPE svg PUBLIC "-//W3C//DTD SVG 1.1//EN" "http://www.w3.org/Graphics/SVG/1.1/DTD/svg11.dtd">
<svg width="100%" height="100%" viewBox="0 0 1000 1000" version="1.1" xmlns="http://www.w3.org/2000/svg" xmlns:xlink="http://www.w3.org/1999/xlink" xml:space="preserve" xmlns:serif="http://www.serif.com/" style="fill-rule:evenodd;clip-rule:evenodd;stroke-linejoin:round;stroke-miterlimit:2;">
    <path d="M452.423,1000C450.739,997.892 449.166,995.683 447.555,993.832C443.322,988.969 437.885,984.608 434.419,979.164C433.163,977.191 434.587,969.71 437.423,972.855C441.732,977.633 446.669,981.794 451.028,986.538C454.31,990.109 458.113,994.078 460.369,998.541C461.112,997.949 461.869,997.382 462.637,996.843C468.412,992.792 475.094,989.764 481.432,986.704C482.156,986.355 482.879,986.014 483.599,985.684C481.674,982.531 480.182,978.953 478.516,975.88C475.563,970.439 472.59,965.013 469.489,959.655C468.5,957.948 468.094,955.326 469.34,953.602C470.364,952.185 472.286,951.789 473.314,953.504C476.49,958.805 479.601,964.148 482.495,969.609C484.809,973.979 487.567,978.533 489.104,983.335C496.904,980.256 504.734,978.237 512.992,977.224C512.154,973.59 512.184,969.557 511.883,966.003C511.508,961.564 510.077,956.234 512.49,952.231C512.986,951.406 514.245,950.817 515.038,951.664C518.257,955.108 517.63,960.436 517.981,964.897C518.284,968.751 518.899,972.79 518.616,976.694C520.254,976.584 521.91,976.512 523.588,976.477C530.732,976.327 537.392,976.952 543.981,979.86C545.859,980.689 547.727,981.563 549.583,982.471C550.116,978.635 551.413,974.854 552.531,971.162C553.747,967.149 554.809,959.136 558.762,956.912C560.212,956.096 561.725,957.734 562.191,958.922C562.226,959.011 562.261,959.101 562.296,959.19C562.885,960.693 562.995,963.426 561.753,964.86C560.215,968.755 559.106,972.895 557.937,976.894C557.15,979.588 556.658,982.744 555.674,985.581C557.96,986.793 560.224,988.039 562.462,989.298C568.091,992.464 573.501,995.948 578.413,1000L564.67,1000C562.588,998.756 560.468,997.572 558.331,996.432C555.069,994.692 551.772,992.965 548.434,991.336C548.617,991.62 548.795,991.907 548.967,992.196C550.345,994.51 551.4,997.179 552.196,1000L522.839,1000C522.427,999.351 521.875,998.789 521.165,998.361C518.724,996.889 514.621,996.287 511.485,997.313C510.369,998.067 509.317,998.965 508.446,1000L491.504,1000C492.72,996.375 494.417,992.928 496.601,989.803C492.112,991.236 487.668,993.026 483.181,995.172C479.902,996.742 476.51,998.296 473.214,1000L452.423,1000ZM158.607,1000C154.116,996.869 149.597,993.429 146.798,988.667C146.023,987.347 146.687,981.979 148.927,984.196C155.113,990.318 162.489,995.545 170.148,1000L158.607,1000ZM263.486,1000C264.658,998.997 265.809,997.977 266.949,996.973C271.411,993.042 275.356,988.828 278.012,983.464C279.782,979.89 282.738,985.66 281.322,988.246C278.908,992.656 275.782,996.497 272.248,1000L263.486,1000ZM579.205,1000C580.451,996.094 583.035,992.25 585.02,989.139C586.65,986.584 588.655,984.39 590.398,981.933C592.269,979.296 593.122,976.165 594.912,973.483C598.104,968.7 601.437,976.73 599.425,980.003C597.708,982.799 596.966,986.009 595.137,988.778C593.477,991.292 591.485,993.569 589.835,996.094C589.161,997.126 588.492,998.519 587.773,1000L579.205,1000ZM526.301,986.511C526.361,986.53 526.421,986.55 526.481,986.57L526.496,986.511L526.347,986.511L526.301,986.511ZM777.068,887.725C771.631,883.782 766.62,879.287 762.29,874.008C761.011,872.448 762.273,866.975 764.608,869.14C773.493,877.38 783.761,883.593 794.266,889.558C799.385,892.465 804.353,896.192 810.013,897.943C816.269,899.878 823.18,900.144 829.683,900.613C841.971,901.5 854.632,900.367 865.972,895.258C876.717,890.416 887.221,880.996 893.36,870.935C895.853,866.848 898.907,873.626 897.182,876.455C894.732,880.468 891.665,884.378 888.186,887.971C888.399,888.229 888.618,888.487 888.85,888.74C890.055,890.056 891.413,891.246 892.805,892.358C895.963,894.882 899.272,897.2 902.626,899.454C905.306,901.255 903.82,908.608 900.183,906.316C896.459,903.967 892.71,901.639 889.509,898.588C887.515,896.689 885.323,894.521 883.937,892.02C879.324,896.075 874.219,899.527 869.002,901.987C866.106,903.352 863.123,904.447 860.079,905.314C860.936,907.054 862.044,908.68 863.06,910.324C865.193,913.767 868.235,917.468 868.76,921.54C868.922,922.786 868.537,926.053 866.454,925.25C863.004,923.919 861.05,918.606 859.383,915.514C857.754,912.495 856.544,909.571 855.392,906.464C847.726,908.061 839.776,908.39 831.955,908.079C832.518,911.417 832.229,915.128 831.975,918.085C831.581,922.671 830.909,930.549 826.961,933.572C825.278,934.861 824.03,932.658 824.029,931.134C824.023,926.57 826.067,922.298 826.638,917.762C827.047,914.509 826.633,911.095 826.743,907.791C821.054,907.387 815.221,906.631 809.858,904.943C808.082,904.384 806.317,903.726 804.569,903.001C803.479,906.895 800.438,911.091 798.682,913.413C794.276,919.243 788.777,923.954 782.652,927.89C780.29,929.408 779.097,923.451 780.897,922.105C788.269,916.594 795.261,909.115 799.834,900.877C797.268,899.649 794.747,898.335 792.29,897.042C788.639,895.12 785.062,893.071 781.619,890.841C780.288,895.574 777.388,900.089 774.342,903.586C772.051,906.216 769.451,908.527 766.547,910.46C762.641,913.063 758.076,914.406 754.213,917.054C750.933,919.302 749.31,912.645 751.657,910.855C757.228,906.608 764.003,904.875 769.128,899.876C771.616,897.449 773.699,894.525 775.375,891.489C776.041,890.281 776.556,889.003 777.068,887.725ZM160.674,800.327C160.404,797.519 160.398,794.65 160.116,791.886C159.582,786.645 158.616,781.382 158.422,776.116C158.275,772.137 162.603,770.538 163.512,774.935C164.611,780.242 165.013,785.802 165.616,791.188C165.939,794.074 166.435,797.135 166.425,800.13C167.818,800.141 169.212,800.195 170.612,800.293C179.812,800.939 188.85,803.095 197.456,806.456C198.872,802.394 200.746,798.404 202.192,794.389C203.471,790.836 204.053,784.205 207.192,781.954C208.524,780.999 209.4,782.228 209.761,783.461C211.137,788.146 208.522,794.074 207.14,798.581C206.12,801.909 204.968,805.617 203.409,809.003C212.298,813.142 220.634,818.554 228.098,824.875C230.207,820.506 233.175,816.448 235.582,812.279C238.574,807.096 241.194,801.682 244.223,796.537C246.355,792.916 248.653,798.536 247.935,800.689C245.998,806.496 243.155,812.233 240.293,817.641C238.275,821.453 236.159,825.996 233.34,829.601C235.492,831.665 237.553,833.804 239.516,836.01C241.015,837.695 240.445,840.8 239.137,842.342C221.454,863.188 193.757,869.431 167.549,870.131C141.603,870.824 114.154,864.92 95.985,845.075C95.724,844.79 95.507,844.464 95.332,844.109C94.027,842.612 93.703,838.663 95.061,837.128C97.954,833.858 101.048,830.673 104.321,827.63C100.881,823.863 97.656,819.863 94.299,816.04C90.147,811.31 84.399,806.511 82.076,800.585C81.548,799.239 81.826,795.202 84.213,796.078C87.583,797.316 89.843,800.752 92.162,803.395C94.765,806.362 97.359,809.337 99.944,812.32C102.671,815.468 107.083,819.084 109.372,823.173C116.261,817.409 123.813,812.341 131.848,808.434C129.646,804.899 127.914,800.916 126.021,797.385C123.138,792.007 118.963,786.32 118.436,780.156C118.294,778.488 119.536,776.432 121.306,777.521C123.637,778.955 124.469,781.504 125.706,783.886C127.167,786.698 128.62,789.513 130.099,792.315C132.473,796.811 135.34,801.261 137.305,805.995C144.779,802.946 152.614,800.941 160.674,800.327ZM138.501,814.935C124.867,820.656 112.642,829.952 101.683,840.293C113.104,853.229 129.313,859.387 146.142,861.646C145.015,860.467 143.953,859.218 142.951,858.024C138.087,852.231 136.298,845.45 135.662,838.036C134.969,829.964 135.418,821.775 138.501,814.935ZM189.069,812.245C196.007,822.81 200.821,838.973 194.67,850.693C192.713,854.424 190.017,858.094 186.738,860.944C204.175,858.265 221.236,852.064 233.263,839.027C221.167,826.821 205.747,817.052 189.069,812.245ZM157.73,821.12C155.854,823.02 151.409,826.308 153.77,829.051C155.615,831.197 158.994,831.073 161.281,829.84C163.968,828.392 166.075,824.98 162.951,822.84C161.603,821.916 159.701,821.501 158.128,821.188C157.99,821.16 157.857,821.138 157.73,821.12ZM536.904,742.147C536.327,739.135 536.19,735.973 535.831,733.014C535.195,727.774 534.506,722.715 534.856,717.433C535.214,712.037 541.041,713.951 540.935,718.531C540.822,723.4 541.651,728.25 542.236,733.073C542.572,735.847 543.151,738.79 543.245,741.675C544.611,741.627 545.976,741.615 547.336,741.64C556.476,741.809 565.218,743.724 573.413,746.987C574.07,742.876 575.62,738.942 577.129,735.02C578.54,731.349 579.472,723.657 583.454,722.074C584.544,721.64 585.599,722.524 585.946,723.535C587.685,728.601 585.209,733.272 583.378,738.04C581.961,741.726 580.702,745.766 578.921,749.418C587.915,753.786 596.164,759.767 603.449,766.78C604.857,762.986 607.454,759.463 609.492,756.099C612.537,751.073 615.571,745.993 619.024,741.235C622.405,736.578 625.157,744.457 623.417,747.581C620.53,752.768 617.267,757.755 614.124,762.79C612.513,765.373 610.824,769.291 608.492,771.964C610.535,774.205 612.486,776.525 614.34,778.91C615.554,780.472 615.586,783.918 613.959,785.262C603.24,794.126 590.706,799.467 577.989,804.789C566.668,809.526 555.181,811.096 543.22,811.796C541.803,812.126 540.345,812.318 538.784,812.22C538.276,812.188 537.765,812.141 537.25,812.082C536.774,812.101 536.298,812.119 535.822,812.136C521.976,812.637 508.548,807.891 495.756,802.986C489.87,800.729 484.064,798.077 478.795,794.587C474.125,791.494 469.359,788.173 468.98,782.245C468.846,780.143 469.683,778.935 470.728,778.602C470.778,778.523 470.831,778.45 470.887,778.382C473.335,775.408 476.012,772.551 478.881,769.838C475.186,766.762 472.017,762.279 468.998,758.986C464.805,754.414 460.262,749.994 456.478,745.075C454.885,743.004 456.401,735.633 459.576,738.568C464.352,742.983 468.498,748.251 472.845,753.087C476.417,757.059 480.77,761.035 483.554,765.685C490.533,759.855 498.417,754.828 506.776,750.9C505.171,748.126 503.979,744.903 502.701,742.423C499.655,736.505 495.799,730.586 493.497,724.349C492.542,721.763 494.522,715.308 497.658,719.209C501.526,724.018 504.15,730.419 506.978,735.893C508.981,739.772 511.556,743.938 512.84,748.279C518.334,746.105 523.983,744.413 529.676,743.279C531.4,742.723 533.218,742.33 535.129,742.121C535.52,742.078 535.873,742.12 536.19,742.231C536.428,742.202 536.666,742.174 536.904,742.147ZM513.086,757.458C510.271,758.658 507.511,759.992 504.815,761.443C493.815,767.365 484.877,775.487 475.341,783.319C477.001,784.602 480.009,786.313 480.724,786.787C483.495,788.629 486.376,790.271 489.36,791.74C494.358,794.201 499.578,796.185 504.836,798.012C508.333,799.227 511.86,800.513 515.428,801.618C505.68,790.15 505.451,770.974 513.086,757.458ZM563.429,752.578C564.302,753.588 565.111,754.648 565.852,755.747C573.663,767.338 576.941,786.694 569.767,799.295C569.603,799.582 569.433,799.867 569.257,800.147C572.518,799.03 575.703,797.677 578.902,796.268C588.816,791.901 598.803,787.328 607.631,780.999C595.874,767.562 580.587,756.97 563.429,752.578ZM568.012,780.8C567.937,780.986 567.858,781.17 567.774,781.352C567.864,782.216 567.955,783.081 568.034,783.944C568.065,782.905 568.058,781.855 568.012,780.8ZM545.963,765.343C545.179,765.65 544.481,766.057 544.048,766.811C543.028,768.588 543.576,771.61 544.473,773.326C546.089,776.418 549.924,777.703 553.258,777.264C563.72,775.885 554.754,762.661 546.967,765.255C546.587,765.382 546.253,765.404 545.963,765.343ZM871.411,656.429C871.317,653.733 871.447,650.996 871.343,648.384C871.124,642.9 870.333,637.211 870.904,631.755C871.281,628.15 874.63,628.681 875.493,631.642C877.01,636.852 876.914,642.831 877.107,648.242C877.196,650.749 877.459,653.482 877.456,656.175C887.826,656.249 897.639,658.948 906.939,663.087C907.564,660.117 909.183,657.222 910.44,654.567C912.664,649.866 914.536,645.158 916.521,640.393C916.91,639.46 918.057,637.822 919.331,638.554C919.556,638.684 919.781,638.813 920.006,638.942C921.453,639.774 921.917,641.847 921.304,643.365C919.32,648.283 918.405,653.481 916.178,658.34C915.366,660.111 914.355,663.387 912.956,665.99C920.495,669.902 927.685,674.625 934.553,679.483C935.446,680.115 936.436,680.785 937.467,681.497C939.568,676.653 942.022,672.239 944.81,667.726C947.673,663.094 948.963,657.403 952.491,653.205C954.252,651.11 955.464,655.278 955.373,656.417C954.938,661.884 950.893,666.371 948.699,671.264C946.596,675.952 944.772,680.663 942.515,685.263C947.055,689.085 950.544,693.823 947.797,699.723C943.66,708.61 932.391,713.004 923.988,716.603C913.074,721.277 903,726.359 891.113,728.17C879.448,729.946 866.03,732.033 854.326,729.989C848.519,728.976 843.214,726.441 837.863,724.08C832.826,721.857 827.695,719.766 822.831,717.179C815.132,713.083 802.977,706.519 803.978,696.422C804.142,694.761 804.736,693.896 805.471,693.619C807.873,690.74 810.484,688.012 813.25,685.428C809.903,681.513 806.952,677.272 803.666,673.289C799.953,668.789 794.024,663.667 792.267,658.048C791.896,656.862 791.988,653.794 794.008,654.378C796.581,655.121 797.902,657.396 799.558,659.377C801.565,661.778 803.708,664.059 805.766,666.415C810.004,671.266 814.652,675.686 818.907,680.503C824.37,676.062 830.249,672.101 836.209,668.584C837.626,667.748 839.065,666.94 840.525,666.165C838.171,662.478 836.38,658.215 834.438,654.51C831.704,649.292 827.551,643.702 827.029,637.756C826.921,636.519 827.694,634.829 829.148,635.172C833.849,636.285 836.756,645.185 838.853,649.056C841.366,653.691 844.347,658.379 846.205,663.372C854.192,659.754 862.69,657.215 871.411,656.429ZM844.79,673.586C831.813,679.957 819.928,689.157 809.68,699.054C810.91,700.316 814.681,703.089 815.237,703.524C817.779,705.518 820.476,707.304 823.292,708.887C827.87,711.46 832.759,713.48 837.544,715.629C841.725,717.508 845.91,719.641 850.294,721.041C849.393,720.187 848.558,719.263 847.8,718.27C843.134,712.16 842.535,704.099 841.859,696.715C841.16,689.092 841.818,680.7 844.79,673.586ZM900.853,669.488C900.889,669.544 900.923,669.598 900.958,669.652C908.284,681.252 911.985,698.99 905.213,711.473C903.845,713.995 902.035,716.635 899.896,718.998C900.248,718.914 900.6,718.828 900.951,718.74C910.524,716.343 918.511,711.636 927.19,707.203C931.506,704.999 936.028,702.899 939.655,699.618C941.263,698.162 943.38,696.702 942.278,694.701C941.55,693.381 939.203,692.124 938.053,691.302C930.253,685.727 922.35,680.135 913.955,675.483C909.647,673.096 905.28,671.082 900.853,669.488ZM862.937,683.726C861.66,685.487 861.718,688.305 863.671,689.504C866.972,691.529 871.31,690.484 873.668,687.763C875.122,686.085 875.555,684.971 874.723,682.915C874.127,681.442 873.254,680.099 871.658,679.58C868.247,678.473 865.613,681.675 863.277,683.496C863.162,683.587 863.048,683.663 862.937,683.726ZM184.545,597.798C179.425,593.998 174.642,589.768 170.278,585.184C168.203,583.005 169.531,575.407 172.72,578.323C191.178,595.198 212.76,608.188 238.283,609.865C251.505,610.734 264.311,608.548 276.208,602.663C285.777,597.931 296.626,592.235 300.923,581.838C303.064,576.656 307.413,582.352 305.882,586.039C303.9,590.81 300.982,594.755 297.476,598.126C302.791,602.721 308.811,606.541 313.812,611.46C315.519,613.14 315.789,620.774 311.896,619.106C307.114,617.056 302.934,613.564 299.116,610.091C296.702,607.895 294.029,605.39 292.21,602.503C289.074,604.78 285.674,606.776 282.178,608.613C277.93,610.846 273.641,612.72 269.273,614.214C269.89,615.688 270.415,617.165 270.976,618.227C273.191,622.422 275.884,626.179 278.47,630.13C280.407,633.087 278.207,640.591 274.533,636.459C271.304,632.827 268.706,628.359 266.522,624.033C265.332,621.677 263.794,618.888 263.045,616.067C256.344,617.765 249.427,618.573 242.163,618.41C241.384,618.393 240.605,618.365 239.824,618.327C239.088,623.203 238.296,628.069 237.541,632.943C236.914,636.988 236.262,640.887 234.136,644.441C233.079,646.205 231.247,646.006 230.074,644.54C228.695,642.817 229.032,640.186 229.923,638.356C231.616,634.874 231.883,630.795 232.518,627.024C233.035,623.958 233.608,620.916 234.239,617.879C226.623,617.031 219.138,615.229 211.935,612.611C210.157,617.056 207.465,621.55 204.971,625.343C201.805,630.156 197.88,635.378 193.134,638.706C189.361,641.351 188.387,634.116 190.336,631.919C194.751,626.944 199.233,622.499 202.614,616.682C203.669,614.866 204.566,612.379 205.708,610.116C200.01,607.617 194.526,604.608 189.334,601.162C187.571,606.007 183.21,610.566 179.718,613.562C176.01,616.743 167.736,624.656 162.552,622.954C161.289,622.539 161.323,620.43 161.871,619.523C164.699,614.834 171.412,612.833 175.434,608.99C179.007,605.575 181.73,601.689 184.545,597.798ZM477.419,448.464C476.766,444.915 476.374,441.294 475.9,437.752C475.289,433.18 473.842,427.785 474.974,423.242C475.479,421.214 477.285,420.253 478.407,422.47C480.624,426.855 480.227,432.795 480.832,437.606C481.254,440.972 481.828,444.341 482.233,447.719C484.356,447.552 486.431,447.623 488.387,448.001C489.774,448.269 491.197,448.686 492.623,449.227C499.883,450.572 507.094,453.142 513.918,456.154C515.077,452.001 516.777,447.938 518.208,443.923C519.68,439.791 520.61,432.516 524.326,429.875C525.978,428.702 526.853,430.72 527.006,432.104C527.586,437.325 524.517,442.969 522.829,447.839C521.625,451.313 520.559,455.056 519.097,458.551C520.935,459.438 522.736,460.344 524.493,461.252C531.603,464.925 538.135,469.396 543.972,474.673C545.427,471.284 548.111,468.079 549.907,465.221C553.484,459.53 556.971,453.783 560.391,447.994C562.685,444.11 565.597,450.521 564.001,453.211C558.904,461.803 553.785,470.406 547.98,478.538C550.556,481.188 552.974,484.016 555.222,487.022C556.436,488.645 556.511,492.104 554.834,493.5C544.145,502.397 530.618,508.894 517.941,514.483C511.686,517.241 505.094,517.298 498.417,518.072C491.053,518.927 483.9,520.686 476.434,520.382C462.271,519.804 448.839,514.162 436.005,508.602C429.432,505.756 422.47,503.199 416.164,499.801C411.518,497.296 408.851,492.799 410.146,487.452C410.612,485.527 411.372,484.551 412.196,484.256C414.178,481.358 416.539,478.761 419.136,476.373C411.957,468.569 405.456,460.203 397.651,452.916C395.592,450.995 396.812,444.157 399.879,446.654C408.608,453.756 417.105,463.208 423.626,472.599C429.048,468.392 435.048,464.781 440.591,461.117C442.624,459.773 444.681,458.602 446.776,457.56C441.835,449.393 437.797,440.075 434.489,431.419C433.277,428.248 436.469,422.95 438.681,427.498C443.112,436.609 447.882,445.921 451.85,455.3C455.018,454.037 458.287,452.979 461.7,451.991C466.78,450.52 471.94,449.105 477.202,448.514L477.271,448.498C477.3,448.491 477.328,448.485 477.357,448.478L477.419,448.464ZM510.028,463.583C513.146,469.19 514.252,476.019 515.117,482.251C516.093,489.293 516.003,496.667 512.321,502.977C510.742,505.682 508.841,508.015 506.69,510.002C511.442,509.351 515.886,508.202 520.419,506.131C530.398,501.571 539.92,496.099 548.512,489.286C540.968,480.697 531.913,473.894 521.54,468.852C517.853,467.06 513.995,465.241 510.028,463.583ZM453.415,463.697C450.115,465.002 446.929,466.549 443.839,468.522C434.67,474.375 423.247,480.801 416.115,489.46C416.101,489.95 416.031,490.45 415.896,490.948C416.167,489.955 422.578,493.54 423.388,493.936C426.113,495.273 428.837,496.608 431.559,497.953C437.224,500.751 442.873,503.605 448.689,506.082C451.433,507.251 454.237,508.327 457.086,509.267C453.16,504.391 450.581,498.222 449.381,491.961C447.505,482.178 448.793,472.086 453.415,463.697ZM0,427.095L0.216,427.495C2.103,430.991 4.55,434.59 5.906,438.422C13.232,435.308 20.916,433.186 28.825,432.402C28.684,430.316 28.746,428.22 28.6,426.671C27.999,420.276 26.208,413.435 26.933,407.033C27.242,404.31 30.094,403.351 31.299,406.052C33.75,411.552 33.642,418.607 34.255,424.559C34.456,426.507 35.081,429.323 35.267,432.065C35.968,432.062 36.669,432.069 37.372,432.088C47.359,432.352 57.535,434.483 67.192,438.17C67.756,435.958 68.65,433.778 69.368,431.607C71.065,426.474 72.726,421.319 74.59,416.243C75.084,414.897 76.187,413.761 77.715,414.198C82.643,415.609 78.033,425.224 77.208,427.785C75.932,431.749 74.701,435.727 73.432,439.693C73.328,440.019 73.231,440.344 73.136,440.665C82.015,444.738 90.306,450.139 97.42,456.606C99.1,452.359 101.509,448.321 103.728,444.377C106.729,439.045 109.38,433.594 111.899,428.019C114.002,423.363 117.948,428.521 116.423,431.852C113.722,437.755 111.003,443.639 108.377,449.576C106.609,453.571 104.822,457.793 102.353,461.467C104.582,463.852 106.659,466.356 108.556,468.968C109.854,470.754 109.679,473.737 108.175,475.332C99.429,484.605 87.255,488.142 76.016,493.35C63.345,499.222 49.484,503.323 35.452,503.915C23.367,504.424 11.348,502.632 0,498.839L0,490.997C3.172,492.147 6.405,493.13 9.687,493.939C9.538,493.78 9.392,493.618 9.249,493.453C4.748,488.294 3.148,481.239 1.84,474.697C0.104,466.014 0.381,456.357 4.061,448.416C2.691,449.095 1.337,449.81 0,450.555L0,427.095ZM1000,498.839C986.586,494.357 974.11,487.081 963.561,477.507C961.562,475.693 962.289,470.494 964.207,469.611C966.797,466.682 969.549,463.813 972.444,461.052C965.013,452.678 957.747,444.005 950.968,435.142C949.284,432.94 951.212,425.288 954.161,428.436C958.751,433.335 963.058,438.506 967.41,443.616C970.954,447.777 974.657,451.857 977.333,456.612C984.231,450.655 991.826,445.356 999.924,441.221C998.136,438.226 996.83,434.645 995.433,431.958C992.541,426.395 989.58,420.866 986.645,415.326C984.761,411.768 988.774,405.943 991.392,410.886C994.256,416.292 997.095,421.711 1000,427.095L1000,450.555C989.087,456.642 979.17,464.864 969.81,473.402C978.822,481.074 989.048,487.03 1000,490.997L1000,498.839ZM60.47,444.378C69.366,455.827 73.47,470.819 67.016,484.768C65.683,487.647 63.979,490.089 61.989,492.146C66.296,490.772 70.535,489.079 74.717,487.057C83.864,482.636 94.512,478.423 102.253,471.494C91.496,459.044 76.56,449.4 60.47,444.378ZM714.081,442.42C709.191,438.875 704.619,434.891 700.438,430.445C698.608,428.5 699.863,421.802 702.589,424.4C711.598,432.985 721.58,440.207 732.829,445.576C744.417,451.107 756.548,456.838 769.574,457.171C794.262,457.8 818.662,448.136 831.549,426.312C833.871,422.382 836.533,428.867 835.13,431.485C832.974,435.511 830.326,439.127 827.294,442.352C829.12,444.323 830.693,446.729 832.302,448.65C834.969,451.832 838.73,454.563 839.896,458.622C840.287,459.983 839.731,462.358 838.052,462.544C834.78,462.909 831.107,457.67 829.066,455.449C826.77,452.948 824.035,450.063 822.484,446.889C815.373,452.852 806.794,457.147 797.72,459.957C798.679,462.775 799.719,465.536 801.089,468.2C802.667,471.269 805.191,473.97 805.818,477.401C806.116,479.031 805.562,481.681 803.414,481.267C800.307,480.667 798.174,475.577 796.843,472.998C794.957,469.346 793.526,465.416 792.688,461.392C792.686,461.38 792.683,461.367 792.681,461.355C785.664,463.081 778.468,463.967 771.517,464.092C770.793,464.105 770.072,464.103 769.354,464.086C769.127,467.935 768.181,471.717 767.318,475.523C766.296,480.032 764.949,484.602 762.134,488.346C759.432,491.941 757.667,485.841 758.794,483.521C761.891,477.141 763.061,470.509 764.514,463.757C756.916,462.908 749.677,460.56 742.597,457.637C739.993,462.754 736.161,467.467 732.747,472.033C729.779,476.002 726.696,479.777 722.31,482.22C719.342,483.872 718.139,476.934 720.244,475.414C724.44,472.388 727.479,468.638 730.472,464.464C732.634,461.449 735.035,458.415 737.136,455.271C735.322,454.453 733.514,453.613 731.709,452.766C727.537,450.807 723.502,448.614 719.632,446.174C714.52,456.687 703.553,465.658 691.817,466.966C689.263,467.25 689.285,462.023 691.155,461.148C696.243,458.77 701.13,456.339 705.491,452.717C709.031,449.775 711.627,446.199 714.081,442.42ZM494.757,472.725C494.351,472.767 493.934,472.635 493.551,472.234C491.401,469.98 488.216,469.571 486.636,472.861C485.603,475.011 487.266,479.277 489.328,480.4C491.426,481.544 496.207,480.877 496.812,478.06C497.168,476.402 496.132,474.221 494.757,472.725ZM23.002,454.935C20.805,456.644 18.661,458.183 18.413,461.312C18.167,464.425 23.326,466.673 25.953,465.572C28.58,464.471 29.987,460.384 28.669,457.813C27.774,456.065 25.229,454.94 23.002,454.935ZM18.612,443.213C18.547,443.235 18.481,443.257 18.416,443.28C18.396,443.33 18.375,443.379 18.353,443.428C18.438,443.356 18.525,443.285 18.612,443.213ZM270.523,253.428C270.114,250.57 269.995,247.625 269.486,244.831C269.069,242.542 268.508,240.285 268.245,237.971C267.999,235.806 268.389,233.261 267.473,231.236C265.846,227.641 269.829,221.773 272.185,226.83C274.341,231.458 274.055,237.396 274.888,242.404C275.45,245.779 276.127,249.491 276.041,253.069C280.075,252.909 284.14,253.028 288.075,253.838C293.789,255.014 299.238,257.534 304.621,259.719C305.351,260.016 306.08,260.315 306.808,260.617C307.302,258.535 308.147,256.479 308.664,254.904C310.718,248.645 312.627,242.131 315.338,236.124C317.742,230.795 321.218,236.76 320.279,240.31C318.737,246.139 316.444,251.815 314.494,257.521C314.064,258.78 313.566,261.071 312.805,263.204C320.669,266.748 328.255,270.852 335.046,276.253C335.71,276.782 336.453,277.353 337.239,277.962C339.175,272.385 342.996,267.152 346.59,262.719C348.915,259.85 350.875,257.331 352.434,253.948C353.311,252.043 353.938,250.133 356.257,249.986C359.115,249.805 359.234,254.794 358.176,256.417C356.728,258.64 356.178,261.37 354.855,263.687C353.469,266.117 351.567,268.202 349.879,270.416C347.136,274.016 345.002,278.419 342.305,282.142C347.111,286.548 350.892,291.966 346.354,297.493C343.417,301.07 338.982,302.892 334.722,304.352C329.511,306.138 324.482,308.015 319.492,310.373C308.725,315.461 298.209,318.852 286.362,320.315C285.488,320.423 284.614,320.531 283.739,320.637C279.917,321.628 275.848,321.886 271.853,321.787C264.523,322.213 257.217,321.922 250.032,319.83C243.619,317.964 197.115,305.78 203.845,292.611C203.8,291.407 204.106,290.194 204.826,289.535C207.504,287.086 210.089,284.557 212.669,282.039C208.32,278.374 204.642,274.09 200.987,269.695C198.514,266.72 196.05,263.729 193.318,260.984C191.54,259.197 189.805,258.085 189.391,255.493C189.191,254.231 189.942,250.712 191.558,250.719L191.581,250.719C191.939,250.728 192.338,250.909 192.778,251.325L192.903,251.427C198.181,255.767 202.501,261.404 206.888,266.598C209.587,269.791 212.392,272.852 215.238,275.913C215.957,276.686 216.53,277.286 216.981,277.867C222.529,272.584 228.284,267.581 235.116,263.741C236.752,262.822 238.427,261.967 240.132,261.177C237.483,257.433 235.344,252.988 233.307,249.376C230.552,244.491 226.068,238.656 226.948,232.85C227.11,231.787 227.824,230.662 229.023,230.965C231.619,231.622 232.097,234.124 233.156,236.341C234.592,239.348 236.141,242.298 237.784,245.197C240.316,249.666 243.68,254.058 245.889,258.786C253.793,255.861 262.191,254.146 270.523,253.428ZM244.683,268.546C242.534,269.425 240.419,270.395 238.343,271.457C226.868,277.328 218.768,287.098 208.59,294.648C209.782,296.247 212.86,298.126 213.924,298.829C216.325,300.417 218.927,301.671 221.573,302.793C227.059,305.121 232.79,306.878 238.425,308.803C242.364,310.149 246.336,311.694 250.375,312.915C249.791,312.085 249.235,311.189 248.703,310.225C244.712,302.989 241.236,295.513 240.843,287.132C240.545,280.791 241.863,274.268 244.683,268.546ZM299.998,266.696C306.753,277.536 308.285,292.239 303.052,303.683C301.826,306.363 300.251,308.875 298.37,311.126C303.703,309.812 308.921,308.005 314.049,305.429C319.464,302.708 324.763,299.926 330.468,297.845C333.892,296.598 339.619,295.133 342.444,292.013C340.694,290.089 337.872,288.153 336.426,286.891C334.254,284.997 332.02,283.171 329.682,281.485C324.084,277.448 317.938,274.275 311.635,271.493C307.806,269.804 303.918,268.202 299.998,266.696ZM1000,279.3C998.789,283.155 997.267,286.811 995.949,289.785C993.716,294.826 989.584,289.272 991.086,285.666C992.961,281.165 994.614,276.563 995.694,271.8C996.15,269.787 996.334,267.617 996.728,265.528C989.4,264.989 982.485,263.016 975.749,260.407C973.843,265.209 970.154,269.252 966.666,273.008C964.416,275.431 962.028,278.051 959.392,280.074C957.478,281.544 955.255,282.247 953.492,283.932C951.052,286.264 949.134,281.547 949.618,279.614C950.274,276.993 950.904,275.863 953.162,274.373C955.81,272.626 957.8,271.372 960.095,269.101C962.624,266.598 965.223,264.136 967.558,261.446C968.47,260.396 969.299,259.233 970.157,258.097C966.197,256.371 962.276,254.498 958.346,252.647C956.226,251.649 954.114,250.595 952.047,249.46C950.709,253.828 946.805,257.914 943.748,260.61C940.684,263.312 937.217,265.486 933.627,267.418C930.682,269.001 926.602,271.966 923.2,271.377C920.753,270.953 919.965,267.136 921.382,265.285C924.572,261.117 930.698,259.561 935.138,256.808C938.717,254.588 944.751,250.808 946.948,246.405C940.947,242.46 935.689,237.562 932.298,230.999C931.29,229.049 933.089,224.742 935.27,227.327C942.762,236.206 952.636,241.394 963.114,246.032C974.88,251.241 985.881,256.594 998.909,257.175L1000,257.223L1000,279.3ZM283.086,275.949C280.893,276.022 278.061,276.962 277.459,279.078C276.605,282.084 280.515,283.981 282.802,284.311C286.175,284.798 288.655,282.671 287.037,279.354C285.976,277.181 284.879,276.201 283.086,275.949ZM0,257.223C6.446,257.506 13.008,257.697 19.287,256.016C24.945,254.5 30.501,252.089 35.832,249.682C46.54,244.847 56.419,238.546 63.781,229.254C67.1,225.064 70.183,232.377 67.994,235.339C65.557,238.636 62.773,241.566 59.737,244.197C61.178,246.696 62.706,249.175 64.839,251.14C67.353,253.457 70.602,254.722 73.267,256.86L73.242,256.861C75.703,258.97 75.637,265.382 71.922,265.67C70.111,265.81 67.843,263.68 66.299,262.767C64.549,261.734 62.931,260.597 61.498,259.151C58.436,256.065 56.207,252.192 54.748,248.11C49.619,251.764 43.992,254.77 38.226,257.389C35.755,258.51 33.248,259.638 30.704,260.687C31.677,263.41 32.579,266.153 33.823,268.776C35.423,272.146 38.206,274.615 39.708,277.963C40.605,279.962 39.964,284.344 36.992,283.689C33.363,282.891 30.892,277.703 29.343,274.659C27.457,270.954 26.073,266.875 25.127,262.81C23.176,263.481 21.206,264.073 19.217,264.55C13.615,265.894 7.879,265.971 2.155,265.78C2.401,270.048 1.412,274.809 0,279.3L0,257.223ZM664.632,201.496C664.139,198.767 664.011,195.883 663.644,193.432C662.868,188.249 661.325,182.748 661.968,177.522C662.212,175.544 664.645,173.262 666.117,175.734C668.85,180.316 669.212,186.4 670.006,191.613C670.461,194.602 671.218,197.934 671.322,201.163C681.565,201.135 691.293,203.369 700.405,207.187C701.31,203.545 702.885,200.013 704.169,196.518C705.632,192.532 706.668,186.093 710.71,184.008C712.091,183.295 713.319,185.133 713.467,186.277C714.157,191.608 711.698,196.412 709.897,201.371C708.9,204.116 708.108,207.314 706.907,210.225C715.551,214.685 723.581,220.513 730.903,227.07C732.802,223.037 736.669,218.698 737.731,217.315C740.348,213.906 743.331,210.669 745.739,207.112C747.407,204.65 748.353,201.893 750.722,199.97C754.844,196.624 756.828,205.559 754.097,208.156C752.279,209.886 751.448,212.509 750.003,214.546C748.513,216.646 746.841,218.622 745.275,220.667C742.323,224.525 739.522,228.526 736.406,232.26C738.492,234.327 740.512,236.446 742.463,238.598C743.862,240.142 744.653,243.756 742.626,245.251C732.297,252.869 721.311,258.716 709.068,262.603C699.222,265.729 689.101,268.534 678.829,270.028C678.319,270.195 677.805,270.341 677.288,270.464C675.303,270.936 673.154,271.047 670.961,270.899C670.114,270.961 669.264,271.014 668.414,271.055C643.108,272.281 619.007,263.166 599.857,246.813C598.445,245.606 598.339,242.887 599.003,240.938C599.035,240.193 599.21,239.519 599.55,239.075C601.978,235.904 604.649,232.848 607.53,229.938C604.8,227.053 602.396,223.711 599.298,221.272C593.924,217.042 589.472,212.164 585.863,206.343C584.794,204.618 584.447,201.816 585.709,200.069C586.786,198.578 588.734,198.217 589.828,199.968C593.463,205.785 598.005,210.207 603.232,214.56C606.876,217.594 609.742,221.38 612.73,225.046C619.367,219.227 626.852,214.181 634.827,210.245C632.302,206.36 630.135,202.082 627.616,198.396C624.28,193.513 620.367,188.673 621.926,182.541C622.227,181.357 623.326,180.571 624.504,180.854C627.35,181.54 627.817,184.699 629.106,186.959C630.593,189.564 632.45,191.971 634.077,194.489C636.682,198.523 639.484,202.794 641.343,207.324C648.87,204.285 656.725,202.256 664.632,201.496ZM643.822,215.28C639.996,216.802 636.275,218.599 632.688,220.626C626.091,224.353 620.34,228.901 614.802,233.753C614.617,234.009 614.4,234.207 614.152,234.324C611.258,236.879 608.416,239.511 605.536,242.146C617.524,252.423 632.309,259.227 647.829,261.982C645.536,260.18 643.572,258.038 642.288,255.463C639.007,248.886 638.91,240.263 639.314,233.082C639.657,226.963 640.47,220.507 643.822,215.28ZM691.919,212.78C693.147,214.504 694.203,216.417 695.113,218.481C700.672,231.1 700.534,247.58 692.628,259.235C692.543,259.359 692.458,259.483 692.37,259.608C697.498,258.414 702.578,257.007 707.6,255.489C718.047,252.331 727.847,248.153 736.414,241.553C723.815,228.974 708.846,217.926 691.919,212.78ZM70.219,256.934L70.193,256.935L70.194,256.958L70.206,256.946L70.219,256.934ZM658.944,224.586C657.88,226.227 656.859,227.911 657.217,229.767C658.05,234.091 662.615,233.596 665.851,232.435C667.685,231.777 668.821,230.932 668.897,228.902C668.969,226.98 668.511,224.472 666.547,223.797C664.866,223.22 662.897,223.426 661.246,224C660.295,224.331 659.72,224.653 658.944,224.586ZM1000,87.764C997.512,88.919 994.948,89.948 992.33,90.864C979.214,95.453 964.363,99.218 950.483,100.143C936.975,101.044 922.138,97.481 909.43,93.09C897.645,89.019 886.277,82.476 878.538,72.513C877.224,70.823 877.665,67.506 878.965,66.061C879.024,65.809 879.105,65.577 879.209,65.371C881.282,61.251 884.281,57.636 887.797,54.423C880.288,46.466 870.9,40.142 865.143,30.586C864.122,28.893 864.862,22.233 867.839,24.923C873.1,29.676 877.322,35.574 882.428,40.53C885.886,43.886 889.689,46.751 892.521,50.543C898.801,45.867 905.989,42.124 912.373,38.877C913.615,38.245 914.87,37.63 916.135,37.034C915.638,35.858 915.147,34.687 914.558,33.624C913.079,30.958 911.457,28.363 909.902,25.741C906.899,20.678 902.095,15.053 901.254,9.152C901.095,8.037 901.514,4.6 903.513,5.521C906.625,6.956 908.008,10.548 909.752,13.368C911.708,16.531 913.664,19.694 915.616,22.86C917.829,26.448 920.572,30.338 921.89,34.494C927.639,32.127 933.582,30.191 939.645,28.854C940.302,28.57 940.969,28.304 941.646,28.056C942.369,27.791 943.006,27.829 943.55,28.081C944.157,27.975 944.765,27.875 945.374,27.781C945.294,25.18 945.46,22.537 945.353,19.981C945.144,14.996 944.683,10.054 944.031,5.109C943.471,0.864 948.267,-2.677 949.199,2.788C950.106,8.11 950.739,13.504 951.015,18.897C951.149,21.504 951.387,24.319 951.306,27.079C953.071,26.934 954.843,26.847 956.62,26.821C965.797,26.688 974.83,28.322 983.301,31.446C984.238,28.425 985.857,25.55 987.029,22.639C988.704,18.481 990.097,14.231 991.302,9.915C992.624,5.176 997.212,9.596 996.366,12.994C995.118,18.007 993.689,22.947 991.865,27.785C991.121,29.756 990.392,31.975 989.389,33.993C993.075,35.723 996.625,37.742 1000,40.025L1000,49.047C991.962,43.17 982.753,38.942 973.004,36.766C975.244,39.756 977.11,43.069 978.746,46.18C982.67,53.641 984.13,60.56 983.744,68.966C983.456,75.217 982.858,81.982 978.457,86.724C982.033,85.731 985.554,84.647 988.98,83.513C992.73,82.272 996.443,80.815 1000,79.074L1000,87.764ZM923.046,42.659C920.527,43.708 918.043,44.843 915.599,46.049C904.336,51.605 891.944,58.411 884.237,68.67C891.972,76.821 901.642,82.126 912.388,85.623C916.062,86.819 919.872,87.949 923.753,88.916C917.1,81.274 915.235,69.617 916.601,59.437C917.417,53.354 919.674,47.616 923.046,42.659ZM0,40.025C4.696,43.2 9.053,46.886 12.968,51.013C15.463,46.663 18.612,42.616 21.15,38.313C23.873,33.696 26.686,30.021 30.238,26.017C32.555,23.407 34.067,29.061 33.441,30.643C32.341,33.419 30.51,34.983 28.788,37.357C27.306,39.403 26.339,41.845 25.12,44.048C22.973,47.929 20.567,52.595 17.435,56.155C19.399,58.63 21.216,61.232 22.867,63.95C23.823,65.525 24.217,68.186 23.01,69.783C16.937,77.818 8.954,83.608 0,87.764L0,79.074C6.395,75.944 12.29,71.895 17.012,66.526C12.351,59.747 6.566,53.847 0,49.047L0,40.025ZM961.162,48.163C958.271,47.296 954.696,48.911 954.26,52.187C953.794,55.687 957.293,58.013 960.276,58.017C963.59,58.021 966.27,56.432 965.493,52.867C964.942,50.341 963.031,49.35 961.162,48.163ZM587.773,0C586.83,1.941 585.798,4.034 584.549,5.662C586.855,8.057 588.993,10.639 590.924,13.44C592.378,15.551 592.198,19.237 589.857,20.634C577.976,27.723 565.476,34.427 552.846,40.081C541.269,45.265 528.794,49.322 515.957,48.682C503.339,48.053 489.905,44.467 477.953,40.526C466.054,36.603 455.904,30.627 446.934,21.884C445.067,20.064 445.281,16.279 446.568,14.422C446.64,13.827 446.81,13.293 447.085,12.912C449.494,9.573 452.22,6.232 455.216,3.197C454.239,2.206 453.316,1.117 452.423,0L473.214,0C470.509,1.397 467.869,2.895 465.406,4.585C460.482,7.963 456.798,12.72 452.389,16.688C460.319,24.542 471.607,29.268 482.014,32.543C486.561,33.974 491.367,35.459 496.265,36.741C489.34,27.577 487.82,14.36 490.497,3.47C490.785,2.299 491.12,1.141 491.504,0L508.446,0C507.17,1.516 506.283,3.325 506.151,5.405C505.803,10.887 513.504,11.87 517.33,11.441C520.422,11.095 522.117,10.003 523.231,7.029C524.059,4.821 524.112,2.001 522.839,0L552.196,0C553.772,5.583 554.341,11.767 554.415,17.001C554.489,22.202 553.589,27.655 551.128,32.259C552.288,31.749 553.439,31.229 554.582,30.702C564.631,26.069 574.164,20.829 583.604,15.17C578.247,9.041 571.672,4.183 564.67,0L578.413,0C578.625,0.174 578.836,0.349 579.045,0.526C579.096,0.351 579.149,0.176 579.205,0L587.773,0ZM272.248,0C272.074,0.173 271.9,0.344 271.724,0.514C273.925,2.795 275.903,5.308 278.313,7.395C281.385,10.056 285.851,11.816 286.906,15.919C287.123,16.765 286.964,18.3 286.195,18.866C286.011,19.002 285.827,19.138 285.643,19.273C284.747,19.932 284.084,19.924 283.156,19.334C279.948,17.294 277.032,14.994 274.412,12.233C272.006,9.696 270.081,6.746 267.762,4.149C263.601,7.87 259.23,11.648 254.188,14.011C250.983,15.513 247.539,16.739 243.966,17.722C244.558,19.43 245.067,21.188 245.761,22.758C247.457,26.59 249.647,30.037 251.931,33.531C253.611,36.1 251.225,42.68 248.575,38.926C244.168,32.683 242.03,25.819 239.429,18.829C231.594,20.51 223.371,21.145 215.819,21.064C215.899,23.786 215.356,26.662 215.033,29.164C214.283,34.967 212.716,40.672 210.611,46.125C208.876,50.621 205.235,45.691 206.376,42.537C208.167,37.588 209.599,32.587 210.524,27.399C210.881,25.395 210.869,23.089 211.134,20.898C203.8,20.434 196.654,19.009 189.76,16.712C189.291,21.172 186.57,25.642 184.039,29.02C179.406,35.202 173.407,39.997 166.946,44.111C164.313,45.787 162.821,39.053 164.967,37.589C170.284,33.962 175.008,29.654 179.079,24.671C181.059,22.247 182.944,19.639 184.29,16.801C184.576,16.197 184.801,15.585 185.024,14.982C181.851,13.72 178.736,12.271 175.685,10.644C172.067,8.714 168.545,6.602 165.099,4.375C163.691,8.351 159.277,13.766 158.516,14.734C153.457,21.161 147.104,26.694 139.427,29.604C136.837,30.585 136.05,25.354 137.775,24.159C142.129,21.145 146.614,18.057 150.466,14.404C154.512,10.569 157.609,6.023 161.031,1.671C160.724,1.462 160.418,1.252 160.112,1.042C159.612,0.697 159.11,0.351 158.607,0L170.148,0C172.855,1.575 175.598,3.053 178.336,4.44C189.424,10.057 201.246,13.549 213.714,13.959C226.086,14.367 239.761,12.814 251.278,8.088C255.8,6.232 259.752,3.198 263.486,0L272.248,0Z" style="fill-rule:nonzero;"/>
</svg>
