<?xml version="1.0" encoding="UTF-8" standalone="no"?>
<!DOCTYPE svg PUBLIC "-//W3C//DTD SVG 1.1//EN" "http://www.w3.org/Graphics/SVG/1.1/DTD/svg11.dtd">
<svg width="100%" height="100%" viewBox="0 0 1000 1000" version="1.1" xmlns="http://www.w3.org/2000/svg" xmlns:xlink="http://www.w3.org/1999/xlink" xml:space="preserve" xmlns:serif="http://www.serif.com/" style="fill-rule:evenodd;clip-rule:evenodd;stroke-linejoin:round;stroke-miterlimit:2;">
    <path d="M1000,979.052L1000,1000L989.862,1000C992.867,992.815 996.072,985.711 1000,979.052ZM0,979.052C3.209,973.611 6.901,968.466 11.358,963.818C13.15,961.949 15.19,963.878 16.006,965.542C19.272,972.208 22.947,978.642 27.044,984.833C30.354,989.834 33.974,994.63 36.683,1000L22.201,1000C19.146,993.76 16.141,987.498 13.219,981.201C10.99,987.673 7.926,993.926 4.66,1000L0,1000L0,979.052ZM823.315,1000L823.658,999.263C827.642,990.17 831.365,980.962 834.828,971.644C835.136,970.815 835.621,970.047 836.221,969.476C836.303,968.809 836.37,968.136 836.423,967.458C836.652,964.524 840.344,961.162 842.552,964.176C843.255,964.579 843.899,965.303 844.38,966.35C849.897,978.357 857.596,989.117 864.988,1000L852.502,1000C849.036,993.783 845.569,987.563 842.102,981.344C840.375,987.793 837.729,993.961 834.78,1000L823.315,1000ZM322.528,1000C322.959,999.195 323.394,998.388 323.831,997.578C326.405,991.381 328.791,985.109 331.011,978.774C332.429,974.728 333.888,970.848 335.871,967.215C336.138,966.305 336.678,965.387 337.355,964.706C338.201,963.389 339.137,962.109 340.187,960.87C341.623,959.176 344.021,960.228 345.065,961.705C349.124,967.444 350.967,974.017 352.506,980.791C352.819,982.166 353.139,983.538 353.471,984.905L353.903,985.9C354.081,986.306 354.259,986.713 354.437,987.119L354.837,988.025C357.043,992.003 359.222,995.994 361.374,1000L348.929,1000C347.996,996.947 347.142,993.869 346.368,990.774C346.226,990.207 346.091,989.636 345.96,989.065C344.317,986.165 342.66,983.274 340.988,980.392L340.338,981.85L338.989,984.877C337.525,988.683 335.803,992.407 333.988,996.086L333.958,996.152L333.294,997.633C332.982,998.423 332.667,999.212 332.348,1000L322.528,1000ZM483.99,1000C488.226,989.957 492.802,980.003 498.639,970.806C499.578,968.696 500.514,966.59 501.449,964.483C502.291,962.583 503.891,961.277 505.487,961.78C507.382,960.744 509.47,961.723 510.515,964.286C512.089,968.147 513.708,971.989 515.372,975.808C519.884,983.642 523.797,991.81 527.667,1000L516.372,1000C513.905,994.841 511.52,989.644 509.218,984.408C508.103,982.241 506.995,980.07 505.893,977.894C504.053,980.705 502.347,983.588 500.743,986.525C498.769,991.016 496.799,995.508 494.832,1000L483.99,1000ZM653.496,1000C658.142,989.947 663.004,979.99 668.032,970.113C668.394,969.066 668.749,968.017 669.097,966.965C669.488,965.783 670.147,964.932 670.929,964.464L671.436,963.486C672.971,960.523 676.326,961.951 677.262,964.482C678.296,967.28 679.405,970.049 680.579,972.794C686.335,981.341 690.841,990.663 695.314,1000L684.615,1000C681.547,994.276 678.66,988.474 676.034,982.581C675.314,981.494 674.575,980.418 673.815,979.355C671.344,986.306 668.634,993.183 665.765,1000L653.496,1000ZM152.211,1000C157.751,988.375 163.707,976.951 170.373,965.895C170.905,965.013 171.528,964.526 172.173,964.342C173.402,963.239 175.265,963.394 176.249,964.983C182.831,975.602 188.979,986.489 194.629,997.63C195.058,998.418 195.483,999.208 195.904,1000L183.314,1000C180.099,993.442 176.887,986.878 173.682,980.311C171.389,987.12 168.234,993.61 164.898,1000L152.211,1000ZM673.45,921.661C673.57,921.452 673.708,921.249 673.868,921.05C674.483,920.292 675.23,919.849 676.225,920.027C676.872,920.143 677.414,920.499 677.838,920.976C679.381,921.582 680.385,923.466 680.733,925.051C681.078,926.626 680.911,928.188 680.486,929.718C680.153,930.912 679.433,932.123 678.211,932.56C677.696,932.744 677.185,932.784 676.693,932.697C676.175,932.783 675.636,932.736 675.083,932.56C674.344,932.327 673.721,931.817 673.081,931.393C672.552,930.918 672.157,930.346 671.897,929.682C671.583,928.901 671.418,928.089 671.402,927.246C671.377,926.403 671.501,925.584 671.777,924.788C671.882,924.475 672.016,924.181 672.181,923.905C672.433,923.08 672.854,922.262 673.45,921.661ZM10.335,921.901C10.592,922.156 10.821,922.446 11.016,922.76C12.42,925.017 12.664,928.3 11.2,930.601C10.092,932.341 8.203,932.878 6.3,932.222C4.587,931.632 3.314,930.452 2.612,928.784C1.486,926.112 2.121,921.842 5.076,920.582C6.588,919.938 8.342,920.198 9.622,921.205C9.886,921.413 10.123,921.646 10.335,921.901ZM513.035,923.687C513.755,925.839 513.51,928.22 512.421,930.203C511.992,930.985 511.004,931.768 510.069,931.769C509.286,931.769 508.405,931.637 507.685,931.316C506.358,930.727 505.412,929.645 504.844,928.319C504.049,926.46 503.972,924.152 504.722,922.267C505.232,920.983 506.129,919.724 507.474,919.221C508.688,918.768 510.058,918.947 511.049,919.823C512.159,920.805 512.795,922.226 513.035,923.687ZM174.141,919.051C175.467,918.199 176.997,918.387 178.101,919.623C180.396,922.193 180.335,927.072 177.571,929.331C177.498,929.487 177.418,929.641 177.33,929.791C175.896,932.251 173.009,931.924 171.474,929.744C171.301,929.497 171.145,929.236 171.008,928.964C170.645,928.542 170.345,928.053 170.112,927.519C169.357,925.781 169.153,923.596 169.831,921.794C170.198,920.82 170.728,919.851 171.694,919.36C172.193,919.107 173.082,919.1 173.653,919.043C173.824,919.026 173.986,919.03 174.141,919.051ZM339.993,918.472C340.003,918.468 340.012,918.464 340.022,918.46C341.047,918.034 342.209,918.308 343.063,918.962C345.357,920.722 345.572,924.357 344.789,926.906C344.317,928.447 343.159,930.078 341.588,930.65C337.151,932.26 334.487,926.322 335.382,922.75C335.756,921.26 336.475,919.134 338.378,919.083C338.804,918.788 339.299,918.58 339.869,918.489C339.91,918.482 339.952,918.476 339.993,918.472ZM840.143,920.068C840.537,919.633 841.006,919.262 841.546,918.978C842.85,918.295 844.293,918.028 845.598,918.821C848.056,920.317 848.544,924.084 847.66,926.604C847.427,927.269 847.105,927.858 846.673,928.358C846.38,928.887 846.016,929.358 845.583,929.738C844.483,930.703 842.946,930.942 841.583,930.419C839.757,929.716 838.542,927.804 838.221,925.941C837.886,924.002 838.133,921.414 839.914,920.207C839.99,920.156 840.066,920.109 840.143,920.068ZM0,852.14C1.833,855.6 3.664,859.064 5.491,862.529C9.703,854.065 16.153,846.939 21.597,839.118C25.327,832.465 29.098,825.835 32.888,819.212C36.213,812.231 39.181,805.059 42.094,798.078C43.53,794.638 45.668,794.731 47.235,796.31C48.3,796.151 49.44,796.682 50.252,797.748C51.911,799.924 51.65,803.235 50.443,805.526C46.572,812.873 42.665,820.201 38.736,827.518C36.088,833.255 33.228,838.873 29.993,844.21C29.454,845.1 28.891,845.975 28.31,846.839C21.552,859.317 14.767,871.777 8.027,884.258C6.378,887.312 3.199,885.74 2.132,883.252C1.439,881.634 0.727,880.025 0,878.424L0,852.14ZM701.713,816.653C705.003,810.121 708.489,803.683 712.111,797.336C715.177,791.965 719.321,800.218 717.812,803.712C714.714,810.884 711.196,817.858 707.082,824.504C706.641,825.217 706.197,825.927 705.751,826.633C702.776,832.811 700.019,839.093 697.54,845.511C692.516,858.525 688.723,872.208 680.556,883.719C679.39,885.362 677.347,885.969 675.917,884.695C674.653,885.586 672.721,884.913 671.985,883.605C657.882,858.551 644.5,832.672 633.886,805.902L633.639,805.366C633.501,805.066 633.384,804.737 633.29,804.388L632.894,803.376C631.658,800.198 634.155,795.26 636.531,796.796C637.609,796.628 638.707,797.045 639.373,798.283C651.836,821.396 664.88,844.18 678.206,866.802C683.493,857.132 686.241,845.673 690.815,835.914C693.962,829.201 697.876,822.952 701.713,816.653ZM303.137,796.675C304.425,795.935 305.923,796.359 307.053,798.977C317.022,822.081 329.03,843.582 342.302,864.863C344.629,861.461 346.919,858.032 349.17,854.574C359.44,836.044 369.758,817.541 380.202,799.105C381.443,796.913 383.842,797.16 385.23,798.982C386.896,801.167 386.545,804.337 385.418,806.641C376.967,823.912 367.751,840.741 357.593,857.023C352.75,865.715 347.895,874.399 343.035,883.081C341.321,886.142 338.443,884.431 337.272,882.096C324.275,856.162 310.135,830.176 299.855,803.017C299.014,800.795 300.963,795.158 303.137,796.675ZM841.701,862.446C853.928,841.22 869.772,822.113 879.283,799.381C882.143,792.546 887.101,800.123 885.66,804.783C881.401,818.552 872.678,831.412 865.856,844.037C858.742,857.205 851.551,870.332 843.677,883.065C842.492,884.983 839.75,885.377 838.548,883.191C834.827,876.42 831.837,869.302 828.28,862.448C824.844,855.829 821.023,849.42 817.344,842.935C810.233,830.398 803.213,817.398 801.274,802.918C800.855,799.791 802.934,797.092 804.738,797.755C806.04,797.182 807.516,797.731 808.669,800.277C818.368,821.689 829.389,842.433 841.701,862.446ZM545.593,799.832C546.275,798.935 547.02,798.102 547.846,797.357C552.268,793.37 554.74,803.631 551.68,806.659C551.452,806.884 551.228,807.111 551.008,807.341C549.196,809.379 548.257,812.152 547.096,814.585C545.437,818.06 543.762,821.529 542.069,824.988C538.962,831.329 535.795,837.64 532.565,843.918C525.828,857.011 518.694,869.903 511.374,882.677C509.66,885.668 506.916,883.997 505.736,881.714C492.368,855.844 478.022,830.178 466.152,803.577C465.019,801.038 467.671,794.709 470.095,798.105C471.869,796.654 474.485,797.042 475.676,800.995C479.566,813.904 486.386,824.946 493.821,836.059C499.914,845.165 505.376,854.638 510.214,864.453C517.196,853.293 524.077,842.01 529.511,830.01C534.241,819.559 538.133,808.63 545.593,799.832ZM194.114,851.756C191.943,855.54 189.712,859.291 187.449,863.021C183.846,868.958 179.642,874.728 177.449,881.371C176.265,884.956 172.938,884.492 171.446,881.518C158.307,855.339 143.681,829.543 132.29,802.539C130.926,799.307 133.62,794.308 136.078,796.386C137.946,795.42 140.018,796.704 140.725,798.758C145.225,811.845 152.546,823.583 159.089,835.698C164.724,846.133 169.775,856.848 174.247,867.821C177.777,862.306 181.302,856.774 184.765,851.203C187.259,846.942 189.697,842.649 192.046,838.307C198.943,825.553 203.866,811.277 212.705,799.685C216.547,794.647 220.283,802.545 218.572,806.247C211.318,821.945 202.966,836.985 194.114,851.756ZM1000,878.424C989.501,855.296 975.86,833.928 967.592,809.848C966.873,808.157 966.164,806.461 965.464,804.759C963.48,799.932 968.281,792.097 971.806,798.829C981.131,816.638 990.593,834.373 1000,852.14L1000,878.424ZM343.172,752.502C343.449,752.411 343.746,752.355 344.063,752.337C344.902,752.29 345.529,752.729 346.018,753.319C346.949,753.681 347.589,754.706 347.965,755.586C348.309,756.395 348.46,757.296 348.448,758.195C348.739,760.719 347.956,764.061 345.39,765.063C344.835,765.28 344.297,765.337 343.787,765.272C343.589,765.309 343.386,765.331 343.178,765.334C342.003,765.354 341.02,764.523 340.395,763.614C339.351,762.098 339.125,760.126 339.337,758.344C339.389,757.9 339.482,757.46 339.614,757.037C339.725,755.421 340.386,753.508 341.949,752.743C342.354,752.545 342.768,752.473 343.172,752.502ZM844.894,763.983C844.715,764.133 844.52,764.269 844.309,764.391C841.46,766.034 839.104,762.858 838.286,760.49C837.468,758.116 837.233,754.727 839.331,752.882C840.541,751.817 842.309,751.971 843.803,752.124C845.964,752.343 847.52,753.284 848.4,755.372C849.423,757.8 849.306,761.506 847.153,763.332C846.505,763.88 845.67,764.156 844.894,763.983ZM178.788,763.321C176.777,763.14 175.399,761.337 174.999,759.433C174.543,757.263 174.782,754.144 176.573,752.602C177.162,752.094 177.882,751.71 178.679,751.691C179.116,751.68 179.515,751.777 179.877,751.947C180.201,751.913 180.535,751.936 180.902,752.073C181.402,752.26 181.814,752.57 182.147,752.958C183.187,753.808 183.859,755.23 184.106,756.459C184.576,758.801 183.988,762.205 181.553,763.312C180.761,763.672 180.028,763.703 179.206,763.474C179.06,763.433 178.921,763.382 178.788,763.321ZM7.37,751.98C7.419,751.975 7.468,751.972 7.518,751.97C8.29,751.946 9.011,752.21 9.603,752.711C11.228,754.089 11.638,756.669 11.321,758.666C11.032,760.488 10.101,762.09 8.448,762.966C7.264,763.595 5.887,763.857 4.635,763.198C2.561,762.107 1.471,759.736 1.502,757.436C1.531,755.246 2.374,752.597 4.568,751.641C5.552,751.213 6.537,751.412 7.37,751.98ZM676.206,751.582C676.402,751.432 676.614,751.296 676.859,751.183C677.734,750.781 678.682,750.748 679.595,751.006C682.012,751.69 683.09,754.619 683.166,756.874C683.238,759.062 682.439,762.053 680.119,762.873C679.49,763.096 678.854,763.147 678.224,763.021C677.891,763.142 677.538,763.206 677.17,763.197C675.483,763.154 674.355,761.653 673.786,760.225C673.141,758.608 673.028,756.833 673.247,755.122L673.286,755.138C673.348,754.749 673.433,754.36 673.536,753.97C673.871,752.7 674.982,751.615 676.206,751.582ZM507.414,749.968C508.248,749.606 509.192,749.575 510.098,749.945C511.697,750.598 512.71,752.1 513.411,753.601C514.361,755.635 514.035,758.686 512.427,760.298C512.303,760.422 512.165,760.531 512.016,760.623C511.646,761.026 511.199,761.371 510.653,761.637C509.487,762.204 508.197,762.078 507.117,761.421C505.688,760.551 504.882,758.862 504.574,757.26C504.211,755.368 504.405,752.915 505.627,751.333C506.137,750.671 506.576,750.162 507.397,749.972L507.414,749.968ZM845.497,754.784L845.493,754.784C845.544,754.839 845.595,754.896 845.646,754.955C845.584,754.884 845.535,754.828 845.497,754.784ZM174.37,631.449C175.663,629.536 177.947,629.694 179.269,631.522C188.096,643.726 192.57,658.611 200.25,671.546C207.711,684.113 215.824,696.413 220.221,710.477C220.894,712.629 221.179,715.603 219.483,717.426C218.019,718.998 216.128,718.92 214.843,717.119C209.002,708.94 204.383,699.718 199.828,690.594C191.989,676.488 184.17,662.371 176.242,648.319C173.138,655.353 168.765,661.689 164.751,668.31C163.09,672.863 161.493,677.434 159.154,681.704L159.072,681.853C154.064,695.172 146.783,707.552 140.057,720.061C139.122,721.8 138.04,722.243 137.024,721.902C134.425,724.028 131.219,718.754 132.612,715.154C133.199,713.638 133.933,712.264 134.744,710.942C140.721,697.668 146.542,684.302 152.858,671.189C154.019,668.78 155.347,666.428 156.756,664.102C157.969,661.306 159.372,658.607 161.134,655.978C161.481,655.138 161.842,654.306 162.224,653.483C164.744,648.056 167.649,642.832 170.668,637.673C170.67,637.539 170.669,637.405 170.666,637.271C170.632,635.588 172.22,631.307 174.37,631.449ZM504.955,635.011C505.21,634.408 505.463,633.808 505.715,633.207C507.107,629.884 510.227,629.77 511.77,633.057C517.068,644.341 522.694,655.449 528.634,666.385C529.815,668.461 530.996,670.536 532.178,672.611C533.875,675.592 535.535,678.622 537.199,681.665C538.097,683.219 539.002,684.769 539.913,686.317C541.274,687.985 542.575,689.699 543.701,691.548C545.092,693.834 546.285,696.212 547.352,698.646C549.568,702.232 551.817,705.799 554.101,709.346C556.273,712.724 553.768,721.074 550.186,718.162C548.199,719.604 545.771,718.289 545.025,716.024C543.73,712.106 542.444,708.125 540.749,704.346C539.242,701.818 537.785,699.254 536.353,696.676C532.699,691.686 528.458,687.398 525.378,681.955C519.696,671.914 514.864,661.431 510.283,650.848C507.077,657.285 503.784,663.674 500.429,670.03C498.148,674.648 495.676,679.175 493.12,683.672C486.52,695.833 479.763,707.908 473.035,720.006C471.726,722.36 469.062,722.131 467.597,720.138C465.836,717.74 466.15,714.373 467.394,711.856C469.205,708.191 471.184,704.571 473.256,700.973C475.302,697.188 477.353,693.405 479.407,689.619C488.15,671.879 496.838,654.111 504.571,635.916C504.67,635.614 504.799,635.309 504.955,635.011ZM837.844,632.019L838.037,631.626C839.614,628.414 842.703,630.422 843.8,632.611L844.325,633.659C861.441,657.729 874.678,684.067 887.697,710.511C888.731,712.61 888.555,716.261 886.898,718.042C885.47,719.575 883.035,719.858 881.869,717.71C878.573,711.631 872.64,707.661 869.119,701.698C865.428,695.447 862.504,688.658 859.286,682.154C853.119,669.689 846.954,657.223 840.787,644.759C839.447,647.537 838.11,650.316 836.779,653.099C836.333,655.947 835.794,658.762 835.111,661.575C833.476,668.297 831.198,674.772 828.364,681.081C822.493,694.151 814.886,706.277 807.14,718.296C806.952,718.587 806.763,718.84 806.573,719.059C806.439,719.317 806.304,719.575 806.169,719.834C804.228,723.531 801.808,719.956 801.267,716.838C800.423,714.622 800.277,711.803 801.422,710.037C802.53,708.328 803.64,706.616 804.746,704.897C812.028,685.456 820.947,666.548 830.071,647.859C831.334,641.542 833.629,636.937 837.844,632.019ZM340.661,631.039C341.979,629.308 344.278,628.527 345.769,630.988C361.098,656.285 369.099,685.481 387.078,709.231C388.581,711.216 388.688,714.624 387.56,716.791C386.728,718.39 384.415,720.277 382.715,718.395C382.45,718.102 382.188,717.808 381.928,717.511L381.928,717.512L381.92,717.502C372.705,706.998 366.571,694.696 360.763,682.055C355.261,670.078 349.22,658.644 342.496,647.41C332.097,671.509 320.04,694.726 307.598,717.859C307.036,718.905 306.209,719.458 305.327,719.593C304.569,720.952 303.198,721.563 301.718,720.585C299.894,719.381 300.066,716.381 300.532,714.583L300.657,714.109C300.584,712.458 300.984,710.763 301.731,709.383L302.438,708.077C306.216,696.449 311.687,685.535 317.143,674.56C324.091,660.583 331.039,646.605 337.987,632.629C338.559,631.478 339.616,630.974 340.661,631.039ZM641.626,697.785C646.208,688.516 651.035,679.362 655.779,670.19C659.614,662.77 663.734,655.424 667.128,647.789C669.607,642.215 671.044,636.023 675.693,631.769C677.683,629.948 679.636,631.723 680.568,633.579C693.395,659.115 706.221,684.651 719.047,710.187C720.86,713.796 716.59,722.397 713.51,717.028C706.283,704.431 699.057,691.833 691.965,679.16C686.63,669.623 680.956,660.105 676.556,650.066C672.075,661.431 667.79,673.072 661.944,683.687C655.515,695.358 645.679,705.076 641.517,717.944C640.861,719.97 639.066,721.405 637.177,720.764C634.95,721.469 632.88,716.494 633.929,714.128L634.231,713.447C634.311,712.953 634.425,712.483 634.568,712.056C636.283,706.902 638.789,702.245 641.626,697.785ZM1000,641.94L1000,664.935C997.722,668.804 995.363,672.627 993.13,676.49C992.384,677.781 991.645,679.077 990.915,680.378C984.841,692.624 978.935,704.949 973.103,717.332C972.04,719.59 970.725,720.331 969.499,720.127C967.1,722.089 964.34,716.224 965.502,713.553L965.773,712.933C965.85,712.433 965.987,711.943 966.19,711.475C974.726,691.543 984.319,671.988 994.573,652.846C996.387,649.211 998.199,645.576 1000,641.94ZM0,641.94C1.595,638.72 3.183,635.498 4.757,632.273C5.843,630.047 8.343,630.503 9.597,632.154C18.729,644.18 26.485,657.205 32.649,670.993C34.254,674.584 35.63,678.339 36.979,682.129C41.307,690.633 45.541,699.181 49.585,707.823L49.735,708.008C50.26,708.647 50.591,709.458 50.756,710.341L51.188,711.277C52.78,714.732 49.839,722.524 45.886,717.828C45.812,717.739 45.738,717.651 45.664,717.562C45.279,717.303 44.885,716.936 44.486,716.447C36.338,706.449 32.167,694.247 26.571,682.798C21.261,671.933 14.008,661.803 6.97,651.843C4.932,656.336 2.516,660.663 0,664.935L0,641.94ZM509.137,586.518C509.64,586.414 510.159,586.456 510.651,586.669C510.712,586.667 510.773,586.667 510.834,586.669C512.045,586.706 512.954,587.39 513.608,588.302C514.718,589.476 515.238,591.402 515.261,592.87C515.285,594.471 514.712,596.778 513.358,597.985C512.418,599.076 511.002,599.68 509.551,599.193C508.641,598.887 507.972,598.255 507.498,597.467C506.719,596.935 506.164,596.046 505.812,595.21C504.702,592.576 505.365,587.872 508.374,586.675C508.625,586.575 508.883,586.524 509.137,586.518ZM8.209,598.244C7.663,598.387 7.055,598.391 6.39,598.214C3.612,597.474 2.79,593.765 3.176,591.319C3.527,589.092 5.118,586.427 7.684,586.483C10.564,586.544 12.364,589.284 12.66,591.898C12.846,593.547 12.638,595.328 11.707,596.747C11.318,597.341 10.803,597.863 10.157,598.175C9.431,598.527 8.94,598.381 8.209,598.244ZM677.467,585.574C677.508,585.537 677.549,585.5 677.59,585.464C678.076,584.99 678.657,584.733 679.333,584.695C680.008,584.7 680.601,584.928 681.11,585.377C681.84,585.841 682.376,586.783 682.716,587.551C682.945,588.068 683.118,588.667 683.226,589.266C683.538,590.132 683.687,591.063 683.673,591.955C683.647,593.777 683.193,595.716 681.814,597.009C680.923,597.845 679.605,598.116 678.466,597.684C678.15,597.639 677.863,597.531 677.601,597.377C677.063,597.561 676.485,597.574 675.905,597.346C674.84,596.926 674.186,595.921 673.729,594.928C672.947,593.229 672.966,590.66 673.972,588.855C674.317,587.878 674.863,586.99 675.648,586.302C676.136,585.874 676.808,585.589 677.467,585.574ZM841.341,595.133C841.195,594.982 841.069,594.825 840.971,594.671C839.629,592.573 839.392,589.864 840.259,587.532C840.862,585.911 842.193,584.289 844.043,584.17C844.978,584.11 845.81,584.46 846.5,585.022C847.797,585.442 848.787,586.766 849.267,587.963C849.731,589.12 849.906,590.33 849.858,591.54C849.879,592.133 849.85,592.732 849.784,593.328C849.586,595.111 848.427,597.07 846.524,597.301C846.353,597.322 846.175,597.33 845.995,597.326L845.971,597.338C844.901,597.906 843.338,597.75 842.497,596.817C842.007,596.273 841.629,595.732 841.341,595.133ZM339.011,595.24C338.761,595.142 338.513,595.001 338.272,594.814C337.523,594.233 336.975,593.422 336.651,592.528C335.799,590.179 335.917,587.403 337.307,585.278C338.284,583.782 339.746,583.191 341.446,582.963C343.416,582.697 345.043,584.194 345.735,585.923C346.48,587.785 346.51,589.785 346.033,591.709C346.05,593.251 345.603,594.836 344.709,595.943C344.156,596.627 343.487,597.067 342.599,597.149C341.719,597.232 340.623,596.485 340.14,595.759C339.752,595.649 339.371,595.474 339.011,595.24ZM175.943,583.656C176.428,583.241 177.019,582.966 177.727,582.93C178.492,582.891 178.948,583.212 179.52,583.459C180.34,583.508 181.048,584.013 181.567,584.665C181.73,584.794 181.886,584.931 182.033,585.074C183.731,586.727 184.331,589.268 183.945,591.567C183.612,593.549 182.359,595.714 180.137,595.831C179.287,595.876 178.449,595.444 177.787,594.971C177.739,594.936 177.692,594.902 177.646,594.867C177.199,594.925 176.724,594.887 176.231,594.73C175.09,594.367 174.396,593.147 173.995,592.109C173.518,590.872 173.352,589.628 173.435,588.315C173.542,586.628 174.304,584.424 175.943,583.656ZM345.797,592.603C345.772,592.691 345.747,592.78 345.722,592.868C345.697,592.957 345.672,593.046 345.646,593.134C345.512,593.599 345.596,593.969 345.797,592.603ZM205.817,483.581C208.591,477.525 211.382,471.472 214.188,465.427C216.89,459.605 221.985,464.865 220.854,469.48C220.746,469.92 220.633,470.356 220.514,470.788L220.525,470.795L220.495,470.859C218.675,477.478 215.641,483.334 212.136,488.962C202.965,508.965 193.979,529.048 185.185,549.225C184.129,551.647 181.402,553.373 179.527,550.48C179.223,550.011 178.92,549.542 178.618,549.074C177.805,548.734 177.032,547.99 176.454,546.909C174.908,544.019 173.351,541.135 171.784,538.257C166.336,529.456 161.09,520.534 156.068,511.483C153.077,506.092 150.162,500.659 147.328,495.184C143.149,488.23 138.986,481.227 135.496,473.982C135.333,473.807 135.167,473.636 134.998,473.467C134.114,472.584 133.4,470.602 133.219,468.602C133.194,468.406 133.182,468.202 133.181,467.994C133.09,465.406 133.96,462.972 136.586,463.063C142.754,463.278 145.177,472.103 147.74,476.654C151.248,482.885 154.836,489.073 158.528,495.196C165.576,506.885 172.957,518.396 180.55,529.744C184.239,519.84 188.387,510.092 193.828,501.026C197.379,495.107 201.887,489.485 205.817,483.581ZM0,507.901C3.484,513.925 6.96,519.961 10.684,525.834C13.917,517.335 18.61,509.594 23.823,501.973C30.371,492.402 39.787,481.766 42.426,470.221C42.939,467.982 43.96,466.849 45.078,466.532C45.324,465.952 45.569,465.368 45.812,464.783L45.873,464.641C48.447,458.726 53.324,465.428 51.675,469.751C47.039,481.905 41.264,493.537 34.996,504.913C34.305,506.214 33.6,507.507 32.879,508.793C32.383,509.68 31.879,510.563 31.371,511.444C24.718,523.594 18.84,535.987 13.3,548.713C11.516,552.813 7.82,551.445 6.867,547.597C5.374,541.564 2.926,535.943 0,530.549L0,507.901ZM341.242,550.197C339.834,551.517 337.958,551.646 336.684,549.723C328.822,537.863 324.292,524.13 318.639,511.164C312.496,497.072 305.889,483.196 299.282,469.318C298.136,466.911 300.667,461.138 302.916,463.999C304.224,463.096 305.903,463.22 306.87,464.847C313.74,476.417 321.02,487.676 326.394,500.059C327.112,501.715 327.808,503.382 328.492,505.054C329.325,506.784 330.03,508.604 330.674,510.46C333.504,517.523 336.338,524.587 339.986,531.258C344.463,523.66 349.167,516.213 354.106,508.918C354.881,507.386 355.684,505.87 356.527,504.377C364.032,491.079 373.075,478.72 380.478,465.36C381.588,463.358 383.699,463.373 385.154,464.82C386.915,466.572 386.895,469.599 386.245,471.81C384.354,478.239 380.823,484.216 377.697,490.108C374.165,496.764 370.498,503.349 366.737,509.88C359.21,522.947 351.311,535.797 343.357,548.608C342.718,549.637 341.982,550.114 341.242,550.197ZM715.481,463.933C717.762,461.778 720.791,465.665 720.082,468.967C718.462,476.515 714.658,483.254 710.611,489.899C701.79,509.202 693.235,528.63 684.451,547.944C684.08,548.758 683.562,549.441 682.966,549.865C681.857,551.397 680.029,550.917 678.91,549.583C672.969,542.504 668.679,534.175 664.528,525.793C660.353,519.713 656.341,513.527 652.836,507.071C650.138,502.101 647.697,496.992 645.152,491.948C640.538,485.338 636.139,478.605 632.708,471.175C632.366,470.434 632.264,469.455 632.355,468.454C631.568,466.434 633.445,462.44 635.17,463.841C635.883,463.758 636.69,464.138 637.539,465.207C642.792,471.822 646.739,479.182 650.546,486.636C654.44,492.057 658.458,497.401 662.013,503.003C666.204,509.607 669.485,516.621 672.941,523.546C674.72,526.008 676.51,528.46 678.284,530.914C682.023,520.838 687.044,511.328 692.439,502.009C695.719,496.345 699.107,490.743 702.366,485.066C703.923,482.354 705.454,479.627 706.926,476.868C707.726,475.368 708.514,473.86 709.285,472.345C709.218,472.477 710.317,470.493 710.921,469.62C710.667,467.644 711.044,465.539 712.292,464.477L712.526,464.278C713.521,463.431 714.566,463.416 715.481,463.933ZM469.902,463.383C471.058,462.359 472.557,462.327 474.093,464.362C483.332,476.61 488.81,490.75 494.422,504.837C498.673,513.648 502.835,522.503 506.906,531.403C512.08,522.808 519.055,515.219 524.386,506.721C527.901,501.118 531.194,495.377 534.576,489.692C536.19,486.979 537.876,484.303 539.464,481.575C540.943,478.562 542.45,475.562 543.996,472.581C544.068,472.403 544.139,472.225 544.209,472.046C544.511,471.27 544.852,470.68 545.215,470.251C546.178,468.424 547.158,466.604 548.156,464.793C551.11,459.434 555.577,467.637 553.895,471.212C552.172,474.871 550.45,478.533 548.717,482.186C547.687,484.555 546.56,486.894 545.368,489.207C541.536,497.181 537.616,505.114 533.494,512.931L532.877,514.255C528.16,524.353 522.945,534.164 516.048,542.839C514.675,544.936 513.274,547.017 511.843,549.079C510.572,550.911 508.265,551.346 506.882,549.487C506.178,548.956 505.593,548.17 505.244,547.404L504.299,545.332L504.234,545.231C503.562,544.167 502.912,543.092 502.281,542.008C488.262,518.78 475.687,494.486 466.109,469.117C464.93,465.996 467.605,460.996 469.902,463.383ZM801.538,463.946C802.625,462.951 803.946,462.919 805.081,464.937C807.138,468.596 809.141,472.28 811.038,476.019C816.418,485.629 822.259,494.896 828.777,503.877C832.987,509.678 837.367,515.354 841.665,521.09C843.235,523.185 845.25,525.368 846.943,527.704C851.808,518.91 857.821,510.822 862.805,502.031C869.57,490.101 873.686,476.831 881.22,465.311C884.421,460.415 887.361,468.05 886.364,471.064C877.356,498.291 863.227,523.808 848.069,548.033C846.518,550.513 844.087,549.384 843.067,547.178C837.506,535.142 829.409,524.645 822.047,513.692C821.08,512.473 820.139,511.234 819.244,509.962C815.803,505.075 813.127,499.702 810.637,494.211C808.875,490.642 807.251,487.011 805.762,483.319C803.72,479.404 801.739,475.456 799.774,471.494C799.003,469.939 799.406,467.423 800.348,465.585C800.578,464.867 801.021,464.253 801.538,463.946ZM1000,530.549C999.547,529.712 999.082,528.882 998.607,528.056C994.225,521.17 989.488,514.489 985.282,507.484C984.791,506.667 984.317,505.842 983.855,505.012C981.231,500.823 978.747,496.548 976.583,492.098C975.226,489.306 974,486.448 972.755,483.601C969.708,478.961 966.183,474.691 965.098,469.04C964.485,465.849 967.164,459.72 970.578,463.936C979.025,474.365 986.529,485.301 993.47,496.786C995.691,500.46 997.847,504.178 1000,507.901L1000,530.549ZM173.807,430.459C173.514,430.398 173.255,430.253 173.03,430.023C172.717,429.772 172.456,429.426 172.226,429.095C171.476,428.02 171.125,426.637 171.077,425.338C170.997,423.137 171.801,420.767 173.825,419.67C175.106,418.976 176.629,419.165 177.783,420C178.387,420.437 178.852,421.025 179.193,421.695C179.899,422.45 180.352,423.496 180.61,424.557C180.877,425.65 180.798,427.334 180.226,428.647C180.098,429.089 179.91,429.504 179.643,429.862C179.123,430.559 178.663,431.134 177.815,431.431C176.968,431.729 176.11,431.666 175.342,431.199C175.201,431.113 175.066,431.018 174.94,430.917C174.502,430.823 174.042,430.673 173.807,430.459ZM510.404,430.451C510.248,430.497 510.089,430.537 509.926,430.569C507.191,431.11 505.249,428.251 504.806,425.924C504.225,422.88 504.897,419.488 507.694,417.799C508.251,417.555 508.815,417.541 509.384,417.758C509.47,417.81 509.555,417.862 509.638,417.915C510.405,417.673 511.095,417.6 511.874,417.906C512.701,418.231 513.288,418.867 513.84,419.526C514.841,420.719 515.261,422.292 515.432,423.804C515.641,425.651 515.343,427.84 514.225,429.394C513.624,430.23 512.94,430.853 511.887,430.95C511.354,431 510.843,430.777 510.404,430.451ZM5.938,429.712C4.789,429.717 3.641,429.213 2.812,428.285C0.784,426.015 0.64,422.434 1.914,419.762C2.595,418.333 3.898,416.75 5.677,417.386C5.947,417.482 6.204,417.609 6.447,417.761C6.807,417.755 7.184,417.816 7.572,417.955C7.736,418.013 7.893,418.082 8.042,418.161C8.733,418.256 9.39,418.557 9.958,419.059C11.881,420.758 12.219,423.86 11.629,426.212C11.197,427.936 10.213,429.555 8.534,430.306C7.549,430.746 6.629,430.373 5.938,429.712ZM678.235,419.211C679.374,418.789 680.604,419.011 681.777,419.569C684.119,420.682 684.432,424 683.718,426.176C683.451,426.986 682.943,427.811 682.251,428.363C681.423,429.41 680.207,430.072 678.839,429.827C677.625,429.609 676.747,428.744 676.15,427.717C676.046,427.546 675.952,427.367 675.871,427.184C675.831,427.1 675.794,427.016 675.758,426.932C674.885,424.891 675.07,422.385 676.174,420.481C676.644,419.669 677.381,419.202 678.235,419.211ZM342.936,426.825C342.72,426.723 342.508,426.593 342.301,426.431C340.527,425.047 339.815,422.122 340.335,420.003C340.627,418.812 340.947,417.697 342.012,416.975C342.613,416.568 343.205,416.489 343.787,416.662C343.896,416.638 344.008,416.621 344.124,416.611C344.339,416.593 344.553,416.604 344.763,416.64C345.137,416.605 345.523,416.648 345.913,416.782C346.42,416.957 346.862,417.276 347.236,417.677C348.319,418.379 349.069,419.826 349.337,421.069C349.63,422.427 349.578,424.029 349.044,425.318C348.619,426.345 347.995,427.408 346.91,427.854C346.457,428.04 345.996,428.097 345.548,428.046C344.815,428.101 344.19,427.834 343.5,427.365C343.285,427.219 343.099,427.035 342.936,426.825ZM848.514,413.728C848.877,413.602 849.263,413.537 849.664,413.551C851.917,413.626 852.6,416.239 852.77,418.038C852.794,418.301 852.801,418.573 852.788,418.848L852.817,418.946C853.215,420.308 852.887,422.922 851.642,423.822C851.034,424.26 850.449,424.578 849.779,424.596C849.373,424.707 848.934,424.705 848.471,424.546C848.008,424.386 847.604,424.104 847.257,423.747C846.758,423.56 846.283,423.235 845.873,422.776C845.59,422.459 845.348,422.104 845.148,421.724C844.268,420.855 843.856,419.268 843.852,418.232C843.844,416.62 844.367,414.743 845.914,413.959C846.198,413.815 846.512,413.735 846.834,413.708C847.418,413.491 847.988,413.524 848.514,413.728ZM657.659,334.09C663.487,322.115 669.233,310.096 674.927,298.045C676.486,294.745 679.451,294.448 681.126,297.893C693.822,324.003 711.572,347.866 720.521,375.708C721.229,377.91 721.498,380.988 719.762,382.852C718.369,384.351 716.159,384.528 714.994,382.538C713.003,379.14 711.024,375.738 709.066,372.321C708.282,371.863 707.642,371.074 707.339,370.094C707.143,369.461 706.939,368.832 706.726,368.209C702.25,360.288 697.926,352.286 693.913,344.107C692.898,342.04 691.938,339.916 691.002,337.761C688.404,333.32 685.889,328.811 683.729,324.14C682.167,320.762 680.866,317.269 679.33,313.885C673.663,324.57 667.927,335.216 662.131,345.833C657.696,353.959 653.113,362.057 648.951,370.348C647.013,374.522 645.073,378.695 643.131,382.867C642.11,385.062 640.849,385.791 639.672,385.604L639.069,386.644C637.973,388.53 636.002,388.281 634.776,386.749C633.338,384.952 633.635,382.116 634.615,380.21C635.591,378.313 636.564,376.414 637.535,374.512C640.985,366.457 644.788,358.536 648.805,350.703C650.827,346.205 652.892,341.684 655.485,337.554C656.095,336.583 656.713,335.627 657.334,334.68L657.659,334.09ZM341.935,297.852C343.552,295.981 346.139,297.466 347.029,299.555C358.165,325.713 371.264,350.823 385.968,375.144C387.247,377.259 387.604,380.168 386.432,382.422C385.604,384.012 383.449,385.72 381.768,383.966C381.366,383.547 380.977,383.122 380.599,382.691C379.128,383.828 377.29,383.595 375.918,380.523C366.379,359.159 355.344,338.562 342.8,318.834C342.071,320.827 341.245,322.79 340.319,324.719C337.996,329.556 334.946,333.698 331.806,337.858C326.475,348.137 321.23,358.462 316.081,368.833C314.229,373.619 312.167,378.306 309.309,382.611C308.278,384.162 306.773,384.654 305.425,384.059C305.02,384.772 304.615,385.483 304.209,386.194C301.706,390.571 298.126,383.848 299.502,380.931C304.064,371.256 308.809,361.667 313.654,352.123C315.436,347.453 317.377,342.855 320.051,338.595C320.754,337.474 321.505,336.39 322.286,335.326C327.848,324.61 333.471,313.928 339.037,303.226C339.127,302.698 339.211,302.169 339.289,301.638C339.585,299.604 340.667,298.256 341.935,297.852ZM146.451,350.417C154.218,333.212 162.504,316.226 170.497,299.151C171.959,296.029 174.668,295.562 176.409,298.295C176.644,298.607 176.866,298.967 177.07,299.375L190.057,325.286C198.69,341.826 207.751,358.136 217.19,374.237C218.483,376.443 218.888,379.392 217.668,381.736C216.828,383.349 214.571,385.164 212.862,383.327C203.46,373.226 198.101,359.963 191.948,347.783L174.023,312.298C163.114,336.171 151.968,359.931 140.528,383.55C139.907,384.834 138.862,385.379 137.783,385.365L137.75,385.425C135.554,389.384 132.66,383.427 133.539,380.851C133.183,378.832 133.627,376.644 134.509,374.856C138.525,366.726 142.507,358.579 146.451,350.417ZM843.266,299.817C843.452,299.566 843.64,299.315 843.83,299.065C845.827,296.435 848.307,297.287 849.625,300.055C861.985,326.005 879.629,349.234 889.482,376.402C890.281,378.606 890.439,381.854 888.704,383.717C887.321,385.203 884.99,385.472 883.843,383.434C883.065,383.093 882.287,382.32 881.585,380.982C870.101,359.125 857.924,337.644 845.001,316.609C841.59,326.685 836.282,336.371 831.543,345.653C824.891,358.683 817.637,371.477 809.503,383.644C808.467,385.193 807.423,385.672 806.487,385.459C803.268,389.429 800.802,381.88 802.39,378.892L803.18,377.399C803.291,376.683 803.507,376.021 803.843,375.468C804.87,373.776 805.886,372.073 806.889,370.359C812.757,359.15 818.458,347.884 823.835,336.41C828.92,325.559 833.594,314.368 840.147,304.31C840.172,304.184 840.197,304.06 840.221,303.936C840.609,301.912 841.795,300.194 843.266,299.817ZM480.474,354.8C483.403,349.315 486.373,343.85 489.373,338.402C496.275,325.867 504.768,313.292 509.559,299.766C510.169,298.046 512.634,295.695 514.414,297.687C518.971,302.789 521.49,308.685 524.321,314.836C527.795,322.381 531.74,329.692 536.116,336.752C540.058,343.113 544.403,349.066 547.037,356.132C549.495,362.726 551.071,369.63 555.249,375.42C557.959,379.174 554.444,388.818 550.268,383.427C538.52,368.259 530.784,350.841 523.016,333.435L522.98,333.375C520.547,329.415 517.538,325.825 515.186,321.825C514.302,320.32 513.766,318.187 513.145,316.142C509.167,326.374 504.52,336.362 499.2,345.955C495.655,352.348 491.791,358.571 487.617,364.572C485.368,367.805 482.863,370.913 480.579,374.156C478.988,377.39 477.393,380.615 475.207,383.489C474.136,384.898 473.081,385.443 472.12,385.398C471.028,387.066 469.222,386.846 468.048,385.379C466.649,383.631 466.963,380.915 467.892,379.061L467.959,378.929C467.887,377.819 468.017,376.745 468.398,375.874C470.289,371.551 472.714,367.485 475.376,363.537C476.385,361.502 477.424,359.484 478.646,357.567C479.241,356.635 479.852,355.714 480.474,354.8ZM1000,307.779L1000,337.662C992.259,353.765 981.542,368.772 972.169,383.511C968.042,390.002 963.127,379.153 966.031,374.644C969.449,369.336 972.927,364.059 976.379,358.763C984.373,341.824 992.379,324.887 1000,307.779ZM0,307.779C1.217,305.049 2.422,302.317 3.616,299.579C5.069,296.25 8.099,296.125 9.703,299.43C21.983,324.731 35.533,349.41 49.992,373.528C51.397,375.873 51.83,379.405 50.194,381.787C48.682,383.991 46.406,383.946 44.772,381.92C29.128,362.522 18.004,340.158 7.625,317.615C5.754,324.511 3.119,331.175 0,337.662L0,307.779ZM515.658,259.136C517.306,262.032 516.661,266.609 513.753,268.238C512.604,268.883 511.016,268.93 509.826,268.358C508.011,267.489 506.919,265.781 506.42,263.882C505.787,261.469 506.262,258.463 508.107,256.677C509.272,255.549 511.102,254.952 512.659,255.596C514.181,256.226 515.145,257.602 515.658,259.136ZM178.107,263.257C177.343,264.691 176.027,265.784 174.274,265.724C171.538,265.631 169.764,263.193 169.296,260.691C168.774,257.89 169.524,254.351 171.943,252.58C172.914,251.87 174.122,251.754 175.003,252.472C176.792,252.472 178.448,253.433 179.498,254.995C180.899,257.079 180.976,260.73 179.045,262.557C178.763,262.824 178.447,263.062 178.107,263.257ZM8.458,252.136C9.418,251.558 10.563,251.365 11.77,251.834C13.841,252.639 14.705,255.087 14.825,257.116C14.913,258.619 14.429,260.831 13.122,261.919C12.752,262.567 12.254,263.128 11.603,263.504C10.494,264.659 8.875,265.271 7.262,264.866C4.719,264.228 3.642,261.151 3.59,258.814C3.539,256.485 4.521,253.125 7.044,252.341C7.544,252.186 8.016,252.122 8.458,252.136ZM343.481,263.507C342.255,262.906 341.668,261.339 341.352,260.026C340.985,258.504 341.051,256.906 341.49,255.41C341.856,254.162 342.703,252.772 343.946,252.222C344.804,251.842 345.668,251.886 346.455,252.234C346.602,252.22 346.753,252.22 346.906,252.237C349.029,252.472 350.047,254.797 350.027,256.91C350.254,258.64 349.85,260.496 348.882,261.866C348.644,262.203 348.362,262.532 348.045,262.826C348.002,262.908 347.958,262.989 347.913,263.068C347.425,263.931 346.572,264.524 345.588,264.615C344.779,264.69 344.037,264.13 343.539,263.573C343.52,263.551 343.5,263.529 343.481,263.507ZM842.545,258.393C842.53,258.359 842.516,258.324 842.503,258.289C842.064,257.14 841.974,255.848 842.186,254.64C842.488,252.91 843.669,250.816 845.667,250.749C845.965,250.739 846.243,250.773 846.501,250.845C846.544,250.848 846.587,250.852 846.629,250.858C847.077,250.829 847.543,250.893 848.017,251.07C848.912,251.406 849.603,252.024 850.108,252.8C850.161,252.868 850.212,252.939 850.261,253.01C852.096,255.68 851.862,260.191 849.415,262.429C848.695,263.087 847.69,263.516 846.708,263.446C845.016,263.324 843.826,262.11 843.18,260.608C842.953,260.082 842.791,259.51 842.693,258.919C842.637,258.746 842.587,258.571 842.545,258.393ZM679.317,262.355C678.108,262.839 676.778,262.208 675.964,261.296C674.758,259.945 674.381,258.128 674.493,256.361C674.652,253.853 676.546,250.199 679.641,251.372C679.876,251.461 680.098,251.572 680.307,251.702C681.739,251.507 683.044,252.776 683.638,254.148C684.48,256.095 684.392,258.811 683.105,260.563C682.929,260.802 682.743,261.015 682.546,261.203C682.018,261.95 681.294,262.473 680.361,262.56C680,262.593 679.647,262.513 679.317,262.355ZM510.335,197.246C521.545,174.439 533.25,151.868 545.344,129.518C548.22,124.204 552.71,132.322 551.03,135.877C538.518,162.345 525.853,188.741 513.256,215.168C512.165,217.458 509.765,219.089 507.896,216.358C491.958,193.074 479.506,167.265 468.893,141.116C468.432,140.339 467.969,139.561 467.505,138.785C466.781,137.575 466.321,136.043 466.285,134.524C465.558,131.82 467.484,128.123 469.445,129.18C470.578,128.905 471.786,129.313 472.594,130.603C486.149,152.254 498.723,174.495 510.335,197.246ZM710.274,139.037C711.274,135.361 712.398,131.733 714.648,128.757C717.434,125.072 720.19,129.09 720.458,132.226C720.838,136.667 718.856,140.416 716.523,143.995C716.42,144.407 716.313,144.819 716.197,145.229C715.198,148.762 713.89,152.194 712.412,155.553C709.594,161.963 706.275,168.151 703.081,174.378C696.001,188.183 688.903,201.981 681.737,215.742C680.59,217.946 678.109,217.597 676.817,215.863C667.713,203.659 658.647,191.388 651.275,178.034C643.697,164.307 638.359,149.501 633.255,134.718C632.3,131.955 634.687,127.378 636.71,129.849C638.085,128.58 639.908,128.638 641.336,131.636C646.938,143.397 652.785,155.069 658.85,166.629C664.745,177.157 671.091,187.431 677.887,197.437C682.678,187.159 687.806,177.048 693.294,167.121C696.586,161.167 699.997,155.28 703.543,149.475C705.317,146.572 707.123,143.69 708.961,140.827C709.28,140.329 709.751,139.716 710.274,139.037ZM137.971,146.168C136.044,142.293 134.122,138.416 132.205,134.537C130.355,130.793 134.735,121.798 137.975,127.408C150.26,148.681 163.038,169.69 175.532,190.848C187.022,170.284 198.474,149.698 209.804,129.042C212.857,123.477 217.521,131.99 215.764,135.707C203.167,162.369 190.375,188.932 177.625,215.52C176.588,217.684 173.548,217.689 172.41,215.648C159.829,193.096 147.976,170.008 137.971,146.168ZM874.325,141.149C875.227,138.375 875.96,135.534 876.481,132.607C877.235,128.379 879.784,127.862 881.712,129.296C884.082,127.553 886.905,131.287 886.783,134.072C886.551,139.381 883.696,142.545 881.158,146.286C879.57,150.974 877.557,155.462 875.3,159.835C873.852,163.952 872.391,168.059 870.503,172.065C866.616,180.312 862.077,188.281 857.896,196.411C855.695,202.445 853.422,208.419 849.994,213.859C849.906,214.096 849.82,214.332 849.734,214.568C848.461,218.072 845.207,217.823 843.685,214.717C830.263,187.327 809.551,163.817 800.617,134.266C799.735,131.347 802.962,127.58 804.76,130.212C805.78,129.244 807.046,129.224 808.238,131.23C821.031,152.747 833.493,174.304 844.5,196.762C851.374,180.501 863.172,166.361 870.607,150.47C870.811,149.869 871.012,149.266 871.21,148.662C872.052,146.094 872.974,143.503 874.325,141.149ZM0,172.424C4.906,180.651 9.562,189.026 13.911,197.569C21.758,177.445 31.088,158.009 41.367,139.015C42.778,135.935 44.364,132.941 46.274,130.105C50.168,124.319 54.083,134.035 51.721,137.972C51.105,138.997 50.495,140.026 49.892,141.055C46.679,146.896 44.527,153.159 42.105,159.401C39.221,166.835 35.395,173.501 31.313,180.323C27.443,186.79 25.432,193.435 22.962,200.475C21.626,204.282 19.928,207.913 17.517,211.026C17.301,211.615 17.085,212.208 16.871,212.801C16.132,214.843 14.524,215.777 13.04,215.482L12.901,215.587C10.751,217.188 9.128,215.785 8.059,213.79C5.39,208.808 2.697,203.832 0,198.858L0,172.424ZM367.316,160.597C370.448,150.451 373.783,140.404 379.672,131.421C383.129,126.147 386.888,134.335 385.411,137.84C381.455,147.225 377.516,156.616 373.583,166.012C372.478,169.659 371.396,173.317 370.207,176.931C366.812,187.247 362.281,197.126 356.711,206.415L355.062,210.366C354.52,211.667 353.563,212.693 352.497,213.036C352.15,213.55 351.8,214.063 351.446,214.574C350.009,216.649 347.856,216.661 346.344,214.699C336.948,202.505 328.168,189.786 320.168,176.632C316.923,171.298 313.666,165.888 310.563,160.384C304.967,153.653 300.224,146.442 298.55,137.394C298.435,136.773 298.435,136.035 298.536,135.266C298.393,133.121 299.649,129.884 301.217,130.077C302.261,129.485 303.526,129.723 304.881,131.497C312.851,141.94 320.717,152.49 328.134,163.335C328.844,164.374 329.111,165.835 329.043,167.322C337.05,177.271 343.99,188.216 351.114,198.849C356.519,186.098 361.926,173.35 367.316,160.597ZM1000,198.858C992.902,185.764 985.769,172.668 978.935,159.434C974.424,152.423 970.156,145.275 966.567,137.749C964.82,134.086 968.43,125.176 972.347,130.608C982.123,144.167 991.442,158.07 1000,172.424L1000,198.858ZM3.448,99.845C3.122,99.548 2.824,99.2 2.561,98.802C0.581,95.803 0.756,91.422 2.69,88.449C4.249,86.053 7.234,83.37 10.011,85.764C10.943,86.568 11.563,87.573 11.933,88.676C13.402,90.608 13.654,93.663 12.758,96.052C13.003,98.106 12.567,100.243 11.34,101.955C10.64,102.932 9.483,103.911 8.184,103.317C7.313,102.918 6.574,102.378 5.963,101.736C4.843,101.588 3.996,100.847 3.448,99.845ZM343.918,87.782C344.295,87.687 344.711,87.661 345.17,87.72C347.966,88.074 349.378,90.772 349.507,93.385C349.642,96.103 348.506,98.846 346.134,100.292C344.464,101.309 342.356,101.3 340.688,100.324C340.543,100.318 340.397,100.305 340.248,100.284C336.671,99.779 336.498,94.82 337.854,92.266C338.075,91.848 338.344,91.42 338.654,91.017C338.837,90.685 339.048,90.362 339.287,90.061C339.704,89.438 340.251,88.926 340.87,88.709C341.031,88.625 341.198,88.552 341.37,88.493C342.105,87.957 343.002,87.668 343.918,87.782ZM507.877,86.117C508.32,85.804 508.835,85.591 509.432,85.532C510.85,85.391 512.139,86.155 512.964,87.28C513.975,88.657 514.519,90.799 514.345,92.793C514.587,94.352 514.395,96.051 513.994,97.193C513.29,99.199 511.569,101.157 509.26,100.767C507.548,100.478 506.442,99.132 505.827,97.563C504.684,96.659 504.123,94.98 503.964,93.568C503.649,90.779 504.655,87.077 507.682,86.173C507.746,86.153 507.811,86.135 507.877,86.117ZM181.005,98.75C179.803,100.163 178.112,100.97 175.967,100.404C170.986,99.09 170.657,92.028 172.954,88.401C174.001,86.747 175.62,85.464 177.583,85.18C179.824,84.854 181.795,86.705 182.614,88.612C183.066,89.665 183.311,90.898 183.301,92.129C183.461,93.566 183.29,95.039 182.872,96.144C182.489,97.153 181.833,98.097 181.005,98.75ZM671.617,87.945C672.087,87.091 672.759,86.385 673.668,86.033C675.054,85.496 676.393,85.977 677.424,86.88C679.006,87.572 679.788,89.114 680.119,90.77C680.5,92.673 680.283,94.936 679.247,96.622C678.704,97.506 677.9,98.514 676.856,98.8C676.781,98.82 676.709,98.839 676.637,98.855C675.859,99.38 674.968,99.726 674.067,99.755C673.958,99.759 673.85,99.758 673.744,99.754C672.875,99.97 671.988,99.883 671.065,99.691C670.068,99.484 669.401,98.245 669.013,97.404C668.525,96.343 668.329,94.635 668.58,93.496C668.995,91.617 669.786,88.971 671.617,87.945ZM845.414,97.009C844.585,98.231 843.382,99.142 841.814,99.218C839.119,99.348 837.491,96.446 837.061,94.167C836.532,91.359 837.227,87.271 840.185,85.999C840.761,85.751 841.296,85.764 841.775,85.945C842.553,85.91 843.345,86.152 844.042,86.705C844.057,86.716 844.071,86.728 844.086,86.74C844.75,87.037 845.288,87.849 845.597,88.425C845.625,88.477 845.653,88.529 845.679,88.582C846.367,89.597 846.715,90.911 846.765,92.192C846.869,93.747 846.523,95.344 845.683,96.636C845.6,96.764 845.51,96.889 845.414,97.009ZM332.348,0C330.758,3.935 329.092,7.84 327.35,11.712C324.601,17.823 321.679,23.85 318.586,29.79C317.428,32.262 316.251,34.723 315.039,37.166C313.411,40.449 311.707,43.518 309.496,46.168C308.471,47.905 307.432,49.632 306.377,51.35C304.953,53.669 302.373,53.6 300.821,51.486C299.03,49.048 299.323,45.581 300.613,43.024C306.996,30.368 313.403,17.725 319.846,5.099C320.709,3.408 321.611,1.709 322.528,0L332.348,0ZM834.78,0C833.185,3.268 831.501,6.497 829.825,9.713C827.193,14.763 824.562,19.814 821.93,24.865C817.626,33.694 813.077,42.409 808.291,50.997C807.47,52.471 806.148,52.989 804.885,52.728C803.788,53.406 802.437,52.994 801.483,51.801C800.006,49.955 800.338,47.089 801.319,45.131L801.425,44.92C801.609,44.02 801.917,43.154 802.325,42.379C804.551,38.148 806.781,33.92 809.014,29.691C813.888,19.839 818.687,9.96 823.315,0L834.78,0ZM665.765,0C658.703,16.784 650.674,33.219 642.862,49.553C641.78,51.812 640.355,52.035 639.066,51.194C636.601,55.391 632.792,49.741 634.18,46.037C640.018,30.433 646.513,15.108 653.496,0L665.765,0ZM164.898,0C163.151,3.346 161.355,6.664 159.606,9.986C152.823,22.875 146.148,35.822 139.433,48.747C139.064,49.457 138.67,49.938 138.266,50.228L138.081,50.677C136.126,55.44 132.579,50.174 133.629,46.906L133.749,46.535C133.269,45.019 133.148,43.39 133.624,42.251C139.565,28.062 145.592,13.887 152.211,0L164.898,0ZM494.832,0C489.239,12.77 483.663,25.545 478.073,38.315C476.55,42.057 475.029,45.803 473.504,49.549C472.945,50.922 472.273,51.518 471.608,51.589C468.383,54.034 464.418,47.604 466.235,43.189C472.139,28.84 477.908,14.429 483.935,0.131L483.99,0L494.832,0ZM361.374,0C368.918,14.04 376.133,28.255 383.01,42.636C384.575,45.906 381.231,53.583 378.205,50.348C376.965,52.08 375.154,52.563 373.335,49.956C364.96,37.949 357.979,24.956 352.78,11.263C351.373,7.556 350.09,3.797 348.929,0L361.374,0ZM1000,0L1000,8.425C999.662,9.027 999.326,9.628 998.991,10.226C991.723,23.218 983.594,35.666 974.889,47.736C974.217,48.667 972.944,49.865 971.655,49.502C971.228,49.917 970.793,50.323 970.351,50.72C967.069,53.669 965.197,46.442 966.859,44.227C967.06,43.959 967.259,43.691 967.455,43.424C967.217,41.544 967.617,39.581 968.8,37.978C969.821,36.593 970.892,36.095 971.907,36.172C972.915,34.797 973.913,33.415 974.9,32.024C980.273,22.762 984.492,13.036 988.672,2.871C989.066,1.914 989.462,0.956 989.862,0L1000,0ZM195.904,0C203.45,14.193 209.83,29.093 217.233,43.391C218.482,45.802 216.502,53.973 212.816,50.492C212.164,49.877 211.558,49.237 210.991,48.577C209.597,49.76 207.765,49.652 206.334,46.756C198.64,31.182 190.963,15.6 183.314,0L195.904,0ZM864.988,0C874.042,13.329 882.638,26.845 886.213,43.073C886.676,45.172 886.37,48.355 884.582,49.84C883.07,51.096 880.844,50.862 879.822,49.026C870.719,32.683 861.612,16.342 852.502,0L864.988,0ZM36.683,0C36.748,0.128 36.812,0.256 36.875,0.384C43.406,13.609 47.268,28.63 52.142,42.535C53.687,46.946 49.46,54.448 46.263,48.033C38.284,32.024 30.076,16.086 22.201,0L36.683,0ZM527.667,0C529.851,4.62 532.02,9.246 534.277,13.823C539.353,22.81 544.557,31.729 549.886,40.576C551.231,42.809 551.637,46.189 550.079,48.458C548.818,50.294 546.817,50.571 545.35,49.109C544.137,49.327 542.875,48.853 542.038,47.472C532.699,32.07 524.133,16.231 516.372,0L527.667,0ZM695.314,0C696.567,2.614 697.817,5.23 699.092,7.831C705.586,18.501 712.489,28.935 719.134,39.339C720.562,41.575 720.881,44.814 719.635,47.208C718.774,48.862 716.353,50.846 714.593,48.878C714.317,48.57 714.044,48.26 713.776,47.951L713.773,47.959L713.744,47.914C705.846,38.812 700.101,28.417 694.773,17.771C691.25,11.922 687.833,6.004 684.614,0L695.314,0ZM0,0L4.66,0C3.129,2.846 1.554,5.653 0,8.425L0,0Z" style="fill-rule:nonzero;"/>
</svg>
