<?xml version="1.0" encoding="UTF-8" standalone="no"?>
<!DOCTYPE svg PUBLIC "-//W3C//DTD SVG 1.1//EN" "http://www.w3.org/Graphics/SVG/1.1/DTD/svg11.dtd">
<svg width="100%" height="100%" viewBox="0 0 1000 1000" version="1.1" xmlns="http://www.w3.org/2000/svg" xmlns:xlink="http://www.w3.org/1999/xlink" xml:space="preserve" xmlns:serif="http://www.serif.com/" style="fill-rule:evenodd;clip-rule:evenodd;stroke-linejoin:round;stroke-miterlimit:2;">
    <path d="M830.15,1000C830.154,999.626 830.182,999.273 830.233,998.95C830.902,994.754 834.524,992.089 838.708,992.448C840.281,992.583 841.551,993.205 842.517,994.132C842.793,994.344 843.056,994.579 843.303,994.831C844.724,996.285 845.774,998.061 846.196,1000L830.15,1000ZM0,1000L0,993.096C0.297,993.098 0.584,993.141 0.86,993.218C2.096,993.235 3.276,993.789 4.225,994.788C5.072,995.678 5.683,996.81 6.058,998.03C6.358,998.649 6.58,999.316 6.728,1000L0,1000ZM992.135,1000C992.455,998.396 993.161,996.802 994.423,996.192C994.525,996.047 994.633,995.907 994.747,995.772C994.911,995.511 995.09,995.261 995.282,995.028C996.085,993.804 997.284,992.965 998.931,993.01C999.219,993.017 999.495,993.05 999.759,993.104C999.84,993.099 999.92,993.096 1000,993.096L1000,1000L992.135,1000ZM495.587,1000C495.77,999.263 496.054,998.545 496.443,997.87C496.817,997.222 497.31,996.683 497.877,996.302C498.116,995.932 498.392,995.591 498.708,995.286C499.73,994.303 501.173,993.853 502.552,994.181L502.562,994.182C503.334,993.994 504.168,994.023 504.978,994.317C507.141,995.101 508.466,997.178 508.95,999.343C508.997,999.554 509.037,999.774 509.069,1000L495.587,1000ZM327.605,1000C327.175,996.647 328.587,992.696 331.276,991.296C332.419,990.7 333.673,990.636 334.824,991.012C335.976,990.667 337.176,990.923 338.272,991.537C338.67,991.513 339.092,991.544 339.54,991.641C343.041,992.393 344.715,996.225 344.728,999.514C344.729,999.673 344.725,999.836 344.717,1000L327.605,1000ZM661.288,1000C661.208,997.401 662.209,994.245 664.652,992.982C665.213,992.693 665.753,992.527 666.272,992.469C667.034,992.119 667.865,992.015 668.675,992.156C669.646,991.602 670.784,991.411 671.918,991.838C672.194,991.942 672.453,992.067 672.698,992.213C673.054,992.328 673.4,992.518 673.723,992.778C674.445,993.36 675.067,994.065 675.572,994.85C676.953,996.116 677.732,998.065 678.017,1000L661.288,1000ZM157.933,1000C157.877,996.902 159.143,993.536 161.97,992.241C163.458,991.558 164.843,991.641 166.052,992.193C166.557,991.981 167.111,991.854 167.712,991.831C172.128,991.656 174.211,995.898 174.214,1000L157.933,1000ZM835.977,826.822C836.027,826.804 836.077,826.785 836.128,826.768C838.116,826.083 840.379,826.59 842.22,827.662C847.511,829.741 849.949,835.76 849.04,841.254C848.179,846.45 843.525,852.092 837.711,850.234C834.962,849.356 832.766,846.969 831.517,844.125C829.463,841.904 828.255,838.542 828.269,835.743C828.29,831.798 830.12,827.939 834.206,827.082C834.794,826.959 835.385,826.872 835.977,826.822ZM665.961,848.205C665.607,848.099 665.246,847.968 664.878,847.812C653.397,842.948 659.913,820.718 672.383,827.096C678.288,830.117 680.227,837.841 677.767,843.747C675.827,848.404 670.189,851.221 665.961,848.205ZM502.756,848.649C502.356,848.762 501.941,848.84 501.514,848.88C498.273,849.184 495.352,846.989 493.876,844.263C490.439,837.921 493.587,827.528 501.734,827.215C510.283,826.887 514.642,837.721 510.63,844.453C508.662,847.757 505.7,848.967 502.756,848.649ZM329.555,826.325C331.429,824.239 334.047,823.244 337.107,824.926C337.895,825.359 338.611,825.873 339.253,826.453C341.697,827.606 343.18,830.22 343.708,832.811C344.244,835.438 343.874,838.157 342.614,840.455C341.21,844.6 337.688,848.339 332.977,847.705C326.863,846.881 323.43,840.266 324.297,834.56C324.517,833.114 325.322,831.207 326.752,830.528C327.19,828.806 328.031,827.206 329.555,826.325ZM160.6,828.985C162.648,826.937 165.576,825.946 168.62,827.19C174.054,829.413 175.673,837.309 173.836,842.343C172.226,846.759 165.174,847.797 161.342,845.965C160.835,845.723 160.359,845.434 159.916,845.104C157.776,843.941 156.62,841.606 156.275,839.078C156.143,838.282 156.111,837.323 156.208,836.344C156.343,834.717 156.787,833.157 157.492,831.918C158.277,830.54 159.366,829.566 160.6,828.985ZM1000,845.42C999.981,845.422 999.961,845.424 999.942,845.426C997.997,846.568 995.378,846.439 993.475,844.85C992.714,844.214 992.118,843.445 991.674,842.592C989.614,840.961 988.615,837.907 988.615,835.189C988.613,831.071 991.475,826.524 995.835,827.024C995.894,826.996 995.954,826.968 996.015,826.94C997.262,826.376 998.651,826.19 1000,826.355L1000,845.42ZM0,826.355C0.354,826.398 0.704,826.465 1.049,826.556C5.073,827.616 6.84,832.007 6.828,835.829C6.818,839.352 5.21,843.622 1.678,845.008C1.133,845.222 0.569,845.357 0,845.42L0,826.355ZM835.126,661.96C839.545,661.542 844.469,664.758 845.835,669.693C847.012,673.945 846.024,680.224 841.251,681.855C837.75,683.051 833.022,682.132 830.192,679.806C826.345,676.644 825.292,670.458 827.333,666.049C828.596,663.321 832.216,660.544 835.126,661.96ZM335.016,660.251C336.263,660.038 337.688,660.302 339.199,661.213C339.85,661.606 340.417,662.088 340.9,662.635C344.713,665.56 346.979,670.681 345.387,675.457C344.187,679.053 340.252,681.852 336.447,682.029C335.33,682.081 334.371,681.879 333.558,681.486C332.177,681.407 330.831,681.04 329.717,680.408C322.688,676.424 322.784,663.682 330.768,660.798C332.189,660.285 333.625,660.124 335.016,660.251ZM498.612,659.677C501.408,657.861 504.894,657.589 507.784,660.485C510.333,663.037 511.17,666.644 511.506,670.117C511.814,673.323 511.895,677.553 509.304,679.903C506.955,682.031 503.068,681.357 500.432,680.131C500.094,679.973 499.758,679.803 499.427,679.62C497.33,678.997 495.79,677.377 494.803,675.353C494.476,674.805 494.206,674.221 494.005,673.604C493.588,672.323 493.353,670.908 493.481,669.545C493.477,669.206 493.485,668.869 493.505,668.537C493.229,665.3 494.149,661.391 497.249,660.039C497.696,659.844 498.153,659.727 498.612,659.677ZM660.136,674.623C660.028,674.425 659.932,674.231 659.848,674.044C658.839,671.812 658.585,669.231 658.928,666.819C659.54,662.497 662.718,658.808 667.201,658.534C668.109,658.479 668.842,658.943 669.406,659.602C670.432,659.236 671.572,659.231 672.71,659.763C676.88,661.711 678.018,667.556 677.265,671.649C676.593,675.304 674.39,679.068 670.666,680.236C667.301,681.292 663.531,679.951 661.467,677.104C660.92,676.349 660.474,675.511 660.136,674.623ZM167.052,663.574C168.508,661.591 171.251,661.086 173.448,662.735C175.822,664.518 176.776,667.787 176.706,670.637C176.674,671.927 176.375,673.284 175.854,674.55C175.589,675.688 174.922,677.069 173.905,677.672C172.044,679.702 169.395,680.701 166.38,679.221C163.663,677.887 161.997,675.181 161.609,672.241C161.233,669.403 162.021,665.121 165.048,663.867C165.654,663.616 166.339,663.533 167.052,663.574ZM0,661.396C0.139,661.43 0.275,661.471 0.407,661.518C0.6,661.401 0.798,661.289 1.001,661.181C2.283,660.501 3.664,661.256 4.557,662.32C6.352,663.247 7.739,664.862 8.489,666.731C10.189,670.955 9.108,676.311 5.134,678.828C3.468,679.884 1.653,680.092 0,679.623L0,661.396ZM1000,679.623C998.482,679.193 997.099,678.191 996.091,676.749C995.906,676.484 995.733,676.209 995.574,675.927C994.907,675.274 994.39,674.442 994.054,673.612C993.489,672.214 993.286,670.354 993.505,668.548C993.348,665.224 994.834,661.821 998.077,661.33C998.782,661.223 999.422,661.254 1000,661.396L1000,679.623ZM665.609,493.713C668.329,492.316 671.943,492.769 674.255,495.302C675.504,496.671 676.327,498.313 676.751,500.055C677.451,501.523 677.771,503.249 677.776,504.529C677.789,507.772 676.233,511.497 673.095,512.864C672.568,513.093 672.049,513.207 671.546,513.223C670.33,513.901 668.963,514.231 667.502,513.97C665.304,513.576 663.487,512.081 662.19,510.305C658.961,505.883 657.726,497.272 663.599,494.344C664.284,494.002 664.957,493.798 665.609,493.713ZM332.38,493.453C333.689,492.484 335.311,492.077 337.112,492.347C339.746,492.741 342.519,493.79 344.099,496.055C345.844,498.557 346.377,501.857 345.906,504.834C345.176,509.449 341.555,513.632 336.536,513.121C330.899,512.548 326.962,507.367 327.84,501.763C327.611,499.474 328.071,497.01 329.52,495.231C330.251,494.332 331.27,493.648 332.38,493.453ZM835.189,493.295C837.584,492.685 840.416,493.846 842.102,495.925C845.037,499.548 846.132,506.758 842.805,510.42C840.461,512.999 836.126,513.913 833.06,512.154C829.117,509.894 827.991,504.784 829.143,500.616C829.383,497.215 831.503,493.034 835.189,493.295ZM497.156,494.451C497.637,493.861 498.208,493.367 498.878,493.063C500.317,492.409 502.115,492.392 503.596,492.893C505.36,493.489 506.781,494.777 507.829,496.343C508.704,497.209 509.424,498.259 509.883,499.306C511.308,502.559 510.812,508.167 507.562,510.204C506.929,510.865 506.163,511.411 505.254,511.795C505.094,511.862 504.933,511.924 504.769,511.982C502.784,513.585 499.989,513.097 497.958,511.756C497.347,511.498 496.77,511.173 496.246,510.783C491.515,507.254 491.099,496.416 497.156,494.451ZM165.593,493.737C167.867,491.653 171.154,491.857 173.622,493.83C178.553,497.771 180.461,508.837 173.675,511.893C171.424,512.906 168.065,513.092 165.738,512.27C162.815,511.238 161.105,508.253 160.519,505.349C159.819,501.883 160.553,497.672 163.228,495.178C163.914,494.539 164.723,494.054 165.593,493.737ZM1000,511.91L999.902,511.918C995.441,512.237 991.379,510.352 990.326,505.709C989.483,501.997 990.338,496.708 993,493.697C993.055,493.611 993.112,493.525 993.17,493.441C994.925,490.878 997.442,489.929 1000,490.385L1000,511.91ZM0,490.385C1.164,490.592 2.335,491.089 3.449,491.857C4.805,492.792 5.927,493.975 6.775,495.316C7.075,495.687 7.341,496.088 7.568,496.514C8.829,498.884 9.146,501.92 8.271,504.491C7.285,508.51 4.269,511.563 0,511.91L0,490.385ZM339.705,348.955C338.897,349.46 337.967,349.791 336.919,349.883C333.655,350.171 330.863,347.63 329.607,344.822C327.147,339.32 329.091,330.535 335.627,328.905C342.992,327.067 347.283,336.003 346.316,342.088C345.718,345.85 343.398,348.387 339.705,348.955ZM836.692,346.667C836.157,346.698 835.617,346.675 835.084,346.599C827.456,345.506 826.709,335.143 830.623,329.967C832.581,327.377 835.79,325.68 839.062,326.637C842.457,327.63 844.263,331.228 845.112,334.382C846.154,338.261 845.576,343.52 841.973,345.914C840.222,347.078 838.43,347.154 836.692,346.667ZM180.332,335.73C180.633,336.589 180.66,337.83 180.673,338.599C180.786,345.307 172.721,349.346 167.597,344.859C165.219,342.777 163.971,339.375 163.9,336.269C163.833,333.31 164.632,328.915 167.885,327.82C169.177,327.385 170.216,327.751 171.01,328.501C171.493,328.558 171.97,328.653 172.47,328.731C172.689,328.746 172.913,328.775 173.14,328.82C173.28,328.834 173.422,328.846 173.568,328.853C174.873,328.921 175.906,328.605 177.149,329.193C179.424,330.269 180.26,333.168 180.344,335.482L180.332,335.73ZM669.838,325.683C674.135,325.118 678.048,328.29 679.123,332.787C680.352,337.93 677.69,344.942 671.899,344.566C671.527,344.84 671.11,345.071 670.642,345.247C667.966,346.255 665.585,344.252 663.945,342.376C659.557,337.356 661.242,329.6 667.074,326.57C667.533,326.331 667.994,326.14 668.453,325.994C668.898,325.826 669.362,325.72 669.838,325.683ZM499.43,328.733C499.51,328.634 499.59,328.535 499.67,328.437C500.05,328.07 500.514,327.755 500.995,327.553C501.982,327.139 503.089,327.184 504.068,327.583C504.524,327.769 504.929,328.014 505.29,328.305C506.09,328.584 506.815,329.056 507.454,329.645C507.939,329.873 508.398,330.196 508.802,330.613C510.666,332.537 511.187,335.511 510.781,338.194C510.701,340.791 509.773,343.353 507.513,344.514C507.055,344.749 506.601,344.892 506.158,344.955C505.649,345.179 505.105,345.333 504.532,345.404C503.016,345.589 501.686,345.108 500.64,344.233C500.114,344.109 499.593,343.912 499.094,343.651C495.992,342.027 494.241,338.277 495.042,334.831C495.24,333.978 495.5,333.036 495.987,332.27C496.153,331.694 496.384,331.149 496.691,330.658C497.463,329.42 498.313,328.975 499.43,328.733ZM1000,344.172C999.903,344.186 999.806,344.197 999.709,344.205C999.578,344.229 999.443,344.249 999.306,344.263C996.719,344.533 993.553,342.976 992.144,340.835C990.129,337.773 990.331,333.214 992.265,330.165C993.557,328.128 995.75,326.627 998.207,326.526C998.834,326.5 999.433,326.574 1000,326.731L1000,344.172ZM0,326.731C0.718,326.928 1.383,327.259 1.986,327.687C2.148,327.73 2.309,327.782 2.467,327.843C5.018,328.833 6.307,331.589 6.374,334.189C6.398,335.16 6.259,336.141 5.95,337.01C5.816,337.968 5.521,338.888 5.073,339.684C4.699,340.646 4.168,341.532 3.469,342.281C2.5,343.32 1.274,343.99 0,344.172L0,326.731ZM830.192,167.567C831.61,164.864 834.472,162.688 837.424,163.552C837.753,163.469 838.107,163.431 838.487,163.448C840.573,163.54 841.926,165.271 842.735,167.022C842.912,167.405 843.462,168.149 842.96,167.49C843.723,168.492 844.242,169.512 844.538,170.761C845.029,172.829 844.87,175.086 844.081,177.062C842.961,179.859 840.253,182.019 837.138,181.863C833.893,181.701 831.269,179.202 829.708,176.546C828.295,174.143 827.947,170.825 829.507,168.372C829.704,168.064 829.936,167.794 830.192,167.567ZM662.953,173.126C661.843,168.152 663.755,161.556 669.6,161.65C671.721,161.684 673.368,162.709 674.582,164.234C676.39,165.765 677.569,168.376 677.576,170.952C677.578,171.761 677.475,172.621 677.25,173.448C677.232,173.898 677.192,174.33 677.131,174.739C676.721,177.491 675.177,181.047 671.908,181.127C669.533,181.184 666.638,179.686 664.851,178.238C663.41,177.07 662.886,175.015 662.953,173.126ZM497.071,164.421C498.578,161.718 501.223,159.471 504.489,160.491C505.598,160.838 506.464,161.458 507.147,162.252C510.717,162.434 512.56,167.556 511.852,171.487C511.919,172.326 511.893,173.122 511.787,173.782C511.202,177.435 508.338,179.585 504.803,179.127C503.524,179.36 502.267,179.283 501.02,178.809C500.693,178.792 500.366,178.741 500.029,178.615C498.628,178.091 497.427,176.537 496.567,175.418C494.629,172.9 493.959,166.544 497.071,164.421ZM337.538,161.077C337.668,161.02 337.802,160.969 337.939,160.924C342.165,159.529 344.23,165.236 344.384,168.45C344.428,169.365 344.371,170.403 344.198,171.461C344.138,172.139 343.996,172.797 343.748,173.406C343.122,175.461 342.018,177.356 340.333,178.324C338.025,179.648 335.289,178.827 333.48,177.088C328.967,175.479 328.129,168.58 330.467,164.542C331.662,162.479 333.819,160.635 336.339,160.826C336.762,160.858 337.162,160.944 337.538,161.077ZM0,158.295C0.373,158.128 0.777,157.993 1.215,157.893C3.949,157.271 6.46,158.747 7.941,161.011C8.482,161.839 8.904,162.81 9.181,163.843C9.829,165.188 10.127,166.747 10.11,168.102C10.071,171.063 8.976,174.642 5.922,175.775C5.409,175.965 4.9,176.063 4.4,176.082C3.905,176.556 3.324,176.94 2.656,177.203C1.761,177.556 0.861,177.622 0,177.473L0,158.295ZM1000,158.295L1000,177.473C998.592,177.229 997.285,176.411 996.265,175.333C996.027,175.082 995.805,174.826 995.598,174.565C995.294,174.328 994.998,174.025 994.717,173.652C992.186,170.301 991.33,165.18 993.997,161.646C994.309,161.232 994.671,160.881 995.063,160.599C995.483,159.988 996.02,159.521 996.687,159.302C997.498,159.035 998.304,158.834 999.145,158.766C999.41,158.589 999.695,158.432 1000,158.295ZM167.11,158.782C167.349,158.601 167.599,158.436 167.861,158.287C168.587,157.974 169.521,157.952 170.27,158.203C170.88,158.406 171.452,158.793 171.986,159.253C173.858,159.736 175.49,161.244 176.57,162.798C178.704,165.863 178.925,171.024 176.193,173.822C175.886,174.135 175.557,174.403 175.206,174.617C174.785,175.609 174.129,176.532 173.198,176.806C171.311,177.358 169.649,177.209 168.18,176.476C167.653,176.396 167.139,176.206 166.662,175.907C166.122,175.568 165.659,175.138 165.268,174.642C163.893,173.763 162.879,172.073 162.315,170.73C161.098,167.825 161.118,164.187 162.741,161.444C163.283,160.529 164.204,159.547 165.202,159.089C165.86,158.787 166.498,158.773 167.11,158.782ZM995.811,170.544L995.779,170.595C995.913,170.756 996.049,170.9 996.184,171.028C996.052,170.866 995.928,170.705 995.811,170.544ZM3.845,164.479C3.863,164.512 3.886,164.547 3.911,164.579L3.93,164.503L3.914,164.481C3.89,164.479 3.868,164.479 3.845,164.479ZM166.375,159.546L166.246,159.604C165.816,160.232 165.86,160.213 166.375,159.546ZM846.196,0C846.423,1.041 846.468,2.13 846.292,3.241C846.26,3.445 846.216,3.654 846.162,3.863C846.488,6.65 845.657,9.611 843.589,11.341C842.269,12.446 840.573,12.677 839.02,12.207C838.234,12.495 837.326,12.532 836.303,12.214C833.685,11.4 832.187,8.537 831.712,6.01C831.689,5.889 831.668,5.765 831.648,5.64C830.641,3.988 830.132,1.765 830.15,0L846.196,0ZM344.717,0L344.715,0.027L344.716,0.048L344.717,0.073C345.483,2.151 345.482,4.586 344.824,6.595C344.077,8.875 342.355,11.269 339.714,11.373C339.284,11.389 338.878,11.351 338.494,11.266C337.732,11.533 336.887,11.563 336.017,11.282C335.448,11.097 334.981,10.805 334.553,10.465C334.252,10.527 333.929,10.56 333.584,10.558C331.181,10.544 329.911,8.675 329.31,6.454C328.22,4.796 327.66,2.588 327.667,0.407C327.643,0.272 327.623,0.137 327.605,0L344.717,0ZM1000,0L1000,10.63C999.142,10.715 998.261,10.599 997.471,10.278C996.604,10.032 995.797,9.473 995.162,8.603C994.94,8.298 994.741,7.979 994.564,7.647C994.396,7.552 994.235,7.446 994.086,7.33C992.762,6.295 992.149,4.619 991.967,3.008C991.877,2.211 991.915,1.103 992.135,0L1000,0ZM6.728,0C6.995,1.226 7.027,2.505 6.855,3.659C6.5,6.042 5.365,8.543 3.152,9.734C2.62,10.02 2.055,10.197 1.486,10.263C1.016,10.456 0.512,10.579 0,10.63L0,0L6.728,0ZM678.017,0C678.131,0.772 678.166,1.542 678.129,2.266C678.143,2.387 678.153,2.506 678.161,2.621C678.385,5.964 676.702,9.486 673.273,10.299C670.646,10.921 667.134,10.348 665.264,8.256C664.963,7.92 664.704,7.556 664.483,7.172C664.402,7.106 664.322,7.038 664.242,6.967C662.334,5.284 661.433,2.694 661.297,0.215C661.293,0.144 661.29,0.072 661.288,0L678.017,0ZM174.214,0C174.214,0.332 174.201,0.663 174.174,0.991C174.207,1.237 174.233,1.482 174.253,1.726C174.608,6.225 170.797,12.492 165.907,9.429C165.17,9.267 164.459,8.923 163.826,8.396C162.613,8.156 161.535,7.323 160.777,6.275C159.719,5.444 158.856,4.187 158.426,2.938C158.119,2.047 157.952,1.039 157.933,0L174.214,0ZM509.069,0C509.281,1.516 509.137,3.341 508.467,4.82C508.219,6.219 507.619,7.539 506.6,8.547C505.292,9.84 503.405,10.223 501.696,9.625C501.208,9.771 500.686,9.774 500.166,9.572C496.373,8.105 494.644,3.799 495.587,0L509.069,0ZM498.043,6.167L498.085,6.375C498.163,6.482 498.241,6.589 498.319,6.697C498.221,6.525 498.129,6.348 498.043,6.167Z" style="fill-rule:nonzero;"/>
</svg>
