<?xml version="1.0" encoding="UTF-8" standalone="no"?>
<!DOCTYPE svg PUBLIC "-//W3C//DTD SVG 1.1//EN" "http://www.w3.org/Graphics/SVG/1.1/DTD/svg11.dtd">
<svg width="100%" height="100%" viewBox="0 0 1000 1000" version="1.1" xmlns="http://www.w3.org/2000/svg" xmlns:xlink="http://www.w3.org/1999/xlink" xml:space="preserve" xmlns:serif="http://www.serif.com/" style="fill-rule:evenodd;clip-rule:evenodd;stroke-linejoin:round;stroke-miterlimit:2;">
    <path d="M356.344,1000C355.907,989.97 355.386,979.944 354.723,969.928C351.727,924.676 347.844,877.359 365.52,834.386C372.651,817.047 383.057,800.789 397.353,788.486C404.294,782.512 413.749,774.725 423.453,775.644C429.005,776.169 434.508,778.378 439.803,780.002L443.858,781.246C448.951,782.325 454.015,783.53 459.006,784.577C470.089,786.903 481.173,789.221 492.258,791.537C503.593,793.906 514.91,796.401 526.276,798.612C536.302,800.563 545.981,801.421 555.15,806.191C570.618,811.813 578.83,828.699 582.311,844.099C589.909,877.715 585.945,914.348 572.851,946.088C566.743,960.893 558.721,976.32 546.791,987.304C536.617,996.671 521.233,1002.85 507.611,998.161C503.113,998.464 497.839,997.128 493.599,996.347C490.736,995.819 487.149,995.4 484.126,994.214C484.117,996.144 484.103,998.072 484.086,1000L478.042,1000C478.238,980.193 478.169,960.383 477.505,940.565C477.499,940.38 477.506,940.2 477.524,940.027C476.301,928.928 476.347,917.685 477.628,906.608C479.782,887.981 485.932,870.239 493.668,853.246C497.323,845.218 500.889,836.771 506.131,829.628C509.809,824.617 514.33,820.076 519.114,815.998C522.183,813.131 525.475,810.572 529.014,808.585C527.626,808.343 526.236,808.093 524.842,807.821C513.804,805.665 502.809,803.264 491.798,800.971C480.562,798.63 469.325,796.287 458.088,793.936C457.585,794.211 456.983,794.3 456.283,794.123L445.804,791.48C438.997,790.115 432.18,788.612 425.703,786.404C423.038,786.009 420.381,786.025 417.84,786.928C408.547,790.23 399.902,798.842 393.402,806.014C366.825,835.342 359.771,876.451 359.837,914.692C359.876,937.99 362.017,961.225 363.051,984.487C363.281,989.655 363.463,994.826 363.613,1000L356.344,1000ZM509.797,836.76C509.683,836.927 509.569,837.095 509.458,837.264C504.731,844.397 501.305,852.519 497.874,860.328C490.52,877.06 484.923,894.401 483.399,912.701C482.061,928.761 483.748,945.13 488.206,960.609C491.981,973.716 498.763,987.243 513.873,988.918C544.534,992.317 561.665,955.613 569.949,931.901C579.603,904.272 582.771,871.893 575.041,843.375C571.141,828.99 560.478,813.558 544.044,813.058C528.987,812.6 518.349,826.195 509.797,836.76ZM483.86,969.259C484.04,975.024 484.118,980.796 484.135,986.565C487.372,987.018 490.608,987.766 493.789,988.372C489.25,982.92 486.161,976.127 483.86,969.259ZM521.469,873.91C523.832,869.588 527.234,865.78 531.735,864.493C537.811,862.756 546.295,865.842 549.92,871.004C554.094,876.944 554.945,885.819 554.693,892.839C554.416,900.583 553.412,909.123 550.764,916.442C546.985,926.887 537.972,944.629 523.938,939.524C510.277,934.553 509.269,912.943 511.345,901.154C512.649,893.745 515.343,886.188 518.551,879.386C519.33,877.733 520.294,875.772 521.469,873.91ZM525.737,879.959C524.443,882.247 523.418,884.678 522.465,887.124C520.074,893.258 517.651,899.708 516.958,906.286C516.251,912.998 516.756,922.764 521.921,927.792C526.674,932.419 533.375,929.973 537.256,925.57C545.468,916.252 548.725,900.42 547.88,888.337C547.353,880.806 544.512,874.729 536.251,873.854C531.834,873.386 528.318,876.338 525.737,879.959ZM473.995,925.614C472.762,925.336 471.512,924.955 470.25,924.843C469.135,924.746 467.987,924.464 467.089,925.238C466.851,925.443 466.87,925.91 467.035,926.147C467.771,927.209 468.898,927.344 470.063,927.75C471.241,928.16 472.587,928.237 473.813,928.443C474.939,928.632 475.044,925.85 473.995,925.614ZM462.199,923.354C460.2,922.773 458.134,922.236 456.049,922.093C454.999,922.022 454.945,924.454 455.885,924.645C457.857,925.047 459.862,925.287 461.836,925.684C462.986,925.916 463.17,923.636 462.199,923.354ZM451.346,920.585C449.522,919.662 446.952,919.551 444.941,919.377C444.049,919.3 444.25,921.022 444.817,921.314C446.6,922.234 449.117,923.377 451.186,923.076C452.283,922.917 452.187,921.012 451.346,920.585ZM439.927,918.463C439.017,917.177 437.487,917.017 436.013,916.65C434.48,916.268 432.926,915.899 431.367,915.64C430.296,915.462 430.321,917.909 431.201,918.223C432.725,918.765 434.312,919.205 435.877,919.617C437.096,919.939 438.606,920.629 439.717,919.879C440.157,919.582 440.232,918.894 439.927,918.463ZM426.627,914.653C424.812,914.307 423.128,913.725 421.365,913.258C420.087,912.921 418.654,912.384 417.529,913.232C417.229,913.459 417.313,913.995 417.467,914.264C418.997,916.943 423.817,916.583 426.497,916.682C427.332,916.714 427.379,914.796 426.627,914.653ZM412.458,912.244C411.475,910.746 409.649,910.532 407.975,910.121C406.301,909.71 404.268,909.157 402.57,909.52C401.977,909.647 401.891,910.665 402.343,911.012C403.881,912.188 406.014,912.733 407.879,913.191C409.393,913.564 411.083,914.315 412.395,913.301C412.687,913.075 412.635,912.513 412.458,912.244ZM396.748,908.412C395.605,907.508 394.158,907.308 392.765,906.972C391.234,906.601 389.692,906.307 388.176,905.878C386.873,905.51 386.698,908.282 388.008,908.492C389.701,908.764 391.365,909.192 393.048,909.516C394.285,909.755 395.433,910.126 396.665,909.757C397.148,909.612 397.071,908.668 396.748,908.412ZM382.832,905.349C381.381,903.377 378.142,903.001 375.866,903.211C374.759,903.313 374.619,905.76 375.688,905.978C376.932,906.233 378.181,906.471 379.417,906.753C380.469,906.993 381.511,907.433 382.572,907.105C383.204,906.911 383.133,905.758 382.832,905.349ZM372.066,903.368C372.053,903.277 372.041,903.185 372.028,903.093C371.955,902.572 371.61,902.152 371.099,902.068C369.994,901.887 368.888,901.677 367.775,901.547C366.583,901.409 365.929,901.601 364.841,901.964C364.216,902.172 364.446,903.273 364.88,903.53C365.571,903.94 365.655,904.085 366.323,904.294C366.843,904.458 367.306,904.558 367.851,904.628C368.951,904.77 370.064,904.831 371.169,904.921C371.707,904.964 371.958,904.244 372.046,903.851C372.085,903.682 372.09,903.542 372.066,903.368ZM830.088,773.968C823.229,774.251 814.738,772.512 808.095,769.714C808.553,784.321 808.966,798.901 808.763,813.526C808.636,822.71 808.331,831.867 807.935,841.041C807.765,844.992 807.594,848.944 807.44,852.896C807.378,854.477 807.298,856.054 807.226,857.634C807.187,858.47 807.496,860.823 807.012,858.616C807.342,860.12 806.895,865.239 804.118,864.775C787.054,861.917 771.448,855.96 755.374,849.742C739.093,843.442 722.91,839.565 705.729,836.666C700.458,835.777 692.258,835.578 688.605,831.103C684.492,826.066 685.52,816.474 684.989,810.411C683.569,794.208 682.261,777.996 680.909,761.787C678.344,731.015 673.297,699.746 676.246,668.851C678.965,640.375 687.927,612.126 702.521,587.492C709.408,575.867 717.526,563.803 728.953,556.209C734.97,552.21 740.829,550.125 748.049,551.494C754.269,552.674 760.429,554.175 766.579,555.683C774.731,557.139 782.854,559.229 790.787,560.94C803.722,563.729 816.658,566.51 829.604,569.247C842.437,571.961 855.391,574.351 868.136,577.448C874.427,578.975 880.305,581.561 885.436,585.245C899.942,593.989 907.429,610.732 909.738,627.046C912.259,644.869 910.891,663.614 908.477,681.389C906.183,698.276 902,715.088 894.733,730.553C887.843,745.212 878.2,759.43 864.587,768.603C854.481,775.415 841.258,778.303 830.088,773.968ZM852.506,584.356C843.767,582.51 835.032,580.646 826.293,578.799C813.94,576.186 801.576,573.62 789.211,571.056C777.08,568.539 764.267,566.602 752.604,562.291C750.412,561.937 748.221,561.635 746.036,561.428C738.019,560.668 731.106,565.986 725.642,571.303C715.152,581.512 707.515,595.333 701.181,608.4C689.824,631.829 683.394,657.874 682.792,683.913C682.466,698.043 684.143,712.071 685.076,726.147C686.055,740.9 687.252,755.634 688.434,770.373C689.629,785.284 690.841,800.195 691.973,815.111C692.213,818.268 691.387,822.749 694.393,824.336C697.416,825.932 702.181,826.112 705.483,826.655C711.756,827.687 718.026,828.597 724.237,829.983C737.788,833.009 750.679,837.92 763.56,843.017C775.55,847.761 787.98,852.913 800.846,854.784L800.848,854.723C800.953,850.555 801.138,846.387 801.295,842.22C801.628,833.37 801.905,824.537 801.993,815.679C802.161,798.801 802.431,781.873 801.993,765C801.77,756.393 801.495,747.785 801.13,739.182C800.973,735.472 800.608,731.754 800.516,728.045C800.43,724.576 801.017,721.176 801.276,717.738C799.255,701.278 801.431,684.892 804.172,668.406C807.084,650.895 813.191,634.552 822.509,619.431C828.23,610.149 834.9,600.499 843.106,592.825C845.596,589.236 848.835,586.405 852.506,584.356ZM211.774,679.469C211.809,686.678 211.803,693.878 211.851,701.048C212.008,724.915 211.961,748.752 211.314,772.615C211.257,774.733 210.239,778.298 207.359,777.439C188.268,771.752 169.153,766.16 150.026,760.596C131.123,755.097 111.917,748.036 92.351,745.395C89.81,745.052 88.92,742.508 88.778,740.233C87.074,712.961 85.463,685.682 83.501,658.426C80.385,615.156 77.108,569.183 92.297,527.662C98.554,510.557 108.07,494.33 121.425,481.795C134.237,469.772 152.59,459.355 170.521,465.465C171.089,465.658 171.56,466.023 171.937,466.502C178.271,467.849 184.582,469.642 190.642,470.967C201.619,473.366 212.596,475.765 223.572,478.164C234.147,480.475 244.727,482.766 255.3,485.088C265.564,487.342 276.139,489.124 285.723,493.594C285.918,493.685 286.1,493.801 286.267,493.938C286.359,493.98 286.452,494.024 286.545,494.067C303.024,501.833 310.308,522.251 313.361,538.952C319.556,572.847 311.324,610.602 296.005,641.096C288.775,655.488 278.502,670.335 265.178,679.731C255.71,686.407 244.16,687.159 234.155,683.04C229.776,682.325 225.341,682.224 220.968,681.437C218.026,680.909 214.685,680.562 211.774,679.469ZM162.668,474.038C144.665,472.529 127.24,487.45 116.85,500.661C93.112,530.842 88.194,570.7 88.606,607.896C88.846,629.682 90.509,651.463 91.669,673.214C92.775,693.948 94.126,714.672 95.384,735.401C113.847,738.413 131.799,745 149.655,750.358C168.098,755.891 186.546,761.403 205.022,766.829C205.535,744.957 205.966,723.063 205.964,701.192C205.962,677.359 204.651,653.42 205.486,629.605C205.508,628.986 205.614,628.462 205.78,628.033L205.777,628.001C203.979,610.055 205.2,591.69 209.291,574.127C213.223,557.248 219.568,540.844 228.76,526.113C233.413,518.655 239.029,511.052 245.684,504.738C249.016,500.716 253.105,497.393 257.632,495.03C256.378,494.766 255.126,494.5 253.877,494.226C243.625,491.974 233.38,489.691 223.131,487.428L189.243,479.947C180.632,478.046 171.256,476.754 162.668,474.038ZM844.56,602.288C837.337,610.288 831.196,619.446 825.914,628.475C816.777,644.092 812.248,660.364 809.566,678.135C808.247,686.876 806.858,695.666 806.796,704.526C806.739,712.837 808.304,720.747 810.378,728.756C813.54,740.957 816.939,756.246 829.02,762.763C842.807,770.2 858.85,763.037 869.047,752.97C879.376,742.773 886.976,729.676 892.146,716.198C897.381,702.549 900.317,688.179 901.965,673.684C903.708,658.345 905.011,641.909 902.218,626.637C899.749,613.133 892.569,599.262 879.663,593.109C870.979,588.969 860.055,589.333 852.197,594.68C850.299,596.365 848.467,598.141 846.698,599.987C846.469,600.3 846.247,600.621 846.033,600.949C845.535,601.711 845.037,602.131 844.56,602.288ZM807.037,743.447C807.371,749.766 807.653,756.087 807.863,762.412C810.923,762.731 813.889,763.351 816.956,763.897C812.301,757.996 809.291,750.828 807.037,743.447ZM846.62,648.359C852.216,641.477 859.845,637.216 868.257,642.604C880.226,650.272 880.252,669.991 877.723,682.34C876.205,689.749 872.829,696.876 869.58,703.661C866.831,709.398 863.049,714.032 856.568,715.478C850.419,716.85 844.321,714.06 840.466,709.187C836.183,703.775 835.391,695.854 834.667,689.227C833.813,681.393 834.971,673.745 837.433,666.289C839.422,660.264 841.906,652.966 846.62,648.359ZM843.354,668.367C840.669,676.656 839.911,685.362 841.988,694.357C843.446,700.674 846.714,705.549 853.942,704.962C860.792,704.406 863.318,698.586 865.78,693.049C868.269,687.451 870.96,681.676 871.498,675.507C872.046,669.218 872.449,660.83 869.083,655.263C859.787,639.891 847.449,658.609 843.354,668.367ZM796.684,701.022C795.067,700.529 792.965,699.714 791.252,699.889C790.416,699.975 790.424,701.583 791.126,701.857C791.885,702.153 792.77,702.206 793.576,702.336C794.521,702.49 795.463,702.643 796.401,702.837C797.296,703.023 797.437,701.251 796.684,701.022ZM786.688,699.14C784.158,698.763 781.704,696.249 779.006,697.393C778.323,697.683 778.465,698.963 779.052,699.262C780.253,699.872 781.799,699.889 783.109,700.239C784.337,700.567 785.442,701.053 786.734,701.014C787.593,700.989 787.489,699.259 786.688,699.14ZM774.062,696.348C772.646,695.601 770.819,695.363 769.247,695.033C767.849,694.74 766.256,694.117 764.857,694.407C764.074,694.569 763.939,695.947 764.553,696.394C765.853,697.341 767.602,697.547 769.163,697.874C770.667,698.189 772.406,698.661 773.928,698.439C774.858,698.304 774.757,696.715 774.062,696.348ZM760.183,693.3C758.081,692.036 755.583,692.07 753.369,691.108C752.159,690.584 752.061,693.164 752.967,693.68C755.089,694.888 757.634,694.751 759.783,695.872C760.91,696.46 761.094,693.848 760.183,693.3ZM747.827,690.333C746.726,689.591 745.428,689.37 744.164,689.002C742.806,688.608 741.439,688.251 740.072,687.886C738.922,687.578 738.737,689.928 739.705,690.246C741.056,690.689 742.402,691.111 743.782,691.457C744.99,691.76 746.307,692.273 747.559,692.087C748.257,691.984 748.364,690.695 747.827,690.333ZM735.226,687.351C734.122,686.744 732.735,686.566 731.52,686.22C730.287,685.868 729.059,685.511 727.846,685.093C726.748,684.715 726.524,687.093 727.483,687.423C729.65,688.169 732.795,689.434 735.122,688.981C735.836,688.841 735.779,687.655 735.226,687.351ZM723.666,684.513C723.034,683.873 722.144,683.62 721.315,683.314C720.437,682.99 719.567,682.687 718.666,682.435C718.335,682.343 718.141,682.496 717.945,682.746C717.676,683.089 717.647,683.343 717.744,683.756C717.922,684.512 718.396,684.689 719.068,684.961C719.809,685.26 720.575,685.498 721.334,685.746C722,685.964 722.721,686.267 723.42,686.121C724.118,685.975 724.078,684.93 723.666,684.513ZM713.499,681.834C711.487,680.16 708.352,679.782 705.833,679.464C704.922,679.35 704.865,681.524 705.689,681.709C707.033,682.011 708.335,682.401 709.638,682.843C710.781,683.23 711.983,683.786 713.187,683.88C714.102,683.952 713.961,682.218 713.499,681.834ZM701.441,678.32C700.605,677.82 699.591,677.507 698.649,677.27C697.872,677.075 696.851,676.797 696.127,677.21C695.665,677.474 695.588,678.274 695.91,678.678C696.515,679.44 697.487,679.775 698.398,680.071C699.321,680.373 700.313,680.694 701.283,680.78C702.459,680.884 702.097,678.713 701.441,678.32ZM692.579,676.309C691.834,675.422 690.876,675.269 689.774,674.982C689.226,674.84 688.906,674.818 688.359,674.859C687.397,674.93 686.829,674.872 685.963,674.306C684.957,673.648 684.508,676.071 685.674,676.205C686.724,676.327 687.156,676.545 688.007,677.17C688.473,677.513 688.762,677.686 689.329,677.834C690.277,678.08 691.44,678.529 692.327,678.013C692.85,677.709 692.967,676.771 692.579,676.309ZM245.282,516.924C240.249,522.631 235.759,528.832 231.834,535.746C223.438,550.536 217.494,566.741 214.383,583.461C211.592,598.457 210.938,613.883 212.685,629.048C214.353,643.528 217.116,660.112 229.459,669.474C258.351,691.387 284.123,650.032 293.929,627.513C305.623,600.661 312.433,568.369 306.314,539.321C303.395,525.465 297.155,508.423 282.836,502.84C274.035,499.409 264.785,500.616 257.219,505.084C253.247,508.565 249.52,512.203 246.046,516.068C245.792,516.445 245.536,516.727 245.282,516.924ZM211.435,656.985C211.576,661.681 211.659,666.382 211.711,671.083C214.582,671.234 217.469,672.105 220.296,672.81C216.336,668.137 213.506,662.738 211.435,656.985ZM247.247,561.827C248.328,560.011 249.611,558.309 251.153,556.767C256.204,551.717 264.538,549.095 271.244,552.233C285.987,559.133 283.403,580.244 280.462,593.024C277.593,605.49 271.863,625.677 255.878,626.09C238.634,626.536 237.139,604.447 238.23,592.254C238.861,585.207 239.963,578.064 242.419,571.398C243.592,568.213 245.098,564.704 247.247,561.827ZM251.64,567.344C249.597,570.876 247.761,574.465 246.67,578.592C245.048,584.727 244.431,591.281 244.295,597.611C244.154,604.139 245.113,612.219 252.195,614.857C259.172,617.456 265.475,611.477 268.465,605.81C271.808,599.476 273.709,591.98 274.929,584.974C276.128,578.096 277.46,569.583 272.339,563.929C267.547,558.636 259.999,559.924 254.884,564.013C253.653,564.998 252.581,566.121 251.64,567.344ZM200.789,611.903C198.675,610.242 195.33,610.38 192.876,609.497C191.861,609.132 191.613,611.423 192.537,611.675C194.935,612.332 198.138,614.278 200.691,613.505C201.264,613.332 201.176,612.207 200.789,611.903ZM185.907,608.789C185.261,607.504 183.846,607.258 182.518,606.858C181.005,606.404 179.435,606.025 177.88,605.752C176.819,605.565 176.757,608.126 177.71,608.396C179.245,608.831 180.825,609.209 182.385,609.549C183.521,609.797 184.878,610.457 185.79,609.583C185.982,609.4 186.024,609.02 185.907,608.789ZM171.801,605.686C171.166,604.476 169.852,604.297 168.599,603.897C167.182,603.445 165.724,602.829 164.245,602.661C163.211,602.543 163.397,604.635 164.097,604.967C165.444,605.605 167.062,605.872 168.505,606.242C169.57,606.516 170.822,607.163 171.703,606.352C171.863,606.204 171.9,605.874 171.801,605.686ZM159.165,602.106C158.043,601.079 156.454,600.565 154.999,600.188C153.83,599.884 152.282,599.285 151.325,600.157C150.977,600.474 150.994,601.145 151.244,601.509C152.023,602.646 153.542,602.714 154.823,603.058C156.119,603.407 157.54,603.987 158.893,603.889C159.687,603.832 159.596,602.5 159.165,602.106ZM144.314,599.122C143.607,597.922 142.1,597.552 140.824,597.143C139.468,596.707 138.035,596.383 136.633,596.138C135.593,595.955 135.543,598.449 136.467,598.72C137.868,599.132 139.259,599.554 140.653,599.987C141.723,600.318 143.063,601.089 144.108,600.512C144.591,600.245 144.558,599.536 144.314,599.122ZM131.456,595.383C130.122,594.501 128.512,594.145 126.961,593.799C125.67,593.511 124.08,592.832 122.881,593.492C122.494,593.706 122.448,594.367 122.703,594.698C123.599,595.864 125.145,596.21 126.513,596.679C127.947,597.172 129.566,597.822 131.099,597.722C132.06,597.659 132.132,595.83 131.456,595.383ZM117.42,592.652C117.005,591.507 115.884,591.481 114.801,591.142C113.518,590.741 112.232,590.361 110.962,589.917C109.854,589.53 109.615,591.952 110.594,592.277C112.612,592.947 114.622,593.478 116.716,593.853C116.901,593.886 117.115,593.661 117.198,593.532C117.387,593.237 117.549,593.007 117.42,592.652ZM106.526,589.1C104.938,588.043 102.685,587.847 100.877,587.272C99.796,586.929 99.644,589.15 100.528,589.512C102.234,590.208 104.616,591.175 106.442,590.473C106.892,590.3 106.904,589.351 106.526,589.1ZM96.602,587.081C96.165,585.357 93.504,585.61 92.201,584.879C91.124,584.276 90.644,587.51 92.04,587.37C93.316,587.242 94.693,587.977 95.956,588.138C96.132,588.16 96.328,587.966 96.407,587.838C96.55,587.605 96.674,587.364 96.602,587.081ZM596.126,155.818C596.39,155.702 596.695,155.657 597.042,155.703C597.345,155.743 597.647,155.784 597.95,155.827C604.464,156.029 610.64,158.022 617.502,159.811C617.797,159.888 618.065,160.016 618.303,160.186C621.948,161.123 625.578,162.08 629.186,162.958C639.722,165.519 650.285,167.96 660.881,170.256C680.109,174.42 700.503,176.659 718.941,183.84C727.462,186.187 735.412,192.03 740.606,199.048C751.81,214.187 754.749,234.416 754.31,252.785C753.89,270.318 751.725,289.026 747.024,305.951C744.58,314.75 740.962,323.419 737.357,331.801C734.012,339.58 730.206,347.255 725.143,354.073C716.248,366.052 703.39,376.035 687.963,376.777C684.661,376.935 681.513,376.65 678.543,375.971C674.29,375.877 670.012,375.678 665.824,375.034C661.488,374.369 656.402,373.96 652.186,372.296C652.044,381.147 651.834,389.994 651.717,398.824C651.424,420.775 651.279,442.734 650.8,464.682C650.754,466.775 649.829,469.692 647.188,469.087C607.981,460.099 570.761,441.63 530.307,438.452C528.054,438.275 527.202,435.77 527.112,433.837C525.866,407.061 524.224,380.306 522.957,353.529C520.884,309.746 516.507,263.977 531.371,221.805C537.966,203.095 548.373,185.586 563.201,172.242C570.369,165.793 578.521,159.808 587.894,157.087C590.752,156.257 593.474,155.877 596.126,155.818ZM608.52,166.757C604.987,165.955 601.436,165.373 597.74,165.642C592.308,166.038 587.126,167.637 582.277,170.081C572.978,174.767 565.222,182.295 558.547,190.17C532.083,221.388 527.338,263.84 527.901,303.243C528.209,324.892 529.555,346.535 530.565,368.16C531.517,388.545 532.146,408.943 533.07,429.33C571.95,433.093 607.125,451.289 644.96,459.662C645.113,439.101 645.525,418.534 645.809,397.972C646.099,376.883 645.908,355.693 647.338,334.641C641.295,307.564 645.651,278.38 653.793,252.138C660.736,229.76 672.926,199.963 694.997,188.664C695.117,188.515 695.249,188.38 695.396,188.262C696.28,187.551 697.184,186.915 698.104,186.35C685.656,183.446 672.853,181.601 660.52,178.954C649.6,176.609 638.714,174.11 627.859,171.482C621.487,169.94 614.936,168.517 608.52,166.757ZM697.195,196.175C688.664,201.35 681.491,209.087 676.329,217.273C667.177,231.789 661.015,248.584 656.9,265.184C653.249,279.91 651.264,295.136 651.105,310.307C650.956,324.44 654.138,340.229 661.245,352.641C668.292,364.947 683.128,369.02 696.307,364.871C709.415,360.744 719.045,350.092 725.678,338.473C740.732,312.107 747.599,280.444 747.742,250.23C747.813,235.326 745.404,219.279 736.655,206.806C730.333,197.793 717.213,189.489 705.802,192.054C703.484,192.877 701.236,193.901 699.07,195.091C698.849,195.25 698.631,195.414 698.414,195.584C697.984,195.921 697.576,196.109 697.195,196.175ZM652.309,350.704C652.348,355.212 652.335,359.723 652.291,364.235C655.149,364.128 658.098,364.77 660.983,365.442C658.199,362.342 655.856,358.709 654.015,354.675C653.415,353.359 652.846,352.034 652.309,350.704ZM0,55.866C2.141,53.441 4.382,51.121 6.725,48.924C19.233,37.201 37.259,30.281 53.18,37.967C59.77,39.359 66.34,41.112 72.708,42.533C84.229,45.104 95.762,47.61 107.307,50.069C119.17,52.597 131.043,55.083 142.924,57.527C152.035,59.402 162.662,60.114 170.538,65.51C171.853,66.09 173.137,66.753 174.381,67.492C190.336,76.976 196.974,94.87 199.135,112.496C201.392,130.917 201.617,150.453 198.044,168.711C194.556,186.536 188.355,204.525 180.221,220.764C173.057,235.065 162.078,248.903 146.73,254.832C140.125,257.384 133.425,257.789 127.1,256.419C122.834,256.49 118.431,255.802 114.472,255.23C108.694,254.397 102.263,253.443 96.714,251.152L96.752,276.485C96.785,298.867 96.706,321.25 96.662,343.631C96.658,345.675 95.581,349.152 92.828,348.307C73.069,342.249 53.312,336.185 33.543,330.162C22.467,326.788 11.329,322.999 0,320.237L0,310.554C11.168,313.281 22.148,316.944 33.104,320.323C52.207,326.218 71.323,332.077 90.438,337.938C90.478,317.175 90.503,296.412 90.62,275.648C90.742,253.755 89.425,231.271 91.732,209.482C91.264,206.179 90.957,202.854 90.773,199.55C89.764,181.424 91.173,162.715 94.922,144.958C99.929,121.236 110.279,96.736 127.555,79.125C127.701,78.827 127.879,78.564 128.09,78.348C132.397,73.945 137.238,69.639 142.729,66.663C141.048,66.32 139.367,65.976 137.686,65.629C126.77,63.375 115.861,61.085 104.959,58.76C93.738,56.367 82.523,53.945 71.311,51.509C60.996,49.269 49.856,47.487 39.845,43.913C24.981,44.548 11.319,55.376 2.05,67.123C1.356,68.003 0.672,68.891 0,69.788L0,55.866ZM1000,55.866L1000,69.789C989.339,84.004 981.473,100.261 976.853,117.416C971.332,137.923 971.6,159.35 972.155,180.406C972.729,202.186 973.356,223.965 973.958,245.745C974.52,266.085 974.739,286.509 977.383,306.706C985.037,307.334 992.56,308.736 1000,310.554L1000,320.237C991.742,318.223 983.382,316.755 974.872,316.39C973.088,316.314 971.906,314.461 971.656,312.842C967.637,286.777 967.415,260.33 966.614,234.025C965.893,210.379 964.695,186.688 964.658,163.029C964.624,140.938 967.061,119.045 975.037,98.309C980.853,83.189 989.129,68.18 1000,55.866ZM696.555,246.474C697.029,246.059 697.528,245.669 698.054,245.31C704.122,241.165 712.368,242.611 717.044,248.15C726.455,259.3 722.52,278.984 718.63,291.559C714.982,303.352 707.838,321.616 692.473,317.436C677.869,313.462 677.536,290.851 679.853,278.841C681.361,271.029 684.399,263.597 688.514,256.801C690.632,253.302 693.133,249.096 696.555,246.474ZM690.28,266.923C687.231,273.735 685.497,281.186 685.413,287.758C685.335,293.803 686.081,304.208 692.689,306.409C700.05,308.862 704.051,305.287 707.429,299.087C710.92,292.68 713.358,285.622 714.667,278.448C715.782,272.337 717.161,264.352 714.529,258.458C711.388,251.424 703.176,249.942 697.92,255.652C694.826,259.013 693.093,263.347 690.28,266.923ZM640.01,304.097C638.461,304.042 637.263,303.237 635.804,302.848C634.741,302.564 633.352,302.137 632.384,302.756C631.905,303.063 631.852,303.924 632.29,304.301C633.326,305.196 634.907,304.961 636.182,305.396C637.537,305.857 638.593,306.274 640.06,306.127C640.958,306.037 640.918,304.129 640.01,304.097ZM626.711,301.25C625.652,300.083 624.052,300.167 622.548,299.984C620.507,299.735 618.54,299.357 616.563,298.794C615.357,298.45 615.17,300.917 616.176,301.275C617.905,301.891 619.695,302.355 621.515,302.614C623.067,302.835 625.161,303.396 626.616,302.795C627.199,302.554 627.042,301.614 626.711,301.25ZM611.087,297.277C607.821,296.485 604.558,295.771 601.259,295.129C599.902,294.864 599.699,297.631 600.836,297.851C604.198,298.506 607.549,299.084 610.939,299.584C611.869,299.72 611.931,297.482 611.087,297.277ZM595.627,294.233C594.427,293.246 592.692,292.871 591.203,292.489C589.719,292.109 588.091,291.569 586.552,291.659C585.62,291.712 585.64,293.559 586.412,293.841C588.004,294.423 589.811,294.584 591.476,294.931C592.786,295.205 594.259,295.634 595.562,295.292C595.952,295.19 595.869,294.432 595.627,294.233ZM580.96,290.406C578.526,288.486 574.24,288.198 571.232,287.975C570.035,287.886 570.113,290.528 571.299,290.693C573.027,290.934 574.761,291.194 576.465,291.573C577.828,291.876 579.277,292.461 580.67,292.306C581.472,292.218 581.481,290.817 580.96,290.406ZM564.466,287.494C563.539,285.932 561.426,285.518 559.752,285.064C558.149,284.629 556.166,283.924 554.556,284.49C553.955,284.702 553.961,285.968 554.446,286.293C555.935,287.291 557.954,287.364 559.672,287.833C561.066,288.213 562.962,289.297 564.307,288.569C564.681,288.367 564.654,287.811 564.466,287.494ZM549.623,283.434C548.441,282.888 547.177,282.599 545.92,282.283C544.816,282.005 543.634,281.553 542.493,281.692C541.711,281.788 541.57,283.3 542.19,283.68C543.294,284.356 544.552,284.518 545.807,284.791C547.024,285.057 548.248,285.352 549.498,285.371C550.373,285.385 550.236,283.717 549.623,283.434ZM538.164,281.132C537.47,279.82 536.07,279.649 534.663,279.407C533.225,279.16 531.816,278.65 530.371,278.66C529.707,278.665 529.697,279.947 530.129,280.238C531.343,281.056 532.744,281.439 534.12,281.938C535.258,282.351 537.102,283.126 538.019,282.119C538.24,281.877 538.322,281.432 538.164,281.132ZM138.17,79.841C117.631,100.047 105.129,125.851 100.261,154.771C97.701,169.976 96.694,185.728 97.751,201.124C98.742,215.579 103.003,230.29 114.72,239.669C126.642,249.213 141.389,248.603 153.709,240.081C165.936,231.623 173.537,218.292 179.059,204.819C185.123,190.025 190.418,174.509 192.529,158.609C194.604,142.979 194.362,125.886 191.758,110.308C189.35,95.903 182.814,81.706 168.906,75.242C162.788,72.398 156.102,71.434 149.588,73.524C145.377,74.875 141.672,77.204 138.17,79.841ZM96.745,228.58C96.767,233.627 96.698,238.676 96.704,243.716C100.373,244.023 104.059,244.769 107.732,245.448C107.496,245.21 107.263,244.968 107.032,244.723C102.523,239.95 99.188,234.465 96.745,228.58ZM131.971,136.116C134.293,131.68 137.299,127.655 141.688,125.091C147.933,121.443 155.337,121.959 160.418,127.27C165.449,132.529 166.718,140.31 167.433,147.26C168.251,155.217 166.535,162.317 163.848,169.759C160.154,179.984 153.833,199.948 139.265,196.814C124.166,193.566 122.915,175.084 124.263,162.784C125.212,154.12 127.179,144.026 131.971,136.116ZM136.551,141.669C132.946,149.178 131.051,157.192 130.314,165.945C129.769,172.409 129.666,180.046 135.217,184.487C140.527,188.736 146.724,186.794 150.378,181.531C154.006,176.306 156.138,169.802 158.251,163.852C160.812,156.641 161.64,150.252 159.943,142.686C158.365,135.644 153.147,130.25 145.599,133.081C141.41,134.651 138.672,137.939 136.551,141.669ZM87.038,184.17C87.012,184.074 86.984,183.979 86.958,183.883C86.883,183.611 86.728,183.132 86.392,183.065C85.199,182.825 84.007,182.582 82.813,182.345C81.819,182.148 80.851,181.877 79.859,182.148C79.228,182.32 79.277,183.667 79.748,183.979C81.45,185.107 84.261,185.092 86.241,185.409C86.576,185.462 86.796,185.035 86.902,184.802C86.993,184.603 87.101,184.398 87.038,184.17ZM74.392,181.022C73.147,179.95 71.407,179.829 69.832,179.519C68.248,179.207 66.65,178.996 65.054,178.751C63.948,178.582 63.847,181.309 64.876,181.519C66.464,181.843 68.043,182.199 69.644,182.456C71.15,182.698 72.861,183.242 74.296,182.596C74.836,182.353 74.792,181.367 74.392,181.022ZM58.82,177.01C55.9,176.438 53.089,175.698 50.217,174.938C48.765,174.554 48.555,177.473 49.756,177.904C52.535,178.901 55.716,179.415 58.66,179.501C59.686,179.531 59.744,177.191 58.82,177.01ZM43.416,174.363C42.438,173.034 40.943,172.836 39.404,172.387C37.618,171.868 35.818,171.408 34.019,170.935C32.572,170.554 32.323,173.565 33.557,173.9C35.471,174.42 37.38,174.918 39.321,175.326C40.742,175.625 42.104,176.161 43.36,175.297C43.619,175.119 43.576,174.58 43.416,174.363ZM28.634,170.296C27.343,169.337 25.708,169.16 24.167,168.792C22.497,168.392 20.833,167.984 19.157,167.608C17.83,167.309 17.636,169.928 18.738,170.3C20.489,170.893 22.246,171.381 24.044,171.807C25.503,172.151 27.046,172.671 28.515,172.242C29.202,172.041 29.114,170.653 28.634,170.296ZM14.387,166.682C13.179,165.737 11.522,165.591 10.034,165.324C8.544,165.056 6.991,164.792 5.475,164.85C4.309,164.895 4.211,167.497 5.292,167.71C6.791,168.006 8.327,168.108 9.842,168.322C11.313,168.528 12.813,169.085 14.262,168.714C15.001,168.524 14.862,167.054 14.387,166.682ZM999.988,165.098C999.875,165.351 999.683,165.553 999.401,165.606C999.251,165.635 999.093,165.632 998.941,165.63C998.405,165.622 997.877,165.514 997.36,165.38C997.208,165.34 997.027,165.29 996.877,165.246C996.44,165.12 996.004,164.986 995.562,164.88C994.808,164.7 994.044,164.563 993.293,164.368C992.805,164.24 992.321,164.091 991.854,163.897C991.627,163.802 991.38,163.707 991.176,163.568C990.767,163.29 990.636,162.677 990.721,162.218C990.77,161.948 990.913,161.686 991.173,161.571C991.403,161.469 991.687,161.474 991.933,161.462C992.604,161.428 993.276,161.492 993.94,161.588C994.773,161.709 995.599,161.877 996.428,162.019C997.324,162.174 998.238,162.344 999.036,162.804C999.449,163.042 999.801,163.29 999.98,163.738L1000,163.795L1000,165.068L999.988,165.098ZM0,163.795C0.067,163.995 0.103,164.22 0.105,164.441C0.107,164.662 0.074,164.881 0,165.068L0,163.795ZM987.208,161.068C986.635,159.785 985.448,159.628 984.157,159.337C982.603,158.985 981.002,158.817 979.426,158.584C978.33,158.421 978.231,161.12 979.25,161.32C980.74,161.612 982.23,161.951 983.733,162.172C984.821,162.331 986.147,162.928 987.048,162.163C987.33,161.922 987.348,161.38 987.208,161.068ZM484.086,0C484.052,3.954 484.005,7.903 483.959,11.843C483.672,36.435 483.231,61.032 482.683,85.619C482.653,86.981 481.945,90.712 479.73,90.367C469.805,88.822 460.389,85.001 450.878,81.901C441.109,78.716 431.286,75.696 421.417,72.84C401.361,67.038 381.123,61.941 360.704,57.59C358.936,57.213 358.266,54.323 358.219,52.91C357.63,35.276 357.115,17.631 356.344,0L363.613,0C364.084,16.2 364.241,32.419 364.581,48.622C383.507,52.999 402.326,57.859 420.965,63.32C430.525,66.12 440.039,69.074 449.504,72.182C458.418,75.11 467.337,78.939 476.621,80.585C477.027,53.714 477.777,26.859 478.042,0L484.086,0Z" style="fill-rule:nonzero;"/>
</svg>
