<?xml version="1.0" encoding="UTF-8" standalone="no"?>
<!DOCTYPE svg PUBLIC "-//W3C//DTD SVG 1.1//EN" "http://www.w3.org/Graphics/SVG/1.1/DTD/svg11.dtd">
<svg width="100%" height="100%" viewBox="0 0 1000 1000" version="1.1" xmlns="http://www.w3.org/2000/svg" xmlns:xlink="http://www.w3.org/1999/xlink" xml:space="preserve" xmlns:serif="http://www.serif.com/" style="fill-rule:evenodd;clip-rule:evenodd;stroke-linejoin:round;stroke-miterlimit:2;">
    <path d="M1000,1000L0,1000L0,996.135C70.527,996.242 141.047,997.121 211.568,997.798C345.09,999.081 478.627,998.805 612.154,998.655C745.775,998.505 1000,996.134 1000,996.134L1000,1000ZM1000,923C929.632,922.937 859.262,922.42 788.892,922.177C655.253,921.716 521.607,921.984 387.968,921.94C254.31,921.896 0,923 0,923L0,918C70.659,917.951 141.312,917.542 211.967,917.243C345.688,916.679 479.413,916.971 613.136,917.015C742.093,917.058 871.048,917.935 1000,918L1000,923ZM1000,838C929.414,838.214 858.825,839.055 788.236,839.831C654.701,841.302 521.166,842.084 387.623,841.607C254.076,841.132 0,838 0,838L0,833C70.608,833.131 141.214,834.224 211.82,835.145C345.36,836.886 478.917,837.126 612.467,836.382C745.98,835.638 1000,833 1000,833L1000,838ZM0,751C60.551,751.005 121.1,751.107 181.648,751.254C250.794,751.422 319.939,751.623 389.085,751.739C458.349,751.856 527.613,751.973 596.877,752.089C666.459,752.206 736.046,752.587 805.627,752.267C870.418,751.968 935.205,751.113 1000,751L1000,756C995.838,756.007 991.678,756.028 987.517,756.04C918.027,756.251 848.542,757.223 779.051,757.354C709.798,757.486 640.541,757.162 571.287,757.046C502.033,756.93 432.78,756.826 363.526,756.694C294.045,756.563 224.563,756.348 155.082,756.192C99.055,756.066 0,756 0,756L0,751ZM1000,671C929.457,671.021 858.919,671.174 788.381,671.182C654.757,671.194 521.132,670.694 387.508,670.396C254.002,670.1 0,671 0,671L0,666C0,666 136.774,665.544 211.662,665.323C345.3,664.931 478.944,665.601 612.583,665.898C746.057,666.196 1000,666 1000,666L1000,671ZM0,584C0,584 137.056,583.885 212.084,583.813C345.098,583.684 478.113,583.773 611.127,583.789C745.085,583.804 1000,584 1000,584L1000,589C929.109,588.989 858.217,588.895 787.325,588.84C654.24,588.735 521.155,588.778 388.07,588.764C254.38,588.748 0,589 0,589L0,584ZM1000,504C985.752,504.643 971.536,506.228 957.244,505.687C938.856,504.993 920.468,504.354 902.074,503.848C864.582,502.814 827.078,502.204 789.573,501.905C655.759,500.838 521.961,503.722 388.165,505.405C258.749,507.033 129.405,504.203 0,504L0,499C70.692,499.148 141.367,500.378 212.047,500.961C345.875,502.065 479.675,498.754 613.489,497.347C680.365,496.643 747.25,496.362 814.126,497.146C847.535,497.539 880.94,498.197 914.336,499.201C930.66,499.691 946.995,500.618 963.323,500.879C975.569,501.076 987.777,499.608 1000,499L1000,504ZM1000,421.9C929.292,421.772 858.581,420.768 787.872,419.791C654.29,417.944 520.695,417.13 387.101,417.277C320.581,417.35 254.061,417.666 187.542,418.221C154.049,418.501 120.57,418.864 87.088,419.844C58.061,420.693 29.034,421.643 0,421.9L0,416.9C32.752,416.609 65.491,415.424 98.236,414.527C135.452,413.506 172.683,413.324 209.91,413.043C343.248,412.037 476.592,412 609.931,412.935C744.288,413.876 1000,416.9 1000,416.9L1000,421.9ZM1000,337C1000,337 862.934,337.021 787.901,337.075C654.159,337.172 520.418,337.346 386.677,337.488C253.45,337.63 0,337 0,337L0,332C70.367,332.034 140.736,332.315 211.105,332.469C344.694,332.764 478.285,332.391 611.874,332.248C741.251,332.11 870.627,332.007 1000,332L1000,337ZM1000,255C928.966,254.909 857.944,254.874 786.911,254.3C652.821,253.218 518.741,253.529 384.652,254.667C318.416,255.228 252.177,255.801 185.938,255.527C152.774,255.389 119.611,255.039 86.454,254.369C69.686,254.03 52.91,253.305 36.138,253.655C24.088,253.906 12.048,254.691 0,255L0,250C14.02,249.638 28.032,248.699 42.061,248.562C60.909,248.377 79.788,249.264 98.634,249.601C135.854,250.267 173.08,250.546 210.306,250.591C343.835,250.751 477.357,248.512 610.888,248.549C744.927,248.586 1000,250 1000,250L1000,255ZM1000,170C929.385,169.898 858.771,169.051 788.152,168.786C654.397,168.284 520.639,168.251 386.884,168.263C320.097,168.27 253.311,168.308 186.524,168.335C120.009,168.362 0,170 0,170L0,165C70.345,164.811 140.686,163.353 211.042,163.325C344.727,163.27 478.412,163.226 612.097,163.418C745.731,163.61 1000,165 1000,165L1000,170ZM1000,88C995.805,87.999 991.61,87.995 987.416,87.993C917.787,87.954 848.158,87.766 778.529,87.599C709.322,87.433 640.114,87.302 570.906,87.211C501.714,87.121 432.521,87.031 363.328,87.061C293.868,87.091 224.409,87.407 154.949,87.664C103.299,87.855 51.649,87.982 0,88L0,83C60.502,82.99 121.003,82.795 181.506,82.563C250.627,82.298 319.747,82.039 388.869,82.062C458.07,82.085 527.271,82.146 596.474,82.247C666.033,82.347 735.593,82.494 805.153,82.664C874.436,82.833 1000,83 1000,83L1000,88ZM1000,0L1000,1.139C929.328,1.278 858.668,2.387 788.005,3.038C654.446,4.27 520.856,3.805 387.293,3.651C253.857,3.498 0,1.133 0,1.133L0,0L1000,0Z" style="fill-rule:nonzero;"/>
</svg>
