<?xml version="1.0" encoding="UTF-8" standalone="no"?>
<!DOCTYPE svg PUBLIC "-//W3C//DTD SVG 1.1//EN" "http://www.w3.org/Graphics/SVG/1.1/DTD/svg11.dtd">
<svg width="100%" height="100%" viewBox="0 0 1000 1000" version="1.1" xmlns="http://www.w3.org/2000/svg" xmlns:xlink="http://www.w3.org/1999/xlink" xml:space="preserve" xmlns:serif="http://www.serif.com/" style="fill-rule:evenodd;clip-rule:evenodd;stroke-linejoin:round;stroke-miterlimit:2;">
    <path d="M34.026,1000C33.134,998.387 31.983,996.782 30.545,995.198C23.522,987.46 13.41,979.696 2.692,978.76C1.792,978.682 0.894,978.653 0,978.671L0,962.245C3.537,961.506 7.17,961.255 10.833,961.616C30.808,963.586 43.173,981.427 43.98,1000L34.026,1000ZM627.814,1000C628.101,996.326 628.838,992.697 630.03,989.163C638.54,963.946 668.897,952.227 691.84,966.414C703.412,973.569 710.756,986.43 712.713,1000L708.115,1000C706.564,989.96 701.046,981.026 693.183,975.005C697.453,979.607 700.845,985.182 703.309,990.612C704.682,993.636 705.753,996.787 706.492,1000L700.325,1000C700.068,999.377 699.789,998.76 699.488,998.151C690.384,979.736 664.673,968.081 647.075,982.202C643.243,985.277 640.022,989.393 638.617,994.154C638.053,996.067 637.837,998.027 637.842,1000L627.814,1000ZM790.977,1000C790.742,996.182 791.159,992.292 792.357,988.423C794.002,983.105 796.879,978.43 800.57,974.485C814.994,953.77 845.55,954.596 865.726,966.929C877.368,974.045 881.636,985.48 880.759,998.791C880.732,999.194 880.701,999.597 880.666,1000L871.293,1000C871.601,992.423 869.073,984.936 864.003,979.046C860.552,975.037 856.387,972.148 851.827,970.252C847.092,968.951 842.043,968.59 837.178,969.025C819.678,970.589 799.239,981.706 797.222,1000L790.977,1000ZM296.718,1000C296.722,999.897 296.727,999.794 296.732,999.692C296.78,998.693 296.863,997.69 296.98,996.685C296.674,997.32 296.366,997.95 296.054,998.574C294.762,1001.16 292.533,997.24 293.313,995.509C298.588,983.82 303.238,968.014 314.413,960.423C325.38,952.974 343.051,955.451 354.284,961.315C366.154,967.511 372.023,979.294 374.778,991.911C375.366,994.603 375.84,997.306 376.151,1000L367.21,1000C367.509,979.091 345.899,962.024 325.596,970.359C313.003,975.529 306.524,987.767 307.188,1000L302.227,1000L302.226,999.976C302.101,997.969 302.144,995.975 302.34,994.014C301.866,996.024 301.595,998.025 301.513,1000L296.718,1000ZM959.491,1000C959.874,998.965 960.32,997.936 960.834,996.916C960.89,996.805 960.947,996.693 961.005,996.582C963.89,988.395 969.631,981.058 975.935,975.285C982.636,969.149 991.011,964.122 1000,962.245L1000,978.671C989.636,978.88 979.689,985.315 972.624,992.428C970.445,994.622 968.433,997.204 966.867,1000L959.491,1000ZM129.632,1000C131.326,989.707 136.576,980.367 144.093,973.062C152.277,965.109 164.072,958.07 175.864,960.111C187.429,962.113 197.123,971.363 203.833,980.494C208.316,986.594 210.382,993.221 210.326,1000L205.691,1000C205.784,997.545 205.442,995.079 204.507,992.65C203.578,990.236 202.267,987.896 200.702,985.671C202.446,990.22 203.528,995.088 203.919,1000L194.269,1000C194.218,994.798 193.154,989.885 190.991,986.056C186.712,978.477 178.257,973.215 169.428,974.37C159.97,975.607 150.497,982.597 145.333,990.426C143.241,993.598 142.054,996.82 141.616,1000L129.632,1000ZM462.835,1000C462.945,997.937 463.201,995.879 463.608,993.838C465.592,983.887 470.61,975.411 477.474,969.235C482.902,962.292 490.997,958.958 499.337,958.806C505.944,957.786 512.954,958.333 519.927,960.753C532.21,965.017 542.128,974.753 546.098,987.202C547.494,991.582 547.951,995.843 547.707,1000L543.305,1000C543.777,993.733 542.16,988.083 539.146,983.252C541.839,988.589 542.726,994.279 542.322,1000L533.302,1000C533.147,987.71 525.509,976.021 514.766,970.164C514.27,969.959 513.771,969.763 513.271,969.576C502.044,968.375 484.946,965.256 480.383,977.585C478.472,982.749 478.764,988.53 478.711,993.946C478.691,995.952 478.621,997.973 478.559,1000L472.54,1000C472.055,997.389 471.716,994.715 471.572,992.045C470.744,994.699 470.169,997.384 469.902,1000L462.835,1000ZM537.412,993.536C537.489,994.032 537.556,994.529 537.616,995.028C537.675,995.526 537.726,996.025 537.768,996.525C537.718,995.511 537.601,994.513 537.412,993.536ZM10.133,969.083C13.548,969.876 16.918,971.251 20.202,973.222C25.02,976.114 30.097,979.512 34.159,983.692C28.815,975.483 19.922,970.022 10.133,969.083ZM634.262,818.827C634.782,815.379 635.734,812.017 637.211,808.858C642.216,798.153 653.034,793.351 663.799,790.129C669.643,788.38 676.003,787.062 682.089,788.22C684.082,788.599 685.838,789.303 687.442,790.23C696.344,792.569 704.426,798.104 709.333,805.961C716.379,817.244 717.407,834.159 714.84,846.937C714.181,850.218 713.163,853.434 711.828,856.519C711.044,858.638 710.027,860.71 708.733,862.72C708.03,863.813 707.273,864.887 706.467,865.934C698.528,876.901 686.171,884.509 672.137,884.297C662.346,884.15 652.602,880.487 645.232,874.016C636.312,866.186 632.1,854.24 630.434,842.757C630.269,841.619 630.16,840.472 630.103,839.319C629.123,838.743 628.282,837.174 628.595,835.839C629.388,832.456 630.44,829.063 631.741,825.732C632.403,823.39 633.249,821.079 634.262,818.827ZM0,793.882C8.572,793.069 16.868,794.938 23.976,798.928C30.161,801.439 35.902,805.391 39.401,810.911C41.819,814.725 43.069,819.197 43.65,823.853C48.758,841.262 42.566,861.19 30.012,874.14C22.683,881.7 11.391,883.649 1.257,883.66C0.835,883.66 0.416,883.655 0,883.644L0,872.73C6.062,873.927 12.221,873.675 18.128,870.625C25.293,866.925 32.61,859.653 36.088,852.34C39.789,844.56 39.377,832.958 38.273,824.561L38.249,824.387C36.648,819.975 34.089,815.803 30.503,812.08C28.908,810.425 27.167,808.961 25.313,807.69C17.673,803.935 8.01,802.925 0,803.849L0,793.882ZM1000,793.882L1000,803.849C999.335,803.926 998.681,804.016 998.041,804.119C993.829,804.797 989.633,806.024 985.668,807.762C980.004,811.107 975.013,815.575 971.53,821.222C966.08,830.057 967.543,838.944 968.853,848.754C969.561,854.057 970.842,858.545 975.211,861.968C978.936,864.885 983.619,866.832 987.924,868.726C991.832,870.445 995.893,871.92 1000,872.73L1000,883.644C989.203,883.361 979.831,879.293 971.268,872.731C963.078,866.453 957.98,858.578 957.039,848.166C956.142,838.244 958.355,827.475 962.969,818.651C966.353,812.177 971.561,806.999 977.737,803.192C982.593,799.154 988.146,796.183 994.756,794.713C996.51,794.323 998.26,794.047 1000,793.882ZM293.327,834.711C292.832,810.432 319.274,789.38 342.915,791.692C356.329,793.003 368.273,800.816 374.831,812.577C378.22,818.655 379.912,825.159 380.214,831.755C380.314,832.774 380.367,833.79 380.37,834.798C380.377,837.404 380.06,839.975 379.527,842.506C378.876,846.358 377.806,850.179 376.381,853.902C375.138,857.148 373.725,860.223 372.077,863.06C370.916,865.526 369.617,867.916 368.076,870.118C360.377,881.117 345.564,884.615 331.944,882.171C325.761,881.823 319.669,880.418 314.231,877.769C302.857,872.23 295.6,861.99 293.882,849.512C293.212,844.648 292.944,839.632 293.327,834.711ZM160.066,792.211C166.584,789.927 173.722,789.358 181.153,791.15C181.597,791.257 182.034,791.375 182.465,791.503C183.325,791.694 184.181,791.913 185.031,792.158C188.594,792.542 192.127,793.337 194.934,795.123C196.643,796.21 198.165,797.674 199.541,799.316C201.504,800.751 203.347,802.332 205.036,804.035C205.981,804.987 206.824,805.983 207.572,807.017C208.449,807.891 209.242,808.857 209.912,809.955C212.268,813.814 212.96,818.481 212.67,823.318C212.833,828.692 211.933,834.231 210.596,839.449C207.66,850.908 202.096,863.47 194.113,872.35C186.288,881.054 172.851,883.208 161.663,882.511C155.704,882.14 149.597,880.767 144.058,878.254C137.709,876.72 133.341,872.935 130.493,867.908C124.011,859.114 124.202,845.042 126.471,834.952C127.121,832.059 128.048,829.258 129.184,826.539C129.482,825.566 129.795,824.626 130.121,823.725C133.459,814.485 139.343,805.905 146.891,799.725C149.896,796.435 153.311,793.818 157.845,792.682C158.575,792.498 159.316,792.343 160.066,792.211ZM794.843,834.562C797.851,823.112 807.245,812.472 815.611,804.998C825.08,796.539 837.774,790.74 850.604,793.303C855.457,794.039 860.291,795.918 864.944,799.214C871.46,803.828 875.922,810.514 878.531,818.084C880.709,822.915 881.429,827.68 881.266,832.427C881.89,843.783 879.187,855.459 873.683,864.296C873.61,864.413 873.536,864.53 873.461,864.648C872.759,865.945 871.99,867.188 871.143,868.355C870.015,870.294 868.614,872.066 866.779,873.552C862.343,877.143 856.548,879.183 851.045,880.417C838.873,883.145 826.099,881.188 815.367,874.823C810.764,872.092 806.415,868.567 802.818,864.423C799.425,860.808 796.664,856.679 795.378,852.079C795.071,851.243 794.796,850.394 794.555,849.534C793.074,844.233 793.409,839.267 794.843,834.562ZM489.989,794.319C491.83,793.321 493.757,792.49 495.784,791.876C500.346,790.496 504.713,790.506 508.802,791.546C512.745,792.028 516.538,793.251 519.953,795.328C527.787,798.463 533.895,804.142 538.814,811.889C545.541,822.484 549.757,833.818 546.411,846.368C544.208,854.632 539.73,862.077 533.753,867.814C531.042,872.058 527.41,875.554 522.7,877.798C513.514,882.175 500.354,881.255 490.811,878.509C481.033,875.694 474.247,868.429 469.96,859.447C468.709,856.826 467.566,854.013 466.585,851.095C464.747,847.123 463.203,842.956 461.887,838.748C460.465,834.198 458.416,829.147 459.877,824.35C460.88,821.06 463.509,818.278 466.132,815.739C468.46,811.592 471.391,807.846 474.8,804.634C475.851,803.579 476.941,802.567 478.058,801.599C481.562,798.563 485.647,796.083 489.989,794.319ZM196.534,858.744C193.653,861.671 190.424,864.266 186.887,866.459C181.048,870.078 174.473,872.548 168.071,874.975L167.737,875.1C172.365,874.872 176.955,874.024 181.226,872.575C188.292,870.176 192.896,864.84 196.534,858.744ZM363.909,811.503C356.168,805 344.618,802.104 333.921,803.371C329.868,804.105 325.773,805.272 321.879,806.882C315.787,809.94 310.859,814.884 308.411,821.873C306.597,827.053 306.567,832.972 306.34,838.396C306.127,843.496 306.069,848.705 307.297,853.695C309.616,863.111 317.177,869.133 326.09,872.015C329.812,873.219 333.914,873.976 338.059,874.189C342.736,874.001 347.599,873.29 352.095,871.748C352.5,871.127 353.07,870.686 353.813,870.575C354.947,870.405 355.993,870.088 356.962,869.651C357.833,869.188 358.678,868.683 359.492,868.133C362.302,865.998 364.363,862.815 366.106,859.664C367.844,856.52 369.492,853.23 370.908,849.865L371.017,849.591C372.114,846.809 373.203,843.931 373.917,840.99C374.596,837.92 374.8,834.837 374.544,831.823C374.512,831.592 374.475,831.36 374.433,831.129C373.59,826.46 371.303,822.137 368.82,818.149C367.282,815.679 365.662,813.451 363.909,811.503ZM875.362,828.532C873.109,821.237 867.272,815.252 860.073,812.125C839.249,803.076 816.002,816.85 804.029,833.849C801.407,837.573 799.08,843.265 799.764,848.153C800.71,850.997 802.27,853.723 804.15,856.222C805.896,858.147 807.89,859.899 809.632,861.458C816.643,867.726 825.163,872.388 834.71,872.873C844.288,873.358 855.413,872.691 863.123,866.416C865.467,864.508 867.432,862.305 869.06,859.891C870.269,856.826 871.014,853.467 871.909,850.531C873.2,846.293 874.669,842.017 875.675,837.683C875.826,834.631 875.75,831.551 875.362,828.532ZM692.994,804.217C679.971,795.239 661.767,797.2 650.052,808.683C646.184,812.475 642.355,817.009 639.574,822.007C639.41,823.342 639.335,824.727 639.35,826.163C639.462,836.404 643.153,847.096 648.714,855.629C659.979,872.916 681.844,879.464 698.05,864.623C705.885,857.448 709.429,848.976 708.502,838.349C708.274,835.732 707.982,833.049 707.554,830.376C707.019,829.753 706.625,828.835 706.523,827.624C705.8,818.98 699.538,810.623 692.994,804.217ZM510.955,800.854C507.23,800.349 503.43,800.368 499.812,800.813C497.764,801.065 495.76,801.474 493.813,802.026C492.122,802.642 490.46,803.373 488.85,804.203C487.248,805.298 485.721,806.504 484.282,807.753C481.003,810.598 478.006,813.738 474.997,816.86C474.03,817.864 472.836,818.925 471.614,820.029C470.771,821.449 470.067,822.936 469.57,824.487C467.812,829.978 469.009,835.9 470.257,841.368C471.036,844.778 471.994,848.287 473.296,851.649C473.403,851.844 473.511,852.038 473.621,852.231C481.85,866.711 497.578,874.433 514.069,870.6C518.962,869.463 523.804,866.981 528.065,863.597C528.578,862.923 529.066,862.2 529.53,861.425C537.825,847.574 536.002,829.391 527.517,816.076C523.547,809.846 517.896,803.816 510.955,800.854ZM635.336,838.654C635.64,847.433 639.169,857.357 644.379,863.736C646.884,866.802 649.883,869.323 653.193,871.283C644.664,863.134 638.701,851.42 635.825,840.615C635.653,839.967 635.489,839.313 635.336,838.654ZM181.813,799.968C178.234,799.695 174.629,799.684 171.046,799.703C168.321,799.715 165.464,799.631 162.675,799.896L162.629,799.91C161.457,800.288 160.298,800.725 159.153,801.218C155.263,802.893 151.791,805.073 148.721,807.651C147.444,809.225 146.271,810.882 145.115,812.434C142.183,816.366 139.316,820.36 136.853,824.606C136.087,825.926 135.388,827.269 134.757,828.633C133.353,832.501 132.347,836.52 131.753,840.551C130.594,848.419 130.649,858.123 135.676,864.51C137.646,866.555 140.082,868.268 142.685,869.675C152.091,873.444 162.678,868.885 171.466,865.362C180.317,861.813 188.573,857.732 195.065,850.552C201.213,843.754 207.72,832.288 205.869,822.794C204.936,817.999 201.815,813.393 198.988,809.376C198.804,809.266 198.62,809.155 198.438,809.044C192.63,805.481 187.59,801.922 181.813,799.968ZM302.451,822.714C300.928,825.374 299.819,828.301 299.23,831.501C297.629,840.201 298.144,850.429 302.603,858.315C300.278,850.43 300.538,841.691 301.037,833.566C301.269,829.791 301.691,826.158 302.451,822.714ZM963.301,847.745C963.183,848.335 962.938,848.774 962.628,849.063C963.01,851.366 963.684,853.589 964.709,855.699C964.05,853.122 963.636,850.438 963.301,847.745ZM534.56,816.047C536.017,819.041 537.187,822.057 538.035,824.94C540.003,831.63 540.858,839.967 540.038,848.13C542.605,842.045 543.297,835.399 541.108,829.036C539.641,824.771 537.382,820.183 534.56,816.047ZM855.215,802.586C851.544,801.338 847.615,800.796 843.628,801.025C837.366,801.383 831.538,803.337 826.238,806.367C835.539,802.16 845.893,800.443 855.376,802.654L855.215,802.586ZM487.704,628.011C495.123,623.669 503.703,622.345 512.744,625.065C525.518,628.908 534.686,639.434 539.704,651.454C542.28,657.627 543.878,664.23 544.712,670.855C544.784,671.426 544.837,671.986 544.871,672.536C546.144,678.972 545.885,685.553 542.863,691.845C542.366,692.879 541.811,693.874 541.204,694.827C540.83,695.721 540.409,696.592 539.936,697.439C537.729,701.387 534.329,704.545 530.335,706.963C526.755,710.082 522.352,712.383 516.827,713.928C505.015,717.231 492.252,718.71 481.845,711.054C471.911,703.745 463.987,692.293 460.446,680.491C456.979,668.935 463.36,655.785 469.124,645.857C470.498,643.49 472.093,641.308 473.869,639.323C475.995,636.294 478.62,633.594 481.712,631.367C483.621,629.991 485.629,628.875 487.704,628.011ZM0,622.532C1.926,622.406 3.867,622.515 5.808,622.869C6.277,622.878 6.753,622.896 7.231,622.921C32.467,624.276 47.942,647.44 47.135,671.221C46.784,681.566 45.069,692.996 38.275,701.216C33.568,706.908 27.069,710.6 20.063,712.628C13.831,715.526 6.772,716.437 0,715.295L0,705.951C5.549,706.725 11.234,706.558 16.631,705.32C24.339,702.274 30.605,695.961 33.32,688.074C36.324,679.345 34.889,668.158 33.344,659.224C31.604,649.156 25.527,643.378 17.69,637.481C16.243,636.393 14.775,635.394 13.283,634.519C11.351,634.208 9.449,634.017 7.676,633.907C5.178,633.753 2.571,633.629 0,633.784L0,622.532ZM142.264,638.035C152.211,628.366 165.657,622.947 179.357,627.099C181.453,627.735 183.473,628.533 185.412,629.478C186.983,629.975 188.507,630.701 189.971,631.74C190.949,632.434 191.868,633.196 192.734,634.019C209.511,646.878 217.245,671.616 209.111,691.35C198.998,715.887 170.08,721.766 148.079,709.488C137.103,703.362 128.346,694.203 126.139,681.457C124.524,672.13 126.291,662.571 130.604,654.256C132.626,647.562 136.854,642.087 142.264,638.035ZM1000,622.532L1000,633.784C997.737,633.92 995.502,634.273 993.394,635.012C988.143,636.852 985.402,641.008 983.334,645.916C981.158,651.079 979.31,656.402 977.315,661.638C975.36,666.771 973.021,671.923 971.783,677.29C969.13,688.787 978.496,695.857 987.191,701.381C989.023,702.545 990.925,703.568 992.88,704.422C995.204,705.102 997.59,705.616 1000,705.951L1000,715.295C997.873,714.937 995.774,714.375 993.739,713.609C991.945,712.934 990.104,712.124 988.264,711.192C976.926,706.923 967.2,698.683 962.571,687.206C960.734,682.653 959.763,677.868 959.696,673.091C959.551,672.609 959.487,672.078 959.539,671.526C959.645,670.39 959.783,669.254 959.955,668.118C960.18,666.23 960.551,664.356 961.069,662.511C964.682,647.876 973.632,634.309 986.457,627.479C990.735,624.53 995.323,622.837 1000,622.532ZM637.258,644.211C646.841,632.289 661.846,625.028 677.767,627.974C682.731,628.893 687.33,630.624 691.46,633.002C695.689,634.701 698.881,637.445 701.439,640.914C711.084,651.199 715.617,665.995 712.194,680.756C709.582,692.022 702.442,701.666 693.062,707.797C691.826,708.782 690.511,709.686 689.115,710.497C682.186,714.526 673.867,715.763 665.946,714.678C664.643,714.55 663.338,714.356 662.032,714.095C650.325,711.755 640.447,702.016 633.721,692.581C627.209,683.447 623.655,671.726 626.627,660.631C628.33,654.279 632.332,648.79 637.258,644.211ZM795.798,671.014C795.089,667.526 796.572,664.366 798.268,661.073C801.186,655.408 804.323,649.81 808.134,644.689C814.497,636.141 823.126,628.747 833.783,626.451C857.459,621.349 874.142,643.475 879.686,663.62C882.416,673.539 882.133,682.993 876.551,691.862C871.697,699.574 863.998,707.755 855.479,711.337C847.903,714.524 839.06,715.377 830.528,714.065C828.747,714.127 826.958,714.051 825.167,713.825C816.755,712.765 808.744,708.606 803.833,701.562C802.693,699.927 801.717,698.159 800.88,696.301C796.042,688.834 794.016,679.773 795.798,671.014ZM300.195,645.33C302.958,638.633 306.979,632.419 312.413,627.853C320.07,621.422 329.851,619.817 339.219,621.732C354.894,622.128 367.778,631.184 374.872,643.745C376.915,645.024 378.785,646.553 380.322,648.433C386.732,656.273 385.532,666.522 381.949,675.412C381.087,678.612 379.792,681.707 378.132,684.557C376.476,687.403 374.399,690.24 372.015,692.938C361.838,707.416 344.156,717.514 326.935,713.141C310.712,709.022 300.626,695.972 297.032,680.89C296.292,680.772 295.639,680.127 295.485,678.799C294.174,667.446 295.076,655.539 300.195,645.33ZM685.792,640.002C680.2,638.966 674.012,639.443 668.739,639.937C657.872,640.955 647.998,644.943 642.375,654.787C637.54,663.249 636.411,673.705 639.182,683.04C644.118,699.666 661.193,709.479 678.123,706.038C697.137,702.172 705.409,681.563 703.042,663.838C701.517,652.411 694.804,644.092 685.792,640.002ZM828.486,705.883C831.654,705.938 834.838,705.512 837.88,704.639C852.312,700.5 866.498,687.435 869.018,672.2C871.456,657.477 859.986,640.346 845.763,636.177C829.931,631.536 817.638,646.349 809.154,657.487C806.422,661.073 803.763,664.992 802.09,669.21C801.503,672.141 801.648,675.11 802.148,678.557C802.905,683.774 803.955,688.941 806.285,693.374C808.186,695.733 810.434,697.81 812.873,699.498C817.263,702.537 822.709,704.722 828.486,705.883ZM503.338,634.486C496.538,634.321 489.643,636.027 483.925,639.748C483.217,640.208 482.538,640.698 481.885,641.213C480.979,642.143 480.103,643.116 479.255,644.123C478.394,645.143 477.5,646.202 476.597,647.294C476.225,647.906 475.875,648.536 475.549,649.18C470.934,658.303 473.204,669.545 475.368,679.085C477.788,689.754 483.739,698.314 494.119,702.462C501.216,705.299 508.926,705.527 516.243,703.814C522.234,701.932 528.247,698.956 532.82,694.584C534.319,691.939 535.375,689.031 536.502,686.083C537.082,684.566 537.642,683.169 538.129,681.815C538.181,679.513 538.019,677.196 537.804,674.949C537.412,670.852 536.676,666.71 535.544,662.72C533.562,658.852 531.217,655.248 529.079,652.197C522.989,643.509 514.034,636.044 503.338,634.486ZM176.444,637.369C175.929,637.385 175.407,637.41 174.878,637.44C168.149,637.828 160.958,638.585 154.429,640.858C146.717,644.639 140.012,650.832 135.795,658.202C135.659,658.673 135.544,659.151 135.451,659.634C134.565,664.243 136.329,668.333 138.277,672.413C142.161,680.548 146.433,689.22 153.217,695.356C160.97,702.367 170.899,703.507 180.955,702.583C181.214,702.56 181.474,702.535 181.734,702.509C188.192,700.841 193.968,696.877 197.77,691.148C204.008,681.75 201.306,668.903 198.524,658.704C197.7,655.682 196.636,652.608 195.241,649.711C190.85,643.479 184.545,638.838 176.444,637.369ZM368.695,649.322C368.226,649.121 367.759,648.93 367.298,648.748C355.873,644.231 343.611,640.91 331.257,642.028C325.432,642.555 319.109,643.529 314.006,646.589C308.593,649.837 306.169,655.616 304.885,661.543C303.058,669.977 302.321,680.148 307.072,687.806C312.139,695.972 324.567,699.713 333.465,701.617C344.508,703.981 353.971,699.021 362.188,692.232C366.609,688.083 370.471,683.354 373.645,678.135C376.246,671.048 376.629,663.15 374.571,655.866C372.916,653.481 370.797,651.347 368.695,649.322ZM131.283,671.82C130.079,684.491 137.961,694.863 148.629,701.164C144.691,697.124 141.478,692.276 138.756,687.379C135.981,682.384 133.082,677.211 131.283,671.82ZM874.295,663.603C875.093,670.5 874.202,677.575 871.321,684.122C868.791,689.875 864.921,695.407 860.157,700.117C860.387,699.94 860.613,699.759 860.836,699.574C866.593,694.811 872.683,688.658 875.294,681.523C877.353,675.898 876.302,669.497 874.295,663.603ZM467.378,663.966C466.38,666.425 465.047,669.062 464.606,671.748C464.605,672.098 464.614,672.451 464.633,672.804C464.662,673.359 464.605,673.835 464.486,674.231C464.682,676.81 465.836,679.438 466.828,681.747C468.756,686.234 471.279,690.438 474.285,694.284C474.619,694.711 474.956,695.132 475.297,695.546C470.012,686.551 467.709,674.531 467.378,663.966ZM36.906,649.06C36.852,649.156 36.796,649.25 36.737,649.341C40.486,659.702 41.219,673.06 40.054,683.832C40.017,684.17 39.976,684.508 39.93,684.846C43.622,673.947 42.725,660.739 38.112,651.31C37.736,650.542 37.334,649.792 36.906,649.06ZM974.919,650.286C974.288,651.171 973.666,652.054 973.048,652.924C967.448,660.818 963.496,669.019 965.77,678.767C966.449,672.77 968.74,666.781 970.91,661.07C972.269,657.493 973.572,653.88 974.919,650.286ZM633.514,660.308C632.693,662.293 632.036,664.344 631.56,666.443C631.445,666.955 631.283,667.366 631.091,667.686C630.793,670.9 631.207,674.217 632.32,677.554C631.789,672.751 631.965,667.858 632.883,663.121C633.066,662.18 633.276,661.241 633.514,660.308ZM336.279,629.328C333.894,629.435 331.511,629.775 329.168,630.365C323.689,631.745 318.986,634.076 315.039,637.129C324.759,632.6 337.589,632.526 347.322,634.353C348.889,634.648 350.459,634.984 352.027,635.357C347.267,632.422 341.842,630.164 336.279,629.328ZM650.645,464.952C656.228,460.561 662.605,457.412 669.939,457.062C672.599,456.935 675.269,457.124 677.91,457.578C681.702,457.769 685.449,458.622 688.984,460.303C693.974,462.101 698.63,464.916 701.937,468.867C702.543,469.345 703.137,469.831 703.718,470.324C713.373,478.514 716.524,489.899 715.375,502.225C714.364,513.052 710.994,523.015 704.28,531.55C703.584,532.869 702.859,534.17 702.117,535.456C699.88,539.332 697.416,545.244 693.181,547.422C687.86,550.16 680.662,549.775 673.836,548.491C663.042,548.969 654.119,547.235 644.926,540.717C635.353,533.929 627.511,526.906 625.481,514.815C622.999,500.038 628.321,486.964 637.621,476.845C640,472.958 643.168,469.579 647.23,466.988C648.335,466.284 649.475,465.603 650.645,464.952ZM134.993,472.481C139.2,468.536 144.376,465.378 148.984,463.013C159.934,457.392 171.898,456.804 182.879,462.677C201.872,472.834 220.672,498.218 210.365,520.175C209.908,521.148 209.425,522.116 208.914,523.075C207.697,525.594 206.174,527.995 204.399,530.261C202.554,532.748 200.486,535.059 198.189,537.085C192.843,542.363 186.022,547.591 179.078,547.774C178.009,547.802 176.916,547.812 175.807,547.799C174.607,548.097 173.399,548.347 172.183,548.539C166.492,549.437 160.766,548.443 155.247,547.014C144.308,544.181 139.198,536.002 133.84,526.622C127.815,516.074 126.11,504.475 125.642,492.472C125.297,483.637 128.613,477.367 134.993,472.481ZM0,457.149C3.216,457.008 6.465,457.403 9.77,458.344C14.101,459.577 18.189,461.436 21.954,463.799C31.866,468.53 39.449,475.898 42.95,486.73C43.624,488.815 44.122,490.933 44.455,493.068C47.219,501.738 47.73,511.075 45.326,520.029C42.451,530.736 35,540.465 24.64,544.843C17.401,547.901 8.513,548.61 0,547.993L0,536.151C1.894,536.074 3.781,535.934 5.637,535.774C15.845,534.893 25.038,531.689 31.313,523.19C33.729,519.916 35.768,516.285 37.232,512.452C37.298,508.935 36.753,505.409 35.611,502.061C31.928,491.263 22.66,484.245 13.03,478.907C9.016,476.682 4.573,474.734 0,473.61L0,457.149ZM1000,457.149L1000,473.61C993.459,472.001 986.655,472.078 980.471,475.439C975.563,478.106 970.973,483.001 967.4,488.463C966.83,489.992 966.304,491.533 965.775,493.049C964.105,497.837 962.707,502.564 962.659,507.586C962.681,508.478 962.734,509.375 962.818,510.275C963.24,514.786 964.319,518.996 966.122,522.728C968.86,525.612 972.792,527.359 976.254,529.442C981.215,532.427 985.964,535.36 991.857,535.968C994.531,536.244 997.272,536.262 1000,536.151L1000,547.993C995.331,547.656 990.775,546.919 986.665,545.954C976.209,543.498 968.33,538.244 963.386,529.746C962.012,528.458 960.822,526.969 959.926,525.156C957.5,520.251 955.667,514.336 955.125,508.882C954.319,500.769 957.509,492.502 961.96,485.254C963.19,482.565 964.66,480.001 966.345,477.591C967.655,475.098 969.226,472.757 971.22,470.698C976.07,465.687 983.219,462.101 989.595,459.497C993.045,458.088 996.503,457.301 1000,457.149ZM475.804,472.511C476.938,471.244 478.144,470.042 479.436,468.926C488.909,460.75 505.284,457.666 517.428,460.404C529.583,463.146 540.006,475.039 543.75,486.501C547.586,498.247 546.266,511.445 540.459,522.315C537.008,528.774 531.601,534.375 525.169,538.605C523.43,540.028 521.617,541.273 519.732,542.347C518.951,542.977 518.154,543.562 517.341,544.091C515.021,545.602 512.347,546.198 509.566,546.365C505.219,547.427 500.594,547.821 495.719,547.616C491.314,547.431 487.141,546.261 483.407,544.303C482.914,544.1 482.427,543.887 481.943,543.661C469.484,537.847 464.922,526.743 462.388,514.075C461.189,508.079 459.621,503.337 461.919,497.371C462.124,496.839 462.333,496.307 462.546,495.776C463.375,491.984 465.166,488.418 467.226,484.869C467.63,484.173 468.04,483.478 468.457,482.786C468.737,482.23 469.018,481.678 469.301,481.129C471.124,477.59 473.309,474.782 475.804,472.511ZM795.805,500.014C797.945,490.134 803.473,479.765 809.533,472.196C816.351,463.682 826.489,458.859 837.3,458.037C848.252,457.204 859.726,460.607 867.77,468.249C875.637,475.724 878.362,485.133 879.462,495.642C880.659,507.081 877.993,516.047 871.963,525.758C871.824,525.981 871.684,526.204 871.543,526.424C870.989,527.588 870.393,528.72 869.759,529.813C862.512,542.288 849.784,548.311 836.932,546.933C821.865,547.061 808.013,538.201 800,524.641C797.459,520.342 794.911,515.739 794.356,510.699C793.948,507.009 794.682,503.472 795.805,500.014ZM332.669,456.546C339.156,454.902 346.106,455.625 352.616,458.928C354.858,460.065 356.951,461.44 358.892,463.007C362.103,464.413 365.171,466.157 367.848,468.404C371.579,471.536 374.223,475.202 375.954,479.198C377.532,481.669 378.79,484.295 379.629,487.045C383.402,499.414 377.881,513.554 370.347,523.388C367.807,526.703 364.809,529.873 361.476,532.744C361.162,533.071 360.847,533.393 360.529,533.708C358.686,535.535 356.688,537.214 354.566,538.708C352.889,539.993 351.085,541.1 349.14,541.98C344.025,544.579 338.417,546.132 332.645,546.256C324.458,547.184 316.176,545.574 308.715,540.314C304.542,537.371 301.115,533.274 298.993,528.625C296.251,522.618 296.443,515.895 295.228,509.519C294.063,503.409 292.866,497.457 294.623,491.313C295.266,489.064 296.207,486.951 297.351,484.95C301.52,476.185 308.741,468.397 315.818,462.485C320.598,458.49 326.527,456.758 332.669,456.546ZM683.699,466.585C679.852,465.817 675.994,465.615 672.772,465.872C672.574,465.888 672.374,465.906 672.175,465.926C663.392,467.284 654.456,471.975 647.715,477.146C646.515,478.068 645.337,479.021 644.196,480.012L643.976,480.256C642.801,481.567 641.512,483.035 640.216,484.621C637.019,491.668 636.7,500.522 637.721,507.671C639.181,517.899 643.722,528.752 653.085,534.029C660.288,538.091 668.991,539.691 677.09,540.793C677.486,540.847 677.896,540.903 678.318,540.958C681.683,540.483 684.881,539.677 687.573,538.508C691.515,536.797 695.367,533.408 698.663,529.535C703.576,520.9 706.878,511.794 706.299,501.696C705.759,492.271 701.736,483.499 696.488,475.778C694.627,473.04 692.508,470.928 690.204,469.353C688.114,468.298 685.935,467.356 683.699,466.585ZM175.677,470.867C169.313,469.131 162.396,469.44 156.056,471.143C152.118,472.2 147.841,473.705 143.872,475.715C139.092,480.243 137.296,486.687 137.702,494.36C138.232,504.402 139.327,516.139 144.139,525.131C148.452,533.188 155.897,537.309 164.723,538.715C168.869,539.375 173.182,539.669 177.38,539.72C177.502,539.721 177.623,539.722 177.743,539.721C181.329,538.715 185.011,537.347 188.413,535.574C194.525,531.003 200.754,525.745 204.357,518.907C208.802,510.47 206.59,501.318 201.78,493.637C201.183,493.46 200.577,492.923 200.034,491.897C199.095,490.123 198.032,488.415 196.862,486.79C194.282,483.559 191.355,480.398 188.197,477.735C184.415,474.752 180.174,472.4 175.677,470.867ZM839.843,470.388C835.044,471.373 830.372,472.829 826.103,475.31C817.931,480.059 812.952,488.746 808.46,496.754C805.741,501.599 803.946,506.189 805.715,511.731C807.037,515.877 809.517,519.634 812.143,523.065C817.618,530.219 825.1,536.178 833.982,538.334C836.533,538.953 839.029,539.212 841.446,539.152C848.833,538.117 855.922,534.856 861.513,529.468C862.096,528.906 862.681,528.308 863.263,527.679C866.409,523.664 868.715,518.838 869.911,513.601C872.056,504.203 870.779,496.481 864.842,488.849C860.063,482.705 854.15,475.916 847.005,472.519C844.631,471.39 842.232,470.701 839.843,470.388ZM518.486,471.15C516.27,470.563 514.029,470.3 511.871,470.42C505.789,470.757 499.467,471.995 493.565,473.467C488.205,474.805 485.12,477.135 482.443,481.965C473.527,498.049 463.408,525.214 485.127,536.394C486.243,536.968 487.435,537.457 488.682,537.863C491.097,538.458 493.602,538.784 496.139,538.875C496.559,538.286 497.154,537.915 497.924,537.928C500.122,537.964 502.574,538.208 505.037,538.291C509.552,537.546 513.99,536.135 518.122,534.125C521.745,530.88 525.21,526.889 527.916,523.034C531.422,518.038 533.239,512.405 534.541,506.497C535.532,501.998 536.965,496.858 536.895,492.023C534.59,482.539 528.336,474.351 518.486,471.15ZM356.028,470.466C352.697,469.129 349.204,468.144 345.883,467.298C339.745,465.735 334.179,465.44 328.944,466.795C321.851,470.459 316.368,477.63 312.7,484.427C304.678,499.292 301.268,527.424 320.24,535.467C326.783,538.24 333.313,538.457 339.423,536.883C339.869,536.168 340.511,535.666 341.36,535.566C342.898,535.385 344.345,535.05 345.71,534.584C348.911,533.061 351.939,531.07 354.723,528.74C359.189,524.224 362.397,518.141 365.083,512.428C367.71,506.843 371.076,500.674 370.276,494.3C369.583,488.782 366.641,483.061 363.531,478.521C361.449,475.481 358.912,472.725 356.028,470.466ZM631.794,498.849C630.884,501.815 630.622,504.814 631.398,507.7C631.736,508.955 631.046,510.457 630.164,511.017C630.788,516.844 633.166,522.368 637.706,526.459L638.071,526.787L637.97,526.589C633.98,518.687 631.617,508.658 631.794,498.849ZM132.777,484.391C130.397,488.085 130.75,492.198 131.013,496.798C131.275,501.394 131.661,505.991 132.783,510.47C133.497,513.321 134.585,516.293 135.944,519.221C135.531,517.646 135.179,516.067 134.879,514.5C133.054,504.982 131.134,494.201 132.777,484.391ZM305.566,484.243C301.956,488.478 299.153,493.188 298.904,498.079C298.674,502.62 300.131,507.264 300.855,511.803C300.387,502.463 302.009,492.923 305.566,484.243ZM468.61,497.6C468.332,498.23 468.052,498.856 467.768,499.476C466.503,502.237 466.373,504.643 466.672,507.119C467.054,503.894 467.723,500.699 468.61,497.6ZM707.453,483.74C707.767,484.543 708.064,485.34 708.343,486.127C709.517,489.43 710.362,492.833 710.876,496.281C710.812,494.453 710.616,492.669 710.277,490.966C709.751,488.328 708.77,485.928 707.453,483.74ZM3.632,466.086C14.766,469.445 26.59,477.165 33.683,486.001C36.094,489.005 38.042,492.376 39.499,495.958C39.418,495.278 39.314,494.599 39.186,493.922C36.146,486.061 30.533,478.461 23.53,472.965C22.869,472.598 22.193,472.25 21.503,471.92C15.691,469.138 9.734,466.764 3.632,466.086ZM853.487,467.629L853.408,467.724C856.522,469.941 859.371,472.644 862.057,475.533C867.235,481.104 872.294,487.071 874.77,494.212C874.101,489.414 872.67,484.693 870.476,481.021C866.581,474.504 860.467,470.013 853.532,467.57L853.487,467.629ZM0,289.629C21.906,290.037 41.367,308.322 45,329.549C46.687,339.405 45.502,349.792 41.537,358.981C39.932,362.701 37.768,366.587 35.094,370.083C34.797,370.508 34.491,370.925 34.176,371.331C32.823,373.079 31.314,374.593 29.68,375.888C27.116,378.097 24.256,379.862 21.124,380.916C16.868,382.349 12.23,382.355 7.694,382.036C7.381,382.016 7.068,381.993 6.756,381.966C5.366,381.856 3.988,381.722 2.638,381.597C1.762,381.516 0.881,381.425 0,381.32L0,372.52C6.749,374.187 14.007,374.112 20.546,371.781C29.947,368.431 33.812,360.793 36.35,351.692C38.717,343.204 40.009,333.518 36.555,325.142C34.172,319.364 29.508,314.953 24.506,311.098C24.18,311.018 23.833,310.841 23.466,310.548C22.173,309.515 20.851,308.461 19.497,307.424C18.892,306.992 18.29,306.564 17.696,306.138C12.96,302.747 7.775,299.71 2.219,298.526C1.488,298.392 0.749,298.292 0,298.228L0,289.629ZM822.125,295.77C822.32,295.678 822.518,295.586 822.717,295.496C833.438,290.646 843.831,292.261 852.901,299.582C861.494,306.519 869.794,316.216 875.243,325.799C879.803,333.82 882.215,343.225 880.242,352.399C878.054,362.578 870.314,368.252 862.135,373.833C854.058,379.342 845.155,383.378 835.185,381.604C830.146,380.707 825.222,378.671 820.653,375.969C813.745,373.39 806.863,369.733 803.801,362.972C803.279,361.82 802.865,360.63 802.529,359.415C799.754,355.187 797.773,350.485 796.651,345.597C796.103,345.405 795.651,344.814 795.522,343.703C795.038,339.512 795.177,335.284 795.871,331.15C796.564,325.451 798.469,319.879 801.684,314.868C801.852,314.606 802.024,314.346 802.198,314.088C803.87,311.302 805.815,308.681 808.002,306.281C808.3,305.884 808.608,305.492 808.926,305.104C811.853,301.539 816.934,297.13 822.125,295.77ZM657.564,296.475C660.413,295.047 663.464,294.008 666.732,293.491C690.512,289.732 707.004,312.196 711.96,332.605C713.171,337.594 714.081,342.801 712.924,347.88C711.762,352.985 708.725,357.798 705.999,362.211C700.693,370.798 693.918,376.147 684.026,378.539C674.774,380.777 664.017,382.937 654.68,380.058C645.076,377.097 640.345,368.093 636.115,359.721C633.222,353.997 630.91,348.213 630.177,342.186C629.223,342.247 628.177,341.351 627.99,339.544C626.992,329.911 632.943,320.983 638.828,313.489C639.461,312.195 640.168,310.937 640.954,309.721C644.881,303.642 650.687,298.649 657.564,296.475ZM460.294,335.369C458.129,311.781 481.294,290.416 505.292,291.72C523.289,292.697 540.543,306.661 545.206,323.644C547.32,328.983 548.404,334.532 547.84,339.673C546.339,353.358 537.108,367.063 525.814,374.631C525.217,375.031 524.607,375.415 523.986,375.784C523.481,376.168 522.96,376.534 522.423,376.882C519.399,378.839 516.07,379.929 512.591,380.367C504.102,382.359 494.997,381.595 487.247,377.329C484.387,375.754 481.744,373.734 479.312,371.404C475.95,369.545 473.152,367.118 470.843,364.297C463.316,356.515 459.522,346.358 460.294,335.369ZM1000,381.32C995.394,380.768 990.758,379.819 986.573,377.824C977.224,373.366 970.037,364.117 964.522,355.598C962.664,352.729 961.468,349.782 960.779,346.777C959.899,346.421 959.134,345.402 959.185,344.005C959.343,339.701 959.903,335.421 960.861,331.237C961.258,329.068 961.772,326.887 962.352,324.701C965.289,313.635 970.606,302.645 980.142,295.832C983.469,293.456 987.083,291.748 990.836,290.796C992.408,290.245 994.136,289.875 996.049,289.719C996.771,289.661 997.485,289.634 998.191,289.638C998.362,289.632 998.535,289.628 998.708,289.625C999.139,289.62 999.569,289.621 1000,289.629L1000,298.228C998.778,298.125 997.531,298.121 996.258,298.231C985.023,299.203 980.631,310.717 976.602,319.757C972.158,329.729 970.335,340.042 974.377,350.477C977.964,359.738 985.344,366.996 994.506,370.733C996.28,371.457 998.121,372.056 1000,372.52L1000,381.32ZM161.033,295.269C167.054,292.419 173.611,291.406 179.988,293.787C185.445,295.473 190.126,299.096 194.389,302.813C195.261,303.573 196.141,304.34 197.018,305.117C203.883,310.391 210.165,317.221 212.205,325.476C214.996,334.227 214.223,343.999 210.446,352.458C209.137,356.151 207.315,359.65 204.901,362.808C199.175,370.302 190.152,378.017 180.346,379.287C180.082,379.414 179.816,379.54 179.548,379.664C178.695,380.058 177.97,379.926 177.397,379.467C177.068,379.465 176.739,379.454 176.409,379.436C175.609,379.391 174.794,379.308 173.968,379.19C166.247,380.106 158.663,378.438 151.394,374.055C141.035,367.808 132.431,357.217 128.837,345.496C128.478,345.013 128.213,344.342 128.129,343.487C128.099,343.177 128.072,342.867 128.048,342.556C126.123,334.205 126.805,325.428 131.224,317.341C136.643,307.424 147.244,299.995 157.725,296.27C158.829,295.878 159.931,295.545 161.033,295.269ZM328.11,292.409C329.217,292.154 330.341,291.951 331.477,291.806C335.574,291.285 339.495,291.699 343.195,292.808C353.509,295.064 362.103,301.146 367.822,310.054C372.706,315.476 375.854,322.169 376.107,329.91C376.205,330.239 376.302,330.568 376.398,330.897C378.462,337.953 380.352,344.504 377.463,351.62C376.769,353.33 375.948,354.988 375.016,356.587C373.092,361.03 370.103,365.175 365.853,368.804C362.064,372.04 357.736,374.333 353.145,375.647C343.372,379.872 330.678,381.622 321.782,374.886C315.597,370.204 310.297,363.629 304.98,358.001C300.83,353.605 297.032,349.028 295.343,343.105C295.121,342.326 294.933,341.541 294.778,340.751C294.25,340.331 293.851,339.553 293.803,338.413C292.904,316.724 307.314,296.005 328.11,292.409ZM819.331,367.35C827.533,370.882 837.416,374.978 846.306,371.947C853.948,369.341 859.268,361.163 863.585,354.781C868.776,347.104 870.145,338.978 866.535,330.291C863.497,322.98 857.764,317.237 851.428,312.67C844.899,307.963 837.948,303.737 829.621,304.751C822.378,305.634 815.598,309.023 810.398,314.013C809.932,314.732 809.497,315.471 809.095,316.224C804.438,324.955 804.848,335.36 805.736,344.919C806.045,348.235 806.123,352.294 807.069,355.84C810.351,360.328 814.619,364.215 819.331,367.35ZM529.27,357.783C529.391,357.549 529.51,357.315 529.627,357.08C532.179,351.973 536.102,344.292 534.994,338.537C533.701,331.823 527.27,326.077 522.715,321.388C514.988,313.433 506.105,306.6 494.42,307.713C483.805,308.725 473.931,315.719 469.201,325.214C468.668,326.284 468.201,327.374 467.801,328.476C466.933,333.486 467.275,338.894 468.461,343.983C469.677,346.483 471.094,348.889 472.412,351.176C474.691,355.132 477.135,359.064 480.139,362.517L480.266,362.592C485.456,365.6 491.507,367.75 497.209,369.563C501.592,370.957 506.292,371.988 510.87,371.677C518.436,369.707 524.548,364.15 529.27,357.783ZM687.182,312.721C685.023,311.502 682.731,310.463 680.443,309.515C672.686,306.299 664.921,305.042 656.993,308.428C651.791,310.651 647.261,314.232 643.631,318.555C643.53,318.753 643.432,318.953 643.336,319.154C635.633,335.258 639.975,363.099 658.772,369.311C674.268,374.433 690.521,364.694 696.841,350.385C700.362,342.415 701.152,332.865 698.177,324.595C696.633,320.306 693.772,317.161 690.305,314.693C689.906,314.649 689.471,314.464 689.007,314.102C688.41,313.637 687.802,313.176 687.182,312.721ZM186.642,307.557C181.925,304.9 176.772,303.069 171.353,302.801C168.327,302.651 165.119,303.009 161.897,303.805C155.201,307.107 149.035,312.872 145.658,318.362C142.799,323.01 142.899,329.129 142.692,334.44C142.523,338.776 142.544,343.204 143.589,347.442C146.037,357.358 155.209,362.64 163.763,366.834C168.952,369.378 173.868,370.667 178.683,370.355C179.574,370.115 180.462,369.842 181.346,369.536C189.174,365.109 195.649,358.562 199.617,350.379C202.198,345.055 203.911,338.837 202.656,332.924C201.543,327.685 198.359,323.085 195.417,318.716C192.906,314.986 190.058,310.876 186.642,307.557ZM704.82,326.772C707.535,340.508 702.722,356.488 693.99,366.322C693.849,366.481 693.706,366.638 693.563,366.793C694.059,366.457 694.541,366.101 695.008,365.723C698.22,363.125 700.592,359.716 702.706,356.207C704.94,352.501 707.732,348.442 708.25,344.106C708.895,338.713 707.231,332.407 704.82,326.772ZM358.273,311.439C354.411,308.895 350.049,307.016 345.827,305.746C337.347,303.195 326.362,301.517 318.063,305.693C315.993,307.02 314.028,308.55 312.208,310.238C305.879,317.458 305.812,327.732 308.579,336.567C311.59,346.182 317.001,356.663 325.452,362.532C327.802,364.165 330.362,365.429 333.034,366.333C340.9,366.212 348.535,362.565 354.714,357.274C362.028,351.015 370.554,341.194 370.445,330.87C368.111,323.748 363.696,316.864 358.273,311.439ZM872.886,332.875C874.25,338.587 874.158,344.654 872.048,350.854C870.262,356.098 866.948,360.631 863.644,365.004L863.29,365.473C866.729,363.043 869.903,360.285 872.274,357.329C878.422,349.665 877.005,340.951 872.886,332.875ZM371.164,349.017C368.103,354.67 363.795,359.943 358.74,364.234C361.178,362.589 363.448,360.698 365.494,358.602C366.284,357.794 367.099,356.91 367.897,355.966C369.282,353.906 370.394,351.588 371.164,349.017ZM137.921,322.54C135.228,326.773 133.369,331.474 132.658,336.533C133.169,342.57 135.648,348.61 139.4,353.931C136.706,346.52 136.705,338.136 137.216,330.226C137.383,327.661 137.544,325.074 137.921,322.54ZM301.075,327.225C300.719,328.328 300.426,329.435 300.2,330.543C298.387,339.437 302.817,345.962 308.336,351.922L308.23,351.717C304.356,344.145 301.442,335.733 301.075,327.225ZM968.613,323.869C967.537,326.373 966.614,328.938 965.845,331.516C964.852,335.978 964.531,340.438 965.429,344.25C965.922,346.342 966.92,348.3 968.125,350.159C967.256,347.05 966.707,343.847 966.493,340.613C966.11,334.825 966.989,329.255 968.613,323.869ZM507.522,300.77C511.763,302.322 515.804,304.741 519.502,307.898C527.969,315.122 538.45,325.108 540.605,336.697C541.493,333.296 541.091,329.743 540.009,326.374C538.473,323.047 536.52,319.84 534.577,317.01C529.886,310.172 523.028,305.092 515.259,302.407C512.744,301.606 510.151,301.058 507.522,300.77ZM139.279,133.629C143.496,128.514 149.224,124.567 156.178,122.645C160.395,121.48 164.554,121.062 168.581,121.289C188.802,121.435 206.39,136.057 212.086,155.871C217.881,176.03 212.509,203.597 191.374,212.513C169.059,221.926 144.153,207.466 132.996,187.832C125.423,174.506 124.645,158.663 131.158,146.176C133.15,141.546 135.879,137.276 139.279,133.629ZM0,124.92C6.05,123.611 12.2,123.587 17.97,125.229C24.715,127.148 30.291,130.93 34.667,135.857C36.727,137.667 38.564,139.724 40.1,142.04C43.949,147.84 45.099,154.73 45.992,161.502C46.953,168.791 47.431,176.256 45.928,183.511C41.492,204.915 20.555,217.247 0,213.727L0,199.74C4.772,201.563 9.821,202.477 15.011,201.795C29.374,199.908 38.127,188.221 40.425,175.124C40.381,169.64 39.17,163.932 38.237,159.003C36.142,147.933 31.137,138.735 19.487,135.864C13.577,134.407 6.637,134.598 0,135.907L0,124.92ZM655.917,129.192C657.585,128.361 659.32,127.672 661.112,127.157C668.405,125.06 676.231,126.116 683.569,127.475C696.906,129.946 706.24,138.209 710.95,150.921C711.251,151.734 711.537,152.56 711.807,153.399C711.933,153.682 712.056,153.968 712.175,154.256C712.307,154.573 712.434,154.892 712.556,155.21C713.913,158.318 714.816,161.679 715.166,165.305C715.533,169.106 715.324,172.948 714.576,176.677C714.191,180.999 713.249,185.219 711.651,189.13C706.851,200.877 695.26,207.724 683.671,211.567C671.102,215.735 658.493,215.048 647.361,207.55C637.453,200.876 626.977,190.519 625.496,178.093C624.432,169.176 627.601,159.694 632.346,151.851C635.842,143.133 642.897,135.794 651.064,131.374C652.669,130.506 654.287,129.782 655.917,129.192ZM461.407,177.549C460.794,177.077 460.345,176.234 460.398,175.155C461.654,149.414 480.204,123.605 508.245,124.719C520.368,125.201 535.544,130.82 542.092,141.613L542.185,141.768C543.471,143.425 544.639,145.244 545.669,147.228C550.896,157.299 550.289,169.72 545.753,180.579C540.158,201.743 520.339,219.366 497.459,212.439C485.823,208.917 473.989,201.224 467.628,190.782C465.118,186.663 462.471,182.301 461.407,177.549ZM1000,124.92L1000,135.907C994.92,136.909 990.019,138.567 985.891,140.642C976.591,145.319 972.88,159.806 972.623,169.467C972.336,180.259 978.777,186.578 987.006,192.481C990.991,195.339 995.364,197.969 1000,199.74L1000,213.727C997.985,213.382 995.976,212.885 993.985,212.23C982.9,208.579 971.695,199.721 965.471,189.838C959.428,180.242 958.77,168.305 962.147,157.641C963.317,153.947 965.132,150.354 967.447,146.975C968.635,144.424 970.051,141.983 971.756,139.702C977.623,131.854 986.577,127.49 996.053,125.959C997.361,125.554 998.678,125.206 1000,124.92ZM298.831,150.609C307.091,136.619 323.198,126.415 338.853,126.018C350.811,125.714 364.39,130.669 371.377,140.843C371.889,141.589 372.341,142.36 372.741,143.151C376.926,148.28 378.037,154.649 377.801,161.164C377.936,162.457 378,163.752 377.996,165.047C378.775,169.574 379.211,174.132 378.246,178.696C375.947,189.577 367.605,200.077 358.524,206.197C349.001,212.615 337.456,213.771 326.548,210.522C315.317,207.176 305.395,199.167 298.37,189.932C291.573,180.996 290.88,166.271 295.445,156.165C296.359,154.143 297.506,152.301 298.831,150.609ZM816.841,132.991C821.552,130.078 826.561,127.693 831.372,125.846C842.995,121.384 853.721,123.633 863.997,130.378C873.412,136.557 878.802,145.906 880.732,156.883C882.356,166.115 883.149,176.842 879.618,185.725C876.439,193.724 870.013,199.768 862.691,204.037C854.396,208.872 843.806,212.705 834.143,210.851C824.473,208.995 815.934,201.984 808.698,195.667C804.725,192.198 801.809,188.4 799.811,184.153C796.131,178.075 794.119,170.951 794.395,163.245C794.705,154.578 798.068,146.218 804.587,140.367C808.197,137.127 812.402,134.816 816.841,132.991ZM473.967,189.686C475.268,191.338 476.718,192.871 478.387,194.22C482.192,197.295 486.57,199.853 490.942,202.026C494.085,203.588 497.308,204.801 500.579,205.549C490.865,202.84 481.113,196.571 473.967,189.686ZM631.453,172.735C631.298,174.1 631.259,175.451 631.356,176.777C631.411,177.531 631.222,178.166 630.903,178.637C632.017,183.353 635.18,187.488 638.458,190.941C644.227,197.016 651.086,202.63 659.099,205.09C657.924,204.564 656.786,203.955 655.698,203.255C650.734,200.062 646.623,195.32 642.699,190.972C637.818,185.564 633.575,179.484 631.453,172.735ZM131.756,163.106C131.735,163.355 131.716,163.604 131.699,163.853C131.572,177.452 140.805,191.091 151.763,199.046C154.5,201.033 157.528,202.718 160.72,204.043C160.19,203.646 159.669,203.228 159.159,202.788C154.34,198.629 150.367,193.354 146.345,188.461C142.367,183.622 138.352,178.695 135.351,173.174C133.598,169.948 132.413,166.551 131.756,163.106ZM195.449,143.793C194.532,143.103 193.537,142.443 192.466,141.776C183.318,136.081 173.87,131.141 162.752,132.966C154.357,134.345 145.119,138.578 139.154,145.045C137.717,147.803 136.754,150.822 136.38,154.01C134.987,165.901 144.097,175.649 151.142,184.145C156.992,191.2 163.1,199.826 172.86,201.199C180.856,202.323 189.159,198.893 194.896,193.423C201.993,186.656 204.501,176.532 204.213,167.003C204.117,163.838 203.74,160.636 203.085,157.506C203.054,157.433 203.026,157.358 202.999,157.282C201.29,152.341 198.699,147.76 195.449,143.793ZM668.934,134.871C659.89,135.531 651.083,140.519 644.251,147.204C641.391,150.693 638.41,154.883 636.029,159.34C634.856,164.695 635.662,170.322 638.924,175.742C641.684,180.325 645.322,184.314 649.033,188.134C652.434,191.635 655.859,195.399 660.386,197.439C676.136,204.537 697.868,197.806 706.408,182.753C707.878,179.955 708.912,176.958 709.444,173.868C709.496,172.955 709.517,172.029 709.508,171.088C709.471,167.159 709.031,163.14 708.088,159.252L708.077,159.224C706.844,156.298 705.044,153.555 702.697,151.108C698.038,146.248 691.409,141.414 684.697,138.274C680.601,136.708 676.406,135.636 672.511,135.125C671.317,134.968 670.123,134.885 668.934,134.871ZM209.315,169.891C209.041,181.011 205.762,191.985 198.322,199.64C199.864,198.209 201.284,196.567 202.557,194.7C207.467,187.496 209.623,178.673 209.315,169.891ZM371.464,156.073C365.919,142.558 348.303,134.443 334.026,137.331C332.161,137.945 330.332,138.685 328.547,139.453C319.278,143.444 310.184,149.328 306.851,159.372C303.699,168.868 302.875,181.911 310.86,188.978C317.934,195.238 326.367,199.808 335.995,199.551C349.228,199.199 363.258,190.706 369.66,178.675C370.638,175.27 371.268,171.716 371.761,168.256C372.049,166.241 372.414,164.137 372.635,162.026C372.36,160.747 372.087,159.479 371.853,158.231C371.719,157.512 371.592,156.792 371.464,156.073ZM489.202,142.031C485.773,143.946 482.551,146.216 479.651,148.749C472.401,155.081 464.97,165.062 469.952,174.919C474.384,183.687 484.161,190.03 492.654,194.341C497.493,196.797 502.814,199.222 508.333,199.347C513.591,199.466 518.441,197.386 523.079,195.13C528.437,192.525 532.54,189.601 534.926,183.952C536.792,179.538 538.398,174.754 539.481,170.089C541.92,159.586 538.633,149.228 529.516,143.06C521.294,137.496 510.761,136.807 501.255,138.593C497.258,139.345 493.125,140.446 489.202,142.031ZM802.916,177.196C808.947,189.05 823.082,195.67 836.261,196.479C852.555,197.48 867.992,189.1 870.262,171.737C872.423,155.209 861.902,136.096 843.701,136.428C835.556,136.576 827.589,139.525 820.162,142.659C813.646,145.409 803.294,150.057 801.945,157.901C800.939,163.753 800.934,171.066 802.916,177.196ZM871.051,146.187C876.972,157.992 877.522,173.132 872.342,184.526C871.233,186.968 869.915,189.171 868.421,191.145C874.155,185.729 876.83,179.119 876.816,171.117C876.802,163.117 875.945,154.247 871.731,147.255C871.513,146.893 871.286,146.536 871.051,146.187ZM967.518,163.093C966.687,166.203 966.011,169.402 965.413,172.614C965.603,174.744 966.061,176.916 966.823,179.12C967.93,182.32 969.779,185.364 972.066,188.172C970.509,185.85 969.265,183.321 968.449,180.555C966.786,174.915 966.66,168.956 967.518,163.093ZM302.01,157.049C297.761,163.238 296.656,170.888 298.741,178.742C299.119,180.165 299.723,181.575 300.501,182.956C299.676,179.141 299.702,175.123 299.845,171.23C300.025,166.35 300.658,161.553 302.01,157.049ZM966.867,0C963.286,6.393 962.036,13.908 966.441,20.476C971.565,28.117 981.904,33.165 990.407,35.914C993.611,36.95 996.831,37.479 1000,37.556L1000,47.762C996.681,47.932 993.308,47.716 989.935,47.073C969.643,43.205 951.89,20.542 959.491,0L966.867,0ZM43.98,0C44.188,4.783 43.629,9.615 42.236,14.237C41.922,15.278 41.572,16.305 41.186,17.315C38.777,25.821 32.611,33.289 24.963,38.588C17.742,43.956 9.067,47.298 0,47.762L0,37.556C16.036,37.942 30.777,26.73 35.642,10.849C35.944,9.864 36.211,8.877 36.43,7.891C36.242,5.277 35.479,2.628 34.026,0L43.98,0ZM712.713,0C714.56,12.807 711.606,26.245 702.875,36.107C694.07,46.054 674.695,48.297 662.47,45.301C655.812,43.669 650.616,39.199 646.018,34.322C644.613,32.831 643.208,31.324 641.846,29.782C640.062,28.483 638.348,27.137 636.715,25.77C631.918,21.754 629.991,15.957 629.632,9.763C628.817,9.731 627.972,8.948 627.842,7.429C627.631,4.942 627.621,2.461 627.814,0L637.842,0C637.851,3.754 638.656,7.558 639.372,11.187C640.417,16.483 643.251,21.009 647.002,24.818C649.379,26.294 651.8,27.648 654.044,28.885C665.177,35.023 679.001,37.471 690.757,31.377C702.52,25.281 705.034,11.411 700.325,0L706.492,0C707.095,2.627 707.477,5.296 707.617,7.971C707.811,10.066 707.827,12.18 707.651,14.294C707.954,12.82 708.183,11.322 708.343,9.812C708.699,6.469 708.606,3.178 708.115,0L712.713,0ZM210.326,0C210.283,5.114 209.034,10.313 206.705,15.439C202.332,25.063 195.446,36.057 186.241,41.734C176.651,47.648 164.246,45.605 154.054,42.363C138.568,37.436 131.707,22.462 131.984,7.351C130.706,7.722 129.007,5.806 129.191,3.571C129.29,2.37 129.437,1.179 129.632,0L141.616,0C139.92,12.294 149.415,23.956 161.092,29.625C165.062,31.553 169.434,32.878 173.781,33.112C187.013,30.559 194.408,14.192 194.269,0L203.919,0C204.138,2.754 204.14,5.521 203.919,8.253C204.919,5.56 205.586,2.787 205.691,0L210.326,0ZM547.707,0C547.108,10.209 542.288,19.79 536.804,28.949C533.11,35.12 528.412,40.466 521.459,42.931C514.614,45.358 507.032,45.473 499.949,44.167C486.395,41.666 474.785,33.002 468.885,20.502C467.821,18.247 466.993,15.964 466.384,13.664C465.447,14.366 464.228,14.116 463.789,12.027C462.955,8.063 462.619,4.023 462.835,0L469.901,0C469.728,1.69 469.683,3.352 469.782,4.958C470.132,10.671 472.087,16.089 475.17,20.792C474.395,17.937 473.904,14.999 473.658,12.127C473.415,9.293 473.311,6.425 473.293,3.547C473.015,2.382 472.762,1.198 472.54,0L478.559,0C478.528,0.992 478.499,1.985 478.479,2.978C481.061,11.846 486.076,20.115 492.235,24.835C497.724,29.043 504.317,31.833 510.73,31.805C520.477,27.921 528.475,19.698 531.799,9.712C532.869,6.496 533.344,3.227 533.303,0L542.322,0C542.005,4.5 540.89,9.019 539.227,13.4C541.032,9.738 542.535,5.932 543.102,1.892C543.191,1.256 543.258,0.625 543.305,0L547.707,0ZM880.666,0C879.613,12.195 874.775,24.352 865.9,32.956C857.153,41.437 844.669,45.998 832.548,43.883C829.331,43.321 826.214,42.349 823.222,41.05C813.845,39.82 805.329,36.597 799.437,27.898C794.899,21.199 792.123,13.151 791.659,5.019C791.311,3.365 791.08,1.69 790.977,0L797.222,0C797.044,1.611 797.009,3.277 797.132,4.997C797.324,5.676 797.549,6.355 797.809,7.034C800.987,15.35 807.649,22.526 814.845,27.901C832.482,35.859 854.253,30.367 865.554,13.714C868.035,10.057 870.062,5.845 871.197,1.477C871.241,0.984 871.273,0.492 871.293,0L880.666,0ZM376.151,0C377.385,10.691 376.039,21.217 368.977,30.157C354.14,48.94 326.579,48.178 310.002,32.071C301.401,23.713 296.232,12.053 296.718,0L301.513,0C301.111,9.633 305.162,18.697 311.746,25.53C311.833,25.065 311.964,24.612 312.129,24.201C306.442,17.548 302.789,8.985 302.227,0L307.188,0C307.548,6.615 309.995,13.228 314.692,18.723C320.834,25.909 330.208,29.997 339.386,29.99C342.048,29.324 344.613,28.475 346.919,27.627C352.461,25.589 357.787,23.044 361.353,18.14C364.713,13.519 366.634,7.745 367.109,2.076C367.167,1.38 367.201,0.687 367.21,0L376.151,0ZM371.948,0.088C371.931,4.07 371.358,8.073 370.197,11.943C367.247,23.888 359.464,33.985 345.865,36.67C343.752,37.087 341.667,37.298 339.622,37.319C339.027,37.458 338.428,37.586 337.826,37.701C356.267,38.598 373.345,24.312 372.368,5.032C372.286,3.412 372.148,1.757 371.948,0.088ZM137.593,13.719C138.854,21.93 143.065,29.542 150.887,33.174C152.424,33.888 154.063,34.549 155.769,35.135C151.074,32.331 146.827,28.651 143.478,24.452C140.767,21.053 138.827,17.432 137.593,13.719ZM481.074,21.976C482.753,25.964 485.39,29.535 489.203,31.695C490.297,32.315 491.452,32.804 492.646,33.175C488.129,30.227 484.191,26.397 481.074,21.976Z" style="fill-rule:nonzero;"/>
</svg>
