<?xml version="1.0" encoding="UTF-8" standalone="no"?>
<!DOCTYPE svg PUBLIC "-//W3C//DTD SVG 1.1//EN" "http://www.w3.org/Graphics/SVG/1.1/DTD/svg11.dtd">
<svg width="100%" height="100%" viewBox="0 0 1000 1000" version="1.1" xmlns="http://www.w3.org/2000/svg" xmlns:xlink="http://www.w3.org/1999/xlink" xml:space="preserve" xmlns:serif="http://www.serif.com/" style="fill-rule:evenodd;clip-rule:evenodd;stroke-linejoin:round;stroke-miterlimit:2;">
    <path d="M461.546,1000C455.676,996.247 449.81,992.487 443.948,988.721C441.87,987.385 443.022,981.753 445.814,983.479L446.875,984.135C447.324,983.197 448.081,982.661 449.111,983.141C455.694,986.209 462.286,989.26 468.88,992.301C467.98,990.549 468.265,987.655 469.498,986.684C465.427,984.822 461.328,983.009 457.207,981.246C454.458,980.071 455.059,973.054 458.289,974.302C472.526,979.805 486.772,985.286 501.02,990.759C486.774,983.476 472.212,976.818 457.342,970.818C454.534,969.685 455.151,962.597 458.433,963.808C461.179,964.821 463.923,965.843 466.659,966.874C466.457,964.628 467.402,962.25 469.47,963.047C470.081,963.282 470.692,963.519 471.305,963.757C471.75,963.036 472.486,962.66 473.545,962.986C476.299,963.833 479.043,964.705 481.78,965.603C480.467,964.202 480.142,960.979 481.292,959.616C479.278,958.836 477.272,958.028 475.275,957.194C473.22,956.335 472.666,951.963 474.555,950.682C478.807,947.796 483.164,948.577 488.046,949.298C493.49,950.102 498.913,951.083 504.297,952.227C516.173,954.749 527.827,958.15 539.238,962.29C541.881,963.249 541.977,969.673 538.755,969.808C535.846,969.93 532.946,969.95 530.056,969.869C529.857,970.6 529.497,971.197 528.96,971.495C529.407,972.409 529.644,973.712 529.563,974.899C533.93,976.687 538.27,978.555 542.579,980.508C544.396,981.331 544.921,984.563 544.072,986.485C550.456,989.294 556.743,992.325 562.902,995.655C564.127,996.318 564.75,998.265 564.682,1000L461.546,1000ZM208.325,777.464C205.568,775.598 202.848,773.668 200.168,771.676C198.431,770.386 196.055,764.234 200.297,765.041C220.513,768.881 239.41,777.224 255.611,789.784C260.499,792.406 265.308,795.176 270.032,798.091C272.897,799.86 273.262,807.384 269.139,804.839C266.525,803.226 263.888,801.655 261.228,800.128C260.846,800.393 260.291,800.436 259.521,800.146C257.322,799.316 255.132,798.466 252.95,797.597C253.126,799.294 252.588,800.621 250.681,799.868C241.961,796.419 233.504,792.418 225.331,787.897C222.777,787.089 220.189,786.385 217.572,785.791L218.072,786.137C218.322,786.309 218.573,786.48 218.823,786.652L219.179,786.892C233.015,791.797 246.2,798.429 258.388,806.722C259.096,807.203 259.856,808.598 260.267,810.02C265.13,813.161 269.893,816.457 274.552,819.907C276.208,821.133 278.684,828.11 274.419,826.764C265.468,823.936 256.724,820.58 248.209,816.734C248.097,817.923 247.469,818.706 245.942,818.136C243.189,817.107 240.483,815.994 237.826,814.797C240.397,817.074 242.891,819.442 245.303,821.899C246.838,823.463 247.63,828.427 244.973,828.073C250.618,833.049 256.217,838.084 261.766,843.176C264.253,845.457 263.387,851.419 259.623,848.334C251.926,842.024 244.057,835.938 236.024,830.078C242.124,835.567 248.093,841.209 253.923,846.999C256.259,849.319 255.4,855.371 251.796,852.119L251.151,851.54C251.814,854.078 250.8,856.961 247.916,854.551C242.586,850.095 237.173,845.745 231.684,841.502C234.864,845.14 237.918,848.894 240.84,852.759C242.691,855.209 241.468,859.994 238.115,857.2C236.739,856.053 235.358,854.913 233.967,853.779C234.867,854.807 235.757,855.843 236.638,856.887C238.686,859.311 237.219,864.009 233.918,861.32C233.365,860.869 232.81,860.42 232.254,859.972C234.738,862.531 237.178,865.141 239.57,867.797C241.672,870.13 240.981,876.253 237.462,872.872C224.564,860.482 210.966,848.89 196.732,838.143C210.49,849.195 222.909,861.911 233.7,876.007C235.496,878.353 234.185,883.291 231.027,880.361L178.012,831.176C176.87,830.433 175.721,829.701 174.565,828.98L236.176,886.673C238.564,888.91 237.504,894.804 234.112,891.637C211.363,870.393 188.584,849.158 165.028,828.808C174.127,838.828 183.624,848.475 193.485,857.736C205.125,867.735 216.754,877.742 228.389,887.743C230.772,889.79 229.93,895.199 226.421,892.478C211.562,880.952 197.4,868.592 183.965,855.48C171.662,844.744 159.372,833.993 147.112,823.209C145.221,821.545 145.978,817.091 148.694,819.403C150.801,821.197 152.908,822.993 155.016,824.791C150.625,819.736 146.331,814.597 142.136,809.375C140.243,807.019 141.551,802.481 144.758,805.101C148.1,807.831 151.423,810.583 154.726,813.354C155.096,812.567 155.901,812.228 157.295,812.919C158.056,813.297 158.814,813.679 159.568,814.065L155.608,810.391C153.838,808.749 153.396,802.657 157.057,804.844C161.485,807.488 165.866,810.206 170.195,812.994C170.622,812.357 171.406,812.163 172.616,812.847C184.45,819.548 195.96,826.772 207.128,834.493C202.713,830.772 198.154,827.224 193.459,823.854C186.021,818.892 178.453,814.116 170.763,809.53C168.172,807.985 167.659,801.248 171.573,803.404C179.537,807.794 187.205,812.642 194.55,817.917C202.602,823.294 210.505,828.89 218.255,834.696C211.533,828.156 204.345,822.117 196.745,816.62C188.955,811.517 181.03,806.608 172.979,801.896C170.378,800.374 169.818,793.687 173.79,795.771C175.252,796.539 176.703,797.324 178.142,798.125C175.94,796.124 175.744,790.183 179.361,792.309C182.385,794.086 185.388,795.898 188.368,797.744C187.419,795.256 187.748,792.043 190.666,793.741C197.668,797.816 204.571,802.048 211.37,806.43C207.117,802.939 202.836,799.48 198.53,796.051C197.281,795.057 196.702,792.737 197.187,791.309C194.301,788.87 191.528,786.286 188.879,783.57C187.637,782.297 185.97,776.5 189.67,777.596C194.476,779.02 199.238,780.575 203.947,782.256L204.414,782.376C203.382,780.594 202.511,776.738 205.091,777.04C206.173,777.167 207.251,777.308 208.325,777.464ZM787.407,709.24L817.49,681.268C819.904,679.024 821.47,684.804 819.652,686.512L814.775,691.09C814.903,692.106 814.77,693.144 814.317,693.738C812.716,695.839 811.104,697.933 809.481,700.017C810.664,699.172 811.872,698.357 813.111,697.576C813.703,697.202 814.209,697.219 814.624,697.486C816.214,695.829 817.801,694.173 819.388,692.517C822.005,689.788 823.72,696.191 822.39,698.099C820.852,700.306 819.301,702.505 817.735,704.694C819.01,705.923 819.647,709.417 818.685,710.798C816.048,714.59 813.368,718.351 810.645,722.079C814.594,718.056 818.545,714.031 822.497,710.008C825.259,707.197 827.131,713.862 825.65,715.872L823.769,718.426C824.931,719.217 825.722,721.826 825.433,723.612L829.571,719.235C832.226,716.426 834.267,723.059 832.716,725.081C829.904,728.745 827.09,732.412 824.264,736.073L824.332,736.004C827,733.319 828.844,739.722 827.374,741.661C818.916,752.814 810.177,763.741 801.161,774.434C809.066,766.482 816.62,758.179 823.773,749.539C825.516,747.434 827.026,750.354 827.211,752.857C829.352,750.369 831.481,747.869 833.598,745.359C836.011,742.498 838.239,749.088 836.713,751.15C828.357,762.438 820.007,773.73 811.649,785.02L813.642,783.05C818.778,777.001 823.91,770.947 829.026,764.882C830.207,763.482 831.357,764.362 832.034,765.862C832.821,766.124 833.393,767.216 833.648,768.492C834.4,770.113 834.584,772.667 833.912,773.75C825.475,787.356 815.713,800.084 804.692,811.7C803.008,813.475 801.582,811.677 801.12,809.399C799.614,811.03 798.109,812.658 796.602,814.286C796.059,814.873 795.549,815.064 795.095,814.974L790.313,820.31C788.794,822.008 787.528,820.498 787.035,818.427L786.262,819.195C783.456,821.983 781.623,815.332 783.106,813.326C786.298,809.01 789.492,804.697 792.687,800.387C789.664,803.574 786.621,806.742 783.557,809.892C780.734,812.794 778.806,805.618 780.886,803.412C783.345,800.805 785.767,798.166 788.151,795.498C780.186,802.739 771.92,809.661 763.344,816.243C759.999,818.811 758.756,811.92 760.723,809.884C766.973,803.42 773.118,796.857 779.153,790.202L777.008,792.363C774.213,795.27 771.372,798.135 768.478,800.952C765.555,803.797 763.627,796.617 765.799,794.451L768.512,791.748C767.466,791.247 766.771,789.287 766.776,787.465C763.913,790.288 760.993,793.054 758.006,795.758C754.893,798.575 753.11,791.322 755.295,789.181C761.131,783.462 766.969,777.743 772.764,771.984C779.024,765.316 785.01,758.403 790.815,751.329C779.632,762.68 768.459,774.034 757.305,785.409C755.871,786.888 754.432,788.356 752.985,789.817C750.969,791.853 749.382,788.767 749.444,786.067C747.781,787.766 746.108,789.456 744.426,791.139C741.641,793.923 739.801,786.979 741.839,784.866C745.054,781.532 748.269,778.197 751.482,774.857C750.15,775.109 748.722,775.126 747.172,774.841C745.941,774.614 745.443,773.381 745.402,772.027C738.13,779.147 730.689,786.108 723.081,792.896C720.18,795.484 718.623,788.817 720.589,786.852C736.419,771.03 752.248,755.207 768.078,739.385L778.659,728.807C783.636,723.212 788.52,717.534 793.307,711.773C790.163,714.516 787.034,717.276 783.918,720.054L739.36,761.88C736.699,764.378 735.082,758.019 736.987,756.123C753.261,739.935 770.103,724.322 787.407,709.24ZM244.568,807.996L244.961,808.403C246.659,809.184 248.367,809.945 250.082,810.687C249.399,810.281 248.714,809.878 248.027,809.478C246.83,808.958 245.64,808.425 244.455,807.88L244.568,807.996ZM522.206,498.508C526.868,496.484 531.584,494.577 536.353,492.786C540.217,491.335 540.56,498.844 537.94,500.472C533.231,503.395 528.464,506.227 523.634,508.945C523.688,509.464 523.682,509.994 523.614,510.494C525.2,509.864 526.786,509.243 528.374,508.629C531.955,507.245 532.669,514.595 529.903,516.032C523.349,519.437 516.66,522.495 509.852,525.221C517.104,522.37 524.403,519.636 531.749,517.024C534.626,516.001 535.789,520.606 534.608,523.117C538.29,521.866 541.983,520.644 545.686,519.45C549.305,518.283 550.277,525.844 547.224,526.901L545.929,527.349C546.391,527.822 546.717,528.51 546.897,529.274L551.82,527.566L551.902,527.539C555.34,526.465 556.292,533.821 553.324,534.852L550.607,535.796C547.095,537.019 543.587,538.252 540.085,539.493C540.9,539.279 541.711,539.069 542.523,538.86C546.078,537.946 546.987,545.154 544.007,546.049L524.77,551.823C528.65,551.032 532.535,550.263 536.424,549.511C547.595,547.036 558.856,544.954 570.179,543.273C573.364,542.801 573.593,550.073 570.361,550.657C558.6,552.78 546.828,554.915 535.091,557.21C516.169,561.454 497.531,566.828 479.255,573.32C506.829,569.118 534.409,564.93 562.003,560.838C565.019,560.39 565.289,567.369 562.176,567.871C529.311,573.168 496.446,578.472 463.537,583.494C463.078,583.564 462.697,583.424 462.398,583.147L448.735,585.221C445.706,585.681 445.598,579.15 447.931,578.143L448.335,577.969C447.844,577.175 447.615,576.05 447.673,574.964L446.318,575.371C442.764,576.438 441.933,569.328 444.825,568.138C448.032,566.817 451.242,565.505 454.453,564.202C454.464,562.679 455.024,561.199 456.219,560.736L457.06,560.41C456.673,559.836 456.433,559.076 456.346,558.273L446.082,561.814C442.495,563.052 441.829,555.911 444.577,554.524C446.861,553.371 449.15,552.229 451.446,551.098C450.303,549.305 450.685,545.765 452.491,544.733C456.201,542.612 459.934,540.535 463.689,538.501C462.088,538.617 461.411,536.871 461.436,535.007C460.898,535.151 460.355,535.293 459.812,535.433C456.391,536.314 455.576,530.249 457.714,528.518C459.051,527.436 460.401,526.377 461.768,525.338C461.768,523.936 462.149,522.554 462.851,522.028C479.641,509.465 498.315,499.534 518.386,493.364C519.281,493.089 519.974,493.304 520.482,493.798C521.88,494.266 522.432,496.569 522.206,498.508ZM507.785,526.037C504.224,527.423 500.631,528.72 497.008,529.929C495.153,530.784 493.303,531.649 491.456,532.524L492.561,532.139L494.507,531.454C498.915,529.605 503.341,527.799 507.785,526.037ZM0,473.128C2.44,475.077 4.88,477.027 7.321,478.976C26.889,494.597 46.468,510.204 65.975,525.9C68.084,527.597 66.566,533.767 63.679,531.587C42.471,515.567 21.223,499.599 0,483.61L0,473.128ZM0,402.209C0.149,402.241 0.306,402.294 0.468,402.368C2.718,403.395 4.963,404.431 7.205,405.476C7.195,403.294 8.24,401.137 9.994,402.125L13.678,404.2C14.121,403.108 14.942,402.5 16.108,403.141L19.718,405.127C20.008,403.37 20.978,402.04 22.503,402.894L45.276,415.648C45.732,415.031 46.397,414.763 47.325,415.224C64.395,423.706 80.747,433.502 96.42,444.344C97.971,445.417 97.712,449.451 96.296,450.775C96.934,451.504 97.228,452.671 97.225,453.826C101.597,456.51 105.95,459.237 110.28,462.002C112.771,463.593 111.787,470.628 108.908,468.905L101.442,464.438C102.105,467.032 100.975,470.741 98.809,469.43C81.94,459.213 64.765,449.516 47.302,440.366C58.736,447.853 70.055,455.521 81.252,463.367C83.338,464.83 81.965,471.539 79.332,469.866L74.387,466.724C74.357,467.855 74.047,469.026 73.523,469.767C74.083,470.156 74.641,470.545 75.199,470.934C77.46,472.51 76.139,478.452 73.329,477.415C74.173,479.746 72.859,484.188 70.703,482.781L55.897,473.11C58.554,475.453 61.189,477.817 63.804,480.204C65.851,482.072 64.518,488.487 61.387,486.194C54.65,481.262 47.872,476.388 41.05,471.572C43.729,474.151 46.379,476.764 49,479.41C49.919,480.338 50.044,483.308 49.32,484.934C52.988,488.062 56.614,491.234 60.201,494.453C62.235,496.278 60.898,502.576 57.828,500.335C49.494,494.25 41.057,488.314 32.52,482.53C42.455,490.896 52.133,499.575 61.541,508.561C63.45,510.384 62.132,516.625 59.22,514.31C39.934,498.975 20.185,484.24 0,470.134L0,447.263C0.936,447.902 1.87,448.543 2.801,449.186L19.694,460.235C13.277,454.695 6.71,449.327 0,444.134L0,409.875C0.406,410.059 0.812,410.243 1.218,410.427L0,409.724L0,402.209ZM1000,483.61C981.085,469.361 962.191,455.097 943.353,440.757C941.555,439.388 942.847,434.252 945.26,436.034C949.146,438.903 953.031,441.775 956.914,444.651C954.629,442.193 952.443,439.65 950.385,437.008C949.376,435.713 950.088,430.103 952.542,431.639C959.175,435.789 965.766,440.003 972.315,444.281C971.472,441.85 972.385,437.923 974.649,439.208C978.801,441.564 982.933,443.953 987.048,446.378L976.844,439.698C974.468,438.142 975.441,431.386 978.162,433.07C985.549,437.64 992.83,442.372 1000,447.263L1000,470.134C991.545,464.225 983.017,458.429 974.413,452.744C975.881,453.928 977.357,455.1 978.834,456.269C985.906,461.868 992.953,467.497 1000,473.128L1000,483.61ZM1000,444.134C998.474,442.954 996.941,441.782 995.401,440.62C993.813,439.422 994.354,434.84 996.008,434.121C994.731,433.235 993.452,432.356 992.169,431.482C990.902,430.618 990.928,427.875 991.704,426.194L983.181,420.087C981.177,418.651 982.321,412.012 985.093,413.614L986.286,414.304C986.578,412.388 987.652,410.701 989.137,411.622L991.423,413.04C989.898,410.848 990.653,405.698 993.489,406.956C995.664,407.922 997.835,408.895 1000,409.876L1000,444.134ZM1000,409.724L999.108,409.21C996.762,407.858 997.218,401.597 1000,402.209L1000,409.724ZM279.168,230.319C277.245,226.339 275.292,222.367 273.312,218.41C272.121,216.03 274.684,210.236 277.047,213.795C279.253,217.118 281.424,220.465 283.555,223.831L281.725,219.779C280.636,217.367 283.25,211.274 285.558,215.044C287.18,217.694 288.79,220.35 290.389,223.013C289.379,220.613 291.744,214.995 294.148,218.507C296.092,221.347 298.009,224.205 299.899,227.083C300.138,227.266 300.378,227.531 300.614,227.891C304.62,234.001 308.551,240.159 312.404,246.361C313.053,244.476 314.413,243.226 316.106,245.435C325.237,257.348 333.743,269.689 341.142,282.755C342.625,285.374 340.257,292.218 337.725,288.248C335.33,284.492 332.976,280.705 330.577,276.948C335.684,285.945 340.636,295.028 345.433,304.197C346.472,306.183 344.859,310.438 342.956,310.022C342.241,312.186 340.575,313.874 339.238,311.397C336.012,305.421 332.79,299.444 329.568,293.464C332.014,298.647 334.456,303.827 336.896,309.008C338.416,312.236 334.84,317.497 332.652,312.978C325.303,297.8 317.598,282.804 309.545,268.001L312.641,274.857C314.122,278.138 315.603,281.419 317.084,284.7L320.26,291.74C320.684,292.674 321.106,293.608 321.525,294.544C322.97,297.773 319.361,303.04 317.303,298.492L315.03,293.469C310.606,283.818 305.906,274.306 300.934,264.94C308.486,282.384 315.536,300.041 322.063,317.907C323.227,321.095 319.903,326.509 317.843,321.854C316.705,319.282 315.56,316.714 314.405,314.146C314.284,314.749 314.069,315.328 313.792,315.825C313.796,318.924 311.028,322.183 309.143,318.231C307.31,314.387 305.477,310.542 303.644,306.693C304.486,308.845 305.321,311.001 306.148,313.159C307.3,316.113 308.423,319.082 309.516,322.064C310.735,325.392 306.985,330.867 305.206,326.094C304.134,323.218 303.05,320.347 301.951,317.478C296.57,303.64 290.541,290.078 283.873,276.835C287.505,286.394 291.028,295.993 294.443,305.629C295.964,309.758 297.415,313.917 298.796,318.103C299.295,319.616 299.543,322.299 298.015,323.415C296.637,324.423 295.057,323.711 294.508,322.114L294.093,320.909C294.199,322.232 293.976,323.66 292.951,324.41C291.529,325.45 290.034,324.676 289.426,323.102C284.57,310.544 279.711,297.988 274.85,285.429L278.957,297.829L284.424,314.329C284.873,315.667 285.317,317.007 285.756,318.35C286.256,319.88 286.514,322.585 284.968,323.716C283.586,324.726 281.963,324.023 281.425,322.401L279.354,316.153C278.956,314.978 278.554,313.805 278.149,312.636C277.695,315.478 275.242,318.131 273.834,314.388L263.742,287.544C261.382,282.057 258.862,276.642 256.182,271.301L261.414,288.769C268.53,306.296 274.394,324.279 277.671,343.051C278.342,346.897 274.491,349.763 273.091,345.107L256.945,291.464C260.022,304.918 262.567,318.496 264.57,332.165C265.1,335.781 261.459,338.649 260.203,334.126C254.271,312.767 248.336,291.409 242.406,270.051C246.855,291.919 251.766,313.688 257.126,335.351C257.797,338.063 254.596,341.808 253.144,338.048C245.464,318.163 239.619,297.639 234.846,276.875C232.498,266.66 230.014,256.336 228.588,245.945C227.58,238.595 227.424,231.148 229.655,224.13C229.268,221.814 228.887,219.5 228.512,217.185C227.999,214.02 231.644,211.518 232.305,215.482C232.474,216.496 232.644,217.511 232.815,218.521C233.69,218.223 234.634,218.619 235.162,219.996C238.516,228.731 241.637,237.55 244.521,246.444C245.151,244.881 246.412,243.632 247.602,244.63L244.918,237.494C244.044,235.17 246.598,228.815 248.75,232.76C251.524,237.844 254.21,242.971 256.808,248.14L254.22,240.333C253.72,238.827 253.505,236.523 254.758,235.261C255.744,234.269 257.342,234.006 258.144,235.485C258.825,236.739 259.501,237.997 260.172,239.259C260.932,238.342 261.93,238.181 262.918,239.829C263.274,240.424 263.63,241.02 263.983,241.618L263.493,240.44C262.701,238.541 264.108,234.182 265.925,234.44C264.55,231.617 263.16,228.795 261.758,225.98C260.522,223.499 263.301,217.463 265.631,221.196C266.367,222.375 267.099,223.556 267.828,224.742C268.639,223.599 269.792,223.223 270.859,224.957C272.537,227.683 274.192,230.424 275.823,233.178C276.133,231.107 277.668,229.338 279.168,230.319ZM686.38,189.166L684.846,188.165C682.796,186.827 683.7,180.219 686.465,181.705C712.316,195.598 737.528,210.639 762.04,226.778C764.114,228.144 763.098,234.787 760.421,233.245L745.188,224.468C744.763,225.743 743.923,226.578 742.775,225.926C741.112,224.982 739.445,224.043 737.773,223.108C741.001,225.411 744.206,227.743 747.391,230.105C748.977,231.283 748.703,236.11 746.958,236.726C748.453,237.872 749.938,239.026 751.416,240.19C753.23,241.62 752.562,248.259 749.801,246.637C738.389,239.934 726.893,233.379 715.314,226.972C721.318,231.439 727.24,236.014 733.08,240.697C734.432,241.781 734.548,244.625 733.662,246.168C735.882,247.917 738.091,249.682 740.29,251.461C742.049,252.886 741.457,259.501 738.683,257.877L724.442,249.547C724.468,249.757 724.481,249.971 724.483,250.185C730.468,254.061 736.402,258.025 742.28,262.075C744.628,263.693 743.295,270.213 740.124,268.134L721.245,255.753C721.121,257.165 720.486,258.478 719.458,258.713C721.005,259.994 722.538,261.299 724.055,262.625C725.599,263.976 725.391,267.97 723.855,268.935C724.575,270.143 725.197,271.435 725.702,272.827C726.351,274.615 725.607,279.704 722.697,277.659L665.458,237.436C664.604,236.972 663.749,236.509 662.893,236.048L685.194,252.614C698.027,260.477 710.165,269.485 721.444,279.542C722.757,280.713 722.768,283.846 721.781,285.31C722.578,286.839 723.161,288.521 723.467,290.394C723.757,292.168 722.773,296.014 720.293,294.3L713.448,289.568C714.298,291.992 713.114,296.279 710.766,294.276C700.944,285.903 690.96,277.726 680.822,269.752C676.825,266.994 672.745,264.36 668.583,261.853C672.855,265.009 677.079,268.231 681.253,271.518C691.489,279.054 701.207,287.303 710.328,296.222C712.153,298.006 710.892,304.167 708.333,301.831C707.855,301.395 707.377,300.96 706.895,300.524C706.484,301.01 705.934,301.186 705.279,300.799C689.271,291.35 673.206,281.986 657.259,272.432C643.445,264.156 629.945,255.276 618.899,243.429C618.435,242.931 618.089,241.762 618.017,240.586C616.415,239.417 614.811,238.242 613.21,237.065C611.362,235.707 612.483,230.426 614.942,232.198C618.419,234.703 621.903,237.198 625.394,239.681C626.823,240.289 628.246,240.908 629.668,241.54C629.247,239.438 630.128,236.505 632.184,237.29C636.17,238.812 640.111,240.439 644,242.167C640.091,239.38 636.161,236.621 632.21,233.89C630.272,232.55 631.253,226.22 633.752,227.736L637.365,229.929C637.59,229.924 637.834,229.964 638.098,230.058C642.662,231.691 647.173,233.452 651.631,235.341L630.043,219.304C628.213,217.944 628.704,211.501 631.646,212.909C637.366,215.648 643.052,218.456 648.702,221.334C648.82,220.993 648.975,220.686 649.168,220.435C645.428,218.109 641.679,215.801 637.92,213.509C635.85,212.248 636.694,205.753 639.522,207.114C646.002,210.233 652.435,213.446 658.818,216.752C658.771,214.897 659.466,213.12 660.85,213.393C660.876,213.015 660.933,212.642 661.02,212.293C659.525,210.404 660.539,204.815 663,206.253L689.383,221.681C683.114,217.499 676.776,213.426 670.366,209.461C668.728,208.448 668.802,205.154 670.007,203.697C667.332,202.037 664.64,200.395 661.936,198.774C659.542,197.34 659.959,190.44 662.995,191.969C669.939,195.465 676.855,199.014 683.744,202.615C683.401,200.934 683.844,198.696 684.891,197.982C684.974,197.513 685.106,197.071 685.282,196.695C682.815,195.257 680.335,193.836 677.846,192.43C675.406,191.053 675.807,184.196 678.903,185.639C681.401,186.804 683.893,187.979 686.38,189.166ZM665.003,267.236C666.729,268.41 668.455,269.581 670.183,270.749C671.912,271.918 673.641,273.084 675.372,274.247C671.97,271.83 668.514,269.493 665.003,267.236ZM232.766,242.131C233.063,245.015 233.559,247.908 234.108,250.789C235.156,256.289 236.282,261.779 237.475,267.254C235.836,258.893 234.266,250.518 232.766,242.131ZM235.816,235.707C236.018,236.83 236.222,237.953 236.427,239.075C236.588,238.977 236.756,238.904 236.928,238.861C236.561,237.808 236.19,236.757 235.816,235.707ZM1000,5.186L1000,93.616C992.827,100.225 984.932,106.035 976.341,110.912C973.288,112.645 972.469,105.73 974.288,104.144C977.571,101.28 980.878,98.445 984.209,95.636C976.138,101.445 967.881,107.002 959.442,112.279C956.549,114.088 955.506,107.122 957.391,105.519L957.455,105.464C956.245,103.883 956.105,100.249 957.579,99.216C969.669,90.744 981.979,82.603 994.461,74.727L995.295,74.058C990.284,77.008 985.307,80.017 980.363,83.08C969.753,90.516 958.897,97.604 947.807,104.329C945.033,106.011 943.622,99.138 945.781,97.652C946.578,97.104 947.376,96.557 948.172,96.014C947.476,94.323 947.6,91.521 948.817,90.281C947.56,91.094 946.3,91.907 945.04,92.72C942.166,94.575 941.009,87.295 943.568,85.595C948.317,82.441 953.034,79.24 957.717,75.991L945.727,83.599C943.942,84.732 942.798,82.369 942.809,80.007C941.145,80.989 939.476,81.964 937.802,82.93C934.727,84.705 933.932,77.504 936.347,75.884L970.168,53.209C958.407,60.458 946.153,66.927 933.484,72.538C930.091,74.041 929.269,66.728 931.986,65.285C944.811,58.472 957.638,51.663 970.465,44.85C980.499,38.592 990.17,31.764 999.429,24.38C998.534,24.812 997.639,25.245 996.748,25.677C973.461,42.707 948.089,56.952 920.243,65.011C916.624,66.058 916.139,59.299 918.769,57.872C919.683,57.376 920.598,56.881 921.512,56.387C921.406,55.803 921.382,55.177 921.446,54.577C912.722,58.144 903.713,60.752 894.29,61.291C891.162,61.47 891.341,55.495 893.503,54.364C914.801,43.222 936.355,32.569 958.147,22.425C971.647,16.141 985.482,9.098 1000,5.186ZM0,5.186C2.911,4.401 5.85,3.742 8.818,3.241C10.816,2.219 12.818,1.197 14.82,0.175C16.1,-0.477 16.898,0.796 17.05,2.283C18.467,2.195 19.888,2.148 21.317,2.145C24.141,2.139 23.884,7.185 22.013,8.277L21.926,8.328C22.634,10.048 22.395,12.88 21.378,13.842C17.92,17.11 14.392,20.3 10.793,23.409L17.063,20.07C20.096,18.454 20.965,25.196 19.086,26.734C15.981,29.274 12.851,31.784 9.7,34.26C9.609,34.407 9.507,34.535 9.392,34.639C8.506,35.445 7.618,36.248 6.726,37.049L18.355,29.711C20.964,28.065 22.057,33.954 20.62,35.924C23.939,33.777 27.258,31.626 30.575,29.471C33.295,27.704 34.219,34.328 32.514,35.863C32.024,36.304 31.533,36.744 31.04,37.184C32.121,38.698 32.239,42.243 31,43.328C27.118,46.73 23.193,50.08 19.224,53.38C20.711,53.8 21.054,56.915 20.531,58.859C22.965,58.203 23.594,64.109 21.971,65.535C20.721,66.632 19.467,67.723 18.206,68.809C18.764,70.28 18.691,72.426 18.08,73.266C12.69,80.664 6.656,87.484 0,93.616L0,5.186ZM564.682,0C564.648,0.87 564.44,1.686 564.048,2.262C564.499,2.524 564.948,2.787 565.398,3.05C567.924,4.531 567.873,11.864 564.244,10.451C557.614,7.872 551.037,5.153 544.514,2.306C544.641,4.314 543.887,6.398 542.415,6.348C543.013,6.72 543.609,7.094 544.205,7.469C546.348,8.818 545.684,15.48 542.506,14.249C535.379,11.489 528.252,8.727 521.128,5.965C527.447,9.674 533.697,13.513 539.87,17.478C541.373,18.443 541.414,22.161 540.218,23.704C541.661,24.657 543.1,25.619 544.533,26.591C546.619,28.005 545.639,34.815 542.871,33.226C540.859,32.071 538.844,30.924 536.827,29.787C536.444,31.647 535.218,33.073 533.463,31.836C532.194,30.942 530.921,30.057 529.643,29.181C518.085,21.556 504.909,16.311 492.428,10.476L492.169,10.355C509.585,21.589 526.868,33.034 543.973,44.729C546.395,46.385 545.056,53.064 541.752,50.97C514.998,34.01 488.234,17.065 461.546,0L564.682,0ZM945.663,35.501C941.864,37.336 938.071,39.187 934.287,41.053C930.502,42.919 926.726,44.801 922.957,46.697C930.722,43.381 938.283,39.373 945.663,35.501Z" style="fill-rule:nonzero;"/>
</svg>
