<?xml version="1.0" encoding="UTF-8" standalone="no"?>
<!DOCTYPE svg PUBLIC "-//W3C//DTD SVG 1.1//EN" "http://www.w3.org/Graphics/SVG/1.1/DTD/svg11.dtd">
<svg width="100%" height="100%" viewBox="0 0 1000 1000" version="1.1" xmlns="http://www.w3.org/2000/svg" xmlns:xlink="http://www.w3.org/1999/xlink" xml:space="preserve" xmlns:serif="http://www.serif.com/" style="fill-rule:evenodd;clip-rule:evenodd;stroke-linejoin:round;stroke-miterlimit:2;">
    <path d="M472.326,1000C471.969,987.272 472.378,974.492 474.182,962.043C477.041,942.322 485.789,924.575 494.51,906.875C501.365,892.963 509.308,879.907 519.584,868.553C520.33,867.671 521.116,866.827 521.942,866.021C522.704,865.226 523.479,864.439 524.267,863.663C526.136,861.086 528.385,858.361 530.599,857.977C531.815,857.766 532.676,858.175 533.378,858.85C533.635,858.916 533.875,859.041 534.062,859.215C549.101,873.23 560.999,890.404 568.583,909.534C572.429,919.235 575.089,929.293 576.882,939.524C577.299,941.819 577.661,944.127 577.968,946.445C578.022,946.854 578.075,947.262 578.126,947.674C579.351,956.984 579.934,966.396 580.109,975.769C580.26,983.793 580.275,991.893 580.109,1000L574.33,1000L574.372,998.495C574.578,991.132 574.801,983.736 574.802,976.344C567.718,984.003 559.209,990.728 551.295,997.434C550.293,998.283 549.289,999.14 548.284,1000L544.109,1000C546.434,998.15 548.741,996.283 550.997,994.368C559.049,987.531 566.511,979.77 574.789,973.226C574.724,965.887 574.406,958.559 573.604,951.28C565.943,958.787 558.386,966.434 549.778,972.875C545.432,976.126 540.897,979.116 536.553,982.368C534.326,984.038 531.787,987.099 529.111,988.761C529.111,992.507 529.108,996.253 529.103,1000L524.22,1000L524.311,993.409C509.097,982.071 495.577,968.546 481.096,956.306C479.303,964.483 478.314,972.812 477.892,981.18C485.885,986.561 493.205,993.721 500.53,1000L496.762,1000C490.33,994.91 483.572,989.837 477.766,984.148C477.582,989.43 477.612,994.723 477.797,1000L472.326,1000ZM489.336,930.925C487.389,935.633 485.627,940.4 484.077,945.218C483.162,948.062 482.363,950.931 481.668,953.819C496.084,965.942 510.454,978.318 524.344,991.041C524.444,983.836 524.545,976.632 524.646,969.429C524.668,967.839 524.688,966.249 524.707,964.659C519.199,958.832 513.984,952.986 508.032,947.498C501.908,941.852 495.497,936.529 489.336,930.925ZM569.988,931.304C563.019,936.954 555.92,942.435 548.698,947.756C545.153,950.368 541.572,952.927 537.953,955.434C535.262,957.297 532.396,959.67 529.362,961.229C529.281,967.966 529.196,974.704 529.109,981.442C529.109,982.554 529.11,983.665 529.11,984.775C531.195,982.618 533.894,980.842 536.122,979.155C540.225,976.05 544.524,973.222 548.661,970.166C557.53,963.618 565.519,956.015 573.229,948.161C572.849,945.238 572.384,942.327 571.821,939.425C571.291,936.696 570.679,933.988 569.988,931.304ZM213.418,687.013C220.08,685.045 228.085,694.168 231.666,699.233C249.065,718.363 257.616,743.233 261.64,768.963C264.587,784.245 265.149,799.647 264.929,815.147C265.088,837.525 264.877,860.348 259.697,882.228C258.459,887.458 256.894,892.574 255.119,897.619C254.303,900.01 253.421,902.38 252.475,904.726C251.285,907.775 250.038,910.804 248.76,913.824C245.457,921.63 241.801,929.409 236.417,936.02C234.465,938.417 232.323,940.475 230.038,942.189C227.981,944.281 225.746,946.119 223.292,947.536C219.363,949.806 215.455,950.767 211.654,950.731C211.562,955.704 211.471,960.673 211.38,965.642C211.353,967.087 210.825,968.076 210.129,968.596C209.339,969.798 208.26,970.314 206.513,969.85C205.333,969.538 204.74,967.619 204.784,966.595C205.025,961.002 205.259,955.41 205.487,949.818C201.936,948.811 198.527,947.029 195.334,944.755C194.463,944.318 193.598,943.845 192.741,943.335C176.107,933.435 168.995,914.442 165.201,896.383C161.339,877.999 158.551,858.966 157.813,839.924C156.84,826.315 156.691,812.623 158.449,799.283C161.209,778.347 169.075,758.553 178.563,739.824C183.631,729.821 189.239,720.118 194.939,710.466C199.176,703.291 203.203,695.671 209.334,689.974C210.234,688.884 211.26,687.944 212.494,687.365C212.831,687.12 213.14,687.013 213.418,687.013ZM498.226,912.108C495.362,917.505 492.706,923.015 490.307,928.618C497.139,934.351 503.821,940.305 510.3,946.428C514.938,950.81 521.356,955.663 524.741,961.532C524.818,954.105 524.865,946.664 524.94,939.219C523.008,937.257 521.334,934.713 519.549,932.864C517.253,930.486 514.831,928.236 512.401,925.996C507.647,921.613 502.249,917.245 498.226,912.108ZM562.235,909.115C562.059,909.355 561.981,909.709 561.988,909.992C561.99,910.05 561.991,910.109 561.993,910.167C562.004,910.579 562.148,911.048 562.477,911.287C559.858,912.224 555.018,918.719 553.552,920.147C550.959,922.675 548.214,924.946 545.238,927.008C541.79,929.397 538.138,931.499 534.77,934.003C533.026,935.3 531.445,937.169 529.623,938.426C529.552,945.028 529.477,951.629 529.398,958.232C532.027,956.119 535.021,954.326 537.698,952.399C541.277,949.823 544.844,947.229 548.389,944.605C555.446,939.38 562.379,933.991 569.236,928.507C567.611,922.703 565.612,917.019 563.264,911.481L562.875,911.441C562.72,911.423 562.588,911.368 562.477,911.287C562.716,911.202 562.937,911.163 563.135,911.178L563.057,910.995C562.762,910.571 562.468,910.145 562.174,909.719C562.247,909.635 562.319,909.552 562.392,909.468C562.34,909.35 562.287,909.232 562.235,909.115ZM248.182,900.308C246.943,901.375 245.56,902.314 244.206,903.246C240.541,905.771 237.598,908.391 234.73,911.795C231.057,916.154 226.389,919.544 222.001,923.143C218.709,925.843 215.47,928.71 212.012,931.221L211.83,941.124C218.983,941.002 224.764,938.077 229.504,933.684C234.441,927.701 238.78,921.12 242.485,914.172C242.812,913.456 243.131,912.74 243.44,912.029C245.137,908.128 246.722,904.225 248.182,900.308ZM172.753,902.047C175.306,909.429 178.592,916.535 182.889,923.136C185.652,927.38 188.853,931.625 192.659,935.13C196.563,937.828 200.965,939.768 205.854,940.632C205.97,937.704 206.083,934.775 206.194,931.846C200.34,927.767 195.949,921.166 190.466,916.707C184.539,911.887 178.554,907.054 172.753,902.047ZM508.68,894.251C505.361,899.436 502.2,904.761 499.247,910.205C504.919,914.393 509.998,920.442 515.098,925.227C518.167,928.105 522.223,931.515 524.982,935.332C524.994,934.237 525.008,933.143 525.022,932.049C525.003,926.753 525.015,921.455 525.093,916.16C522.343,912.994 520.177,908.885 517.561,905.683C514.497,901.933 511.424,898.23 508.68,894.251ZM552.732,891.245C545.273,898.497 537.915,906.123 529.935,912.798C529.855,917.128 529.797,921.458 529.754,925.788C529.724,928.773 529.694,931.758 529.662,934.743C533.748,929.998 540.896,926.833 545.595,923.439C549.432,920.669 552.745,917.368 556.052,914.002C557.419,912.614 559.675,909.191 561.9,908.369C559.234,902.474 556.168,896.754 552.732,891.245ZM166.746,877.786C167.815,884.079 169.174,890.35 170.973,896.471C177.733,901.865 184.366,907.574 190.77,913.345C196.208,918.245 200.788,924.167 206.304,928.96C206.601,921.065 206.884,913.169 207.152,905.272C204.335,903.629 201.734,901.25 199.187,899.444C195.579,896.885 191.954,894.359 188.266,891.917C184.577,889.472 180.916,886.984 177.22,884.549C173.847,882.326 169.975,880.33 166.746,877.786ZM257.437,865.723C250.499,872.833 242.593,878.866 234.693,884.886C227.368,890.468 220.093,896.12 212.558,901.41C212.4,910.064 212.242,918.717 212.083,927.368C218.977,921.29 227.014,916.333 233.03,909.392C238.215,903.411 244.595,898.892 250.516,893.708C253.57,884.576 255.925,875.309 257.437,865.723ZM816.699,643.786C824.286,641.528 833.398,653.603 836.989,658.783C843.257,667.823 847.988,678.249 852.406,688.285C857.303,699.409 860.734,711.098 862.879,723.056C866.822,745.033 866.789,767.477 866.252,789.723C865.714,812 864.943,834.693 858.176,856.112C855.523,864.507 851.858,872.784 847.11,880.339C842.54,887.768 836.183,895.786 828.691,900.909C828.357,901.164 828.022,901.415 827.685,901.663C824.31,904.142 820.395,907.157 816.166,907.835C815.34,907.967 814.523,907.992 813.717,907.93C813.412,911.835 813.072,915.74 812.692,919.644C812.58,920.791 812.191,921.436 811.695,921.699C810.891,924.672 807.578,922.369 807.862,919.356C808.261,915.135 808.626,910.91 808.959,906.68C807.744,906.167 806.565,905.547 805.427,904.91C804.298,904.504 803.162,904.004 802.019,903.401C785.422,894.647 775.329,876.211 769.701,859.019C762.943,838.373 760.185,816.201 759.876,794.538C759.756,786.093 760.088,777.571 760.894,769.058C761.101,766.273 761.347,763.492 761.63,760.718C762.724,749.984 764.532,739.274 767.767,728.961C769.023,724.956 770.522,721.026 772.165,717.149C772.662,715.743 773.174,714.345 773.701,712.954C773.672,712.143 773.84,711.353 774.27,710.775C774.468,710.508 774.665,710.241 774.86,709.971C779.342,698.711 784.873,687.907 791.509,677.817C793.39,674.319 795.31,670.841 797.27,667.386L797.407,667.144C798.656,664.841 799.967,662.575 801.369,660.36C801.771,659.705 802.184,659.056 802.609,658.414C804.439,655.588 806.415,652.869 808.652,650.39C810.369,648.267 812.406,645.966 814.734,644.719C814.888,644.621 815.044,644.527 815.2,644.437C815.364,644.341 815.53,644.253 815.696,644.174C815.817,644.103 815.934,644.052 816.046,644.017C816.23,643.941 816.414,643.874 816.6,643.816C816.632,643.805 816.665,643.795 816.699,643.786ZM518.568,879.904C518.168,880.441 517.77,880.98 517.375,881.521C517.103,882.132 516.791,882.536 516.464,882.773C515.263,884.436 514.085,886.114 512.932,887.809C511.921,889.296 510.923,890.795 509.936,892.308C512.747,896.569 516.032,900.465 519.217,904.462C521.179,906.924 523.481,909.537 525.159,912.386C525.314,904.904 525.614,897.43 526.152,889.984C523.644,886.611 521.217,883.164 518.568,879.904ZM541.69,875.393C539.528,878.245 537.162,880.945 534.927,883.738C533.809,885.136 532.355,887.891 530.633,889.128C530.35,895.794 530.15,902.462 530.008,909.133C536.818,902.214 544.31,895.829 551.529,889.349C551.476,889.266 551.422,889.182 551.367,889.097C551.054,888.615 550.892,887.995 550.85,887.332C548.015,883.313 545,879.199 541.69,875.393ZM163.079,845.392C163.22,847.53 163.384,849.663 163.571,851.794C163.916,855.727 164.294,859.717 164.733,863.732C165.016,865.973 165.313,868.205 165.618,870.423C165.778,871.58 165.945,872.737 166.12,873.893C169.911,875.369 173.359,878.245 176.718,880.457C180.687,883.067 184.656,885.688 188.53,888.437C192.411,891.192 196.293,893.95 200.15,896.738C202.467,898.412 205.01,900.005 207.267,901.862C207.564,893.015 207.849,884.169 208.119,875.324C204.479,873.723 201.669,870.597 198.677,868.022C194.543,864.465 189.992,861.537 185.244,858.869C177.671,854.613 169.879,850.79 163.079,845.392ZM853.666,852.456C848.06,858.455 841.029,863.063 835.132,868.803C830.91,872.913 826.966,877.311 823.092,881.746C821.096,884.031 818.026,889.32 814.831,890.823C814.688,893.514 814.531,896.205 814.358,898.897C823.674,898.435 831.85,890.413 837.446,883.663C843.688,876.133 848.349,867.359 851.723,858.207C852.425,856.302 853.071,854.384 853.666,852.456ZM774.559,856.943C775.029,858.291 775.519,859.627 776.031,860.953C776.527,862.235 777.047,863.509 777.594,864.771C780.764,871.384 784.606,877.616 789.239,883.322C793.031,887.993 797.549,892.367 802.631,895.782C804.841,897.02 807.162,897.968 809.564,898.484C809.812,894.892 810.037,891.3 810.243,887.706C807.909,886.474 805.904,884.489 803.943,882.794C800.246,879.598 796.567,876.38 792.892,873.159C786.757,867.781 780.647,862.374 774.559,856.943ZM259.7,838.489C256.561,841.915 252.227,844.518 248.527,847.191C244.411,850.165 240.235,853.057 235.979,855.825C231.107,858.993 226.151,862.022 221.135,864.956C218.441,866.532 215.826,868.696 213.114,870.457L213.093,871.67C212.973,878.383 212.853,885.095 212.732,891.807L212.619,898.031C227.872,885.745 244.647,875.047 258.117,860.791C258.933,853.391 259.39,845.939 259.7,838.489ZM858.735,828.379C852.645,834.171 845.727,838.839 838.602,843.333C830.801,848.254 823.315,853.375 815.909,858.804C815.752,868.216 815.473,877.622 815.022,887.027C816.643,884.593 818.982,882.452 820.799,880.328C824.438,876.076 828.147,871.889 832.13,867.953C839.541,860.629 849.048,855.018 855.311,846.611C856.841,840.617 857.937,834.524 858.735,828.379ZM528.268,868.231C527.826,868.527 527.393,868.837 526.969,869.159C525.416,871.012 523.931,872.925 522.442,874.829C521.517,876.013 520.602,877.203 519.696,878.4C522.008,881.175 524.298,883.944 526.391,886.88C526.707,882.999 527.091,879.129 527.556,875.27C527.774,872.921 528.011,870.575 528.268,868.231ZM532.371,866.378C531.957,869.846 531.586,873.315 531.258,876.786C531.093,879.568 530.945,882.35 530.813,885.135C531.91,883.606 533.273,882.187 534.331,880.86C536.244,878.462 538.165,876.042 540.298,873.831C537.93,871.239 535.411,868.825 532.701,866.725C532.557,866.614 532.452,866.496 532.371,866.378ZM768.131,831.344C769.345,838.491 770.955,845.569 773.079,852.436C779.682,858.398 786.311,864.331 792.97,870.229C798.685,875.293 804.255,880.531 810.391,885.051C810.829,876.991 811.166,868.924 811.417,860.856C802.544,855.107 793.924,848.962 785.119,843.107C780.589,840.094 776.088,837.034 771.599,833.96C770.366,833.116 769.176,832.287 768.131,831.344ZM162.983,814.251C162.382,823.182 162.382,832.156 162.831,841.105C170.104,847.418 178.85,851.446 187.162,856.231C191.141,858.521 195.072,860.97 198.551,863.981C201.894,866.874 204.62,869.916 208.21,872.323C208.441,864.675 208.661,857.027 208.868,849.377C205.698,847.639 202.939,845.168 200.235,842.795C196.108,839.173 191.921,835.624 187.633,832.193C179.691,825.84 171.456,819.869 162.983,814.251ZM259.789,803.952C254.398,811.303 247.48,817.471 240.515,823.297C231.631,830.73 222.721,838.241 213.554,845.334C213.434,852.312 213.312,859.291 213.189,866.269C214.863,865.032 216.685,863.956 218.357,862.913C222.937,860.054 227.606,857.347 232.145,854.42C237.528,850.951 242.835,847.358 248.034,843.62C251.762,840.939 255.522,837.058 259.823,835.345C259.942,832.086 260.038,828.826 260.129,825.573C260.188,818.357 260.062,811.136 259.789,803.952ZM765.02,801.129C765.061,802.039 765.107,802.949 765.158,803.86C765.593,811.602 766.318,819.475 767.485,827.297C769.847,830.888 774.583,833.196 777.95,835.521C781.653,838.077 785.331,840.666 789.016,843.248C796.475,848.472 804.085,853.49 811.479,858.806C811.494,858.295 811.509,857.783 811.523,857.271C811.765,848.659 811.925,840.046 812.028,831.432C811.72,831.364 811.556,831.013 811.522,830.629C803.657,826.65 796.297,820.985 788.893,816.338C780.934,811.344 772.7,806.573 765.02,801.129ZM860.762,800.837C853.88,806.349 846.593,811.299 839.117,815.976C834.729,818.723 830.282,821.376 825.832,824.02C822.806,825.818 819.68,828.042 816.424,829.708C816.331,836.452 816.201,843.196 816.024,849.939C816.007,851.699 815.988,853.46 815.964,855.223C821.82,850.191 828.731,846.198 835.193,842.152C843.573,836.903 851.909,831.527 859.169,824.775C860.054,816.83 860.488,808.815 860.762,800.837ZM166.584,788.402C166.345,789.487 166.118,790.573 165.904,791.664C164.653,798.032 163.783,804.451 163.238,810.894C171.718,816.513 179.959,822.479 187.9,828.843C195.005,834.537 201.543,840.997 208.951,846.283C209.188,837.391 209.409,828.498 209.61,819.604C202.353,816.469 196.43,810.045 190.386,805.201C182.799,799.122 174.843,793.529 166.584,788.402ZM258.65,784.958C256.37,787.421 252.078,789.555 249.994,791.123C245.782,794.289 241.56,797.44 237.334,800.587C229.686,806.283 222.17,812.633 214.06,817.724L214.056,817.925C214.001,820.667 213.944,823.408 213.886,826.149L213.858,827.468C213.779,832.162 213.7,836.855 213.619,841.543C229.41,828.155 246.921,816.358 259.616,799.835C259.525,797.847 259.424,795.863 259.312,793.884C259.145,790.913 258.926,787.935 258.65,784.958ZM765.728,770.081C764.881,779.228 764.616,788.431 764.889,797.615C772.844,802.311 780.428,807.749 788.125,812.838C795.943,818.008 804.636,822.682 812.061,828.503C812.101,824.747 812.13,820.992 812.151,817.237C812.129,813.702 812.104,810.167 812.077,806.633C808.361,804.123 805.063,800.568 801.613,797.815C797.433,794.481 793.115,791.333 788.74,788.262C784.21,785.083 779.63,781.967 775.35,778.452C772.056,775.747 769.073,772.7 765.728,770.081ZM861.361,768.336C854.514,775.13 846.931,781.143 839.124,786.792C831.743,792.134 824.342,797.624 816.633,802.518C816.612,810.318 816.565,818.117 816.472,825.915C822.635,821.618 829.974,818.302 836.184,814.489C844.76,809.222 853.089,803.61 860.876,797.223L860.884,796.943C861.158,787.44 861.421,777.886 861.361,768.336ZM176.776,757.381C172.887,766.447 169.619,775.758 167.284,785.382C174.852,790.179 182.18,795.331 189.211,800.89C196.073,806.317 202.251,812.358 209.67,816.945C209.811,810.596 209.943,804.245 210.064,797.895C210.104,795.784 210.144,793.674 210.183,791.566C199.039,780.169 188.292,768.428 176.776,757.381ZM255.289,762.173C241.913,771.584 228.732,782.184 214.54,790.367C214.42,798.322 214.282,806.277 214.129,814.227C220.604,808.737 227.781,803.913 234.547,798.847C238.238,796.085 241.924,793.317 245.625,790.568C246.782,789.709 257.556,781.21 258.157,782.389C257.986,782.053 257.966,781.259 258.225,780.78C257.531,774.535 256.571,768.309 255.289,762.173ZM770.487,741.062C768.453,749.557 766.987,758.178 766.051,766.859C769.557,769.34 772.269,772.715 775.502,775.589C779.629,779.26 784.282,782.335 788.86,785.4C793.531,788.527 798.129,791.728 802.538,795.217C805.686,797.709 809.2,800.282 812.051,803.284C811.978,793.74 811.902,784.197 811.879,774.654C808.624,772.091 805.807,768.594 802.747,765.869C799.281,762.782 795.702,759.815 792.036,756.968C784.989,751.497 777.702,746.316 770.487,741.062ZM859.779,738.679C852.362,745.482 844.875,752.298 836.948,758.494C830.032,763.902 822.943,768.594 816.628,774.627C816.643,782.742 816.655,790.857 816.641,798.973C831.574,787.492 848.057,778.064 861.319,764.515C861.181,755.877 860.745,747.25 859.779,738.679ZM185.14,739.848C182.567,744.787 180.125,749.79 177.872,754.87C189.093,765.478 200.303,776.422 210.243,788.282C210.364,781.651 210.479,775.019 210.586,768.385C206.301,763.648 202.065,758.866 197.775,754.133C193.637,749.568 188.717,744.969 185.14,739.848ZM248.414,740.897C246.929,742.35 245.164,743.4 243.325,744.528C239.592,746.818 236.055,749.268 232.589,751.939C226.701,756.477 220.961,761.275 214.86,765.535C214.786,772.535 214.698,779.534 214.597,786.539C227.11,776.447 241.239,767.914 254.435,758.817C252.766,752.746 250.755,746.758 248.414,740.897ZM778.263,716.137C776.161,721.588 774.282,727.135 772.662,732.787C772.132,734.637 771.63,736.494 771.156,738.357C778.723,743.811 786.29,749.249 793.597,755.053C799.576,759.804 807.057,765.136 811.873,771.492C811.865,764.594 811.887,757.692 811.961,750.791C811.976,749.382 811.992,747.972 812.009,746.563C807.026,741.074 800.842,736.279 795.526,731.245C789.874,725.895 784.401,720.8 778.263,716.137ZM856.557,719.27C850.852,725.149 842.377,729.646 835.514,733.855C831.603,736.253 827.628,738.535 823.601,740.73C820.816,742.249 818.695,743.892 816.588,745.845C816.585,754.112 816.603,762.38 816.62,770.645C821.799,764.904 829.012,760.936 835.059,756.297C843.551,749.782 851.33,742.414 859.38,735.379C859.191,733.922 858.987,732.468 858.765,731.016C858.164,727.081 857.427,723.161 856.557,719.27ZM193.077,725.443C191.871,727.527 190.683,729.621 189.514,731.727C188.49,733.572 187.481,735.425 186.489,737.289C191.149,741.328 195.065,746.917 199.022,751.515C202.874,755.99 206.776,760.422 210.642,764.884C210.745,758.327 210.841,751.773 210.928,745.219C204.715,738.965 199.146,731.905 193.077,725.443ZM237.157,717.92C233.59,721.964 229.59,725.705 225.843,729.556C222.336,733.162 218.893,736.893 215.25,740.382C215.164,743.875 215.088,747.365 215.04,750.846C215.003,753.488 214.966,756.13 214.928,758.776L214.903,761.4C224.971,752.871 235.983,744.792 247.182,737.894C244.285,731.022 240.934,724.34 237.157,717.92ZM498.358,740.341C496.213,740.281 494.074,739.862 491.997,738.994C486.551,736.718 482.092,731.893 478.363,726.84C471.094,718.68 466.012,707.743 462.561,698.584C462.428,698.233 462.297,697.88 462.168,697.528C458.138,687.273 455.331,676.51 453.486,665.684C449.641,643.124 449.785,620.146 449.969,597.336C450.057,586.474 450.333,575.626 453.099,565.057C453.377,563.993 453.675,562.937 453.991,561.889C456.673,551.603 461.031,541.881 465.797,532.288C470.161,522.243 475.155,512.478 479.647,502.488C482.578,495.968 486.637,490.966 491.125,485.889C493.245,482.691 495.575,479.622 498.393,477.14C500.247,474.714 502.349,472.406 505.081,471.856C509.615,470.943 513.798,475.78 516.709,478.518C516.938,478.734 517.166,478.95 517.393,479.168C520.244,481.694 522.839,484.56 525.272,487.491C528.875,491.697 532.174,496.166 535.12,500.852C538.603,506.299 541.657,512.022 544.262,517.932C553.772,539.512 556.045,563.059 556.087,586.407C556.087,586.829 556.088,587.25 556.087,587.671C556.167,595.546 555.981,603.419 555.676,611.215C555.618,613.726 555.563,616.236 555.521,618.746C555.34,629.421 555.791,640.156 554.723,650.796C552.77,670.252 545.165,690.265 535.972,707.421C535.496,708.309 534.996,709.226 534.472,710.163C534.102,710.857 533.728,711.546 533.352,712.233C528.86,720.421 523.353,728.444 515.753,734.049C512.54,736.419 508.769,738.444 504.814,739.521C504.869,743.528 504.93,747.536 504.996,751.544C505.034,753.861 503.919,755.146 502.691,755.376C500.743,757.665 498.258,754.319 498.267,752.01C498.28,748.12 498.312,744.23 498.358,740.341ZM788.275,697.647C785.693,702.83 782.91,707.901 779.622,712.702C779.478,713.056 779.335,713.411 779.194,713.766C781.983,715.061 784.309,717.483 786.525,719.53C790.31,723.029 794.053,726.573 797.816,730.096C801.586,733.626 805.354,737.158 809.082,740.731C810.064,741.673 811.096,742.578 812.047,743.54C812.066,742.136 812.086,740.733 812.106,739.33C812.124,733.409 812.161,727.488 812.228,721.567C810.335,719.675 807.695,718.043 805.919,716.38C803.688,714.291 801.629,712.025 799.549,709.788C795.787,705.745 792.031,701.697 788.275,697.647ZM201.686,711.096C199.245,715.045 196.838,719.015 194.489,723.02C197.853,726.622 201.104,730.327 204.341,734.045C206.41,736.42 208.483,738.792 210.522,741.192C210.637,741.327 210.792,741.489 210.971,741.669C211.045,734.609 211.052,727.539 211.098,720.466C209.633,719.117 208.279,717.565 206.928,716.243C205.176,714.532 203.432,712.814 201.686,711.096ZM850.796,699.282C845.895,703.94 839.119,707.499 833.642,711.214C830.394,713.418 827.143,715.615 823.863,717.767C821.586,719.262 819.211,721.176 816.675,722.428C816.626,728.769 816.601,735.112 816.592,741.452C820.359,737.889 826.294,735.59 830.106,733.369C834.859,730.601 839.516,727.679 844.108,724.653C847.971,722.109 851.76,718.69 855.943,716.627C854.534,710.763 852.818,704.967 850.796,699.282ZM228.334,704.856C224.508,709.329 220.047,713.382 215.8,717.46C215.702,723.649 215.526,729.841 215.362,736.021C218.378,732.8 221.532,729.693 224.601,726.542C228.228,722.819 231.739,718.824 235.558,715.259C234.169,712.996 232.727,710.771 231.233,708.582C230.842,708.009 230.418,707.391 229.966,706.746C229.431,706.11 228.887,705.48 228.334,704.856ZM464.488,687.583C468.564,699.444 474.273,710.726 482.024,720.633C483.774,722.871 485.597,724.985 487.565,726.766C489.827,728.407 492.312,729.732 495.064,730.601C496.234,730.971 497.374,731.226 498.486,731.377C498.585,725.426 498.707,719.474 498.835,713.524C487.055,705.288 476.383,695.644 464.488,687.583ZM539.611,685.485C529.176,697.314 517.215,708.288 504.579,717.611L504.575,717.875C504.612,722.271 504.656,726.667 504.707,731.061C513.003,728.502 519.496,721.782 524.313,714.825C530.438,705.978 535.64,695.924 539.611,685.485ZM839.04,673.512C836.263,677.673 832.096,681.26 828.74,684.822C824.951,688.842 821.273,693.39 817.075,697.065C816.976,700.467 816.896,703.869 816.845,707.273C816.782,711.452 816.734,715.631 816.697,719.809C818.985,717.987 821.611,716.449 823.941,714.831C827.142,712.608 830.36,710.409 833.562,708.188C838.754,704.589 844.129,699.666 849.855,696.701C846.878,688.746 843.297,681.021 839.116,673.645L839.04,673.512ZM796.55,680.173C794.111,685.263 791.8,690.416 789.338,695.484C793.81,700.289 798.261,705.113 802.775,709.876C805.482,712.734 808.373,715.298 811.29,717.935C811.61,718.225 811.938,718.5 812.262,718.773C812.338,712.809 812.446,706.847 812.594,700.887C811.742,700.028 810.748,698.736 810.247,698.138C808.553,696.116 806.995,693.993 805.38,691.911C802.416,688.094 799.182,684.271 796.55,680.173ZM211.559,696.635C210.904,697.117 210.252,697.726 209.605,698.477C208.44,700.308 207.284,702.145 206.128,703.981C205.107,705.603 204.089,707.228 203.076,708.855C204.678,710.427 206.28,711.998 207.877,713.575C208.91,714.596 210.039,715.605 211.128,716.655C211.188,709.976 211.302,703.299 211.559,696.635ZM547.804,652.451C545.492,654.011 543.033,655.388 540.964,657.364C536.822,661.32 533.09,665.54 528.692,669.251C520.785,675.921 512.909,682.712 504.97,689.34C504.871,697.699 504.765,706.057 504.632,714.414C517.818,703.379 530.799,692.017 541.941,678.881C543.743,673.352 545.188,667.763 546.234,662.235C546.847,658.995 547.364,655.731 547.804,652.451ZM219.503,696.092C218.247,695.47 216.96,695.118 215.662,695.148C215.875,701.158 215.912,707.19 215.855,713.231C219.266,709.645 222.613,705.917 226.224,702.551C224.109,700.314 221.872,698.159 219.503,696.092ZM457.628,657.093C457.932,659.769 458.284,662.437 458.692,665.089C459.154,667.611 459.669,670.126 460.243,672.631C461.091,676.339 462.075,680.023 463.206,683.663C476.051,691.043 486.877,701.602 498.906,710.238C499.036,704.253 499.169,698.266 499.285,692.28C499.286,691.45 499.286,690.621 499.287,689.791C499.289,688.142 499.292,686.492 499.295,684.841C491.717,680.039 484.203,675.141 476.764,670.129C470.569,665.955 463.623,661.882 457.628,657.093ZM805.051,664.391C803.377,667.028 801.901,669.784 800.617,672.64C800.316,673.309 799.971,673.745 799.612,673.995C798.98,675.219 798.362,676.45 797.755,677.687C801.182,681.754 803.967,686.445 807.08,690.728C808.865,693.184 810.77,695.541 812.671,697.906L812.681,697.524C812.897,689.67 813.079,681.723 813.407,673.778C812.18,671.984 810.522,670.381 809.154,668.87C808.139,667.751 807.109,666.647 806.068,665.552C805.958,665.436 805.52,664.93 805.051,664.391ZM830.987,660.929C829.183,663.032 826.334,664.664 824.418,666.464C822.14,668.603 820.076,670.916 817.984,673.219C817.7,679.9 817.415,686.583 817.193,693.27C820.295,689.663 823.821,686.335 827.067,682.924C830.496,679.318 833.841,674.568 837.805,671.352C835.772,667.839 833.546,664.231 830.987,660.929ZM550.095,624.134C542.612,630.646 535.133,637.149 527.414,643.388C523.205,646.789 518.92,650.101 514.445,653.148C511.751,654.983 508.089,656.586 505.333,658.782C505.216,667.752 505.117,676.724 505.013,685.693C511.126,679.19 518.949,673.992 525.717,668.404C530.091,664.793 534.207,660.971 538.194,656.942C541.058,654.047 544.965,652.067 548.177,649.52C549.188,641.117 549.728,632.619 550.095,624.134ZM455.82,627.461C456.011,636.058 456.395,644.724 457.229,653.305C464.05,657.287 470.459,662.677 476.902,667.007C484.299,671.98 491.771,676.838 499.303,681.601C499.325,674.325 499.364,667.049 499.421,659.776C491.789,654.356 484.193,648.874 476.691,643.279C469.794,638.133 462.41,633.131 455.82,627.461ZM814.789,652.262C814.411,652.505 814.035,652.778 813.661,653.077C811.233,655.546 808.862,658.979 807.664,660.592C807.181,661.24 806.713,661.897 806.257,662.562C806.48,662.839 806.686,663.097 806.872,663.293C808.235,664.729 809.57,666.191 810.884,667.67C811.769,668.667 812.701,669.657 813.541,670.701C813.827,664.531 814.215,658.371 814.789,652.262ZM818.834,650.98C818.653,657.028 818.411,663.074 818.157,669.121C821.543,665.341 825.523,662.287 829.382,658.955C827.003,656.171 824.343,653.689 821.308,651.785C820.496,651.275 819.668,651.021 818.834,650.98ZM0,440.073C1.232,437.586 2.502,435.105 3.798,432.627C4.07,432.108 4.343,431.589 4.618,431.071C4.691,430.62 4.832,430.201 5.055,429.848L6.519,427.53C11.092,419.125 16.004,410.902 21.219,402.882C24.37,398.037 27.523,392.823 31.42,388.399C31.75,387.945 32.087,387.501 32.431,387.072C33.795,385.286 35.262,383.642 36.869,382.407C39.145,380.659 41.696,380.746 44.229,381.828C45.344,382.13 46.52,382.636 47.765,383.38C51.992,385.906 54.868,390.25 57.592,394.228C60.731,398.811 63.603,403.568 66.234,408.459C71.745,418.708 76.012,429.494 79.231,440.67C85.217,461.457 87.341,483.147 88.553,504.671C89.559,522.538 90.762,540.251 88.092,557.83C87.989,559.004 87.866,560.178 87.723,561.349C86.42,572.02 82.719,582.147 78.7,592.055C77.571,594.84 76.401,597.615 75.175,600.366C71.698,609.187 68.342,618.518 62.662,626.169C60.08,629.647 56.586,633.181 52.699,636.202C50.773,638.164 48.726,639.962 46.548,641.514C43.551,643.651 40.581,644.797 37.673,645.164C38.724,650.165 38.732,655.14 37.68,660.167C37.119,662.852 34.669,663.937 33.268,661.159C32.98,660.588 32.726,660.01 32.504,659.429C31.89,658.61 31.485,657.475 31.586,656.225C30.848,652.52 31.102,648.673 31.605,644.845C24.333,643.205 17.656,637.315 12.19,630.885C7.341,626.002 3.337,620.304 0,614.201L0,600.677C0.139,601.001 0.279,601.324 0.421,601.647C3.471,607.918 7.095,613.92 11.268,619.57C12.111,620.71 12.987,621.886 13.902,623.064C17.102,626.525 20.726,629.568 24.84,632.007C27.206,633.409 30.045,634.987 32.931,635.698C33.193,633.698 33.44,631.695 33.672,629.692C33.837,627.183 33.993,624.672 34.14,622.16C27.324,618.475 20.887,612.856 14.77,608.345C10.103,604.904 4.85,601.779 0,598.291L0,594.728C4.846,597.934 9.49,601.801 14.056,604.967C20.601,609.505 28.148,613.675 34.328,618.89C34.685,612.492 34.988,606.089 35.241,599.683C27.741,593.636 19.797,588.147 12,582.496C8.13,579.691 4.029,576.941 0,574.075L0,569.796C4.167,572.888 8.214,576.154 12.212,579.072C19.91,584.688 28.036,590.017 35.377,596.142C35.389,595.808 35.401,595.474 35.413,595.139C35.681,587.714 35.854,580.283 35.958,572.845C27.489,567.016 19.39,560.554 11.139,554.433C7.525,551.753 3.741,549.113 0,546.393L0,541.998C3.883,544.94 7.676,547.992 11.441,550.798C19.599,556.878 28.019,562.732 36.005,569.052C36.084,561.855 36.102,554.655 36.083,547.456C31.985,542.967 27.776,539.005 22.756,535.386C18.081,532.015 13.594,528.567 9.402,524.6C6.205,521.575 3.103,518.485 0,515.406L0,511.51C3.666,515.211 7.234,519.013 10.977,522.493C15.863,527.035 21.253,530.713 26.566,534.71C30.065,537.344 33.155,540.329 36.069,543.527C36.022,533.057 35.907,522.584 35.795,512.117C28.184,505.678 20.572,499.244 12.961,492.808C8.855,489.336 4.307,485.911 0,482.281L0,478.76C0.663,479.325 1.324,479.882 1.987,480.419C5.976,483.652 9.952,486.902 13.891,490.195C21.208,496.312 28.493,502.465 35.757,508.645C35.676,500.999 35.601,493.353 35.56,485.705C23.915,474.496 12.013,463.471 0.724,451.899C0.481,452.419 0.239,452.94 0,453.462L0,440.073ZM455.505,596.101C455.515,597.079 455.525,598.057 455.536,599.034C455.619,607.084 455.61,615.361 455.748,623.724C463.308,628.898 470.352,635.113 477.652,640.577C484.863,645.973 492.117,651.295 499.448,656.52C499.518,648.319 499.61,640.119 499.725,631.915C492.107,626.008 484.565,620.006 477.079,613.937C469.919,608.134 462.232,602.496 455.505,596.101ZM550.977,595.692C536.207,608.274 520.969,620.407 505.736,632.433C505.671,636.343 505.607,640.253 505.545,644.164C505.483,647.991 505.427,651.818 505.375,655.643C507.053,654.498 508.898,653.538 510.621,652.436C515.608,649.246 520.338,645.678 524.962,641.987C533.417,635.237 541.741,628.331 550.2,621.588C550.421,616.009 550.579,610.439 550.761,604.911C550.861,601.852 550.936,598.779 550.977,595.692ZM71.192,595.542C60.842,605.388 50.114,614.809 39.096,623.904C38.842,626.669 38.563,629.432 38.255,632.192C38.192,632.755 38.115,633.335 38.027,633.928C37.989,634.572 37.951,635.215 37.913,635.859C41.902,634.989 46.08,631.69 49.263,629.531C50.011,629.024 50.73,628.5 51.425,627.959C52.236,627.044 53.016,626.118 53.769,625.207C59.769,617.948 64.707,609.731 68.879,601.118C69.66,599.269 70.432,597.411 71.192,595.542ZM550.602,574.672C542.759,579.114 535.557,584.58 528.255,589.851C520.903,595.156 513.534,600.436 506.184,605.744C506.053,613.564 505.92,621.387 505.79,629.208C520.674,616.812 535.665,604.44 551.005,592.641C551.037,586.664 550.926,580.661 550.602,574.672ZM457.537,565.909C455.629,574.778 455.426,583.885 455.478,592.947C463.32,598.555 470.506,605.378 477.976,611.417C485.186,617.248 492.462,622.993 499.771,628.701C499.895,620.171 500.043,611.642 500.214,603.113C485.508,591.453 470.938,579.081 457.537,565.909ZM82.364,560.824C75.855,567.041 68.528,572.468 61.551,578.111C57.195,581.635 52.844,585.163 48.463,588.655C46.041,590.586 43.603,592.889 40.988,594.789C40.827,598.805 40.626,602.817 40.381,606.828C40.091,611.577 39.754,616.324 39.348,621.063C50.767,611.003 62.019,600.754 73.218,590.444C76.967,580.782 80.242,570.899 82.364,560.824ZM1000,440.074L1000,453.462C997.551,458.802 995.312,464.24 993.379,469.817C993.038,470.802 992.714,471.794 992.407,472.791C995.091,474.498 997.558,476.682 1000,478.76L1000,482.28C997.111,479.845 994.33,477.317 991.865,474.62C989.472,483.01 988.238,491.745 987.658,500.57C992.101,503.764 996.106,507.58 1000,511.511L1000,515.406C995.905,511.342 991.809,507.296 987.492,503.438C986.984,513.532 987.257,523.709 987.558,533.588C991.846,536.009 995.971,538.945 1000,541.998L1000,546.393C995.719,543.281 991.496,540.064 987.652,536.561C987.959,545.394 988.606,554.266 989.851,563.044C993.333,565.013 996.704,567.35 1000,569.796L1000,574.075C996.698,571.727 993.444,569.301 990.407,566.704C991.746,574.968 993.651,583.128 996.34,591.069C996.538,591.653 996.74,592.238 996.947,592.825C997.974,593.422 998.992,594.061 1000,594.729L1000,598.291C999.528,597.952 999.061,597.609 998.599,597.263C999.047,598.404 999.513,599.543 1000,600.677L1000,614.201C997.997,610.537 996.234,606.727 994.673,602.859C989,590.211 985.52,576.681 984.023,562.73C981.626,540.383 980.66,516.86 982.787,494.463C984.637,474.984 991.45,457.33 1000,440.074ZM547.938,550.612C541.467,555.499 534.228,559.399 527.245,563.472C523.146,565.861 519.008,568.187 515.019,570.762C512.263,572.542 509.551,575.049 506.651,576.876C506.519,585.444 506.379,594.012 506.237,602.578C513.642,597.006 521.224,591.665 528.727,586.23C535.796,581.108 542.793,575.86 550.415,571.588C549.943,564.535 549.156,557.518 547.938,550.612ZM466.705,541.685C466.068,542.984 465.439,544.287 464.824,545.598C462.322,551.464 459.95,557.431 458.177,563.548C472.55,575.138 485.902,588.004 500.286,599.619C500.408,593.742 500.541,587.868 500.684,581.994C500.715,580.735 500.745,579.475 500.774,578.214C488.982,566.484 477.412,554.417 466.705,541.685ZM83.65,535.015C82.482,536.295 80.886,537.327 79.401,538.525C75.183,541.932 70.902,545.261 66.589,548.546C58.431,554.761 50.149,560.784 41.553,566.376C41.533,574.597 41.408,582.817 41.127,591.031C43.428,589.073 45.888,587.26 48.145,585.395C52.218,582.03 56.321,578.7 60.417,575.362C68.012,569.173 76.074,563.296 83.028,556.369C83.741,549.311 83.811,542.161 83.65,535.015ZM474.294,526.395C474.222,526.539 474.15,526.685 474.077,526.83C472.048,531.16 469.999,535.478 467.839,539.743C478.649,551.54 489.48,563.261 500.859,574.515C501.007,567.983 501.144,561.442 501.292,554.897C498.725,552.658 496.592,549.96 494.001,547.701C491.423,545.453 488.84,543.24 486.408,540.831C481.965,536.431 477.729,531.643 474.294,526.395ZM540.515,523.789C529.338,533.666 518.514,544.128 506.983,553.577C506.9,559.979 506.809,566.381 506.713,572.787C511.64,568.434 518.527,565.175 523.731,562.221C531.848,557.612 539.799,553.102 547.397,547.701C545.802,539.525 543.573,531.515 540.515,523.789ZM82.682,507.762C75.553,512.804 68.413,517.833 61.44,523.087C54.756,528.123 48.507,534.443 41.329,538.831C41.403,543.842 41.466,548.858 41.51,553.875C41.539,557.17 41.556,560.465 41.556,563.759C48.29,558.822 55.061,553.932 61.737,548.918C65.562,546.044 69.356,543.129 73.118,540.172C75.889,537.993 81.745,534.807 83.548,531.311C83.376,525.943 83.115,520.584 82.939,515.277C82.857,512.773 82.773,510.269 82.682,507.762ZM483.717,508.198C480.793,513.574 477.991,519.016 475.247,524.488C479.81,530.205 484.372,535.767 489.833,540.695C493.615,544.107 498.566,547.227 501.366,551.629C501.549,543.753 501.753,535.872 502.015,527.994C495.884,521.469 489.49,515.052 483.717,508.198ZM530.693,504.621C526.174,508.44 521.873,512.503 517.533,516.533C514.17,519.656 510.936,523.393 507.35,526.425C507.28,530.026 507.216,533.625 507.178,537.219C507.132,541.45 507.083,545.682 507.03,549.916C517.299,539.843 528.564,530.587 539.453,521.199C537.034,515.491 534.141,509.948 530.693,504.621ZM81.27,483.012C68.082,492.588 54.596,502.043 40.847,510.803C40.998,519.309 41.158,527.816 41.291,536.324C54.804,525.38 68.324,514.754 82.568,504.747C82.282,497.487 81.907,490.233 81.27,483.012ZM493.203,492.322C493.016,492.513 492.83,492.706 492.646,492.899C491.965,493.818 491.3,494.75 490.65,495.692C489.341,498.015 488.108,500.329 486.883,502.492C486.209,503.68 485.543,504.872 484.884,506.068C490.906,511.853 496.478,518.217 502.14,524.364C502.274,520.607 502.423,516.85 502.59,513.096C502.645,509.395 502.708,505.693 502.802,501.995C501.275,500.773 499.998,498.755 498.884,497.554C497.116,495.648 495.152,494.003 493.203,492.322ZM520.671,491.478C519.71,492.464 518.56,493.252 517.477,494.197C515.889,495.583 514.352,497.029 512.874,498.533C511.396,500.034 509.986,501.589 508.604,503.179C508.284,503.547 507.999,503.898 507.71,504.209C507.675,510.111 507.558,516.017 507.439,521.916C510.589,518.453 514.566,515.401 517.755,512.474C520.502,509.953 523.283,507.469 526.072,504.994C527.184,504.007 528.102,503.064 529.217,502.404C528.946,502.007 528.674,501.617 528.4,501.227C526.014,497.844 523.434,494.579 520.671,491.478ZM77.42,456.564C64.375,464.679 53.097,475.186 40.448,483.81C40.53,491.847 40.657,499.883 40.796,507.922C53.834,498.178 67.401,488.894 80.983,479.94C80.207,472.099 79.093,464.297 77.42,456.564ZM508.056,479.74C508.033,486.19 507.902,492.643 507.718,499.096C507.72,499.757 507.721,500.418 507.721,501.079C508.416,500.24 509.047,499.331 509.56,498.745C510.831,497.295 512.158,495.899 513.533,494.548C515.025,493.083 516.865,490.859 518.888,489.526C516.312,486.779 513.587,484.173 510.721,481.742C509.91,481.054 509.047,480.236 508.056,479.74ZM503.879,480.432C503.453,480.889 503.059,481.394 502.798,481.678C501.353,483.249 500.066,484.984 498.696,486.62C497.453,488.105 496.081,489.454 494.715,490.806C496.241,491.981 497.665,493.31 499.013,494.632C500.222,495.818 501.323,497.101 502.501,498.315C502.63,498.448 502.761,498.576 502.894,498.701C503.083,492.601 503.375,486.507 503.879,480.432ZM9.323,435.027C6.692,439.864 4.146,444.744 1.766,449.702C13.31,460.158 24.351,471.228 35.543,482.065C35.516,475.314 35.52,468.565 35.572,461.818C26.488,453.237 17.831,444.174 9.323,435.027ZM71.997,436.378C66.369,440.879 60.574,445.206 54.856,449.585C51.503,452.152 48.158,454.73 44.793,457.28C43.368,458.359 41.941,459.722 40.366,460.7C40.337,467.376 40.361,474.051 40.419,480.724C46.221,475.853 52.475,471.416 58.466,466.828C64.414,462.272 70.431,457.844 76.834,453.959C75.481,448.144 73.885,442.234 71.997,436.378ZM700.13,452.719C699.92,452.663 699.71,452.604 699.501,452.542C696.801,452.127 694.177,451.298 691.781,450.055C684.324,446.188 679.834,438.943 675.588,431.93C675.319,431.53 675.059,431.133 674.807,430.741C673.431,428.6 672.111,426.444 670.851,424.273C665.929,416.463 660.891,408.493 658.14,399.715C656.653,394.972 655.929,390.08 655.421,385.151C654.578,381.222 653.921,377.219 653.458,373.128C652.844,367.705 652.375,362.221 652.037,356.705C651.131,349.968 650.444,343.227 650.532,336.346C650.701,323.107 651.208,309.489 653.162,296.184C655.44,278.517 660.741,262.104 668.719,245.766C676.988,228.833 686.814,212.56 697.865,197.257L697.883,197.227C699.827,193.963 701.607,188.936 705.158,187.004C710.252,184.233 715.724,190.25 719.379,195.51C719.824,196.024 720.265,196.541 720.703,197.061C737.135,212.62 747.265,233.311 752.929,255.346C754.491,260.83 755.662,266.419 756.371,272.088C758.023,282.567 758.803,293.127 758.899,303.39C759.114,326.401 756.474,349.315 754.139,372.171C753.058,382.751 752.125,393.283 748.256,403.288C745.849,409.514 742.693,415.392 739.202,421.069C735.662,427.971 731.394,434.541 726.299,440.293C723.525,443.881 720.396,447.141 716.538,449.419C713.329,451.808 710.073,453.02 706.851,453.325C706.902,457.848 706.953,462.374 707.004,466.899C707.025,468.773 706.134,469.824 705.145,470.033C704.624,470.76 703.948,471.407 703.122,471.932C701.172,473.169 699.913,469.601 699.926,468.405C699.986,463.175 700.055,457.946 700.13,452.719ZM18.943,418.59C17.541,420.82 16.141,423.052 14.742,425.285C13.221,427.974 11.711,430.67 10.225,433.376C18.433,441.926 26.978,450.092 35.606,458.206C35.672,451.889 35.785,445.575 35.959,439.263C30.281,432.383 24.566,425.514 18.943,418.59ZM63.216,414.477C59.175,418.458 54.771,422.102 50.811,426.181C47.558,429.532 44.578,433.91 40.665,436.622C40.611,440.186 40.558,443.748 40.5,447.309C40.446,450.668 40.408,454.026 40.385,457.387C41.739,456.283 43.22,455.298 44.569,454.268C47.665,451.904 50.768,449.55 53.87,447.193C59.637,442.813 65.374,438.34 71.241,434.084C68.984,427.379 66.334,420.77 63.216,414.477ZM665.593,401.976C667.214,406.01 669.053,409.964 671.092,413.854L671.141,413.935C673.554,417.898 676.072,422.552 678.905,427.056C683.254,433.611 688.497,440.043 695.618,443.63C696.684,444.167 697.797,444.657 698.94,445.067C699.367,445.166 699.8,445.252 700.24,445.322C700.294,441.745 700.352,438.167 700.411,434.592C693.84,428.805 687.792,422.316 681.441,416.312C676.263,411.416 670.995,406.619 665.593,401.976ZM742.772,398.975C737.692,404.135 731.927,408.859 726.738,413.699C720.05,419.937 713.461,426.325 706.619,432.4C706.665,436.691 706.712,440.983 706.76,445.276C707.919,445.086 709.114,444.798 710.348,444.405C713.4,443.434 715.971,441.811 718.231,439.806C719.068,438.99 719.875,438.163 720.655,437.366C720.794,437.225 720.932,437.083 721.07,436.94C723.888,433.747 726.256,430.042 728.641,426.555C731.338,422.612 734.024,418.623 736.498,414.513C738.957,409.498 741.027,404.28 742.772,398.975ZM28.781,403.034C27.508,405.034 26.236,407.035 24.968,409.039C23.345,411.603 21.725,414.169 20.108,416.737C22.711,419.368 24.964,422.489 27.302,425.236C30.225,428.67 33.158,432.097 36.07,435.54C36.296,428.398 36.606,421.258 37.022,414.122C34.389,410.374 31.852,406.435 28.781,403.034ZM53.738,398.683C51.878,400.915 49.587,402.882 47.568,404.931C45.397,407.134 43.232,409.349 41.102,411.593C40.941,418.898 40.823,426.204 40.712,433.51C47.738,426.334 53.888,418.053 61.952,411.995C60.156,408.558 58.213,405.228 56.11,402.042C55.355,400.897 54.566,399.773 53.738,398.683ZM659.441,375.923C659.779,379.154 660.105,382.388 660.45,385.633C660.474,385.854 660.498,386.074 660.525,386.293C661.417,389.924 662.483,393.484 663.712,396.983C676.581,407.605 689.381,419.106 700.461,431.59C700.597,423.448 700.74,415.306 700.883,407.163C692.852,402.183 685.465,395.686 677.948,390.035C671.94,385.518 664.951,381.277 659.441,375.923ZM749.736,366.875C747.264,369.48 744.369,371.817 741.795,374.153C737.797,377.782 733.717,381.322 729.606,384.823C722.019,391.286 714.403,398.048 706.332,403.969C706.408,412.237 706.491,420.507 706.58,428.775C712.803,422.708 719.259,416.861 725.593,410.92C731.706,405.187 737.749,398.431 744.509,393.305L744.577,393.064C746.795,385.221 748.369,377.211 749.504,369.129C749.581,368.378 749.659,367.627 749.736,366.875ZM277.732,393.679C273.53,393.153 269.38,391.112 265.514,386.98C261.632,382.831 258.134,378.077 254.875,373.213C248.457,364.503 242.965,355.079 239.14,345.011C238.21,342.637 237.383,340.221 236.676,337.759C236.271,336.349 235.914,334.93 235.599,333.503C235.259,332.061 234.955,330.606 234.69,329.139C232.739,318.362 232.433,307.345 231.823,296.433C231.197,285.232 230.325,274.034 229.876,262.824C229.087,243.121 231.518,224.666 238.375,206.502C241.838,197.002 246.297,187.919 250.981,178.969C254.153,172.908 257.338,166.843 260.94,161.039C264.94,153.24 269.185,145.347 274.602,138.725C276.8,136.037 279.699,133.389 282.868,131.756C283.486,131.421 284.097,131.152 284.699,130.943C288.447,129.548 292.445,129.747 296.035,133.031C299.749,136.427 302.312,141.281 305.062,145.435C308.266,150.276 311.408,155.161 314.37,160.154C320.071,169.766 325.208,179.802 328.638,190.465C335.26,211.055 334.125,233.378 334.409,254.753C334.699,276.689 334.909,298.953 331.273,320.659C330.944,322.623 330.58,324.587 330.178,326.544C330.106,326.934 330.032,327.324 329.957,327.713C328.176,336.888 325.505,345.9 321.462,354.344C318.159,361.768 314.069,368.819 309.042,375.256C306.355,378.696 303.073,382.227 299.428,385.274C294.987,390.094 289.779,394.247 282.89,394.238C282.724,394.238 282.559,394.236 282.395,394.231C282.411,398.625 282.431,403.017 282.454,407.41C282.477,411.75 277.863,411.898 277.789,407.612C277.756,407.369 277.744,407.102 277.758,406.812C277.767,406.629 277.775,406.446 277.784,406.26C277.77,402.066 277.751,397.872 277.732,393.679ZM38.476,389.801C37.593,390.366 36.792,391.134 36.046,392.015C35.954,392.139 35.861,392.26 35.768,392.379C35.487,392.738 35.208,393.098 34.93,393.46C33.958,394.821 33.063,396.317 32.171,397.715C31.511,398.75 30.85,399.785 30.191,400.82C31.219,402.018 32.124,403.338 33.025,404.602C34.432,406.574 35.837,408.548 37.242,410.522C37.315,409.364 37.391,408.214 37.47,407.063C37.772,401.311 38.108,395.557 38.476,389.801ZM41.934,388.779C41.815,390.497 41.702,392.216 41.596,393.935C41.424,398.856 41.285,403.779 41.168,408.7C42.933,406.606 44.722,404.537 46.569,402.507C48.322,400.579 50.087,398.392 52.105,396.642C50.576,394.83 48.913,393.135 47.081,391.608C46.19,390.867 45.077,389.871 43.931,389.116C43.226,388.897 42.562,388.79 41.934,388.779ZM656.129,341.745C656.185,345.248 656.285,348.751 656.439,352.247C656.648,354.047 656.891,355.84 657.168,357.625C657.924,362.489 658.512,367.341 659.044,372.201C664.883,378.409 672.894,383.175 679.567,388.24C686.6,393.58 694.261,398.621 700.93,404.489C701.088,395.429 701.241,386.368 701.392,377.308C693.5,371.659 686.089,365.208 678.482,359.216C671.053,353.363 663.6,347.541 656.129,341.745ZM751.95,341.87C744.563,348.102 736.736,353.924 728.896,359.548C721.849,364.601 714.404,370.467 706.476,374.304C706.392,379.791 706.307,385.275 706.219,390.758C706.245,394.018 706.272,397.278 706.301,400.536C713.506,394.201 721.22,388.357 728.5,382.138C732.85,378.424 737.141,374.643 741.389,370.812C744.193,368.283 746.985,365.06 750.157,362.804C750.618,358.335 751.075,353.866 751.506,349.395C751.678,346.886 751.824,344.377 751.95,341.87ZM320.831,342.054C308.33,352.705 295.961,363.835 282.699,373.448C282.625,378.018 282.531,382.588 282.412,387.157C289.517,386.322 296.394,380.88 302.079,374.515C304.87,371.006 307.411,367.318 309.757,364.075C310.944,362.434 312.061,360.763 313.111,359.067L313.39,358.577C316.373,353.279 318.823,347.744 320.831,342.054ZM243.558,342.899C246.496,350.07 250.444,356.803 254.714,363.26C257.969,368.182 261.389,374.078 265.527,378.855C265.786,379.134 266.047,379.411 266.311,379.685C269.42,382.916 273.193,385.595 277.237,386.905C277.392,386.939 277.548,386.972 277.704,387.001C277.683,381.803 277.668,376.605 277.671,371.408C274.887,369.023 272.402,366.135 269.716,363.707C266.41,360.72 262.966,357.888 259.397,355.221C253.955,351.15 248.632,347.268 243.558,342.899ZM656.442,313.387C656.437,313.544 656.432,313.701 656.427,313.858C656.176,322.004 656.019,330.257 656.089,338.519C663.865,344.576 671.62,350.662 679.35,356.78C686.704,362.601 694.372,368.24 701.44,374.453C701.565,366.923 701.688,359.39 701.81,351.856C698.109,349.938 694.713,345.486 691.851,342.854C688.04,339.348 684.175,335.9 680.249,332.522C672.554,325.9 664.661,319.369 656.442,313.387ZM753.183,305.899C745.568,312.8 737.925,319.669 730.277,326.535C722.656,333.375 715.122,340.973 706.869,347.177C706.76,355.043 706.647,362.907 706.529,370.77C713.555,365.557 721.361,361.176 728.453,356.116C736.484,350.387 744.155,344.19 752.114,338.37C752.147,337.6 752.179,336.831 752.209,336.062C752.601,326.11 753.065,316.002 753.183,305.899ZM327.721,311.994C321.324,318.375 313.616,323.439 306.355,328.746C301.669,332.171 296.978,335.587 292.272,338.985C289.355,341.091 286.255,344.006 282.914,345.769C282.911,349.46 282.9,353.15 282.878,356.839C282.854,360.966 282.815,365.092 282.761,369.219C295.395,357.644 309.32,347.235 322.649,336.474C325.039,328.494 326.648,320.265 327.721,311.994ZM238.239,319.238C238.796,325.766 239.785,332.222 241.906,338.497C247.799,344.024 254.55,348.388 260.997,353.264C266.575,357.483 273.008,362.274 277.676,367.902C277.691,361.037 277.742,354.174 277.855,347.315L277.866,346.651L277.881,345.766C270.678,343.717 263.498,337.152 257.758,332.763C251.344,327.857 245.003,323.204 238.213,318.927L238.239,319.238ZM659.68,287.55C658.917,290.963 658.296,294.431 657.839,297.959C657.406,301.298 657.014,304.664 656.674,308.049C656.633,308.807 656.595,309.564 656.561,310.322C665.119,316.922 673.657,323.483 681.861,330.535C686.247,334.305 690.567,338.153 694.793,342.102C697.155,344.307 699.85,346.461 701.852,349.053C701.858,340.094 701.887,331.135 701.946,322.172C694.082,316.161 686.899,309.049 679.516,302.504C673.28,296.978 666.026,292.846 659.68,287.55ZM277.964,340.676L277.948,341.733L277.923,343.264L277.925,343.266L278.412,315.284L278.337,315.228L278.248,321.734L278.236,322.524L278.223,323.482L278.145,328.926L278.136,329.507L278.128,330.058L278.074,333.691L278.053,335.078L278.049,335.336L278.047,335.433L278.044,335.659L277.996,338.689L277.964,340.676ZM278.236,322.524L278.337,315.228C276.98,314.196 275.977,312.83 274.632,311.738C272.746,310.205 270.53,309.06 268.451,307.814C264.532,305.466 260.627,303.094 256.722,300.722C250.353,296.852 242.783,293.256 236.705,288.648C237.003,295.243 237.303,301.838 237.597,308.433C237.701,310.773 237.812,313.113 237.96,315.447C244.696,318.874 250.772,323.801 256.689,328.4C260.112,331.059 263.519,333.738 267.059,336.243C270.551,338.713 274.538,340.652 277.922,343.264L277.964,340.676L278.044,335.659L278.049,335.336L278.074,333.691L278.136,329.507L278.236,322.524ZM752.699,283.448C744.92,289.997 737.011,296.387 729.03,302.688C724.626,306.164 720.2,309.613 715.666,312.916C713.008,314.852 710.212,317.233 707.236,318.953C707.137,327.043 707.033,335.134 706.923,343.225C713.953,336.392 721.843,330.216 729.143,323.783C737.222,316.664 745.231,309.468 753.209,302.239C753.227,295.953 753.09,289.676 752.699,283.448ZM329.194,286.145C326.434,289.926 321.663,292.779 317.949,295.377C314.028,298.12 309.955,300.608 305.725,302.846C300.976,305.361 295.962,307.243 291.157,309.619C288.605,310.88 285.736,314.388 282.782,315.598C282.852,324.376 282.905,333.155 282.913,341.934C285.701,339.562 288.966,337.596 291.844,335.48C296.262,332.231 300.696,329.005 305.134,325.782C313.078,320.012 321.141,314.438 328.197,307.594C328.799,300.467 329.071,293.309 329.194,286.145ZM668.811,260.342C665.324,268.318 662.374,276.485 660.286,284.968C663.304,287.434 666.723,289.328 669.985,291.494C673.731,293.981 677.087,296.913 680.446,299.891C687.597,306.231 695.175,312.349 701.966,319.12C702.029,310.476 702.12,301.832 702.245,293.191C696.947,287.409 691.713,281.591 686.111,276.091C680.661,270.743 673.882,266.062 668.811,260.342ZM749.073,260.054C746.886,262.837 740.522,267.351 739.188,268.458C735.348,271.646 731.393,274.694 727.334,277.598C723.459,280.37 719.497,283.024 715.423,285.494C712.706,287.142 710.192,289.201 707.557,290.977C707.471,298.996 707.38,307.014 707.284,315.029C710.278,312.574 713.655,310.428 716.656,308.191C720.638,305.222 724.644,302.285 728.598,299.277C736.727,293.093 744.647,286.636 752.46,280.057C752.347,278.625 752.22,277.193 752.077,275.765L752.047,275.473C751.306,270.291 750.319,265.136 749.073,260.054ZM278.602,295.167L278.493,303.467C278.493,303.467 278.443,307.293 278.443,307.293C278.422,308.921 278.4,310.548 278.378,312.175C278.407,312.225 278.435,312.275 278.463,312.325L278.843,290.484C278.784,290.42 278.725,290.357 278.665,290.293L278.602,295.167ZM278.602,295.167L278.665,290.293C275.189,286.6 270.663,283.936 267.049,280.344C263.207,276.525 259.448,272.79 255.168,269.449C248.585,264.311 241.67,259.673 235.693,253.889C235.583,262.552 235.922,271.24 236.309,279.876C236.394,281.772 236.479,283.668 236.565,285.563C240.815,287.473 244.859,290.478 248.786,292.825C253.26,295.498 257.729,298.18 262.201,300.857C266.639,303.514 275.347,306.953 278.378,312.175L278.493,303.467C278.493,303.467 278.579,296.88 278.579,296.88L278.602,295.167ZM329.316,257.582C323.265,263.947 315.43,268.835 308.032,273.392C299.502,278.648 291.367,284.763 282.781,289.877C282.735,293.659 282.694,297.441 282.656,301.223L282.678,303.623C282.704,306.45 282.729,309.278 282.753,312.106C288.728,306.715 296.339,304.051 303.484,300.309C308.545,297.658 313.471,294.683 318.178,291.446C321.525,289.143 325.319,284.924 329.23,283.686C329.339,275.063 329.262,266.435 329.314,257.844L329.316,257.582ZM676.008,245.367C673.836,249.556 671.76,253.777 669.831,258.048C676.475,261.695 682.504,268.63 687.78,273.846C692.884,278.891 697.818,284.156 702.297,289.774C702.402,283.004 702.529,276.235 702.68,269.465C693.15,262.153 685.923,252.081 676.008,245.367ZM742.073,240.326C736.333,245.208 730.402,249.868 724.372,254.383C718.896,258.483 712.94,262.08 707.799,266.602C707.736,273.468 707.668,280.334 707.597,287.203C709.57,285.46 711.926,284.063 714.098,282.675C719.147,279.449 724.174,276.222 729.008,272.677C733.5,269.383 737.857,265.905 742.066,262.255C743.597,260.927 745.864,257.853 748.159,256.514C748.034,256.053 747.907,255.594 747.778,255.136C746.198,250.092 744.271,245.149 742.073,240.326ZM279.076,260.957C278.952,269.01 278.841,277.063 278.734,285.112L278.709,286.954C278.774,287.024 278.838,287.096 278.901,287.168L279.353,261.146C279.261,261.083 279.168,261.02 279.076,260.957ZM237.927,227.162C236.589,234.907 235.966,242.746 235.757,250.615C242.865,257.741 251.571,262.954 259.299,269.395C263.749,273.103 267.465,277.575 271.886,281.303C274.199,283.254 276.76,284.812 278.709,286.954L278.734,285.112C278.693,276.981 278.683,268.85 278.734,260.721C271.5,255.686 265.144,248.699 258.416,243.075C251.765,237.515 244.942,232.237 237.927,227.162ZM329.257,228.728C321.593,234.813 313.56,240.444 305.489,245.966C301.459,248.722 297.4,251.435 293.312,254.102C290.22,256.119 286.822,259.031 283.212,260.384C283.061,269.099 282.931,277.813 282.822,286.527C289.472,280.574 297.681,275.984 305.235,271.417C313.849,266.208 321.82,260.833 329.346,254.19C329.396,249.629 329.475,245.071 329.492,240.52C329.431,236.58 329.376,232.647 329.257,228.728ZM1000,241.904C997.225,245.921 994.182,249.751 990.872,253.339C986.647,257.921 981.45,263.29 975.255,264.599L975.225,266.385C975.619,270.549 975.523,274.726 974.962,278.942C974.431,282.939 970.607,281.885 970.171,278.726C969.192,278.435 968.401,277.344 968.508,275.42C968.707,271.834 968.906,268.246 969.103,264.659C967.114,264.446 965.096,263.897 963.073,262.979C958.399,260.857 954.688,257.407 951.477,253.481C949.78,251.871 948.223,250.229 946.858,248.654C940.66,241.499 936.787,232.15 932.846,223.634C928.561,214.377 925.08,204.827 923.43,194.731C921.682,184.049 921.157,173.117 920.635,162.319C920.072,150.665 919.915,138.937 920.572,127.27C920.554,126.301 920.538,125.333 920.526,124.366C920.321,108.036 923.586,92.833 929.561,78.128C934.102,64.68 940.285,51.888 947.618,39.541C951.377,33.214 955.355,27.017 959.4,20.867C960.391,19.299 961.409,17.751 962.462,16.232C963.417,14.792 964.373,13.355 965.328,11.918C966.913,9.535 968.523,6.871 970.451,4.775C970.597,4.041 970.91,3.396 971.417,2.988C978.874,-3.008 988.257,0.785 993.656,7.605C996.063,10.645 998.133,14.068 1000,17.656L1000,31.126L999.71,30.517C996.636,34.45 992.815,37.911 989.414,41.525C985.783,45.385 982.286,49.797 978.259,53.327C978.208,56.936 978.154,60.547 978.101,64.158C978.052,67.521 978.003,70.884 977.954,74.249C982.04,69.674 986.687,65.488 990.997,61.195C993.989,58.213 996.993,55.244 1000,52.277L1000,56.433C997.651,58.801 995.299,61.166 992.941,63.524C988.05,68.416 983.279,73.897 977.896,78.328C977.795,85.386 977.696,92.444 977.599,99.502C983.479,94.795 989.897,90.532 995.978,86.146C997.312,85.183 998.654,84.23 1000,83.284L1000,86.974C998.561,88.024 997.131,89.085 995.707,90.158C989.92,94.516 984.076,99.698 977.551,103.026C977.447,110.613 977.345,118.201 977.244,125.787L977.242,126.572C983.568,120.247 990.592,114.68 997.665,109.211C998.444,108.608 999.223,108.005 1000,107.399L1000,111.326L999.557,111.668C991.868,117.651 984.708,124.178 977.231,130.384C977.204,138.511 977.148,146.638 977.061,154.764C984.002,148.252 991.573,142.291 998.611,135.917L1000,134.658L1000,138.103C991.128,146.001 981.764,154.115 977.025,157.995C976.934,165.86 976.814,173.726 976.665,181.59C984.014,175.777 991.656,170.306 999.185,164.735L1000,164.133L1000,167.82L999.574,168.136C991.961,173.835 984.419,179.677 976.597,185.094C976.485,190.659 976.359,196.224 976.217,201.788C976.171,205.051 976.125,208.314 976.077,211.574C982.895,205.137 990.385,199.211 997.591,193.29C998.383,192.64 999.188,192.007 1000,191.387L1000,195.339C999.854,195.456 999.708,195.574 999.563,195.693C991.66,202.18 984.215,209.413 976.02,215.548C975.898,223.94 975.772,232.33 975.641,240.719C981.861,234.527 988.979,229.249 994.815,222.632C996.508,220.713 998.2,218.909 1000,217.193L1000,220.74C999.338,221.362 998.698,222.003 998.094,222.672C991.245,230.257 983.852,237.999 975.588,244.143C975.521,248.362 975.454,252.581 975.385,256.801C977.124,256.384 978.883,255.557 980.653,254.216C982.692,252.672 984.637,250.974 986.489,249.152C988.889,246.48 991.022,243.583 992.932,241.082C995.446,237.79 997.805,234.386 1000,230.883L1000,241.904ZM685.929,227.144C684.297,230.084 682.667,233.024 681.045,235.968C679.781,238.264 678.534,240.564 677.315,242.87C682.278,246.373 686.275,250.862 690.562,255.152C694.467,259.06 698.645,262.64 702.753,266.314C702.884,260.725 703.033,255.138 703.2,249.551C697.083,242.565 690.862,234.943 685.929,227.144ZM730.841,219.854C727.376,224.217 722.699,227.904 718.83,231.843C715.366,235.368 712.014,239.793 708.072,242.983C708.003,246.283 707.948,249.576 707.92,252.861C707.892,256.188 707.864,259.516 707.834,262.838C711.884,258.498 717.823,255.388 722.41,252.015C728.681,247.406 734.785,242.591 740.859,237.729C737.896,231.554 734.504,225.583 730.841,219.854ZM279.59,231.83C279.411,240.606 279.257,249.383 279.119,258.155C279.213,258.263 279.307,258.37 279.4,258.478L279.858,232.144C279.769,232.039 279.68,231.935 279.59,231.83ZM246.57,199.011C244.558,203.57 242.747,208.213 241.284,212.98C240.183,216.565 239.283,220.18 238.552,223.819C245.795,229.493 252.971,235.275 260.028,241.175C266.246,246.375 273.264,251.604 278.755,257.744C278.807,251.502 278.897,245.262 279.04,239.022C279.098,236.486 279.162,233.95 279.231,231.412C274.069,225.418 268.513,219.625 263,213.99C257.806,208.681 251.73,204.327 246.57,199.011ZM327.174,207.542C321.376,212.983 314.53,216.901 307.617,220.819C299.697,225.311 291.827,229.948 283.734,234.133C283.564,241.694 283.411,249.255 283.275,256.813C285.909,254.719 289.083,253.103 291.829,251.315C296.54,248.246 301.213,245.117 305.843,241.925C313.694,236.515 321.348,230.832 329.136,225.335C329.086,224.138 329.029,222.942 328.961,221.749C328.612,216.991 328.052,212.254 327.174,207.542ZM937.865,221.463C938.638,223.089 939.424,224.706 940.213,226.317C943.768,232.849 947.844,239.103 952.122,245.034C952.355,245.356 952.593,245.679 952.836,246.002C953.652,246.813 954.514,247.598 955.43,248.356C959.737,251.919 964.508,255.646 969.531,256.784C969.731,253.054 969.927,249.324 970.116,245.593C963.389,240.748 956.871,235.584 950.049,230.831C945.854,227.909 941.689,224.868 937.865,221.463ZM694.074,212.656C693.474,213.739 693.003,214.659 692.695,215.321C692.422,215.909 692.116,216.313 691.797,216.565C690.25,219.364 688.698,222.16 687.145,224.956C692.976,231.33 698.288,238.736 703.312,245.906C703.496,240.035 703.701,234.162 703.93,228.291C703.945,226.315 703.959,224.338 703.976,222.36C700.605,219.202 697.329,215.935 694.074,212.656ZM928.01,189.987C928.263,192.004 928.569,194.015 928.943,196.016C929.611,199.583 930.516,203.097 931.621,206.555C932.612,209.459 933.75,212.315 934.975,215.137C940.43,220.603 946.565,225.139 952.962,229.57C958.747,233.577 965.21,237.476 970.269,242.526C970.584,236.164 970.876,229.799 971.133,223.434C971.155,222.176 971.176,220.917 971.196,219.657C964.189,214.854 957.507,209.49 950.413,204.787C942.982,199.861 935.276,195.181 928.01,189.987ZM0,17.656C2.471,22.402 4.589,27.438 6.668,32.264L6.8,32.535C8.633,36.312 10.289,40.143 11.785,44.023C15.41,52.745 18.525,61.687 20.611,70.905C23.358,83.039 24.252,95.529 24.722,107.932C25.212,120.882 25.596,134.083 25.278,147.256C25.249,150.444 25.207,153.625 25.159,156.793C24.866,176.262 22.156,195.202 14.848,213.353C13.404,216.939 11.803,220.574 10.042,224.189C9.076,226.277 8.052,228.349 6.967,230.402C4.873,234.366 2.55,238.214 0,241.904L0,230.883C1.335,228.754 2.609,226.588 3.822,224.388C5.649,220.741 7.275,217.06 8.707,213.447C8.755,213.327 8.802,213.207 8.849,213.089C6.076,215.776 2.824,218.089 0,220.74L0,217.193C1.178,216.07 2.402,214.984 3.702,213.927C6.646,211.534 9.473,209.231 11.403,206.042C14.025,198.157 15.956,190.079 17.353,181.881C12.331,187.086 5.562,190.865 0,195.339L0,191.387C6.112,186.721 12.702,182.761 18.084,177.249C19.335,168.665 20.037,159.966 20.366,151.242C14.766,157.717 6.791,162.775 0,167.82L0,164.133C3.812,161.316 7.633,158.507 11.336,155.545C14.427,153.073 17.25,150.18 20.474,147.894C20.734,138.339 20.575,128.76 20.229,119.274C17.726,122.088 9.124,129.981 0,138.103L0,134.658C3.754,131.25 7.487,127.818 11.157,124.319C13.667,121.928 16.874,117.436 20.09,115.694C19.975,112.914 19.847,110.137 19.711,107.373C19.422,103.066 19.051,98.767 18.576,94.486C14.378,101.229 6.046,106.671 0,111.326L0,107.399C3.198,104.907 6.366,102.375 9.39,99.674C12.32,97.057 14.945,93.307 18.169,91.027C17.537,85.947 16.751,80.894 15.776,75.886C13.045,78.337 9.619,80.193 6.626,82.263C4.396,83.805 2.189,85.376 0,86.974L0,83.284C2.353,81.63 4.721,79.996 7.091,78.367C9.7,76.574 12.299,74.336 15.193,72.999C14.441,69.418 13.589,65.861 12.624,62.334C11.23,57.726 9.617,53.151 7.774,48.592C5.182,51.205 2.593,53.82 0,56.433L0,52.277C2.2,50.106 4.402,47.936 6.601,45.765C6.496,45.517 6.39,45.27 6.283,45.022C4.276,40.364 2.181,35.723 0,31.126L0,17.656ZM721.139,205.8C718.615,208.805 716.13,211.841 713.616,214.854C712.263,216.475 710.6,219.335 708.582,220.675C708.472,226.846 708.3,233.019 708.156,239.18C711.05,235.601 714.618,232.372 717.741,229.197C721.381,225.494 725.117,220.794 729.477,217.725C727.105,214.035 724.58,210.2 721.842,206.569C721.609,206.312 721.374,206.055 721.139,205.8ZM319.49,182.687C313.531,187.86 306.978,192.153 300.555,196.739C296.984,199.289 293.475,201.924 290.164,204.805C288.264,206.459 286.503,208.222 284.353,209.434C284.156,216.541 283.976,223.648 283.811,230.757C297.997,222.183 314.308,215.42 326.473,204.101C326.071,202.285 325.618,200.474 325.107,198.668C323.567,193.224 321.665,187.902 319.49,182.687ZM280.133,208.577C279.962,215.002 279.81,221.428 279.673,227.855C279.758,227.953 279.843,228.052 279.928,228.15L280.266,208.705L280.133,208.577ZM254.806,182.165C254.576,182.609 254.346,183.053 254.117,183.498C251.849,187.891 249.612,192.321 247.551,196.829C250.877,200.295 254.684,203.23 258.358,206.34C262.44,209.797 266.149,213.598 269.809,217.491C272.917,220.797 276.314,224.027 279.342,227.475C279.527,221.128 279.744,214.781 279.987,208.436C275.605,204.192 271.379,199.785 267.167,195.374C263.075,191.09 258.501,186.859 254.806,182.165ZM704.003,219.651C704.078,212.617 704.218,205.583 704.594,198.583C701.098,201.634 697.666,206.586 695.317,210.504C698.247,213.518 701.162,216.552 704.003,219.651ZM926.194,155.613C926.298,158.387 926.402,161.159 926.503,163.932C926.78,171.484 926.897,179.093 927.636,186.627C935.454,191.334 942.922,196.75 950.512,201.799C957.388,206.374 965.032,210.882 971.246,216.551L971.249,216.313C971.388,207.197 971.514,198.081 971.632,188.966C963.218,183.007 954.858,176.97 946.494,170.938C939.814,166.12 932.035,161.632 926.194,155.613ZM719.356,203.921C716.557,201.045 713.568,198.319 710.384,195.764C709.766,195.759 709.129,195.883 708.481,196.116C708.717,202.857 708.732,209.627 708.647,216.405C709.845,214.859 711.289,213.431 712.459,212.045C714.751,209.331 717.066,206.637 719.356,203.921ZM280.456,197.18C280.373,199.947 280.293,202.715 280.216,205.482L280.208,205.778L280.315,205.889L280.481,196.366L280.456,197.18ZM309.298,162.119C305.529,166.313 300.761,169.855 296.598,173.636C292.793,177.093 289.046,180.637 285.144,183.99C285.014,187.625 284.89,191.259 284.778,194.892C284.666,198.531 284.558,202.171 284.454,205.806C289.671,201.619 294.478,196.968 299.971,193.072C306.117,188.711 312.431,184.583 318.249,179.788C315.937,174.521 313.361,169.364 310.615,164.3C310.36,163.873 310.104,163.449 309.847,163.025C309.664,162.724 309.481,162.422 309.298,162.119ZM263.896,166.33C262.4,168.894 260.884,171.446 259.316,173.966C259.134,174.258 258.951,174.479 258.771,174.637C257.804,176.436 256.85,178.242 255.905,180.053C260.428,184.257 264.393,189.352 268.627,193.805C272.415,197.79 276.281,201.7 280.095,205.661C280.218,202.561 280.346,199.464 280.481,196.366L280.481,196.349C280.578,193.183 280.68,190.017 280.787,186.85C275.801,179.608 269.528,173.093 263.896,166.33ZM925.751,124.772C925.572,127.35 925.435,129.93 925.334,132.51C925.565,139.001 925.811,145.491 926.057,151.983C932.234,159.098 941.502,164.191 949.003,169.606C956.574,175.071 964.143,180.536 971.669,186.062C971.762,178.798 971.851,171.534 971.939,164.269C956.16,151.586 941.253,137.793 925.751,124.772ZM272.753,151.209C270.128,155.507 267.633,159.885 265.108,164.244C268.808,168.549 272.424,172.926 276.059,177.287C277.628,179.167 279.408,181.028 280.919,183.04C281.198,175.163 281.513,167.29 281.872,159.423C281.136,158.764 280.385,158.174 280.121,157.931C279.142,157.026 278.162,156.121 277.183,155.216C275.795,153.933 274.093,152.669 272.753,151.209ZM299.392,146.337C297.487,149.449 294.405,152.056 291.923,154.671C290.455,156.217 288.967,157.742 287.477,159.268C286.959,159.798 286.497,160.347 286.01,160.845C285.771,167.347 285.516,173.849 285.276,180.352C288.779,176.838 292.464,173.495 296.135,170.168C299.928,166.731 303.662,162.751 307.918,159.831C305.195,155.311 302.414,150.695 299.392,146.337ZM929.382,98.248C928.138,104.033 927.19,109.916 926.538,115.903C926.341,117.722 926.166,119.541 926.013,121.363C941.211,134.767 957.214,147.385 971.975,161.274C972.079,152.56 972.183,143.845 972.29,135.128C959.027,121.589 943.387,110.962 929.382,98.248ZM298.055,144.449C297.173,143.232 296.27,142.039 295.342,140.881C292.622,137.485 289.645,136.729 286.747,137.473C286.595,143.793 286.393,150.113 286.169,156.432C287.531,154.981 289.036,153.628 290.307,152.289C292.653,149.816 295.108,146.391 298.055,144.449ZM282.889,139.305C279.343,141.712 276.183,145.75 274.127,148.99C274.726,149.538 275.286,150.146 275.867,150.685C277.09,151.82 278.313,152.954 279.536,154.089C280.369,154.862 281.213,155.612 282.012,156.395C282.28,150.7 282.571,145.002 282.889,139.305ZM580.109,0C579.911,9.733 579.452,19.478 578.653,29.128C578.548,37.295 578.38,45.576 576.437,53.459C575.163,58.628 573.023,63.442 570.605,68.133C567.369,76.707 563.235,84.97 558.411,92.982C558.032,93.612 557.64,94.27 557.237,94.949C553.042,103.878 548.162,112.581 540.329,117.741C536.473,121.068 532.167,123.388 527.382,123.764C528.464,129.342 528.194,134.742 526.773,140.303C525.835,143.975 522.286,141.222 522.327,138.595C522.404,133.749 522.477,128.904 522.547,124.056C522.517,123.857 522.501,123.662 522.498,123.47C521.869,123.346 521.233,123.188 520.589,122.994C515.637,121.503 511.031,117.971 506.974,114.077C501.025,108.986 496.118,102.261 492.671,96.176C489.737,90.997 487.354,85.568 485.386,79.982C476.728,63.3 475.487,43.667 473.863,25.16C473.136,16.871 472.562,8.447 472.326,0L477.797,0C477.833,1.033 477.875,2.066 477.922,3.098C478.078,6.496 478.287,9.903 478.545,13.312C494.011,23.345 509.752,33.961 523.587,46.163C523.695,38.171 523.804,30.18 523.914,22.186C515.915,16.446 508.49,9.58 500.922,3.348C499.56,2.227 498.169,1.113 496.762,0L500.53,0C500.935,0.347 501.34,0.692 501.745,1.033C509.084,7.216 516.92,13.172 523.947,19.775L524.22,0L529.103,0C529.097,4.06 529.087,8.121 529.071,12.181C533.931,7.963 539.061,4.019 544.109,0L548.284,0C542.107,5.285 535.823,10.706 529.059,15.192C529.039,19.732 529.012,24.272 528.976,28.811C528.947,32.478 528.91,36.145 528.866,39.816C531.586,37.684 534.352,35.608 537.27,33.75C542.05,30.707 547.214,28.407 551.756,24.984C559.565,19.101 566.007,10.896 574.174,5.544L574.33,0L580.109,0ZM936.283,74.66C933.758,81.427 931.673,88.322 930.03,95.36C938.554,101.634 946.536,108.836 954.695,115.563C960.765,120.567 967.278,125.582 972.332,131.722C972.438,123.143 972.549,114.563 972.668,105.985C970.558,103.881 968.552,101.665 966.281,99.698C962.989,96.846 959.712,93.976 956.42,91.125C949.978,85.545 942.327,80.674 936.283,74.66ZM561.394,72.991C551.031,83.883 539.701,94.262 527.659,103.024C527.573,106.813 527.488,110.602 527.405,114.393C531.573,114.092 535.463,112.419 538.861,109.976C539.989,108.946 541.05,107.821 542.035,106.633C545.334,102.653 548.484,98.377 551.426,93.9C553.694,89.329 555.598,84.541 557.76,79.994C558.889,77.621 560.127,75.299 561.394,72.991ZM493.481,83.567C495.087,87.063 496.444,90.676 498.267,94.069L498.271,94.077C499.745,96.384 501.355,98.614 503.118,100.752C508.078,106.77 514.753,112.72 522.685,114.135L522.761,108.563L522.797,105.843C516.327,101.572 510.065,97.018 504.027,92.146C500.655,89.426 496.913,86.621 493.481,83.567ZM482.905,48.135C483.373,50.817 483.87,53.488 484.395,56.145C485.721,62.853 487.392,69.568 489.666,76.044C495.259,80.225 500.231,85.871 505.623,90.215C511.184,94.696 516.942,98.927 522.835,102.963C522.945,94.57 523.052,86.177 523.164,77.784C520.461,75.887 517.976,73.457 515.472,71.484C511.619,68.45 507.719,65.494 503.719,62.654C496.82,57.758 489.879,52.924 482.905,48.135ZM945.383,55.679C942.915,60.218 940.541,64.817 938.318,69.519C938.279,69.602 938.239,69.681 938.199,69.756C937.851,70.607 937.51,71.461 937.178,72.314C944.712,76.601 951.499,83.496 958.114,88.97C962.572,92.658 968.777,96.873 972.726,101.938C972.819,95.386 972.919,88.836 973.026,82.286L973.02,81.799C971.265,80.259 969.707,78.359 968.146,76.768C965.488,74.057 962.894,71.258 960.089,68.697C955.176,64.213 949.778,60.684 945.383,55.679ZM573.405,33.33C565.816,40.113 559.129,47.569 551.944,54.833C547.97,58.853 543.1,61.476 538.539,64.734C534.786,67.415 531.615,70.596 528.299,73.706C528.123,82.354 527.929,91.002 527.735,99.648C541.16,88.126 554.14,76.537 566.425,63.757C566.828,62.975 567.222,62.191 567.605,61.401C567.968,60.36 568.316,59.321 568.648,58.283C571.096,50.63 572.508,42.693 573.364,34.655C573.379,34.213 573.393,33.772 573.405,33.33ZM956.088,36.948C952.869,42.424 949.669,47.903 946.596,53.466C951.257,58.806 957.185,62.436 962.24,67.366C965.586,70.629 969.737,74.184 972.98,78.049C972.908,71.42 972.838,64.789 972.805,58.158C966.995,51.303 961.602,44.029 956.088,36.948ZM478.803,16.52C479.611,26.019 480.806,35.528 482.36,44.926C489.734,49.531 496.905,54.447 503.834,59.702C507.998,62.862 512.144,66.057 516.254,69.285C518.523,71.067 520.985,72.799 523.204,74.744C523.317,66.217 523.431,57.69 523.547,49.159C508.516,38.413 494.072,26.964 478.803,16.52ZM574.095,8.337C571.044,11.618 567.438,14.461 564.137,17.456C560.407,20.839 556.753,24.357 552.771,27.447C548.837,30.501 544.479,32.693 540.156,35.13C536.177,37.374 532.474,40.035 528.829,42.773C528.711,51.828 528.553,60.882 528.374,69.939C534.883,63.21 543.537,59.287 550.27,52.724C558.136,45.058 565.174,36.917 573.499,29.76C573.511,29.288 573.523,28.815 573.536,28.342C573.718,21.674 573.906,15.005 574.095,8.337ZM965.104,21.543C964.877,21.902 964.658,22.265 964.448,22.632C962.142,26.655 959.796,30.643 957.452,34.629C962.57,41.097 967.855,47.505 972.79,54.132C972.77,46.695 972.798,39.18 973.117,31.681C971.883,30.197 970.664,28.701 969.465,27.197C968.024,25.389 966.418,23.528 965.104,21.543ZM991.983,17.258C990.006,20.042 987.001,22.473 984.66,24.788C983.055,26.375 981.381,27.886 979.752,29.447C979.285,29.894 978.923,30.292 978.543,30.615C978.48,36.941 978.399,43.267 978.311,49.592C980.987,46.239 984.079,43.137 986.942,40.022C990.587,36.058 994.232,31.415 998.502,28.003C998.082,27.138 997.659,26.273 997.233,25.411C995.637,22.615 993.896,19.824 991.983,17.258ZM974.63,10.198C973.757,11.071 972.969,11.994 972.319,12.691C970.388,14.761 968.409,16.931 966.685,19.248C968.249,20.992 969.59,23.092 970.912,24.87C971.711,25.947 972.505,27.031 973.291,28.122C973.551,23.458 973.939,18.807 974.514,14.187L974.63,10.198ZM990.086,14.864C988.784,13.322 987.406,11.903 985.946,10.665C984.241,9.219 981.651,7.381 979.195,7.517C979.007,9.176 978.832,10.833 978.67,12.489C978.653,17.403 978.62,22.317 978.575,27.232C980.087,25.336 982.017,23.607 983.504,21.984C985.446,19.866 987.626,16.824 990.086,14.864Z" style="fill-rule:nonzero;"/>
</svg>
