<?xml version="1.0" encoding="UTF-8" standalone="no"?>
<!DOCTYPE svg PUBLIC "-//W3C//DTD SVG 1.1//EN" "http://www.w3.org/Graphics/SVG/1.1/DTD/svg11.dtd">
<svg width="100%" height="100%" viewBox="0 0 1000 1000" version="1.1" xmlns="http://www.w3.org/2000/svg" xmlns:xlink="http://www.w3.org/1999/xlink" xml:space="preserve" xmlns:serif="http://www.serif.com/" style="fill-rule:evenodd;clip-rule:evenodd;stroke-linejoin:round;stroke-miterlimit:2;">
    <path d="M453.874,1000C449.244,996.951 444.726,993.735 440.367,990.283C438.438,988.754 438.547,984.701 440.675,983.443C441.111,982.924 441.672,982.554 442.352,982.429C453.185,980.438 464.096,978.927 475.072,977.992C480.238,977.552 485.413,977.258 490.592,977.021C492.167,976.949 493.194,977.03 493.94,976.5C494.547,973.507 495.186,970.52 495.857,967.544L495.866,967.478C498.655,947.67 505.259,928.582 512.862,910.16C513.852,907.762 516.229,907.588 517.307,910.051C517.703,910.955 518.097,911.86 518.487,912.765C524.82,921.651 527.509,932.117 530.127,942.611C532.397,949.656 534.26,956.976 537.249,963.668C539.425,968.541 542.612,969.963 546.273,970.094C546.888,970.061 547.474,970.029 548.005,970.025L548.691,970.02C552.138,969.729 555.874,968.769 559.511,968.703C564.222,968.617 568.896,969.671 573.608,969.773C578.852,969.886 584.085,969.36 589.296,968.854C590.618,968.726 591.35,969.794 591.719,971.042C592.318,972.142 592.245,973.876 591.88,975.006C590.682,982.273 584.72,986.274 579.067,990.367C576.69,992.358 574.198,994.242 571.685,996.111C570.172,997.376 568.688,998.673 567.232,1000L557.475,1000C561.537,995.74 565.837,991.712 570.386,987.961C573.776,985.167 580.237,981.755 583.967,977.548C579.934,977.878 575.892,978.082 571.848,977.874C568.211,977.688 564.64,977.076 561.034,976.942L559.141,976.962L557.75,976.975C557.286,977.005 556.821,977.048 556.355,977.104C551.157,977.735 546.189,978.716 541.897,977.333C540.51,977.165 539.248,976.828 538.243,976.22C535.369,974.48 533.81,969.88 532.552,966.956C530.583,962.381 529.171,957.566 527.915,952.684C527.069,950.24 526.2,947.803 525.326,945.368C522.201,936.665 518.851,928.048 515.268,919.526C510.246,933.211 505.934,947.11 502.396,961.226C502.275,961.864 502.157,962.502 502.042,963.141C501.129,968.253 501.015,973.599 499.914,978.65C499.465,980.71 498.664,982.389 497.31,983.516C496.952,984.226 496.39,984.815 495.552,984.854L494.201,984.916C494.1,984.935 493.997,984.952 493.893,984.968C488.462,985.799 482.703,985.549 477.211,986.041C469.116,986.767 461.059,987.804 453.046,989.117C458.48,992.731 463.903,996.36 469.319,1000L453.874,1000ZM190.115,798.815C194.788,797.698 196.735,793.718 198.807,789.398C206.62,773.106 208.404,754.616 217.191,738.694C218.044,737.147 220.131,737.059 221.037,738.6C226.303,747.553 229.195,757.281 232.132,767.026C232.526,768.058 232.917,769.089 233.305,770.121C234.892,774.337 236.433,778.569 237.929,782.818C238.308,783.893 238.683,785.47 239.128,787.121C239.65,788.325 240.196,789.52 240.801,790.68C242.624,794.181 245.669,794.408 249.192,794.791C250.213,794.903 251.235,795.012 252.257,795.119L256.966,795.458C261.49,795.784 266.014,796.109 270.539,796.434L292.656,798.026C293.707,798.069 294.758,798.11 295.809,798.149C296.081,798.16 296.329,798.215 296.555,798.307L297.685,798.388C301.02,798.628 300.681,803.714 299.143,805.56C298.153,806.749 297.122,807.892 296.053,808.992C293.029,813.745 287.806,816.827 282.802,819.793C280.799,821.13 278.751,822.407 276.676,823.642C272.683,826.018 268.608,828.251 264.575,830.557C262.419,831.824 260.265,833.092 258.114,834.366C257.772,834.577 257.429,834.79 257.088,835.004C256.333,835.478 255.403,835.982 254.462,836.539L254.064,836.777C253.69,837.003 253.317,837.238 252.957,837.484C257.619,846.903 258.97,857.502 260.675,867.868C261.231,871.246 261.81,874.62 262.412,877.988C264.145,886.261 265.764,894.56 267.269,902.879C267.93,906.004 268.609,909.126 269.306,912.244C269.81,914.495 268.336,919.305 265.308,917.164C247.627,904.669 236.22,885.859 220.266,871.525C217.672,869.195 215.746,867.008 212.318,869.557C210.076,871.225 208.141,873.779 206.106,875.702C201.868,879.703 197.444,883.508 192.85,887.095C185.44,892.88 177.6,898.163 169.385,902.749C167.967,903.712 166.545,904.667 165.12,905.618C164.548,906 164.049,905.965 163.63,905.684C161.541,905.939 160.615,902.058 160.946,900.573C161.964,896.008 163.055,891.483 164.259,886.994C164.281,886.732 164.327,886.477 164.398,886.234C164.69,885.24 164.988,884.248 165.291,883.256C166.873,877.685 168.647,872.168 170.689,866.7C170.747,866.546 170.807,866.402 170.869,866.269C171.638,864.035 172.412,861.802 173.185,859.568C174.705,855.174 176.24,850.786 177.768,846.396C178.095,845.454 178.423,844.514 178.75,843.573C178.798,843.331 178.844,843.136 178.887,842.987C177.872,841.866 175.725,840.806 174.704,840.023C168.19,835.027 160.915,829.952 154.42,824.198C147.961,819.075 142.169,813.296 138.233,805.645C137.38,803.988 137.779,799.932 140.257,799.847C150.891,799.483 161.513,799.169 172.153,799.007C177.309,798.928 182.465,798.85 187.622,798.77C188.424,798.758 189.267,798.799 190.115,798.815ZM227.745,770.96C225.377,764.804 222.903,758.691 220.337,752.616C211.345,768.199 209.725,786.863 200.573,802.347C198.416,805.996 195.786,806.828 191.691,806.93L191.43,806.936C186.834,808.272 181.524,807.941 176.154,808.143C167.149,808.482 158.145,808.784 149.14,809.034C153.467,814.351 159.003,818.759 164.303,822.977C165.23,823.715 166.159,824.449 167.091,825.181C173.042,829.122 179.04,832.985 184.143,837.598C185.615,838.929 185.839,841.321 185.233,843.115C182.888,850.056 180.481,856.968 178.036,863.866C175.722,870.69 173.406,877.519 170.881,884.266C170.099,887.645 169.316,891.023 168.558,894.408C173.306,891.634 177.943,888.7 182.445,885.569C186.348,882.679 190.19,879.71 193.936,876.62C198.786,872.618 203.299,868.318 207.862,864.002C208.172,863.709 208.486,863.428 208.803,863.162L208.811,863.153C212.066,859.864 215.121,858.128 219.181,861.171C235.58,873.46 246.315,891.658 261.834,904.95C259.658,894.733 257.676,884.474 255.912,874.175C255.468,871.581 255.079,868.944 254.676,866.296C253.66,861.608 252.616,856.922 251.452,852.272C250.615,848.93 249.519,845.942 247.758,842.981C246.768,841.316 245.888,839.738 245.96,837.703C245.967,837.508 245.982,837.318 246.005,837.131C245.489,835.184 245.82,832.859 247.656,831.825C256.256,826.986 264.758,821.967 273.297,817.023C275.05,816.009 277.38,814.91 279.834,813.668C283.56,811.251 287.133,808.625 290.367,805.613C280.902,805.133 271.445,804.509 261.992,803.84C257.21,803.502 252.391,803.234 247.615,802.748C244.775,802.727 241.689,802.577 239.707,801.125C238.022,799.89 237.106,797.718 236.417,795.526C232.325,787.824 230.073,779.371 227.745,770.96ZM797.152,663.134C799.169,660.561 801.546,664.44 801.751,666.615C803.321,683.371 806.505,700.173 810.079,716.711C810.92,720.46 811.79,724.202 812.688,727.938C812.842,728.58 812.962,730.211 813.264,731.405C813.524,731.813 814.089,731.899 815.616,732.149C818.221,732.577 820.834,732.943 823.436,733.391C828.655,734.289 833.867,735.223 839.083,736.139C849.117,737.9 859.168,739.587 869.175,741.489C872.335,742.09 871.425,747.699 870.043,749.33C859.603,761.648 845.435,769.519 830.949,776.14C830.539,776.328 830.079,776.503 829.601,776.68C828.672,777.22 827.753,777.776 826.852,778.359C824.095,780.14 824.135,781.061 824.216,784.238C824.349,789.453 824.481,794.667 824.612,799.881C824.881,810.636 825.151,821.391 825.421,832.146C825.466,833.923 824.241,836.912 822.269,836.345C821.818,836.345 821.323,836.174 820.792,835.774C813.077,829.979 806.175,823.432 799.898,816.106C796.774,812.458 793.826,808.665 790.998,804.785C790.166,803.646 789.346,802.496 788.536,801.34C788.43,801.189 788.336,801.048 788.252,800.918C787.98,800.534 787.71,800.149 787.441,799.762C787.13,799.528 786.715,799.605 785.612,799.899C783.115,800.567 780.741,803.254 778.76,804.848C769.986,811.909 761.262,819.039 752.43,826.027C745.369,831.615 738.005,836.845 729.209,839.242C725.869,840.152 725.054,835.296 725.859,832.993C727.68,827.783 729.567,822.63 731.657,817.547C731.688,817.252 731.755,816.977 731.861,816.734C738.931,800.58 745.998,784.506 752.167,767.991C741.783,762.249 731.574,756.178 721.564,749.801L709.159,743.677C706.276,742.255 705.681,736.073 708.937,734.656C710.659,733.907 712.396,733.259 714.149,732.699C718.076,731.044 722.272,730.34 726.548,730.059C730.566,729.566 734.641,729.356 738.761,729.288C744.626,729.192 750.82,729.528 756.915,729.317C757.882,729.223 758.847,729.114 759.811,728.988C764.694,728.354 770.379,727.712 774.269,724.483C776.662,721.364 777.902,716.733 779.257,713.449C781.414,708.223 783.378,702.92 785.217,697.576C786.517,693.799 787.754,690.001 788.95,686.19C790.265,680.297 791.759,674.413 794.158,668.896L795.256,665.148C795.628,663.878 796.356,663.261 797.152,663.134ZM803.806,716.163C802.944,711.672 802.156,707.185 801.276,702.841C799.77,695.412 798.366,687.964 797.065,680.499C796.784,681.473 796.503,682.447 796.219,683.421C794.566,689.579 793.326,695.851 791.742,702.129C789.344,711.632 785.878,722.874 779.396,730.47C779.176,730.728 778.95,730.977 778.717,731.219C777.871,732.598 776.875,733.839 775.64,734.79C772.177,737.457 766.896,737.796 762.544,738.134C757.512,738.854 752.344,738.928 747.972,739.085C744.17,739.222 739.986,739.029 735.729,738.954C731.09,739.135 726.466,739.51 721.934,740.357L739.016,748.988C743.165,751.085 747.313,753.18 751.461,755.276C754.482,756.802 758.84,758.048 760.225,761.499C761.587,764.893 759.762,768.235 758.456,771.299C757.063,774.571 755.661,777.838 754.242,781.099C750.386,790.971 746.208,800.748 741.542,810.25C739.462,816.032 737.386,821.815 735.301,827.595C738.577,826.053 741.683,824.242 744.674,822.243C748.214,819.697 751.612,816.905 755.027,814.159C756.893,812.659 758.751,811.138 760.604,809.609C768.751,802.485 776.764,795.116 786.058,789.72C786.973,789.189 788.087,789.918 788.583,790.666L788.842,791.054C789.742,791.619 790.6,792.513 791.462,793.692C794.463,797.799 797.37,801.947 800.565,805.909C802.795,808.674 805.12,811.372 807.555,813.965C811.137,817.592 814.894,821.055 818.821,824.371C818.417,815.493 818.291,806.594 818.251,797.717C818.225,792.179 818.165,786.62 818.426,781.086C818.577,777.869 818.935,774.462 821.396,772.097C823.815,769.772 827.513,768.574 830.706,767.266C836.249,764.211 842.121,761.635 847.646,758.613C852.379,755.757 856.865,752.534 860.863,748.757L857.639,748.207C849.238,746.83 840.852,745.375 832.459,743.974C826.974,743.058 821.489,742.162 816.027,741.113C812.156,740.371 809.673,739.769 808.332,735.772C806.246,729.553 804.93,722.856 803.806,716.163ZM503.707,460.37L511.921,445.709C513.374,443.118 515.978,445.257 516.335,447.359L517.458,453.963C520.006,462.81 521.639,471.85 522.788,481.019C523.321,485.277 523.779,489.543 524.223,493.81C524.755,496.931 525.29,500.052 525.827,503.173C526.493,507.046 526.589,511.766 527.949,515.444C529.437,519.468 533.222,519.687 536.908,520.836C540.433,521.936 543.934,523.124 547.415,524.373C550.095,525.145 552.759,525.971 555.398,526.874C561.069,528.814 566.572,531.14 571.796,533.988C574.82,535.191 578.162,536.358 580.733,538.155C583.803,540.3 585.583,545.54 582.189,548.331C579.597,550.465 574.997,551.531 571.941,553.014C571.357,553.298 570.774,553.584 570.192,553.874C566.83,555.771 563.474,557.676 560.125,559.595C559.025,560.225 557.738,560.86 556.374,561.53C554.965,562.396 553.568,563.281 552.184,564.184C548.515,566.578 545.076,568.13 544.169,572.687C543.862,574.224 543.633,575.802 543.463,577.405C543.49,591.754 544.407,606.124 544.532,620.474C544.617,621.326 544.707,622.177 544.8,623.027C545.001,624.866 543.151,628.523 540.954,626.56C525.377,612.649 509.016,599.67 491.881,587.726L491.023,588.572C490.939,588.626 490.855,588.681 490.771,588.738C484.624,594.776 478.693,601.015 472.956,607.424C468.091,613.8 463.291,620.22 457.452,625.699C456.11,627.364 454.779,629.038 453.458,630.72C450.816,634.084 448.583,629.518 448.92,626.892C451.14,609.624 452.885,592.205 456.069,575.084C456.093,574.957 456.119,574.835 456.148,574.72L457.337,566.352C457.419,566.207 457.48,566.077 457.521,565.961C442.856,557.801 426.12,549.982 415.207,537.147C413.967,535.689 413.976,531.524 416.15,530.783C417.621,530.281 419.096,529.79 420.574,529.308C425.038,526.874 429.983,525.685 435.084,524.937C439.686,523.663 444.316,522.488 448.973,521.415C454.736,520.087 460.621,519.21 466.359,517.804C467.216,517.594 468.016,517.338 468.767,517.035C470.176,516.018 471.515,514.833 472.771,513.449C476.9,508.898 479.705,503.204 482.688,497.881L489.384,485.931C490.781,483.212 492.203,480.507 493.682,477.834C496.932,471.959 500.277,466.139 503.707,460.37ZM519.59,497.886L517.449,485.183C515.86,475.75 514.217,466.326 512.595,456.897L494.807,488.641C492.44,492.866 490.193,497.346 487.821,501.779C485.341,506.818 482.743,511.779 479.671,516.344C477.844,519.059 475.718,520.984 473.369,522.407C462.54,531.822 447.666,530.352 434.083,532.917C430.854,533.843 427.638,534.817 424.436,535.836C433.719,545.04 446.916,549.552 457.559,556.966C458.341,557.511 459.011,558.069 459.582,558.638C460.217,558.988 460.849,559.339 461.474,559.693C463.165,560.65 463.757,562.753 463.445,564.606C461.213,577.849 459.131,591.14 457.317,604.462C456.927,607.506 456.523,610.548 456.117,613.59C455.951,614.902 455.788,616.212 455.629,617.523C466.432,604.381 478.043,591.935 490.224,580.044C491.009,579.277 491.944,579.413 492.774,579.981C493.386,580.399 493.996,580.819 494.605,581.24L494.72,581.304C496.216,582.151 497.646,583.214 499.044,584.34C510.699,592.572 521.993,601.284 532.892,610.48C534.856,611.96 536.824,613.435 538.796,614.903C538.242,607.938 537.955,600.954 537.976,593.96C537.995,587.467 537.607,579.893 538.539,573.033C538.564,571.236 538.726,569.452 539.225,567.744C539.924,565.348 541.327,563.443 543.095,561.842C546.666,558.162 552.017,555.6 556.002,553.198C561.902,549.643 567.982,546.424 574.212,543.511L573.332,542.977C572.648,542.753 572.053,542.555 571.655,542.384C568.782,541.152 565.895,539.954 562.995,538.789C557.771,536.693 552.506,534.708 547.2,532.833C545.047,532.072 542.868,531.367 540.687,530.667C536.435,529.713 532.1,528.588 528.657,526.377C526.942,525.468 525.627,524.307 524.651,522.671C524.235,522.1 523.858,521.487 523.523,520.826C521.348,516.531 521.001,511.623 520.496,506.915C520.174,503.908 519.882,500.898 519.59,497.886ZM1000,439.16L1000,447.972C996.223,449.96 992.098,451.364 987.812,452.512C985.703,453.241 983.584,453.94 981.457,454.611C975.389,456.523 969.246,458.084 963.079,459.641C960.83,460.209 958.563,460.793 956.373,461.55C967.313,466.523 978.395,470.894 989.629,475.082C993.068,475.981 996.526,476.81 1000,477.575L1000,501.86C998.615,508.037 997.183,514.201 995.666,520.349C994.872,528.067 993.98,535.799 992.889,543.49C995.432,541.665 997.78,539.53 1000,537.234L1000,546.546C996.867,549.557 993.44,552.227 989.427,554.212C986.874,555.474 985.683,551.032 986.074,549.369C987.586,542.947 987.677,536.701 988.38,530.195C989.002,524.444 990.247,518.627 991.332,512.935C992.741,505.545 994.57,498.33 996.453,491.105C996.853,489.248 997.255,487.393 997.659,485.537C979.628,481.254 962.333,474.599 945.515,466.886C942.895,465.684 942.824,461.212 944.682,459.356C952.683,451.366 964.828,450.497 975.2,447.527C981.241,445.797 987.214,443.828 993.101,441.632C995.251,440.83 997.675,440.094 1000,439.16ZM0,439.16C0.26,439.056 0.518,438.949 0.774,438.84C3.799,436.778 6.491,434.1 8.731,430.451C10.79,427.096 12.604,423.55 14.274,419.907C15.165,417.677 16.05,415.454 16.983,413.285L19.395,407.673C21.016,403.569 22.6,399.473 24.283,395.51C29.691,382.772 35.099,370.035 40.506,357.298C41.833,354.172 44.908,355.092 45.518,358.168C49.743,379.478 53.853,400.811 58.093,422.116C58.616,424.747 58.729,428.378 59.826,430.828C60.487,432.302 61.316,433.098 62.312,433.525C63.738,433.684 65.395,433.734 66.157,433.836C66.619,433.898 67.081,433.959 67.544,434.017L82.963,434.018C93.882,434.019 104.8,434.217 115.718,434.353C118.965,434.394 119.272,439.755 117.932,441.769C115.332,445.677 112.483,449.378 109.362,452.834C101.23,462.568 90.341,469.621 79.856,477.211C79.716,477.313 79.544,477.427 79.348,477.552C78.591,478.266 77.892,479.005 77.282,479.773C74.937,482.727 75.652,484.526 76.838,487.899L77.661,490.239C79.406,494.864 81.156,499.487 82.884,504.117C87.156,515.572 91.503,527.01 95.594,538.531C95.985,539.634 96.219,542.061 95.341,543.389C94.939,545.496 93.738,547.264 91.505,545.746C90.121,544.806 88.74,543.862 87.362,542.916C86.421,542.36 85.51,541.704 84.619,541.028C77.065,535.815 69.561,530.53 62.028,525.291C57.386,522.063 52.756,518.816 48.135,515.557C45.687,513.831 43.238,512.103 40.79,510.377C39.762,509.651 38.663,508.606 37.525,508.074C35.061,506.922 34.63,507.384 32.927,508.735C32.804,508.833 32.681,508.932 32.56,509.034C29.586,512.47 26.615,515.908 23.64,519.343C22.869,520.338 22.106,521.299 21.344,522.189C17.704,526.441 14.062,530.691 10.424,534.944C7.034,538.908 3.724,542.968 0,546.546L0,537.234C4.606,532.469 8.663,527.009 12.775,522.178C16.836,517.407 20.911,512.646 24.953,507.857C27.174,505.226 30.628,498.813 34.44,498.327C36.556,498.057 38.489,499.792 40.09,500.868C42.566,502.533 45.017,504.238 47.48,505.923C52.684,509.481 57.888,513.038 63.068,516.632C70.891,522.06 78.75,527.442 86.558,532.896C83.894,525.18 81.21,517.472 78.51,509.768C76.556,504.196 74.603,498.623 72.649,493.051C71.546,489.905 69.768,486.296 69.417,482.764C68.938,480.543 68.99,478.329 70.474,476.217C71.923,474.154 74.216,472.426 76.566,470.854C77.255,470.302 77.926,469.767 78.544,469.24C82.727,465.673 87.002,462.235 91.348,458.869C97.374,454.201 102.892,449.234 107.749,443.559C97.829,444.2 87.846,444.038 77.947,443.257C75.061,443.03 72.073,442.84 69.1,442.537C66.196,442.555 63.307,442.412 60.781,441.686C59.775,441.397 58.948,440.957 58.262,440.398C56.034,439.223 55.261,437.171 54.643,434.255C50.09,412.811 46.212,391.199 42.093,369.659C37.509,380.419 32.927,391.179 28.369,401.949C23.275,413.986 18.992,426.969 12.781,438.469C9.983,443.649 5.568,445.652 0.35,447.786L0,447.972L0,439.16ZM0,477.575C0.664,477.722 1.329,477.866 1.995,478.008C3.857,478.406 4.386,481.717 4.072,483.186C2.737,489.421 1.393,495.647 0,501.86L0,477.575ZM687.828,189.876L698.003,163.744C698.37,162.803 699.541,161.208 700.792,161.92C708.313,166.195 709.394,175.511 710.915,183.354C712.243,188.584 713.247,193.918 714.342,199.148C716.982,211.752 719.337,224.409 721.406,237.119C739.446,238.479 757.494,239.175 775.564,240.044C777.665,240.145 778.127,242.732 777.745,244.628C777.679,245.384 777.46,246.083 777.096,246.568C776.815,246.942 776.533,247.315 776.249,247.686C771.64,255.23 765.559,261.42 758.994,267.166C752.425,273.576 745.371,279.476 737.878,284.843C736.826,285.784 735.792,286.738 734.775,287.709C741.119,301.704 746.3,316.18 750.287,331.008C751.438,334.635 752.544,338.276 753.605,341.934C754.149,343.81 752.615,348.272 750.097,346.251C741.833,339.619 732.869,334.126 723.427,329.339C718.989,327.09 714.485,324.965 709.946,322.931C707.813,321.976 705.667,321.048 703.521,320.118C700.828,318.951 700.155,318.292 697.977,320.344C690.498,327.392 683.796,335.238 676.17,342.184C668.568,349.108 660.603,355.605 652.375,361.77C650.72,363.01 649.511,361.792 648.933,360.283C647.994,359.798 647.409,358.389 647.408,357.22C647.401,349.947 647.656,342.694 648.178,335.467C648.526,323.569 649.739,311.717 651.929,299.944C652.18,298.596 653.055,296.22 652.601,295.126C652.122,293.971 646.895,292.162 645.706,291.554C645.139,291.263 644.571,290.974 644.002,290.686C632.486,286.094 621.443,280.589 610.613,274.465C608.365,273.411 606.115,272.362 603.861,271.319C601.272,270.12 601.097,265.036 603.675,263.726C614.602,258.167 625.967,254.582 638.118,252.884C638.463,252.835 638.775,252.875 639.053,252.986C643.371,252.137 647.676,251.235 651.839,249.758C660.344,246.739 666.059,240.617 670.259,233.087C671.218,230.298 672.151,227.497 673.193,224.745C677.658,212.95 682.549,201.323 687.828,189.876ZM201.531,269.357C200.643,268.746 199.762,268.124 198.889,267.492C197.257,266.31 197.024,261.7 199.285,261.012C209.295,257.966 219.575,256.843 229.989,256.277C235.26,255.99 240.536,255.803 245.803,255.456C250.904,255.12 256.928,255.167 261.828,253.556C267.032,251.844 268.857,242.087 270.671,237.32C272.641,232.146 274.603,226.969 276.581,221.799C280.529,211.479 284.316,201.071 288.512,190.85C289.376,188.747 291.753,188.344 292.625,190.749C292.802,191.237 292.977,191.725 293.15,192.216C293.195,192.298 293.237,192.384 293.278,192.472C301.558,210.536 302.995,230.278 306.653,249.552C307.109,251.953 307.307,255.026 308.276,257.283C308.836,258.589 309.679,259.024 310.709,259.138C327.479,258.433 344.202,259.888 360.489,264.245C362.009,264.651 362.51,266.65 362.286,268.402C362.498,270.106 362.042,272.022 361.062,272.811C354.04,278.464 347.053,284.164 339.994,289.771C333.504,294.925 326.04,299.863 320.418,305.983C317.564,309.091 317.804,313.534 317.48,317.531C317.097,322.246 316.894,326.975 316.844,331.706C316.835,332.57 316.831,333.434 316.833,334.296C317.272,342.004 317.711,349.71 318.116,357.419L318.119,357.513L318.203,358.295C318.384,359.946 317.173,362.908 315.032,362.163C307.704,359.618 303.093,352.085 298.386,346.369C292.215,338.876 286.063,331.366 279.914,323.857C276.688,325.143 273.15,328.048 270.724,329.841C266.607,332.883 262.787,335.7 259.494,339.609C252.177,348.295 240.57,352.174 232.678,360.37C231.422,361.674 230.389,360.824 229.853,359.36C228.944,358.902 228.361,357.59 228.406,356.445C228.879,344.469 232.281,333.022 235.225,321.477C237.997,310.602 240.793,299.735 243.628,288.88C242.392,289.085 238.939,288.273 238.848,288.248C234.374,287.066 229.976,285.58 225.691,283.832C217.358,280.432 209.533,275.957 202.416,270.451C202.051,270.169 201.756,269.792 201.531,269.357ZM301.238,249.977C298.359,234.099 296.794,217.882 291.167,202.746C287.702,212.227 284.127,221.666 280.43,231.057C278.303,236.459 276.132,241.843 273.925,247.211C272.239,251.311 270.848,256.411 267.947,259.867C264.9,263.496 260.743,263.509 256.328,263.805C250.525,264.195 244.727,264.635 238.935,265.16C232.821,265.715 226.714,266.342 220.615,267.042C218.11,267.33 214.838,267.33 211.783,267.787C217.29,271.043 222.999,273.931 228.945,276.303C231.183,277.15 233.449,277.933 235.742,278.652C238.519,279.351 241.735,279.898 244.317,281.018C245.456,281.29 246.602,281.548 247.755,281.792C249.898,282.244 249.728,285.857 249.364,287.272L249.108,288.265C249.088,289.202 248.964,290.16 248.796,291.106C246.717,302.854 243.401,314.455 240.787,326.094C239.038,333.879 237.332,341.669 235.45,349.419C238.077,347.253 240.876,345.306 243.675,343.363C247.368,340.415 250.949,337.325 254.429,334.127C254.459,334.085 254.491,334.046 254.524,334.008C259.569,328.136 265.393,323.161 271.461,318.382C273.444,316.819 276.846,313.054 279.782,313.556C281.661,313.878 282.838,315.841 283.939,317.209C289.175,323.725 294.348,330.293 299.559,336.83C301.964,339.846 304.368,342.862 306.773,345.877C308.574,348.137 310.241,350.593 312.47,352.296C311.816,344.225 311.58,336.129 311.828,328.026C311.861,326.929 311.903,325.831 311.953,324.734C311.495,317.113 309.956,308.061 314.294,301.31C316.715,297.54 320.694,295.134 324.256,292.571C328.251,289.696 332.199,286.757 336.087,283.74C336.449,283.458 336.811,283.177 337.173,282.894C341.103,279.633 345.068,276.414 349.042,273.202L349.823,272.534C350.167,272.237 350.511,271.94 350.855,271.644L351.158,271.38C342.117,269.397 332.948,268.083 323.692,267.528C320.884,267.359 318.072,267.256 315.259,267.221C312.958,267.192 310.222,267.681 307.967,267.113C307.446,266.982 306.99,266.792 306.59,266.553C306.173,266.581 305.754,266.612 305.335,266.645C304.073,266.743 303.124,265.106 302.992,264.06C302.401,259.395 301.836,254.691 301.238,249.977ZM706.429,185.352C705.319,181.129 703.939,177.01 702.052,173.178C698.954,179.216 695.973,185.308 693.109,191.451L687.688,205.383C683.64,215.787 680.054,226.563 674.968,236.524C674.514,237.414 674.039,238.293 673.544,239.156C672.338,242.966 671.168,247.406 668.254,250.022C665.756,252.263 662.123,253.611 658.659,254.744C657.445,255.429 656.174,256.042 654.843,256.576C650.182,258.446 645.298,259.379 640.379,260.161C637.159,260.9 633.915,261.52 630.643,262.021C624.742,263.391 618.948,265.245 613.345,267.554C621.101,271.194 628.822,274.903 636.505,278.691C641.589,281.196 646.687,283.688 651.739,286.257C653.742,286.962 655.746,287.643 657.754,288.301C659.289,288.804 659.838,291.326 659.516,292.696C657.601,300.864 656.033,309.102 654.823,317.387C654.544,319.761 654.301,322.14 654.095,324.523C653.337,333.263 653.03,342.033 653.225,350.798C660.912,345.084 668.339,339.04 675.508,332.677C679.596,329.048 683.591,325.315 687.486,321.479C689.433,319.561 691.354,317.617 693.248,315.646C694.513,314.33 695.944,312.285 697.872,311.798C697.949,311.778 698.027,311.76 698.106,311.745C698.518,311.379 699.229,311.239 699.725,311.452L700.487,311.776C703.817,312.358 707.744,314.805 710.255,315.894C713.154,317.151 716.026,318.47 718.868,319.851C728.403,324.281 737.704,329.17 746.323,335.18C741.431,319.055 735.631,303.211 728.907,287.755C728.167,286.053 728.535,283.812 730.111,282.762C732.572,281.121 734.986,279.42 737.354,277.659C741.65,273.936 746.157,270.403 750.572,266.789C757.176,260.795 763.321,254.304 768.971,247.372C758.887,246.903 748.799,246.486 738.716,245.981C733.33,245.711 727.104,246.257 721.846,245.016C721.3,244.887 720.815,244.712 720.383,244.497L719.566,244.432C718.212,244.323 717.335,243.018 717.134,241.749C716.45,237.414 715.737,233.084 714.99,228.762C713.293,219.555 711.594,210.352 709.731,201.176C708.66,195.896 707.579,190.616 706.429,185.352ZM1000,117.875C999.284,118.434 998.57,118.996 997.858,119.559C998.024,133.251 998.181,146.944 998.318,160.635C998.442,164.411 998.562,168.186 998.672,171.961C998.688,172.519 998.474,173.398 998.092,174.147C997.532,175.732 996.303,177.134 994.638,175.799C987.382,169.979 983.297,160.524 978.197,152.93C975.325,148.653 972.345,144.448 969.264,140.32C968.506,139.305 967.757,138.171 966.969,137.067C966.084,135.958 965.177,134.866 964.243,133.794C961.607,131.314 960.557,133.327 958.22,135.378C942.137,149.5 925.46,162.822 908.711,176.126L907.388,177.251C907.191,177.418 907.002,177.542 906.821,177.627L906.692,177.729C903.911,179.938 902.097,175.381 902.568,173.133C905.04,161.332 907.918,149.525 912.334,138.286C912.611,137.581 912.931,137.08 913.273,136.749L913.343,136.569C913.406,136.409 913.471,136.261 913.539,136.124C914.542,133.241 915.535,130.354 916.514,127.463C917.74,123.84 918.911,120.198 920.045,116.546C920.965,113.585 923.841,107.74 923.534,104.632C923.33,102.583 921.226,102.036 919.266,100.916C917.563,99.942 915.861,98.965 914.156,97.993C910.76,96.057 907.335,94.177 903.912,92.29L899.544,89.881C899.182,89.721 898.82,89.561 898.458,89.4C895.029,87.873 891.793,86.155 888.878,83.998L881.703,80.041C879.144,78.629 878.807,72.996 882.194,72.39C893.646,70.339 905.205,69 916.831,68.519C922.319,68.292 927.809,68.256 933.299,68.377C938.749,68.497 943.561,68.379 946.987,63.605C949.861,59.6 951.381,54.465 953.1,49.906C953.287,49.41 953.473,48.914 953.658,48.416L953.688,48.266C954.712,43.26 955.955,38.291 957.404,33.391C959.415,26.595 961.875,19.966 964.712,13.491C965.643,9.939 966.521,6.372 967.347,2.791C967.929,0.267 970.721,-1.466 971.961,1.754C972.124,2.177 972.282,2.6 972.436,3.024C972.919,3.509 973.286,4.17 973.389,4.8L973.756,7.028C976.764,17.094 977.67,27.553 978.856,37.967C979.615,42.798 980.229,47.737 980.972,52.643C981.561,55.703 982.275,58.738 983.175,61.739C983.846,63.975 984.549,67.081 986.029,68.992C987.641,71.076 990.335,71.389 992.735,71.872C995.156,72.359 997.578,72.837 1000,73.311L1000,81.935C996.415,81.44 992.745,80.912 989.485,79.745C985.929,78.634 982.858,76.804 981.11,73.569C980.526,72.488 980.077,71.343 979.717,70.161C974.44,57.222 974.232,43.081 972.748,29.22C971.894,24.076 971.037,18.933 970.179,13.789L970.051,14.068C967.798,23.007 965.24,31.866 962.328,40.616C960.617,45.759 958.999,51.514 956.902,57.001C955.86,61.677 954.383,66.205 951.473,69.89C949.414,72.497 946.742,74.014 943.754,74.875C936.939,77.678 928.202,76.018 920.897,76.201C911.737,76.432 902.61,77.189 893.54,78.416C898.431,81.125 903.323,83.834 908.221,86.532L908.354,86.587C912.842,88.449 917.257,90.48 921.595,92.669C924.46,94.114 929.011,95.561 930.837,98.432C932.741,101.424 931.482,104.935 930.477,107.945C928.852,112.815 926.966,117.616 925.11,122.4C923.433,126.723 921.7,131.015 919.877,135.266C919.079,137.429 918.253,139.576 917.394,141.711C917.348,141.947 917.282,142.179 917.194,142.403C914.195,150.059 912.078,157.922 910.134,165.859C918.006,159.874 925.707,153.649 933.35,147.388C934.102,146.773 934.853,146.156 935.602,145.538C940.374,141.49 945.142,137.439 949.905,133.384C952.99,130.437 956.252,127.006 959.706,125.024L960.407,124.425C960.879,124.021 961.566,123.835 962.122,124.114C964.549,123.875 966.048,126.13 967.741,128.27C971.311,132.783 974.755,137.395 978.068,142.1C981.381,146.805 984.561,151.603 987.606,156.486C989.378,159.328 991.02,162.243 993.057,164.845L993.186,164.978C993.085,156.953 992.986,148.928 992.912,140.902L992.81,130.072L992.62,124.151C992.568,122.516 992.388,120.77 992.475,119.075C992.499,117.137 992.804,115.271 993.879,113.834C995.297,111.94 997.618,110.222 1000,108.637L1000,117.875ZM0,73.311C3.257,73.95 6.515,74.582 9.772,75.219C13.079,75.866 16.385,76.519 19.69,77.177C27.252,78.294 34.815,79.405 42.379,80.512C44.079,80.76 44.819,82.524 44.787,84.172C45.123,86.092 44.374,88.585 43.067,89.291C42.593,89.547 42.12,89.805 41.648,90.063C37.801,94.065 31.642,96.692 27.352,99.469L5.924,113.338C3.933,114.832 1.958,116.345 0,117.875L0,108.637C1.956,107.336 3.955,106.125 5.527,104.982C9.172,102.331 12.87,99.756 16.612,97.244C21.612,93.887 26.713,90.703 31.864,87.601C23.122,86.053 14.39,84.459 5.664,82.803C3.854,82.46 1.939,82.202 0,81.935L0,73.311ZM567.232,0C564.035,2.914 560.975,5.975 558.046,9.17C560.513,12.757 561.595,17.282 562.955,21.421L563.931,24.393C569.294,37.593 573.752,51.141 577.316,64.947C578.531,68.518 579.784,72.127 579.929,75.83C580.1,76.598 580.268,77.368 580.434,78.138C580.678,79.27 580.145,82.87 578.377,82.713C577.861,83.304 577.173,83.632 576.293,83.259C557.171,75.16 544.754,58.219 529.369,45.078C528.301,44.167 527.138,43.013 525.867,42.38C523.294,41.098 521.799,42.661 520,44.346C517.687,46.512 515.659,49.15 513.536,51.501C509.829,55.603 506.198,59.727 502.282,63.613C495.688,70.156 489.693,77.435 483.513,84.466C481.642,86.674 479.775,88.885 477.914,91.102C477.241,91.903 476.632,91.843 476.135,91.379C474.372,90.793 473.451,86.272 474.805,84.226C477.552,62.4 480.775,40.622 483.911,18.851C479.819,16.166 475.73,13.476 471.647,10.781C465.614,7.359 459.657,3.81 453.874,0L469.319,0C473.009,2.48 476.694,4.965 480.377,7.455C483.161,8.96 485.957,10.447 488.756,11.929C490.397,12.797 491.019,14.971 490.68,16.725C488.924,25.806 487.205,34.927 485.593,44.075C484.007,54.282 482.394,64.488 480.697,74.676C480.531,75.855 480.368,77.034 480.208,78.212C487.136,70.403 493.865,62.336 501.271,55.057C502.384,53.964 503.468,52.832 504.534,51.676L504.62,51.577C508.198,46.534 512.37,41.13 517.14,37.258C519.514,34.623 522.297,32.425 525.954,33.849C530.786,35.731 535.077,40.81 538.748,44.321C542.69,48.09 546.502,51.99 550.414,55.788C553.857,59.13 557.38,62.381 561.102,65.356C565.337,68.341 569.786,71.021 574.357,73.465C573.589,68.847 571.03,63.749 569.773,59.889C568.057,54.624 566.351,49.357 564.631,44.093C562.813,38.527 560.981,32.964 559.157,27.399C557.601,22.657 556.533,15.821 552.356,12.674C550.455,11.241 550.666,8.017 551.901,6.2C552.065,5.62 552.346,5.082 552.73,4.659C554.172,3.068 555.718,1.575 557.334,0.148L557.475,0L567.232,0Z" style="fill-rule:nonzero;"/>
</svg>
