<?xml version="1.0" encoding="UTF-8" standalone="no"?>
<!DOCTYPE svg PUBLIC "-//W3C//DTD SVG 1.1//EN" "http://www.w3.org/Graphics/SVG/1.1/DTD/svg11.dtd">
<svg width="100%" height="100%" viewBox="0 0 1000 1000" version="1.1" xmlns="http://www.w3.org/2000/svg" xmlns:xlink="http://www.w3.org/1999/xlink" xml:space="preserve" xmlns:serif="http://www.serif.com/" style="fill-rule:evenodd;clip-rule:evenodd;stroke-linejoin:round;stroke-miterlimit:2;">
    <path d="M126.431,1000C126.972,996.432 128.274,993.105 130.016,989.966C131.441,986.913 133.132,983.939 134.864,980.993C139.482,973.137 145.018,965.554 153.047,960.903C161.265,956.141 171.562,955.719 180.461,958.72C180.889,958.864 181.315,959.017 181.739,959.18C195.98,963.555 207.132,977.453 210.168,992.015C210.727,994.698 211.035,997.368 211.105,1000L202.741,1000C202.84,996.356 202.316,992.751 201.061,989.36C196.641,977.412 186.328,967.945 173.94,965.966C169.221,965.665 164.41,966.507 159.842,968.738C153.364,971.902 148.09,977.145 143.403,982.541C139.861,988.068 137.019,993.955 135.827,1000L126.431,1000ZM627.351,1000C628.234,996.246 629.704,992.59 631.471,989.066C637.608,972.796 649.844,959.076 667.816,955.632C686.606,952.031 705.918,964.306 713.022,981.722C716.298,987.367 716.771,993.751 715.66,1000L709.932,1000C710.616,997.299 710.893,994.6 710.513,992.037C709.769,987.021 705.715,983.441 702.382,979.964C699.555,977.013 696.817,973.914 693.811,971.145C687.086,964.952 678.029,964.683 669.533,966.814C659.863,969.239 650.568,974.277 643.866,981.612C641.198,985.321 638.9,989.332 636.744,993.206C636.427,993.776 636.111,994.356 635.801,994.946C635.69,995.261 635.583,995.58 635.48,995.901C635.042,997.266 634.7,998.635 634.45,1000L627.351,1000ZM322.958,1000C320.855,997.953 318.663,995.992 316.341,994.145C309.932,989.047 303.159,984.518 297.562,978.477C294.038,974.676 292.941,969.117 294.736,964.177C296.327,959.8 299.962,957.659 304.073,960.18C305.211,960.877 306.351,961.572 307.49,962.266C308.514,962.89 309.314,963.81 309.906,964.916C314.665,968.152 319.131,972.041 323.5,975.488C328.395,979.351 333.258,983.255 338.124,987.154C340.35,984.129 342.59,981.116 344.974,978.212C350.422,971.578 356.478,965.475 362.738,959.614C370.384,952.453 375.04,969.817 371.064,975.094C365.078,983.038 359.101,991.11 352.963,999.079C353.334,999.385 353.705,999.692 354.073,1000L322.958,1000ZM1000,968.832C998.638,968.652 997.264,968.546 995.882,968.522C977.953,968.212 963.824,982.199 966.444,1000L959.344,1000C959.379,999.104 959.44,998.192 959.524,997.263C959.603,996.386 959.697,995.501 959.807,994.614C959.82,994.236 959.837,993.857 959.86,993.477C960.498,982.758 964.842,972.65 973.862,966.442C974.269,966.162 974.68,965.893 975.096,965.632C982.441,960.747 991.344,959.178 1000,960.182L1000,968.832ZM460.295,1000C460.064,996.926 460.259,993.846 461.014,990.85C461.404,988.12 462.624,985.766 464.217,983.341C465.573,981.043 467.212,978.788 469.017,976.622C470.533,974.614 472.113,972.645 473.792,970.778C476.94,967.175 480.583,964.028 484.576,961.602C487.139,960.019 489.863,958.714 492.694,957.795C498.003,955.662 503.739,954.853 509.562,956.225C519.184,958.492 527.379,965.898 534.196,972.683C540.022,978.48 544.218,985.068 545.006,993.004C545.528,995.219 545.77,997.539 545.685,1000L539.073,1000C539.706,996.738 539.724,993.453 538.699,990.252C535.545,984.145 529.057,978.581 524.396,974.354C518.919,969.388 512.316,965.084 504.898,964.143C503.328,964.031 501.736,964.081 500.127,964.313C499.731,964.729 499.233,965.011 498.631,965.09C496.894,965.319 495.216,965.706 493.599,966.234C487.089,969.051 481.757,973.952 476.932,979.109C475.908,980.203 474.846,981.305 473.799,982.43C470.149,987.691 467.208,993.932 467.487,1000L460.295,1000ZM0,960.182C0.163,960.201 0.324,960.221 0.485,960.241C3.055,960.474 5.614,960.896 8.126,961.479C19.022,964.01 30.637,969.785 37.981,978.432C43.269,984.659 44.886,992.26 44.539,1000L36.672,1000C36.33,994.812 35.054,990.17 31.518,986.089C28.742,982.885 25.26,980.201 21.776,977.806C15.31,973.361 7.84,969.869 0,968.832L0,960.182ZM824.548,1000C814.361,990.999 804.143,982.038 793.849,973.169C788.001,968.129 791.034,949.875 799.914,956.127C813.244,965.514 826.454,975.106 838.818,985.751C839.09,985.985 839.361,986.22 839.631,986.456C849.878,975.45 860.284,963.761 873.431,956.625C877.159,954.601 880.125,959.168 881.052,962.036C882.36,966.086 881.714,970.992 878.752,974.165C870.77,982.717 862.883,991.351 855.012,1000L824.548,1000ZM668.168,819.892C674.018,811.651 680.875,804.075 687.307,796.236C688.652,794.536 690.006,792.84 691.369,791.152L691.464,791.031C694.582,787.085 697.67,787.37 699.968,789.629C704.573,789.853 707.832,799.422 705.76,804.329C701.605,814.173 694.702,822.25 687.265,829.846C686.252,831.15 685.233,832.448 684.205,833.742C692.9,842.047 700.923,851.052 708.261,860.576C710.582,863.588 710.774,868.543 709.513,872.012C708.641,874.41 705.69,878.22 702.609,876.529C690.252,869.75 679.54,860.898 669.294,851.393C659.508,862.171 648.902,872.179 636.894,880.876C628.437,887.002 624.395,870.874 628.574,865.406C636.349,855.235 645.672,846.521 654.307,837.143C644.329,827.629 634.406,818.016 625.562,807.446C621.486,802.575 625.187,785.584 632.849,792.141L652.021,808.544C652.512,808.871 653.003,809.197 653.493,809.522C658.507,812.85 663.418,816.243 668.168,819.892ZM319.794,795.106C322.527,793.614 325.456,792.467 328.581,791.757C339.097,789.368 350.194,791.776 359.346,797.295C369.474,803.401 374.947,811.798 377.142,823.276C379.009,833.041 380.602,843.747 376.023,853.031C371.819,861.555 363.7,870.944 354.814,874.645L354.426,874.805C346.127,879.914 336.453,882.458 326.829,880.63C321.046,879.532 315.945,877.08 311.625,873.68C307.286,870.87 303.544,867.122 300.716,862.755C295.308,854.401 292.806,843.966 293.842,834.068C294.063,831.951 294.499,829.852 295.103,827.781C296.084,823.888 297.806,820.053 299.799,816.509C301.18,813.304 302.893,810.264 304.95,807.499C306.541,805.361 308.309,803.515 310.219,801.9C313.069,798.938 316.243,796.701 319.794,795.106ZM1000,853.887C997.302,856.538 994.572,859.157 991.799,861.727C986.143,869.505 979.77,876.82 971.361,880.653C966.667,882.793 963.216,877.136 962.475,873.341C960.343,862.429 966.419,856.245 973.487,849.124C977.819,844.761 982.139,840.387 986.499,836.055C977.824,827.794 969.205,819.476 960.603,811.132C956.984,807.622 956.129,801.703 957.82,797.048C959.209,793.227 963.258,789.988 967.016,793.111C978.257,802.45 989.194,812.114 1000,821.941L1000,853.887ZM498.934,821.362C503.608,816.063 508.407,811.143 514.331,806.806C521.781,801.351 526.984,792.943 535.489,789.025C542.382,785.85 543.925,799.276 541.209,802.956C536.201,809.74 531.831,817.118 525.881,823.162C522.122,826.981 517.779,829.996 513.837,833.508C524.12,841.798 534.555,850.412 542.065,861.064C544.548,864.584 544.687,869.858 542.868,873.667C541.305,876.943 537.973,878.802 534.791,876.341C523.24,867.411 511.821,858.353 500.903,848.672C500.73,848.628 500.559,848.573 500.39,848.509C490.554,858.963 479.318,868.149 468.66,877.73C467.203,879.04 465.792,879.371 464.517,879.064C461.264,879.903 458.392,874.545 458.922,870.803C458.876,870.383 458.86,869.977 458.876,869.594C459.113,863.917 460.524,859.19 464.362,854.871C466.736,852.198 469.691,850.087 472.511,847.881C473.061,847.34 473.623,846.8 474.2,846.259C477.783,842.896 481.482,839.7 485.053,836.369C485.463,835.935 485.87,835.498 486.273,835.058C483.787,832.639 481.329,830.192 478.899,827.716C478.023,826.823 477.151,825.927 476.283,825.028C468.721,819.892 462.189,814.604 457.888,806.291C455.695,802.052 457.465,788.748 464.807,791.704C471.459,794.381 476.451,801.348 481.293,806.847C483.272,807.986 485.207,809.081 486.903,810.224C491.54,813.349 495.429,817.172 498.934,821.362ZM805.735,808.852C806.121,808.341 806.517,807.836 806.927,807.337C810.146,803.406 813.948,800.004 818.361,797.459C823.504,794.493 829.449,793.44 835.037,791.611C839.169,790.26 843.535,790.17 847.83,790.933C850.815,791.173 853.752,791.85 856.569,793.121C858.137,793.829 859.512,794.694 860.771,795.674C862.024,796.363 863.235,797.098 864.393,797.863C873.786,804.072 877.701,813.201 880.347,823.777C884.888,841.922 878.995,858.519 864.46,869.079C858.059,874.294 849.986,877.63 840.832,878.765C822.662,881.017 808.363,869.837 799.286,855.331C797.599,852.897 796.133,850.345 795.135,847.734L795.108,847.676C794.124,845.597 793.651,843.473 793.55,841.33C793.31,840.704 793.216,840.017 793.36,839.379C793.461,838.93 793.563,838.481 793.667,838.032C793.986,835.191 794.828,832.344 795.873,829.557C796.284,828.172 796.723,826.797 797.196,825.436C798.36,821.151 799.529,816.746 802.072,813.065C803.122,811.545 804.376,810.157 805.735,808.852ZM153.748,793.005C157.426,790.779 161.111,789.229 165.756,789.796C167.749,790.038 169.741,790.38 171.729,790.769L171.83,790.78C175.239,791.013 178.598,791.751 181.83,792.894C182.117,792.952 182.404,793.008 182.69,793.064C183.049,793.133 183.359,793.313 183.619,793.573C188.583,795.585 193.199,798.535 197.168,802.035C197.433,802.269 197.695,802.504 197.953,802.74C200.149,804.205 202.11,805.895 203.863,808.209C215.438,823.486 211.593,846.92 199.377,860.539C198.159,861.896 196.799,863.089 195.405,864.239C193.103,866.758 190.588,869.042 187.898,871.008C184.894,874.321 182.436,876.482 177.68,877.316C175.363,877.722 172.964,878.077 170.55,878.26C151.862,880.612 135.705,865.531 129.194,848.573C127.518,844.206 125.566,839.398 125.33,834.677C125.079,829.664 126.649,824.528 128.118,819.786C129.761,814.484 132.107,809.378 136.122,805.447C136.355,805.219 136.592,804.994 136.833,804.771C140.323,800.566 145.209,797.287 150.546,794.952C151.621,794.244 152.679,793.588 153.748,793.005ZM0,821.941L0.384,822.29C10.136,812.351 19.851,802.012 31.054,793.986C39.68,787.806 44.036,804.254 39.578,809.834C32.134,819.151 24.446,828.228 16.39,836.991C23.9,844.031 31.241,851.316 37.764,859.138C38.274,859.639 38.785,860.141 39.296,860.644C43.315,864.601 43.983,879.938 35.284,877.607C33.798,878.119 32.153,877.924 30.628,876.574C29.788,875.83 28.953,875.078 28.124,874.319C24.043,871.723 20.51,868.256 16.993,864.871C12.244,860.3 7.44,855.789 2.633,851.281C1.758,852.153 0.881,853.022 0,853.887L0,821.941ZM349.428,868.239C360.866,862.464 370.134,851.527 372.18,838.931C374.972,821.735 364.077,806.238 347.357,802.083C341.967,800.744 335.781,800.365 329.956,801.22C323.821,803.382 317.791,805.867 312.973,810.065C310.194,813.327 307.975,817.168 305.771,820.816C305.068,821.981 304.404,823.137 303.79,824.294C301.745,830.069 300.95,836.337 301.489,842.328C302.579,854.433 310.119,864.785 320.385,869.589C325.933,871.411 331.8,871.419 337.859,870.542C341.818,869.969 345.728,869.343 349.428,868.239ZM817.08,865.021C819.136,866.471 821.342,867.716 823.709,868.7C832.821,872.49 842.907,871.198 851.969,867.905C868.287,861.975 875.915,845.96 874.564,829.189C874.147,824.019 873.059,818.745 869.711,814.642C867.553,811.998 865.051,809.613 862.819,807.022C856.739,799.962 848.697,798.334 839.702,799.7C830.541,801.092 822.623,804.419 815.581,810.358C815.207,810.673 814.82,810.989 814.424,811.307C810.06,815.545 806.423,820.184 803.979,826.273C802.84,829.109 801.546,832.026 800.487,834.961C799.341,838.996 798.821,842.567 801.446,846.767C803.29,849.716 805.377,852.564 807.491,855.323C810.315,859.01 813.445,862.359 817.08,865.021ZM170.111,798.656C169.165,798.611 168.22,798.582 167.278,798.558C166.179,798.53 165.131,798.538 164.12,798.597C163.976,798.624 163.833,798.652 163.689,798.682C161.637,799.105 159.458,799.653 157.26,800.341C156.112,800.986 154.971,801.733 153.776,802.527C146.509,807.353 138.292,812.938 134.689,821.23C132.898,825.351 132.122,830.429 132.204,834.917C132.299,840.084 135.617,844.974 137.832,849.505C140.342,854.638 142.858,858.802 147.51,862.253C151.393,865.134 155.772,868.341 160.499,869.594C164.951,870.775 169.613,870.318 174.126,869.766C174.527,869.717 174.915,869.665 175.291,869.607C178.325,868.695 181.313,867.267 184.176,865.283C184.388,865.057 184.601,864.819 184.814,864.569C188.141,860.663 192.209,857.781 195.752,854.272C197.691,851.803 199.413,849.164 200.871,846.378C203.016,842.278 204.868,837.23 205.556,832.157C205.679,830.012 205.592,827.856 205.277,825.723C204.643,821.437 203.054,817.219 200.41,813.762C197.802,810.354 194.393,808.885 190.779,806.844C187.175,804.809 184.239,801.947 180.372,800.435C176.97,799.832 173.542,799.14 170.111,798.656ZM823.316,669C817.188,662.885 811.069,656.763 804.954,650.637C800.47,646.874 796.242,642.894 792.649,638.144C789.96,634.59 789.956,628.851 791.809,624.97C793.249,621.953 797.222,619.126 800.252,622.175C802.312,624.248 804.371,626.321 806.429,628.397C817.71,636.916 828.578,645.999 838.967,655.602C847.203,647.416 855.45,639.24 863.756,631.122C865.802,628.641 868.055,626.346 870.671,624.391C878.539,618.511 881.312,634.426 876.757,639.154C874.224,641.783 871.683,644.405 869.139,647.021C866.384,650.958 864.155,655.332 861.417,659.371C858.919,663.056 855.993,666.16 852.861,669.045C861.463,677.758 869.683,686.845 877.478,696.276C880.179,699.545 880.014,705.362 878.287,708.98C876.81,712.076 873.211,714.399 870.146,711.676L870.131,711.663C869.008,711.711 867.819,711.351 866.633,710.452C858.261,704.107 851.015,696.607 843.994,688.874C841.716,686.835 839.459,684.775 837.232,682.685C825.694,693.864 815.66,707.714 800.82,714.444C800.463,714.606 800.119,714.73 799.788,714.819C799.57,715.047 799.353,715.279 799.138,715.514C797.219,717.607 794.372,716.366 792.956,714.456C791.053,711.889 791.002,708.011 791.933,705.106C792.223,704.2 792.562,703.338 792.944,702.511C793.143,700.825 793.583,699.356 794.242,698.423C802.089,687.312 812.783,678.028 823.316,669ZM154.869,669.109C146.454,659.69 138.087,650.221 129.505,640.962C128.704,640.099 128.019,639.024 127.483,637.831L127.109,637.456C126.232,636.552 125.715,635.367 125.39,634.164C125.013,632.769 124.881,631.304 124.945,629.862C124.994,628.749 125.162,627.63 125.51,626.569C125.983,625.127 126.917,623.523 128.543,623.246C128.797,623.203 129.057,623.194 129.314,623.216C129.735,623.251 130.141,623.366 130.533,623.521L130.604,623.55C138.089,619.724 145.983,630.995 150.533,635.405C157.086,641.757 163.602,648.143 170.098,654.552C170.6,655.048 171.103,655.544 171.604,656.04C182.159,647.4 191.537,637.52 201.301,627.808C204.368,624.757 208.029,627.152 209.742,630.151C211.873,633.881 211.9,639.482 209.553,643.152C202.881,653.59 195.328,663.197 187.074,672.111C187.59,672.695 188.101,673.282 188.609,673.873C193.381,679.433 197.724,685.315 202.15,691.141C204.073,692.367 205.129,694.091 206.237,696.449C206.418,696.835 206.575,697.236 206.71,697.649C208.007,700.91 207.7,705.1 206.293,708.049C205.568,709.568 204.334,710.892 202.905,711.517C201.71,712.259 200.326,712.544 198.931,711.852C188.092,706.476 179.474,696.861 171.354,687.568C160.103,697.685 147.937,706.855 135.198,715.349C134.021,716.133 132.877,716.153 131.829,715.723C126.135,718.262 123.357,705.288 126.294,701.113C126.563,700.731 126.839,700.356 127.121,699.988C127.645,698.627 128.407,697.373 129.426,696.327C135.382,690.217 141.398,684.169 147.473,678.18C149.828,675.005 152.153,671.906 154.869,669.109ZM486.073,669.283C478.222,659.797 470.618,650.026 462.409,640.945C459.231,637.43 458.181,632.458 459.834,627.91C460.967,624.792 465.197,620.859 468.344,624.266L469.892,625.942C476.091,628.69 481.234,636.074 484.986,640.609C489.528,646.1 494.757,651.022 500.111,655.741C505.616,650.452 511.02,645.036 515.862,639.136C521.624,632.117 526.392,625.259 535.77,623.287L535.876,623.267C540.316,622.453 542.368,629.996 542.439,632.921C542.546,637.264 540.802,641.884 536.251,642.87L536.186,642.885C534.101,643.403 530.285,649.203 528.897,650.734C526.228,653.68 523.557,656.624 520.893,659.573C518.513,662.209 516.151,664.862 513.798,667.521C523.932,676.277 533.745,685.354 541.298,696.569C543.41,699.705 543.802,704.175 542.518,707.71C541.607,710.215 538.888,713.552 535.791,712.112C521.294,705.371 509.627,695.418 499.084,684.192L486.454,698.48C481.387,704.213 476.747,710.488 470.213,714.611C467.031,716.618 463.625,712.674 462.552,710.119C460.895,706.178 461.283,701.47 463.294,697.761C469.087,687.073 476.439,677.858 485.309,670.051C485.563,669.794 485.818,669.539 486.073,669.283ZM664.497,624.102C668.756,623.194 672.802,623.37 676.709,624.253C685.537,625.488 694.484,629.091 700.705,635.16C708.184,642.458 712.064,653.696 713.004,663.895C714.192,676.779 709.909,688.947 701.635,697.922C692.702,708.404 678.922,715.858 666.158,713.826C662.563,713.254 659.139,712.04 655.82,710.573C653.901,709.862 652.057,708.965 650.294,707.918L650.236,707.889C646.666,706.082 643.621,704.14 641.384,700.805C639.691,699.071 638.126,697.22 636.698,695.313C630.936,687.616 628.437,678.692 628.508,669.677C627.897,668.878 627.506,667.75 627.703,666.759C629.33,658.597 631.294,650.289 635.41,643.083C637.526,639.114 639.824,635.585 643.547,633.157C649.423,628.148 656.836,625.074 664.497,624.102ZM0,626.073C0.435,626.025 0.87,625.989 1.304,625.963C10.694,625.415 20.11,628.505 27.864,633.768C31.346,635.981 34.503,638.734 37.118,641.916C38.758,643.782 40.235,645.782 41.445,647.88C42.7,650.055 43.368,652.378 43.748,654.77C44.704,658.509 44.884,662.441 44.533,666.383C44.777,671.205 44.882,676.083 43.511,680.76C42.079,685.649 39.264,690.249 36.621,694.565C31.246,703.345 24.127,708.832 14.102,711.41C9.436,712.611 4.678,713.202 0,713.152L0,704.577C2.088,704.675 4.188,704.599 6.279,704.339C23.94,702.146 34.252,686.873 37.936,670.641C40.129,660.981 38.446,652.696 31.157,645.717C25.187,640 17.096,636.542 8.879,635.858C5.987,635.618 2.998,635.752 0,636.219L0,626.073ZM1000,626.073L1000,636.219C994.6,637.06 989.17,638.979 984.22,641.728C980.134,644.343 976.454,647.566 973.276,651.361C969.651,655.691 965.822,661.705 964.068,667.827C963.985,668.281 963.906,668.737 963.831,669.193C963.278,674.345 964.079,679.518 966.035,684.284C969.377,689.955 975.02,694.792 980.051,698.061C986.009,701.933 992.935,704.246 1000,704.576L1000,713.151C985.205,712.993 971.21,706.42 963.435,692.435C963.27,692.139 963.109,691.84 962.952,691.539C958.976,685.434 956.797,678.445 957.622,671.161C957.867,668.998 958.274,666.855 958.829,664.749C960.285,656.195 964.329,648.114 970.863,642.04C972.349,640.659 973.899,639.358 975.505,638.142C982.556,632.265 991.348,627.019 1000,626.073ZM335.037,625.738C339.33,624.888 343.628,624.649 347.375,625.427C358.556,627.75 367.58,635.839 372.139,645.911C374.168,649.072 375.793,652.383 376.82,655.627C379.458,663.963 376.412,673.523 372.688,681.059C369.399,687.715 364.363,693.943 358.966,699.347C355.148,703.995 350.575,707.979 345.008,710.443C334.874,714.927 325.796,712.374 318.089,706.796C313.468,704.009 309.354,700.172 305.931,696.334C300.173,689.877 295.335,681.833 293.322,673.349C293.114,672.473 292.959,671.62 292.852,670.787C292.63,670.336 292.496,669.744 292.5,669.007C292.602,649.462 310.204,631.176 328.658,626.75C330.752,626.247 332.888,625.907 335.037,625.738ZM687.399,700.101C691.627,697.343 695.381,693.821 698.672,690.029C704.695,683.091 706.868,675.056 705.959,665.97C705.169,658.074 703.084,648.993 696.951,643.517C691.033,638.234 681.187,632.915 673.214,632.073C669.546,631.686 665.376,632.294 661.326,633.438L661.271,633.466C656.764,635.711 652.216,637.892 647.742,640.207C646.937,640.624 646.2,641.092 645.522,641.604C641.134,646.062 638.333,652.365 636.347,658.056C635.906,659.32 635.514,660.599 635.179,661.886C634.332,667.285 634.891,672.738 637.266,678.243C639.072,682.43 641.171,686.508 643.172,690.603C645.611,695.596 648.196,697.929 653.159,700.369C657.237,702.374 661.293,704.028 665.42,704.87C672.861,705.437 680.654,703.559 687.399,700.101ZM346.832,634.274C341.572,633.4 336.441,634.606 330.797,636.314C318.883,639.918 308.584,648.496 301.966,659.177C300.443,662.323 299.581,665.727 299.799,669.33C300.292,677.501 307.584,686.031 312.691,692.034C315.311,695.113 318.375,698.121 321.845,700.392C328.42,703.859 336.356,704.442 343.518,702.224C347.883,700.238 351.766,697.048 354.868,693.453C359.635,687.927 363.346,681.109 366.246,674.442C369.337,667.335 371.475,659.383 368.419,651.893C368.044,650.974 367.61,650.081 367.124,649.215C365.981,647.669 364.736,646.169 363.464,644.701C358.902,639.434 353.11,635.945 346.832,634.274ZM162.829,458.217L163.182,458.118C171.376,455.837 179.058,456.98 185.692,460.364C192.418,462.791 198.416,467.054 202.956,472.849C210.075,481.936 211.873,493.452 210.35,504.675C209.106,513.848 205.427,522.757 199.8,529.958C195.258,536.613 189.163,542.672 182.333,545.96C162.502,555.504 141.129,541.714 132.966,523.436C132.778,523.014 132.593,522.587 132.413,522.155C130.164,517.61 128.464,512.846 127.403,508.386C127.298,507.943 127.202,507.503 127.116,507.066C127.024,506.813 126.946,506.519 126.887,506.184C126.572,504.394 126.444,502.598 126.482,500.81C126.461,491.993 130.202,484.246 135.683,476.641C138.953,472.104 142.26,467.623 147.125,464.686C148.741,463.71 150.46,462.823 152.235,462.018C155.672,460.172 159.235,458.92 162.829,458.217ZM819.516,500.765C811.178,491.81 803.238,482.442 795.474,472.902C793.886,470.951 793.234,467.698 793.617,464.678C793.699,460.127 795.874,454.979 799.589,457.454C807.29,456.481 813.903,460.992 819.063,466.307C824.94,472.362 830.087,479.148 835.68,485.468C836.275,486.141 836.872,486.812 837.47,487.482C842.215,483.974 846.813,480.276 851.31,476.453C856.985,470.781 863.093,465.554 869.183,460.337L869.274,460.252C877.054,453.125 882.81,472.201 876.353,477.733C869.303,483.773 862.23,489.826 855.83,496.566C854.126,498.36 852.563,500.296 851.047,502.278C856.414,507.993 861.845,513.648 867.289,519.287C869.389,521.299 871.464,523.34 873.515,525.407C874.533,526.434 875.323,527.65 875.881,528.969C877.315,531.909 877.498,535.455 876.362,538.58C875.721,540.345 874.434,541.971 872.878,542.726C871.333,543.566 869.464,543.553 867.512,542.274C856.543,535.091 846.442,526.971 836.953,518.205C833.605,520.755 829.921,522.9 826.301,525.12C819.514,532.683 812.289,539.821 804.583,546.613C801.712,549.142 799.359,548.583 797.681,546.571C793.173,547.018 792.374,539.289 793.356,536.109C794.946,530.953 798.354,526.266 802.276,522.094C805.228,517.785 808.23,513.509 811.455,509.419C813.991,506.2 816.649,503.364 819.516,500.765ZM670.273,486.196C679.508,474.373 689.154,462.82 701.866,454.574C705.937,451.934 709.207,458.349 709.895,461.18C713.066,474.24 702.221,480.181 694.023,487.723C690.419,491.038 687.037,494.541 683.806,498.18C693.864,507.192 703.634,516.671 710.934,528.006C713.09,531.354 713.574,535.915 712.211,539.668C711.359,542.012 708.249,546.122 705.169,544.274C691.945,536.342 680.599,526.345 669.551,515.83C659.65,528.507 649.093,540.923 634.081,547.621C627.574,550.523 624.936,539.906 625.763,535.604C627.575,526.19 636.968,519.345 643.317,512.658C646.908,508.876 650.412,504.821 654.034,500.901C649.123,496.279 644.087,491.787 638.756,487.656C631.801,482.267 625.344,475.504 626.088,466.81C624.644,462.298 626.093,455.113 631.124,456.724L631.187,456.745C632.738,455.881 634.558,455.844 636.392,457.402C638.379,459.09 640.346,460.796 642.291,462.522C645.809,464.959 649.125,467.736 652.237,470.349C658.362,475.494 664.302,480.868 670.273,486.196ZM0,456.516L0.287,456.487C0.828,456.435 1.304,456.55 1.713,456.791C13.485,457.161 25.366,462.044 33.252,470.309C37.081,474.324 39.71,478.795 41.311,483.506C43.835,489.084 44.833,495.227 44.198,501.736C42.88,515.23 35.108,528.687 23.936,536.939C20.611,540.197 16.866,542.955 12.606,544.63C8.544,546.227 4.244,546.732 0,546.361L0,537.013C3.787,537.123 7.548,536.529 11.132,535.337C21.684,530.963 29.81,519.762 34.232,509.62C37.581,501.938 38.821,493.013 35.045,485.24C33.947,482.981 32.539,480.906 30.896,479.031C29.156,477.247 27.268,475.592 25.365,474.031C23.179,472.457 20.811,471.131 18.36,470.072C12.687,467.623 6.296,466.184 0,466.079L0,456.516ZM1000,456.516L1000,466.079L999.962,466.079C984.375,467.93 969.099,479.974 966.441,495.995C964.866,505.486 970.424,515.187 975.973,522.512C981.346,529.607 988.771,535.27 997.674,536.856C998.449,536.939 999.225,536.99 1000,537.013L1000,546.361C994.663,545.896 989.414,544.046 984.838,541.242C974.237,534.748 965.487,523.082 961.909,510.486C958.874,502.745 957.535,494.295 960.023,486.192C960.729,483.89 961.732,481.66 962.957,479.525C964.143,477.332 965.603,475.271 967.278,473.356C970.239,469.793 973.706,466.627 977.214,463.99C983.052,459.602 990.137,457.316 997.459,456.856C998.301,456.718 999.148,456.604 1000,456.516ZM321.374,501.165C312.544,492.626 303.922,483.837 295.341,474.918C292.028,471.474 291.06,466.199 292.637,461.676C292.943,459.149 294.019,456.994 296.297,457.12C297.878,456.257 299.725,456.215 301.445,457.768C306.468,462.304 311.486,466.845 316.506,471.38L318.778,473.196C324.771,477.987 330.584,483.015 336.387,488.042C345.948,476.551 356.595,464.997 369.261,457.468C372.307,455.657 375.442,459.232 376.48,461.7C377.85,464.962 378.075,470.406 375.781,473.346C368.156,483.113 359.905,491.959 351.243,500.559C360.721,508.424 370.223,516.684 376.89,526.672C379.352,530.359 379.603,535.576 377.71,539.541C376.074,542.969 372.766,544.683 369.463,542.272C357.799,533.757 346.796,524.616 336.199,515.044C330.822,520.15 325.445,525.256 320.034,530.326C314.42,535.587 308.851,541.095 301.616,544.057C301.127,544.258 300.659,544.391 300.211,544.465C294.374,548.735 291.135,537.732 293.143,532.611C293.286,530.463 293.826,528.531 294.755,527.345C302.642,517.277 311.279,508.565 321.374,501.165ZM493.889,458.866C497.252,457.543 500.779,456.553 504.432,455.94C514.083,454.32 522.058,456.187 529.277,461.192C531.914,462.897 534.442,465.079 536.825,467.8C543.862,475.281 548.323,484.117 548.268,494.697C548.246,498.855 547.603,502.913 546.502,506.849C544.796,514.062 541.76,521.14 538.01,527.178C529.782,540.424 513.689,546.381 498.82,543.7C494.763,543.373 490.819,542.322 487.235,540.155C485.892,539.343 484.627,538.406 483.416,537.393C478.206,533.977 473.57,529.49 470.031,524.344C468.106,522.437 466.243,520.467 464.626,518.321C458.407,510.069 458.095,499.87 462.47,490.732C466.068,483.214 469.41,475.643 475.268,470.086C475.741,469.539 476.231,469.005 476.74,468.486C478.95,466.234 488.39,458.935 493.889,458.866ZM188.578,471.249C179.695,466.025 168.598,465.071 158.691,468.713C157.677,469.115 156.674,469.541 155.684,469.979C152.868,471.32 150.182,473.058 147.714,475.201C139.344,482.467 133.3,492.759 134.211,504.063C134.638,509.371 135.981,514.686 138.25,519.547C138.717,520.367 139.193,521.172 139.671,521.963C148.593,536.716 166.493,542.346 182.417,535.315C184.446,534.419 186.365,533.331 188.163,532.08C189.324,531.024 190.441,529.882 191.519,528.667C202.868,515.864 206.939,498.916 198.737,483.211C196.315,478.572 192.812,474.395 188.578,471.249ZM515.408,534.802C529.796,530.831 537.905,517.942 541.458,503.447C543.783,493.962 542.417,485.588 536.518,477.749C531.123,470.581 524.597,465.216 515.381,464.303C508.976,463.669 502.678,464.994 496.716,467.235C496.336,467.503 495.933,467.651 495.536,467.692C493.946,468.325 492.382,469.02 490.847,469.755C487.268,471.471 483.486,473.289 480.174,475.544C477.524,478.242 475.489,481.465 473.874,484.889C469.793,493.535 466.313,503.456 470.653,512.521C477.665,527.165 493.196,537.465 509.598,535.87C511.511,535.603 513.47,535.261 515.408,534.802ZM1000,349.559C999.892,349.438 999.784,349.317 999.676,349.196C994.503,353.655 989.603,358.403 984.947,363.455C981.458,367.241 978.048,371.114 974.658,374.99C971.517,378.582 968.787,382.219 964.47,384.467C961.458,386.036 959.446,384.504 958.228,381.923C957.148,380.807 956.346,379.256 955.997,378.147C954.857,374.52 955.477,370.494 957.994,367.616C958.24,367.335 958.488,367.056 958.738,366.778C962.254,359.407 968.133,353.23 973.208,346.918C976.138,343.275 978.959,339.419 982.363,336.196C983.461,335.157 984.631,334.225 985.842,333.352L984.5,332.016C976.459,324.223 967.972,316.826 959.774,309.318C956.202,306.047 955.485,300.087 957.082,295.692C957.614,294.23 958.555,292.848 959.724,291.905C960.917,290.694 962.505,290.012 964.066,290.827C964.703,291.009 965.346,291.351 965.979,291.883C969.694,295 973.34,298.144 976.926,301.333C984.86,308.163 992.742,315.07 1000,322.59L1000,349.559ZM503.253,319.109C513.632,308.628 524.799,298.918 534.54,287.804C537.31,284.644 541.107,287.357 542.647,290.053C544.596,293.465 544.884,299.217 542.466,302.539C534.554,313.407 525.205,323.29 515.868,333.079C520.238,337.936 524.585,342.816 528.868,347.748C532.918,351.265 537.194,354.953 539.989,359.367C540.808,360.269 541.618,361.18 542.418,362.101C545.1,365.192 544.852,371.005 543.205,374.456C542.48,375.975 541.109,377.408 539.553,378.004C537.912,379.743 535.825,380.297 533.574,377.826C528.2,371.929 522.913,365.955 517.638,359.968C515.056,357.479 512.474,354.992 509.892,352.501C507.61,350.565 505.311,348.647 503.008,346.734L485.699,365.446C479.982,371.628 474.347,379.03 466.033,381.725C465.398,381.931 464.801,382.022 464.241,382.016C457.735,387.404 454.466,373.149 457.506,368.781C457.676,368.538 457.846,368.296 458.017,368.056C459.967,360.12 468.293,354.327 474.208,348.77C479.095,344.179 484.041,339.649 488.994,335.124L489.067,335.034C478.862,326.231 469.138,316.953 461.14,305.944C460.005,304.383 459.466,302.235 459.414,300.01C458.675,296.152 459.515,289.317 463.165,290.248C464.921,289.087 467.18,289.351 469.699,292.184C474.392,297.462 481.419,300.175 487.203,303.996C493.383,308.079 498.337,313.618 503.253,319.109ZM334.813,318.969C339.79,313.977 345.172,309.348 349.888,304.105C355.679,297.667 360.846,288.978 369.851,286.866C378.929,284.737 379.496,299.301 375.07,304.067C366.257,313.556 357.798,323.367 349.337,333.17C349.516,333.365 349.695,333.56 349.873,333.756C358.566,341.683 367.241,349.63 375.82,357.682C378.702,360.388 379.629,364.78 379.024,368.595C378.57,371.463 376.61,375.962 373.041,375.888C371.061,375.846 369.171,375.383 367.36,374.627C366.837,374.599 366.293,374.45 365.735,374.155C359.112,370.648 353.874,365.442 348.967,359.832C344.637,356.066 340.273,352.341 335.9,348.626C325.486,360.518 314.975,372.754 300.519,379.782C299.978,380.045 299.459,380.203 298.965,380.269L298.407,380.718C295.56,383.004 292.732,381.554 291.13,378.699C289.232,375.318 289.41,370.835 291.292,367.49C291.564,367.007 291.847,366.534 292.14,366.072C293.89,357.615 301.081,351.988 307.138,345.784C311,341.829 314.999,338.001 319.05,334.231C314.368,330.155 309.727,326.03 305.132,321.864C297.381,314.836 289.415,308.615 290.958,297.066C290.97,296.976 290.984,296.885 290.999,296.794C290.892,293.356 291.969,289.717 295.21,290.082C295.288,290.09 295.365,290.1 295.442,290.11C296.394,289.718 297.474,289.65 298.663,290.066C306.217,292.703 311.917,298.383 317.756,303.61C323.458,308.714 329.174,313.799 334.813,318.969ZM168.355,286.807C177.012,285.224 186.071,286.626 193.814,291.145C198.997,294.169 202.788,298.233 205.408,302.984C207.918,306.698 209.464,310.876 210.292,315.25C210.421,315.788 210.538,316.334 210.642,316.887C213.07,329.786 211.292,344.144 205.112,355.766C203.722,358.379 202.057,360.796 200.168,362.998C198.871,365.055 197.433,367.018 195.838,368.859C184.82,381.574 169.143,382.312 155.339,376.489C151.731,375.415 148.247,373.807 144.997,371.627C139.608,368.012 135.365,363.273 132.303,357.899C131.441,356.665 130.643,355.4 129.917,354.11C126.299,347.686 125.485,340.829 126.428,334.063C126.588,327.851 127.979,321.659 130.637,315.978C133.217,309.961 136.977,304.704 141.566,300.434C147.849,293.585 155.68,287.814 164.673,286.987C165.866,286.877 167.097,286.817 168.355,286.807ZM667.588,289.867C669.932,289.528 672.335,289.368 674.786,289.402C685.85,289.555 697.07,293.816 704.054,302.664C707.606,307.164 709.782,312.502 710.886,318.092C710.96,318.464 711.029,318.837 711.093,319.214C711.893,323.888 711.965,328.711 711.485,333.344C710.347,344.314 705.696,355.46 698.284,363.934C692.738,371.078 685.306,376.792 676.341,378.808C670.63,380.091 665.107,379.517 659.836,377.85C652.23,376.318 645.278,372.482 639.6,366.952C633.629,362.746 628.606,357.732 627.351,349.884C626.877,346.917 626.698,343.827 626.773,340.703C626.498,335.188 627.468,329.564 629.33,324.14C629.724,322.747 630.177,321.379 630.686,320.039C630.864,319.541 631.046,319.049 631.233,318.563C634.751,309.409 640.933,301.327 648.772,296.088C652.938,292.702 657.721,290.989 662.736,290.374C664.323,290.092 665.942,289.921 667.588,289.867ZM0,322.59C0.147,322.741 0.292,322.893 0.438,323.044C5.986,318.426 11.135,313.279 16.505,308.509C19.985,305.417 23.611,302.406 26.711,298.92C29.577,295.698 31.736,291.931 35.271,289.362C42.644,284.002 46.321,298.156 42.567,302.926C36.163,311.06 29.894,319.294 23.514,327.446C20.592,331.179 17.195,334.26 13.592,337.114C17.684,341.034 21.86,344.856 26.103,348.614C27.184,349.446 28.247,350.3 29.27,351.204C29.912,351.771 30.532,352.395 31.152,353.029L32.039,353.794C32.435,354.134 32.831,354.474 33.227,354.814L33.692,355.212C35.312,356.357 36.93,357.489 38.534,358.615C40.143,359.744 41.212,361.941 41.72,364.47C42.162,366.395 42.199,368.56 41.884,370.573C41.197,375.405 38.517,379.415 33.708,377.878C29.955,376.677 27.206,374.251 24.423,371.578C21.519,368.789 18.294,366.438 15.109,363.989C12.33,361.853 9.84,359.499 7.486,357.023C4.878,354.665 2.367,352.198 0,349.559L0,322.59ZM795.436,334.984C795.144,334.339 794.985,333.577 795.047,332.779C796.696,311.689 813.523,293.744 834.815,291.985C845.285,291.12 855.997,294.108 864.501,300.268C873.797,307.001 877.099,316.731 877.214,327.921C877.416,347.755 867.176,368.352 847.717,375.452C845.221,376.363 842.655,376.982 840.064,377.325C836.728,377.922 833.249,378.035 829.668,377.58C821.972,376.603 815.267,373.439 809.899,368.791C806.54,366.102 803.618,362.855 801.334,359.125C796.921,351.918 794.995,343.391 795.436,334.984ZM686.318,365.043C693.43,359.811 698.894,351.684 702.125,343.429C705.394,335.078 707.492,325.574 704.265,316.883C701.079,308.303 693.992,304.287 685.544,302.003C678.148,300.003 670.069,298.248 662.372,299.455C658.839,300.258 655.509,301.692 652.452,303.617C648.157,306.794 644.755,311.295 641.571,315.647C639.326,318.714 637.217,322.012 635.569,325.499C635.25,326.421 634.962,327.353 634.708,328.292C633.468,332.861 632.327,338.376 632.587,343.535C633.612,348.646 636.486,353.458 640.003,357.558C646.674,362.74 654.36,367.685 662.47,369.869C663.864,370.244 665.236,370.506 666.585,370.662C673.463,370.669 680.4,368.697 686.318,365.043ZM172.6,295.904C163.412,296.767 155.055,301.412 148.398,307.872C140.936,315.113 133.796,325.732 132.273,336.196C131.941,338.476 132.041,340.678 132.484,342.79C132.675,343.597 132.894,344.395 133.142,345.185C135.89,353.287 143.488,359.945 150.378,364.578C153.576,366.728 157.119,368.501 160.823,369.713C161.597,369.845 162.38,369.951 163.17,370.028C172.573,370.947 181.313,368.636 188.44,363.973C193.108,359.36 196.756,353.273 199.069,348.184C204.03,337.269 207.394,321.188 201.772,309.906C201.622,309.605 201.465,309.309 201.302,309.018C196.533,302.347 188.107,298.906 180.026,297.157C177.813,296.678 175.491,296.22 173.14,295.916L172.6,295.904ZM845.762,367.763C859.633,362.07 870.772,345.824 871.275,331.162C871.854,314.264 858.588,302.31 842.22,302.166C831.904,302.075 820.564,306.053 812.444,313.143C804.131,321.416 799.607,333.133 802.523,345.206C804.172,352.034 808.029,357.909 813.155,362.227C814.098,362.972 815.092,363.671 816.134,364.319C825.27,370.004 836.086,371.026 845.762,367.763ZM154.981,168.757L140.982,155.541C134.615,149.53 127.36,143.73 124.365,135.202C122.968,131.223 122.766,126.347 125.119,122.649C126.974,119.734 130.413,118.465 133.304,120.831C141.627,127.64 149.992,134.408 158.061,141.516C162.416,145.205 166.679,148.977 170.852,152.723C175.967,147.413 181.003,142.025 185.957,136.564C191.734,130.195 197.506,122.873 206.1,120.359C214.315,117.957 215.898,130.035 214.208,135.489C209.942,149.265 198.959,159.547 187.994,168.993C195.828,177.03 203.158,185.574 209.592,194.736C211.996,198.16 212.361,203.258 210.95,207.141C210.034,209.66 206.752,213.976 203.46,212.041C195.661,207.458 189.386,201.374 182.875,195.177C178.913,191.407 174.949,187.64 170.98,183.878C165.252,188.987 159.524,194.095 153.796,199.205C146.594,205.629 139.202,211.927 130.613,216.437C128.796,217.391 127.166,217.109 125.795,216.149C119.885,216.676 119.402,206.953 121.555,203.081L121.563,203.067C122.228,198.377 123.881,194.341 127.879,191.134C131.39,188.316 135.568,186.375 139.238,183.758C140.757,182.403 142.257,181.051 143.698,179.681C147.493,176.076 151.253,172.433 154.981,168.757ZM654.609,169.533C645.361,160.639 636.87,151.227 629.255,140.728C628.012,139.016 627.378,136.868 627.218,134.689C625.212,129.376 627.828,118.088 634.268,122.931C634.684,123.244 635.097,123.563 635.509,123.888C638.989,124.834 641.164,127.245 643.534,130.289C644.542,131.585 645.57,132.858 646.623,134.109C648.695,136.191 650.741,138.282 652.795,140.295C656.685,144.107 660.564,147.929 664.442,151.75C666.519,153.578 668.614,155.383 670.71,157.185C683.195,146.812 693.093,133.845 706.175,124.163C714.557,117.96 718.159,133.996 714.356,139.374C706.312,150.751 695.903,160.685 685.321,170.029C693.482,177.538 701.176,185.508 707.525,194.693C710.028,198.315 710.21,203.628 708.343,207.538C707.08,210.182 703.831,212.668 701.041,210.998C699.752,211.225 698.425,210.864 697.242,209.565C688.722,200.21 679.314,191.799 669.872,183.414L666.785,186.063C658.666,197.033 648.793,206.12 637.149,213.683C635.886,214.504 634.579,214.426 633.377,213.864C627.797,216.147 626.756,206.943 627.722,202.215C627.819,199.79 628.451,197.392 629.658,195.439C636.188,184.88 645.104,176.948 654.609,169.533ZM1000,187.235C989.626,195.404 978.099,202.288 969.51,212.287C967.877,214.189 965.538,214.013 963.664,212.969C963.192,213.225 962.714,213.47 962.228,213.704C955.678,216.858 954.943,204.213 956.971,200.902C958.086,199.082 959.315,197.351 960.63,195.685C963.19,188.994 968.468,184.444 974.768,180.333C975.606,179.786 976.433,179.232 977.25,178.669L987.341,168.956C977.276,159.755 967.658,150.112 958.644,139.844C955.858,136.67 956.136,130.624 957.831,127.073C958.163,126.379 958.616,125.709 959.154,125.125C959.767,124.313 960.548,123.714 961.412,123.486C962.882,122.865 964.536,122.963 966.015,124.363C976.91,134.676 987.831,145.036 999.869,154.025L1000,154.123L1000,187.235ZM501.676,120.716C509.745,118.681 518.028,119.091 525.838,123.355C538.027,128.383 547.585,139.461 549.098,152.569C549.278,153.311 549.427,154.059 549.542,154.809C551.055,164.671 545.968,175.241 541.465,183.729C540.117,186.27 538.571,188.769 536.85,191.169L536.689,191.422C533.546,196.339 529.548,200.541 524.84,203.731C515.329,211.049 503.599,214.829 491.149,211.153C481.162,208.205 473.106,199.509 466.983,191.446C462.113,185.032 459.495,177.818 459.39,170.177C459.052,167.291 458.98,164.37 459.191,161.455C459.839,152.51 464.16,146.355 469.918,140.645C471.736,138.438 473.753,136.368 475.931,134.457C482.724,127.96 491.112,123.11 500.195,120.673C500.747,120.525 501.242,120.554 501.676,120.716ZM837.273,122.33C839.385,122.273 841.513,122.334 843.64,122.468C844.701,122.508 845.752,122.59 846.794,122.715C848.344,122.857 849.887,123.027 851.416,123.205C852.022,123.276 852.534,123.555 852.951,123.972C854.147,124.321 855.322,124.727 856.47,125.187C865.366,127.825 872.047,133.356 876.123,142.263C876.455,142.989 876.767,143.725 877.059,144.467C879.135,148.736 880.502,153.469 880.992,158.528C881.968,168.605 879.557,178.315 874.684,186.603C872.807,190.407 870.487,193.954 867.755,197.108C860.072,205.977 848.745,210.921 837.322,211.062C830.973,211.764 824.611,210.829 818.988,207.079C818.389,206.68 817.795,206.258 817.207,205.815C810.736,202.004 806.117,196.332 802.752,189.841C801.106,187.375 799.629,184.889 798.359,182.497C795.994,178.042 794.824,173.525 794.711,169.017C794.482,168.458 794.363,167.804 794.424,167.117C795.449,155.54 800.969,144.835 809.141,136.795C811.793,133.269 814.881,130.111 818.615,127.621C819.436,127.074 820.271,126.578 821.119,126.13C826.106,123.167 831.633,122.248 837.273,122.33ZM322.914,125.668C326.079,123.885 329.549,122.611 333.364,122.007C337.851,121.297 342.211,121.658 346.34,122.841C362.163,125.244 374.308,138.166 378.83,154.413C381.445,163.81 382.066,174.792 377.823,183.802C374.069,191.775 366.473,201.853 357.875,204.81C352.613,206.619 346.827,207.231 341.383,208.276C336.834,209.149 332.161,210.337 327.501,210.125C326.224,210.216 324.952,210.245 323.691,210.205C308.616,209.728 300.32,196.873 297.422,183.222C296.017,179.731 295.089,176.074 294.849,172.352C294.668,171.847 294.588,171.261 294.664,170.641C294.707,170.294 294.752,169.948 294.8,169.604C294.846,168.062 295.017,166.514 295.329,164.967C295.824,162.511 296.62,160.037 297.631,157.586C298.401,155.298 299.299,153.055 300.322,150.877C304.427,140.653 311.503,131.738 321.049,125.723C321.77,125.269 322.4,125.309 322.914,125.668ZM0,154.123C0.518,154.509 1.036,154.895 1.555,155.281C12.594,144.681 23.67,134.122 34.807,123.621C42.143,116.704 46.691,133.457 42.834,138.547C35.007,148.876 27.214,159.26 18.666,168.998C20.664,170.868 22.579,172.826 24.379,174.906C30.985,180.753 37.317,186.902 43.215,193.582C46.49,197.291 45.126,213.021 37.626,209.358C29.626,205.451 22.912,199.151 16.077,193.546C12.118,190.299 8.172,187.036 4.257,183.736C2.867,184.936 1.444,186.099 0,187.235L0,154.123ZM522.171,129.923C515.913,128.054 509.07,127.8 502.59,129.153C499.145,129.872 495.633,131.023 492.196,132.546C489.848,133.727 487.554,135.077 485.356,136.582C484.469,137.197 483.595,137.833 482.735,138.485C473.48,145.607 466.39,155.564 464.933,167.11C464.62,169.589 464.739,171.947 465.197,174.197C466.315,178.011 468.078,181.741 470.242,185.132C472.73,188.626 475.798,191.824 478.86,194.799C479.391,195.315 479.929,195.813 480.475,196.292L480.557,196.352C491.561,204.272 507.004,205.095 519.058,199.052C526.23,194.635 531.931,187.931 536.276,180.453C537.43,178.139 538.466,175.763 539.439,173.39C541.866,167.471 544.259,161.513 544.164,155.397C544.098,155.078 544.018,154.758 543.926,154.438C542.715,150.237 539.988,146.536 537.348,143.116C533.246,137.801 528.257,132.777 522.171,129.923ZM835.944,131.346C834.482,131.468 833.031,131.652 831.602,131.919C829.798,132.421 828.017,133.048 826.275,133.796C824.023,134.763 821.863,135.899 819.811,137.187C817.644,138.909 815.628,140.953 813.704,143.239C812.926,144.163 812.102,145.138 811.258,146.155C808.475,150.318 806.253,154.923 804.323,159.28C801.741,165.114 801.691,169.398 803.65,175.425C805.009,179.608 806.652,183.777 808.975,187.53C810.344,189.216 811.717,190.814 812.97,192.302C813.664,193.126 814.368,193.913 815.084,194.66C819.554,198.425 825.095,200.832 830.942,201.788C836.219,202.651 841.436,202.358 846.323,201.058C852.03,199.072 857.406,196.007 861.932,192.123C862.817,191.364 863.667,190.567 864.479,189.737C866.156,187.823 867.658,185.714 868.955,183.429C875.788,171.387 877.433,152.396 867.782,141.281C867.207,140.639 866.613,140.025 866,139.441C865.358,138.847 864.675,138.281 863.951,137.749C856.751,132.456 845.45,131.572 836.808,131.355C836.518,131.348 836.23,131.345 835.944,131.346ZM341.22,130.086C335.777,130.085 330.234,131.319 325.04,133.735C324.657,133.914 324.277,134.098 323.902,134.288C316.681,139.018 311.079,146.924 306.425,154.747C305.498,156.305 304.52,157.873 303.614,159.478C302.202,164.209 301.545,169.168 301.745,174.137C301.841,176.518 302.148,178.993 302.689,181.444C306.062,188.429 311.499,195.109 318.031,199.307C320.151,200.67 322.348,201.492 324.593,201.933C329.406,201.927 334.377,200.718 338.872,199.336C354.451,194.547 370.883,187.878 372.69,169.373C374.286,153.023 360.899,134.742 344.999,130.782C343.706,130.46 342.446,130.23 341.22,130.086ZM354.074,0C362.42,6.958 370.323,14.393 376.432,23.51C379.585,28.214 379.291,42.647 370.504,40.238C357.217,36.593 347.353,27.204 338.446,17.176C329.907,27.286 320.863,36.918 310.921,45.555C309.424,46.855 307.096,47.767 305.132,46.857L304.748,46.679C303.298,47.595 301.815,48.383 300.299,48.99C293.402,51.754 292.575,39.399 294.852,35.722C297.2,31.931 300.281,28.54 303.543,25.306C305.677,22.708 308.345,20.427 310.971,18.172C311.535,17.623 312.091,17.073 312.636,16.522C317.087,12.024 321.546,7.539 325.756,2.822C324.838,1.865 323.907,0.924 322.958,0L354.074,0ZM715.66,0C715.126,3.009 714.224,5.985 713.092,8.834C705.896,26.94 691.887,43.968 671.653,47.034C651.246,50.128 632.675,33.943 627.432,14.795C626.05,9.75 626.223,4.795 627.351,0L634.45,0C631.689,15.041 640.071,29.681 654.624,35.46C669.923,41.534 687.072,35.329 696.687,22.476C700.421,17.484 704.868,11.737 707.875,5.871C708.714,3.949 709.432,1.974 709.932,0L715.66,0ZM855.012,0L854.331,0.749C858.117,4.776 861.782,8.907 865.43,13.089C868.726,16.451 871.976,19.857 875.187,23.298C878.358,26.695 879.328,31.711 877.721,36.131C876.591,39.245 873.293,42.172 870.159,40.317C868.562,40.967 866.802,40.852 865.312,39.265C861.483,35.188 858.017,30.808 854.444,26.518C850.099,22.661 845.756,18.801 841.412,14.945C830.572,26.812 819.261,38.065 805.199,46.11C802.935,47.405 800.664,46.05 799.097,44.203C796.439,43.296 795.602,38.884 796.415,36.188C796.429,33.721 797.063,31.255 798.206,29.079C802.527,20.858 809.041,14.107 816.132,8.211C819.191,5.669 822.381,3.284 825.563,0.897L824.548,0L855.012,0ZM545.685,0C545.632,1.54 545.451,3.135 545.131,4.793C543.022,15.716 535.777,27.016 526.363,34.934C514.889,45.401 498.062,50.785 484.045,42.089C478.15,38.432 473.934,32.832 470.695,26.769C468.244,22.891 466.154,18.811 464.402,14.97C462.265,10.287 460.682,5.153 460.295,0L467.487,0C467.514,0.577 467.569,1.152 467.656,1.725C468.751,8.949 471.989,16.959 475.876,23.398C476.101,23.721 476.325,24.04 476.548,24.356C481.358,31.165 487.083,36.582 495.658,37.755C500.299,38.389 504.943,37.877 509.337,36.477C520.959,32.66 529.536,22.465 534.98,11.256C536.732,7.649 538.328,3.84 539.073,0L545.685,0ZM211.105,0C211.515,15.472 203.696,29.706 190.115,38.119C182.498,42.837 173.072,45.764 164.07,45.651C153.871,45.522 145.134,39.492 138.342,32.305C132.072,25.671 127.166,17.37 126.27,8.14C126.105,6.439 126.099,4.779 126.228,3.156C126.188,2.914 126.173,2.658 126.187,2.388C126.229,1.58 126.311,0.784 126.431,0L135.827,0C134.406,7.204 135.326,14.632 140.192,21.944C149.39,35.765 167.411,39.785 182.116,32.643C193.781,26.977 202.383,13.246 202.741,0L211.105,0ZM0,33.33C1.243,33.46 2.501,33.531 3.769,33.54C4.254,33.544 4.74,33.539 5.227,33.526L5.413,33.468C5.971,33.292 6.473,33.3 6.915,33.448C13.996,32.981 21.04,30.76 26.853,26.659C29.652,24.685 32.285,22.293 34.103,19.402C34.791,18.089 35.418,16.705 35.98,15.275C36.007,15.182 36.033,15.087 36.059,14.992C37.196,10.772 36.885,5.939 36.749,1.599C36.732,1.061 36.707,0.527 36.672,0L44.539,0C44.407,2.947 43.99,5.915 43.383,8.834C43.148,9.967 42.893,11.103 42.615,12.238C42.542,13.031 42.46,13.813 42.37,14.583C41.531,21.799 38.172,27.648 33.352,32.107C31.891,33.8 30.238,35.349 28.358,36.713C20.418,42.474 10.101,44.457 0.497,42.874C0.331,42.873 0.165,42.871 0,42.867L0,33.33ZM1000,42.867C997.082,42.795 994.23,42.143 991.488,41.076C983.287,38.685 976.329,33.772 971.039,27.404C970.537,26.943 970.041,26.474 969.552,26C961.783,18.47 958.932,10.303 959.344,0L966.444,0C966.564,0.818 966.72,1.644 966.912,2.476C968.899,11.082 974.27,18.629 980.713,24.512C982.774,26.395 985.089,28.274 987.58,29.87C991.445,31.684 995.636,32.873 1000,33.33L1000,42.867Z" style="fill-rule:nonzero;"/>
</svg>
